<svg width="67" height="67" viewBox="0 0 67 67" fill="none" xmlns="http://www.w3.org/2000/svg">
<path fill-rule="evenodd" clip-rule="evenodd" d="M54.0831 36.7318L55.0464 36.4632C55.1113 36.6965 55.2217 36.9152 55.371 37.1059C55.5203 37.2966 55.7057 37.456 55.9166 37.5751C56.1275 37.6941 56.3598 37.7705 56.6002 37.7998C56.8407 37.8291 57.0845 37.8107 57.3178 37.7457C57.5511 37.6808 57.7694 37.5705 57.9601 37.4212C58.1508 37.2719 58.3102 37.0865 58.4293 36.8756C58.5483 36.6647 58.6247 36.4324 58.6539 36.192C58.6832 35.9516 58.6649 35.7078 58.5999 35.4744L58.5996 35.4735L58.5978 35.4668L58.588 35.4332C58.5788 35.4019 58.5641 35.353 58.5436 35.2877C58.5027 35.1571 58.4388 34.9611 58.3494 34.7093C58.1705 34.2055 57.8903 33.4794 57.4894 32.6075C56.6866 30.8613 55.4066 28.544 53.5001 26.2562C49.7023 21.6989 43.1099 17.0628 33.1253 17.0628C23.1406 17.0628 16.5483 21.6989 12.7505 26.2562C10.844 28.544 9.56398 30.8613 8.76116 32.6075C8.36031 33.4794 8.08005 34.2055 7.9012 34.7093C7.81182 34.9611 7.74788 35.1571 7.70697 35.2877C7.68652 35.353 7.67183 35.4019 7.66261 35.4332L7.65283 35.4668L7.65095 35.4734L7.65067 35.4744C7.5195 35.9457 7.58088 36.4497 7.82133 36.8756C8.06177 37.3016 8.46157 37.6146 8.93278 37.7457C9.40399 37.8769 9.90801 37.8155 10.334 37.5751C10.7599 37.3346 11.0729 36.9348 11.2041 36.4636L11.2044 36.4627L11.2049 36.4605L11.2061 36.4565L11.4078 35.7318H11.446C11.6009 35.3035 11.8366 34.7061 12.1697 33.993C12.849 32.5389 13.9383 30.5935 15.5834 28.6194C18.8925 24.6484 24.1484 20.7503 33.1253 20.7503C42.1022 20.7503 47.358 24.6484 50.6672 28.6194C52.3123 30.5935 53.4016 32.5389 54.0809 33.993C54.4209 34.7209 54.6594 35.3283 54.8142 35.7583C54.8916 35.9734 54.9482 36.1443 54.9861 36.2641C55.0051 36.324 55.0194 36.3711 55.0294 36.4046L55.0411 36.4445L55.0445 36.4565L55.0456 36.4605L55.0461 36.462C55.0461 36.4623 55.0464 36.4632 54.0831 36.7318ZM0.132988 15.8427C0.0418771 15.6159 -0.0032626 15.3733 0.000192918 15.129L0.000292815 9.42737C0.000292815 4.25466 4.25467 0.00028442 9.42738 0.00028442L15.1149 0.000384437L15.129 0.000184403C15.3734 -0.00327106 15.6159 0.0418686 15.8427 0.13298C16.0694 0.224092 16.2758 0.359358 16.4498 0.530918C16.6238 0.702477 16.7619 0.906909 16.8563 1.13233C16.9506 1.35776 16.9991 1.59968 16.9991 1.84403C16.9991 2.08839 16.9506 2.33031 16.8563 2.55573C16.7619 2.78116 16.6238 2.98559 16.4498 3.15715C16.2758 3.32871 16.0694 3.46398 15.8427 3.55509C15.6159 3.6462 15.3734 3.69124 15.129 3.68778H9.42738C6.22429 3.68778 3.68779 6.22428 3.68779 9.42737L3.68769 15.1149L3.68789 15.129C3.69135 15.3733 3.64621 15.6159 3.5551 15.8427C3.46399 16.0694 3.32872 16.2758 3.15716 16.4498C2.9856 16.6238 2.78117 16.7619 2.55574 16.8562C2.33032 16.9506 2.0884 16.9991 1.84404 16.9991C1.59969 16.9991 1.35777 16.9506 1.13234 16.8562C0.906918 16.7619 0.702486 16.6238 0.530926 16.4498C0.359367 16.2758 0.2241 16.0694 0.132988 15.8427ZM50.4079 0.13298C50.6347 0.041869 50.8772 -0.00327112 51.1216 0.000184403L56.8232 0.00028442C61.9959 0.00028442 66.2503 4.25466 66.2503 9.42737L66.2502 15.1149L66.2504 15.129C66.2539 15.3733 66.2087 15.6159 66.1176 15.8427C66.0265 16.0694 65.8912 16.2758 65.7197 16.4498C65.5481 16.6238 65.3437 16.7619 65.1182 16.8562C64.8928 16.9506 64.6509 16.9991 64.4065 16.9991C64.1622 16.9991 63.9203 16.9506 63.6948 16.8562C63.4694 16.7619 63.265 16.6238 63.0934 16.4498C62.9219 16.2758 62.7866 16.0694 62.6955 15.8427C62.6044 15.6159 62.5593 15.3733 62.5628 15.129V9.42737C62.5628 6.22428 60.0263 3.68778 56.8232 3.68778L51.1357 3.68768L51.1216 3.68788C50.8772 3.69134 50.6347 3.6462 50.4079 3.55509C50.1812 3.46398 49.9748 3.32872 49.8008 3.15715C49.6268 2.98559 49.4886 2.78116 49.3943 2.55573C49.3 2.33031 49.2515 2.08839 49.2515 1.84403C49.2515 1.59968 49.3 1.35776 49.3943 1.13233C49.4886 0.906912 49.6268 0.702479 49.8008 0.530918C49.9748 0.359353 50.1812 0.224089 50.4079 0.13298ZM0.000292815 56.8232V51.1285L0.000189937 51.1214C-0.00681897 50.6328 0.180397 50.1613 0.520716 49.8107C0.861035 49.46 1.32663 49.2587 1.81524 49.2511C2.06201 49.2472 2.30706 49.293 2.53585 49.3856C2.76464 49.4782 2.97251 49.6157 3.14714 49.7901C3.32178 49.9646 3.45963 50.1723 3.55251 50.4009C3.6454 50.6296 3.69144 50.8746 3.6879 51.1214L3.68779 51.1285V56.8232C3.68779 60.0263 6.22429 62.5628 9.42738 62.5628L15.1149 62.5629L15.129 62.5627C15.3733 62.5592 15.6159 62.6044 15.8427 62.6955C16.0694 62.7866 16.2758 62.9219 16.4498 63.0934C16.6238 63.265 16.7619 63.4694 16.8563 63.6948C16.9506 63.9203 16.9991 64.1622 16.9991 64.4065C16.9991 64.6509 16.9506 64.8928 16.8563 65.1182C16.7619 65.3437 16.6238 65.5481 16.4498 65.7197C16.2758 65.8912 16.0694 66.0265 15.8427 66.1176C15.6159 66.2087 15.3733 66.2537 15.129 66.2503H9.42738C4.25467 66.2503 0.000292815 61.9959 0.000292815 56.8232ZM62.5628 56.8232V51.1285L62.5627 51.1214C62.5557 50.6327 62.7429 50.1613 63.0832 49.8107C63.4235 49.46 63.8891 49.2587 64.3777 49.2511C64.6245 49.2472 64.8696 49.293 65.0984 49.3856C65.3271 49.4782 65.535 49.6157 65.7096 49.7901C65.8843 49.9646 66.0221 50.1723 66.115 50.4009C66.2079 50.6296 66.2539 50.8746 66.2504 51.1214L66.2503 51.1285V56.8232C66.2503 61.9959 61.9959 66.2503 56.8232 66.2503L51.1357 66.2502L51.1216 66.2504C50.8772 66.2538 50.6347 66.2087 50.4079 66.1176C50.1812 66.0265 49.9748 65.8912 49.8008 65.7197C49.6268 65.5481 49.4886 65.3437 49.3943 65.1182C49.3 64.8928 49.2515 64.6509 49.2515 64.4065C49.2515 64.1622 49.3 63.9203 49.3943 63.6948C49.4886 63.4694 49.6268 63.265 49.8008 63.0934C49.9748 62.9219 50.1812 62.7866 50.4079 62.6955C50.6347 62.6044 50.8772 62.5593 51.1216 62.5628H56.8232C60.0263 62.5628 62.5628 60.0263 62.5628 56.8232ZM25.3489 29.8277C27.0931 27.8654 29.8424 26.542 33.1253 26.542C36.4082 26.542 39.1575 27.8654 40.9017 29.8277C42.6625 31.8086 43.5003 34.366 43.5003 36.917C43.5003 39.4679 42.6625 42.0254 40.9017 44.0063C39.1575 45.9685 36.4082 47.292 33.1253 47.292C29.8424 47.292 27.0931 45.9685 25.3489 44.0063C23.5881 42.0254 22.7503 39.4679 22.7503 36.917C22.7503 34.366 23.5881 31.8086 25.3489 29.8277ZM38.1457 32.2758C37.0455 31.038 35.5286 30.2295 33.1253 30.2295C30.722 30.2295 29.2051 31.038 28.1049 32.2758C27.0206 33.4955 26.4378 35.2044 26.4378 36.917C26.4378 38.6295 27.0206 40.3384 28.1049 41.5581C29.2051 42.7959 30.722 43.6045 33.1253 43.6045C35.5286 43.6045 37.0455 42.7959 38.1457 41.5581C39.23 40.3384 39.8128 38.6295 39.8128 36.917C39.8128 35.2044 39.23 33.4955 38.1457 32.2758Z" fill="#B71A1B"/>
</svg>
