<svg width="95" height="95" viewBox="0 0 95 95" fill="none" xmlns="http://www.w3.org/2000/svg">
<path d="M10.6875 19C9.42797 19 8.21918 19.4999 7.3291 20.3916C6.44097 21.2813 5.9375 22.4895 5.9375 23.75V71.25C5.9375 72.5095 6.43744 73.7183 7.3291 74.6084C8.21881 75.4965 9.42698 76 10.6875 76H84.3125C85.572 76 86.7808 75.5001 87.6709 74.6084C88.559 73.7187 89.0625 72.5105 89.0625 71.25V23.75C89.0625 22.4905 88.5626 21.2817 87.6709 20.3916C86.7812 19.5035 85.573 19 84.3125 19H10.6875ZM10.6875 21.375H84.3125C84.9425 21.375 85.5443 21.6242 85.9917 22.0708C86.4372 22.5155 86.6875 23.119 86.6875 23.75V71.25C86.6875 71.88 86.4383 72.4818 85.9917 72.9292C85.547 73.3747 84.9435 73.625 84.3125 73.625H10.6875C10.0575 73.625 9.45572 73.3758 9.0083 72.9292C8.56284 72.4845 8.3125 71.881 8.3125 71.25V23.75C8.3125 23.12 8.56168 22.5182 9.0083 22.0708C9.45297 21.6253 10.0565 21.375 10.6875 21.375ZM14.25 23.75C13.9351 23.75 13.633 23.8751 13.4103 24.0978C13.1876 24.3205 13.0625 24.6226 13.0625 24.9375C13.0625 25.2524 13.1876 25.5545 13.4103 25.7772C13.633 25.9999 13.9351 26.125 14.25 26.125C14.5649 26.125 14.867 25.9999 15.0897 25.7772C15.3124 25.5545 15.4375 25.2524 15.4375 24.9375C15.4375 24.6226 15.3124 24.3205 15.0897 24.0978C14.867 23.8751 14.5649 23.75 14.25 23.75ZM19 23.75C18.6851 23.75 18.383 23.8751 18.1603 24.0978C17.9376 24.3205 17.8125 24.6226 17.8125 24.9375C17.8125 25.2524 17.9376 25.5545 18.1603 25.7772C18.383 25.9999 18.6851 26.125 19 26.125C19.3149 26.125 19.617 25.9999 19.8397 25.7772C20.0624 25.5545 20.1875 25.2524 20.1875 24.9375C20.1875 24.6226 20.0624 24.3205 19.8397 24.0978C19.617 23.8751 19.3149 23.75 19 23.75ZM23.75 23.75C23.4351 23.75 23.133 23.8751 22.9103 24.0978C22.6876 24.3205 22.5625 24.6226 22.5625 24.9375C22.5625 25.2524 22.6876 25.5545 22.9103 25.7772C23.133 25.9999 23.4351 26.125 23.75 26.125C24.0649 26.125 24.367 25.9999 24.5897 25.7772C24.8124 25.5545 24.9375 25.2524 24.9375 24.9375C24.9375 24.6226 24.8124 24.3205 24.5897 24.0978C24.367 23.8751 24.0649 23.75 23.75 23.75ZM28.5 23.75C28.1851 23.75 27.883 23.8751 27.6603 24.0978C27.4376 24.3205 27.3125 24.6226 27.3125 24.9375C27.3125 25.2524 27.4376 25.5545 27.6603 25.7772C27.883 25.9999 28.1851 26.125 28.5 26.125C28.8149 26.125 29.117 25.9999 29.3397 25.7772C29.5624 25.5545 29.6875 25.2524 29.6875 24.9375C29.6875 24.6226 29.5624 24.3205 29.3397 24.0978C29.117 23.8751 28.8149 23.75 28.5 23.75ZM33.25 23.75C32.9351 23.75 32.633 23.8751 32.4103 24.0978C32.1876 24.3205 32.0625 24.6226 32.0625 24.9375C32.0625 25.2524 32.1876 25.5545 32.4103 25.7772C32.633 25.9999 32.9351 26.125 33.25 26.125C33.5649 26.125 33.867 25.9999 34.0897 25.7772C34.3124 25.5545 34.4375 25.2524 34.4375 24.9375C34.4375 24.6226 34.3124 24.3205 34.0897 24.0978C33.867 23.8751 33.5649 23.75 33.25 23.75ZM38 23.75C37.6851 23.75 37.383 23.8751 37.1603 24.0978C36.9376 24.3205 36.8125 24.6226 36.8125 24.9375C36.8125 25.2524 36.9376 25.5545 37.1603 25.7772C37.383 25.9999 37.6851 26.125 38 26.125C38.3149 26.125 38.617 25.9999 38.8397 25.7772C39.0624 25.5545 39.1875 25.2524 39.1875 24.9375C39.1875 24.6226 39.0624 24.3205 38.8397 24.0978C38.617 23.8751 38.3149 23.75 38 23.75ZM42.75 23.75C42.4351 23.75 42.133 23.8751 41.9103 24.0978C41.6876 24.3205 41.5625 24.6226 41.5625 24.9375C41.5625 25.2524 41.6876 25.5545 41.9103 25.7772C42.133 25.9999 42.4351 26.125 42.75 26.125C43.0649 26.125 43.367 25.9999 43.5897 25.7772C43.8124 25.5545 43.9375 25.2524 43.9375 24.9375C43.9375 24.6226 43.8124 24.3205 43.5897 24.0978C43.367 23.8751 43.0649 23.75 42.75 23.75ZM47.5 23.75C47.1851 23.75 46.883 23.8751 46.6603 24.0978C46.4376 24.3205 46.3125 24.6226 46.3125 24.9375C46.3125 25.2524 46.4376 25.5545 46.6603 25.7772C46.883 25.9999 47.1851 26.125 47.5 26.125C47.8149 26.125 48.117 25.9999 48.3397 25.7772C48.5624 25.5545 48.6875 25.2524 48.6875 24.9375C48.6875 24.6226 48.5624 24.3205 48.3397 24.0978C48.117 23.8751 47.8149 23.75 47.5 23.75ZM52.25 23.75C51.9351 23.75 51.633 23.8751 51.4103 24.0978C51.1876 24.3205 51.0625 24.6226 51.0625 24.9375C51.0625 25.2524 51.1876 25.5545 51.4103 25.7772C51.633 25.9999 51.9351 26.125 52.25 26.125C52.5649 26.125 52.867 25.9999 53.0897 25.7772C53.3124 25.5545 53.4375 25.2524 53.4375 24.9375C53.4375 24.6226 53.3124 24.3205 53.0897 24.0978C52.867 23.8751 52.5649 23.75 52.25 23.75ZM57 23.75C56.6851 23.75 56.383 23.8751 56.1603 24.0978C55.9376 24.3205 55.8125 24.6226 55.8125 24.9375C55.8125 25.2524 55.9376 25.5545 56.1603 25.7772C56.383 25.9999 56.6851 26.125 57 26.125C57.3149 26.125 57.617 25.9999 57.8397 25.7772C58.0624 25.5545 58.1875 25.2524 58.1875 24.9375C58.1875 24.6226 58.0624 24.3205 57.8397 24.0978C57.617 23.8751 57.3149 23.75 57 23.75ZM61.75 23.75C61.4351 23.75 61.133 23.8751 60.9103 24.0978C60.6876 24.3205 60.5625 24.6226 60.5625 24.9375C60.5625 25.2524 60.6876 25.5545 60.9103 25.7772C61.133 25.9999 61.4351 26.125 61.75 26.125C62.0649 26.125 62.367 25.9999 62.5897 25.7772C62.8124 25.5545 62.9375 25.2524 62.9375 24.9375C62.9375 24.6226 62.8124 24.3205 62.5897 24.0978C62.367 23.8751 62.0649 23.75 61.75 23.75ZM66.5 23.75C66.1851 23.75 65.883 23.8751 65.6603 24.0978C65.4376 24.3205 65.3125 24.6226 65.3125 24.9375C65.3125 25.2524 65.4376 25.5545 65.6603 25.7772C65.883 25.9999 66.1851 26.125 66.5 26.125C66.8149 26.125 67.117 25.9999 67.3397 25.7772C67.5624 25.5545 67.6875 25.2524 67.6875 24.9375C67.6875 24.6226 67.5624 24.3205 67.3397 24.0978C67.117 23.8751 66.8149 23.75 66.5 23.75ZM71.25 23.75C70.9351 23.75 70.633 23.8751 70.4103 24.0978C70.1876 24.3205 70.0625 24.6226 70.0625 24.9375C70.0625 25.2524 70.1876 25.5545 70.4103 25.7772C70.633 25.9999 70.9351 26.125 71.25 26.125C71.5649 26.125 71.867 25.9999 72.0897 25.7772C72.3124 25.5545 72.4375 25.2524 72.4375 24.9375C72.4375 24.6226 72.3124 24.3205 72.0897 24.0978C71.867 23.8751 71.5649 23.75 71.25 23.75ZM76 23.75C75.6851 23.75 75.383 23.8751 75.1603 24.0978C74.9376 24.3205 74.8125 24.6226 74.8125 24.9375C74.8125 25.2524 74.9376 25.5545 75.1603 25.7772C75.383 25.9999 75.6851 26.125 76 26.125C76.3149 26.125 76.617 25.9999 76.8397 25.7772C77.0624 25.5545 77.1875 25.2524 77.1875 24.9375C77.1875 24.6226 77.0624 24.3205 76.8397 24.0978C76.617 23.8751 76.3149 23.75 76 23.75ZM80.75 23.75C80.4351 23.75 80.133 23.8751 79.9103 24.0978C79.6876 24.3205 79.5625 24.6226 79.5625 24.9375C79.5625 25.2524 79.6876 25.5545 79.9103 25.7772C80.133 25.9999 80.4351 26.125 80.75 26.125C81.0649 26.125 81.367 25.9999 81.5897 25.7772C81.8124 25.5545 81.9375 25.2524 81.9375 24.9375C81.9375 24.6226 81.8124 24.3205 81.5897 24.0978C81.367 23.8751 81.0649 23.75 80.75 23.75ZM61.7314 37.9838C61.6739 37.985 61.6166 37.9904 61.5598 38H59.375C59.2176 37.9978 59.0614 38.0268 58.9154 38.0855C58.7694 38.1442 58.6365 38.2313 58.5244 38.3418C58.4123 38.4523 58.3233 38.584 58.2626 38.7291C58.2019 38.8743 58.1706 39.0301 58.1706 39.1875C58.1706 39.3449 58.2019 39.5007 58.2626 39.6459C58.3233 39.791 58.4123 39.9227 58.5244 40.0332C58.6365 40.1437 58.7694 40.2308 58.9154 40.2895C59.0614 40.3482 59.2176 40.3772 59.375 40.375H60.5625V54.625H59.375C59.2176 54.6228 59.0614 54.6518 58.9154 54.7105C58.7694 54.7692 58.6365 54.8563 58.5244 54.9668C58.4123 55.0773 58.3233 55.209 58.2626 55.3541C58.2019 55.4993 58.1706 55.6551 58.1706 55.8125C58.1706 55.9699 58.2019 56.1257 58.2626 56.2709C58.3233 56.416 58.4123 56.5477 58.5244 56.6582C58.6365 56.7687 58.7694 56.8558 58.9154 56.9145C59.0614 56.9731 59.2176 57.0022 59.375 57H61.5505C61.6788 57.0212 61.8096 57.0212 61.9379 57H64.125C64.2824 57.0022 64.4386 56.9731 64.5846 56.9145C64.7306 56.8558 64.8635 56.7687 64.9756 56.6582C65.0877 56.5477 65.1767 56.416 65.2374 56.2709C65.2981 56.1257 65.3294 55.9699 65.3294 55.8125C65.3294 55.6551 65.2981 55.4993 65.2374 55.3541C65.1767 55.209 65.0877 55.0773 64.9756 54.9668C64.8635 54.8563 64.7306 54.7692 64.5846 54.7105C64.4386 54.6518 64.2824 54.6228 64.125 54.625H62.9375V40.375H64.125C64.2824 40.3772 64.4386 40.3482 64.5846 40.2895C64.7306 40.2308 64.8635 40.1437 64.9756 40.0332C65.0877 39.9227 65.1767 39.791 65.2374 39.6459C65.2981 39.5007 65.3294 39.3449 65.3294 39.1875C65.3294 39.0301 65.2981 38.8743 65.2374 38.7291C65.1767 38.584 65.0877 38.4523 64.9756 38.3418C64.8635 38.2313 64.7306 38.1442 64.5846 38.0855C64.4386 38.0268 64.2824 37.9978 64.125 38H61.9332C61.8666 37.9889 61.799 37.9834 61.7314 37.9838ZM34.4213 38C34.1668 38.0033 33.9202 38.0883 33.7176 38.2424C33.5151 38.3964 33.3675 38.6115 33.2964 38.8558L28.5464 55.1793C28.5153 55.2871 28.4997 55.3988 28.5 55.511V55.8125C28.4978 55.9699 28.5268 56.1261 28.5855 56.2721C28.6442 56.4181 28.7313 56.551 28.8418 56.6631C28.9523 56.7752 29.084 56.8642 29.2291 56.9249C29.3743 56.9856 29.5301 57.0169 29.6875 57.0169C29.8449 57.0169 30.0007 56.9856 30.1459 56.9249C30.291 56.8642 30.4227 56.7752 30.5332 56.6631C30.6437 56.551 30.7308 56.4181 30.7895 56.2721C30.8482 56.1261 30.8772 55.9699 30.875 55.8125V55.6803L31.8723 52.25H37.0027L38 55.6803V55.8125C37.9978 55.9699 38.0268 56.1261 38.0855 56.2721C38.1442 56.4181 38.2313 56.551 38.3418 56.6631C38.4523 56.7752 38.584 56.8642 38.7291 56.9249C38.8743 56.9856 39.0301 57.0169 39.1875 57.0169C39.3449 57.0169 39.5007 56.9856 39.6459 56.9249C39.791 56.8642 39.9227 56.7752 40.0332 56.6631C40.1437 56.551 40.2308 56.4181 40.2895 56.2721C40.3482 56.1261 40.3772 55.9699 40.375 55.8125V55.511C40.3753 55.3988 40.3597 55.2871 40.3286 55.1793L35.5786 38.8558C35.506 38.6062 35.3534 38.3872 35.1444 38.2326C34.9353 38.078 34.6813 37.9963 34.4213 38ZM45.125 38C44.8101 38 44.508 38.1252 44.2853 38.3478C44.0627 38.5705 43.9375 38.8726 43.9375 39.1875V49.6755C43.9163 49.8038 43.9163 49.9346 43.9375 50.0629V55.8125C43.9353 55.9699 43.9643 56.1261 44.023 56.2721C44.0817 56.4181 44.1688 56.551 44.2793 56.6631C44.3898 56.7752 44.5215 56.8642 44.6666 56.9249C44.8118 56.9856 44.9676 57.0169 45.125 57.0169C45.2824 57.0169 45.4382 56.9856 45.5834 56.9249C45.7285 56.8642 45.8602 56.7752 45.9707 56.6631C46.0812 56.551 46.1683 56.4181 46.227 56.2721C46.2857 56.1261 46.3147 55.9699 46.3125 55.8125V51.0625H49.875C52.4843 51.0625 54.625 48.9218 54.625 46.3125V42.75C54.625 40.1407 52.4843 38 49.875 38H45.125ZM46.3125 40.375H49.875C51.201 40.375 52.25 41.424 52.25 42.75V46.3125C52.25 47.6385 51.201 48.6875 49.875 48.6875H46.3125V40.375ZM34.4375 43.4388L36.3115 49.875H32.5635L34.4375 43.4388ZM14.25 68.875C13.9351 68.875 13.633 69.0001 13.4103 69.2228C13.1876 69.4455 13.0625 69.7476 13.0625 70.0625C13.0625 70.3774 13.1876 70.6795 13.4103 70.9022C13.633 71.1249 13.9351 71.25 14.25 71.25C14.5649 71.25 14.867 71.1249 15.0897 70.9022C15.3124 70.6795 15.4375 70.3774 15.4375 70.0625C15.4375 69.7476 15.3124 69.4455 15.0897 69.2228C14.867 69.0001 14.5649 68.875 14.25 68.875ZM19 68.875C18.6851 68.875 18.383 69.0001 18.1603 69.2228C17.9376 69.4455 17.8125 69.7476 17.8125 70.0625C17.8125 70.3774 17.9376 70.6795 18.1603 70.9022C18.383 71.1249 18.6851 71.25 19 71.25C19.3149 71.25 19.617 71.1249 19.8397 70.9022C20.0624 70.6795 20.1875 70.3774 20.1875 70.0625C20.1875 69.7476 20.0624 69.4455 19.8397 69.2228C19.617 69.0001 19.3149 68.875 19 68.875ZM23.75 68.875C23.4351 68.875 23.133 69.0001 22.9103 69.2228C22.6876 69.4455 22.5625 69.7476 22.5625 70.0625C22.5625 70.3774 22.6876 70.6795 22.9103 70.9022C23.133 71.1249 23.4351 71.25 23.75 71.25C24.0649 71.25 24.367 71.1249 24.5897 70.9022C24.8124 70.6795 24.9375 70.3774 24.9375 70.0625C24.9375 69.7476 24.8124 69.4455 24.5897 69.2228C24.367 69.0001 24.0649 68.875 23.75 68.875ZM28.5 68.875C28.1851 68.875 27.883 69.0001 27.6603 69.2228C27.4376 69.4455 27.3125 69.7476 27.3125 70.0625C27.3125 70.3774 27.4376 70.6795 27.6603 70.9022C27.883 71.1249 28.1851 71.25 28.5 71.25C28.8149 71.25 29.117 71.1249 29.3397 70.9022C29.5624 70.6795 29.6875 70.3774 29.6875 70.0625C29.6875 69.7476 29.5624 69.4455 29.3397 69.2228C29.117 69.0001 28.8149 68.875 28.5 68.875ZM33.25 68.875C32.9351 68.875 32.633 69.0001 32.4103 69.2228C32.1876 69.4455 32.0625 69.7476 32.0625 70.0625C32.0625 70.3774 32.1876 70.6795 32.4103 70.9022C32.633 71.1249 32.9351 71.25 33.25 71.25C33.5649 71.25 33.867 71.1249 34.0897 70.9022C34.3124 70.6795 34.4375 70.3774 34.4375 70.0625C34.4375 69.7476 34.3124 69.4455 34.0897 69.2228C33.867 69.0001 33.5649 68.875 33.25 68.875ZM38 68.875C37.6851 68.875 37.383 69.0001 37.1603 69.2228C36.9376 69.4455 36.8125 69.7476 36.8125 70.0625C36.8125 70.3774 36.9376 70.6795 37.1603 70.9022C37.383 71.1249 37.6851 71.25 38 71.25C38.3149 71.25 38.617 71.1249 38.8397 70.9022C39.0624 70.6795 39.1875 70.3774 39.1875 70.0625C39.1875 69.7476 39.0624 69.4455 38.8397 69.2228C38.617 69.0001 38.3149 68.875 38 68.875ZM42.75 68.875C42.4351 68.875 42.133 69.0001 41.9103 69.2228C41.6876 69.4455 41.5625 69.7476 41.5625 70.0625C41.5625 70.3774 41.6876 70.6795 41.9103 70.9022C42.133 71.1249 42.4351 71.25 42.75 71.25C43.0649 71.25 43.367 71.1249 43.5897 70.9022C43.8124 70.6795 43.9375 70.3774 43.9375 70.0625C43.9375 69.7476 43.8124 69.4455 43.5897 69.2228C43.367 69.0001 43.0649 68.875 42.75 68.875ZM47.5 68.875C47.1851 68.875 46.883 69.0001 46.6603 69.2228C46.4376 69.4455 46.3125 69.7476 46.3125 70.0625C46.3125 70.3774 46.4376 70.6795 46.6603 70.9022C46.883 71.1249 47.1851 71.25 47.5 71.25C47.8149 71.25 48.117 71.1249 48.3397 70.9022C48.5624 70.6795 48.6875 70.3774 48.6875 70.0625C48.6875 69.7476 48.5624 69.4455 48.3397 69.2228C48.117 69.0001 47.8149 68.875 47.5 68.875ZM52.25 68.875C51.9351 68.875 51.633 69.0001 51.4103 69.2228C51.1876 69.4455 51.0625 69.7476 51.0625 70.0625C51.0625 70.3774 51.1876 70.6795 51.4103 70.9022C51.633 71.1249 51.9351 71.25 52.25 71.25C52.5649 71.25 52.867 71.1249 53.0897 70.9022C53.3124 70.6795 53.4375 70.3774 53.4375 70.0625C53.4375 69.7476 53.3124 69.4455 53.0897 69.2228C52.867 69.0001 52.5649 68.875 52.25 68.875ZM57 68.875C56.6851 68.875 56.383 69.0001 56.1603 69.2228C55.9376 69.4455 55.8125 69.7476 55.8125 70.0625C55.8125 70.3774 55.9376 70.6795 56.1603 70.9022C56.383 71.1249 56.6851 71.25 57 71.25C57.3149 71.25 57.617 71.1249 57.8397 70.9022C58.0624 70.6795 58.1875 70.3774 58.1875 70.0625C58.1875 69.7476 58.0624 69.4455 57.8397 69.2228C57.617 69.0001 57.3149 68.875 57 68.875ZM61.75 68.875C61.4351 68.875 61.133 69.0001 60.9103 69.2228C60.6876 69.4455 60.5625 69.7476 60.5625 70.0625C60.5625 70.3774 60.6876 70.6795 60.9103 70.9022C61.133 71.1249 61.4351 71.25 61.75 71.25C62.0649 71.25 62.367 71.1249 62.5897 70.9022C62.8124 70.6795 62.9375 70.3774 62.9375 70.0625C62.9375 69.7476 62.8124 69.4455 62.5897 69.2228C62.367 69.0001 62.0649 68.875 61.75 68.875ZM66.5 68.875C66.1851 68.875 65.883 69.0001 65.6603 69.2228C65.4376 69.4455 65.3125 69.7476 65.3125 70.0625C65.3125 70.3774 65.4376 70.6795 65.6603 70.9022C65.883 71.1249 66.1851 71.25 66.5 71.25C66.8149 71.25 67.117 71.1249 67.3397 70.9022C67.5624 70.6795 67.6875 70.3774 67.6875 70.0625C67.6875 69.7476 67.5624 69.4455 67.3397 69.2228C67.117 69.0001 66.8149 68.875 66.5 68.875ZM71.25 68.875C70.9351 68.875 70.633 69.0001 70.4103 69.2228C70.1876 69.4455 70.0625 69.7476 70.0625 70.0625C70.0625 70.3774 70.1876 70.6795 70.4103 70.9022C70.633 71.1249 70.9351 71.25 71.25 71.25C71.5649 71.25 71.867 71.1249 72.0897 70.9022C72.3124 70.6795 72.4375 70.3774 72.4375 70.0625C72.4375 69.7476 72.3124 69.4455 72.0897 69.2228C71.867 69.0001 71.5649 68.875 71.25 68.875ZM76 68.875C75.6851 68.875 75.383 69.0001 75.1603 69.2228C74.9376 69.4455 74.8125 69.7476 74.8125 70.0625C74.8125 70.3774 74.9376 70.6795 75.1603 70.9022C75.383 71.1249 75.6851 71.25 76 71.25C76.3149 71.25 76.617 71.1249 76.8397 70.9022C77.0624 70.6795 77.1875 70.3774 77.1875 70.0625C77.1875 69.7476 77.0624 69.4455 76.8397 69.2228C76.617 69.0001 76.3149 68.875 76 68.875ZM80.75 68.875C80.4351 68.875 80.133 69.0001 79.9103 69.2228C79.6876 69.4455 79.5625 69.7476 79.5625 70.0625C79.5625 70.3774 79.6876 70.6795 79.9103 70.9022C80.133 71.1249 80.4351 71.25 80.75 71.25C81.0649 71.25 81.367 71.1249 81.5897 70.9022C81.8124 70.6795 81.9375 70.3774 81.9375 70.0625C81.9375 69.7476 81.8124 69.4455 81.5897 69.2228C81.367 69.0001 81.0649 68.875 80.75 68.875Z" fill="#B71A1B"/>
</svg>
