<svg width="76" height="76" viewBox="0 0 76 76" fill="none" xmlns="http://www.w3.org/2000/svg">
<path d="M36.8125 2.375C17.8218 2.375 2.375 17.8264 2.375 36.8125C2.375 55.7986 17.8218 71.25 36.8125 71.25C55.8032 71.25 71.25 55.7986 71.25 36.8125C71.25 17.8264 55.8032 2.375 36.8125 2.375ZM36.8125 4.75C54.4905 4.75 68.875 19.1345 68.875 36.8125C68.875 54.4905 54.4905 68.875 36.8125 68.875C19.1345 68.875 4.75 54.4905 4.75 36.8125C4.75 19.1345 19.1345 4.75 36.8125 4.75ZM36.8125 9.5C32.0393 9.5 27.5491 10.7339 23.6433 12.8955C23.6108 12.9048 23.5876 12.9326 23.5552 12.9465C15.1824 17.6177 9.5 26.561 9.5 36.8125C9.5 41.5857 10.7339 46.0759 12.8955 49.9817C12.9048 50.0095 12.928 50.0327 12.9373 50.0605C17.6084 58.438 26.5564 64.125 36.8125 64.125C41.5857 64.125 46.0759 62.8911 49.9817 60.7295C50.0142 60.7202 50.0374 60.6924 50.0698 60.6785C58.4426 56.0073 64.125 47.064 64.125 36.8125C64.125 30.592 61.9773 24.5061 58.0762 19.6726C57.668 19.1624 56.9211 19.0835 56.4109 19.4963C55.9006 19.9092 55.8218 20.656 56.2346 21.1663C56.9304 22.0291 57.5474 22.9521 58.1226 23.8984L45.125 36.896V13.3223C45.6956 13.5264 46.2661 13.7212 46.8274 13.967C47.4258 14.2314 48.1262 13.9531 48.3906 13.3547C48.6504 12.7517 48.3813 12.0559 47.7783 11.7915C44.3179 10.27 40.6255 9.5 36.8125 9.5ZM36.8125 11.875C38.8396 11.875 40.8203 12.144 42.75 12.6172V30.9956L26.0879 14.3335C29.3442 12.7749 32.9717 11.875 36.8125 11.875ZM51.364 14.083C51.0671 14.1387 50.7842 14.3103 50.5986 14.584C50.2322 15.1221 50.3713 15.8643 50.9094 16.2354C51.6562 16.7456 52.3799 17.3022 53.0664 17.8914C53.2891 18.0815 53.5674 18.179 53.8411 18.179C54.175 18.179 54.509 18.0398 54.741 17.7661C55.1677 17.2698 55.1121 16.5183 54.6157 16.0916C53.8643 15.4468 53.071 14.8345 52.25 14.2732C51.981 14.0876 51.6609 14.0273 51.364 14.083ZM23.9124 15.5117L36.896 28.5H13.3269C15.2659 23.0496 19.0371 18.4758 23.9124 15.5117ZM59.3008 26.0786C60.8872 29.4138 61.75 33.083 61.75 36.8125C61.75 38.8628 61.4763 40.8435 61.0078 42.75H42.634L59.3008 26.0786ZM39.2571 30.8611L42.6897 34.2937C42.7083 34.3123 42.7314 34.3169 42.75 34.3308V39.1875C42.75 39.2107 42.7639 39.2339 42.7639 39.2617L39.3313 42.6943C39.3127 42.7083 39.3127 42.7314 39.2942 42.75H34.4375C34.4143 42.75 34.3911 42.7639 34.3679 42.7686L30.9353 39.3313C30.9167 39.3127 30.8936 39.3081 30.875 39.2942V34.4375C30.875 34.4143 30.8611 34.3911 30.8611 34.3633L34.2937 30.9353C34.3123 30.9167 34.3123 30.8936 34.3308 30.875H39.1875C39.2107 30.875 39.2339 30.8611 39.2571 30.8611ZM12.6172 30.875H30.991L14.3335 47.5371C12.7749 44.2808 11.875 40.6533 11.875 36.8125C11.875 34.7622 12.1487 32.7815 12.6172 30.875ZM28.5 36.7244V60.2981C23.0496 58.3591 18.4758 54.5879 15.5117 49.7126L28.5 36.7244ZM30.875 42.6294L47.5371 59.2915C44.2808 60.8501 40.6533 61.75 36.8125 61.75C34.7622 61.75 32.7815 61.4763 30.875 61.0078V42.6294ZM36.729 45.125H60.2981C58.3591 50.5754 54.5879 55.1492 49.7126 58.1133L36.729 45.125Z" fill="#B71A1B"/>
</svg>
