<svg width="65" height="66" viewBox="0 0 65 66" fill="none" xmlns="http://www.w3.org/2000/svg">
<path d="M47.143 2.6735C46.8974 2.67534 46.6574 2.74775 46.4507 2.88235C46.244 3.01694 46.0791 3.20822 45.975 3.43405L44.1266 7.43272C44.0522 7.59428 44.0108 7.76947 44.0049 7.94772C43.9991 8.12597 44.0288 8.30358 44.0924 8.46983C44.156 8.63608 44.2521 8.78753 44.3749 8.91502C44.4978 9.04251 44.6448 9.14341 44.8071 9.21163L46.1883 9.79428L45.2006 12.3157L45.1447 12.2925C45.1431 12.2916 45.1414 12.2908 45.1397 12.2899C44.8182 12.1579 44.5675 12.0478 44.2612 11.9573C43.9548 11.8668 43.4796 11.7653 42.9561 11.9908C42.4326 12.2164 42.1727 12.636 42.0242 12.9241C41.8788 13.2064 41.7833 13.4662 41.6586 13.7852V13.7878C41.6563 13.7937 41.6533 13.7973 41.651 13.8033L36.3393 26.8486C36.3051 26.9325 36.2796 27.0197 36.2631 27.109C36.2605 27.1141 36.258 27.1193 36.2555 27.1244L35.2322 29.9165C35.1166 30.2343 35.1257 30.5851 35.2576 30.8962L36.6694 34.2426C36.8047 34.5645 37.0605 34.8186 37.3803 34.949L42.0852 36.8594C42.2438 36.9238 42.4133 36.9558 42.5841 36.9535C42.7549 36.9513 42.9236 36.915 43.0805 36.8465L46.3762 35.4131C46.5379 35.3427 46.6838 35.2396 46.8052 35.1102C46.9265 34.9808 47.0207 34.8278 47.0821 34.6603L48.1028 31.8708C48.1241 31.8102 48.1411 31.7482 48.1535 31.6851L48.1561 31.6774L49.842 27.5473L50.2889 27.7329C50.2889 27.7337 50.2889 27.7346 50.2889 27.7355C51.6943 28.3183 52.3794 30.3134 51.7692 31.845L48.9356 38.7157C48.9356 38.7165 48.9356 38.7174 48.9356 38.7183C47.3053 39.3172 45.9462 40.4969 45.1092 42.0157L29.1131 35.7148C28.9518 35.6488 28.7791 35.6164 28.6053 35.6194C28.3022 35.6243 28.0104 35.7367 27.7802 35.937C27.55 36.1373 27.3961 36.413 27.3449 36.7163C27.2936 37.0197 27.3485 37.3317 27.4998 37.5984C27.6511 37.8651 27.8895 38.0697 28.1737 38.1769L44.2789 44.5216C44.2322 44.8554 44.2002 45.1935 44.2002 45.54C44.2002 46.6926 44.4744 47.7799 44.9492 48.7497C44.0461 49.7286 43.3481 50.1755 40.2977 50.1755C38.3659 50.1755 32.6777 47.9707 29.494 46.5609C29.1326 46.4184 28.7626 46.3441 28.3869 46.3005L30.0424 49.6598C32.6866 50.7673 37.8939 52.8155 40.3002 52.8155C43.8534 52.8155 45.196 52.2167 46.5362 50.887C47.481 51.7649 48.6526 52.3943 49.9537 52.6582C49.8659 52.8437 49.7711 53.0276 49.6846 53.2048C49.5063 53.5698 49.3227 53.8894 49.1742 54.1329H32.2463L32.7363 55.128C33.0002 55.6626 33.1818 56.2207 33.2949 56.7883H57.6446C58.0437 56.7883 58.4875 57.3209 58.4875 58.0826V59.3768H33.2899C33.1391 60.1318 32.8667 60.8677 32.452 61.5501C32.3493 61.7204 32.2287 61.8752 32.1117 62.0322H59.7951C60.5179 62.0322 61.1028 61.4384 61.1028 60.7045V58.0826C61.1028 55.9046 59.5517 54.1329 57.6446 54.1329H52.1348C52.407 53.5663 52.6618 53.0246 52.8711 52.6298C56.0808 51.9175 58.5002 49.0065 58.5002 45.54C58.5002 44.153 58.1064 42.8598 57.4364 41.7553C57.4568 41.7176 57.4755 41.6789 57.4922 41.6393L60.2192 35.0315C60.2209 35.0264 60.2226 35.0212 60.2242 35.0161C62.6762 28.8675 59.7269 21.7989 53.6633 19.2921C53.6574 19.2895 53.6515 19.2869 53.6455 19.2844L53.2774 19.14L53.4551 18.7069C53.4577 18.7009 53.4602 18.6948 53.4627 18.6888C53.5913 18.3614 53.7003 18.103 53.7877 17.789C53.8751 17.4751 53.969 17.0024 53.7598 16.4794C53.5505 15.9564 53.1423 15.6723 52.8533 15.5126C52.5644 15.3528 52.2996 15.2533 51.9723 15.1207L51.9063 15.0949L52.8813 12.6096L54.0442 13.0994C54.3519 13.2287 54.6968 13.2331 55.0077 13.1117C55.3185 12.9904 55.5717 12.7525 55.7149 12.4472L57.5836 8.45624C57.6589 8.29458 57.7011 8.11907 57.7075 7.94037C57.714 7.76167 57.6847 7.5835 57.6213 7.41666C57.5579 7.24983 57.4617 7.09781 57.3387 6.96983C57.2157 6.84185 57.0684 6.74059 56.9057 6.67217L47.6508 2.77405C47.4899 2.70633 47.3172 2.67213 47.143 2.6735ZM47.8006 5.69764L54.6459 8.57999L53.8969 10.181L47.0592 7.30124L47.8006 5.69764ZM48.5903 10.8049L50.4793 11.599L49.4992 14.0972L47.6076 13.3134L48.5903 10.8049ZM44.0961 14.7108C44.1297 14.7244 44.1287 14.7244 44.1647 14.7391L50.9998 17.5673C51.0032 17.5691 51.0066 17.5708 51.01 17.5725C51.0511 17.5891 51.0485 17.5905 51.0862 17.606C51.0704 17.6468 51.0706 17.6491 51.0531 17.6937L46.1528 29.6897L39.1551 26.8434L44.0606 14.7958C44.0632 14.7898 44.0657 14.7838 44.0682 14.7778C44.0821 14.7423 44.083 14.7439 44.0961 14.7108ZM52.2821 21.5789L52.6832 21.7387C57.4434 23.7067 59.736 29.2081 57.8147 34.0261L55.4965 39.6412C54.4715 38.8953 53.2488 38.4191 51.924 38.3109L54.1737 32.8505C54.1762 32.8453 54.1788 32.8402 54.1813 32.835C55.3127 29.9954 54.1702 26.494 51.274 25.2914H51.2715L50.8399 25.1109L52.2821 21.5789ZM10.7024 29.04C10.5301 29.0375 10.3591 29.0698 10.1992 29.1351C10.0393 29.2003 9.89385 29.2971 9.77117 29.4199C9.64849 29.5428 9.55107 29.6891 9.48458 29.8505C9.41809 30.0119 9.38385 30.1851 9.38385 30.36C9.38385 30.5349 9.41809 30.7081 9.48458 30.8695C9.55107 31.0309 9.64849 31.1772 9.77117 31.3C9.89385 31.4229 10.0393 31.5197 10.1992 31.5849C10.3591 31.6501 10.5301 31.6825 10.7024 31.68H12.0024V39.3241L4.60607 56.4919C3.49859 59.0639 5.41628 62.04 8.18107 62.04H27.2977C30.1429 62.04 32.0593 58.8919 30.7863 56.3088L22.4024 39.288V31.68H23.7024C23.8746 31.6825 24.0457 31.6501 24.2055 31.5849C24.3654 31.5197 24.5109 31.4229 24.6336 31.3C24.7562 31.1772 24.8537 31.0309 24.9201 30.8695C24.9866 30.7081 25.0209 30.5349 25.0209 30.36C25.0209 30.1851 24.9866 30.0119 24.9201 29.8505C24.8537 29.6891 24.7562 29.5428 24.6336 29.4199C24.5109 29.2971 24.3654 29.2003 24.2055 29.1351C24.0457 29.0698 23.8746 29.0375 23.7024 29.04H10.7024ZM38.2283 29.3107L45.2235 32.1569L44.8401 33.2088L42.5524 34.204L38.8479 32.7009L37.8526 30.3419L38.2283 29.3107ZM14.6024 31.68H19.8024V39.9119L21.6 43.56H13.0154L14.6024 39.8758V31.68ZM51.3502 40.5797C54.0607 40.5797 56.2354 42.7865 56.2354 45.54C56.2354 48.2938 54.0623 50.5003 51.3502 50.5003C48.6397 50.5003 46.4651 48.2935 46.4651 45.54C46.4651 42.7865 48.6397 40.5797 51.3502 40.5797ZM11.8779 46.2H22.9L28.4606 57.4896C28.9166 58.4151 28.3186 59.4 27.2977 59.4H8.18107C7.19406 59.4 6.5924 58.467 6.98771 57.5489L11.8779 46.2ZM14.6024 48.84C14.2576 48.84 13.9269 48.9791 13.6831 49.2266C13.4393 49.4742 13.3024 49.8099 13.3024 50.16C13.3024 50.5101 13.4393 50.8458 13.6831 51.0934C13.9269 51.3409 14.2576 51.48 14.6024 51.48C14.9471 51.48 15.2778 51.3409 15.5216 51.0934C15.7654 50.8458 15.9024 50.5101 15.9024 50.16C15.9024 49.8099 15.7654 49.4742 15.5216 49.2266C15.2778 48.9791 14.9471 48.84 14.6024 48.84ZM19.1524 51.48C18.6352 51.48 18.1392 51.6886 17.7735 52.0599C17.4078 52.4312 17.2024 52.9349 17.2024 53.46C17.2024 53.9851 17.4078 54.4887 17.7735 54.8601C18.1392 55.2314 18.6352 55.44 19.1524 55.44C19.6695 55.44 20.1655 55.2314 20.5312 54.8601C20.8969 54.4887 21.1024 53.9851 21.1024 53.46C21.1024 52.9349 20.8969 52.4312 20.5312 52.0599C20.1655 51.6886 19.6695 51.48 19.1524 51.48Z" fill="#B71A1B"/>
</svg>
