<svg width="62" height="62" viewBox="0 0 62 62" fill="none" xmlns="http://www.w3.org/2000/svg">
<path d="M2.90783 0.011029C2.41356 0.0883482 2.01621 0.455614 1.89991 0.938859L0.0391223 8.3615C-0.130481 9.02355 0.266875 9.70009 0.930749 9.86923C1.59462 10.0384 2.27303 9.6421 2.44264 8.98006L3.48933 4.7275L7.4435 12.4594C8.88754 15.3347 8.88754 18.5918 7.4435 21.4671L7.36596 21.6217L5.23381 25.913C3.45056 29.4696 3.45056 33.6449 5.23381 37.2016L5.85408 38.4773L7.4435 41.6474C8.88754 44.5227 8.88754 47.7798 7.4435 50.6551L2.63647 60.0494C2.36026 60.4408 2.33603 60.9531 2.56863 61.3735C2.80607 61.7891 3.26158 62.0307 3.74131 61.9969C4.22104 61.963 4.63294 61.6538 4.80738 61.2092L9.65318 51.7762C11.4364 48.2195 11.4364 44.083 9.65318 40.5263L7.4435 36.0804C5.99945 33.2051 5.99945 29.9094 7.4435 27.0341L9.65318 22.5882C11.4364 19.0316 11.4364 14.895 9.65318 11.3383L5.62148 3.49039L9.49811 4.88214C9.9197 5.06577 10.4091 4.99812 10.7677 4.70817C11.1263 4.42306 11.2959 3.96397 11.2087 3.50972C11.1215 3.06031 10.7919 2.69787 10.351 2.56256L3.52809 0.0883481C3.32942 0.0110289 3.1162 -0.0179657 2.90783 0.011029ZM19.0346 0.011029C18.5404 0.0883482 18.143 0.455614 18.0267 0.938859L16.1659 8.3615C15.9963 9.02355 16.3937 9.70009 17.0576 9.86923C17.7214 10.0384 18.3998 9.6421 18.5694 8.98006L19.6161 4.7275L23.5703 12.4594C25.0143 15.3347 25.0143 18.5918 23.5703 21.4671L21.3606 25.913C19.5774 29.4696 19.5774 33.6449 21.3606 37.2016L23.5703 41.6474C25.0143 44.5227 25.0143 47.7798 23.5703 50.6551L18.7633 60.0494C18.4871 60.4408 18.4628 60.9531 18.6954 61.3735C18.9329 61.7891 19.3884 62.0307 19.8681 61.9969C20.3478 61.963 20.7597 61.6538 20.9342 61.2092L25.78 51.7762C27.5632 48.2195 27.5632 44.083 25.78 40.5263L23.5703 36.0804C22.1263 33.2051 22.1263 29.9094 23.5703 27.0341L23.8417 26.4929L25.78 22.5882C27.5632 19.0316 27.5632 14.895 25.78 11.3383L21.7483 3.49039L25.6249 4.88214C26.0465 5.06577 26.5359 4.99812 26.8945 4.70817C27.2531 4.42306 27.4227 3.96397 27.3355 3.50972C27.2483 3.06031 26.9187 2.69787 26.4778 2.56256L19.6549 0.0883481C19.4562 0.0110289 19.243 -0.0179657 19.0346 0.011029ZM42.6821 14.8563C42.2218 14.8563 41.7856 14.9868 41.4028 15.2816C41.0491 15.5522 40.7874 16.0548 40.7438 16.596H40.705V16.712L40.3949 19.8434C39.8425 20.1044 39.2852 20.3991 38.7667 20.7712L35.7429 19.4181L35.6654 19.3795H35.6266C34.7835 19.0992 33.9209 19.3795 33.3782 19.9207L33.2619 20.0367L33.1844 20.1913L30.1218 25.4104L30.083 25.4877H30.1218C29.865 25.9081 29.7148 26.4929 29.8505 26.9954C29.9861 27.498 30.3108 27.8314 30.6645 28.0779V28.1166C30.6694 28.1214 30.6985 28.1117 30.7033 28.1166L33.3782 30.0495C33.4509 30.3202 33.4945 30.5618 33.4945 30.9387C33.4945 31.219 33.5478 31.6297 33.572 31.9825L31.0522 33.7609C30.6258 34.0411 30.3253 34.5292 30.2381 34.998C30.1509 35.4667 30.2139 35.8533 30.3156 36.1578L30.3544 36.2737L30.4319 36.3897L33.5333 41.6861L33.572 41.7247V41.7634C33.8192 42.1355 34.2068 42.4689 34.735 42.6139C35.1808 42.7347 35.6509 42.5801 36.0531 42.382L36.0918 42.4593L39.1156 41.1062C39.6486 41.4541 40.1817 41.7731 40.7438 42.0727L41.0539 45.1654V45.2814H41.0927C41.1363 45.8227 41.4367 46.3252 41.7905 46.5958C42.1733 46.8906 42.5707 47.0211 43.031 47.0211H49.1173C49.5777 47.0211 50.0138 46.8906 50.3966 46.5958C50.7504 46.3252 51.012 45.8227 51.0556 45.2814H51.0944V45.1654L51.4045 42.034C51.957 41.7731 52.5142 41.4783 53.0327 41.1062L56.0565 42.4593L56.134 42.4979H56.1728C57.016 42.7782 57.8785 42.4979 58.4213 41.9567L58.5376 41.8407L58.6151 41.6861L61.6776 36.467L61.7164 36.3897H61.6776C61.9345 35.9693 62.0847 35.3846 61.949 34.882C61.8036 34.3553 61.4693 34.0073 61.0961 33.7609V33.7222L58.2274 31.9052C58.2468 31.5814 58.305 31.1948 58.305 30.9387C58.305 30.6584 58.2517 30.2477 58.2274 29.8949L60.7472 28.1166C61.1737 27.8363 61.4741 27.3482 61.5613 26.8794C61.6486 26.4107 61.5856 26.0241 61.4838 25.7197L61.445 25.6037L61.3675 25.4877L58.2662 20.1913L58.2274 20.1527V20.114C57.9803 19.7419 57.5926 19.4085 57.0644 19.2635C56.6186 19.1427 56.1486 19.2973 55.7464 19.4955L55.7076 19.4181L52.6838 20.7712C52.1508 20.4233 51.6178 20.1044 51.0556 19.8047L50.7455 16.712V16.596H50.7068C50.6631 16.0548 50.3627 15.5522 50.009 15.2816C49.6261 14.9868 49.2288 14.8563 48.7684 14.8563H42.6821ZM43.1085 17.3305H48.3032L48.6521 20.6553L48.6909 21.3511L49.3112 21.6604C50.2658 22.1388 51.0653 22.5931 51.8697 23.1681L52.4512 23.5934L53.1103 23.2841L56.3666 21.815L59.0028 26.3382L56.2116 28.3099L55.5525 28.7738L55.7076 29.5856C55.8045 30.0785 55.8239 30.4458 55.8239 30.9387C55.8239 31.4316 55.8045 31.7989 55.7076 32.2918L55.5525 33.1423L56.2503 33.6062L59.3517 35.5779L56.7155 40.0624L53.4592 38.5933L52.7614 38.284L52.1799 38.7866C51.4142 39.439 50.6922 39.8497 49.8151 40.1784L49.0786 40.449L49.001 41.2222L48.6909 44.5469H43.4962L43.1473 41.2222L43.1085 40.5263L42.4883 40.217C41.5337 39.7386 40.7341 39.2843 39.9297 38.7093L39.3482 38.284L38.6892 38.5933L35.4328 40.0624L32.7967 35.5392L35.5879 33.5676L36.2469 33.1036L36.0918 32.2918C35.9949 31.7989 35.9755 31.4316 35.9755 30.9387C35.9755 30.4458 35.961 29.7209 35.6266 28.8897L35.5103 28.5418L35.2002 28.3099L32.4478 26.3382L35.0839 21.815L38.3403 23.2841L39.0381 23.5934L39.6196 23.0908C40.3852 22.4384 41.1072 22.0277 41.9843 21.6991L42.7209 21.4284L42.7984 20.6553L43.1085 17.3305ZM45.8997 23.5161C41.776 23.5161 38.4566 26.8263 38.4566 30.9387C38.4566 35.0511 41.776 38.3614 45.8997 38.3614C50.0235 38.3614 53.3429 35.0511 53.3429 30.9387C53.3429 26.8263 50.0235 23.5161 45.8997 23.5161ZM45.8997 25.9903C48.7248 25.9903 50.8618 28.1214 50.8618 30.9387C50.8618 33.756 48.7248 35.8871 45.8997 35.8871C43.0746 35.8871 40.9376 33.756 40.9376 30.9387C40.9376 28.1214 43.0746 25.9903 45.8997 25.9903Z" fill="#B71A1B"/>
</svg>
