<svg width="89" height="89" viewBox="0 0 89 89" fill="none" xmlns="http://www.w3.org/2000/svg">
<path d="M18.9123 12.2375C18.7649 12.2355 18.6185 12.2627 18.4817 12.3177C18.3449 12.3726 18.2204 12.4542 18.1154 12.5578C18.0104 12.6613 17.9271 12.7846 17.8702 12.9206C17.8133 13.0566 17.784 13.2026 17.784 13.35C17.784 13.4975 17.8133 13.6434 17.8702 13.7794C17.9271 13.9155 18.0104 14.0388 18.1154 14.1423C18.2204 14.2458 18.3449 14.3274 18.4817 14.3824C18.6185 14.4374 18.7649 14.4646 18.9123 14.4625H20.0248V33.7031C17.6765 34.1095 15.4518 34.8833 13.4215 35.9738C13.1644 36.1114 12.9716 36.3445 12.8846 36.6229C12.7977 36.9013 12.8235 37.2026 12.9565 37.4622L14.71 40.8801C9.88486 43.8989 6.6748 49.264 6.6748 55.3665C6.6748 64.7832 14.3324 72.4407 23.7491 72.4407C26.0312 72.4407 28.1992 71.9698 30.1916 71.1566L31.906 74.5006C32.0391 74.76 32.2687 74.9568 32.5454 75.0487C32.8222 75.1405 33.1239 75.12 33.3857 74.9917C36.297 73.5619 38.8316 71.4914 40.8342 68.975H64.3466C65.4184 68.975 66.462 68.6395 67.3343 68.0168H67.3365C69.4848 66.4817 71.6342 64.9481 73.7833 63.4125H79.0721C80.8548 63.4125 82.3248 61.9426 82.3248 60.1598V48.8653C82.3248 47.0825 80.8548 45.6125 79.0721 45.6125H73.7833C71.6342 44.077 69.4849 42.5434 67.3365 41.0083H67.3343C66.462 40.3856 65.4184 40.05 64.3466 40.05H39.4262C36.6059 37.1347 32.9866 35.0138 28.9248 34.0204V14.4625H30.0373C30.1847 14.4646 30.3311 14.4374 30.4679 14.3824C30.6047 14.3274 30.7292 14.2458 30.8342 14.1423C30.9392 14.0388 31.0225 13.9155 31.0794 13.7794C31.1363 13.6434 31.1657 13.4975 31.1657 13.35C31.1657 13.2026 31.1363 13.0566 31.0794 12.9206C31.0225 12.7846 30.9392 12.6613 30.8342 12.5578C30.7292 12.4542 30.6047 12.3726 30.4679 12.3177C30.3311 12.2627 30.1847 12.2355 30.0373 12.2375H28.9248H20.0248H18.9123ZM22.2498 14.4625H26.6998V33.5793C25.734 33.4481 24.7504 33.375 23.7491 33.375C23.2449 33.375 22.7457 33.3954 22.2498 33.4294V14.4625ZM23.7491 35.6C34.607 35.6 43.3873 44.406 43.3873 55.3056C43.3873 62.68 39.2888 69.0097 33.3183 72.3777L31.4105 68.6578C36.0489 65.9764 39.2263 61.0419 39.2263 55.3056C39.2263 46.7474 32.2857 39.7806 23.7491 39.7806C21.4744 39.7806 19.3518 40.3678 17.4022 41.256L15.4944 37.5339C18.0183 36.3526 20.7815 35.6 23.7491 35.6ZM23.7491 42.0056C31.079 42.0056 37.0013 47.9462 37.0013 55.3056C37.0013 60.5921 33.9355 65.1508 29.4919 67.2911C29.3581 67.3554 29.2384 67.4458 29.1401 67.5571C29.0417 67.6684 28.9667 67.7982 28.9193 67.9389C28.8719 68.0797 28.8532 68.2285 28.8642 68.3766C28.8752 68.5247 28.9158 68.669 28.9835 68.8012L29.1747 69.1728C27.4924 69.8342 25.6713 70.2157 23.7491 70.2157C15.5349 70.2157 8.8998 63.5807 8.8998 55.3665C8.8998 50.1116 11.6232 45.5114 15.7291 42.8704L15.879 43.1616C15.9467 43.2941 16.0403 43.4116 16.1543 43.5073C16.2683 43.603 16.4003 43.6748 16.5425 43.7186C16.6847 43.7623 16.8343 43.7771 16.9823 43.7621C17.1303 43.747 17.2739 43.7024 17.4043 43.6309C19.2901 42.5972 21.4502 42.0056 23.7491 42.0056ZM41.297 42.275H63.5144L63.4579 42.5901L64.138 43.318L64.5248 43.3875L65.4157 42.9399L65.4917 42.5184C65.683 42.6005 65.8697 42.6956 66.0415 42.8183C68.1905 44.3539 70.3398 45.8895 72.4883 47.4247L72.3579 48.1526L73.038 48.8805L73.4248 48.95L74.3157 48.5024L74.4352 47.8375H79.0721C79.6522 47.8375 80.0998 48.2851 80.0998 48.8653V60.1598C80.0998 60.74 79.6522 61.1875 79.0721 61.1875H74.4352L74.4917 60.8725L73.8116 60.1446L73.4248 60.075L72.5339 60.5226L72.3579 61.5026L72.4644 61.6178C70.3239 63.1473 68.1825 64.6769 66.0415 66.2068C65.5454 66.5609 64.9547 66.75 64.3466 66.75H42.3921C44.4303 63.4142 45.6123 59.4958 45.6123 55.3056C45.6123 50.4215 43.9955 45.9228 41.297 42.275ZM64.5248 45.6125L63.6339 46.0601L63.4579 47.0401L64.138 47.768L64.5248 47.8375L65.4157 47.3899L65.5917 46.41L64.9116 45.6821L64.5248 45.6125ZM23.3862 50.0625C20.3374 50.0625 17.8498 52.5696 17.8498 55.625C17.8498 58.6805 20.3374 61.1875 23.3862 61.1875C26.435 61.1875 28.9248 58.6805 28.9248 55.625C28.9248 52.5696 26.435 50.0625 23.3862 50.0625ZM64.5248 50.0625L63.6339 50.5101L63.4579 51.4901L64.138 52.218L64.5248 52.2875L65.4157 51.8399L65.5917 50.86L64.9116 50.1321L64.5248 50.0625ZM73.4248 51.175L72.5339 51.6226L72.3579 52.6026L73.038 53.3305L73.4248 53.4L74.3157 52.9524L74.4917 51.9725L73.8116 51.2446L73.4248 51.175ZM23.3862 52.2875C25.2258 52.2875 26.6998 53.7655 26.6998 55.625C26.6998 57.4846 25.2258 58.9625 23.3862 58.9625C21.5467 58.9625 20.0748 57.4846 20.0748 55.625C20.0748 53.7655 21.5467 52.2875 23.3862 52.2875ZM64.5248 54.5125L63.6339 54.9601L63.4579 55.9401L64.138 56.668L64.5248 56.7375L65.4157 56.2899L65.5917 55.31L64.9116 54.5821L64.5248 54.5125ZM73.4248 55.625L72.5339 56.0726L72.3579 57.0526L73.038 57.7805L73.4248 57.85L74.3157 57.4024L74.4917 56.4225L73.8116 55.6946L73.4248 55.625ZM64.5248 58.9625L63.6339 59.4101L63.4579 60.3901L64.138 61.118L64.5248 61.1875L65.4157 60.7399L65.5917 59.76L64.9116 59.0321L64.5248 58.9625ZM64.5248 63.4125L63.6339 63.8601L63.4579 64.8401L64.138 65.568L64.5248 65.6375L65.4157 65.1899L65.5917 64.21L64.9116 63.4821L64.5248 63.4125Z" fill="#B71A1B"/>
</svg>
