<svg width="62" height="61" viewBox="0 0 62 61" fill="none" xmlns="http://www.w3.org/2000/svg">
<path d="M9.80375 0.00557323C9.75047 0.0152121 9.69719 0.0296702 9.64875 0.0441285C9.07234 0.174253 8.66547 0.68993 8.68 1.2779V18.0109L4.22375 13.6156C3.96703 13.3409 3.59406 13.2011 3.21625 13.23C2.73187 13.2782 2.32016 13.6011 2.16516 14.0541C2.00531 14.512 2.13125 15.018 2.48 15.3506L8.87375 21.7122L9.02875 21.905C9.08687 21.9628 9.15469 22.0158 9.2225 22.0592L9.92 22.7532L10.6175 22.0592C10.7192 21.9821 10.8112 21.8905 10.8888 21.7893L17.36 15.3506C17.8056 15.0084 17.9606 14.4108 17.7427 13.8951C17.5247 13.3794 16.987 13.0758 16.43 13.1529C16.1103 13.1963 15.8148 13.3602 15.6163 13.6156L11.16 18.0109V1.2779C11.1745 0.921261 11.0292 0.579083 10.7725 0.338112C10.5109 0.0923226 10.1573 -0.0281627 9.80375 0.00557323ZM30.8838 0.00557323C30.8305 0.0152121 30.7772 0.0296702 30.7288 0.0441285C30.1523 0.174253 29.7455 0.68993 29.76 1.2779V18.0109L25.3038 13.6156C25.047 13.3409 24.6741 13.2011 24.2962 13.23C23.8119 13.2782 23.4002 13.6011 23.2452 14.0541C23.0853 14.512 23.2113 15.018 23.56 15.3506L30.0312 21.8279C30.1087 21.9194 30.2008 21.9965 30.3025 22.0592L31 22.7532L31.6975 22.0592C31.7992 21.9821 31.8913 21.8905 31.9688 21.7893L38.44 15.3506C38.8081 15.0518 38.9777 14.5746 38.8711 14.112C38.7645 13.6541 38.4012 13.2927 37.9411 13.1867C37.4761 13.0806 36.9966 13.2493 36.6963 13.6156L32.24 18.0109V1.2779C32.2545 0.921261 32.1092 0.579083 31.8525 0.338112C31.5909 0.0923226 31.2373 -0.0281627 30.8838 0.00557323ZM51.9637 0.00557323C51.9105 0.0152121 51.8572 0.0296702 51.8088 0.0441285C51.2323 0.174253 50.8255 0.68993 50.84 1.2779V18.0109L46.3838 13.6156C46.127 13.3409 45.7541 13.2011 45.3763 13.23C44.8919 13.2782 44.4802 13.6011 44.3252 14.0541C44.1653 14.512 44.2913 15.018 44.64 15.3506L51.0337 21.7122L51.1113 21.8279C51.1888 21.9194 51.2808 21.9965 51.3825 22.0592L52.08 22.7532L52.7775 22.0592C52.8792 21.9821 52.9712 21.8905 53.0488 21.7893L59.52 15.3506C59.8881 15.0518 60.0577 14.5746 59.9511 14.112C59.8445 13.6541 59.4813 13.2927 59.0211 13.1867C58.5561 13.0806 58.0766 13.2493 57.7762 13.6156L53.32 18.0109V1.2779C53.3345 0.921261 53.1892 0.579083 52.9325 0.338112C52.6709 0.0923226 52.3173 -0.0281627 51.9637 0.00557323ZM0 29.6546V32.1221H62V29.6546H0ZM18.4837 38.2524C18.4305 38.262 18.3772 38.2765 18.3288 38.291C17.7523 38.4211 17.3455 38.9368 17.36 39.5247V56.2577L12.9038 51.8624C12.647 51.5877 12.2741 51.4479 11.8962 51.4769C11.4119 51.525 11.0002 51.8479 10.8452 52.301C10.6853 52.7588 10.8112 53.2649 11.16 53.5974L17.7087 60.1518C17.7669 60.2096 17.8347 60.2626 17.9025 60.306L18.6 61L19.2975 60.306C19.3992 60.2289 19.4913 60.1373 19.5688 60.0361L26.04 53.5974C26.4856 53.2552 26.6406 52.6576 26.4227 52.1419C26.2047 51.6263 25.667 51.3226 25.11 51.3997C24.7903 51.4431 24.4948 51.607 24.2962 51.8624L19.84 56.2577V39.5247C19.8545 39.1681 19.7092 38.8259 19.4525 38.5849C19.1909 38.3391 18.8373 38.2187 18.4837 38.2524ZM44.5238 38.2524C44.4705 38.262 44.4172 38.2765 44.3688 38.291C43.7923 38.4211 43.3855 38.9368 43.4 39.5247V56.2577L38.9437 51.8624C38.687 51.5877 38.3141 51.4479 37.9362 51.4769C37.4519 51.525 37.0402 51.8479 36.8852 52.301C36.7253 52.7588 36.8512 53.2649 37.2 53.5974L43.5938 59.959L43.6712 60.0747C43.7487 60.1662 43.8408 60.2434 43.9425 60.306L44.64 61L45.3375 60.306C45.4392 60.2289 45.5312 60.1373 45.6087 60.0361L52.08 53.5974C52.4481 53.2986 52.6177 52.8215 52.5111 52.3588C52.4045 51.901 52.0413 51.5395 51.5811 51.4335C51.1161 51.3274 50.6366 51.4961 50.3363 51.8624L45.88 56.2577V39.5247C45.8945 39.1681 45.7492 38.8259 45.4925 38.5849C45.2309 38.3391 44.8773 38.2187 44.5238 38.2524Z" fill="#B71A1B"/>
</svg>
