<svg width="34" height="32" viewBox="0 0 34 32" fill="none" xmlns="http://www.w3.org/2000/svg">
<path fill-rule="evenodd" clip-rule="evenodd" d="M14.2661 0.0732031C13.9751 0.208162 13.6828 0.57225 13.6279 0.8685C13.6031 1.00188 13.6176 1.49199 13.6601 1.95761C13.8249 3.76274 13.9037 6.55322 13.8196 7.59947C13.7424 8.55871 13.7262 8.62747 13.4306 9.24609C13.0807 9.97821 12.4057 11.1196 11.4109 12.6614C10.732 13.7136 10.7291 13.7169 10.462 13.7169H10.1941L10.2122 21.7799L10.2302 29.843L11.1869 30.1939C11.7131 30.387 12.4306 30.6227 12.7814 30.7177L13.4192 30.8905L21.0758 30.8906C29.405 30.8909 29.0998 30.9047 29.9111 30.4896C30.7469 30.0619 31.4726 29.0846 31.6713 28.1189C31.7879 27.5523 31.7184 26.7816 31.5019 26.2403L31.324 25.7953L31.7777 25.3667C32.7951 24.4058 33.1392 22.9192 32.6358 21.6606L32.4578 21.2156L32.9021 20.796C34.366 19.4133 34.366 17.18 32.9021 15.7972L32.4578 15.3776L32.6358 14.9327C33.3815 13.0685 32.2594 10.9115 30.2721 10.3889C29.932 10.2994 29.1 10.2821 25.133 10.2821H20.3997L20.3985 7.223C20.3972 3.87494 20.3679 3.55665 19.9865 2.73903C19.4333 1.55302 18.1955 0.649961 16.5448 0.227912C15.6713 0.00465038 14.5746 -0.0698415 14.2661 0.0732031ZM0.659431 12.6715C0.373691 12.7987 0.0761874 13.1642 0.0253042 13.4506C0.00283903 13.5774 -0.00644475 17.6476 0.0047524 22.4954C0.0250915 31.2703 0.0258002 31.3106 0.171292 31.5073C0.251657 31.616 0.40544 31.7713 0.513089 31.8524C0.704078 31.9964 0.786852 32 3.95834 32C7.12982 32 7.2126 31.9964 7.40359 31.8524C7.51123 31.7713 7.66502 31.616 7.74538 31.5073C7.89116 31.3102 7.89151 31.2881 7.89151 22.3039C7.89151 13.3197 7.89116 13.2976 7.74538 13.1004C7.66502 12.9917 7.51123 12.8365 7.40366 12.7553C7.21373 12.612 7.11615 12.6073 4.04182 12.5915C1.51757 12.5786 0.831782 12.5948 0.659431 12.6715Z" fill="url(#paint0_linear_0_1053)"/>
<defs>
<linearGradient id="paint0_linear_0_1053" x1="7.95745" y1="25.1915" x2="39.6302" y2="-1.87667" gradientUnits="userSpaceOnUse">
<stop stop-color="#63AFCD"/>
<stop offset="1" stop-color="#FF374F"/>
</linearGradient>
</defs>
</svg>
