<svg width="34" height="32" viewBox="0 0 34 32" fill="none" xmlns="http://www.w3.org/2000/svg">
<path fill-rule="evenodd" clip-rule="evenodd" d="M12.0679 0.0551012C10.8696 0.246497 9.52937 0.819756 8.5819 1.54617C8.27621 1.78052 6.99971 3.01295 5.74513 4.28497C3.13152 6.93485 3.22707 6.78255 3.78243 7.41441C4.02524 7.69064 4.10071 7.83344 4.10071 8.0164C4.10071 8.35452 3.90125 8.57236 3.54514 8.62311L3.24985 8.66513L5.33739 10.7731L7.42493 12.8809V12.5901C7.42493 12.2072 7.64348 11.9885 8.02583 11.9885C8.27232 11.9885 8.35677 12.0451 8.8791 12.5602C9.37066 13.0451 9.49485 13.132 9.69622 13.132C9.91441 13.132 10.1535 12.9099 12.6401 10.3972C15.1351 7.87611 15.3465 7.64361 15.3465 7.42063C15.3465 7.20486 15.2321 7.06164 14.2855 6.09222C13.3123 5.09536 13.2246 4.9843 13.2246 4.74738C13.2246 4.3956 13.5437 4.04118 14.0982 3.77717C14.676 3.50202 15.1398 3.41211 15.9819 3.41211C16.7595 3.41211 17.3976 3.52646 18.1499 3.80069C18.7742 4.02825 18.9151 4.02932 19.1336 3.80841C19.4463 3.49251 19.3775 3.25623 18.7945 2.64373C17.651 1.44247 16.2331 0.596484 14.6987 0.199899C14.0221 0.0250125 12.7086 -0.0472434 12.0679 0.0551012ZM26.4861 0.0223681C26.4083 0.0411646 26.1219 0.107703 25.8496 0.170239C24.2279 0.542811 22.7801 1.77388 22.0487 3.40231C21.6399 4.31241 21.4727 5.63867 21.647 6.59094L21.7234 7.00868L20.091 8.65934C19.1931 9.56722 18.4585 10.3422 18.4585 10.3814C18.4585 10.4741 22.5043 14.5614 22.596 14.5614C22.6344 14.5614 23.4002 13.8197 24.2979 12.9132L25.93 11.2651L26.416 11.3506C26.9841 11.4506 28.0039 11.4017 28.5737 11.2472C30.037 10.8503 31.1734 10.0305 31.9706 8.79635C32.6174 7.7952 32.8532 6.941 32.8451 5.62767C32.8399 4.78318 32.8154 4.58971 32.649 4.07685C32.5165 3.66854 32.4008 3.44477 32.2673 3.33871C31.909 3.0539 31.776 3.14402 30.1837 4.75088L28.718 6.22987L27.9083 6.03026L27.0986 5.83071L26.9014 5.01374L26.7042 4.19677L28.2042 2.67497C29.7333 1.12372 29.8063 1.02237 29.6312 0.691825C29.5377 0.515295 29.1406 0.311034 28.6049 0.163878C28.1918 0.0503842 26.765 -0.0448849 26.4861 0.0223681ZM0.898776 9.18843C0.197012 9.91314 0.00229798 10.2728 3.46806e-05 10.8488C-0.00272371 11.5471 0.154151 11.7578 2.2419 13.8606C4.30271 15.9363 4.46425 16.0579 5.16545 16.0607C5.72356 16.0629 6.14192 15.8272 6.84085 15.1166L7.42379 14.5239L4.46885 11.5386L1.5139 8.55328L0.898776 9.18843ZM13.4187 11.1849C12.3006 12.3152 11.3857 13.2724 11.3857 13.3118C11.3857 13.3512 15.4198 17.4557 20.3505 22.4329C30.6511 32.8308 29.6805 31.9662 31.0466 31.962C32.0713 31.9589 32.4607 31.8012 33.1413 31.1134C33.8219 30.4257 33.978 30.0322 33.9811 28.9968C33.9852 27.6163 34.8409 28.5971 24.5509 18.1885C19.6253 13.2061 15.563 9.12968 15.5235 9.12968C15.484 9.12968 14.5368 10.0545 13.4187 11.1849ZM10.3555 18.4967L8.15859 20.7166L7.67226 20.631C7.08748 20.5281 6.09008 20.5811 5.44454 20.7494C3.48594 21.26 1.92002 22.8384 1.36905 24.8572C1.19463 25.4962 1.19463 26.9971 1.36898 27.6361C1.52613 28.2119 1.72644 28.6141 1.90375 28.71C2.23087 28.8869 2.33116 28.8132 3.86631 27.2681L5.37233 25.7523L6.18082 25.9516L6.98931 26.1508L7.18679 26.9691L7.38433 27.7873L5.92068 29.2683C4.33376 30.8741 4.24174 31.0122 4.52034 31.3702C4.7688 31.6893 5.92245 32 6.8591 32C8.87216 32 10.8137 30.847 11.8005 29.0654C12.3956 27.991 12.6498 26.5324 12.4409 25.3905L12.3644 24.9727L14.5627 22.7505C15.7718 21.5283 16.761 20.4961 16.761 20.4568C16.761 20.3635 12.7151 16.2767 12.6229 16.2767C12.5841 16.2767 11.5638 17.2757 10.3555 18.4967Z" fill="url(#paint0_linear_0_1075)"/>
<defs>
<linearGradient id="paint0_linear_0_1075" x1="7.95745" y1="25.1915" x2="39.6302" y2="-1.87667" gradientUnits="userSpaceOnUse">
<stop stop-color="#63AFCD"/>
<stop offset="1" stop-color="#FF374F"/>
</linearGradient>
</defs>
</svg>
