<svg width="45" height="58" viewBox="0 0 45 58" fill="none" xmlns="http://www.w3.org/2000/svg">
<line x1="22.5" x2="22.5" y2="20" stroke="#728095"/>
<circle cx="22.5" cy="35.5" r="22" stroke="#728095"/>
<path fill-rule="evenodd" clip-rule="evenodd" d="M21.3658 26.0876C18.6661 26.5764 16.5481 28.7566 16.0848 31.5236C16.0058 31.9955 16 32.2668 16 35.5015C16 38.7362 16.0058 39.0076 16.0848 39.4794C16.536 42.1738 18.5126 44.2757 21.161 44.8774C21.7895 45.0203 22.8959 45.0416 23.5688 44.9238C26.3212 44.4423 28.4466 42.2779 28.9152 39.4794C28.9942 39.0076 29 38.7362 29 35.5015C29 32.2668 28.9942 31.9955 28.9152 31.5236C28.4485 28.737 26.3216 26.5615 23.5972 26.0842C22.9488 25.9706 22.0039 25.9721 21.3658 26.0876ZM23.4369 27.9868C24.2983 28.1699 25.037 28.5654 25.6799 29.1878C26.1246 29.6183 26.3938 29.9949 26.6683 30.571C26.9256 31.1107 27.0596 31.5763 27.1246 32.155C27.18 32.6494 27.18 38.3537 27.1246 38.848C27.0395 39.6065 26.7612 40.3909 26.3537 41.0208C26.1446 41.3439 25.6518 41.8789 25.3356 42.126C23.9496 43.2089 22.107 43.416 20.5501 42.6639C20.0222 42.4089 19.7122 42.1949 19.3207 41.8152C18.7782 41.2892 18.4437 40.7826 18.1671 40.0684C17.8494 39.2482 17.854 39.315 17.854 35.5015C17.854 31.688 17.8494 31.7548 18.1671 30.9346C18.5204 30.0222 19.1516 29.2079 19.8958 28.7042C20.4833 28.3066 21.2775 28.0044 21.9698 27.9151C22.3367 27.8678 23.0385 27.902 23.4369 27.9868ZM22.151 29.8613C21.9538 29.9487 21.7718 30.1268 21.6671 30.335C21.5897 30.4891 21.5839 30.6146 21.5839 32.1547C21.5839 33.5468 21.5946 33.835 21.6514 33.9741C21.9593 34.7278 23.0407 34.7278 23.3486 33.9741C23.4054 33.835 23.4161 33.5468 23.4161 32.1547C23.4161 30.6146 23.4103 30.4891 23.3329 30.335C23.1032 29.8783 22.5831 29.6699 22.151 29.8613Z" fill="#728095"/>
</svg>
