<svg width="34" height="32" viewBox="0 0 34 32" fill="none" xmlns="http://www.w3.org/2000/svg">
<path fill-rule="evenodd" clip-rule="evenodd" d="M26.437 0.078176C26.163 0.237029 26.1025 0.43953 26.1 1.20622L26.0977 1.92079L27.2899 2.33272C27.9457 2.5593 28.5004 2.74465 28.5227 2.74465C28.545 2.74465 28.5538 2.21563 28.5423 1.56906L28.5215 0.393461L28.3375 0.207169C28.1599 0.027265 28.1268 0.0202706 27.3746 0.00352447C26.8105 -0.00911922 26.5519 0.0114603 26.437 0.078176ZM8.56641 2.98333C3.98271 4.58801 0.225715 5.90201 0.217547 5.90329C0.209312 5.90456 0.157051 5.99489 0.101336 6.10397C0.0430312 6.21817 0 6.47642 0 6.71235C0 7.05601 0.0258984 7.14849 0.160305 7.28461C0.248492 7.37385 0.392527 7.46519 0.480383 7.48758C0.662336 7.53378 0.34 7.64294 10.0008 4.26458C13.7664 2.94776 16.9202 1.87035 17.0092 1.87035C17.0981 1.87035 20.6213 3.07648 24.8384 4.55061C34.5198 7.93482 33.3712 7.55961 33.6448 7.42746C33.9094 7.29967 34 7.09825 34 6.63763C34 6.26693 33.8692 5.94767 33.687 5.87363C33.5894 5.83395 26.004 3.18099 18.6661 0.620241C17.7745 0.309058 17.0125 0.0569911 16.9727 0.0600848C16.9329 0.0631112 13.1501 1.37859 8.56641 2.98333ZM9.66211 5.67435C5.71758 7.05648 2.4828 8.18843 2.47363 8.18978C2.46447 8.19112 2.45703 12.3518 2.45703 17.4358V26.6794L2.61727 26.8681L2.77751 27.0569L7.46366 27.0754L12.1499 27.094L12.1677 20.35L12.1855 13.6061L12.3322 13.3285C12.5398 12.9354 13.0365 12.5153 13.4358 12.3952C13.9305 12.2465 20.0695 12.2465 20.5642 12.3952C20.9635 12.5153 21.4602 12.9354 21.6678 13.3285L21.8145 13.6061L21.8323 20.3483L21.8501 27.0905H26.3999C31.2572 27.0905 31.3003 27.0877 31.4714 26.7639C31.5224 26.6675 31.5385 23.9312 31.5266 17.4026L31.5098 8.17747L24.3049 5.66279C20.3422 4.27978 17.0401 3.15113 16.967 3.15476C16.8938 3.15839 13.6066 4.29222 9.66211 5.67435ZM10.1961 12.4211C10.4977 12.5598 10.7992 12.8874 10.874 13.1573C10.9396 13.3941 10.9387 19.8068 10.8731 20.0444C10.8028 20.2988 10.4377 20.7032 10.1799 20.8123C9.84333 20.9547 4.73981 20.9436 4.39968 20.7997C4.08425 20.6662 3.93344 20.5247 3.77812 20.2165C3.65971 19.9815 3.65234 19.7716 3.65234 16.6229C3.65234 13.3703 3.65613 13.2707 3.79087 12.9889C3.93596 12.6853 4.19814 12.4539 4.50175 12.3611C4.60069 12.3309 5.86201 12.3043 7.30469 12.3019C9.71318 12.298 9.94971 12.3077 10.1961 12.4211ZM29.7968 12.5088C29.9588 12.6175 30.122 12.8066 30.2068 12.984C30.3445 13.2721 30.3477 13.3531 30.3477 16.5887C30.3477 19.4152 30.3327 19.9348 30.2455 20.1463C30.1079 20.4797 29.9664 20.6297 29.6504 20.7766C29.4068 20.89 29.163 20.9003 26.7098 20.9017C24.6107 20.9028 23.9886 20.8836 23.8201 20.8123C23.5623 20.7032 23.1972 20.2988 23.1269 20.0444C23.0613 19.8068 23.0604 13.3941 23.126 13.1573C23.2006 12.8881 23.5018 12.5603 23.8039 12.4196C24.0536 12.3033 24.2617 12.2958 26.7999 12.3115L29.5275 12.3283L29.7968 12.5088ZM4.89195 13.5501C4.86758 13.5747 4.84766 14.9669 4.84766 16.6438V19.6926H7.27148H9.69531V16.5989V13.5052H7.31578C6.00698 13.5052 4.91625 13.5254 4.89195 13.5501ZM13.7051 13.6117C13.5913 13.6686 13.4643 13.7904 13.4229 13.8824C13.3685 14.0033 13.3477 15.8562 13.3477 20.57V27.0905H17H20.6523V20.5635C20.6523 13.3797 20.6727 13.7305 20.246 13.5798C20.103 13.5293 19.0465 13.5057 16.9735 13.5068C14.355 13.5081 13.8822 13.5233 13.7051 13.6117ZM24.3047 16.5981V19.6926H26.7292H29.1537L29.1364 16.6157L29.1191 13.5389L26.7119 13.5212L24.3047 13.5036V16.5981ZM19.7652 19.7908C20.0077 19.9628 20.0683 20.2342 20.0441 21.0386C20.0222 21.7652 20.0155 21.7946 19.8351 21.9516C19.6357 22.1251 19.3383 22.1621 19.115 22.0411C18.8936 21.9211 18.793 21.5653 18.793 20.9031C18.793 20.2541 18.8914 19.8928 19.1022 19.7688C19.2776 19.6655 19.6038 19.6763 19.7652 19.7908ZM4.4289 28.6205C4.20611 29.109 4.2241 30.0155 4.46668 30.5229C4.74453 31.1042 5.05876 31.4273 5.6183 31.7074C6.0603 31.9286 6.17352 31.9568 6.62741 31.9584C7.50059 31.9615 8.20403 31.5981 8.6775 30.8991C9.1124 30.2571 9.21646 29.2968 8.92799 28.5869L8.81191 28.301H6.69322H4.57459L4.4289 28.6205ZM12.75 28.9063V29.5116H17H21.25V28.9063V28.301H17H12.75V28.9063ZM25.072 28.5869C24.7835 29.2968 24.8876 30.2571 25.3225 30.8991C25.7932 31.5941 26.5001 31.9615 27.3607 31.9585C28.1578 31.9557 28.9228 31.5362 29.3393 30.8733C29.7711 30.1863 29.8595 29.2948 29.5632 28.6164L29.4254 28.301H27.3068H25.1881L25.072 28.5869ZM12.75 31.0877C12.75 31.5643 12.8323 31.7683 13.0759 31.8959C13.2484 31.9862 13.7672 32 17 32C20.2328 32 20.7516 31.9862 20.9241 31.8959C21.1677 31.7683 21.25 31.5643 21.25 31.0877V30.7222H17H12.75V31.0877Z" fill="#63AFCD"/>
</svg>
