<svg width="236" height="105" viewBox="0 0 236 105" fill="none" xmlns="http://www.w3.org/2000/svg">
<path d="M37.1333 29C32.4187 29 28.6 32.8432 28.6 37.5882V63.3527C28.6 68.0977 32.4187 71.9409 37.1333 71.9409H88.3333C122.356 71.9409 130.75 34.7702 130.75 34.7702L130.742 34.7534C130.911 34.2857 130.999 33.7919 131 33.2941C131 32.1552 130.55 31.063 129.75 30.2577C128.95 29.4524 127.865 29 126.733 29H37.1333ZM7.26667 41.8823C6.13508 41.8823 5.04983 42.3347 4.24968 43.14C3.44952 43.9453 3 45.0375 3 46.1764C3.00208 46.9111 3.19145 47.6331 3.55 48.2731L3.54167 48.2899C3.54167 48.2899 9.33173 59.0586 20.0667 59.0586V41.8823H7.26667ZM54.2 80.5291C54.2 80.5291 49.9333 93.4114 41.4 93.4114C40.8346 93.4033 40.2733 93.5085 39.7486 93.7207C39.224 93.9328 38.7464 94.2479 38.3438 94.6474C37.9411 95.0469 37.6214 95.523 37.4032 96.048C37.1849 96.573 37.0726 97.1364 37.0726 97.7055C37.0726 98.2746 37.1849 98.838 37.4032 99.3629C37.6214 99.8879 37.9411 100.364 38.3438 100.764C38.7464 101.163 39.224 101.478 39.7486 101.69C40.2733 101.902 40.8346 102.008 41.4 102H62.7333C63.3344 102 63.9287 101.872 64.4772 101.625C65.0258 101.378 65.5163 101.017 65.9167 100.565C65.9167 100.565 69.1262 97.7055 71.2667 97.7055C73.4072 97.7055 76.6167 100.565 76.6167 100.565C77.017 101.017 77.5075 101.378 78.0561 101.625C78.6047 101.872 79.199 102 79.8 102H101.133C101.699 102.008 102.26 101.902 102.785 101.69C103.309 101.478 103.787 101.163 104.19 100.764C104.592 100.364 104.912 99.8879 105.13 99.3629C105.348 98.838 105.461 98.2746 105.461 97.7055C105.461 97.1364 105.348 96.573 105.13 96.048C104.912 95.523 104.592 95.0469 104.19 94.6474C103.787 94.2479 103.309 93.9328 102.785 93.7207C102.26 93.5085 101.699 93.4033 101.133 93.4114C92.6 93.4114 88.3333 80.5291 88.3333 80.5291H54.2Z" fill="white"/>
<path fill-rule="evenodd" clip-rule="evenodd" d="M130.742 34.7534L130.75 34.7702C130.75 34.7702 122.356 71.9409 88.3334 71.9409H37.1333C32.4187 71.9409 28.6 68.0977 28.6 63.3527V37.5882C28.6 32.8432 32.4187 29 37.1333 29H126.733C127.865 29 128.95 29.4524 129.75 30.2577C130.551 31.063 131 32.1552 131 33.2941C130.999 33.7919 130.911 34.2857 130.742 34.7534ZM133.673 35.445C133.888 34.7516 133.998 34.0295 134 33.3026V33.2941C134 31.3658 133.239 29.5126 131.878 28.1432C130.517 26.7732 128.667 26 126.733 26H37.1333C30.7437 26 25.6 31.2045 25.6 37.5882V63.3527C25.6 69.7364 30.7437 74.9409 37.1333 74.9409H88.3334C106.644 74.9409 118.066 64.8665 124.777 55.0484C128.122 50.1539 130.335 45.2801 131.713 41.6398C132.403 39.815 132.888 38.2878 133.203 37.2062C133.361 36.665 133.476 36.2343 133.553 35.9326C133.592 35.7817 133.621 35.6629 133.642 35.5786C133.648 35.5506 133.654 35.5265 133.659 35.5062C133.661 35.4958 133.664 35.4865 133.665 35.4782L133.673 35.4478L133.673 35.445ZM2.38419e-05 46.1848L0 46.1764C1.19209e-05 44.248 0.760967 42.3948 2.12158 41.0255C3.48285 39.6555 5.33321 38.8823 7.26668 38.8823H23.0667V62.0586H20.0667C13.6347 62.0586 8.79584 58.8255 5.6952 55.8329C4.13265 54.3248 2.95261 52.8242 2.16082 51.6992C1.76324 51.1343 1.45893 50.6575 1.24905 50.3128C1.14399 50.1402 1.06226 50.0002 1.004 49.8982C0.974865 49.8472 0.951568 49.8056 0.934135 49.7741L0.912372 49.7345L0.904785 49.7205L0.900536 49.7127C0.900436 49.7125 0.900339 49.7123 0.913595 49.705C0.913306 49.7044 0.913017 49.7039 0.912728 49.7034L0.899395 49.7106L0.164892 48.3445L0.269792 48.1333C0.0932829 47.5013 0.00189161 46.846 2.38419e-05 46.1848ZM3.00427 48.5788L3.00334 48.5793C3.16934 48.4901 3.34844 48.3938 3.54168 48.2899C3.54168 48.2899 8.25707 57.0599 17.0667 58.7711C18.0191 58.9561 19.0194 59.0586 20.0667 59.0586V41.8823H7.26668C6.13509 41.8823 5.04985 42.3347 4.24969 43.14C3.44953 43.9453 3.00001 45.0375 3.00001 46.1764C3.00209 46.9111 3.19146 47.6331 3.55001 48.2731L3.54168 48.2899L3.00427 48.5788ZM52.0334 77.5291H90.5L91.1796 79.5811L91.1803 79.5831L91.1807 79.5844L91.1812 79.5859L91.1845 79.5956C91.1897 79.6106 91.1988 79.6371 91.212 79.6745C91.2384 79.7491 91.2808 79.8666 91.3391 80.0206C91.4559 80.3293 91.6356 80.7819 91.8777 81.3301C92.3656 82.4349 93.0881 83.885 94.0344 85.3135C96.047 88.3517 98.4586 90.4031 101.117 90.4114C102.074 90.4013 103.023 90.5808 103.91 90.9395C104.804 91.3014 105.618 91.8383 106.303 92.5179C106.988 93.1974 107.53 94.0061 107.9 94.8965C108.27 95.7868 108.461 96.7416 108.461 97.7055C108.461 98.6694 108.27 99.6242 107.9 100.514C107.53 101.405 106.988 102.214 106.303 102.893C105.618 103.573 104.804 104.11 103.91 104.471C103.022 104.83 102.072 105.01 101.115 105H79.8004C79.8002 105 79.8005 105 79.8004 105C78.774 105 77.7594 104.781 76.8238 104.36C75.9565 103.969 75.1755 103.412 74.524 102.722C74.4513 102.66 74.3425 102.569 74.2049 102.459C73.9176 102.229 73.5212 101.926 73.0775 101.63C72.6254 101.328 72.178 101.068 71.7849 100.893C71.4839 100.759 71.317 100.72 71.2667 100.71C71.2164 100.72 71.0495 100.759 70.7484 100.893C70.3553 101.068 69.908 101.328 69.4558 101.63C69.0122 101.926 68.6158 102.229 68.3285 102.459C68.1909 102.569 68.0821 102.66 68.0094 102.722C67.3578 103.412 66.5769 103.969 65.7095 104.36C64.774 104.781 63.7597 105 62.7333 105C62.7332 105 62.7335 105 62.7333 105H41.4184C40.461 105.01 39.5114 104.83 38.6239 104.471C37.7289 104.11 36.9156 103.573 36.2307 102.893C35.5459 102.214 35.0031 101.405 34.633 100.514C34.2629 99.6242 34.0726 98.6694 34.0726 97.7055C34.0726 96.7415 34.2629 95.7868 34.633 94.8965C35.0031 94.0061 35.5459 93.1974 36.2307 92.5179C36.9156 91.8383 37.7289 91.3014 38.6239 90.9395C39.5106 90.5808 40.4595 90.4013 41.4161 90.4114C44.0747 90.4031 46.4864 88.3517 48.499 85.3135C49.4452 83.885 50.1678 82.4349 50.6557 81.3301C50.8978 80.7819 51.0775 80.3293 51.1943 80.0206C51.2526 79.8666 51.295 79.7491 51.3213 79.6745C51.3345 79.6371 51.3437 79.6106 51.3488 79.5956L51.3521 79.5859L51.3527 79.5844L51.3531 79.5831L51.3535 79.5818L52.0334 77.5291ZM54.2 80.5291C54.2 80.5291 49.9333 93.4114 41.4 93.4114C40.8346 93.4033 40.2733 93.5085 39.7486 93.7207C39.224 93.9328 38.7464 94.2479 38.3438 94.6474C37.9411 95.0469 37.6214 95.523 37.4032 96.048C37.185 96.573 37.0726 97.1364 37.0726 97.7055C37.0726 98.2746 37.185 98.838 37.4032 99.3629C37.6214 99.8879 37.9411 100.364 38.3438 100.764C38.7464 101.163 39.224 101.478 39.7486 101.69C40.2733 101.902 40.8346 102.008 41.4 102H62.7333C63.3344 102 63.9287 101.872 64.4773 101.625C65.0258 101.378 65.5164 101.017 65.9167 100.565C65.9167 100.565 69.1262 97.7055 71.2667 97.7055C73.4072 97.7055 76.6167 100.565 76.6167 100.565C77.017 101.017 77.5075 101.378 78.0561 101.625C78.6047 101.872 79.199 102 79.8 102H101.133C101.699 102.008 102.26 101.902 102.785 101.69C103.309 101.478 103.787 101.163 104.19 100.764C104.592 100.364 104.912 99.8879 105.13 99.3629C105.348 98.838 105.461 98.2746 105.461 97.7055C105.461 97.1364 105.348 96.573 105.13 96.048C104.912 95.523 104.592 95.0469 104.19 94.6474C103.787 94.2479 103.309 93.9328 102.785 93.7207C102.26 93.5085 101.699 93.4033 101.133 93.4114C92.6 93.4114 88.3334 80.5291 88.3334 80.5291H54.2Z" fill="#C03637"/>
<path d="M227.282 6.62032C227.177 4.59413 225.509 3 223.469 3H212.613C210.633 3 208.995 4.50474 208.816 6.47133L202.621 76.33V48.6041H194.996V37.1621C194.996 35.7616 194.222 34.4655 192.986 33.795C191.75 33.1395 190.246 33.214 189.069 33.9887L167.149 48.6041H164.498V37.1621C164.498 35.7616 163.724 34.4655 162.488 33.795C161.252 33.1395 159.733 33.214 158.571 33.9887L135.698 49.2447C134.64 49.9598 134 51.1368 134 52.4181V98.186C134 100.302 135.698 102 137.812 102H229.307C229.337 102 229.366 102 229.381 102C231.496 102 233 100.659 233 98.5585C233 98.2307 227.282 6.62032 227.282 6.62032ZM153.061 56.2321V67.674H145.437V56.2321H153.061ZM172.123 56.2321V67.674H164.498V56.2321H172.123ZM191.184 56.2321V67.674H183.56V56.2321H191.184ZM153.061 75.302V86.744H145.437V75.302H153.061ZM172.123 75.302V86.744H164.498V75.302H172.123ZM191.184 75.302V86.744H183.56V75.302H191.184Z" fill="white"/>
<path fill-rule="evenodd" clip-rule="evenodd" d="M208.816 6.47133C208.995 4.50474 210.633 3 212.613 3H223.469C225.509 3 227.177 4.59413 227.282 6.62032C227.282 6.62032 233 98.2307 233 98.5585C233 100.659 231.496 102 229.381 102H137.812C135.698 102 134 100.302 134 98.186V52.4181C134 51.1368 134.64 49.9598 135.698 49.2447L158.571 33.9887C159.733 33.214 161.252 33.1395 162.488 33.795C163.724 34.4655 164.498 35.7616 164.498 37.1621V48.6041H167.149L189.069 33.9887C190.246 33.214 191.75 33.1395 192.986 33.795C194.222 34.4655 194.996 35.7616 194.996 37.1621V48.6041H202.621V76.33L208.816 6.47133ZM202.334 45.6041L205.828 6.19985C206.147 2.69452 209.074 0 212.613 0H223.469C227.105 0 230.081 2.84011 230.277 6.44751L231.169 20.7528C231.705 29.3464 232.42 40.808 233.135 52.2799C233.85 63.7517 234.565 75.234 235.101 83.8689L235.103 83.9045C235.63 92.3998 236 98.3528 236 98.5585C236 100.36 235.335 102.042 234.031 103.26C232.749 104.457 231.072 105 229.381 105H137.812C134.04 105 131 101.957 131 98.186V52.4181C131 50.1179 132.154 48.0199 134.017 46.7597L134.025 46.7543L156.907 31.4929C158.989 30.1039 161.687 29.9747 163.893 31.1447L163.906 31.1513L163.918 31.158C166.116 32.3498 167.498 34.6546 167.498 37.1621V44.7655L187.412 31.4879L187.42 31.4832C189.503 30.1109 192.179 29.971 194.392 31.1447L194.404 31.1513L194.416 31.158C196.614 32.3499 197.996 34.6546 197.996 37.1621V45.6041H202.334ZM150.061 64.674V59.2321H148.437V64.674H150.061ZM169.123 64.674V59.2321H167.498V64.674H169.123ZM188.184 64.674V59.2321H186.56V64.674H188.184ZM150.061 83.744V78.302H148.437V83.744H150.061ZM169.123 83.744V78.302H167.498V83.744H169.123ZM188.184 83.744V78.302H186.56V83.744H188.184ZM153.061 56.2321H145.437V67.674H153.061V56.2321ZM172.123 56.2321H164.498V67.674H172.123V56.2321ZM191.184 56.2321H183.56V67.674H191.184V56.2321ZM153.061 75.302H145.437V86.744H153.061V75.302ZM172.123 75.302H164.498V86.744H172.123V75.302ZM191.184 75.302H183.56V86.744H191.184V75.302Z" fill="#C03637"/>
</svg>
