<svg width="300" height="140" viewBox="0 0 300 140" fill="none" xmlns="http://www.w3.org/2000/svg">
<path d="M1.50266 141.948L1.44551 142.5H2H280.592H298H298.556L298.497 141.947L298 142C298.497 141.947 298.497 141.947 298.497 141.946L298.497 141.942L298.495 141.927L298.489 141.868L298.463 141.634C298.44 141.428 298.406 141.123 298.361 140.726C298.269 139.932 298.132 138.769 297.948 137.294C297.579 134.343 297.021 130.141 296.266 125.134C294.757 115.123 292.459 101.888 289.301 89.0067C286.147 76.1359 282.126 63.5748 277.156 54.9367C274.673 50.6202 271.927 47.2357 268.892 45.2972C265.829 43.341 262.481 42.8665 258.893 44.3638C249.705 48.1978 235.2 51.0589 222.219 47.0823C215.74 45.0974 209.64 41.4096 204.755 35.2828C199.868 29.1536 196.175 20.556 194.559 8.71942C192.918 -3.29701 188.028 -11.3819 181.492 -16.6598C174.966 -21.9288 166.844 -24.364 158.792 -25.1746C150.738 -25.9852 142.721 -25.1743 136.365 -23.9208C133.185 -23.2938 130.415 -22.5548 128.257 -21.8492C126.116 -21.1493 124.532 -20.4679 123.759 -19.9422C116.471 -14.9836 112.047 -6.15848 107.652 4.03307C106.931 5.70384 106.211 7.41282 105.479 9.15039C101.725 18.0559 97.655 27.7125 91.6131 36.8266C88.0256 42.2383 84.5548 44.8219 81.0271 45.6664C77.4881 46.5135 73.7814 45.6387 69.6557 43.8826C67.058 42.7769 64.349 41.3484 61.4436 39.8164C59.7145 38.9046 57.9159 37.9562 56.0297 37.0172C51.0035 34.5152 45.4261 32.1209 39.1131 30.8213C36.4353 30.27 33.8986 31.0753 31.5357 32.9057C29.1841 34.7274 26.9804 37.5799 24.9174 41.1907C20.7898 48.4149 17.1504 58.8097 14.0211 70.5021C7.7597 93.8976 3.50479 122.628 1.50266 141.948Z" fill="#B71A1B" stroke="#742323"/>
</svg>
