<svg width="39" height="37" viewBox="0 0 39 37" fill="none" xmlns="http://www.w3.org/2000/svg">
<path d="M19.5 3C10.9528 3 4 9.9528 4 18.5C4 27.0472 10.9528 34 19.5 34C28.0472 34 35 27.0472 35 18.5C35 9.9528 28.0472 3 19.5 3ZM19.5 5.58333C26.6496 5.58333 32.4167 11.3504 32.4167 18.5C32.4167 25.6496 26.6496 31.4167 19.5 31.4167C12.3504 31.4167 6.58333 25.6496 6.58333 18.5C6.58333 11.3504 12.3504 5.58333 19.5 5.58333ZM18.2083 10.75V21.0833H20.7917V10.75H18.2083ZM18.2083 23.6667V26.25H20.7917V23.6667H18.2083Z" fill="#E6D2D2"/>
</svg>
