<svg width="110" height="110" viewBox="0 0 110 110" fill="none" xmlns="http://www.w3.org/2000/svg">
<path d="M49.6377 13.175C47.8777 13.175 46.4377 14.615 46.4377 16.375V52.375L62.4377 59.0625V16.375C62.4377 14.615 60.9977 13.175 59.2377 13.175H49.6377ZM27.2377 25.975C25.4777 25.975 24.0377 27.415 24.0377 29.175V52.025L31.4627 49.9125C34.2787 49.1125 37.2537 49.1133 40.0377 49.8813V29.175C40.0377 27.415 38.5977 25.975 36.8377 25.975H27.2377ZM72.0377 25.975C70.2777 25.975 68.8377 27.415 68.8377 29.175V61.7188L71.044 62.65C73.828 63.802 76.3257 65.463 78.4377 67.575L84.8377 64.825V29.175C84.8377 27.415 83.3977 25.975 81.6377 25.975H72.0377ZM36.8064 54.8125C35.5904 54.8125 34.3772 55.0333 33.2252 55.4813L24.0377 58.8438L17.6064 61.2125V86.8125L31.1127 80.9188C32.7127 80.2468 34.5002 80.2155 36.1002 80.8875L65.1252 92.7313C65.7652 93.0513 66.4705 93.2125 67.2065 93.2125C68.0385 93.2125 68.8392 92.9848 69.5752 92.5688L98.344 76.6C99.848 75.736 100.806 74.1405 100.806 72.4125C100.806 69.7565 98.6625 67.6125 96.0065 67.6125C95.3025 67.6125 94.5965 67.7683 93.9565 68.0563L84.8377 71.8625L72.0065 77.2125H68.8377V76.8875C70.6937 76.2475 72.0065 74.4925 72.0065 72.4125C72.0065 70.3965 70.7257 68.572 68.8377 67.9C68.8057 67.868 68.7455 67.8633 68.6815 67.8313L62.4377 65.1125L46.4377 58.1375L40.8689 55.7063H40.8377C40.5817 55.5783 40.3257 55.4835 40.0377 55.3875C39.0137 55.0035 37.8944 54.8125 36.8064 54.8125Z" fill="#333333"/>
<path fill-rule="evenodd" clip-rule="evenodd" d="M7 7V103H103V7H7ZM5 0C2.23858 0 0 2.23858 0 5V105C0 107.761 2.23858 110 5 110H105C107.761 110 110 107.761 110 105V5C110 2.23858 107.761 0 105 0H5Z" fill="#C03637"/>
</svg>
