<svg width="66" height="66" viewBox="0 0 66 66" fill="none" xmlns="http://www.w3.org/2000/svg">
<path d="M36.2347 2.46134C36.0092 2.45328 35.7836 2.46537 35.558 2.50565L5.47046 7.81498C3.49658 8.16544 2.0625 9.87345 2.0625 11.8755V52.0621C2.0625 54.0682 3.49658 55.7762 5.47046 56.1226L35.558 61.4319C35.7352 61.4642 35.9165 61.4762 36.0938 61.4762C36.8188 61.4762 37.5198 61.2265 38.0797 60.7552C38.7847 60.167 39.1875 59.3009 39.1875 58.3825V53.625H58.7812C60.4852 53.625 61.875 52.2353 61.875 50.5313V13.4063C61.875 11.7023 60.4852 10.3125 58.7812 10.3125H39.1875V5.55106C39.1875 4.63663 38.7847 3.77054 38.0797 3.18241C37.556 2.73929 36.9075 2.48954 36.2347 2.46134ZM36.2025 4.52787C36.4644 4.55204 36.6537 4.67692 36.7544 4.76151C36.8954 4.87833 37.125 5.13615 37.125 5.55106V58.3825C37.125 58.8014 36.8954 59.0592 36.7544 59.1761C36.6174 59.2929 36.3274 59.4701 35.9165 59.4017L5.82898 54.0923C4.84204 53.9191 4.125 53.0651 4.125 52.0621V11.8755C4.125 10.8725 4.84204 10.0185 5.82898 9.84525L35.9125 4.53593C36.0172 4.51981 36.1139 4.51578 36.2025 4.52787ZM39.1875 12.375H58.7812C59.3492 12.375 59.8125 12.8383 59.8125 13.4063V50.5313C59.8125 51.0993 59.3492 51.5625 58.7812 51.5625H39.1875V47.3852H54.6039C55.1719 47.3852 55.6351 46.9783 55.6351 46.4063C55.6351 45.8343 55.1719 45.375 54.6039 45.375H51.5625V42.2813C51.5625 41.7093 51.0992 41.25 50.5312 41.25H47.4375V38.1563C47.4375 37.5843 46.9742 37.125 46.4062 37.125H42.2812C41.7133 37.125 41.25 37.5843 41.25 38.1563V40.2188H39.1875V33.4834C40.7021 34.4945 42.4907 35.0625 44.3438 35.0625C49.4597 35.0625 53.625 30.9013 53.625 25.7813C53.625 20.6613 49.4597 16.5 44.3438 16.5C42.4746 16.5 40.6981 17.0519 39.1875 18.0671V12.375ZM43.3125 18.6431V25.6081C43.3125 25.8095 43.385 25.9908 43.4897 26.1519C43.5381 26.2889 43.6106 26.4178 43.7194 26.5306L48.7104 31.5176C47.4939 32.4441 45.9833 33 44.3438 33C42.3981 33 40.545 32.2065 39.1875 30.8207V20.7338C40.3114 19.5857 41.7495 18.8647 43.3125 18.6431ZM45.375 18.6431C48.8676 19.1466 51.5625 22.1518 51.5625 25.7813C51.5625 27.3765 51.0348 28.8509 50.1566 30.0473L45.375 25.2657V18.6431ZM15.4688 20.625C14.9008 20.625 14.4375 21.0843 14.4375 21.6563V42.2813C14.4375 42.8533 14.9008 43.3125 15.4688 43.3125C16.0367 43.3125 16.5 42.8533 16.5 42.2813V35.0625H21.6562C24.5002 35.0625 26.8125 32.7503 26.8125 29.9063V25.7813C26.8125 22.9373 24.5002 20.625 21.6562 20.625H15.4688ZM16.5 22.6875H21.6562C23.3602 22.6875 24.75 24.0773 24.75 25.7813V29.9063C24.75 31.6103 23.3602 33 21.6562 33H16.5V22.6875ZM43.3125 39.1875H45.375V45.375H43.3125V39.1875ZM39.1875 42.2813H41.25V45.375H39.1875V42.2813ZM47.4375 43.3125H49.5V45.375H47.4375V43.3125Z" fill="#333333"/>
</svg>
