<svg width="1195" height="1530" viewBox="0 0 1195 1530" fill="none" xmlns="http://www.w3.org/2000/svg">
<g opacity="0.1">
<path fill-rule="evenodd" clip-rule="evenodd" d="M633.881 446.989C491.933 484.621 407.367 630.199 444.999 772.147C482.631 914.095 628.209 998.66 770.156 961.028C912.104 923.397 996.67 777.819 959.038 635.871C921.406 493.923 775.828 409.358 633.881 446.989ZM626.225 418.111C468.327 459.97 374.261 621.905 416.12 779.803C457.98 937.7 619.915 1031.77 777.812 989.907C935.71 948.047 1029.78 786.112 987.917 628.215C946.057 470.318 784.122 376.251 626.225 418.111Z" fill="url(#paint0_radial_334_1)"/>
<path fill-rule="evenodd" clip-rule="evenodd" d="M633.881 446.989C491.933 484.621 407.367 630.199 444.999 772.147C482.631 914.095 628.209 998.66 770.156 961.028C912.104 923.397 996.67 777.819 959.038 635.871C921.406 493.923 775.828 409.358 633.881 446.989ZM626.225 418.111C468.327 459.97 374.261 621.905 416.12 779.803C457.98 937.7 619.915 1031.77 777.812 989.907C935.71 948.047 1029.78 786.112 987.917 628.215C946.057 470.318 784.122 376.251 626.225 418.111Z" fill="url(#paint1_radial_334_1)"/>
<path fill-rule="evenodd" clip-rule="evenodd" d="M633.881 446.989C491.933 484.621 407.367 630.199 444.999 772.147C482.631 914.095 628.209 998.66 770.156 961.028C912.104 923.397 996.67 777.819 959.038 635.871C921.406 493.923 775.828 409.358 633.881 446.989ZM626.225 418.111C468.327 459.97 374.261 621.905 416.12 779.803C457.98 937.7 619.915 1031.77 777.812 989.907C935.71 948.047 1029.78 786.112 987.917 628.215C946.057 470.318 784.122 376.251 626.225 418.111Z" fill="url(#paint2_radial_334_1)"/>
<path fill-rule="evenodd" clip-rule="evenodd" d="M633.881 446.989C491.933 484.621 407.367 630.199 444.999 772.147C482.631 914.095 628.209 998.66 770.156 961.028C912.104 923.397 996.67 777.819 959.038 635.871C921.406 493.923 775.828 409.358 633.881 446.989ZM626.225 418.111C468.327 459.97 374.261 621.905 416.12 779.803C457.98 937.7 619.915 1031.77 777.812 989.907C935.71 948.047 1029.78 786.112 987.917 628.215C946.057 470.318 784.122 376.251 626.225 418.111Z" fill="url(#paint3_radial_334_1)"/>
<path fill-rule="evenodd" clip-rule="evenodd" d="M633.881 446.989C491.933 484.621 407.367 630.199 444.999 772.147C482.631 914.095 628.209 998.66 770.156 961.028C912.104 923.397 996.67 777.819 959.038 635.871C921.406 493.923 775.828 409.358 633.881 446.989ZM626.225 418.111C468.327 459.97 374.261 621.905 416.12 779.803C457.98 937.7 619.915 1031.77 777.812 989.907C935.71 948.047 1029.78 786.112 987.917 628.215C946.057 470.318 784.122 376.251 626.225 418.111Z" fill="url(#paint4_radial_334_1)"/>
</g>
<g opacity="0.1">
<path fill-rule="evenodd" clip-rule="evenodd" d="M643.732 483.611C522.232 515.821 449.872 640.516 482.111 762.123C514.351 883.731 638.981 956.202 760.48 923.991C881.98 891.781 954.34 767.086 922.101 645.479C889.861 523.871 765.231 451.4 643.732 483.611ZM637.173 458.87C502.022 494.7 421.531 633.405 457.393 768.676C493.255 903.948 631.888 984.562 767.039 948.732C902.19 912.902 982.681 774.197 946.819 638.926C910.957 503.654 772.324 423.04 637.173 458.87Z" fill="url(#paint5_radial_334_1)"/>
<path fill-rule="evenodd" clip-rule="evenodd" d="M643.732 483.611C522.232 515.821 449.872 640.516 482.111 762.123C514.351 883.731 638.981 956.202 760.48 923.991C881.98 891.781 954.34 767.086 922.101 645.479C889.861 523.871 765.231 451.4 643.732 483.611ZM637.173 458.87C502.022 494.7 421.531 633.405 457.393 768.676C493.255 903.948 631.888 984.562 767.039 948.732C902.19 912.902 982.681 774.197 946.819 638.926C910.957 503.654 772.324 423.04 637.173 458.87Z" fill="url(#paint6_radial_334_1)"/>
<path fill-rule="evenodd" clip-rule="evenodd" d="M643.732 483.611C522.232 515.821 449.872 640.516 482.111 762.123C514.351 883.731 638.981 956.202 760.48 923.991C881.98 891.781 954.34 767.086 922.101 645.479C889.861 523.871 765.231 451.4 643.732 483.611ZM637.173 458.87C502.022 494.7 421.531 633.405 457.393 768.676C493.255 903.948 631.888 984.562 767.039 948.732C902.19 912.902 982.681 774.197 946.819 638.926C910.957 503.654 772.324 423.04 637.173 458.87Z" fill="url(#paint7_radial_334_1)"/>
<path fill-rule="evenodd" clip-rule="evenodd" d="M643.732 483.611C522.232 515.821 449.872 640.516 482.111 762.123C514.351 883.731 638.981 956.202 760.48 923.991C881.98 891.781 954.34 767.086 922.101 645.479C889.861 523.871 765.231 451.4 643.732 483.611ZM637.173 458.87C502.022 494.7 421.531 633.405 457.393 768.676C493.255 903.948 631.888 984.562 767.039 948.732C902.19 912.902 982.681 774.197 946.819 638.926C910.957 503.654 772.324 423.04 637.173 458.87Z" fill="url(#paint8_radial_334_1)"/>
<path fill-rule="evenodd" clip-rule="evenodd" d="M643.732 483.611C522.232 515.821 449.872 640.516 482.111 762.123C514.351 883.731 638.981 956.202 760.48 923.991C881.98 891.781 954.34 767.086 922.101 645.479C889.861 523.871 765.231 451.4 643.732 483.611ZM637.173 458.87C502.022 494.7 421.531 633.405 457.393 768.676C493.255 903.948 631.888 984.562 767.039 948.732C902.19 912.902 982.681 774.197 946.819 638.926C910.957 503.654 772.324 423.04 637.173 458.87Z" fill="url(#paint9_radial_334_1)"/>
</g>
<g opacity="0.1">
<path fill-rule="evenodd" clip-rule="evenodd" d="M652.457 516.521C548.917 543.97 487.21 650.07 514.631 753.502C542.051 856.933 648.216 918.529 751.755 891.08C855.295 863.631 917.002 757.531 889.581 654.099C862.161 550.668 755.996 489.072 652.457 516.521ZM646.878 495.478C531.705 526.012 463.065 644.033 493.566 759.086C524.068 874.139 642.16 942.656 757.334 912.123C872.507 881.589 941.147 763.568 910.646 648.515C880.144 533.462 762.052 464.945 646.878 495.478Z" fill="url(#paint10_radial_334_1)"/>
<path fill-rule="evenodd" clip-rule="evenodd" d="M652.457 516.521C548.917 543.97 487.21 650.07 514.631 753.502C542.051 856.933 648.216 918.529 751.755 891.08C855.295 863.631 917.002 757.531 889.581 654.099C862.161 550.668 755.996 489.072 652.457 516.521ZM646.878 495.478C531.705 526.012 463.065 644.033 493.566 759.086C524.068 874.139 642.16 942.656 757.334 912.123C872.507 881.589 941.147 763.568 910.646 648.515C880.144 533.462 762.052 464.945 646.878 495.478Z" fill="url(#paint11_radial_334_1)"/>
<path fill-rule="evenodd" clip-rule="evenodd" d="M652.457 516.521C548.917 543.97 487.21 650.07 514.631 753.502C542.051 856.933 648.216 918.529 751.755 891.08C855.295 863.631 917.002 757.531 889.581 654.099C862.161 550.668 755.996 489.072 652.457 516.521ZM646.878 495.478C531.705 526.012 463.065 644.033 493.566 759.086C524.068 874.139 642.16 942.656 757.334 912.123C872.507 881.589 941.147 763.568 910.646 648.515C880.144 533.462 762.052 464.945 646.878 495.478Z" fill="url(#paint12_radial_334_1)"/>
<path fill-rule="evenodd" clip-rule="evenodd" d="M652.457 516.521C548.917 543.97 487.21 650.07 514.631 753.502C542.051 856.933 648.216 918.529 751.755 891.08C855.295 863.631 917.002 757.531 889.581 654.099C862.161 550.668 755.996 489.072 652.457 516.521ZM646.878 495.478C531.705 526.012 463.065 644.033 493.566 759.086C524.068 874.139 642.16 942.656 757.334 912.123C872.507 881.589 941.147 763.568 910.646 648.515C880.144 533.462 762.052 464.945 646.878 495.478Z" fill="url(#paint13_radial_334_1)"/>
<path fill-rule="evenodd" clip-rule="evenodd" d="M652.457 516.521C548.917 543.97 487.21 650.07 514.631 753.502C542.051 856.933 648.216 918.529 751.755 891.08C855.295 863.631 917.002 757.531 889.581 654.099C862.161 550.668 755.996 489.072 652.457 516.521ZM646.878 495.478C531.705 526.012 463.065 644.033 493.566 759.086C524.068 874.139 642.16 942.656 757.334 912.123C872.507 881.589 941.147 763.568 910.646 648.515C880.144 533.462 762.052 464.945 646.878 495.478Z" fill="url(#paint14_radial_334_1)"/>
</g>
<g opacity="0.1">
<path fill-rule="evenodd" clip-rule="evenodd" d="M659.935 544.731C571.975 568.05 519.55 658.171 542.84 746.023C566.13 833.875 656.317 886.19 744.277 862.871C832.237 839.552 884.662 749.43 861.372 661.578C838.081 573.726 747.895 521.412 659.935 544.731ZM655.197 526.858C557.354 552.797 499.038 653.045 524.945 750.767C550.852 848.49 651.172 906.683 749.015 880.744C846.858 854.805 905.174 754.557 879.267 656.834C853.36 559.111 753.04 500.919 655.197 526.858Z" fill="url(#paint15_radial_334_1)"/>
<path fill-rule="evenodd" clip-rule="evenodd" d="M659.935 544.731C571.975 568.05 519.55 658.171 542.84 746.023C566.13 833.875 656.317 886.19 744.277 862.871C832.237 839.552 884.662 749.43 861.372 661.578C838.081 573.726 747.895 521.412 659.935 544.731ZM655.197 526.858C557.354 552.797 499.038 653.045 524.945 750.767C550.852 848.49 651.172 906.683 749.015 880.744C846.858 854.805 905.174 754.557 879.267 656.834C853.36 559.111 753.04 500.919 655.197 526.858Z" fill="url(#paint16_radial_334_1)"/>
<path fill-rule="evenodd" clip-rule="evenodd" d="M659.935 544.731C571.975 568.05 519.55 658.171 542.84 746.023C566.13 833.875 656.317 886.19 744.277 862.871C832.237 839.552 884.662 749.43 861.372 661.578C838.081 573.726 747.895 521.412 659.935 544.731ZM655.197 526.858C557.354 552.797 499.038 653.045 524.945 750.767C550.852 848.49 651.172 906.683 749.015 880.744C846.858 854.805 905.174 754.557 879.267 656.834C853.36 559.111 753.04 500.919 655.197 526.858Z" fill="url(#paint17_radial_334_1)"/>
<path fill-rule="evenodd" clip-rule="evenodd" d="M659.935 544.731C571.975 568.05 519.55 658.171 542.84 746.023C566.13 833.875 656.317 886.19 744.277 862.871C832.237 839.552 884.662 749.43 861.372 661.578C838.081 573.726 747.895 521.412 659.935 544.731ZM655.197 526.858C557.354 552.797 499.038 653.045 524.945 750.767C550.852 848.49 651.172 906.683 749.015 880.744C846.858 854.805 905.174 754.557 879.267 656.834C853.36 559.111 753.04 500.919 655.197 526.858Z" fill="url(#paint18_radial_334_1)"/>
<path fill-rule="evenodd" clip-rule="evenodd" d="M659.935 544.731C571.975 568.05 519.55 658.171 542.84 746.023C566.13 833.875 656.317 886.19 744.277 862.871C832.237 839.552 884.662 749.43 861.372 661.578C838.081 573.726 747.895 521.412 659.935 544.731ZM655.197 526.858C557.354 552.797 499.038 653.045 524.945 750.767C550.852 848.49 651.172 906.683 749.015 880.744C846.858 854.805 905.174 754.557 879.267 656.834C853.36 559.111 753.04 500.919 655.197 526.858Z" fill="url(#paint19_radial_334_1)"/>
</g>
<g opacity="0.1">
<path fill-rule="evenodd" clip-rule="evenodd" d="M665.648 566.279C589.589 586.443 544.254 664.36 564.389 740.31C584.524 816.261 662.505 861.485 738.564 841.321C814.623 821.158 859.958 743.241 839.823 667.29C819.687 591.34 741.707 546.115 665.648 566.279ZM661.551 550.828C576.946 573.257 526.517 659.928 548.915 744.413C571.312 828.897 658.055 879.203 742.66 856.773C827.265 834.344 877.694 747.673 855.296 663.188C832.899 578.704 746.156 528.398 661.551 550.828Z" fill="url(#paint20_radial_334_1)"/>
<path fill-rule="evenodd" clip-rule="evenodd" d="M665.648 566.279C589.589 586.443 544.254 664.36 564.389 740.31C584.524 816.261 662.505 861.485 738.564 841.321C814.623 821.158 859.958 743.241 839.823 667.29C819.687 591.34 741.707 546.115 665.648 566.279ZM661.551 550.828C576.946 573.257 526.517 659.928 548.915 744.413C571.312 828.897 658.055 879.203 742.66 856.773C827.265 834.344 877.694 747.673 855.296 663.188C832.899 578.704 746.156 528.398 661.551 550.828Z" fill="url(#paint21_radial_334_1)"/>
<path fill-rule="evenodd" clip-rule="evenodd" d="M665.648 566.279C589.589 586.443 544.254 664.36 564.389 740.31C584.524 816.261 662.505 861.485 738.564 841.321C814.623 821.158 859.958 743.241 839.823 667.29C819.687 591.34 741.707 546.115 665.648 566.279ZM661.551 550.828C576.946 573.257 526.517 659.928 548.915 744.413C571.312 828.897 658.055 879.203 742.66 856.773C827.265 834.344 877.694 747.673 855.296 663.188C832.899 578.704 746.156 528.398 661.551 550.828Z" fill="url(#paint22_radial_334_1)"/>
<path fill-rule="evenodd" clip-rule="evenodd" d="M665.648 566.279C589.589 586.443 544.254 664.36 564.389 740.31C584.524 816.261 662.505 861.485 738.564 841.321C814.623 821.158 859.958 743.241 839.823 667.29C819.687 591.34 741.707 546.115 665.648 566.279ZM661.551 550.828C576.946 573.257 526.517 659.928 548.915 744.413C571.312 828.897 658.055 879.203 742.66 856.773C827.265 834.344 877.694 747.673 855.296 663.188C832.899 578.704 746.156 528.398 661.551 550.828Z" fill="url(#paint23_radial_334_1)"/>
<path fill-rule="evenodd" clip-rule="evenodd" d="M665.648 566.279C589.589 586.443 544.254 664.36 564.389 740.31C584.524 816.261 662.505 861.485 738.564 841.321C814.623 821.158 859.958 743.241 839.823 667.29C819.687 591.34 741.707 546.115 665.648 566.279ZM661.551 550.828C576.946 573.257 526.517 659.928 548.915 744.413C571.312 828.897 658.055 879.203 742.66 856.773C827.265 834.344 877.694 747.673 855.296 663.188C832.899 578.704 746.156 528.398 661.551 550.828Z" fill="url(#paint24_radial_334_1)"/>
</g>
<g opacity="0.1">
<path fill-rule="evenodd" clip-rule="evenodd" d="M670.53 584.694C604.641 602.162 565.365 669.648 582.804 735.429C600.243 801.21 667.793 840.375 733.682 822.907C799.571 805.44 838.848 737.954 821.409 672.173C803.97 606.392 736.419 567.227 670.53 584.694ZM666.982 571.312C593.69 590.742 550.001 665.811 569.399 738.983C588.797 812.154 663.938 855.721 737.23 836.29C810.522 816.86 854.212 741.791 834.813 668.619C815.415 595.447 740.274 551.881 666.982 571.312Z" fill="url(#paint25_radial_334_1)"/>
<path fill-rule="evenodd" clip-rule="evenodd" d="M670.53 584.694C604.641 602.162 565.365 669.648 582.804 735.429C600.243 801.21 667.793 840.375 733.682 822.907C799.571 805.44 838.848 737.954 821.409 672.173C803.97 606.392 736.419 567.227 670.53 584.694ZM666.982 571.312C593.69 590.742 550.001 665.811 569.399 738.983C588.797 812.154 663.938 855.721 737.23 836.29C810.522 816.86 854.212 741.791 834.813 668.619C815.415 595.447 740.274 551.881 666.982 571.312Z" fill="url(#paint26_radial_334_1)"/>
<path fill-rule="evenodd" clip-rule="evenodd" d="M670.53 584.694C604.641 602.162 565.365 669.648 582.804 735.429C600.243 801.21 667.793 840.375 733.682 822.907C799.571 805.44 838.848 737.954 821.409 672.173C803.97 606.392 736.419 567.227 670.53 584.694ZM666.982 571.312C593.69 590.742 550.001 665.811 569.399 738.983C588.797 812.154 663.938 855.721 737.23 836.29C810.522 816.86 854.212 741.791 834.813 668.619C815.415 595.447 740.274 551.881 666.982 571.312Z" fill="url(#paint27_radial_334_1)"/>
<path fill-rule="evenodd" clip-rule="evenodd" d="M670.53 584.694C604.641 602.162 565.365 669.648 582.804 735.429C600.243 801.21 667.793 840.375 733.682 822.907C799.571 805.44 838.848 737.954 821.409 672.173C803.97 606.392 736.419 567.227 670.53 584.694ZM666.982 571.312C593.69 590.742 550.001 665.811 569.399 738.983C588.797 812.154 663.938 855.721 737.23 836.29C810.522 816.86 854.212 741.791 834.813 668.619C815.415 595.447 740.274 551.881 666.982 571.312Z" fill="url(#paint28_radial_334_1)"/>
<path fill-rule="evenodd" clip-rule="evenodd" d="M670.53 584.694C604.641 602.162 565.365 669.648 582.804 735.429C600.243 801.21 667.793 840.375 733.682 822.907C799.571 805.44 838.848 737.954 821.409 672.173C803.97 606.392 736.419 567.227 670.53 584.694ZM666.982 571.312C593.69 590.742 550.001 665.811 569.399 738.983C588.797 812.154 663.938 855.721 737.23 836.29C810.522 816.86 854.212 741.791 834.813 668.619C815.415 595.447 740.274 551.881 666.982 571.312Z" fill="url(#paint29_radial_334_1)"/>
</g>
<g opacity="0.1">
<path fill-rule="evenodd" clip-rule="evenodd" d="M674.494 600.182C617.152 615.384 582.991 674.192 598.193 731.534C613.394 788.876 672.203 823.037 729.544 807.835C786.886 792.634 821.047 733.825 805.846 676.484C790.644 619.142 731.836 584.981 674.494 600.182ZM671.401 588.517C607.616 605.426 569.617 670.842 586.527 734.627C603.437 798.412 668.852 836.411 732.637 819.501C796.422 802.591 834.421 737.176 817.511 673.391C800.602 609.606 735.186 571.607 671.401 588.517Z" fill="url(#paint30_radial_334_1)"/>
<path fill-rule="evenodd" clip-rule="evenodd" d="M674.494 600.182C617.152 615.384 582.991 674.192 598.193 731.534C613.394 788.876 672.203 823.037 729.544 807.835C786.886 792.634 821.047 733.825 805.846 676.484C790.644 619.142 731.836 584.981 674.494 600.182ZM671.401 588.517C607.616 605.426 569.617 670.842 586.527 734.627C603.437 798.412 668.852 836.411 732.637 819.501C796.422 802.591 834.421 737.176 817.511 673.391C800.602 609.606 735.186 571.607 671.401 588.517Z" fill="url(#paint31_radial_334_1)"/>
<path fill-rule="evenodd" clip-rule="evenodd" d="M674.494 600.182C617.152 615.384 582.991 674.192 598.193 731.534C613.394 788.876 672.203 823.037 729.544 807.835C786.886 792.634 821.047 733.825 805.846 676.484C790.644 619.142 731.836 584.981 674.494 600.182ZM671.401 588.517C607.616 605.426 569.617 670.842 586.527 734.627C603.437 798.412 668.852 836.411 732.637 819.501C796.422 802.591 834.421 737.176 817.511 673.391C800.602 609.606 735.186 571.607 671.401 588.517Z" fill="url(#paint32_radial_334_1)"/>
<path fill-rule="evenodd" clip-rule="evenodd" d="M674.494 600.182C617.152 615.384 582.991 674.192 598.193 731.534C613.394 788.876 672.203 823.037 729.544 807.835C786.886 792.634 821.047 733.825 805.846 676.484C790.644 619.142 731.836 584.981 674.494 600.182ZM671.401 588.517C607.616 605.426 569.617 670.842 586.527 734.627C603.437 798.412 668.852 836.411 732.637 819.501C796.422 802.591 834.421 737.176 817.511 673.391C800.602 609.606 735.186 571.607 671.401 588.517Z" fill="url(#paint33_radial_334_1)"/>
<path fill-rule="evenodd" clip-rule="evenodd" d="M674.494 600.182C617.152 615.384 582.991 674.192 598.193 731.534C613.394 788.876 672.203 823.037 729.544 807.835C786.886 792.634 821.047 733.825 805.846 676.484C790.644 619.142 731.836 584.981 674.494 600.182ZM671.401 588.517C607.616 605.426 569.617 670.842 586.527 734.627C603.437 798.412 668.852 836.411 732.637 819.501C796.422 802.591 834.421 737.176 817.511 673.391C800.602 609.606 735.186 571.607 671.401 588.517Z" fill="url(#paint34_radial_334_1)"/>
</g>
<g opacity="0.1">
<path fill-rule="evenodd" clip-rule="evenodd" d="M681.245 625.649C637.968 637.122 612.186 681.506 623.659 724.783C635.132 768.059 679.516 793.841 722.792 782.368C766.069 770.895 791.851 726.512 780.378 683.235C768.905 639.958 724.522 614.176 681.245 625.649ZM678.911 616.845C630.771 629.607 602.092 678.977 614.855 727.117C627.617 775.256 676.987 803.935 725.126 791.173C773.266 778.411 801.945 729.04 789.183 680.901C776.42 632.762 727.05 604.083 678.911 616.845Z" fill="url(#paint35_radial_334_1)"/>
<path fill-rule="evenodd" clip-rule="evenodd" d="M681.245 625.649C637.968 637.122 612.186 681.506 623.659 724.783C635.132 768.059 679.516 793.841 722.792 782.368C766.069 770.895 791.851 726.512 780.378 683.235C768.905 639.958 724.522 614.176 681.245 625.649ZM678.911 616.845C630.771 629.607 602.092 678.977 614.855 727.117C627.617 775.256 676.987 803.935 725.126 791.173C773.266 778.411 801.945 729.04 789.183 680.901C776.42 632.762 727.05 604.083 678.911 616.845Z" fill="url(#paint36_radial_334_1)"/>
<path fill-rule="evenodd" clip-rule="evenodd" d="M681.245 625.649C637.968 637.122 612.186 681.506 623.659 724.783C635.132 768.059 679.516 793.841 722.792 782.368C766.069 770.895 791.851 726.512 780.378 683.235C768.905 639.958 724.522 614.176 681.245 625.649ZM678.911 616.845C630.771 629.607 602.092 678.977 614.855 727.117C627.617 775.256 676.987 803.935 725.126 791.173C773.266 778.411 801.945 729.04 789.183 680.901C776.42 632.762 727.05 604.083 678.911 616.845Z" fill="url(#paint37_radial_334_1)"/>
<path fill-rule="evenodd" clip-rule="evenodd" d="M681.245 625.649C637.968 637.122 612.186 681.506 623.659 724.783C635.132 768.059 679.516 793.841 722.792 782.368C766.069 770.895 791.851 726.512 780.378 683.235C768.905 639.958 724.522 614.176 681.245 625.649ZM678.911 616.845C630.771 629.607 602.092 678.977 614.855 727.117C627.617 775.256 676.987 803.935 725.126 791.173C773.266 778.411 801.945 729.04 789.183 680.901C776.42 632.762 727.05 604.083 678.911 616.845Z" fill="url(#paint38_radial_334_1)"/>
<path fill-rule="evenodd" clip-rule="evenodd" d="M681.245 625.649C637.968 637.122 612.186 681.506 623.659 724.783C635.132 768.059 679.516 793.841 722.792 782.368C766.069 770.895 791.851 726.512 780.378 683.235C768.905 639.958 724.522 614.176 681.245 625.649ZM678.911 616.845C630.771 629.607 602.092 678.977 614.855 727.117C627.617 775.256 676.987 803.935 725.126 791.173C773.266 778.411 801.945 729.04 789.183 680.901C776.42 632.762 727.05 604.083 678.911 616.845Z" fill="url(#paint39_radial_334_1)"/>
</g>
<g opacity="0.1">
<path fill-rule="evenodd" clip-rule="evenodd" d="M689.538 656.393C663.247 663.363 647.561 690.238 654.502 716.421C661.444 742.603 688.383 758.178 714.674 751.208C740.965 744.239 756.651 717.363 749.709 691.181C742.768 664.998 715.828 649.423 689.538 656.393ZM688.126 651.067C658.881 658.82 641.433 688.715 649.154 717.839C656.875 746.963 686.842 764.288 716.086 756.535C745.331 748.782 762.779 718.887 755.058 689.763C747.337 660.639 717.37 643.314 688.126 651.067Z" fill="url(#paint40_radial_334_1)"/>
<path fill-rule="evenodd" clip-rule="evenodd" d="M689.538 656.393C663.247 663.363 647.561 690.238 654.502 716.421C661.444 742.603 688.383 758.178 714.674 751.208C740.965 744.239 756.651 717.363 749.709 691.181C742.768 664.998 715.828 649.423 689.538 656.393ZM688.126 651.067C658.881 658.82 641.433 688.715 649.154 717.839C656.875 746.963 686.842 764.288 716.086 756.535C745.331 748.782 762.779 718.887 755.058 689.763C747.337 660.639 717.37 643.314 688.126 651.067Z" fill="url(#paint41_radial_334_1)"/>
<path fill-rule="evenodd" clip-rule="evenodd" d="M689.538 656.393C663.247 663.363 647.561 690.238 654.502 716.421C661.444 742.603 688.383 758.178 714.674 751.208C740.965 744.239 756.651 717.363 749.709 691.181C742.768 664.998 715.828 649.423 689.538 656.393ZM688.126 651.067C658.881 658.82 641.433 688.715 649.154 717.839C656.875 746.963 686.842 764.288 716.086 756.535C745.331 748.782 762.779 718.887 755.058 689.763C747.337 660.639 717.37 643.314 688.126 651.067Z" fill="url(#paint42_radial_334_1)"/>
<path fill-rule="evenodd" clip-rule="evenodd" d="M689.538 656.393C663.247 663.363 647.561 690.238 654.502 716.421C661.444 742.603 688.383 758.178 714.674 751.208C740.965 744.239 756.651 717.363 749.709 691.181C742.768 664.998 715.828 649.423 689.538 656.393ZM688.126 651.067C658.881 658.82 641.433 688.715 649.154 717.839C656.875 746.963 686.842 764.288 716.086 756.535C745.331 748.782 762.779 718.887 755.058 689.763C747.337 660.639 717.37 643.314 688.126 651.067Z" fill="url(#paint43_radial_334_1)"/>
<path fill-rule="evenodd" clip-rule="evenodd" d="M689.538 656.393C663.247 663.363 647.561 690.238 654.502 716.421C661.444 742.603 688.383 758.178 714.674 751.208C740.965 744.239 756.651 717.363 749.709 691.181C742.768 664.998 715.828 649.423 689.538 656.393ZM688.126 651.067C658.881 658.82 641.433 688.715 649.154 717.839C656.875 746.963 686.842 764.288 716.086 756.535C745.331 748.782 762.779 718.887 755.058 689.763C747.337 660.639 717.37 643.314 688.126 651.067Z" fill="url(#paint44_radial_334_1)"/>
</g>
<g opacity="0.4">
<path fill-rule="evenodd" clip-rule="evenodd" d="M1191.75 1285.4C1313.24 1255.46 1387.45 1132.69 1357.5 1011.2C1327.55 889.708 1204.79 815.499 1083.3 845.448C961.805 875.397 887.596 998.163 917.545 1119.65C947.494 1241.14 1070.26 1315.35 1191.75 1285.4ZM1197.84 1310.12C1332.98 1276.81 1415.53 1140.25 1382.22 1005.11C1348.9 869.964 1212.34 787.417 1077.2 820.731C942.061 854.045 859.514 990.605 892.828 1125.75C926.142 1260.89 1062.7 1343.44 1197.84 1310.12Z" fill="#737373"/>
<path fill-rule="evenodd" clip-rule="evenodd" d="M1191.75 1285.4C1313.24 1255.46 1387.45 1132.69 1357.5 1011.2C1327.55 889.708 1204.79 815.499 1083.3 845.448C961.805 875.397 887.596 998.163 917.545 1119.65C947.494 1241.14 1070.26 1315.35 1191.75 1285.4ZM1197.84 1310.12C1332.98 1276.81 1415.53 1140.25 1382.22 1005.11C1348.9 869.964 1212.34 787.417 1077.2 820.731C942.061 854.045 859.514 990.605 892.828 1125.75C926.142 1260.89 1062.7 1343.44 1197.84 1310.12Z" fill="url(#paint45_radial_334_1)"/>
<path fill-rule="evenodd" clip-rule="evenodd" d="M1191.75 1285.4C1313.24 1255.46 1387.45 1132.69 1357.5 1011.2C1327.55 889.708 1204.79 815.499 1083.3 845.448C961.805 875.397 887.596 998.163 917.545 1119.65C947.494 1241.14 1070.26 1315.35 1191.75 1285.4ZM1197.84 1310.12C1332.98 1276.81 1415.53 1140.25 1382.22 1005.11C1348.9 869.964 1212.34 787.417 1077.2 820.731C942.061 854.045 859.514 990.605 892.828 1125.75C926.142 1260.89 1062.7 1343.44 1197.84 1310.12Z" fill="url(#paint46_radial_334_1)"/>
<path fill-rule="evenodd" clip-rule="evenodd" d="M1191.75 1285.4C1313.24 1255.46 1387.45 1132.69 1357.5 1011.2C1327.55 889.708 1204.79 815.499 1083.3 845.448C961.805 875.397 887.596 998.163 917.545 1119.65C947.494 1241.14 1070.26 1315.35 1191.75 1285.4ZM1197.84 1310.12C1332.98 1276.81 1415.53 1140.25 1382.22 1005.11C1348.9 869.964 1212.34 787.417 1077.2 820.731C942.061 854.045 859.514 990.605 892.828 1125.75C926.142 1260.89 1062.7 1343.44 1197.84 1310.12Z" fill="url(#paint47_radial_334_1)"/>
<path fill-rule="evenodd" clip-rule="evenodd" d="M1191.75 1285.4C1313.24 1255.46 1387.45 1132.69 1357.5 1011.2C1327.55 889.708 1204.79 815.499 1083.3 845.448C961.805 875.397 887.596 998.163 917.545 1119.65C947.494 1241.14 1070.26 1315.35 1191.75 1285.4ZM1197.84 1310.12C1332.98 1276.81 1415.53 1140.25 1382.22 1005.11C1348.9 869.964 1212.34 787.417 1077.2 820.731C942.061 854.045 859.514 990.605 892.828 1125.75C926.142 1260.89 1062.7 1343.44 1197.84 1310.12Z" fill="url(#paint48_radial_334_1)"/>
<path fill-rule="evenodd" clip-rule="evenodd" d="M1191.75 1285.4C1313.24 1255.46 1387.45 1132.69 1357.5 1011.2C1327.55 889.708 1204.79 815.499 1083.3 845.448C961.805 875.397 887.596 998.163 917.545 1119.65C947.494 1241.14 1070.26 1315.35 1191.75 1285.4ZM1197.84 1310.12C1332.98 1276.81 1415.53 1140.25 1382.22 1005.11C1348.9 869.964 1212.34 787.417 1077.2 820.731C942.061 854.045 859.514 990.605 892.828 1125.75C926.142 1260.89 1062.7 1343.44 1197.84 1310.12Z" fill="url(#paint49_radial_334_1)"/>
<path fill-rule="evenodd" clip-rule="evenodd" d="M1191.75 1285.4C1313.24 1255.46 1387.45 1132.69 1357.5 1011.2C1327.55 889.708 1204.79 815.499 1083.3 845.448C961.805 875.397 887.596 998.163 917.545 1119.65C947.494 1241.14 1070.26 1315.35 1191.75 1285.4ZM1197.84 1310.12C1332.98 1276.81 1415.53 1140.25 1382.22 1005.11C1348.9 869.964 1212.34 787.417 1077.2 820.731C942.061 854.045 859.514 990.605 892.828 1125.75C926.142 1260.89 1062.7 1343.44 1197.84 1310.12Z" fill="url(#paint50_radial_334_1)"/>
</g>
<g opacity="0.4">
<path fill-rule="evenodd" clip-rule="evenodd" d="M1184.17 1253.84C1288.16 1228.2 1351.66 1123.05 1326 1018.96C1300.34 914.882 1195.24 851.288 1091.25 876.923C987.263 902.558 923.762 1007.71 949.42 1111.8C975.077 1215.88 1080.18 1279.47 1184.17 1253.84ZM1189.39 1275.01C1305.06 1246.5 1375.7 1129.53 1347.15 1013.75C1318.61 897.973 1201.71 827.233 1086.03 855.748C970.359 884.263 899.723 1001.23 928.264 1117.01C956.804 1232.79 1073.71 1303.53 1189.39 1275.01Z" fill="#737373"/>
<path fill-rule="evenodd" clip-rule="evenodd" d="M1184.17 1253.84C1288.16 1228.2 1351.66 1123.05 1326 1018.96C1300.34 914.882 1195.24 851.288 1091.25 876.923C987.263 902.558 923.762 1007.71 949.42 1111.8C975.077 1215.88 1080.18 1279.47 1184.17 1253.84ZM1189.39 1275.01C1305.06 1246.5 1375.7 1129.53 1347.15 1013.75C1318.61 897.973 1201.71 827.233 1086.03 855.748C970.359 884.263 899.723 1001.23 928.264 1117.01C956.804 1232.79 1073.71 1303.53 1189.39 1275.01Z" fill="url(#paint51_radial_334_1)"/>
<path fill-rule="evenodd" clip-rule="evenodd" d="M1184.17 1253.84C1288.16 1228.2 1351.66 1123.05 1326 1018.96C1300.34 914.882 1195.24 851.288 1091.25 876.923C987.263 902.558 923.762 1007.71 949.42 1111.8C975.077 1215.88 1080.18 1279.47 1184.17 1253.84ZM1189.39 1275.01C1305.06 1246.5 1375.7 1129.53 1347.15 1013.75C1318.61 897.973 1201.71 827.233 1086.03 855.748C970.359 884.263 899.723 1001.23 928.264 1117.01C956.804 1232.79 1073.71 1303.53 1189.39 1275.01Z" fill="url(#paint52_radial_334_1)"/>
<path fill-rule="evenodd" clip-rule="evenodd" d="M1184.17 1253.84C1288.16 1228.2 1351.66 1123.05 1326 1018.96C1300.34 914.882 1195.24 851.288 1091.25 876.923C987.263 902.558 923.762 1007.71 949.42 1111.8C975.077 1215.88 1080.18 1279.47 1184.17 1253.84ZM1189.39 1275.01C1305.06 1246.5 1375.7 1129.53 1347.15 1013.75C1318.61 897.973 1201.71 827.233 1086.03 855.748C970.359 884.263 899.723 1001.23 928.264 1117.01C956.804 1232.79 1073.71 1303.53 1189.39 1275.01Z" fill="url(#paint53_radial_334_1)"/>
<path fill-rule="evenodd" clip-rule="evenodd" d="M1184.17 1253.84C1288.16 1228.2 1351.66 1123.05 1326 1018.96C1300.34 914.882 1195.24 851.288 1091.25 876.923C987.263 902.558 923.762 1007.71 949.42 1111.8C975.077 1215.88 1080.18 1279.47 1184.17 1253.84ZM1189.39 1275.01C1305.06 1246.5 1375.7 1129.53 1347.15 1013.75C1318.61 897.973 1201.71 827.233 1086.03 855.748C970.359 884.263 899.723 1001.23 928.264 1117.01C956.804 1232.79 1073.71 1303.53 1189.39 1275.01Z" fill="url(#paint54_radial_334_1)"/>
<path fill-rule="evenodd" clip-rule="evenodd" d="M1184.17 1253.84C1288.16 1228.2 1351.66 1123.05 1326 1018.96C1300.34 914.882 1195.24 851.288 1091.25 876.923C987.263 902.558 923.762 1007.71 949.42 1111.8C975.077 1215.88 1080.18 1279.47 1184.17 1253.84ZM1189.39 1275.01C1305.06 1246.5 1375.7 1129.53 1347.15 1013.75C1318.61 897.973 1201.71 827.233 1086.03 855.748C970.359 884.263 899.723 1001.23 928.264 1117.01C956.804 1232.79 1073.71 1303.53 1189.39 1275.01Z" fill="url(#paint55_radial_334_1)"/>
<path fill-rule="evenodd" clip-rule="evenodd" d="M1184.17 1253.84C1288.16 1228.2 1351.66 1123.05 1326 1018.96C1300.34 914.882 1195.24 851.288 1091.25 876.923C987.263 902.558 923.762 1007.71 949.42 1111.8C975.077 1215.88 1080.18 1279.47 1184.17 1253.84ZM1189.39 1275.01C1305.06 1246.5 1375.7 1129.53 1347.15 1013.75C1318.61 897.973 1201.71 827.233 1086.03 855.748C970.359 884.263 899.723 1001.23 928.264 1117.01C956.804 1232.79 1073.71 1303.53 1189.39 1275.01Z" fill="url(#paint56_radial_334_1)"/>
</g>
<g opacity="0.4">
<path fill-rule="evenodd" clip-rule="evenodd" d="M1177.22 1225.67C1265.84 1203.82 1319.99 1114.35 1298.17 1025.83C1276.34 937.3 1186.81 883.245 1098.2 905.091C1009.58 926.936 955.43 1016.41 977.253 1104.93C999.075 1193.46 1088.6 1247.51 1177.22 1225.67ZM1181.66 1243.68C1280.24 1219.38 1340.47 1119.85 1316.2 1021.38C1291.92 922.909 1192.33 862.781 1093.76 887.081C995.182 911.381 934.949 1010.91 959.224 1109.38C983.498 1207.85 1083.09 1267.98 1181.66 1243.68Z" fill="#737373"/>
<path fill-rule="evenodd" clip-rule="evenodd" d="M1177.22 1225.67C1265.84 1203.82 1319.99 1114.35 1298.17 1025.83C1276.34 937.3 1186.81 883.245 1098.2 905.091C1009.58 926.936 955.43 1016.41 977.253 1104.93C999.075 1193.46 1088.6 1247.51 1177.22 1225.67ZM1181.66 1243.68C1280.24 1219.38 1340.47 1119.85 1316.2 1021.38C1291.92 922.909 1192.33 862.781 1093.76 887.081C995.182 911.381 934.949 1010.91 959.224 1109.38C983.498 1207.85 1083.09 1267.98 1181.66 1243.68Z" fill="url(#paint57_radial_334_1)"/>
<path fill-rule="evenodd" clip-rule="evenodd" d="M1177.22 1225.67C1265.84 1203.82 1319.99 1114.35 1298.17 1025.83C1276.34 937.3 1186.81 883.245 1098.2 905.091C1009.58 926.936 955.43 1016.41 977.253 1104.93C999.075 1193.46 1088.6 1247.51 1177.22 1225.67ZM1181.66 1243.68C1280.24 1219.38 1340.47 1119.85 1316.2 1021.38C1291.92 922.909 1192.33 862.781 1093.76 887.081C995.182 911.381 934.949 1010.91 959.224 1109.38C983.498 1207.85 1083.09 1267.98 1181.66 1243.68Z" fill="url(#paint58_radial_334_1)"/>
<path fill-rule="evenodd" clip-rule="evenodd" d="M1177.22 1225.67C1265.84 1203.82 1319.99 1114.35 1298.17 1025.83C1276.34 937.3 1186.81 883.245 1098.2 905.091C1009.58 926.936 955.43 1016.41 977.253 1104.93C999.075 1193.46 1088.6 1247.51 1177.22 1225.67ZM1181.66 1243.68C1280.24 1219.38 1340.47 1119.85 1316.2 1021.38C1291.92 922.909 1192.33 862.781 1093.76 887.081C995.182 911.381 934.949 1010.91 959.224 1109.38C983.498 1207.85 1083.09 1267.98 1181.66 1243.68Z" fill="url(#paint59_radial_334_1)"/>
<path fill-rule="evenodd" clip-rule="evenodd" d="M1177.22 1225.67C1265.84 1203.82 1319.99 1114.35 1298.17 1025.83C1276.34 937.3 1186.81 883.245 1098.2 905.091C1009.58 926.936 955.43 1016.41 977.253 1104.93C999.075 1193.46 1088.6 1247.51 1177.22 1225.67ZM1181.66 1243.68C1280.24 1219.38 1340.47 1119.85 1316.2 1021.38C1291.92 922.909 1192.33 862.781 1093.76 887.081C995.182 911.381 934.949 1010.91 959.224 1109.38C983.498 1207.85 1083.09 1267.98 1181.66 1243.68Z" fill="url(#paint60_radial_334_1)"/>
<path fill-rule="evenodd" clip-rule="evenodd" d="M1177.22 1225.67C1265.84 1203.82 1319.99 1114.35 1298.17 1025.83C1276.34 937.3 1186.81 883.245 1098.2 905.091C1009.58 926.936 955.43 1016.41 977.253 1104.93C999.075 1193.46 1088.6 1247.51 1177.22 1225.67ZM1181.66 1243.68C1280.24 1219.38 1340.47 1119.85 1316.2 1021.38C1291.92 922.909 1192.33 862.781 1093.76 887.081C995.182 911.381 934.949 1010.91 959.224 1109.38C983.498 1207.85 1083.09 1267.98 1181.66 1243.68Z" fill="url(#paint61_radial_334_1)"/>
<path fill-rule="evenodd" clip-rule="evenodd" d="M1177.22 1225.67C1265.84 1203.82 1319.99 1114.35 1298.17 1025.83C1276.34 937.3 1186.81 883.245 1098.2 905.091C1009.58 926.936 955.43 1016.41 977.253 1104.93C999.075 1193.46 1088.6 1247.51 1177.22 1225.67ZM1181.66 1243.68C1280.24 1219.38 1340.47 1119.85 1316.2 1021.38C1291.92 922.909 1192.33 862.781 1093.76 887.081C995.182 911.381 934.949 1010.91 959.224 1109.38C983.498 1207.85 1083.09 1267.98 1181.66 1243.68Z" fill="url(#paint62_radial_334_1)"/>
</g>
<g opacity="0.4">
<path fill-rule="evenodd" clip-rule="evenodd" d="M1171.27 1201.52C1246.55 1182.97 1292.56 1106.97 1274.02 1031.78C1255.49 956.586 1179.43 910.676 1104.15 929.234C1028.86 947.793 982.861 1023.79 1001.4 1098.98C1019.93 1174.17 1095.99 1220.08 1171.27 1201.52ZM1175.04 1216.82C1258.78 1196.18 1309.96 1111.64 1289.34 1028C1268.72 944.362 1184.12 893.294 1100.38 913.937C1016.63 934.581 965.462 1019.12 986.08 1102.76C1006.7 1186.4 1091.3 1237.47 1175.04 1216.82Z" fill="#737373"/>
<path fill-rule="evenodd" clip-rule="evenodd" d="M1171.27 1201.52C1246.55 1182.97 1292.56 1106.97 1274.02 1031.78C1255.49 956.586 1179.43 910.676 1104.15 929.234C1028.86 947.793 982.861 1023.79 1001.4 1098.98C1019.93 1174.17 1095.99 1220.08 1171.27 1201.52ZM1175.04 1216.82C1258.78 1196.18 1309.96 1111.64 1289.34 1028C1268.72 944.362 1184.12 893.294 1100.38 913.937C1016.63 934.581 965.462 1019.12 986.08 1102.76C1006.7 1186.4 1091.3 1237.47 1175.04 1216.82Z" fill="url(#paint63_radial_334_1)"/>
<path fill-rule="evenodd" clip-rule="evenodd" d="M1171.27 1201.52C1246.55 1182.97 1292.56 1106.97 1274.02 1031.78C1255.49 956.586 1179.43 910.676 1104.15 929.234C1028.86 947.793 982.861 1023.79 1001.4 1098.98C1019.93 1174.17 1095.99 1220.08 1171.27 1201.52ZM1175.04 1216.82C1258.78 1196.18 1309.96 1111.64 1289.34 1028C1268.72 944.362 1184.12 893.294 1100.38 913.937C1016.63 934.581 965.462 1019.12 986.08 1102.76C1006.7 1186.4 1091.3 1237.47 1175.04 1216.82Z" fill="url(#paint64_radial_334_1)"/>
<path fill-rule="evenodd" clip-rule="evenodd" d="M1171.27 1201.52C1246.55 1182.97 1292.56 1106.97 1274.02 1031.78C1255.49 956.586 1179.43 910.676 1104.15 929.234C1028.86 947.793 982.861 1023.79 1001.4 1098.98C1019.93 1174.17 1095.99 1220.08 1171.27 1201.52ZM1175.04 1216.82C1258.78 1196.18 1309.96 1111.64 1289.34 1028C1268.72 944.362 1184.12 893.294 1100.38 913.937C1016.63 934.581 965.462 1019.12 986.08 1102.76C1006.7 1186.4 1091.3 1237.47 1175.04 1216.82Z" fill="url(#paint65_radial_334_1)"/>
<path fill-rule="evenodd" clip-rule="evenodd" d="M1171.27 1201.52C1246.55 1182.97 1292.56 1106.97 1274.02 1031.78C1255.49 956.586 1179.43 910.676 1104.15 929.234C1028.86 947.793 982.861 1023.79 1001.4 1098.98C1019.93 1174.17 1095.99 1220.08 1171.27 1201.52ZM1175.04 1216.82C1258.78 1196.18 1309.96 1111.64 1289.34 1028C1268.72 944.362 1184.12 893.294 1100.38 913.937C1016.63 934.581 965.462 1019.12 986.08 1102.76C1006.7 1186.4 1091.3 1237.47 1175.04 1216.82Z" fill="url(#paint66_radial_334_1)"/>
<path fill-rule="evenodd" clip-rule="evenodd" d="M1171.27 1201.52C1246.55 1182.97 1292.56 1106.97 1274.02 1031.78C1255.49 956.586 1179.43 910.676 1104.15 929.234C1028.86 947.793 982.861 1023.79 1001.4 1098.98C1019.93 1174.17 1095.99 1220.08 1171.27 1201.52ZM1175.04 1216.82C1258.78 1196.18 1309.96 1111.64 1289.34 1028C1268.72 944.362 1184.12 893.294 1100.38 913.937C1016.63 934.581 965.462 1019.12 986.08 1102.76C1006.7 1186.4 1091.3 1237.47 1175.04 1216.82Z" fill="url(#paint67_radial_334_1)"/>
<path fill-rule="evenodd" clip-rule="evenodd" d="M1171.27 1201.52C1246.55 1182.97 1292.56 1106.97 1274.02 1031.78C1255.49 956.586 1179.43 910.676 1104.15 929.234C1028.86 947.793 982.861 1023.79 1001.4 1098.98C1019.93 1174.17 1095.99 1220.08 1171.27 1201.52ZM1175.04 1216.82C1258.78 1196.18 1309.96 1111.64 1289.34 1028C1268.72 944.362 1184.12 893.294 1100.38 913.937C1016.63 934.581 965.462 1019.12 986.08 1102.76C1006.7 1186.4 1091.3 1237.47 1175.04 1216.82Z" fill="url(#paint68_radial_334_1)"/>
</g>
<g opacity="0.4">
<path fill-rule="evenodd" clip-rule="evenodd" d="M1166.72 1183.08C1231.82 1167.03 1271.6 1101.33 1255.58 1036.32C1239.55 971.318 1173.79 931.63 1108.69 947.677C1043.6 963.725 1003.82 1029.43 1019.84 1094.44C1035.86 1159.44 1101.63 1199.13 1166.72 1183.08ZM1169.98 1196.31C1242.4 1178.46 1286.65 1105.37 1268.82 1033.06C1251 960.749 1177.85 916.602 1105.43 934.452C1033.02 952.303 988.771 1025.39 1006.6 1097.7C1024.42 1170.01 1097.57 1214.16 1169.98 1196.31Z" fill="#737373"/>
<path fill-rule="evenodd" clip-rule="evenodd" d="M1166.72 1183.08C1231.82 1167.03 1271.6 1101.33 1255.58 1036.32C1239.55 971.318 1173.79 931.63 1108.69 947.677C1043.6 963.725 1003.82 1029.43 1019.84 1094.44C1035.86 1159.44 1101.63 1199.13 1166.72 1183.08ZM1169.98 1196.31C1242.4 1178.46 1286.65 1105.37 1268.82 1033.06C1251 960.749 1177.85 916.602 1105.43 934.452C1033.02 952.303 988.771 1025.39 1006.6 1097.7C1024.42 1170.01 1097.57 1214.16 1169.98 1196.31Z" fill="url(#paint69_radial_334_1)"/>
<path fill-rule="evenodd" clip-rule="evenodd" d="M1166.72 1183.08C1231.82 1167.03 1271.6 1101.33 1255.58 1036.32C1239.55 971.318 1173.79 931.63 1108.69 947.677C1043.6 963.725 1003.82 1029.43 1019.84 1094.44C1035.86 1159.44 1101.63 1199.13 1166.72 1183.08ZM1169.98 1196.31C1242.4 1178.46 1286.65 1105.37 1268.82 1033.06C1251 960.749 1177.85 916.602 1105.43 934.452C1033.02 952.303 988.771 1025.39 1006.6 1097.7C1024.42 1170.01 1097.57 1214.16 1169.98 1196.31Z" fill="url(#paint70_radial_334_1)"/>
<path fill-rule="evenodd" clip-rule="evenodd" d="M1166.72 1183.08C1231.82 1167.03 1271.6 1101.33 1255.58 1036.32C1239.55 971.318 1173.79 931.63 1108.69 947.677C1043.6 963.725 1003.82 1029.43 1019.84 1094.44C1035.86 1159.44 1101.63 1199.13 1166.72 1183.08ZM1169.98 1196.31C1242.4 1178.46 1286.65 1105.37 1268.82 1033.06C1251 960.749 1177.85 916.602 1105.43 934.452C1033.02 952.303 988.771 1025.39 1006.6 1097.7C1024.42 1170.01 1097.57 1214.16 1169.98 1196.31Z" fill="url(#paint71_radial_334_1)"/>
<path fill-rule="evenodd" clip-rule="evenodd" d="M1166.72 1183.08C1231.82 1167.03 1271.6 1101.33 1255.58 1036.32C1239.55 971.318 1173.79 931.63 1108.69 947.677C1043.6 963.725 1003.82 1029.43 1019.84 1094.44C1035.86 1159.44 1101.63 1199.13 1166.72 1183.08ZM1169.98 1196.31C1242.4 1178.46 1286.65 1105.37 1268.82 1033.06C1251 960.749 1177.85 916.602 1105.43 934.452C1033.02 952.303 988.771 1025.39 1006.6 1097.7C1024.42 1170.01 1097.57 1214.16 1169.98 1196.31Z" fill="url(#paint72_radial_334_1)"/>
<path fill-rule="evenodd" clip-rule="evenodd" d="M1166.72 1183.08C1231.82 1167.03 1271.6 1101.33 1255.58 1036.32C1239.55 971.318 1173.79 931.63 1108.69 947.677C1043.6 963.725 1003.82 1029.43 1019.84 1094.44C1035.86 1159.44 1101.63 1199.13 1166.72 1183.08ZM1169.98 1196.31C1242.4 1178.46 1286.65 1105.37 1268.82 1033.06C1251 960.749 1177.85 916.602 1105.43 934.452C1033.02 952.303 988.771 1025.39 1006.6 1097.7C1024.42 1170.01 1097.57 1214.16 1169.98 1196.31Z" fill="url(#paint73_radial_334_1)"/>
<path fill-rule="evenodd" clip-rule="evenodd" d="M1166.72 1183.08C1231.82 1167.03 1271.6 1101.33 1255.58 1036.32C1239.55 971.318 1173.79 931.63 1108.69 947.677C1043.6 963.725 1003.82 1029.43 1019.84 1094.44C1035.86 1159.44 1101.63 1199.13 1166.72 1183.08ZM1169.98 1196.31C1242.4 1178.46 1286.65 1105.37 1268.82 1033.06C1251 960.749 1177.85 916.602 1105.43 934.452C1033.02 952.303 988.771 1025.39 1006.6 1097.7C1024.42 1170.01 1097.57 1214.16 1169.98 1196.31Z" fill="url(#paint74_radial_334_1)"/>
</g>
<g opacity="0.4">
<path fill-rule="evenodd" clip-rule="evenodd" d="M1162.84 1167.32C1219.23 1153.42 1253.7 1096.51 1239.82 1040.21C1225.94 983.908 1168.97 949.537 1112.58 963.438C1056.19 977.34 1021.72 1034.25 1035.6 1090.55C1049.48 1146.85 1106.45 1181.22 1162.84 1167.32ZM1165.66 1178.77C1228.39 1163.31 1266.73 1100.01 1251.29 1037.38C1235.85 974.754 1172.49 936.52 1109.76 951.984C1047.03 967.448 1008.69 1030.75 1024.13 1093.38C1039.57 1156.01 1102.93 1194.24 1165.66 1178.77Z" fill="#737373"/>
<path fill-rule="evenodd" clip-rule="evenodd" d="M1162.84 1167.32C1219.23 1153.42 1253.7 1096.51 1239.82 1040.21C1225.94 983.908 1168.97 949.537 1112.58 963.438C1056.19 977.34 1021.72 1034.25 1035.6 1090.55C1049.48 1146.85 1106.45 1181.22 1162.84 1167.32ZM1165.66 1178.77C1228.39 1163.31 1266.73 1100.01 1251.29 1037.38C1235.85 974.754 1172.49 936.52 1109.76 951.984C1047.03 967.448 1008.69 1030.75 1024.13 1093.38C1039.57 1156.01 1102.93 1194.24 1165.66 1178.77Z" fill="url(#paint75_radial_334_1)"/>
<path fill-rule="evenodd" clip-rule="evenodd" d="M1162.84 1167.32C1219.23 1153.42 1253.7 1096.51 1239.82 1040.21C1225.94 983.908 1168.97 949.537 1112.58 963.438C1056.19 977.34 1021.72 1034.25 1035.6 1090.55C1049.48 1146.85 1106.45 1181.22 1162.84 1167.32ZM1165.66 1178.77C1228.39 1163.31 1266.73 1100.01 1251.29 1037.38C1235.85 974.754 1172.49 936.52 1109.76 951.984C1047.03 967.448 1008.69 1030.75 1024.13 1093.38C1039.57 1156.01 1102.93 1194.24 1165.66 1178.77Z" fill="url(#paint76_radial_334_1)"/>
<path fill-rule="evenodd" clip-rule="evenodd" d="M1162.84 1167.32C1219.23 1153.42 1253.7 1096.51 1239.82 1040.21C1225.94 983.908 1168.97 949.537 1112.58 963.438C1056.19 977.34 1021.72 1034.25 1035.6 1090.55C1049.48 1146.85 1106.45 1181.22 1162.84 1167.32ZM1165.66 1178.77C1228.39 1163.31 1266.73 1100.01 1251.29 1037.38C1235.85 974.754 1172.49 936.52 1109.76 951.984C1047.03 967.448 1008.69 1030.75 1024.13 1093.38C1039.57 1156.01 1102.93 1194.24 1165.66 1178.77Z" fill="url(#paint77_radial_334_1)"/>
<path fill-rule="evenodd" clip-rule="evenodd" d="M1162.84 1167.32C1219.23 1153.42 1253.7 1096.51 1239.82 1040.21C1225.94 983.908 1168.97 949.537 1112.58 963.438C1056.19 977.34 1021.72 1034.25 1035.6 1090.55C1049.48 1146.85 1106.45 1181.22 1162.84 1167.32ZM1165.66 1178.77C1228.39 1163.31 1266.73 1100.01 1251.29 1037.38C1235.85 974.754 1172.49 936.52 1109.76 951.984C1047.03 967.448 1008.69 1030.75 1024.13 1093.38C1039.57 1156.01 1102.93 1194.24 1165.66 1178.77Z" fill="url(#paint78_radial_334_1)"/>
<path fill-rule="evenodd" clip-rule="evenodd" d="M1162.84 1167.32C1219.23 1153.42 1253.7 1096.51 1239.82 1040.21C1225.94 983.908 1168.97 949.537 1112.58 963.438C1056.19 977.34 1021.72 1034.25 1035.6 1090.55C1049.48 1146.85 1106.45 1181.22 1162.84 1167.32ZM1165.66 1178.77C1228.39 1163.31 1266.73 1100.01 1251.29 1037.38C1235.85 974.754 1172.49 936.52 1109.76 951.984C1047.03 967.448 1008.69 1030.75 1024.13 1093.38C1039.57 1156.01 1102.93 1194.24 1165.66 1178.77Z" fill="url(#paint79_radial_334_1)"/>
<path fill-rule="evenodd" clip-rule="evenodd" d="M1162.84 1167.32C1219.23 1153.42 1253.7 1096.51 1239.82 1040.21C1225.94 983.908 1168.97 949.537 1112.58 963.438C1056.19 977.34 1021.72 1034.25 1035.6 1090.55C1049.48 1146.85 1106.45 1181.22 1162.84 1167.32ZM1165.66 1178.77C1228.39 1163.31 1266.73 1100.01 1251.29 1037.38C1235.85 974.754 1172.49 936.52 1109.76 951.984C1047.03 967.448 1008.69 1030.75 1024.13 1093.38C1039.57 1156.01 1102.93 1194.24 1165.66 1178.77Z" fill="url(#paint80_radial_334_1)"/>
</g>
<g opacity="0.4">
<path fill-rule="evenodd" clip-rule="evenodd" d="M1159.43 1154.29C1208.51 1142.19 1238.48 1092.6 1226.39 1043.52C1214.29 994.441 1164.69 964.463 1115.62 976.562C1066.54 988.66 1036.56 1038.25 1048.66 1087.33C1060.76 1136.41 1110.35 1166.39 1159.43 1154.29ZM1161.89 1164.27C1216.48 1150.82 1249.83 1095.65 1236.37 1041.06C1222.91 986.466 1167.75 953.119 1113.16 966.577C1058.56 980.035 1025.22 1035.2 1038.68 1089.79C1052.13 1144.38 1107.3 1177.73 1161.89 1164.27Z" fill="#737373"/>
<path fill-rule="evenodd" clip-rule="evenodd" d="M1159.43 1154.29C1208.51 1142.19 1238.48 1092.6 1226.39 1043.52C1214.29 994.441 1164.69 964.463 1115.62 976.562C1066.54 988.66 1036.56 1038.25 1048.66 1087.33C1060.76 1136.41 1110.35 1166.39 1159.43 1154.29ZM1161.89 1164.27C1216.48 1150.82 1249.83 1095.65 1236.37 1041.06C1222.91 986.466 1167.75 953.119 1113.16 966.577C1058.56 980.035 1025.22 1035.2 1038.68 1089.79C1052.13 1144.38 1107.3 1177.73 1161.89 1164.27Z" fill="url(#paint81_radial_334_1)"/>
<path fill-rule="evenodd" clip-rule="evenodd" d="M1159.43 1154.29C1208.51 1142.19 1238.48 1092.6 1226.39 1043.52C1214.29 994.441 1164.69 964.463 1115.62 976.562C1066.54 988.66 1036.56 1038.25 1048.66 1087.33C1060.76 1136.41 1110.35 1166.39 1159.43 1154.29ZM1161.89 1164.27C1216.48 1150.82 1249.83 1095.65 1236.37 1041.06C1222.91 986.466 1167.75 953.119 1113.16 966.577C1058.56 980.035 1025.22 1035.2 1038.68 1089.79C1052.13 1144.38 1107.3 1177.73 1161.89 1164.27Z" fill="url(#paint82_radial_334_1)"/>
<path fill-rule="evenodd" clip-rule="evenodd" d="M1159.43 1154.29C1208.51 1142.19 1238.48 1092.6 1226.39 1043.52C1214.29 994.441 1164.69 964.463 1115.62 976.562C1066.54 988.66 1036.56 1038.25 1048.66 1087.33C1060.76 1136.41 1110.35 1166.39 1159.43 1154.29ZM1161.89 1164.27C1216.48 1150.82 1249.83 1095.65 1236.37 1041.06C1222.91 986.466 1167.75 953.119 1113.16 966.577C1058.56 980.035 1025.22 1035.2 1038.68 1089.79C1052.13 1144.38 1107.3 1177.73 1161.89 1164.27Z" fill="url(#paint83_radial_334_1)"/>
<path fill-rule="evenodd" clip-rule="evenodd" d="M1159.43 1154.29C1208.51 1142.19 1238.48 1092.6 1226.39 1043.52C1214.29 994.441 1164.69 964.463 1115.62 976.562C1066.54 988.66 1036.56 1038.25 1048.66 1087.33C1060.76 1136.41 1110.35 1166.39 1159.43 1154.29ZM1161.89 1164.27C1216.48 1150.82 1249.83 1095.65 1236.37 1041.06C1222.91 986.466 1167.75 953.119 1113.16 966.577C1058.56 980.035 1025.22 1035.2 1038.68 1089.79C1052.13 1144.38 1107.3 1177.73 1161.89 1164.27Z" fill="url(#paint84_radial_334_1)"/>
<path fill-rule="evenodd" clip-rule="evenodd" d="M1159.43 1154.29C1208.51 1142.19 1238.48 1092.6 1226.39 1043.52C1214.29 994.441 1164.69 964.463 1115.62 976.562C1066.54 988.66 1036.56 1038.25 1048.66 1087.33C1060.76 1136.41 1110.35 1166.39 1159.43 1154.29ZM1161.89 1164.27C1216.48 1150.82 1249.83 1095.65 1236.37 1041.06C1222.91 986.466 1167.75 953.119 1113.16 966.577C1058.56 980.035 1025.22 1035.2 1038.68 1089.79C1052.13 1144.38 1107.3 1177.73 1161.89 1164.27Z" fill="url(#paint85_radial_334_1)"/>
<path fill-rule="evenodd" clip-rule="evenodd" d="M1159.43 1154.29C1208.51 1142.19 1238.48 1092.6 1226.39 1043.52C1214.29 994.441 1164.69 964.463 1115.62 976.562C1066.54 988.66 1036.56 1038.25 1048.66 1087.33C1060.76 1136.41 1110.35 1166.39 1159.43 1154.29ZM1161.89 1164.27C1216.48 1150.82 1249.83 1095.65 1236.37 1041.06C1222.91 986.466 1167.75 953.119 1113.16 966.577C1058.56 980.035 1025.22 1035.2 1038.68 1089.79C1052.13 1144.38 1107.3 1177.73 1161.89 1164.27Z" fill="url(#paint86_radial_334_1)"/>
</g>
<g opacity="0.4">
<path fill-rule="evenodd" clip-rule="evenodd" d="M1154.06 1132.49C1191.1 1123.36 1213.72 1085.93 1204.59 1048.89C1195.46 1011.85 1158.03 989.228 1120.99 998.359C1083.95 1007.49 1061.33 1044.92 1070.46 1081.96C1079.59 1119 1117.02 1141.62 1154.06 1132.49ZM1155.91 1140.03C1197.11 1129.87 1222.28 1088.24 1212.12 1047.03C1201.97 1005.83 1160.33 980.666 1119.13 990.823C1077.93 1000.98 1052.76 1042.61 1062.92 1083.82C1073.08 1125.02 1114.71 1150.18 1155.91 1140.03Z" fill="#737373"/>
<path fill-rule="evenodd" clip-rule="evenodd" d="M1154.06 1132.49C1191.1 1123.36 1213.72 1085.93 1204.59 1048.89C1195.46 1011.85 1158.03 989.228 1120.99 998.359C1083.95 1007.49 1061.33 1044.92 1070.46 1081.96C1079.59 1119 1117.02 1141.62 1154.06 1132.49ZM1155.91 1140.03C1197.11 1129.87 1222.28 1088.24 1212.12 1047.03C1201.97 1005.83 1160.33 980.666 1119.13 990.823C1077.93 1000.98 1052.76 1042.61 1062.92 1083.82C1073.08 1125.02 1114.71 1150.18 1155.91 1140.03Z" fill="url(#paint87_radial_334_1)"/>
<path fill-rule="evenodd" clip-rule="evenodd" d="M1154.06 1132.49C1191.1 1123.36 1213.72 1085.93 1204.59 1048.89C1195.46 1011.85 1158.03 989.228 1120.99 998.359C1083.95 1007.49 1061.33 1044.92 1070.46 1081.96C1079.59 1119 1117.02 1141.62 1154.06 1132.49ZM1155.91 1140.03C1197.11 1129.87 1222.28 1088.24 1212.12 1047.03C1201.97 1005.83 1160.33 980.666 1119.13 990.823C1077.93 1000.98 1052.76 1042.61 1062.92 1083.82C1073.08 1125.02 1114.71 1150.18 1155.91 1140.03Z" fill="url(#paint88_radial_334_1)"/>
<path fill-rule="evenodd" clip-rule="evenodd" d="M1154.06 1132.49C1191.1 1123.36 1213.72 1085.93 1204.59 1048.89C1195.46 1011.85 1158.03 989.228 1120.99 998.359C1083.95 1007.49 1061.33 1044.92 1070.46 1081.96C1079.59 1119 1117.02 1141.62 1154.06 1132.49ZM1155.91 1140.03C1197.11 1129.87 1222.28 1088.24 1212.12 1047.03C1201.97 1005.83 1160.33 980.666 1119.13 990.823C1077.93 1000.98 1052.76 1042.61 1062.92 1083.82C1073.08 1125.02 1114.71 1150.18 1155.91 1140.03Z" fill="url(#paint89_radial_334_1)"/>
<path fill-rule="evenodd" clip-rule="evenodd" d="M1154.06 1132.49C1191.1 1123.36 1213.72 1085.93 1204.59 1048.89C1195.46 1011.85 1158.03 989.228 1120.99 998.359C1083.95 1007.49 1061.33 1044.92 1070.46 1081.96C1079.59 1119 1117.02 1141.62 1154.06 1132.49ZM1155.91 1140.03C1197.11 1129.87 1222.28 1088.24 1212.12 1047.03C1201.97 1005.83 1160.33 980.666 1119.13 990.823C1077.93 1000.98 1052.76 1042.61 1062.92 1083.82C1073.08 1125.02 1114.71 1150.18 1155.91 1140.03Z" fill="url(#paint90_radial_334_1)"/>
<path fill-rule="evenodd" clip-rule="evenodd" d="M1154.06 1132.49C1191.1 1123.36 1213.72 1085.93 1204.59 1048.89C1195.46 1011.85 1158.03 989.228 1120.99 998.359C1083.95 1007.49 1061.33 1044.92 1070.46 1081.96C1079.59 1119 1117.02 1141.62 1154.06 1132.49ZM1155.91 1140.03C1197.11 1129.87 1222.28 1088.24 1212.12 1047.03C1201.97 1005.83 1160.33 980.666 1119.13 990.823C1077.93 1000.98 1052.76 1042.61 1062.92 1083.82C1073.08 1125.02 1114.71 1150.18 1155.91 1140.03Z" fill="url(#paint91_radial_334_1)"/>
<path fill-rule="evenodd" clip-rule="evenodd" d="M1154.06 1132.49C1191.1 1123.36 1213.72 1085.93 1204.59 1048.89C1195.46 1011.85 1158.03 989.228 1120.99 998.359C1083.95 1007.49 1061.33 1044.92 1070.46 1081.96C1079.59 1119 1117.02 1141.62 1154.06 1132.49ZM1155.91 1140.03C1197.11 1129.87 1222.28 1088.24 1212.12 1047.03C1201.97 1005.83 1160.33 980.666 1119.13 990.823C1077.93 1000.98 1052.76 1042.61 1062.92 1083.82C1073.08 1125.02 1114.71 1150.18 1155.91 1140.03Z" fill="url(#paint92_radial_334_1)"/>
</g>
<g opacity="0.4">
<path fill-rule="evenodd" clip-rule="evenodd" d="M1147.71 1105.95C1170.21 1100.41 1183.98 1077.75 1178.45 1055.34C1172.93 1032.93 1150.21 1019.26 1127.71 1024.8C1105.21 1030.35 1091.44 1053.01 1096.97 1075.42C1102.49 1097.83 1125.21 1111.5 1147.71 1105.95ZM1148.84 1110.51C1173.87 1104.34 1189.18 1079.13 1183.03 1054.21C1176.89 1029.28 1151.61 1014.08 1126.58 1020.25C1101.55 1026.42 1086.24 1051.62 1092.39 1076.55C1098.53 1101.48 1123.81 1116.68 1148.84 1110.51Z" fill="#737373"/>
<path fill-rule="evenodd" clip-rule="evenodd" d="M1147.71 1105.95C1170.21 1100.41 1183.98 1077.75 1178.45 1055.34C1172.93 1032.93 1150.21 1019.26 1127.71 1024.8C1105.21 1030.35 1091.44 1053.01 1096.97 1075.42C1102.49 1097.83 1125.21 1111.5 1147.71 1105.95ZM1148.84 1110.51C1173.87 1104.34 1189.18 1079.13 1183.03 1054.21C1176.89 1029.28 1151.61 1014.08 1126.58 1020.25C1101.55 1026.42 1086.24 1051.62 1092.39 1076.55C1098.53 1101.48 1123.81 1116.68 1148.84 1110.51Z" fill="url(#paint93_radial_334_1)"/>
<path fill-rule="evenodd" clip-rule="evenodd" d="M1147.71 1105.95C1170.21 1100.41 1183.98 1077.75 1178.45 1055.34C1172.93 1032.93 1150.21 1019.26 1127.71 1024.8C1105.21 1030.35 1091.44 1053.01 1096.97 1075.42C1102.49 1097.83 1125.21 1111.5 1147.71 1105.95ZM1148.84 1110.51C1173.87 1104.34 1189.18 1079.13 1183.03 1054.21C1176.89 1029.28 1151.61 1014.08 1126.58 1020.25C1101.55 1026.42 1086.24 1051.62 1092.39 1076.55C1098.53 1101.48 1123.81 1116.68 1148.84 1110.51Z" fill="url(#paint94_radial_334_1)"/>
<path fill-rule="evenodd" clip-rule="evenodd" d="M1147.71 1105.95C1170.21 1100.41 1183.98 1077.75 1178.45 1055.34C1172.93 1032.93 1150.21 1019.26 1127.71 1024.8C1105.21 1030.35 1091.44 1053.01 1096.97 1075.42C1102.49 1097.83 1125.21 1111.5 1147.71 1105.95ZM1148.84 1110.51C1173.87 1104.34 1189.18 1079.13 1183.03 1054.21C1176.89 1029.28 1151.61 1014.08 1126.58 1020.25C1101.55 1026.42 1086.24 1051.62 1092.39 1076.55C1098.53 1101.48 1123.81 1116.68 1148.84 1110.51Z" fill="url(#paint95_radial_334_1)"/>
<path fill-rule="evenodd" clip-rule="evenodd" d="M1147.71 1105.95C1170.21 1100.41 1183.98 1077.75 1178.45 1055.34C1172.93 1032.93 1150.21 1019.26 1127.71 1024.8C1105.21 1030.35 1091.44 1053.01 1096.97 1075.42C1102.49 1097.83 1125.21 1111.5 1147.71 1105.95ZM1148.84 1110.51C1173.87 1104.34 1189.18 1079.13 1183.03 1054.21C1176.89 1029.28 1151.61 1014.08 1126.58 1020.25C1101.55 1026.42 1086.24 1051.62 1092.39 1076.55C1098.53 1101.48 1123.81 1116.68 1148.84 1110.51Z" fill="url(#paint96_radial_334_1)"/>
<path fill-rule="evenodd" clip-rule="evenodd" d="M1147.71 1105.95C1170.21 1100.41 1183.98 1077.75 1178.45 1055.34C1172.93 1032.93 1150.21 1019.26 1127.71 1024.8C1105.21 1030.35 1091.44 1053.01 1096.97 1075.42C1102.49 1097.83 1125.21 1111.5 1147.71 1105.95ZM1148.84 1110.51C1173.87 1104.34 1189.18 1079.13 1183.03 1054.21C1176.89 1029.28 1151.61 1014.08 1126.58 1020.25C1101.55 1026.42 1086.24 1051.62 1092.39 1076.55C1098.53 1101.48 1123.81 1116.68 1148.84 1110.51Z" fill="url(#paint97_radial_334_1)"/>
<path fill-rule="evenodd" clip-rule="evenodd" d="M1147.71 1105.95C1170.21 1100.41 1183.98 1077.75 1178.45 1055.34C1172.93 1032.93 1150.21 1019.26 1127.71 1024.8C1105.21 1030.35 1091.44 1053.01 1096.97 1075.42C1102.49 1097.83 1125.21 1111.5 1147.71 1105.95ZM1148.84 1110.51C1173.87 1104.34 1189.18 1079.13 1183.03 1054.21C1176.89 1029.28 1151.61 1014.08 1126.58 1020.25C1101.55 1026.42 1086.24 1051.62 1092.39 1076.55C1098.53 1101.48 1123.81 1116.68 1148.84 1110.51Z" fill="url(#paint98_radial_334_1)"/>
</g>
<defs>
<radialGradient id="paint0_radial_334_1" cx="0" cy="0" r="1" gradientUnits="userSpaceOnUse" gradientTransform="translate(564.181 998.735) rotate(-32.8436) scale(341.699 863.762)">
<stop stop-color="#24FF00"/>
<stop offset="0.0001" stop-color="#24FF00"/>
<stop offset="0.0885417" stop-color="#24FF00" stop-opacity="0.890787"/>
<stop offset="0.317708" stop-color="#24FF00" stop-opacity="0.369829"/>
<stop offset="0.619792" stop-color="#24FF00" stop-opacity="0.197724"/>
<stop offset="1" stop-color="#24FF00" stop-opacity="0"/>
</radialGradient>
<radialGradient id="paint1_radial_334_1" cx="0" cy="0" r="1" gradientUnits="userSpaceOnUse" gradientTransform="translate(615.509 827.881) rotate(42.4036) scale(157.451 360.29)">
<stop stop-color="#00F0FF"/>
<stop offset="1" stop-color="#00F0FF" stop-opacity="0"/>
</radialGradient>
<radialGradient id="paint2_radial_334_1" cx="0" cy="0" r="1" gradientUnits="userSpaceOnUse" gradientTransform="translate(1026.75 801.502) rotate(160.981) scale(485.816 1148.39)">
<stop stop-color="#0057FF"/>
<stop offset="1" stop-color="#0029FF" stop-opacity="0"/>
</radialGradient>
<radialGradient id="paint3_radial_334_1" cx="0" cy="0" r="1" gradientUnits="userSpaceOnUse" gradientTransform="translate(1009.65 494.217) rotate(118.555) scale(308.462 910.61)">
<stop stop-color="#24FF00"/>
<stop offset="0.0001" stop-color="#24FF00"/>
<stop offset="0.374062" stop-color="#24FF00" stop-opacity="0.369829"/>
<stop offset="0.621741" stop-color="#24FF00" stop-opacity="0.197724"/>
<stop offset="1" stop-color="#24FF00" stop-opacity="0"/>
</radialGradient>
<radialGradient id="paint4_radial_334_1" cx="0" cy="0" r="1" gradientUnits="userSpaceOnUse" gradientTransform="translate(602.187 736.442) rotate(-66.0849) scale(82.9161 110.832)">
<stop stop-color="#13D3F7"/>
<stop offset="0.71666" stop-color="white" stop-opacity="0"/>
<stop offset="1" stop-color="#13D3F7" stop-opacity="0"/>
</radialGradient>
<radialGradient id="paint5_radial_334_1" cx="0" cy="0" r="1" gradientUnits="userSpaceOnUse" gradientTransform="translate(584.174 956.255) rotate(-32.8585) scale(292.501 739.928)">
<stop stop-color="#24FF00"/>
<stop offset="0.0001" stop-color="#24FF00"/>
<stop offset="0.0885417" stop-color="#24FF00" stop-opacity="0.890787"/>
<stop offset="0.317708" stop-color="#24FF00" stop-opacity="0.369829"/>
<stop offset="0.619792" stop-color="#24FF00" stop-opacity="0.197724"/>
<stop offset="1" stop-color="#24FF00" stop-opacity="0"/>
</radialGradient>
<radialGradient id="paint6_radial_334_1" cx="0" cy="0" r="1" gradientUnits="userSpaceOnUse" gradientTransform="translate(628.077 809.9) rotate(42.4268) scale(134.854 308.469)">
<stop stop-color="#00F0FF"/>
<stop offset="1" stop-color="#00F0FF" stop-opacity="0"/>
</radialGradient>
<radialGradient id="paint7_radial_334_1" cx="0" cy="0" r="1" gradientUnits="userSpaceOnUse" gradientTransform="translate(980.09 787.38) rotate(160.978) scale(415.834 983.83)">
<stop stop-color="#0057FF"/>
<stop offset="1" stop-color="#0029FF" stop-opacity="0"/>
</radialGradient>
<radialGradient id="paint8_radial_334_1" cx="0" cy="0" r="1" gradientUnits="userSpaceOnUse" gradientTransform="translate(965.402 524.14) rotate(118.529) scale(264.15 779.76)">
<stop stop-color="#24FF00"/>
<stop offset="0.0001" stop-color="#24FF00"/>
<stop offset="0.374062" stop-color="#24FF00" stop-opacity="0.369829"/>
<stop offset="0.621741" stop-color="#24FF00" stop-opacity="0.197724"/>
<stop offset="1" stop-color="#24FF00" stop-opacity="0"/>
</radialGradient>
<radialGradient id="paint9_radial_334_1" cx="0" cy="0" r="1" gradientUnits="userSpaceOnUse" gradientTransform="translate(616.657 731.566) rotate(-66.1098) scale(71.01 94.8994)">
<stop stop-color="#13D3F7"/>
<stop offset="0.71666" stop-color="white" stop-opacity="0"/>
<stop offset="1" stop-color="#13D3F7" stop-opacity="0"/>
</radialGradient>
<radialGradient id="paint10_radial_334_1" cx="0" cy="0" r="1" gradientUnits="userSpaceOnUse" gradientTransform="translate(601.516 918.596) rotate(-32.826) scale(249.218 629.45)">
<stop stop-color="#24FF00"/>
<stop offset="0.0001" stop-color="#24FF00"/>
<stop offset="0.0885417" stop-color="#24FF00" stop-opacity="0.890787"/>
<stop offset="0.317708" stop-color="#24FF00" stop-opacity="0.369829"/>
<stop offset="0.619792" stop-color="#24FF00" stop-opacity="0.197724"/>
<stop offset="1" stop-color="#24FF00" stop-opacity="0"/>
</radialGradient>
<radialGradient id="paint11_radial_334_1" cx="0" cy="0" r="1" gradientUnits="userSpaceOnUse" gradientTransform="translate(638.985 794.083) rotate(42.3763) scale(114.763 262.723)">
<stop stop-color="#00F0FF"/>
<stop offset="1" stop-color="#00F0FF" stop-opacity="0"/>
</radialGradient>
<radialGradient id="paint12_radial_334_1" cx="0" cy="0" r="1" gradientUnits="userSpaceOnUse" gradientTransform="translate(938.934 774.783) rotate(160.986) scale(354.362 836.79)">
<stop stop-color="#0057FF"/>
<stop offset="1" stop-color="#0029FF" stop-opacity="0"/>
</radialGradient>
<radialGradient id="paint13_radial_334_1" cx="0" cy="0" r="1" gradientUnits="userSpaceOnUse" gradientTransform="translate(926.527 550.865) rotate(118.585) scale(224.874 663.89)">
<stop stop-color="#24FF00"/>
<stop offset="0.0001" stop-color="#24FF00"/>
<stop offset="0.374062" stop-color="#24FF00" stop-opacity="0.369829"/>
<stop offset="0.621741" stop-color="#24FF00" stop-opacity="0.197724"/>
<stop offset="1" stop-color="#24FF00" stop-opacity="0"/>
</radialGradient>
<radialGradient id="paint14_radial_334_1" cx="0" cy="0" r="1" gradientUnits="userSpaceOnUse" gradientTransform="translate(629.285 727.454) rotate(-66.0557) scale(60.4423 80.8102)">
<stop stop-color="#13D3F7"/>
<stop offset="0.71666" stop-color="white" stop-opacity="0"/>
<stop offset="1" stop-color="#13D3F7" stop-opacity="0"/>
</radialGradient>
<radialGradient id="paint15_radial_334_1" cx="0" cy="0" r="1" gradientUnits="userSpaceOnUse" gradientTransform="translate(616.644 886.248) rotate(-32.8228) scale(211.714 534.647)">
<stop stop-color="#24FF00"/>
<stop offset="0.0001" stop-color="#24FF00"/>
<stop offset="0.0885417" stop-color="#24FF00" stop-opacity="0.890787"/>
<stop offset="0.317708" stop-color="#24FF00" stop-opacity="0.369829"/>
<stop offset="0.619792" stop-color="#24FF00" stop-opacity="0.197724"/>
<stop offset="1" stop-color="#24FF00" stop-opacity="0"/>
</radialGradient>
<radialGradient id="paint16_radial_334_1" cx="0" cy="0" r="1" gradientUnits="userSpaceOnUse" gradientTransform="translate(648.48 780.488) rotate(42.3715) scale(97.4818 223.179)">
<stop stop-color="#00F0FF"/>
<stop offset="1" stop-color="#00F0FF" stop-opacity="0"/>
</radialGradient>
<radialGradient id="paint17_radial_334_1" cx="0" cy="0" r="1" gradientUnits="userSpaceOnUse" gradientTransform="translate(903.293 764.083) rotate(160.987) scale(301.041 710.747)">
<stop stop-color="#0057FF"/>
<stop offset="1" stop-color="#0029FF" stop-opacity="0"/>
</radialGradient>
<radialGradient id="paint18_radial_334_1" cx="0" cy="0" r="1" gradientUnits="userSpaceOnUse" gradientTransform="translate(892.762 573.892) rotate(118.59) scale(191.019 563.945)">
<stop stop-color="#24FF00"/>
<stop offset="0.0001" stop-color="#24FF00"/>
<stop offset="0.374062" stop-color="#24FF00" stop-opacity="0.369829"/>
<stop offset="0.621741" stop-color="#24FF00" stop-opacity="0.197724"/>
<stop offset="1" stop-color="#24FF00" stop-opacity="0"/>
</radialGradient>
<radialGradient id="paint19_radial_334_1" cx="0" cy="0" r="1" gradientUnits="userSpaceOnUse" gradientTransform="translate(640.242 723.894) rotate(-66.0505) scale(51.3417 68.6457)">
<stop stop-color="#13D3F7"/>
<stop offset="0.71666" stop-color="white" stop-opacity="0"/>
<stop offset="1" stop-color="#13D3F7" stop-opacity="0"/>
</radialGradient>
<radialGradient id="paint20_radial_334_1" cx="0" cy="0" r="1" gradientUnits="userSpaceOnUse" gradientTransform="translate(628.201 861.538) rotate(-32.8196) scale(183.066 462.228)">
<stop stop-color="#24FF00"/>
<stop offset="0.0001" stop-color="#24FF00"/>
<stop offset="0.0885417" stop-color="#24FF00" stop-opacity="0.890787"/>
<stop offset="0.317708" stop-color="#24FF00" stop-opacity="0.369829"/>
<stop offset="0.619792" stop-color="#24FF00" stop-opacity="0.197724"/>
<stop offset="1" stop-color="#24FF00" stop-opacity="0"/>
</radialGradient>
<radialGradient id="paint21_radial_334_1" cx="0" cy="0" r="1" gradientUnits="userSpaceOnUse" gradientTransform="translate(655.733 770.102) rotate(42.3665) scale(84.2809 192.971)">
<stop stop-color="#00F0FF"/>
<stop offset="1" stop-color="#00F0FF" stop-opacity="0"/>
</radialGradient>
<radialGradient id="paint22_radial_334_1" cx="0" cy="0" r="1" gradientUnits="userSpaceOnUse" gradientTransform="translate(876.068 755.909) rotate(160.987) scale(260.31 614.464)">
<stop stop-color="#0057FF"/>
<stop offset="1" stop-color="#0029FF" stop-opacity="0"/>
</radialGradient>
<radialGradient id="paint23_radial_334_1" cx="0" cy="0" r="1" gradientUnits="userSpaceOnUse" gradientTransform="translate(866.969 591.48) rotate(118.596) scale(165.157 487.598)">
<stop stop-color="#24FF00"/>
<stop offset="0.0001" stop-color="#24FF00"/>
<stop offset="0.374062" stop-color="#24FF00" stop-opacity="0.369829"/>
<stop offset="0.621741" stop-color="#24FF00" stop-opacity="0.197724"/>
<stop offset="1" stop-color="#24FF00" stop-opacity="0"/>
</radialGradient>
<radialGradient id="paint24_radial_334_1" cx="0" cy="0" r="1" gradientUnits="userSpaceOnUse" gradientTransform="translate(648.612 721.175) rotate(-66.0451) scale(44.3899 59.3533)">
<stop stop-color="#13D3F7"/>
<stop offset="0.71666" stop-color="white" stop-opacity="0"/>
<stop offset="1" stop-color="#13D3F7" stop-opacity="0"/>
</radialGradient>
<radialGradient id="paint25_radial_334_1" cx="0" cy="0" r="1" gradientUnits="userSpaceOnUse" gradientTransform="translate(638.077 840.422) rotate(-32.8159) scale(158.584 400.343)">
<stop stop-color="#24FF00"/>
<stop offset="0.0001" stop-color="#24FF00"/>
<stop offset="0.0885417" stop-color="#24FF00" stop-opacity="0.890787"/>
<stop offset="0.317708" stop-color="#24FF00" stop-opacity="0.369829"/>
<stop offset="0.619792" stop-color="#24FF00" stop-opacity="0.197724"/>
<stop offset="1" stop-color="#24FF00" stop-opacity="0"/>
</radialGradient>
<radialGradient id="paint26_radial_334_1" cx="0" cy="0" r="1" gradientUnits="userSpaceOnUse" gradientTransform="translate(661.931 761.227) rotate(42.3607) scale(73.0001 167.158)">
<stop stop-color="#00F0FF"/>
<stop offset="1" stop-color="#00F0FF" stop-opacity="0"/>
</radialGradient>
<radialGradient id="paint27_radial_334_1" cx="0" cy="0" r="1" gradientUnits="userSpaceOnUse" gradientTransform="translate(852.803 748.924) rotate(160.988) scale(225.503 532.186)">
<stop stop-color="#0057FF"/>
<stop offset="1" stop-color="#0029FF" stop-opacity="0"/>
</radialGradient>
<radialGradient id="paint28_radial_334_1" cx="0" cy="0" r="1" gradientUnits="userSpaceOnUse" gradientTransform="translate(844.928 606.512) rotate(118.602) scale(143.057 422.356)">
<stop stop-color="#24FF00"/>
<stop offset="0.0001" stop-color="#24FF00"/>
<stop offset="0.374062" stop-color="#24FF00" stop-opacity="0.369829"/>
<stop offset="0.621741" stop-color="#24FF00" stop-opacity="0.197724"/>
<stop offset="1" stop-color="#24FF00" stop-opacity="0"/>
</radialGradient>
<radialGradient id="paint29_radial_334_1" cx="0" cy="0" r="1" gradientUnits="userSpaceOnUse" gradientTransform="translate(655.765 718.851) rotate(-66.0389) scale(38.4493 51.4126)">
<stop stop-color="#13D3F7"/>
<stop offset="0.71666" stop-color="white" stop-opacity="0"/>
<stop offset="1" stop-color="#13D3F7" stop-opacity="0"/>
</radialGradient>
<radialGradient id="paint30_radial_334_1" cx="0" cy="0" r="1" gradientUnits="userSpaceOnUse" gradientTransform="translate(646.338 823.068) rotate(-32.8436) scale(138.034 348.928)">
<stop stop-color="#24FF00"/>
<stop offset="0.0001" stop-color="#24FF00"/>
<stop offset="0.0885417" stop-color="#24FF00" stop-opacity="0.890787"/>
<stop offset="0.317708" stop-color="#24FF00" stop-opacity="0.369829"/>
<stop offset="0.619792" stop-color="#24FF00" stop-opacity="0.197724"/>
<stop offset="1" stop-color="#24FF00" stop-opacity="0"/>
</radialGradient>
<radialGradient id="paint31_radial_334_1" cx="0" cy="0" r="1" gradientUnits="userSpaceOnUse" gradientTransform="translate(667.072 754.049) rotate(42.4036) scale(63.6043 145.544)">
<stop stop-color="#00F0FF"/>
<stop offset="1" stop-color="#00F0FF" stop-opacity="0"/>
</radialGradient>
<radialGradient id="paint32_radial_334_1" cx="0" cy="0" r="1" gradientUnits="userSpaceOnUse" gradientTransform="translate(833.197 743.392) rotate(160.981) scale(196.252 463.908)">
<stop stop-color="#0057FF"/>
<stop offset="1" stop-color="#0029FF" stop-opacity="0"/>
</radialGradient>
<radialGradient id="paint33_radial_334_1" cx="0" cy="0" r="1" gradientUnits="userSpaceOnUse" gradientTransform="translate(826.293 619.261) rotate(118.555) scale(124.607 367.853)">
<stop stop-color="#24FF00"/>
<stop offset="0.0001" stop-color="#24FF00"/>
<stop offset="0.374062" stop-color="#24FF00" stop-opacity="0.369829"/>
<stop offset="0.621741" stop-color="#24FF00" stop-opacity="0.197724"/>
<stop offset="1" stop-color="#24FF00" stop-opacity="0"/>
</radialGradient>
<radialGradient id="paint34_radial_334_1" cx="0" cy="0" r="1" gradientUnits="userSpaceOnUse" gradientTransform="translate(661.691 717.111) rotate(-66.0849) scale(33.4951 44.7722)">
<stop stop-color="#13D3F7"/>
<stop offset="0.71666" stop-color="white" stop-opacity="0"/>
<stop offset="1" stop-color="#13D3F7" stop-opacity="0"/>
</radialGradient>
<radialGradient id="paint35_radial_334_1" cx="0" cy="0" r="1" gradientUnits="userSpaceOnUse" gradientTransform="translate(659.995 793.864) rotate(-32.8436) scale(104.177 263.342)">
<stop stop-color="#24FF00"/>
<stop offset="0.0001" stop-color="#24FF00"/>
<stop offset="0.0885417" stop-color="#24FF00" stop-opacity="0.890787"/>
<stop offset="0.317708" stop-color="#24FF00" stop-opacity="0.369829"/>
<stop offset="0.619792" stop-color="#24FF00" stop-opacity="0.197724"/>
<stop offset="1" stop-color="#24FF00" stop-opacity="0"/>
</radialGradient>
<radialGradient id="paint36_radial_334_1" cx="0" cy="0" r="1" gradientUnits="userSpaceOnUse" gradientTransform="translate(675.644 741.775) rotate(42.4036) scale(48.0033 109.845)">
<stop stop-color="#00F0FF"/>
<stop offset="1" stop-color="#00F0FF" stop-opacity="0"/>
</radialGradient>
<radialGradient id="paint37_radial_334_1" cx="0" cy="0" r="1" gradientUnits="userSpaceOnUse" gradientTransform="translate(801.021 733.732) rotate(160.981) scale(148.115 350.119)">
<stop stop-color="#0057FF"/>
<stop offset="1" stop-color="#0029FF" stop-opacity="0"/>
</radialGradient>
<radialGradient id="paint38_radial_334_1" cx="0" cy="0" r="1" gradientUnits="userSpaceOnUse" gradientTransform="translate(795.81 640.048) rotate(118.555) scale(94.0432 277.625)">
<stop stop-color="#24FF00"/>
<stop offset="0.0001" stop-color="#24FF00"/>
<stop offset="0.374062" stop-color="#24FF00" stop-opacity="0.369829"/>
<stop offset="0.621741" stop-color="#24FF00" stop-opacity="0.197724"/>
<stop offset="1" stop-color="#24FF00" stop-opacity="0"/>
</radialGradient>
<radialGradient id="paint39_radial_334_1" cx="0" cy="0" r="1" gradientUnits="userSpaceOnUse" gradientTransform="translate(671.582 713.897) rotate(-66.0849) scale(25.2793 33.7903)">
<stop stop-color="#13D3F7"/>
<stop offset="0.71666" stop-color="white" stop-opacity="0"/>
<stop offset="1" stop-color="#13D3F7" stop-opacity="0"/>
</radialGradient>
<radialGradient id="paint40_radial_334_1" cx="0" cy="0" r="1" gradientUnits="userSpaceOnUse" gradientTransform="translate(676.528 758.204) rotate(-32.7742) scale(63.2625 159.384)">
<stop stop-color="#24FF00"/>
<stop offset="0.0001" stop-color="#24FF00"/>
<stop offset="0.0885417" stop-color="#24FF00" stop-opacity="0.890787"/>
<stop offset="0.317708" stop-color="#24FF00" stop-opacity="0.369829"/>
<stop offset="0.619792" stop-color="#24FF00" stop-opacity="0.197724"/>
<stop offset="1" stop-color="#24FF00" stop-opacity="0"/>
</radialGradient>
<radialGradient id="paint41_radial_334_1" cx="0" cy="0" r="1" gradientUnits="userSpaceOnUse" gradientTransform="translate(686.064 726.672) rotate(42.296) scale(29.0771 66.6498)">
<stop stop-color="#00F0FF"/>
<stop offset="1" stop-color="#00F0FF" stop-opacity="0"/>
</radialGradient>
<radialGradient id="paint42_radial_334_1" cx="0" cy="0" r="1" gradientUnits="userSpaceOnUse" gradientTransform="translate(762.215 721.727) rotate(160.999) scale(89.9777 211.827)">
<stop stop-color="#0057FF"/>
<stop offset="1" stop-color="#0029FF" stop-opacity="0"/>
</radialGradient>
<radialGradient id="paint43_radial_334_1" cx="0" cy="0" r="1" gradientUnits="userSpaceOnUse" gradientTransform="translate(759.109 665.036) rotate(118.673) scale(57.0072 168.328)">
<stop stop-color="#24FF00"/>
<stop offset="0.0001" stop-color="#24FF00"/>
<stop offset="0.374062" stop-color="#24FF00" stop-opacity="0.369829"/>
<stop offset="0.621741" stop-color="#24FF00" stop-opacity="0.197724"/>
<stop offset="1" stop-color="#24FF00" stop-opacity="0"/>
</radialGradient>
<radialGradient id="paint44_radial_334_1" cx="0" cy="0" r="1" gradientUnits="userSpaceOnUse" gradientTransform="translate(683.615 709.804) rotate(-65.9695) scale(15.3188 20.4944)">
<stop stop-color="#13D3F7"/>
<stop offset="0.71666" stop-color="white" stop-opacity="0"/>
<stop offset="1" stop-color="#13D3F7" stop-opacity="0"/>
</radialGradient>
<radialGradient id="paint45_radial_334_1" cx="0" cy="0" r="1" gradientUnits="userSpaceOnUse" gradientTransform="translate(1259.33 816.386) rotate(148.156) scale(291.152 735.986)">
<stop stop-color="#24FF00"/>
<stop offset="0.0001" stop-color="#24FF00"/>
<stop offset="0.0885417" stop-color="#24FF00" stop-opacity="0.890787"/>
<stop offset="0.317708" stop-color="#24FF00" stop-opacity="0.369829"/>
<stop offset="0.619792" stop-color="#24FF00" stop-opacity="0.197724"/>
<stop offset="1" stop-color="#24FF00" stop-opacity="0"/>
</radialGradient>
<radialGradient id="paint46_radial_334_1" cx="0" cy="0" r="1" gradientUnits="userSpaceOnUse" gradientTransform="translate(1213.07 961.181) rotate(-136.596) scale(134.159 306.992)">
<stop stop-color="#00F0FF"/>
<stop offset="1" stop-color="#00F0FF" stop-opacity="0"/>
</radialGradient>
<radialGradient id="paint47_radial_334_1" cx="0" cy="0" r="1" gradientUnits="userSpaceOnUse" gradientTransform="translate(862.324 977.539) rotate(-18.0186) scale(413.949 978.51)">
<stop stop-color="#0057FF"/>
<stop offset="1" stop-color="#0029FF" stop-opacity="0"/>
</radialGradient>
<radialGradient id="paint48_radial_334_1" cx="0" cy="0" r="1" gradientUnits="userSpaceOnUse" gradientTransform="translate(872.315 1239.58) rotate(-60.4452) scale(262.831 775.903)">
<stop stop-color="#24FF00"/>
<stop offset="0.0001" stop-color="#24FF00"/>
<stop offset="0.374062" stop-color="#24FF00" stop-opacity="0.369829"/>
<stop offset="0.621741" stop-color="#24FF00" stop-opacity="0.197724"/>
<stop offset="1" stop-color="#24FF00" stop-opacity="0"/>
</radialGradient>
<radialGradient id="paint49_radial_334_1" cx="0" cy="0" r="1" gradientUnits="userSpaceOnUse" gradientTransform="translate(1223.06 1039.28) rotate(114.915) scale(70.6503 94.4368)">
<stop stop-color="#13D3F7"/>
<stop offset="0.71666" stop-color="white" stop-opacity="0"/>
<stop offset="1" stop-color="#13D3F7" stop-opacity="0"/>
</radialGradient>
<radialGradient id="paint50_radial_334_1" cx="0" cy="0" r="1" gradientUnits="userSpaceOnUse" gradientTransform="translate(1208.66 1148.67) rotate(177.066) scale(162.731 155.69)">
<stop stop-color="#2EA6A0"/>
<stop offset="1" stop-color="#302EA6" stop-opacity="0"/>
</radialGradient>
<radialGradient id="paint51_radial_334_1" cx="0" cy="0" r="1" gradientUnits="userSpaceOnUse" gradientTransform="translate(1241.93 852.058) rotate(148.141) scale(249.231 630.471)">
<stop stop-color="#24FF00"/>
<stop offset="0.0001" stop-color="#24FF00"/>
<stop offset="0.0885417" stop-color="#24FF00" stop-opacity="0.890787"/>
<stop offset="0.317708" stop-color="#24FF00" stop-opacity="0.369829"/>
<stop offset="0.619792" stop-color="#24FF00" stop-opacity="0.197724"/>
<stop offset="1" stop-color="#24FF00" stop-opacity="0"/>
</radialGradient>
<radialGradient id="paint52_radial_334_1" cx="0" cy="0" r="1" gradientUnits="userSpaceOnUse" gradientTransform="translate(1202.36 976.091) rotate(-136.573) scale(114.905 262.837)">
<stop stop-color="#00F0FF"/>
<stop offset="1" stop-color="#00F0FF" stop-opacity="0"/>
</radialGradient>
<radialGradient id="paint53_radial_334_1" cx="0" cy="0" r="1" gradientUnits="userSpaceOnUse" gradientTransform="translate(902.127 990.042) rotate(-18.0223) scale(354.32 838.292)">
<stop stop-color="#0057FF"/>
<stop offset="1" stop-color="#0029FF" stop-opacity="0"/>
</radialGradient>
<radialGradient id="paint54_radial_334_1" cx="0" cy="0" r="1" gradientUnits="userSpaceOnUse" gradientTransform="translate(910.726 1214.53) rotate(-60.4707) scale(225.075 664.41)">
<stop stop-color="#24FF00"/>
<stop offset="0.0001" stop-color="#24FF00"/>
<stop offset="0.374062" stop-color="#24FF00" stop-opacity="0.369829"/>
<stop offset="0.621741" stop-color="#24FF00" stop-opacity="0.197724"/>
<stop offset="1" stop-color="#24FF00" stop-opacity="0"/>
</radialGradient>
<radialGradient id="paint55_radial_334_1" cx="0" cy="0" r="1" gradientUnits="userSpaceOnUse" gradientTransform="translate(1210.92 1043) rotate(114.89) scale(60.5055 80.8609)">
<stop stop-color="#13D3F7"/>
<stop offset="0.71666" stop-color="white" stop-opacity="0"/>
<stop offset="1" stop-color="#13D3F7" stop-opacity="0"/>
</radialGradient>
<radialGradient id="paint56_radial_334_1" cx="0" cy="0" r="1" gradientUnits="userSpaceOnUse" gradientTransform="translate(1198.62 1136.7) rotate(177.076) scale(139.293 133.376)">
<stop stop-color="#2EA6A0"/>
<stop offset="1" stop-color="#302EA6" stop-opacity="0"/>
</radialGradient>
<radialGradient id="paint57_radial_334_1" cx="0" cy="0" r="1" gradientUnits="userSpaceOnUse" gradientTransform="translate(1226.6 883.882) rotate(148.174) scale(212.351 536.336)">
<stop stop-color="#24FF00"/>
<stop offset="0.0001" stop-color="#24FF00"/>
<stop offset="0.0885417" stop-color="#24FF00" stop-opacity="0.890787"/>
<stop offset="0.317708" stop-color="#24FF00" stop-opacity="0.369829"/>
<stop offset="0.619792" stop-color="#24FF00" stop-opacity="0.197724"/>
<stop offset="1" stop-color="#24FF00" stop-opacity="0"/>
</radialGradient>
<radialGradient id="paint58_radial_334_1" cx="0" cy="0" r="1" gradientUnits="userSpaceOnUse" gradientTransform="translate(1192.83 989.403) rotate(-136.624) scale(97.786 223.858)">
<stop stop-color="#00F0FF"/>
<stop offset="1" stop-color="#00F0FF" stop-opacity="0"/>
</radialGradient>
<radialGradient id="paint59_radial_334_1" cx="0" cy="0" r="1" gradientUnits="userSpaceOnUse" gradientTransform="translate(937.001 1001.39) rotate(-18.0142) scale(301.942 713.003)">
<stop stop-color="#0057FF"/>
<stop offset="1" stop-color="#0029FF" stop-opacity="0"/>
</radialGradient>
<radialGradient id="paint60_radial_334_1" cx="0" cy="0" r="1" gradientUnits="userSpaceOnUse" gradientTransform="translate(944.242 1192.33) rotate(-60.4153) scale(191.609 565.681)">
<stop stop-color="#24FF00"/>
<stop offset="0.0001" stop-color="#24FF00"/>
<stop offset="0.374062" stop-color="#24FF00" stop-opacity="0.369829"/>
<stop offset="0.621741" stop-color="#24FF00" stop-opacity="0.197724"/>
<stop offset="1" stop-color="#24FF00" stop-opacity="0"/>
</radialGradient>
<radialGradient id="paint61_radial_334_1" cx="0" cy="0" r="1" gradientUnits="userSpaceOnUse" gradientTransform="translate(1200.1 1046.31) rotate(114.944) scale(51.501 68.8559)">
<stop stop-color="#13D3F7"/>
<stop offset="0.71666" stop-color="white" stop-opacity="0"/>
<stop offset="1" stop-color="#13D3F7" stop-opacity="0"/>
</radialGradient>
<radialGradient id="paint62_radial_334_1" cx="0" cy="0" r="1" gradientUnits="userSpaceOnUse" gradientTransform="translate(1189.58 1126.02) rotate(177.055) scale(118.695 113.449)">
<stop stop-color="#2EA6A0"/>
<stop offset="1" stop-color="#302EA6" stop-opacity="0"/>
</radialGradient>
<radialGradient id="paint63_radial_334_1" cx="0" cy="0" r="1" gradientUnits="userSpaceOnUse" gradientTransform="translate(1213.23 911.216) rotate(148.177) scale(180.395 455.557)">
<stop stop-color="#24FF00"/>
<stop offset="0.0001" stop-color="#24FF00"/>
<stop offset="0.0885417" stop-color="#24FF00" stop-opacity="0.890787"/>
<stop offset="0.317708" stop-color="#24FF00" stop-opacity="0.369829"/>
<stop offset="0.619792" stop-color="#24FF00" stop-opacity="0.197724"/>
<stop offset="1" stop-color="#24FF00" stop-opacity="0"/>
</radialGradient>
<radialGradient id="paint64_radial_334_1" cx="0" cy="0" r="1" gradientUnits="userSpaceOnUse" gradientTransform="translate(1184.54 1000.84) rotate(-136.629) scale(83.0613 190.164)">
<stop stop-color="#00F0FF"/>
<stop offset="1" stop-color="#00F0FF" stop-opacity="0"/>
</radialGradient>
<radialGradient id="paint65_radial_334_1" cx="0" cy="0" r="1" gradientUnits="userSpaceOnUse" gradientTransform="translate(967.206 1011.03) rotate(-18.0135) scale(256.508 605.606)">
<stop stop-color="#0057FF"/>
<stop offset="1" stop-color="#0029FF" stop-opacity="0"/>
</radialGradient>
<radialGradient id="paint66_radial_334_1" cx="0" cy="0" r="1" gradientUnits="userSpaceOnUse" gradientTransform="translate(973.35 1173.22) rotate(-60.41) scale(162.761 480.52)">
<stop stop-color="#24FF00"/>
<stop offset="0.0001" stop-color="#24FF00"/>
<stop offset="0.374062" stop-color="#24FF00" stop-opacity="0.369829"/>
<stop offset="0.621741" stop-color="#24FF00" stop-opacity="0.197724"/>
<stop offset="1" stop-color="#24FF00" stop-opacity="0"/>
</radialGradient>
<radialGradient id="paint67_radial_334_1" cx="0" cy="0" r="1" gradientUnits="userSpaceOnUse" gradientTransform="translate(1190.71 1049.18) rotate(114.95) scale(43.7467 58.4909)">
<stop stop-color="#13D3F7"/>
<stop offset="0.71666" stop-color="white" stop-opacity="0"/>
<stop offset="1" stop-color="#13D3F7" stop-opacity="0"/>
</radialGradient>
<radialGradient id="paint68_radial_334_1" cx="0" cy="0" r="1" gradientUnits="userSpaceOnUse" gradientTransform="translate(1181.77 1116.89) rotate(177.053) scale(100.834 96.3611)">
<stop stop-color="#2EA6A0"/>
<stop offset="1" stop-color="#302EA6" stop-opacity="0"/>
</radialGradient>
<radialGradient id="paint69_radial_334_1" cx="0" cy="0" r="1" gradientUnits="userSpaceOnUse" gradientTransform="translate(1203.02 932.095) rotate(148.18) scale(155.985 393.851)">
<stop stop-color="#24FF00"/>
<stop offset="0.0001" stop-color="#24FF00"/>
<stop offset="0.0885417" stop-color="#24FF00" stop-opacity="0.890787"/>
<stop offset="0.317708" stop-color="#24FF00" stop-opacity="0.369829"/>
<stop offset="0.619792" stop-color="#24FF00" stop-opacity="0.197724"/>
<stop offset="1" stop-color="#24FF00" stop-opacity="0"/>
</radialGradient>
<radialGradient id="paint70_radial_334_1" cx="0" cy="0" r="1" gradientUnits="userSpaceOnUse" gradientTransform="translate(1178.2 1009.58) rotate(-136.634) scale(71.8132 164.425)">
<stop stop-color="#00F0FF"/>
<stop offset="1" stop-color="#00F0FF" stop-opacity="0"/>
</radialGradient>
<radialGradient id="paint71_radial_334_1" cx="0" cy="0" r="1" gradientUnits="userSpaceOnUse" gradientTransform="translate(990.279 1018.4) rotate(-18.0127) scale(221.802 523.566)">
<stop stop-color="#0057FF"/>
<stop offset="1" stop-color="#0029FF" stop-opacity="0"/>
</radialGradient>
<radialGradient id="paint72_radial_334_1" cx="0" cy="0" r="1" gradientUnits="userSpaceOnUse" gradientTransform="translate(995.586 1158.62) rotate(-60.4045) scale(140.725 415.467)">
<stop stop-color="#24FF00"/>
<stop offset="0.0001" stop-color="#24FF00"/>
<stop offset="0.374062" stop-color="#24FF00" stop-opacity="0.369829"/>
<stop offset="0.621741" stop-color="#24FF00" stop-opacity="0.197724"/>
<stop offset="1" stop-color="#24FF00" stop-opacity="0"/>
</radialGradient>
<radialGradient id="paint73_radial_334_1" cx="0" cy="0" r="1" gradientUnits="userSpaceOnUse" gradientTransform="translate(1183.54 1051.37) rotate(114.955) scale(37.8233 50.5732)">
<stop stop-color="#13D3F7"/>
<stop offset="0.71666" stop-color="white" stop-opacity="0"/>
<stop offset="1" stop-color="#13D3F7" stop-opacity="0"/>
</radialGradient>
<radialGradient id="paint74_radial_334_1" cx="0" cy="0" r="1" gradientUnits="userSpaceOnUse" gradientTransform="translate(1175.81 1109.91) rotate(177.051) scale(87.1904 83.3078)">
<stop stop-color="#2EA6A0"/>
<stop offset="1" stop-color="#302EA6" stop-opacity="0"/>
</radialGradient>
<radialGradient id="paint75_radial_334_1" cx="0" cy="0" r="1" gradientUnits="userSpaceOnUse" gradientTransform="translate(1194.29 949.938) rotate(148.184) scale(135.125 341.12)">
<stop stop-color="#24FF00"/>
<stop offset="0.0001" stop-color="#24FF00"/>
<stop offset="0.0885417" stop-color="#24FF00" stop-opacity="0.890787"/>
<stop offset="0.317708" stop-color="#24FF00" stop-opacity="0.369829"/>
<stop offset="0.619792" stop-color="#24FF00" stop-opacity="0.197724"/>
<stop offset="1" stop-color="#24FF00" stop-opacity="0"/>
</radialGradient>
<radialGradient id="paint76_radial_334_1" cx="0" cy="0" r="1" gradientUnits="userSpaceOnUse" gradientTransform="translate(1172.79 1017.05) rotate(-136.639) scale(62.2012 142.43)">
<stop stop-color="#00F0FF"/>
<stop offset="1" stop-color="#00F0FF" stop-opacity="0"/>
</radialGradient>
<radialGradient id="paint77_radial_334_1" cx="0" cy="0" r="1" gradientUnits="userSpaceOnUse" gradientTransform="translate(1010 1024.7) rotate(-18.0117) scale(192.144 453.46)">
<stop stop-color="#0057FF"/>
<stop offset="1" stop-color="#0029FF" stop-opacity="0"/>
</radialGradient>
<radialGradient id="paint78_radial_334_1" cx="0" cy="0" r="1" gradientUnits="userSpaceOnUse" gradientTransform="translate(1014.59 1146.14) rotate(-60.3982) scale(121.894 359.877)">
<stop stop-color="#24FF00"/>
<stop offset="0.0001" stop-color="#24FF00"/>
<stop offset="0.374062" stop-color="#24FF00" stop-opacity="0.369829"/>
<stop offset="0.621741" stop-color="#24FF00" stop-opacity="0.197724"/>
<stop offset="1" stop-color="#24FF00" stop-opacity="0"/>
</radialGradient>
<radialGradient id="paint79_radial_334_1" cx="0" cy="0" r="1" gradientUnits="userSpaceOnUse" gradientTransform="translate(1177.41 1053.25) rotate(114.961) scale(32.7615 43.8071)">
<stop stop-color="#13D3F7"/>
<stop offset="0.71666" stop-color="white" stop-opacity="0"/>
<stop offset="1" stop-color="#13D3F7" stop-opacity="0"/>
</radialGradient>
<radialGradient id="paint80_radial_334_1" cx="0" cy="0" r="1" gradientUnits="userSpaceOnUse" gradientTransform="translate(1170.71 1103.94) rotate(177.049) scale(75.5313 72.1532)">
<stop stop-color="#2EA6A0"/>
<stop offset="1" stop-color="#302EA6" stop-opacity="0"/>
</radialGradient>
<radialGradient id="paint81_radial_334_1" cx="0" cy="0" r="1" gradientUnits="userSpaceOnUse" gradientTransform="translate(1186.73 964.822) rotate(148.156) scale(117.615 297.311)">
<stop stop-color="#24FF00"/>
<stop offset="0.0001" stop-color="#24FF00"/>
<stop offset="0.0885417" stop-color="#24FF00" stop-opacity="0.890787"/>
<stop offset="0.317708" stop-color="#24FF00" stop-opacity="0.369829"/>
<stop offset="0.619792" stop-color="#24FF00" stop-opacity="0.197724"/>
<stop offset="1" stop-color="#24FF00" stop-opacity="0"/>
</radialGradient>
<radialGradient id="paint82_radial_334_1" cx="0" cy="0" r="1" gradientUnits="userSpaceOnUse" gradientTransform="translate(1168.04 1023.31) rotate(-136.596) scale(54.1953 124.014)">
<stop stop-color="#00F0FF"/>
<stop offset="1" stop-color="#00F0FF" stop-opacity="0"/>
</radialGradient>
<radialGradient id="paint83_radial_334_1" cx="0" cy="0" r="1" gradientUnits="userSpaceOnUse" gradientTransform="translate(1026.35 1029.92) rotate(-18.0186) scale(167.22 395.282)">
<stop stop-color="#0057FF"/>
<stop offset="1" stop-color="#0029FF" stop-opacity="0"/>
</radialGradient>
<radialGradient id="paint84_radial_334_1" cx="0" cy="0" r="1" gradientUnits="userSpaceOnUse" gradientTransform="translate(1030.39 1135.78) rotate(-60.4452) scale(106.174 313.437)">
<stop stop-color="#24FF00"/>
<stop offset="0.0001" stop-color="#24FF00"/>
<stop offset="0.374062" stop-color="#24FF00" stop-opacity="0.369829"/>
<stop offset="0.621741" stop-color="#24FF00" stop-opacity="0.197724"/>
<stop offset="1" stop-color="#24FF00" stop-opacity="0"/>
</radialGradient>
<radialGradient id="paint85_radial_334_1" cx="0" cy="0" r="1" gradientUnits="userSpaceOnUse" gradientTransform="translate(1172.08 1054.86) rotate(114.915) scale(28.5401 38.149)">
<stop stop-color="#13D3F7"/>
<stop offset="0.71666" stop-color="white" stop-opacity="0"/>
<stop offset="1" stop-color="#13D3F7" stop-opacity="0"/>
</radialGradient>
<radialGradient id="paint86_radial_334_1" cx="0" cy="0" r="1" gradientUnits="userSpaceOnUse" gradientTransform="translate(1166.26 1099.05) rotate(177.066) scale(65.7372 62.893)">
<stop stop-color="#2EA6A0"/>
<stop offset="1" stop-color="#302EA6" stop-opacity="0"/>
</radialGradient>
<radialGradient id="paint87_radial_334_1" cx="0" cy="0" r="1" gradientUnits="userSpaceOnUse" gradientTransform="translate(1174.66 989.498) rotate(148.156) scale(88.7657 224.386)">
<stop stop-color="#24FF00"/>
<stop offset="0.0001" stop-color="#24FF00"/>
<stop offset="0.0885417" stop-color="#24FF00" stop-opacity="0.890787"/>
<stop offset="0.317708" stop-color="#24FF00" stop-opacity="0.369829"/>
<stop offset="0.619792" stop-color="#24FF00" stop-opacity="0.197724"/>
<stop offset="1" stop-color="#24FF00" stop-opacity="0"/>
</radialGradient>
<radialGradient id="paint88_radial_334_1" cx="0" cy="0" r="1" gradientUnits="userSpaceOnUse" gradientTransform="translate(1160.55 1033.64) rotate(-136.596) scale(40.9021 93.5952)">
<stop stop-color="#00F0FF"/>
<stop offset="1" stop-color="#00F0FF" stop-opacity="0"/>
</radialGradient>
<radialGradient id="paint89_radial_334_1" cx="0" cy="0" r="1" gradientUnits="userSpaceOnUse" gradientTransform="translate(1053.62 1038.63) rotate(-18.0186) scale(126.204 298.326)">
<stop stop-color="#0057FF"/>
<stop offset="1" stop-color="#0029FF" stop-opacity="0"/>
</radialGradient>
<radialGradient id="paint90_radial_334_1" cx="0" cy="0" r="1" gradientUnits="userSpaceOnUse" gradientTransform="translate(1056.67 1118.52) rotate(-60.4452) scale(80.1313 236.556)">
<stop stop-color="#24FF00"/>
<stop offset="0.0001" stop-color="#24FF00"/>
<stop offset="0.374062" stop-color="#24FF00" stop-opacity="0.369829"/>
<stop offset="0.621741" stop-color="#24FF00" stop-opacity="0.197724"/>
<stop offset="1" stop-color="#24FF00" stop-opacity="0"/>
</radialGradient>
<radialGradient id="paint91_radial_334_1" cx="0" cy="0" r="1" gradientUnits="userSpaceOnUse" gradientTransform="translate(1163.6 1057.45) rotate(114.915) scale(21.5397 28.7917)">
<stop stop-color="#13D3F7"/>
<stop offset="0.71666" stop-color="white" stop-opacity="0"/>
<stop offset="1" stop-color="#13D3F7" stop-opacity="0"/>
</radialGradient>
<radialGradient id="paint92_radial_334_1" cx="0" cy="0" r="1" gradientUnits="userSpaceOnUse" gradientTransform="translate(1159.21 1090.8) rotate(177.066) scale(49.613 47.4664)">
<stop stop-color="#2EA6A0"/>
<stop offset="1" stop-color="#302EA6" stop-opacity="0"/>
</radialGradient>
<radialGradient id="paint93_radial_334_1" cx="0" cy="0" r="1" gradientUnits="userSpaceOnUse" gradientTransform="translate(1160.31 1019.41) rotate(148.226) scale(53.904 135.807)">
<stop stop-color="#24FF00"/>
<stop offset="0.0001" stop-color="#24FF00"/>
<stop offset="0.0885417" stop-color="#24FF00" stop-opacity="0.890787"/>
<stop offset="0.317708" stop-color="#24FF00" stop-opacity="0.369829"/>
<stop offset="0.619792" stop-color="#24FF00" stop-opacity="0.197724"/>
<stop offset="1" stop-color="#24FF00" stop-opacity="0"/>
</radialGradient>
<radialGradient id="paint94_radial_334_1" cx="0" cy="0" r="1" gradientUnits="userSpaceOnUse" gradientTransform="translate(1151.72 1046.13) rotate(-136.704) scale(24.7758 56.7903)">
<stop stop-color="#00F0FF"/>
<stop offset="1" stop-color="#00F0FF" stop-opacity="0"/>
</radialGradient>
<radialGradient id="paint95_radial_334_1" cx="0" cy="0" r="1" gradientUnits="userSpaceOnUse" gradientTransform="translate(1086.77 1049.21) rotate(-18.0015) scale(76.6673 180.491)">
<stop stop-color="#0057FF"/>
<stop offset="1" stop-color="#0029FF" stop-opacity="0"/>
</radialGradient>
<radialGradient id="paint96_radial_334_1" cx="0" cy="0" r="1" gradientUnits="userSpaceOnUse" gradientTransform="translate(1088.57 1097.56) rotate(-60.3272) scale(48.5741 143.428)">
<stop stop-color="#24FF00"/>
<stop offset="0.0001" stop-color="#24FF00"/>
<stop offset="0.374062" stop-color="#24FF00" stop-opacity="0.369829"/>
<stop offset="0.621741" stop-color="#24FF00" stop-opacity="0.197724"/>
<stop offset="1" stop-color="#24FF00" stop-opacity="0"/>
</radialGradient>
<radialGradient id="paint97_radial_334_1" cx="0" cy="0" r="1" gradientUnits="userSpaceOnUse" gradientTransform="translate(1153.55 1060.54) rotate(115.03) scale(13.0527 17.4626)">
<stop stop-color="#13D3F7"/>
<stop offset="0.71666" stop-color="white" stop-opacity="0"/>
<stop offset="1" stop-color="#13D3F7" stop-opacity="0"/>
</radialGradient>
<radialGradient id="paint98_radial_334_1" cx="0" cy="0" r="1" gradientUnits="userSpaceOnUse" gradientTransform="translate(1150.87 1080.72) rotate(177.022) scale(30.1355 28.7214)">
<stop stop-color="#2EA6A0"/>
<stop offset="1" stop-color="#302EA6" stop-opacity="0"/>
</radialGradient>
</defs>
</svg>
