<svg width="1007" height="1570" viewBox="0 0 1007 1570" fill="none" xmlns="http://www.w3.org/2000/svg">
<g opacity="0.1">
<path fill-rule="evenodd" clip-rule="evenodd" d="M364.515 1097.66C504.361 1052.84 581.398 903.147 536.582 763.301C491.767 623.455 342.069 546.418 202.223 591.233C62.3767 636.049 -14.6605 785.747 30.1552 925.593C74.9709 1065.44 224.669 1142.48 364.515 1097.66ZM373.632 1126.11C529.191 1076.26 614.884 909.742 565.033 754.183C515.182 598.624 348.664 512.931 193.105 562.782C37.5462 612.634 -48.147 779.151 1.70423 934.71C51.5554 1090.27 218.073 1175.96 373.632 1126.11Z" fill="url(#paint0_radial_334_21)"/>
<path fill-rule="evenodd" clip-rule="evenodd" d="M364.515 1097.66C504.361 1052.84 581.398 903.147 536.582 763.301C491.767 623.455 342.069 546.418 202.223 591.233C62.3767 636.049 -14.6605 785.747 30.1552 925.593C74.9709 1065.44 224.669 1142.48 364.515 1097.66ZM373.632 1126.11C529.191 1076.26 614.884 909.742 565.033 754.183C515.182 598.624 348.664 512.931 193.105 562.782C37.5462 612.634 -48.147 779.151 1.70423 934.71C51.5554 1090.27 218.073 1175.96 373.632 1126.11Z" fill="url(#paint1_radial_334_21)"/>
<path fill-rule="evenodd" clip-rule="evenodd" d="M364.515 1097.66C504.361 1052.84 581.398 903.147 536.582 763.301C491.767 623.455 342.069 546.418 202.223 591.233C62.3767 636.049 -14.6605 785.747 30.1552 925.593C74.9709 1065.44 224.669 1142.48 364.515 1097.66ZM373.632 1126.11C529.191 1076.26 614.884 909.742 565.033 754.183C515.182 598.624 348.664 512.931 193.105 562.782C37.5462 612.634 -48.147 779.151 1.70423 934.71C51.5554 1090.27 218.073 1175.96 373.632 1126.11Z" fill="url(#paint2_radial_334_21)"/>
<path fill-rule="evenodd" clip-rule="evenodd" d="M364.515 1097.66C504.361 1052.84 581.398 903.147 536.582 763.301C491.767 623.455 342.069 546.418 202.223 591.233C62.3767 636.049 -14.6605 785.747 30.1552 925.593C74.9709 1065.44 224.669 1142.48 364.515 1097.66ZM373.632 1126.11C529.191 1076.26 614.884 909.742 565.033 754.183C515.182 598.624 348.664 512.931 193.105 562.782C37.5462 612.634 -48.147 779.151 1.70423 934.71C51.5554 1090.27 218.073 1175.96 373.632 1126.11Z" fill="url(#paint3_radial_334_21)"/>
<path fill-rule="evenodd" clip-rule="evenodd" d="M364.515 1097.66C504.361 1052.84 581.398 903.147 536.582 763.301C491.767 623.455 342.069 546.418 202.223 591.233C62.3767 636.049 -14.6605 785.747 30.1552 925.593C74.9709 1065.44 224.669 1142.48 364.515 1097.66ZM373.632 1126.11C529.191 1076.26 614.884 909.742 565.033 754.183C515.182 598.624 348.664 512.931 193.105 562.782C37.5462 612.634 -48.147 779.151 1.70423 934.71C51.5554 1090.27 218.073 1175.96 373.632 1126.11Z" fill="url(#paint4_radial_334_21)"/>
</g>
<g opacity="0.1">
<path fill-rule="evenodd" clip-rule="evenodd" d="M352.81 1061.59C472.511 1023.23 538.423 895.01 500.029 775.203C461.635 655.395 333.474 589.369 213.774 627.729C94.0731 666.089 28.1611 794.309 66.5551 914.116C104.949 1033.92 233.11 1099.95 352.81 1061.59ZM360.621 1085.96C493.771 1043.29 567.089 900.667 524.381 767.398C481.673 634.13 339.112 560.685 205.963 603.355C72.8125 646.025 -0.505262 788.651 42.2026 921.92C84.9105 1055.19 227.471 1128.63 360.621 1085.96Z" fill="url(#paint5_radial_334_21)"/>
<path fill-rule="evenodd" clip-rule="evenodd" d="M352.81 1061.59C472.511 1023.23 538.423 895.01 500.029 775.203C461.635 655.395 333.474 589.369 213.774 627.729C94.0731 666.089 28.1611 794.309 66.5551 914.116C104.949 1033.92 233.11 1099.95 352.81 1061.59ZM360.621 1085.96C493.771 1043.29 567.089 900.667 524.381 767.398C481.673 634.13 339.112 560.685 205.963 603.355C72.8125 646.025 -0.505262 788.651 42.2026 921.92C84.9105 1055.19 227.471 1128.63 360.621 1085.96Z" fill="url(#paint6_radial_334_21)"/>
<path fill-rule="evenodd" clip-rule="evenodd" d="M352.81 1061.59C472.511 1023.23 538.423 895.01 500.029 775.203C461.635 655.395 333.474 589.369 213.774 627.729C94.0731 666.089 28.1611 794.309 66.5551 914.116C104.949 1033.92 233.11 1099.95 352.81 1061.59ZM360.621 1085.96C493.771 1043.29 567.089 900.667 524.381 767.398C481.673 634.13 339.112 560.685 205.963 603.355C72.8125 646.025 -0.505262 788.651 42.2026 921.92C84.9105 1055.19 227.471 1128.63 360.621 1085.96Z" fill="url(#paint7_radial_334_21)"/>
<path fill-rule="evenodd" clip-rule="evenodd" d="M352.81 1061.59C472.511 1023.23 538.423 895.01 500.029 775.203C461.635 655.395 333.474 589.369 213.774 627.729C94.0731 666.089 28.1611 794.309 66.5551 914.116C104.949 1033.92 233.11 1099.95 352.81 1061.59ZM360.621 1085.96C493.771 1043.29 567.089 900.667 524.381 767.398C481.673 634.13 339.112 560.685 205.963 603.355C72.8125 646.025 -0.505262 788.651 42.2026 921.92C84.9105 1055.19 227.471 1128.63 360.621 1085.96Z" fill="url(#paint8_radial_334_21)"/>
<path fill-rule="evenodd" clip-rule="evenodd" d="M352.81 1061.59C472.511 1023.23 538.423 895.01 500.029 775.203C461.635 655.395 333.474 589.369 213.774 627.729C94.0731 666.089 28.1611 794.309 66.5551 914.116C104.949 1033.92 233.11 1099.95 352.81 1061.59ZM360.621 1085.96C493.771 1043.29 567.089 900.667 524.381 767.398C481.673 634.13 339.112 560.685 205.963 603.355C72.8125 646.025 -0.505262 788.651 42.2026 921.92C84.9105 1055.19 227.471 1128.63 360.621 1085.96Z" fill="url(#paint9_radial_334_21)"/>
</g>
<g opacity="0.1">
<path fill-rule="evenodd" clip-rule="evenodd" d="M342.42 1029.17C444.426 996.476 500.646 887.369 467.991 785.469C435.336 683.569 326.171 627.463 224.164 660.153C122.158 692.842 65.9374 801.948 98.5928 903.848C131.248 1005.75 240.413 1061.85 342.42 1029.17ZM349.063 1049.9C462.531 1013.53 525.068 892.168 488.744 778.819C452.419 665.469 330.989 603.059 217.521 639.422C104.053 675.784 41.5155 797.15 77.84 910.499C114.165 1023.85 235.595 1086.26 349.063 1049.9Z" fill="url(#paint10_radial_334_21)"/>
<path fill-rule="evenodd" clip-rule="evenodd" d="M342.42 1029.17C444.426 996.476 500.646 887.369 467.991 785.469C435.336 683.569 326.171 627.463 224.164 660.153C122.158 692.842 65.9374 801.948 98.5928 903.848C131.248 1005.75 240.413 1061.85 342.42 1029.17ZM349.063 1049.9C462.531 1013.53 525.068 892.168 488.744 778.819C452.419 665.469 330.989 603.059 217.521 639.422C104.053 675.784 41.5155 797.15 77.84 910.499C114.165 1023.85 235.595 1086.26 349.063 1049.9Z" fill="url(#paint11_radial_334_21)"/>
<path fill-rule="evenodd" clip-rule="evenodd" d="M342.42 1029.17C444.426 996.476 500.646 887.369 467.991 785.469C435.336 683.569 326.171 627.463 224.164 660.153C122.158 692.842 65.9374 801.948 98.5928 903.848C131.248 1005.75 240.413 1061.85 342.42 1029.17ZM349.063 1049.9C462.531 1013.53 525.068 892.168 488.744 778.819C452.419 665.469 330.989 603.059 217.521 639.422C104.053 675.784 41.5155 797.15 77.84 910.499C114.165 1023.85 235.595 1086.26 349.063 1049.9Z" fill="url(#paint12_radial_334_21)"/>
<path fill-rule="evenodd" clip-rule="evenodd" d="M342.42 1029.17C444.426 996.476 500.646 887.369 467.991 785.469C435.336 683.569 326.171 627.463 224.164 660.153C122.158 692.842 65.9374 801.948 98.5928 903.848C131.248 1005.75 240.413 1061.85 342.42 1029.17ZM349.063 1049.9C462.531 1013.53 525.068 892.168 488.744 778.819C452.419 665.469 330.989 603.059 217.521 639.422C104.053 675.784 41.5155 797.15 77.84 910.499C114.165 1023.85 235.595 1086.26 349.063 1049.9Z" fill="url(#paint13_radial_334_21)"/>
<path fill-rule="evenodd" clip-rule="evenodd" d="M342.42 1029.17C444.426 996.476 500.646 887.369 467.991 785.469C435.336 683.569 326.171 627.463 224.164 660.153C122.158 692.842 65.9374 801.948 98.5928 903.848C131.248 1005.75 240.413 1061.85 342.42 1029.17ZM349.063 1049.9C462.531 1013.53 525.068 892.168 488.744 778.819C452.419 665.469 330.989 603.059 217.521 639.422C104.053 675.784 41.5155 797.15 77.84 910.499C114.165 1023.85 235.595 1086.26 349.063 1049.9Z" fill="url(#paint14_radial_334_21)"/>
</g>
<g opacity="0.1">
<path fill-rule="evenodd" clip-rule="evenodd" d="M333.513 1001.37C420.171 973.603 467.936 880.927 440.199 794.376C412.463 707.825 319.728 660.174 233.071 687.945C146.413 715.715 98.648 808.392 126.385 894.943C154.121 981.494 246.856 1029.14 333.513 1001.37ZM339.156 1018.98C435.551 988.091 488.683 885.002 457.829 788.726C426.976 692.45 323.822 639.445 227.428 670.336C131.033 701.227 77.9015 804.317 108.754 900.592C139.607 996.868 242.762 1049.87 339.156 1018.98Z" fill="url(#paint15_radial_334_21)"/>
<path fill-rule="evenodd" clip-rule="evenodd" d="M333.513 1001.37C420.171 973.603 467.936 880.927 440.199 794.376C412.463 707.825 319.728 660.174 233.071 687.945C146.413 715.715 98.648 808.392 126.385 894.943C154.121 981.494 246.856 1029.14 333.513 1001.37ZM339.156 1018.98C435.551 988.091 488.683 885.002 457.829 788.726C426.976 692.45 323.822 639.445 227.428 670.336C131.033 701.227 77.9015 804.317 108.754 900.592C139.607 996.868 242.762 1049.87 339.156 1018.98Z" fill="url(#paint16_radial_334_21)"/>
<path fill-rule="evenodd" clip-rule="evenodd" d="M333.513 1001.37C420.171 973.603 467.936 880.927 440.199 794.376C412.463 707.825 319.728 660.174 233.071 687.945C146.413 715.715 98.648 808.392 126.385 894.943C154.121 981.494 246.856 1029.14 333.513 1001.37ZM339.156 1018.98C435.551 988.091 488.683 885.002 457.829 788.726C426.976 692.45 323.822 639.445 227.428 670.336C131.033 701.227 77.9015 804.317 108.754 900.592C139.607 996.868 242.762 1049.87 339.156 1018.98Z" fill="url(#paint17_radial_334_21)"/>
<path fill-rule="evenodd" clip-rule="evenodd" d="M333.513 1001.37C420.171 973.603 467.936 880.927 440.199 794.376C412.463 707.825 319.728 660.174 233.071 687.945C146.413 715.715 98.648 808.392 126.385 894.943C154.121 981.494 246.856 1029.14 333.513 1001.37ZM339.156 1018.98C435.551 988.091 488.683 885.002 457.829 788.726C426.976 692.45 323.822 639.445 227.428 670.336C131.033 701.227 77.9015 804.317 108.754 900.592C139.607 996.868 242.762 1049.87 339.156 1018.98Z" fill="url(#paint18_radial_334_21)"/>
<path fill-rule="evenodd" clip-rule="evenodd" d="M333.513 1001.37C420.171 973.603 467.936 880.927 440.199 794.376C412.463 707.825 319.728 660.174 233.071 687.945C146.413 715.715 98.648 808.392 126.385 894.943C154.121 981.494 246.856 1029.14 333.513 1001.37ZM339.156 1018.98C435.551 988.091 488.683 885.002 457.829 788.726C426.976 692.45 323.822 639.445 227.428 670.336C131.033 701.227 77.9015 804.317 108.754 900.592C139.607 996.868 242.762 1049.87 339.156 1018.98Z" fill="url(#paint19_radial_334_21)"/>
</g>
<g opacity="0.1">
<path fill-rule="evenodd" clip-rule="evenodd" d="M326.71 980.144C401.643 956.131 442.949 876.005 418.97 801.179C394.991 726.353 314.807 685.161 239.874 709.175C164.941 733.188 123.635 813.313 147.615 888.139C171.594 962.965 251.778 1004.16 326.71 980.144ZM331.589 995.367C414.941 968.656 460.888 879.528 434.215 796.294C407.541 713.06 318.348 667.24 234.996 693.952C151.644 720.663 105.696 809.791 132.37 893.025C159.043 976.258 248.237 1022.08 331.589 995.367Z" fill="url(#paint20_radial_334_21)"/>
<path fill-rule="evenodd" clip-rule="evenodd" d="M326.71 980.144C401.643 956.131 442.949 876.005 418.97 801.179C394.991 726.353 314.807 685.161 239.874 709.175C164.941 733.188 123.635 813.313 147.615 888.139C171.594 962.965 251.778 1004.16 326.71 980.144ZM331.589 995.367C414.941 968.656 460.888 879.528 434.215 796.294C407.541 713.06 318.348 667.24 234.996 693.952C151.644 720.663 105.696 809.791 132.37 893.025C159.043 976.258 248.237 1022.08 331.589 995.367Z" fill="url(#paint21_radial_334_21)"/>
<path fill-rule="evenodd" clip-rule="evenodd" d="M326.71 980.144C401.643 956.131 442.949 876.005 418.97 801.179C394.991 726.353 314.807 685.161 239.874 709.175C164.941 733.188 123.635 813.313 147.615 888.139C171.594 962.965 251.778 1004.16 326.71 980.144ZM331.589 995.367C414.941 968.656 460.888 879.528 434.215 796.294C407.541 713.06 318.348 667.24 234.996 693.952C151.644 720.663 105.696 809.791 132.37 893.025C159.043 976.258 248.237 1022.08 331.589 995.367Z" fill="url(#paint22_radial_334_21)"/>
<path fill-rule="evenodd" clip-rule="evenodd" d="M326.71 980.144C401.643 956.131 442.949 876.005 418.97 801.179C394.991 726.353 314.807 685.161 239.874 709.175C164.941 733.188 123.635 813.313 147.615 888.139C171.594 962.965 251.778 1004.16 326.71 980.144ZM331.589 995.367C414.941 968.656 460.888 879.528 434.215 796.294C407.541 713.06 318.348 667.24 234.996 693.952C151.644 720.663 105.696 809.791 132.37 893.025C159.043 976.258 248.237 1022.08 331.589 995.367Z" fill="url(#paint23_radial_334_21)"/>
<path fill-rule="evenodd" clip-rule="evenodd" d="M326.71 980.144C401.643 956.131 442.949 876.005 418.97 801.179C394.991 726.353 314.807 685.161 239.874 709.175C164.941 733.188 123.635 813.313 147.615 888.139C171.594 962.965 251.778 1004.16 326.71 980.144ZM331.589 995.367C414.941 968.656 460.888 879.528 434.215 796.294C407.541 713.06 318.348 667.24 234.996 693.952C151.644 720.663 105.696 809.791 132.37 893.025C159.043 976.258 248.237 1022.08 331.589 995.367Z" fill="url(#paint24_radial_334_21)"/>
</g>
<g opacity="0.1">
<path fill-rule="evenodd" clip-rule="evenodd" d="M320.896 962.002C385.809 941.199 421.596 871.8 400.827 806.993C380.059 742.186 310.601 706.514 245.687 727.316C180.774 748.119 144.987 817.518 165.756 882.325C186.524 947.132 255.983 982.804 320.896 962.002ZM325.121 975.186C397.328 952.047 437.135 874.849 414.034 802.761C390.932 730.672 313.669 690.992 241.462 714.132C169.255 737.271 129.448 814.469 152.549 886.557C175.651 958.646 252.914 998.326 325.121 975.186Z" fill="url(#paint25_radial_334_21)"/>
<path fill-rule="evenodd" clip-rule="evenodd" d="M320.896 962.002C385.809 941.199 421.596 871.8 400.827 806.993C380.059 742.186 310.601 706.514 245.687 727.316C180.774 748.119 144.987 817.518 165.756 882.325C186.524 947.132 255.983 982.804 320.896 962.002ZM325.121 975.186C397.328 952.047 437.135 874.849 414.034 802.761C390.932 730.672 313.669 690.992 241.462 714.132C169.255 737.271 129.448 814.469 152.549 886.557C175.651 958.646 252.914 998.326 325.121 975.186Z" fill="url(#paint26_radial_334_21)"/>
<path fill-rule="evenodd" clip-rule="evenodd" d="M320.896 962.002C385.809 941.199 421.596 871.8 400.827 806.993C380.059 742.186 310.601 706.514 245.687 727.316C180.774 748.119 144.987 817.518 165.756 882.325C186.524 947.132 255.983 982.804 320.896 962.002ZM325.121 975.186C397.328 952.047 437.135 874.849 414.034 802.761C390.932 730.672 313.669 690.992 241.462 714.132C169.255 737.271 129.448 814.469 152.549 886.557C175.651 958.646 252.914 998.326 325.121 975.186Z" fill="url(#paint27_radial_334_21)"/>
<path fill-rule="evenodd" clip-rule="evenodd" d="M320.896 962.002C385.809 941.199 421.596 871.8 400.827 806.993C380.059 742.186 310.601 706.514 245.687 727.316C180.774 748.119 144.987 817.518 165.756 882.325C186.524 947.132 255.983 982.804 320.896 962.002ZM325.121 975.186C397.328 952.047 437.135 874.849 414.034 802.761C390.932 730.672 313.669 690.992 241.462 714.132C169.255 737.271 129.448 814.469 152.549 886.557C175.651 958.646 252.914 998.326 325.121 975.186Z" fill="url(#paint28_radial_334_21)"/>
<path fill-rule="evenodd" clip-rule="evenodd" d="M320.896 962.002C385.809 941.199 421.596 871.8 400.827 806.993C380.059 742.186 310.601 706.514 245.687 727.316C180.774 748.119 144.987 817.518 165.756 882.325C186.524 947.132 255.983 982.804 320.896 962.002ZM325.121 975.186C397.328 952.047 437.135 874.849 414.034 802.761C390.932 730.672 313.669 690.992 241.462 714.132C169.255 737.271 129.448 814.469 152.549 886.557C175.651 958.646 252.914 998.326 325.121 975.186Z" fill="url(#paint29_radial_334_21)"/>
</g>
<g opacity="0.1">
<path fill-rule="evenodd" clip-rule="evenodd" d="M316.148 946.736C372.641 928.632 403.761 868.16 385.657 811.667C367.553 755.174 307.081 724.054 250.588 742.158C194.095 760.262 162.975 820.734 181.079 877.227C199.183 933.72 259.655 964.84 316.148 946.736ZM319.831 958.229C382.671 938.091 417.288 870.824 397.15 807.984C377.012 745.144 309.745 710.527 246.905 730.665C184.065 750.803 149.448 818.07 169.586 880.91C189.724 943.75 256.991 978.367 319.831 958.229Z" fill="url(#paint30_radial_334_21)"/>
<path fill-rule="evenodd" clip-rule="evenodd" d="M316.148 946.736C372.641 928.632 403.761 868.16 385.657 811.667C367.553 755.174 307.081 724.054 250.588 742.158C194.095 760.262 162.975 820.734 181.079 877.227C199.183 933.72 259.655 964.84 316.148 946.736ZM319.831 958.229C382.671 938.091 417.288 870.824 397.15 807.984C377.012 745.144 309.745 710.527 246.905 730.665C184.065 750.803 149.448 818.07 169.586 880.91C189.724 943.75 256.991 978.367 319.831 958.229Z" fill="url(#paint31_radial_334_21)"/>
<path fill-rule="evenodd" clip-rule="evenodd" d="M316.148 946.736C372.641 928.632 403.761 868.16 385.657 811.667C367.553 755.174 307.081 724.054 250.588 742.158C194.095 760.262 162.975 820.734 181.079 877.227C199.183 933.72 259.655 964.84 316.148 946.736ZM319.831 958.229C382.671 938.091 417.288 870.824 397.15 807.984C377.012 745.144 309.745 710.527 246.905 730.665C184.065 750.803 149.448 818.07 169.586 880.91C189.724 943.75 256.991 978.367 319.831 958.229Z" fill="url(#paint32_radial_334_21)"/>
<path fill-rule="evenodd" clip-rule="evenodd" d="M316.148 946.736C372.641 928.632 403.761 868.16 385.657 811.667C367.553 755.174 307.081 724.054 250.588 742.158C194.095 760.262 162.975 820.734 181.079 877.227C199.183 933.72 259.655 964.84 316.148 946.736ZM319.831 958.229C382.671 938.091 417.288 870.824 397.15 807.984C377.012 745.144 309.745 710.527 246.905 730.665C184.065 750.803 149.448 818.07 169.586 880.91C189.724 943.75 256.991 978.367 319.831 958.229Z" fill="url(#paint33_radial_334_21)"/>
<path fill-rule="evenodd" clip-rule="evenodd" d="M316.148 946.736C372.641 928.632 403.761 868.16 385.657 811.667C367.553 755.174 307.081 724.054 250.588 742.158C194.095 760.262 162.975 820.734 181.079 877.227C199.183 933.72 259.655 964.84 316.148 946.736ZM319.831 958.229C382.671 938.091 417.288 870.824 397.15 807.984C377.012 745.144 309.745 710.527 246.905 730.665C184.065 750.803 149.448 818.07 169.586 880.91C189.724 943.75 256.991 978.367 319.831 958.229Z" fill="url(#paint34_radial_334_21)"/>
</g>
<g opacity="0.1">
<path fill-rule="evenodd" clip-rule="evenodd" d="M308.108 921.646C350.744 907.983 374.231 862.343 360.568 819.707C346.904 777.071 301.265 753.584 258.629 767.247C215.993 780.911 192.506 826.55 206.169 869.186C219.833 911.822 265.472 935.309 308.108 921.646ZM310.888 930.32C358.314 915.122 384.44 864.354 369.242 816.927C354.043 769.501 303.276 743.375 255.849 758.573C208.423 773.772 182.297 824.54 197.495 871.966C212.694 919.393 263.461 945.519 310.888 930.32Z" fill="url(#paint35_radial_334_21)"/>
<path fill-rule="evenodd" clip-rule="evenodd" d="M308.108 921.646C350.744 907.983 374.231 862.343 360.568 819.707C346.904 777.071 301.265 753.584 258.629 767.247C215.993 780.911 192.506 826.55 206.169 869.186C219.833 911.822 265.472 935.309 308.108 921.646ZM310.888 930.32C358.314 915.122 384.44 864.354 369.242 816.927C354.043 769.501 303.276 743.375 255.849 758.573C208.423 773.772 182.297 824.54 197.495 871.966C212.694 919.393 263.461 945.519 310.888 930.32Z" fill="url(#paint36_radial_334_21)"/>
<path fill-rule="evenodd" clip-rule="evenodd" d="M308.108 921.646C350.744 907.983 374.231 862.343 360.568 819.707C346.904 777.071 301.265 753.584 258.629 767.247C215.993 780.911 192.506 826.55 206.169 869.186C219.833 911.822 265.472 935.309 308.108 921.646ZM310.888 930.32C358.314 915.122 384.44 864.354 369.242 816.927C354.043 769.501 303.276 743.375 255.849 758.573C208.423 773.772 182.297 824.54 197.495 871.966C212.694 919.393 263.461 945.519 310.888 930.32Z" fill="url(#paint37_radial_334_21)"/>
<path fill-rule="evenodd" clip-rule="evenodd" d="M308.108 921.646C350.744 907.983 374.231 862.343 360.568 819.707C346.904 777.071 301.265 753.584 258.629 767.247C215.993 780.911 192.506 826.55 206.169 869.186C219.833 911.822 265.472 935.309 308.108 921.646ZM310.888 930.32C358.314 915.122 384.44 864.354 369.242 816.927C354.043 769.501 303.276 743.375 255.849 758.573C208.423 773.772 182.297 824.54 197.495 871.966C212.694 919.393 263.461 945.519 310.888 930.32Z" fill="url(#paint38_radial_334_21)"/>
<path fill-rule="evenodd" clip-rule="evenodd" d="M308.108 921.646C350.744 907.983 374.231 862.343 360.568 819.707C346.904 777.071 301.265 753.584 258.629 767.247C215.993 780.911 192.506 826.55 206.169 869.186C219.833 911.822 265.472 935.309 308.108 921.646ZM310.888 930.32C358.314 915.122 384.44 864.354 369.242 816.927C354.043 769.501 303.276 743.375 255.849 758.573C208.423 773.772 182.297 824.54 197.495 871.966C212.694 919.393 263.461 945.519 310.888 930.32Z" fill="url(#paint39_radial_334_21)"/>
</g>
<g opacity="0.1">
<path fill-rule="evenodd" clip-rule="evenodd" d="M298.259 891.365C324.161 883.064 338.457 855.425 330.19 829.63C321.924 803.835 294.226 789.653 268.324 797.954C242.423 806.254 228.127 833.894 236.393 859.688C244.66 885.483 272.358 899.665 298.259 891.365ZM299.941 896.613C328.753 887.379 344.655 856.634 335.46 827.941C326.265 799.248 295.454 783.473 266.643 792.706C237.831 801.939 221.929 832.684 231.124 861.377C240.319 890.07 271.129 905.846 299.941 896.613Z" fill="url(#paint40_radial_334_21)"/>
<path fill-rule="evenodd" clip-rule="evenodd" d="M298.259 891.365C324.161 883.064 338.457 855.425 330.19 829.63C321.924 803.835 294.226 789.653 268.324 797.954C242.423 806.254 228.127 833.894 236.393 859.688C244.66 885.483 272.358 899.665 298.259 891.365ZM299.941 896.613C328.753 887.379 344.655 856.634 335.46 827.941C326.265 799.248 295.454 783.473 266.643 792.706C237.831 801.939 221.929 832.684 231.124 861.377C240.319 890.07 271.129 905.846 299.941 896.613Z" fill="url(#paint41_radial_334_21)"/>
<path fill-rule="evenodd" clip-rule="evenodd" d="M298.259 891.365C324.161 883.064 338.457 855.425 330.19 829.63C321.924 803.835 294.226 789.653 268.324 797.954C242.423 806.254 228.127 833.894 236.393 859.688C244.66 885.483 272.358 899.665 298.259 891.365ZM299.941 896.613C328.753 887.379 344.655 856.634 335.46 827.941C326.265 799.248 295.454 783.473 266.643 792.706C237.831 801.939 221.929 832.684 231.124 861.377C240.319 890.07 271.129 905.846 299.941 896.613Z" fill="url(#paint42_radial_334_21)"/>
<path fill-rule="evenodd" clip-rule="evenodd" d="M298.259 891.365C324.161 883.064 338.457 855.425 330.19 829.63C321.924 803.835 294.226 789.653 268.324 797.954C242.423 806.254 228.127 833.894 236.393 859.688C244.66 885.483 272.358 899.665 298.259 891.365ZM299.941 896.613C328.753 887.379 344.655 856.634 335.46 827.941C326.265 799.248 295.454 783.473 266.643 792.706C237.831 801.939 221.929 832.684 231.124 861.377C240.319 890.07 271.129 905.846 299.941 896.613Z" fill="url(#paint43_radial_334_21)"/>
<path fill-rule="evenodd" clip-rule="evenodd" d="M298.259 891.365C324.161 883.064 338.457 855.425 330.19 829.63C321.924 803.835 294.226 789.653 268.324 797.954C242.423 806.254 228.127 833.894 236.393 859.688C244.66 885.483 272.358 899.665 298.259 891.365ZM299.941 896.613C328.753 887.379 344.655 856.634 335.46 827.941C326.265 799.248 295.454 783.473 266.643 792.706C237.831 801.939 221.929 832.684 231.124 861.377C240.319 890.07 271.129 905.846 299.941 896.613Z" fill="url(#paint44_radial_334_21)"/>
</g>
<g opacity="0.4">
<path fill-rule="evenodd" clip-rule="evenodd" d="M-235.352 288.761C-355.159 324.862 -423.016 451.25 -386.916 571.057C-350.815 690.864 -224.427 758.721 -104.62 722.62C15.1866 686.519 83.0438 560.131 46.9431 440.325C10.8424 320.518 -115.546 252.661 -235.352 288.761ZM-242.697 264.387C-375.965 304.544 -451.447 445.133 -411.29 578.401C-371.133 711.67 -230.544 787.151 -97.2757 746.994C35.9926 706.837 111.474 566.248 71.3172 432.98C31.1603 299.712 -109.429 224.23 -242.697 264.387Z" fill="#737373"/>
<path fill-rule="evenodd" clip-rule="evenodd" d="M-235.352 288.761C-355.159 324.862 -423.016 451.25 -386.916 571.057C-350.815 690.864 -224.427 758.721 -104.62 722.62C15.1866 686.519 83.0438 560.131 46.9431 440.325C10.8424 320.518 -115.546 252.661 -235.352 288.761ZM-242.697 264.387C-375.965 304.544 -451.447 445.133 -411.29 578.401C-371.133 711.67 -230.544 787.151 -97.2757 746.994C35.9926 706.837 111.474 566.248 71.3172 432.98C31.1603 299.712 -109.429 224.23 -242.697 264.387Z" fill="url(#paint45_radial_334_21)"/>
<path fill-rule="evenodd" clip-rule="evenodd" d="M-235.352 288.761C-355.159 324.862 -423.016 451.25 -386.916 571.057C-350.815 690.864 -224.427 758.721 -104.62 722.62C15.1866 686.519 83.0438 560.131 46.9431 440.325C10.8424 320.518 -115.546 252.661 -235.352 288.761ZM-242.697 264.387C-375.965 304.544 -451.447 445.133 -411.29 578.401C-371.133 711.67 -230.544 787.151 -97.2757 746.994C35.9926 706.837 111.474 566.248 71.3172 432.98C31.1603 299.712 -109.429 224.23 -242.697 264.387Z" fill="url(#paint46_radial_334_21)"/>
<path fill-rule="evenodd" clip-rule="evenodd" d="M-235.352 288.761C-355.159 324.862 -423.016 451.25 -386.916 571.057C-350.815 690.864 -224.427 758.721 -104.62 722.62C15.1866 686.519 83.0438 560.131 46.9431 440.325C10.8424 320.518 -115.546 252.661 -235.352 288.761ZM-242.697 264.387C-375.965 304.544 -451.447 445.133 -411.29 578.401C-371.133 711.67 -230.544 787.151 -97.2757 746.994C35.9926 706.837 111.474 566.248 71.3172 432.98C31.1603 299.712 -109.429 224.23 -242.697 264.387Z" fill="url(#paint47_radial_334_21)"/>
<path fill-rule="evenodd" clip-rule="evenodd" d="M-235.352 288.761C-355.159 324.862 -423.016 451.25 -386.916 571.057C-350.815 690.864 -224.427 758.721 -104.62 722.62C15.1866 686.519 83.0438 560.131 46.9431 440.325C10.8424 320.518 -115.546 252.661 -235.352 288.761ZM-242.697 264.387C-375.965 304.544 -451.447 445.133 -411.29 578.401C-371.133 711.67 -230.544 787.151 -97.2757 746.994C35.9926 706.837 111.474 566.248 71.3172 432.98C31.1603 299.712 -109.429 224.23 -242.697 264.387Z" fill="url(#paint48_radial_334_21)"/>
<path fill-rule="evenodd" clip-rule="evenodd" d="M-235.352 288.761C-355.159 324.862 -423.016 451.25 -386.916 571.057C-350.815 690.864 -224.427 758.721 -104.62 722.62C15.1866 686.519 83.0438 560.131 46.9431 440.325C10.8424 320.518 -115.546 252.661 -235.352 288.761ZM-242.697 264.387C-375.965 304.544 -451.447 445.133 -411.29 578.401C-371.133 711.67 -230.544 787.151 -97.2757 746.994C35.9926 706.837 111.474 566.248 71.3172 432.98C31.1603 299.712 -109.429 224.23 -242.697 264.387Z" fill="url(#paint49_radial_334_21)"/>
<path fill-rule="evenodd" clip-rule="evenodd" d="M-235.352 288.761C-355.159 324.862 -423.016 451.25 -386.916 571.057C-350.815 690.864 -224.427 758.721 -104.62 722.62C15.1866 686.519 83.0438 560.131 46.9431 440.325C10.8424 320.518 -115.546 252.661 -235.352 288.761ZM-242.697 264.387C-375.965 304.544 -451.447 445.133 -411.29 578.401C-371.133 711.67 -230.544 787.151 -97.2757 746.994C35.9926 706.837 111.474 566.248 71.3172 432.98C31.1603 299.712 -109.429 224.23 -242.697 264.387Z" fill="url(#paint50_radial_334_21)"/>
</g>
<g opacity="0.4">
<path fill-rule="evenodd" clip-rule="evenodd" d="M-226.17 319.902C-328.718 350.802 -386.777 459.057 -355.85 561.696C-324.922 664.336 -216.718 722.492 -114.17 691.592C-11.6224 660.691 46.4373 552.436 15.5096 449.797C-15.4181 347.157 -123.622 289.001 -226.17 319.902ZM-232.462 299.02C-346.532 333.392 -411.115 453.811 -376.713 567.983C-342.31 682.155 -221.949 746.845 -107.878 712.473C6.19193 678.101 70.7752 557.682 36.3725 443.51C1.96973 329.338 -118.391 264.648 -232.462 299.02Z" fill="#737373"/>
<path fill-rule="evenodd" clip-rule="evenodd" d="M-226.17 319.902C-328.718 350.802 -386.777 459.057 -355.85 561.696C-324.922 664.336 -216.718 722.492 -114.17 691.592C-11.6224 660.691 46.4373 552.436 15.5096 449.797C-15.4181 347.157 -123.622 289.001 -226.17 319.902ZM-232.462 299.02C-346.532 333.392 -411.115 453.811 -376.713 567.983C-342.31 682.155 -221.949 746.845 -107.878 712.473C6.19193 678.101 70.7752 557.682 36.3725 443.51C1.96973 329.338 -118.391 264.648 -232.462 299.02Z" fill="url(#paint51_radial_334_21)"/>
<path fill-rule="evenodd" clip-rule="evenodd" d="M-226.17 319.902C-328.718 350.802 -386.777 459.057 -355.85 561.696C-324.922 664.336 -216.718 722.492 -114.17 691.592C-11.6224 660.691 46.4373 552.436 15.5096 449.797C-15.4181 347.157 -123.622 289.001 -226.17 319.902ZM-232.462 299.02C-346.532 333.392 -411.115 453.811 -376.713 567.983C-342.31 682.155 -221.949 746.845 -107.878 712.473C6.19193 678.101 70.7752 557.682 36.3725 443.51C1.96973 329.338 -118.391 264.648 -232.462 299.02Z" fill="url(#paint52_radial_334_21)"/>
<path fill-rule="evenodd" clip-rule="evenodd" d="M-226.17 319.902C-328.718 350.802 -386.777 459.057 -355.85 561.696C-324.922 664.336 -216.718 722.492 -114.17 691.592C-11.6224 660.691 46.4373 552.436 15.5096 449.797C-15.4181 347.157 -123.622 289.001 -226.17 319.902ZM-232.462 299.02C-346.532 333.392 -411.115 453.811 -376.713 567.983C-342.31 682.155 -221.949 746.845 -107.878 712.473C6.19193 678.101 70.7752 557.682 36.3725 443.51C1.96973 329.338 -118.391 264.648 -232.462 299.02Z" fill="url(#paint53_radial_334_21)"/>
<path fill-rule="evenodd" clip-rule="evenodd" d="M-226.17 319.902C-328.718 350.802 -386.777 459.057 -355.85 561.696C-324.922 664.336 -216.718 722.492 -114.17 691.592C-11.6224 660.691 46.4373 552.436 15.5096 449.797C-15.4181 347.157 -123.622 289.001 -226.17 319.902ZM-232.462 299.02C-346.532 333.392 -411.115 453.811 -376.713 567.983C-342.31 682.155 -221.949 746.845 -107.878 712.473C6.19193 678.101 70.7752 557.682 36.3725 443.51C1.96973 329.338 -118.391 264.648 -232.462 299.02Z" fill="url(#paint54_radial_334_21)"/>
<path fill-rule="evenodd" clip-rule="evenodd" d="M-226.17 319.902C-328.718 350.802 -386.777 459.057 -355.85 561.696C-324.922 664.336 -216.718 722.492 -114.17 691.592C-11.6224 660.691 46.4373 552.436 15.5096 449.797C-15.4181 347.157 -123.622 289.001 -226.17 319.902ZM-232.462 299.02C-346.532 333.392 -411.115 453.811 -376.713 567.983C-342.31 682.155 -221.949 746.845 -107.878 712.473C6.19193 678.101 70.7752 557.682 36.3725 443.51C1.96973 329.338 -118.391 264.648 -232.462 299.02Z" fill="url(#paint55_radial_334_21)"/>
<path fill-rule="evenodd" clip-rule="evenodd" d="M-226.17 319.902C-328.718 350.802 -386.777 459.057 -355.85 561.696C-324.922 664.336 -216.718 722.492 -114.17 691.592C-11.6224 660.691 46.4373 552.436 15.5096 449.797C-15.4181 347.157 -123.622 289.001 -226.17 319.902ZM-232.462 299.02C-346.532 333.392 -411.115 453.811 -376.713 567.983C-342.31 682.155 -221.949 746.845 -107.878 712.473C6.19193 678.101 70.7752 557.682 36.3725 443.51C1.96973 329.338 -118.391 264.648 -232.462 299.02Z" fill="url(#paint56_radial_334_21)"/>
</g>
<g opacity="0.4">
<path fill-rule="evenodd" clip-rule="evenodd" d="M-217.8 347.679C-305.189 374.011 -354.708 466.127 -328.403 553.426C-302.098 640.724 -209.93 690.146 -122.54 663.814C-35.1509 637.481 14.3679 545.365 -11.9372 458.067C-38.2422 370.769 -130.41 321.346 -217.8 347.679ZM-223.151 329.918C-320.36 359.21 -375.443 461.676 -346.182 558.783C-316.921 655.89 -214.397 710.866 -117.189 681.574C-19.9802 652.283 35.1025 549.817 5.8418 452.71C-23.4189 355.603 -125.943 300.627 -223.151 329.918Z" fill="#737373"/>
<path fill-rule="evenodd" clip-rule="evenodd" d="M-217.8 347.679C-305.189 374.011 -354.708 466.127 -328.403 553.426C-302.098 640.724 -209.93 690.146 -122.54 663.814C-35.1509 637.481 14.3679 545.365 -11.9372 458.067C-38.2422 370.769 -130.41 321.346 -217.8 347.679ZM-223.151 329.918C-320.36 359.21 -375.443 461.676 -346.182 558.783C-316.921 655.89 -214.397 710.866 -117.189 681.574C-19.9802 652.283 35.1025 549.817 5.8418 452.71C-23.4189 355.603 -125.943 300.627 -223.151 329.918Z" fill="url(#paint57_radial_334_21)"/>
<path fill-rule="evenodd" clip-rule="evenodd" d="M-217.8 347.679C-305.189 374.011 -354.708 466.127 -328.403 553.426C-302.098 640.724 -209.93 690.146 -122.54 663.814C-35.1509 637.481 14.3679 545.365 -11.9372 458.067C-38.2422 370.769 -130.41 321.346 -217.8 347.679ZM-223.151 329.918C-320.36 359.21 -375.443 461.676 -346.182 558.783C-316.921 655.89 -214.397 710.866 -117.189 681.574C-19.9802 652.283 35.1025 549.817 5.8418 452.71C-23.4189 355.603 -125.943 300.627 -223.151 329.918Z" fill="url(#paint58_radial_334_21)"/>
<path fill-rule="evenodd" clip-rule="evenodd" d="M-217.8 347.679C-305.189 374.011 -354.708 466.127 -328.403 553.426C-302.098 640.724 -209.93 690.146 -122.54 663.814C-35.1509 637.481 14.3679 545.365 -11.9372 458.067C-38.2422 370.769 -130.41 321.346 -217.8 347.679ZM-223.151 329.918C-320.36 359.21 -375.443 461.676 -346.182 558.783C-316.921 655.89 -214.397 710.866 -117.189 681.574C-19.9802 652.283 35.1025 549.817 5.8418 452.71C-23.4189 355.603 -125.943 300.627 -223.151 329.918Z" fill="url(#paint59_radial_334_21)"/>
<path fill-rule="evenodd" clip-rule="evenodd" d="M-217.8 347.679C-305.189 374.011 -354.708 466.127 -328.403 553.426C-302.098 640.724 -209.93 690.146 -122.54 663.814C-35.1509 637.481 14.3679 545.365 -11.9372 458.067C-38.2422 370.769 -130.41 321.346 -217.8 347.679ZM-223.151 329.918C-320.36 359.21 -375.443 461.676 -346.182 558.783C-316.921 655.89 -214.397 710.866 -117.189 681.574C-19.9802 652.283 35.1025 549.817 5.8418 452.71C-23.4189 355.603 -125.943 300.627 -223.151 329.918Z" fill="url(#paint60_radial_334_21)"/>
<path fill-rule="evenodd" clip-rule="evenodd" d="M-217.8 347.679C-305.189 374.011 -354.708 466.127 -328.403 553.426C-302.098 640.724 -209.93 690.146 -122.54 663.814C-35.1509 637.481 14.3679 545.365 -11.9372 458.067C-38.2422 370.769 -130.41 321.346 -217.8 347.679ZM-223.151 329.918C-320.36 359.21 -375.443 461.676 -346.182 558.783C-316.921 655.89 -214.397 710.866 -117.189 681.574C-19.9802 652.283 35.1025 549.817 5.8418 452.71C-23.4189 355.603 -125.943 300.627 -223.151 329.918Z" fill="url(#paint61_radial_334_21)"/>
<path fill-rule="evenodd" clip-rule="evenodd" d="M-217.8 347.679C-305.189 374.011 -354.708 466.127 -328.403 553.426C-302.098 640.724 -209.93 690.146 -122.54 663.814C-35.1509 637.481 14.3679 545.365 -11.9372 458.067C-38.2422 370.769 -130.41 321.346 -217.8 347.679ZM-223.151 329.918C-320.36 359.21 -375.443 461.676 -346.182 558.783C-316.921 655.89 -214.397 710.866 -117.189 681.574C-19.9802 652.283 35.1025 549.817 5.8418 452.71C-23.4189 355.603 -125.943 300.627 -223.151 329.918Z" fill="url(#paint62_radial_334_21)"/>
</g>
<g opacity="0.4">
<path fill-rule="evenodd" clip-rule="evenodd" d="M-210.625 371.489C-284.865 393.859 -326.936 472.103 -304.594 546.252C-282.251 620.401 -203.955 662.376 -129.715 640.005C-55.4747 617.635 -13.4037 539.391 -35.7465 465.242C-58.0893 391.093 -136.385 349.119 -210.625 371.489ZM-215.171 356.404C-297.752 381.288 -344.55 468.323 -319.697 550.803C-294.844 633.283 -207.751 679.974 -125.169 655.09C-42.5876 630.207 4.2105 543.171 -20.6427 460.691C-45.496 378.211 -132.589 331.52 -215.171 356.404Z" fill="#737373"/>
<path fill-rule="evenodd" clip-rule="evenodd" d="M-210.625 371.489C-284.865 393.859 -326.936 472.103 -304.594 546.252C-282.251 620.401 -203.955 662.376 -129.715 640.005C-55.4747 617.635 -13.4037 539.391 -35.7465 465.242C-58.0893 391.093 -136.385 349.119 -210.625 371.489ZM-215.171 356.404C-297.752 381.288 -344.55 468.323 -319.697 550.803C-294.844 633.283 -207.751 679.974 -125.169 655.09C-42.5876 630.207 4.2105 543.171 -20.6427 460.691C-45.496 378.211 -132.589 331.52 -215.171 356.404Z" fill="url(#paint63_radial_334_21)"/>
<path fill-rule="evenodd" clip-rule="evenodd" d="M-210.625 371.489C-284.865 393.859 -326.936 472.103 -304.594 546.252C-282.251 620.401 -203.955 662.376 -129.715 640.005C-55.4747 617.635 -13.4037 539.391 -35.7465 465.242C-58.0893 391.093 -136.385 349.119 -210.625 371.489ZM-215.171 356.404C-297.752 381.288 -344.55 468.323 -319.697 550.803C-294.844 633.283 -207.751 679.974 -125.169 655.09C-42.5876 630.207 4.2105 543.171 -20.6427 460.691C-45.496 378.211 -132.589 331.52 -215.171 356.404Z" fill="url(#paint64_radial_334_21)"/>
<path fill-rule="evenodd" clip-rule="evenodd" d="M-210.625 371.489C-284.865 393.859 -326.936 472.103 -304.594 546.252C-282.251 620.401 -203.955 662.376 -129.715 640.005C-55.4747 617.635 -13.4037 539.391 -35.7465 465.242C-58.0893 391.093 -136.385 349.119 -210.625 371.489ZM-215.171 356.404C-297.752 381.288 -344.55 468.323 -319.697 550.803C-294.844 633.283 -207.751 679.974 -125.169 655.09C-42.5876 630.207 4.2105 543.171 -20.6427 460.691C-45.496 378.211 -132.589 331.52 -215.171 356.404Z" fill="url(#paint65_radial_334_21)"/>
<path fill-rule="evenodd" clip-rule="evenodd" d="M-210.625 371.489C-284.865 393.859 -326.936 472.103 -304.594 546.252C-282.251 620.401 -203.955 662.376 -129.715 640.005C-55.4747 617.635 -13.4037 539.391 -35.7465 465.242C-58.0893 391.093 -136.385 349.119 -210.625 371.489ZM-215.171 356.404C-297.752 381.288 -344.55 468.323 -319.697 550.803C-294.844 633.283 -207.751 679.974 -125.169 655.09C-42.5876 630.207 4.2105 543.171 -20.6427 460.691C-45.496 378.211 -132.589 331.52 -215.171 356.404Z" fill="url(#paint66_radial_334_21)"/>
<path fill-rule="evenodd" clip-rule="evenodd" d="M-210.625 371.489C-284.865 393.859 -326.936 472.103 -304.594 546.252C-282.251 620.401 -203.955 662.376 -129.715 640.005C-55.4747 617.635 -13.4037 539.391 -35.7465 465.242C-58.0893 391.093 -136.385 349.119 -210.625 371.489ZM-215.171 356.404C-297.752 381.288 -344.55 468.323 -319.697 550.803C-294.844 633.283 -207.751 679.974 -125.169 655.09C-42.5876 630.207 4.2105 543.171 -20.6427 460.691C-45.496 378.211 -132.589 331.52 -215.171 356.404Z" fill="url(#paint67_radial_334_21)"/>
<path fill-rule="evenodd" clip-rule="evenodd" d="M-210.625 371.489C-284.865 393.859 -326.936 472.103 -304.594 546.252C-282.251 620.401 -203.955 662.376 -129.715 640.005C-55.4747 617.635 -13.4037 539.391 -35.7465 465.242C-58.0893 391.093 -136.385 349.119 -210.625 371.489ZM-215.171 356.404C-297.752 381.288 -344.55 468.323 -319.697 550.803C-294.844 633.283 -207.751 679.974 -125.169 655.09C-42.5876 630.207 4.2105 543.171 -20.6427 460.691C-45.496 378.211 -132.589 331.52 -215.171 356.404Z" fill="url(#paint68_radial_334_21)"/>
</g>
<defs>
<radialGradient id="paint0_radial_334_21" cx="0" cy="0" r="1" gradientUnits="userSpaceOnUse" gradientTransform="translate(406.009 543.079) rotate(144.236) scale(341.699 863.762)">
<stop stop-color="#24FF00"/>
<stop offset="0.0001" stop-color="#24FF00"/>
<stop offset="0.0885417" stop-color="#24FF00" stop-opacity="0.890787"/>
<stop offset="0.317708" stop-color="#24FF00" stop-opacity="0.369829"/>
<stop offset="0.619792" stop-color="#24FF00" stop-opacity="0.197724"/>
<stop offset="1" stop-color="#24FF00" stop-opacity="0"/>
</radialGradient>
<radialGradient id="paint1_radial_334_21" cx="0" cy="0" r="1" gradientUnits="userSpaceOnUse" gradientTransform="translate(363.454 716.328) rotate(-140.517) scale(157.451 360.29)">
<stop stop-color="#00F0FF"/>
<stop offset="1" stop-color="#00F0FF" stop-opacity="0"/>
</radialGradient>
<radialGradient id="paint2_radial_334_21" cx="0" cy="0" r="1" gradientUnits="userSpaceOnUse" gradientTransform="translate(-45.9049 763.627) rotate(-21.9394) scale(485.816 1148.39)">
<stop stop-color="#0057FF"/>
<stop offset="1" stop-color="#0029FF" stop-opacity="0"/>
</radialGradient>
<radialGradient id="paint3_radial_334_21" cx="0" cy="0" r="1" gradientUnits="userSpaceOnUse" gradientTransform="translate(-13.1781 1069.64) rotate(-64.366) scale(308.462 910.61)">
<stop stop-color="#24FF00"/>
<stop offset="0.0001" stop-color="#24FF00"/>
<stop offset="0.374062" stop-color="#24FF00" stop-opacity="0.369829"/>
<stop offset="0.621741" stop-color="#24FF00" stop-opacity="0.197724"/>
<stop offset="1" stop-color="#24FF00" stop-opacity="0"/>
</radialGradient>
<radialGradient id="paint4_radial_334_21" cx="0" cy="0" r="1" gradientUnits="userSpaceOnUse" gradientTransform="translate(381.418 806.969) rotate(110.994) scale(82.9161 110.832)">
<stop stop-color="#13D3F7"/>
<stop offset="0.71666" stop-color="white" stop-opacity="0"/>
<stop offset="1" stop-color="#13D3F7" stop-opacity="0"/>
</radialGradient>
<radialGradient id="paint5_radial_334_21" cx="0" cy="0" r="1" gradientUnits="userSpaceOnUse" gradientTransform="translate(388.207 586.524) rotate(144.221) scale(292.501 739.928)">
<stop stop-color="#24FF00"/>
<stop offset="0.0001" stop-color="#24FF00"/>
<stop offset="0.0885417" stop-color="#24FF00" stop-opacity="0.890787"/>
<stop offset="0.317708" stop-color="#24FF00" stop-opacity="0.369829"/>
<stop offset="0.619792" stop-color="#24FF00" stop-opacity="0.197724"/>
<stop offset="1" stop-color="#24FF00" stop-opacity="0"/>
</radialGradient>
<radialGradient id="paint6_radial_334_21" cx="0" cy="0" r="1" gradientUnits="userSpaceOnUse" gradientTransform="translate(351.818 734.925) rotate(-140.494) scale(134.854 308.469)">
<stop stop-color="#00F0FF"/>
<stop offset="1" stop-color="#00F0FF" stop-opacity="0"/>
</radialGradient>
<radialGradient id="paint7_radial_334_21" cx="0" cy="0" r="1" gradientUnits="userSpaceOnUse" gradientTransform="translate(1.41058 775.353) rotate(-21.9431) scale(415.834 983.83)">
<stop stop-color="#0057FF"/>
<stop offset="1" stop-color="#0029FF" stop-opacity="0"/>
</radialGradient>
<radialGradient id="paint8_radial_334_21" cx="0" cy="0" r="1" gradientUnits="userSpaceOnUse" gradientTransform="translate(29.493 1037.5) rotate(-64.3915) scale(264.15 779.76)">
<stop stop-color="#24FF00"/>
<stop offset="0.0001" stop-color="#24FF00"/>
<stop offset="0.374062" stop-color="#24FF00" stop-opacity="0.369829"/>
<stop offset="0.621741" stop-color="#24FF00" stop-opacity="0.197724"/>
<stop offset="1" stop-color="#24FF00" stop-opacity="0"/>
</radialGradient>
<radialGradient id="paint9_radial_334_21" cx="0" cy="0" r="1" gradientUnits="userSpaceOnUse" gradientTransform="translate(367.216 812.576) rotate(110.969) scale(71.01 94.8994)">
<stop stop-color="#13D3F7"/>
<stop offset="0.71666" stop-color="white" stop-opacity="0"/>
<stop offset="1" stop-color="#13D3F7" stop-opacity="0"/>
</radialGradient>
<radialGradient id="paint10_radial_334_21" cx="0" cy="0" r="1" gradientUnits="userSpaceOnUse" gradientTransform="translate(372.806 625.016) rotate(144.253) scale(249.218 629.45)">
<stop stop-color="#24FF00"/>
<stop offset="0.0001" stop-color="#24FF00"/>
<stop offset="0.0885417" stop-color="#24FF00" stop-opacity="0.890787"/>
<stop offset="0.317708" stop-color="#24FF00" stop-opacity="0.369829"/>
<stop offset="0.619792" stop-color="#24FF00" stop-opacity="0.197724"/>
<stop offset="1" stop-color="#24FF00" stop-opacity="0"/>
</radialGradient>
<radialGradient id="paint11_radial_334_21" cx="0" cy="0" r="1" gradientUnits="userSpaceOnUse" gradientTransform="translate(341.731 751.277) rotate(-140.544) scale(114.763 262.723)">
<stop stop-color="#00F0FF"/>
<stop offset="1" stop-color="#00F0FF" stop-opacity="0"/>
</radialGradient>
<radialGradient id="paint12_radial_334_21" cx="0" cy="0" r="1" gradientUnits="userSpaceOnUse" gradientTransform="translate(43.1543 785.836) rotate(-21.935) scale(354.362 836.79)">
<stop stop-color="#0057FF"/>
<stop offset="1" stop-color="#0029FF" stop-opacity="0"/>
</radialGradient>
<radialGradient id="paint13_radial_334_21" cx="0" cy="0" r="1" gradientUnits="userSpaceOnUse" gradientTransform="translate(66.9558 1008.83) rotate(-64.3361) scale(224.874 663.89)">
<stop stop-color="#24FF00"/>
<stop offset="0.0001" stop-color="#24FF00"/>
<stop offset="0.374062" stop-color="#24FF00" stop-opacity="0.369829"/>
<stop offset="0.621741" stop-color="#24FF00" stop-opacity="0.197724"/>
<stop offset="1" stop-color="#24FF00" stop-opacity="0"/>
</radialGradient>
<radialGradient id="paint14_radial_334_21" cx="0" cy="0" r="1" gradientUnits="userSpaceOnUse" gradientTransform="translate(354.813 817.326) rotate(111.024) scale(60.4423 80.8102)">
<stop stop-color="#13D3F7"/>
<stop offset="0.71666" stop-color="white" stop-opacity="0"/>
<stop offset="1" stop-color="#13D3F7" stop-opacity="0"/>
</radialGradient>
<radialGradient id="paint15_radial_334_21" cx="0" cy="0" r="1" gradientUnits="userSpaceOnUse" gradientTransform="translate(359.346 658.094) rotate(144.256) scale(211.714 534.647)">
<stop stop-color="#24FF00"/>
<stop offset="0.0001" stop-color="#24FF00"/>
<stop offset="0.0885417" stop-color="#24FF00" stop-opacity="0.890787"/>
<stop offset="0.317708" stop-color="#24FF00" stop-opacity="0.369829"/>
<stop offset="0.619792" stop-color="#24FF00" stop-opacity="0.197724"/>
<stop offset="1" stop-color="#24FF00" stop-opacity="0"/>
</radialGradient>
<radialGradient id="paint16_radial_334_21" cx="0" cy="0" r="1" gradientUnits="userSpaceOnUse" gradientTransform="translate(332.941 765.339) rotate(-140.549) scale(97.4818 223.178)">
<stop stop-color="#00F0FF"/>
<stop offset="1" stop-color="#00F0FF" stop-opacity="0"/>
</radialGradient>
<radialGradient id="paint17_radial_334_21" cx="0" cy="0" r="1" gradientUnits="userSpaceOnUse" gradientTransform="translate(79.2941 794.707) rotate(-21.9343) scale(301.041 710.747)">
<stop stop-color="#0057FF"/>
<stop offset="1" stop-color="#0029FF" stop-opacity="0"/>
</radialGradient>
<radialGradient id="paint18_radial_334_21" cx="0" cy="0" r="1" gradientUnits="userSpaceOnUse" gradientTransform="translate(99.5036 984.115) rotate(-64.3308) scale(191.019 563.945)">
<stop stop-color="#24FF00"/>
<stop offset="0.0001" stop-color="#24FF00"/>
<stop offset="0.374062" stop-color="#24FF00" stop-opacity="0.369829"/>
<stop offset="0.621741" stop-color="#24FF00" stop-opacity="0.197724"/>
<stop offset="1" stop-color="#24FF00" stop-opacity="0"/>
</radialGradient>
<radialGradient id="paint19_radial_334_21" cx="0" cy="0" r="1" gradientUnits="userSpaceOnUse" gradientTransform="translate(344.051 821.44) rotate(111.029) scale(51.3417 68.6457)">
<stop stop-color="#13D3F7"/>
<stop offset="0.71666" stop-color="white" stop-opacity="0"/>
<stop offset="1" stop-color="#13D3F7" stop-opacity="0"/>
</radialGradient>
<radialGradient id="paint20_radial_334_21" cx="0" cy="0" r="1" gradientUnits="userSpaceOnUse" gradientTransform="translate(349.064 683.361) rotate(144.26) scale(183.066 462.228)">
<stop stop-color="#24FF00"/>
<stop offset="0.0001" stop-color="#24FF00"/>
<stop offset="0.0885417" stop-color="#24FF00" stop-opacity="0.890787"/>
<stop offset="0.317708" stop-color="#24FF00" stop-opacity="0.369829"/>
<stop offset="0.619792" stop-color="#24FF00" stop-opacity="0.197724"/>
<stop offset="1" stop-color="#24FF00" stop-opacity="0"/>
</radialGradient>
<radialGradient id="paint21_radial_334_21" cx="0" cy="0" r="1" gradientUnits="userSpaceOnUse" gradientTransform="translate(326.227 776.081) rotate(-140.554) scale(84.2809 192.971)">
<stop stop-color="#00F0FF"/>
<stop offset="1" stop-color="#00F0FF" stop-opacity="0"/>
</radialGradient>
<radialGradient id="paint22_radial_334_21" cx="0" cy="0" r="1" gradientUnits="userSpaceOnUse" gradientTransform="translate(106.901 801.483) rotate(-21.9335) scale(260.31 614.464)">
<stop stop-color="#0057FF"/>
<stop offset="1" stop-color="#0029FF" stop-opacity="0"/>
</radialGradient>
<radialGradient id="paint23_radial_334_21" cx="0" cy="0" r="1" gradientUnits="userSpaceOnUse" gradientTransform="translate(124.367 965.234) rotate(-64.3253) scale(165.157 487.598)">
<stop stop-color="#24FF00"/>
<stop offset="0.0001" stop-color="#24FF00"/>
<stop offset="0.374062" stop-color="#24FF00" stop-opacity="0.369829"/>
<stop offset="0.621741" stop-color="#24FF00" stop-opacity="0.197724"/>
<stop offset="1" stop-color="#24FF00" stop-opacity="0"/>
</radialGradient>
<radialGradient id="paint24_radial_334_21" cx="0" cy="0" r="1" gradientUnits="userSpaceOnUse" gradientTransform="translate(335.831 824.582) rotate(111.034) scale(44.3899 59.3533)">
<stop stop-color="#13D3F7"/>
<stop offset="0.71666" stop-color="white" stop-opacity="0"/>
<stop offset="1" stop-color="#13D3F7" stop-opacity="0"/>
</radialGradient>
<radialGradient id="paint25_radial_334_21" cx="0" cy="0" r="1" gradientUnits="userSpaceOnUse" gradientTransform="translate(340.276 704.952) rotate(144.263) scale(158.584 400.343)">
<stop stop-color="#24FF00"/>
<stop offset="0.0001" stop-color="#24FF00"/>
<stop offset="0.0885417" stop-color="#24FF00" stop-opacity="0.890787"/>
<stop offset="0.317708" stop-color="#24FF00" stop-opacity="0.369829"/>
<stop offset="0.619792" stop-color="#24FF00" stop-opacity="0.197724"/>
<stop offset="1" stop-color="#24FF00" stop-opacity="0"/>
</radialGradient>
<radialGradient id="paint26_radial_334_21" cx="0" cy="0" r="1" gradientUnits="userSpaceOnUse" gradientTransform="translate(320.488 785.26) rotate(-140.56) scale(73.0001 167.158)">
<stop stop-color="#00F0FF"/>
<stop offset="1" stop-color="#00F0FF" stop-opacity="0"/>
</radialGradient>
<radialGradient id="paint27_radial_334_21" cx="0" cy="0" r="1" gradientUnits="userSpaceOnUse" gradientTransform="translate(130.492 807.273) rotate(-21.9325) scale(225.503 532.186)">
<stop stop-color="#0057FF"/>
<stop offset="1" stop-color="#0029FF" stop-opacity="0"/>
</radialGradient>
<radialGradient id="paint28_radial_334_21" cx="0" cy="0" r="1" gradientUnits="userSpaceOnUse" gradientTransform="translate(145.613 949.099) rotate(-64.319) scale(143.057 422.356)">
<stop stop-color="#24FF00"/>
<stop offset="0.0001" stop-color="#24FF00"/>
<stop offset="0.374062" stop-color="#24FF00" stop-opacity="0.369829"/>
<stop offset="0.621741" stop-color="#24FF00" stop-opacity="0.197724"/>
<stop offset="1" stop-color="#24FF00" stop-opacity="0"/>
</radialGradient>
<radialGradient id="paint29_radial_334_21" cx="0" cy="0" r="1" gradientUnits="userSpaceOnUse" gradientTransform="translate(328.805 827.267) rotate(111.04) scale(38.4493 51.4126)">
<stop stop-color="#13D3F7"/>
<stop offset="0.71666" stop-color="white" stop-opacity="0"/>
<stop offset="1" stop-color="#13D3F7" stop-opacity="0"/>
</radialGradient>
<radialGradient id="paint30_radial_334_21" cx="0" cy="0" r="1" gradientUnits="userSpaceOnUse" gradientTransform="translate(332.91 722.706) rotate(144.236) scale(138.034 348.928)">
<stop stop-color="#24FF00"/>
<stop offset="0.0001" stop-color="#24FF00"/>
<stop offset="0.0885417" stop-color="#24FF00" stop-opacity="0.890787"/>
<stop offset="0.317708" stop-color="#24FF00" stop-opacity="0.369829"/>
<stop offset="0.619792" stop-color="#24FF00" stop-opacity="0.197724"/>
<stop offset="1" stop-color="#24FF00" stop-opacity="0"/>
</radialGradient>
<radialGradient id="paint31_radial_334_21" cx="0" cy="0" r="1" gradientUnits="userSpaceOnUse" gradientTransform="translate(315.72 792.691) rotate(-140.517) scale(63.6043 145.544)">
<stop stop-color="#00F0FF"/>
<stop offset="1" stop-color="#00F0FF" stop-opacity="0"/>
</radialGradient>
<radialGradient id="paint32_radial_334_21" cx="0" cy="0" r="1" gradientUnits="userSpaceOnUse" gradientTransform="translate(150.354 811.799) rotate(-21.9394) scale(196.252 463.908)">
<stop stop-color="#0057FF"/>
<stop offset="1" stop-color="#0029FF" stop-opacity="0"/>
</radialGradient>
<radialGradient id="paint33_radial_334_21" cx="0" cy="0" r="1" gradientUnits="userSpaceOnUse" gradientTransform="translate(163.574 935.417) rotate(-64.366) scale(124.607 367.853)">
<stop stop-color="#24FF00"/>
<stop offset="0.0001" stop-color="#24FF00"/>
<stop offset="0.374062" stop-color="#24FF00" stop-opacity="0.369829"/>
<stop offset="0.621741" stop-color="#24FF00" stop-opacity="0.197724"/>
<stop offset="1" stop-color="#24FF00" stop-opacity="0"/>
</radialGradient>
<radialGradient id="paint34_radial_334_21" cx="0" cy="0" r="1" gradientUnits="userSpaceOnUse" gradientTransform="translate(322.977 829.307) rotate(110.994) scale(33.4951 44.7722)">
<stop stop-color="#13D3F7"/>
<stop offset="0.71666" stop-color="white" stop-opacity="0"/>
<stop offset="1" stop-color="#13D3F7" stop-opacity="0"/>
</radialGradient>
<radialGradient id="paint35_radial_334_21" cx="0" cy="0" r="1" gradientUnits="userSpaceOnUse" gradientTransform="translate(320.759 752.566) rotate(144.236) scale(104.177 263.342)">
<stop stop-color="#24FF00"/>
<stop offset="0.0001" stop-color="#24FF00"/>
<stop offset="0.0885417" stop-color="#24FF00" stop-opacity="0.890787"/>
<stop offset="0.317708" stop-color="#24FF00" stop-opacity="0.369829"/>
<stop offset="0.619792" stop-color="#24FF00" stop-opacity="0.197724"/>
<stop offset="1" stop-color="#24FF00" stop-opacity="0"/>
</radialGradient>
<radialGradient id="paint36_radial_334_21" cx="0" cy="0" r="1" gradientUnits="userSpaceOnUse" gradientTransform="translate(307.785 805.386) rotate(-140.517) scale(48.0033 109.845)">
<stop stop-color="#00F0FF"/>
<stop offset="1" stop-color="#00F0FF" stop-opacity="0"/>
</radialGradient>
<radialGradient id="paint37_radial_334_21" cx="0" cy="0" r="1" gradientUnits="userSpaceOnUse" gradientTransform="translate(182.98 819.807) rotate(-21.9394) scale(148.115 350.119)">
<stop stop-color="#0057FF"/>
<stop offset="1" stop-color="#0029FF" stop-opacity="0"/>
</radialGradient>
<radialGradient id="paint38_radial_334_21" cx="0" cy="0" r="1" gradientUnits="userSpaceOnUse" gradientTransform="translate(192.958 913.104) rotate(-64.366) scale(94.0432 277.625)">
<stop stop-color="#24FF00"/>
<stop offset="0.0001" stop-color="#24FF00"/>
<stop offset="0.374062" stop-color="#24FF00" stop-opacity="0.369829"/>
<stop offset="0.621741" stop-color="#24FF00" stop-opacity="0.197724"/>
<stop offset="1" stop-color="#24FF00" stop-opacity="0"/>
</radialGradient>
<radialGradient id="paint39_radial_334_21" cx="0" cy="0" r="1" gradientUnits="userSpaceOnUse" gradientTransform="translate(313.262 833.02) rotate(110.994) scale(25.2793 33.7903)">
<stop stop-color="#13D3F7"/>
<stop offset="0.71666" stop-color="white" stop-opacity="0"/>
<stop offset="1" stop-color="#13D3F7" stop-opacity="0"/>
</radialGradient>
<radialGradient id="paint40_radial_334_21" cx="0" cy="0" r="1" gradientUnits="userSpaceOnUse" gradientTransform="translate(306.065 789.023) rotate(144.305) scale(63.2625 159.384)">
<stop stop-color="#24FF00"/>
<stop offset="0.0001" stop-color="#24FF00"/>
<stop offset="0.0885417" stop-color="#24FF00" stop-opacity="0.890787"/>
<stop offset="0.317708" stop-color="#24FF00" stop-opacity="0.369829"/>
<stop offset="0.619792" stop-color="#24FF00" stop-opacity="0.197724"/>
<stop offset="1" stop-color="#24FF00" stop-opacity="0"/>
</radialGradient>
<radialGradient id="paint41_radial_334_21" cx="0" cy="0" r="1" gradientUnits="userSpaceOnUse" gradientTransform="translate(298.147 821.001) rotate(-140.625) scale(29.0771 66.6498)">
<stop stop-color="#00F0FF"/>
<stop offset="1" stop-color="#00F0FF" stop-opacity="0"/>
</radialGradient>
<radialGradient id="paint42_radial_334_21" cx="0" cy="0" r="1" gradientUnits="userSpaceOnUse" gradientTransform="translate(222.347 829.819) rotate(-21.9223) scale(89.9777 211.827)">
<stop stop-color="#0057FF"/>
<stop offset="1" stop-color="#0029FF" stop-opacity="0"/>
</radialGradient>
<radialGradient id="paint43_radial_334_21" cx="0" cy="0" r="1" gradientUnits="userSpaceOnUse" gradientTransform="translate(228.339 886.278) rotate(-64.2481) scale(57.0072 168.328)">
<stop stop-color="#24FF00"/>
<stop offset="0.0001" stop-color="#24FF00"/>
<stop offset="0.374062" stop-color="#24FF00" stop-opacity="0.369829"/>
<stop offset="0.621741" stop-color="#24FF00" stop-opacity="0.197724"/>
<stop offset="1" stop-color="#24FF00" stop-opacity="0"/>
</radialGradient>
<radialGradient id="paint44_radial_334_21" cx="0" cy="0" r="1" gradientUnits="userSpaceOnUse" gradientTransform="translate(301.453 837.722) rotate(111.11) scale(15.3188 20.4944)">
<stop stop-color="#13D3F7"/>
<stop offset="0.71666" stop-color="white" stop-opacity="0"/>
<stop offset="1" stop-color="#13D3F7" stop-opacity="0"/>
</radialGradient>
<radialGradient id="paint45_radial_334_21" cx="0" cy="0" r="1" gradientUnits="userSpaceOnUse" gradientTransform="translate(-278.95 760.614) rotate(-34.7644) scale(291.152 735.986)">
<stop stop-color="#24FF00"/>
<stop offset="0.0001" stop-color="#24FF00"/>
<stop offset="0.0885417" stop-color="#24FF00" stop-opacity="0.890787"/>
<stop offset="0.317708" stop-color="#24FF00" stop-opacity="0.369829"/>
<stop offset="0.619792" stop-color="#24FF00" stop-opacity="0.197724"/>
<stop offset="1" stop-color="#24FF00" stop-opacity="0"/>
</radialGradient>
<radialGradient id="paint46_radial_334_21" cx="0" cy="0" r="1" gradientUnits="userSpaceOnUse" gradientTransform="translate(-240.12 613.65) rotate(40.4828) scale(134.159 306.992)">
<stop stop-color="#00F0FF"/>
<stop offset="1" stop-color="#00F0FF" stop-opacity="0"/>
</radialGradient>
<radialGradient id="paint47_radial_334_21" cx="0" cy="0" r="1" gradientUnits="userSpaceOnUse" gradientTransform="translate(109.333 579.441) rotate(159.061) scale(413.949 978.509)">
<stop stop-color="#0057FF"/>
<stop offset="1" stop-color="#0029FF" stop-opacity="0"/>
</radialGradient>
<radialGradient id="paint48_radial_334_21" cx="0" cy="0" r="1" gradientUnits="userSpaceOnUse" gradientTransform="translate(86.0026 318.248) rotate(116.634) scale(262.831 775.903)">
<stop stop-color="#24FF00"/>
<stop offset="0.0001" stop-color="#24FF00"/>
<stop offset="0.374062" stop-color="#24FF00" stop-opacity="0.369829"/>
<stop offset="0.621741" stop-color="#24FF00" stop-opacity="0.197724"/>
<stop offset="1" stop-color="#24FF00" stop-opacity="0"/>
</radialGradient>
<radialGradient id="paint49_radial_334_21" cx="0" cy="0" r="1" gradientUnits="userSpaceOnUse" gradientTransform="translate(-254.076 536.162) rotate(-68.0057) scale(70.6503 94.4368)">
<stop stop-color="#13D3F7"/>
<stop offset="0.71666" stop-color="white" stop-opacity="0"/>
<stop offset="1" stop-color="#13D3F7" stop-opacity="0"/>
</radialGradient>
<radialGradient id="paint50_radial_334_21" cx="0" cy="0" r="1" gradientUnits="userSpaceOnUse" gradientTransform="translate(-245.276 426.184) rotate(-5.85472) scale(162.731 155.69)">
<stop stop-color="#2EA6A0"/>
<stop offset="1" stop-color="#302EA6" stop-opacity="0"/>
</radialGradient>
<radialGradient id="paint51_radial_334_21" cx="0" cy="0" r="1" gradientUnits="userSpaceOnUse" gradientTransform="translate(-263.39 724.102) rotate(-34.7794) scale(249.231 630.471)">
<stop stop-color="#24FF00"/>
<stop offset="0.0001" stop-color="#24FF00"/>
<stop offset="0.0885417" stop-color="#24FF00" stop-opacity="0.890787"/>
<stop offset="0.317708" stop-color="#24FF00" stop-opacity="0.369829"/>
<stop offset="0.619792" stop-color="#24FF00" stop-opacity="0.197724"/>
<stop offset="1" stop-color="#24FF00" stop-opacity="0"/>
</radialGradient>
<radialGradient id="paint52_radial_334_21" cx="0" cy="0" r="1" gradientUnits="userSpaceOnUse" gradientTransform="translate(-230.182 598.214) rotate(40.506) scale(114.905 262.837)">
<stop stop-color="#00F0FF"/>
<stop offset="1" stop-color="#00F0FF" stop-opacity="0"/>
</radialGradient>
<radialGradient id="paint53_radial_334_21" cx="0" cy="0" r="1" gradientUnits="userSpaceOnUse" gradientTransform="translate(68.9453 568.983) rotate(159.057) scale(354.32 838.292)">
<stop stop-color="#0057FF"/>
<stop offset="1" stop-color="#0029FF" stop-opacity="0"/>
</radialGradient>
<radialGradient id="paint54_radial_334_21" cx="0" cy="0" r="1" gradientUnits="userSpaceOnUse" gradientTransform="translate(48.9191 345.229) rotate(116.609) scale(225.075 664.41)">
<stop stop-color="#24FF00"/>
<stop offset="0.0001" stop-color="#24FF00"/>
<stop offset="0.374062" stop-color="#24FF00" stop-opacity="0.369829"/>
<stop offset="0.621741" stop-color="#24FF00" stop-opacity="0.197724"/>
<stop offset="1" stop-color="#24FF00" stop-opacity="0"/>
</radialGradient>
<radialGradient id="paint55_radial_334_21" cx="0" cy="0" r="1" gradientUnits="userSpaceOnUse" gradientTransform="translate(-242.145 531.832) rotate(-68.0306) scale(60.5055 80.8609)">
<stop stop-color="#13D3F7"/>
<stop offset="0.71666" stop-color="white" stop-opacity="0"/>
<stop offset="1" stop-color="#13D3F7" stop-opacity="0"/>
</radialGradient>
<radialGradient id="paint56_radial_334_21" cx="0" cy="0" r="1" gradientUnits="userSpaceOnUse" gradientTransform="translate(-234.635 437.622) rotate(-5.84524) scale(139.293 133.376)">
<stop stop-color="#2EA6A0"/>
<stop offset="1" stop-color="#302EA6" stop-opacity="0"/>
</radialGradient>
<radialGradient id="paint57_radial_334_21" cx="0" cy="0" r="1" gradientUnits="userSpaceOnUse" gradientTransform="translate(-249.697 691.537) rotate(-34.7468) scale(212.351 536.336)">
<stop stop-color="#24FF00"/>
<stop offset="0.0001" stop-color="#24FF00"/>
<stop offset="0.0885417" stop-color="#24FF00" stop-opacity="0.890787"/>
<stop offset="0.317708" stop-color="#24FF00" stop-opacity="0.369829"/>
<stop offset="0.619792" stop-color="#24FF00" stop-opacity="0.197724"/>
<stop offset="1" stop-color="#24FF00" stop-opacity="0"/>
</radialGradient>
<radialGradient id="paint58_radial_334_21" cx="0" cy="0" r="1" gradientUnits="userSpaceOnUse" gradientTransform="translate(-221.345 584.433) rotate(40.4555) scale(97.786 223.858)">
<stop stop-color="#00F0FF"/>
<stop offset="1" stop-color="#00F0FF" stop-opacity="0"/>
</radialGradient>
<radialGradient id="paint59_radial_334_21" cx="0" cy="0" r="1" gradientUnits="userSpaceOnUse" gradientTransform="translate(33.5382 559.431) rotate(159.065) scale(301.942 713.003)">
<stop stop-color="#0057FF"/>
<stop offset="1" stop-color="#0029FF" stop-opacity="0"/>
</radialGradient>
<radialGradient id="paint60_radial_334_21" cx="0" cy="0" r="1" gradientUnits="userSpaceOnUse" gradientTransform="translate(16.5768 369.099) rotate(116.664) scale(191.609 565.681)">
<stop stop-color="#24FF00"/>
<stop offset="0.0001" stop-color="#24FF00"/>
<stop offset="0.374062" stop-color="#24FF00" stop-opacity="0.369829"/>
<stop offset="0.621741" stop-color="#24FF00" stop-opacity="0.197724"/>
<stop offset="1" stop-color="#24FF00" stop-opacity="0"/>
</radialGradient>
<radialGradient id="paint61_radial_334_21" cx="0" cy="0" r="1" gradientUnits="userSpaceOnUse" gradientTransform="translate(-231.508 527.969) rotate(-67.9765) scale(51.501 68.8559)">
<stop stop-color="#13D3F7"/>
<stop offset="0.71666" stop-color="white" stop-opacity="0"/>
<stop offset="1" stop-color="#13D3F7" stop-opacity="0"/>
</radialGradient>
<radialGradient id="paint62_radial_334_21" cx="0" cy="0" r="1" gradientUnits="userSpaceOnUse" gradientTransform="translate(-225.066 447.824) rotate(-5.86585) scale(118.695 113.449)">
<stop stop-color="#2EA6A0"/>
<stop offset="1" stop-color="#302EA6" stop-opacity="0"/>
</radialGradient>
<radialGradient id="paint63_radial_334_21" cx="0" cy="0" r="1" gradientUnits="userSpaceOnUse" gradientTransform="translate(-237.738 663.559) rotate(-34.7437) scale(180.395 455.557)">
<stop stop-color="#24FF00"/>
<stop offset="0.0001" stop-color="#24FF00"/>
<stop offset="0.0885417" stop-color="#24FF00" stop-opacity="0.890787"/>
<stop offset="0.317708" stop-color="#24FF00" stop-opacity="0.369829"/>
<stop offset="0.619792" stop-color="#24FF00" stop-opacity="0.197724"/>
<stop offset="1" stop-color="#24FF00" stop-opacity="0"/>
</radialGradient>
<radialGradient id="paint64_radial_334_21" cx="0" cy="0" r="1" gradientUnits="userSpaceOnUse" gradientTransform="translate(-213.647 572.585) rotate(40.4507) scale(83.0613 190.164)">
<stop stop-color="#00F0FF"/>
<stop offset="1" stop-color="#00F0FF" stop-opacity="0"/>
</radialGradient>
<radialGradient id="paint65_radial_334_21" cx="0" cy="0" r="1" gradientUnits="userSpaceOnUse" gradientTransform="translate(2.88117 551.337) rotate(159.066) scale(256.508 605.606)">
<stop stop-color="#0057FF"/>
<stop offset="1" stop-color="#0029FF" stop-opacity="0"/>
</radialGradient>
<radialGradient id="paint66_radial_334_21" cx="0" cy="0" r="1" gradientUnits="userSpaceOnUse" gradientTransform="translate(-11.5195 389.672) rotate(116.669) scale(162.761 480.52)">
<stop stop-color="#24FF00"/>
<stop offset="0.0001" stop-color="#24FF00"/>
<stop offset="0.374062" stop-color="#24FF00" stop-opacity="0.369829"/>
<stop offset="0.621741" stop-color="#24FF00" stop-opacity="0.197724"/>
<stop offset="1" stop-color="#24FF00" stop-opacity="0"/>
</radialGradient>
<radialGradient id="paint67_radial_334_21" cx="0" cy="0" r="1" gradientUnits="userSpaceOnUse" gradientTransform="translate(-222.278 524.625) rotate(-67.9713) scale(43.7467 58.4909)">
<stop stop-color="#13D3F7"/>
<stop offset="0.71666" stop-color="white" stop-opacity="0"/>
<stop offset="1" stop-color="#13D3F7" stop-opacity="0"/>
</radialGradient>
<radialGradient id="paint68_radial_334_21" cx="0" cy="0" r="1" gradientUnits="userSpaceOnUse" gradientTransform="translate(-216.803 456.551) rotate(-5.86783) scale(100.834 96.3611)">
<stop stop-color="#2EA6A0"/>
<stop offset="1" stop-color="#302EA6" stop-opacity="0"/>
</radialGradient>
</defs>
</svg>
