<svg width="18" height="16" viewBox="0 0 18 16" fill="none" xmlns="http://www.w3.org/2000/svg">
<path fill-rule="evenodd" clip-rule="evenodd" d="M0 2C0 0.895431 0.895431 0 2 0H16C17.1046 0 18 0.895431 18 2C18 3.10457 17.1046 4 16 4H2C0.89543 4 0 3.10457 0 2ZM0 8C0 6.89543 0.895431 6 2 6H16C17.1046 6 18 6.89543 18 8C18 9.10457 17.1046 10 16 10H2C0.89543 10 0 9.10457 0 8ZM2 12C0.895431 12 0 12.8954 0 14C0 15.1046 0.89543 16 2 16H16C17.1046 16 18 15.1046 18 14C18 12.8954 17.1046 12 16 12H2Z" fill="#6E9AF3"/>
</svg>
