<svg width="33" height="33" viewBox="0 0 33 33" fill="none" xmlns="http://www.w3.org/2000/svg">
<g clip-path="url(#clip0_695_819)">
<path d="M30.8972 0H2.10747C0.943123 0 0 0.943123 0 2.10514V30.8949C0 32.0569 0.943123 33 2.10747 33H30.8949C32.0569 33 33 32.0569 33 30.8949V2.10514C33.0023 0.940795 32.0592 0 30.8972 0ZM27.3739 20.1083C27.977 20.7231 29.2857 21.7547 29.0482 22.805C28.8293 23.769 27.3902 23.4174 25.9929 23.4733C24.3978 23.5408 23.4523 23.5758 22.4929 22.805C22.0411 22.4394 21.7757 22.0062 21.3425 21.5218C20.949 21.084 20.453 20.2993 19.7776 20.3295C18.5644 20.3901 18.944 22.0807 18.5132 23.2334C11.7692 24.2953 9.06097 20.1293 6.67172 16.0867C5.51436 14.1282 3.84235 9.92259 3.84235 9.92259L8.61153 9.90629C8.61153 9.90629 10.1415 12.6891 10.5467 13.4063C10.8913 14.0164 11.2709 14.5008 11.6621 15.0457C11.9905 15.4975 12.5098 16.3824 13.078 16.3102C14.0025 16.1914 14.1701 12.6053 13.5973 11.4036C13.3691 10.9169 12.8218 10.7469 12.2559 10.5816C12.4469 9.37535 17.605 9.12385 18.4386 10.06C19.6496 11.4199 17.6003 15.2064 19.2583 16.3102C21.587 15.09 23.5758 9.98081 23.5758 9.98081L29.16 10.0157C29.16 10.0157 28.2867 12.7776 27.3715 14.0025C26.8383 14.7197 25.0685 16.3172 25.1383 17.5025C25.1942 18.441 26.6333 19.3538 27.3739 20.1083Z" fill="#3184C7"/>
</g>
<defs>
<clipPath id="clip0_695_819">
<rect width="33" height="33" fill="white"/>
</clipPath>
</defs>
</svg>
