<svg width="33" height="33" viewBox="0 0 33 33" fill="none" xmlns="http://www.w3.org/2000/svg">
<g clip-path="url(#clip0_695_825)">
<path d="M2.06235 2.24529C-0.530903 4.93891 -0.000153258 7.80028 -0.000153258 16.493C-0.000153258 23.7118 -1.25965 30.9484 5.3321 32.652C7.39047 33.1814 25.6285 33.1814 27.6841 32.6493C30.4286 31.9412 32.6616 29.715 32.9668 25.8334C33.0095 25.2917 33.0095 7.70403 32.9655 7.15128C32.641 3.01666 30.0958 0.633786 26.7422 0.151161C25.9736 0.0397862 25.8196 0.00678619 21.8761 -8.88072e-05C7.88822 0.00678619 4.82197 -0.616089 2.06235 2.24529Z" fill="url(#paint0_linear_695_825)"/>
<path d="M16.4972 4.31608C11.5046 4.31608 6.76361 3.87196 4.95274 8.51946C4.20474 10.439 4.31336 12.9318 4.31336 16.5013C4.31336 19.6336 4.21299 22.5775 4.95274 24.4818C6.75949 29.1321 11.539 28.6866 16.4945 28.6866C21.2754 28.6866 26.2047 29.1843 28.0376 24.4818C28.787 22.5431 28.677 20.0873 28.677 16.5013C28.677 11.7411 28.9396 8.66795 26.631 6.36071C24.2935 4.02321 21.1324 4.31608 16.4917 4.31608H16.4972ZM15.4055 6.51196C25.8197 6.49546 27.1452 5.33771 26.4137 21.4211C26.1539 27.1095 21.8226 26.4852 16.4986 26.4852C6.79111 26.4852 6.51199 26.2075 6.51199 16.4958C6.51199 6.67146 7.28199 6.51746 15.4055 6.50921V6.51196ZM23.001 8.53458C22.1939 8.53458 21.5394 9.18908 21.5394 9.9962C21.5394 10.8033 22.1939 11.4578 23.001 11.4578C23.8081 11.4578 24.4626 10.8033 24.4626 9.9962C24.4626 9.18908 23.8081 8.53458 23.001 8.53458ZM16.4972 10.2437C13.0419 10.2437 10.241 13.046 10.241 16.5013C10.241 19.9567 13.0419 22.7576 16.4972 22.7576C19.9526 22.7576 22.7521 19.9567 22.7521 16.5013C22.7521 13.046 19.9526 10.2437 16.4972 10.2437ZM16.4972 12.4396C21.8666 12.4396 21.8735 20.5631 16.4972 20.5631C11.1292 20.5631 11.121 12.4396 16.4972 12.4396Z" fill="white"/>
</g>
<defs>
<linearGradient id="paint0_linear_695_825" x1="2.12562" y1="30.8922" x2="32.7956" y2="4.34762" gradientUnits="userSpaceOnUse">
<stop stop-color="#FFDD55"/>
<stop offset="0.5" stop-color="#FF543E"/>
<stop offset="1" stop-color="#C837AB"/>
</linearGradient>
<clipPath id="clip0_695_825">
<rect width="33" height="33" fill="white"/>
</clipPath>
</defs>
</svg>
