<svg width="45" height="76" viewBox="0 0 45 76" fill="none" xmlns="http://www.w3.org/2000/svg">
<path d="M28.9166 3.7998H16.0833C15.375 3.7998 14.8 4.36728 14.8 5.06642C14.8 5.76556 15.375 6.33304 16.0833 6.33304H28.9166C29.6249 6.33304 30.1999 5.76556 30.1999 5.06642C30.1999 4.36728 29.6249 3.7998 28.9166 3.7998Z" fill="url(#paint0_linear_1062_770)"/>
<path d="M37.9001 3.7998H36.6168C35.9084 3.7998 35.3335 4.36728 35.3335 5.06642C35.3335 5.76556 35.9084 6.33304 36.6168 6.33304H37.9001C38.6084 6.33304 39.1833 5.76556 39.1833 5.06642C39.1833 4.36728 38.6084 3.7998 37.9001 3.7998Z" fill="url(#paint1_linear_1062_770)"/>
<path d="M24.0937 64.6001H20.9072C18.9553 64.6001 17.3666 66.1682 17.3666 68.0948V68.7066C17.3666 70.6332 18.9553 72.2001 20.906 72.2001H24.0925C26.0444 72.2001 27.6331 70.6332 27.6331 68.7066V68.0948C27.6331 66.1682 26.0444 64.6001 24.0937 64.6001ZM25.0666 68.7066C25.0666 69.2361 24.6303 69.6667 24.0938 69.6667H20.9072C20.3696 69.6667 19.9331 69.2361 19.9331 68.7066V68.0948C19.9331 67.5641 20.3694 67.1333 20.9072 67.1333H24.0925C24.6303 67.1333 25.0666 67.564 25.0666 68.0948V68.7066V68.7066Z" fill="url(#paint2_linear_1062_770)"/>
<path d="M39.9954 0H5.63925C3.08156 0 1 2.05452 1 4.579V71.421C1 73.9455 3.08156 76 5.63925 76H39.994C42.5517 76 44.6333 73.9455 44.6333 71.4223V4.579C44.6334 2.05452 42.5519 0 39.9954 0ZM42.0667 71.421C42.0667 72.5484 41.1376 73.4666 39.9954 73.4666H5.63925C4.49583 73.4666 3.56672 72.5482 3.56672 71.4222V4.579C3.56672 3.45162 4.49583 2.53338 5.63925 2.53338H39.994C41.1375 2.53338 42.0666 3.45177 42.0666 4.579V71.421H42.0667Z" fill="url(#paint3_linear_1062_770)"/>
<path d="M43.0333 7.6001H1.96676C1.25842 7.6001 0.683472 8.16757 0.683472 8.86671V62.0667C0.683472 62.7658 1.25842 63.3333 1.96676 63.3333H43.0335C43.7418 63.3333 44.3168 62.7658 44.3168 62.0667V8.86671C44.3168 8.16757 43.7418 7.6001 43.0333 7.6001ZM41.75 60.8001H3.25004V10.1335H41.75V60.8001Z" fill="url(#paint4_linear_1062_770)"/>
<defs>
<linearGradient id="paint0_linear_1062_770" x1="14.8" y1="5.06642" x2="30.1999" y2="5.06642" gradientUnits="userSpaceOnUse">
<stop stop-color="#41A2BA"/>
<stop offset="1" stop-color="#52A4D7"/>
</linearGradient>
<linearGradient id="paint1_linear_1062_770" x1="35.3335" y1="5.06642" x2="39.1833" y2="5.06642" gradientUnits="userSpaceOnUse">
<stop stop-color="#41A2BA"/>
<stop offset="1" stop-color="#52A4D7"/>
</linearGradient>
<linearGradient id="paint2_linear_1062_770" x1="17.3666" y1="68.4001" x2="27.6331" y2="68.4001" gradientUnits="userSpaceOnUse">
<stop stop-color="#41A2BA"/>
<stop offset="1" stop-color="#52A4D7"/>
</linearGradient>
<linearGradient id="paint3_linear_1062_770" x1="1" y1="37.9999" x2="44.6333" y2="37.9999" gradientUnits="userSpaceOnUse">
<stop stop-color="#41A2BA"/>
<stop offset="1" stop-color="#52A4D7"/>
</linearGradient>
<linearGradient id="paint4_linear_1062_770" x1="0.683472" y1="35.4666" x2="44.3168" y2="35.4666" gradientUnits="userSpaceOnUse">
<stop stop-color="#41A2BA"/>
<stop offset="1" stop-color="#52A4D7"/>
</linearGradient>
</defs>
</svg>
