<svg width="82" height="75" viewBox="0 0 82 75" fill="none" xmlns="http://www.w3.org/2000/svg">
<path d="M22.2071 74.6259C17.3761 74.6363 12.7411 72.7396 9.3329 69.3575L5.33181 65.4052C-1.77749 58.3827 -1.77765 46.997 5.33165 39.9744L5.33181 39.9742L38.0847 7.6208C38.7402 6.95048 39.8216 6.93181 40.5003 7.57935C41.1789 8.22688 41.1978 9.29509 40.5423 9.96557C40.5285 9.97965 40.5146 9.99341 40.5003 10.007L7.74749 42.357C1.97376 48.0623 1.97376 57.3103 7.74749 63.0156L11.7519 66.9713C17.5278 72.6746 26.8899 72.6746 32.6657 66.9713L75.4602 24.6986C79.6232 20.5842 79.6232 13.9157 75.4602 9.80119L72.4569 6.83451C68.2341 2.86165 61.5981 2.86165 57.3755 6.83451L18.9987 44.743C16.4446 47.2656 16.4443 51.3557 18.998 53.8786C18.9982 53.8788 18.9985 53.8791 18.9987 53.8793L21.0008 55.857C23.6031 58.2622 27.6476 58.2622 30.2498 55.857L58.5847 27.8677C59.2402 27.1974 60.3216 27.1787 61.0004 27.8262C61.679 28.4738 61.6977 29.542 61.0423 30.2124C61.0286 30.2265 61.0146 30.2403 61.0004 30.2539L32.6657 58.2434C28.7053 61.9079 22.5457 61.9079 18.5853 58.2434L16.5831 56.2656C12.695 52.4249 12.695 46.1977 16.5831 42.357L54.9598 4.44829C60.4586 -0.983389 69.3737 -0.983389 74.8724 4.44814C74.8724 4.44814 74.8724 4.44814 74.8725 4.44829L77.8759 7.41497C83.3746 12.8467 83.3746 21.653 77.876 27.0847C77.876 27.0847 77.876 27.0847 77.8759 27.0849L35.0814 69.3575C31.6732 72.7396 27.0382 74.6363 22.2071 74.6259Z" fill="url(#paint0_linear_332_162)"/>
<defs>
<linearGradient id="paint0_linear_332_162" x1="-0.000243854" y1="37.5001" x2="81.9999" y2="37.5001" gradientUnits="userSpaceOnUse">
<stop stop-color="#5292C4"/>
<stop offset="1" stop-color="#4B92C6"/>
</linearGradient>
</defs>
</svg>
