<svg width="77" height="79" viewBox="0 0 77 79" fill="none" xmlns="http://www.w3.org/2000/svg">
<path d="M71.3203 43.1221C70.5814 43.1221 69.8397 43.2803 69.163 43.5924C68.6427 41.9431 67.4044 40.8827 65.9875 40.4404V7.2805C65.9874 3.266 62.7152 0 58.6931 0H7.99165C3.96959 0 0.697266 3.266 0.697266 7.2805V11.387C0.697266 13.3155 2.26847 14.8846 4.19981 14.8846H5.70343V72.8349C5.70343 74.7635 7.27463 76.3325 9.20597 76.3325H50.0409C52.7479 78.0866 55.7004 79.0002 58.6998 79C60.3674 79 62.05 78.7178 63.712 78.1412C67.2967 76.8977 70.4995 74.2978 72.7303 70.8203C75.0957 67.1329 76.3308 62.5956 76.3023 57.708V48.2925C76.3023 44.8981 73.796 43.1221 71.3203 43.1221ZM8.78937 72.8349V14.8846H22.9268C23.779 14.8846 24.4698 14.1938 24.4698 13.3417C24.4698 12.4897 23.779 11.7989 22.9268 11.7989H4.19981C3.97407 11.7989 3.7832 11.6102 3.7832 11.3868V7.2805C3.7832 4.96743 5.67103 3.08563 7.99165 3.08563H52.7345C51.8934 4.27217 51.3989 5.71963 51.3989 7.2805V11.387C51.3989 11.6104 51.2082 11.7991 50.9823 11.7991H36.8143C35.9621 11.7991 35.2713 12.4899 35.2713 13.3419C35.2713 14.1939 35.9621 14.8847 36.8143 14.8847H50.9823C52.9136 14.8847 54.4849 13.3157 54.4849 11.3871V7.2805C54.4849 4.96743 56.3727 3.08563 58.6931 3.08563C61.0136 3.08563 62.9014 4.96743 62.9014 7.2805V40.4397C62.6933 40.5046 62.4884 40.5813 62.2897 40.673C61.5861 38.4412 59.5685 37.2838 57.5709 37.2838C56.9266 37.2838 56.2807 37.404 55.6771 37.642V28.9541C55.6771 25.5597 53.1721 23.7836 50.6975 23.7836C48.2227 23.7836 45.7177 25.5596 45.7177 28.9541V51.2486C45.7177 51.9508 45.7305 52.5912 45.7416 53.1562C45.743 53.2171 45.7442 53.2789 45.7453 53.3407L42.1588 49.4958C40.0695 47.2593 37.0485 47.0298 34.8126 48.9382C32.6123 50.8161 31.5988 54.5123 34.0539 57.6632L44.7634 71.4084C45.2727 72.062 45.8023 72.6743 46.3485 73.2469H9.20597C8.98008 73.2469 8.78937 73.0582 8.78937 72.8349ZM73.2163 57.7169C73.2654 66.1205 69.1377 72.9934 62.7005 75.2262C57.2548 77.1148 51.4589 74.9792 47.1977 69.5121L36.4884 55.7671C35.2112 54.1278 35.704 52.2343 36.8162 51.2852C37.0757 51.0638 37.5724 50.7285 38.2001 50.7285C38.702 50.7285 39.2878 50.9428 39.903 51.6013L43.6603 55.6294C44.7208 56.7654 46.0396 58.1792 47.5021 57.5864C48.6672 57.1138 48.7757 55.797 48.8114 55.3643C48.8603 54.7692 48.8456 54.0303 48.8269 53.0948C48.8161 52.5443 48.8036 51.9203 48.8036 51.2488V28.9541C48.8036 26.9697 50.3813 26.8693 50.6975 26.8693C51.0136 26.8693 52.5912 26.9697 52.5912 28.9541V51.0433C52.5912 51.8953 53.2821 52.5861 54.1341 52.5861C54.9862 52.5861 55.6771 51.8953 55.6771 51.0433V42.4543C55.6771 40.4699 57.2548 40.3695 57.5709 40.3695C58.0701 40.3695 58.5466 40.5477 58.8778 40.8587C59.2673 41.2241 59.4648 41.7609 59.4648 42.4545V51.0434C59.4648 51.8954 60.1557 52.5862 61.0078 52.5862C61.8598 52.5862 62.5507 51.8954 62.5507 51.0434V45.3756C62.5507 43.3898 64.1273 43.2892 64.4435 43.2892C64.9428 43.2892 65.4194 43.4677 65.7511 43.7788C66.1409 44.1446 66.3386 44.6818 66.3386 45.3755V51.0433C66.3386 51.8953 67.0295 52.5861 67.8815 52.5861C68.7336 52.5861 69.4245 51.8953 69.4245 51.0433V48.2925C69.4245 46.3082 71.0039 46.2077 71.3205 46.2077C71.8204 46.2077 72.2977 46.3861 72.6292 46.6972C73.0188 47.0624 73.2165 47.5992 73.2165 48.2925L73.2163 57.7169Z" fill="url(#paint0_linear_332_152)"/>
<defs>
<linearGradient id="paint0_linear_332_152" x1="0.697266" y1="39.4999" x2="76.3028" y2="39.4999" gradientUnits="userSpaceOnUse">
<stop stop-color="#599ACD"/>
<stop offset="1" stop-color="#5895CC"/>
</linearGradient>
</defs>
</svg>
