<svg width="89" height="67" viewBox="0 0 89 67" fill="none" xmlns="http://www.w3.org/2000/svg">
<path d="M72.3123 59.458H53.7707C52.7472 59.458 51.9165 58.6273 51.9165 57.6038C51.9165 56.5803 52.7472 55.7497 53.7707 55.7497H72.3123C75.3791 55.7497 77.8748 53.254 77.8748 50.1872V46.4788C77.8748 45.4553 78.7055 44.6247 79.729 44.6247H83.404C84.4275 44.6247 85.2581 43.794 85.2581 42.7705V20.5205C85.2581 19.497 84.4275 18.6663 83.404 18.6663H79.729C78.7055 18.6663 77.8748 17.8357 77.8748 16.8122V13.1038C77.8748 10.037 75.3791 7.54134 72.3123 7.54134H61.1873C60.1638 7.54134 59.3332 6.71067 59.3332 5.68717C59.3332 4.66367 60.1638 3.83301 61.1873 3.83301H72.3123C77.4224 3.83301 81.5832 7.99376 81.5832 13.1038V14.958H83.404C86.4707 14.958 88.9665 17.4537 88.9665 20.5205V42.7705C88.9665 45.8373 86.4707 48.333 83.404 48.333H81.5832V50.1872C81.5832 55.2973 77.4224 59.458 72.3123 59.458Z" fill="url(#paint0_linear_1062_769)"/>
<path d="M24.1042 59.458H9.27083C4.16075 59.458 0 55.2973 0 50.1872V13.1038C0 7.99376 4.16075 3.83301 9.27083 3.83301H35.2292C36.2527 3.83301 37.0833 4.66367 37.0833 5.68717C37.0833 6.71067 36.2527 7.54134 35.2292 7.54134H9.27083C6.20404 7.54134 3.70833 10.037 3.70833 13.1038V50.1872C3.70833 53.254 6.20404 55.7497 9.27083 55.7497H24.1042C25.1277 55.7497 25.9583 56.5803 25.9583 57.6038C25.9583 58.6273 25.1277 59.458 24.1042 59.458Z" fill="url(#paint1_linear_1062_769)"/>
<path d="M34.4985 66.8749C34.2055 66.8749 33.9052 66.8044 33.6307 66.6598C32.8335 66.2371 32.4552 65.2989 32.7408 64.4385L40.506 40.9166H25.9582C25.2685 40.9166 24.638 40.5346 24.3154 39.9227C23.9965 39.3109 24.041 38.5729 24.4341 38.0055L50.118 0.922191C50.6223 0.195357 51.5828 -0.0642261 52.3838 0.276941C53.1959 0.632941 53.6446 1.51182 53.4555 2.37586L48.2342 26.0832H63.0415C63.7461 26.0832 64.3914 26.4837 64.7066 27.1179C65.0181 27.752 64.9402 28.5085 64.51 29.0684L35.967 66.1518C35.6073 66.6227 35.0585 66.8749 34.4985 66.8749ZM29.4997 37.2082H43.0722C43.6692 37.2082 44.2255 37.4938 44.574 37.9759C44.9226 38.4579 45.019 39.0772 44.8299 39.6446L39.6753 55.253L59.2739 29.7916H45.9276C45.3676 29.7916 44.8336 29.5357 44.4813 29.0981C44.129 28.6605 43.9955 28.0857 44.1142 27.5369L47.8077 10.7715L29.4997 37.2082Z" fill="url(#paint2_linear_1062_769)"/>
<defs>
<linearGradient id="paint0_linear_1062_769" x1="51.9165" y1="31.6454" x2="88.9665" y2="31.6454" gradientUnits="userSpaceOnUse">
<stop stop-color="#55A9CC"/>
<stop offset="1" stop-color="#56A5D2"/>
</linearGradient>
<linearGradient id="paint1_linear_1062_769" x1="1.29512e-07" y1="31.6454" x2="37.0833" y2="31.6454" gradientUnits="userSpaceOnUse">
<stop stop-color="#55A9CC"/>
<stop offset="1" stop-color="#56A5D2"/>
</linearGradient>
<linearGradient id="paint2_linear_1062_769" x1="24.1042" y1="33.5016" x2="64.8959" y2="33.5016" gradientUnits="userSpaceOnUse">
<stop stop-color="#55A9CC"/>
<stop offset="1" stop-color="#56A5D2"/>
</linearGradient>
</defs>
</svg>
