<svg width="1504" height="2411" viewBox="0 0 1504 2411" fill="none" xmlns="http://www.w3.org/2000/svg">
<g opacity="0.1">
<path fill-rule="evenodd" clip-rule="evenodd" d="M185.993 1667.62C391.293 1742.34 618.297 1636.49 693.02 1431.19C767.743 1225.89 661.89 998.883 456.59 924.16C251.29 849.437 24.2859 955.291 -50.4372 1160.59C-125.16 1365.89 -19.3068 1592.89 185.993 1667.62ZM170.791 1709.38C399.159 1792.5 651.668 1674.76 734.787 1446.39C817.906 1218.02 700.159 965.512 471.792 882.393C243.424 799.274 -9.08547 917.021 -92.2044 1145.39C-175.323 1373.76 -57.5762 1626.27 170.791 1709.38Z" fill="url(#paint0_radial_332_429)"/>
<path fill-rule="evenodd" clip-rule="evenodd" d="M185.993 1667.62C391.293 1742.34 618.297 1636.49 693.02 1431.19C767.743 1225.89 661.89 998.883 456.59 924.16C251.29 849.437 24.2859 955.291 -50.4372 1160.59C-125.16 1365.89 -19.3068 1592.89 185.993 1667.62ZM170.791 1709.38C399.159 1792.5 651.668 1674.76 734.787 1446.39C817.906 1218.02 700.159 965.512 471.792 882.393C243.424 799.274 -9.08547 917.021 -92.2044 1145.39C-175.323 1373.76 -57.5762 1626.27 170.791 1709.38Z" fill="url(#paint1_radial_332_429)"/>
<path fill-rule="evenodd" clip-rule="evenodd" d="M185.993 1667.62C391.293 1742.34 618.297 1636.49 693.02 1431.19C767.743 1225.89 661.89 998.883 456.59 924.16C251.29 849.437 24.2859 955.291 -50.4372 1160.59C-125.16 1365.89 -19.3068 1592.89 185.993 1667.62ZM170.791 1709.38C399.159 1792.5 651.668 1674.76 734.787 1446.39C817.906 1218.02 700.159 965.512 471.792 882.393C243.424 799.274 -9.08547 917.021 -92.2044 1145.39C-175.323 1373.76 -57.5762 1626.27 170.791 1709.38Z" fill="url(#paint2_radial_332_429)"/>
<path fill-rule="evenodd" clip-rule="evenodd" d="M185.993 1667.62C391.293 1742.34 618.297 1636.49 693.02 1431.19C767.743 1225.89 661.89 998.883 456.59 924.16C251.29 849.437 24.2859 955.291 -50.4372 1160.59C-125.16 1365.89 -19.3068 1592.89 185.993 1667.62ZM170.791 1709.38C399.159 1792.5 651.668 1674.76 734.787 1446.39C817.906 1218.02 700.159 965.512 471.792 882.393C243.424 799.274 -9.08547 917.021 -92.2044 1145.39C-175.323 1373.76 -57.5762 1626.27 170.791 1709.38Z" fill="url(#paint3_radial_332_429)"/>
<path fill-rule="evenodd" clip-rule="evenodd" d="M185.993 1667.62C391.293 1742.34 618.297 1636.49 693.02 1431.19C767.743 1225.89 661.89 998.883 456.59 924.16C251.29 849.437 24.2859 955.291 -50.4372 1160.59C-125.16 1365.89 -19.3068 1592.89 185.993 1667.62ZM170.791 1709.38C399.159 1792.5 651.668 1674.76 734.787 1446.39C817.906 1218.02 700.159 965.512 471.792 882.393C243.424 799.274 -9.08547 917.021 -92.2044 1145.39C-175.323 1373.76 -57.5762 1626.27 170.791 1709.38Z" fill="url(#paint4_radial_332_429)"/>
</g>
<g opacity="0.1">
<path fill-rule="evenodd" clip-rule="evenodd" d="M205.097 1614.53C380.823 1678.49 575.172 1587.76 639.188 1411.88C703.203 1235.99 612.645 1041.56 436.919 977.606C261.194 913.647 66.8448 1004.38 2.82892 1180.26C-61.1869 1356.14 29.3717 1550.57 205.097 1614.53ZM192.074 1650.31C387.544 1721.46 603.729 1620.53 674.938 1424.89C746.147 1229.24 645.413 1012.97 449.943 941.823C254.473 870.678 38.2871 971.604 -32.9216 1167.25C-104.13 1362.89 -3.39643 1579.17 192.074 1650.31Z" fill="url(#paint5_radial_332_429)"/>
<path fill-rule="evenodd" clip-rule="evenodd" d="M205.097 1614.53C380.823 1678.49 575.172 1587.76 639.188 1411.88C703.203 1235.99 612.645 1041.56 436.919 977.606C261.194 913.647 66.8448 1004.38 2.82892 1180.26C-61.1869 1356.14 29.3717 1550.57 205.097 1614.53ZM192.074 1650.31C387.544 1721.46 603.729 1620.53 674.938 1424.89C746.147 1229.24 645.413 1012.97 449.943 941.823C254.473 870.678 38.2871 971.604 -32.9216 1167.25C-104.13 1362.89 -3.39643 1579.17 192.074 1650.31Z" fill="url(#paint6_radial_332_429)"/>
<path fill-rule="evenodd" clip-rule="evenodd" d="M205.097 1614.53C380.823 1678.49 575.172 1587.76 639.188 1411.88C703.203 1235.99 612.645 1041.56 436.919 977.606C261.194 913.647 66.8448 1004.38 2.82892 1180.26C-61.1869 1356.14 29.3717 1550.57 205.097 1614.53ZM192.074 1650.31C387.544 1721.46 603.729 1620.53 674.938 1424.89C746.147 1229.24 645.413 1012.97 449.943 941.823C254.473 870.678 38.2871 971.604 -32.9216 1167.25C-104.13 1362.89 -3.39643 1579.17 192.074 1650.31Z" fill="url(#paint7_radial_332_429)"/>
<path fill-rule="evenodd" clip-rule="evenodd" d="M205.097 1614.53C380.823 1678.49 575.172 1587.76 639.188 1411.88C703.203 1235.99 612.645 1041.56 436.919 977.606C261.194 913.647 66.8448 1004.38 2.82892 1180.26C-61.1869 1356.14 29.3717 1550.57 205.097 1614.53ZM192.074 1650.31C387.544 1721.46 603.729 1620.53 674.938 1424.89C746.147 1229.24 645.413 1012.97 449.943 941.823C254.473 870.678 38.2871 971.604 -32.9216 1167.25C-104.13 1362.89 -3.39643 1579.17 192.074 1650.31Z" fill="url(#paint8_radial_332_429)"/>
<path fill-rule="evenodd" clip-rule="evenodd" d="M205.097 1614.53C380.823 1678.49 575.172 1587.76 639.188 1411.88C703.203 1235.99 612.645 1041.56 436.919 977.606C261.194 913.647 66.8448 1004.38 2.82892 1180.26C-61.1869 1356.14 29.3717 1550.57 205.097 1614.53ZM192.074 1650.31C387.544 1721.46 603.729 1620.53 674.938 1424.89C746.147 1229.24 645.413 1012.97 449.943 941.823C254.473 870.678 38.2871 971.604 -32.9216 1167.25C-104.13 1362.89 -3.39643 1579.17 192.074 1650.31Z" fill="url(#paint9_radial_332_429)"/>
</g>
<g opacity="0.1">
<path fill-rule="evenodd" clip-rule="evenodd" d="M222.422 1566.93C372.172 1621.44 537.707 1544.35 592.154 1394.76C646.602 1245.16 569.344 1079.71 419.594 1025.21C269.844 970.701 104.309 1047.79 49.8612 1197.38C-4.5864 1346.97 72.6715 1512.43 222.422 1566.93ZM211.345 1597.37C377.92 1657.99 562.055 1572.25 622.62 1405.85C683.186 1239.44 597.247 1055.4 430.671 994.771C264.095 934.143 79.9607 1019.89 19.3953 1186.29C-41.17 1352.69 44.7686 1536.74 211.345 1597.37Z" fill="url(#paint10_radial_332_429)"/>
<path fill-rule="evenodd" clip-rule="evenodd" d="M222.422 1566.93C372.172 1621.44 537.707 1544.35 592.154 1394.76C646.602 1245.16 569.344 1079.71 419.594 1025.21C269.844 970.701 104.309 1047.79 49.8612 1197.38C-4.5864 1346.97 72.6715 1512.43 222.422 1566.93ZM211.345 1597.37C377.92 1657.99 562.055 1572.25 622.62 1405.85C683.186 1239.44 597.247 1055.4 430.671 994.771C264.095 934.143 79.9607 1019.89 19.3953 1186.29C-41.17 1352.69 44.7686 1536.74 211.345 1597.37Z" fill="url(#paint11_radial_332_429)"/>
<path fill-rule="evenodd" clip-rule="evenodd" d="M222.422 1566.93C372.172 1621.44 537.707 1544.35 592.154 1394.76C646.602 1245.16 569.344 1079.71 419.594 1025.21C269.844 970.701 104.309 1047.79 49.8612 1197.38C-4.5864 1346.97 72.6715 1512.43 222.422 1566.93ZM211.345 1597.37C377.92 1657.99 562.055 1572.25 622.62 1405.85C683.186 1239.44 597.247 1055.4 430.671 994.771C264.095 934.143 79.9607 1019.89 19.3953 1186.29C-41.17 1352.69 44.7686 1536.74 211.345 1597.37Z" fill="url(#paint12_radial_332_429)"/>
<path fill-rule="evenodd" clip-rule="evenodd" d="M222.422 1566.93C372.172 1621.44 537.707 1544.35 592.154 1394.76C646.602 1245.16 569.344 1079.71 419.594 1025.21C269.844 970.701 104.309 1047.79 49.8612 1197.38C-4.5864 1346.97 72.6715 1512.43 222.422 1566.93ZM211.345 1597.37C377.92 1657.99 562.055 1572.25 622.62 1405.85C683.186 1239.44 597.247 1055.4 430.671 994.771C264.095 934.143 79.9607 1019.89 19.3953 1186.29C-41.17 1352.69 44.7686 1536.74 211.345 1597.37Z" fill="url(#paint13_radial_332_429)"/>
<path fill-rule="evenodd" clip-rule="evenodd" d="M222.422 1566.93C372.172 1621.44 537.707 1544.35 592.154 1394.76C646.602 1245.16 569.344 1079.71 419.594 1025.21C269.844 970.701 104.309 1047.79 49.8612 1197.38C-4.5864 1346.97 72.6715 1512.43 222.422 1566.93ZM211.345 1597.37C377.92 1657.99 562.055 1572.25 622.62 1405.85C683.186 1239.44 597.247 1055.4 430.671 994.771C264.095 934.143 79.9607 1019.89 19.3953 1186.29C-41.17 1352.69 44.7686 1536.74 211.345 1597.37Z" fill="url(#paint14_radial_332_429)"/>
</g>
<g opacity="0.1">
<path fill-rule="evenodd" clip-rule="evenodd" d="M237.272 1526.13C364.489 1572.44 505.109 1506.97 551.355 1379.91C597.602 1252.85 531.962 1112.31 404.744 1066.01C277.527 1019.7 136.907 1085.17 90.6611 1212.23C44.4148 1339.29 110.055 1479.83 237.272 1526.13ZM227.863 1551.98C369.374 1603.49 525.794 1530.67 577.237 1389.33C628.679 1247.99 555.664 1091.66 414.153 1040.16C272.642 988.649 116.222 1061.47 64.7794 1202.81C13.3368 1344.15 86.352 1500.48 227.863 1551.98Z" fill="url(#paint15_radial_332_429)"/>
<path fill-rule="evenodd" clip-rule="evenodd" d="M237.272 1526.13C364.489 1572.44 505.109 1506.97 551.355 1379.91C597.602 1252.85 531.962 1112.31 404.744 1066.01C277.527 1019.7 136.907 1085.17 90.6611 1212.23C44.4148 1339.29 110.055 1479.83 237.272 1526.13ZM227.863 1551.98C369.374 1603.49 525.794 1530.67 577.237 1389.33C628.679 1247.99 555.664 1091.66 414.153 1040.16C272.642 988.649 116.222 1061.47 64.7794 1202.81C13.3368 1344.15 86.352 1500.48 227.863 1551.98Z" fill="url(#paint16_radial_332_429)"/>
<path fill-rule="evenodd" clip-rule="evenodd" d="M237.272 1526.13C364.489 1572.44 505.109 1506.97 551.355 1379.91C597.602 1252.85 531.962 1112.31 404.744 1066.01C277.527 1019.7 136.907 1085.17 90.6611 1212.23C44.4148 1339.29 110.055 1479.83 237.272 1526.13ZM227.863 1551.98C369.374 1603.49 525.794 1530.67 577.237 1389.33C628.679 1247.99 555.664 1091.66 414.153 1040.16C272.642 988.649 116.222 1061.47 64.7794 1202.81C13.3368 1344.15 86.352 1500.48 227.863 1551.98Z" fill="url(#paint17_radial_332_429)"/>
<path fill-rule="evenodd" clip-rule="evenodd" d="M237.272 1526.13C364.489 1572.44 505.109 1506.97 551.355 1379.91C597.602 1252.85 531.962 1112.31 404.744 1066.01C277.527 1019.7 136.907 1085.17 90.6611 1212.23C44.4148 1339.29 110.055 1479.83 237.272 1526.13ZM227.863 1551.98C369.374 1603.49 525.794 1530.67 577.237 1389.33C628.679 1247.99 555.664 1091.66 414.153 1040.16C272.642 988.649 116.222 1061.47 64.7794 1202.81C13.3368 1344.15 86.352 1500.48 227.863 1551.98Z" fill="url(#paint18_radial_332_429)"/>
<path fill-rule="evenodd" clip-rule="evenodd" d="M237.272 1526.13C364.489 1572.44 505.109 1506.97 551.355 1379.91C597.602 1252.85 531.962 1112.31 404.744 1066.01C277.527 1019.7 136.907 1085.17 90.6611 1212.23C44.4148 1339.29 110.055 1479.83 237.272 1526.13ZM227.863 1551.98C369.374 1603.49 525.794 1530.67 577.237 1389.33C628.679 1247.99 555.664 1091.66 414.153 1040.16C272.642 988.649 116.222 1061.47 64.7794 1202.81C13.3368 1344.15 86.352 1500.48 227.863 1551.98Z" fill="url(#paint19_radial_332_429)"/>
</g>
<g opacity="0.1">
<path fill-rule="evenodd" clip-rule="evenodd" d="M248.615 1494.97C358.62 1535 480.208 1478.41 520.189 1368.56C560.17 1258.72 503.406 1137.21 393.401 1097.17C283.396 1057.13 161.809 1113.73 121.827 1223.57C81.846 1333.42 138.611 1454.93 248.615 1494.97ZM240.481 1517.31C362.846 1561.85 498.095 1498.9 542.569 1376.71C587.043 1254.52 523.9 1119.36 401.535 1074.82C279.17 1030.29 143.921 1093.24 99.4476 1215.43C54.9739 1337.62 118.117 1472.78 240.481 1517.31Z" fill="url(#paint20_radial_332_429)"/>
<path fill-rule="evenodd" clip-rule="evenodd" d="M248.615 1494.97C358.62 1535 480.208 1478.41 520.189 1368.56C560.17 1258.72 503.406 1137.21 393.401 1097.17C283.396 1057.13 161.809 1113.73 121.827 1223.57C81.846 1333.42 138.611 1454.93 248.615 1494.97ZM240.481 1517.31C362.846 1561.85 498.095 1498.9 542.569 1376.71C587.043 1254.52 523.9 1119.36 401.535 1074.82C279.17 1030.29 143.921 1093.24 99.4476 1215.43C54.9739 1337.62 118.117 1472.78 240.481 1517.31Z" fill="url(#paint21_radial_332_429)"/>
<path fill-rule="evenodd" clip-rule="evenodd" d="M248.615 1494.97C358.62 1535 480.208 1478.41 520.189 1368.56C560.17 1258.72 503.406 1137.21 393.401 1097.17C283.396 1057.13 161.809 1113.73 121.827 1223.57C81.846 1333.42 138.611 1454.93 248.615 1494.97ZM240.481 1517.31C362.846 1561.85 498.095 1498.9 542.569 1376.71C587.043 1254.52 523.9 1119.36 401.535 1074.82C279.17 1030.29 143.921 1093.24 99.4476 1215.43C54.9739 1337.62 118.117 1472.78 240.481 1517.31Z" fill="url(#paint22_radial_332_429)"/>
<path fill-rule="evenodd" clip-rule="evenodd" d="M248.615 1494.97C358.62 1535 480.208 1478.41 520.189 1368.56C560.17 1258.72 503.406 1137.21 393.401 1097.17C283.396 1057.13 161.809 1113.73 121.827 1223.57C81.846 1333.42 138.611 1454.93 248.615 1494.97ZM240.481 1517.31C362.846 1561.85 498.095 1498.9 542.569 1376.71C587.043 1254.52 523.9 1119.36 401.535 1074.82C279.17 1030.29 143.921 1093.24 99.4476 1215.43C54.9739 1337.62 118.117 1472.78 240.481 1517.31Z" fill="url(#paint23_radial_332_429)"/>
<path fill-rule="evenodd" clip-rule="evenodd" d="M248.615 1494.97C358.62 1535 480.208 1478.41 520.189 1368.56C560.17 1258.72 503.406 1137.21 393.401 1097.17C283.396 1057.13 161.809 1113.73 121.827 1223.57C81.846 1333.42 138.611 1454.93 248.615 1494.97ZM240.481 1517.31C362.846 1561.85 498.095 1498.9 542.569 1376.71C587.043 1254.52 523.9 1119.36 401.535 1074.82C279.17 1030.29 143.921 1093.24 99.4476 1215.43C54.9739 1337.62 118.117 1472.78 240.481 1517.31Z" fill="url(#paint24_radial_332_429)"/>
</g>
<g opacity="0.1">
<path fill-rule="evenodd" clip-rule="evenodd" d="M258.309 1468.33C353.604 1503.02 458.928 1454.01 493.556 1358.87C528.183 1263.73 479.003 1158.49 383.707 1123.8C288.411 1089.12 183.088 1138.13 148.46 1233.27C113.832 1328.4 163.013 1433.65 258.309 1468.33ZM251.264 1487.69C357.267 1526.27 474.425 1471.76 512.943 1365.93C551.462 1260.1 496.755 1143.03 390.752 1104.45C284.749 1065.87 167.591 1120.38 129.073 1226.21C90.5541 1332.04 145.261 1449.11 251.264 1487.69Z" fill="url(#paint25_radial_332_429)"/>
<path fill-rule="evenodd" clip-rule="evenodd" d="M258.309 1468.33C353.604 1503.02 458.928 1454.01 493.556 1358.87C528.183 1263.73 479.003 1158.49 383.707 1123.8C288.411 1089.12 183.088 1138.13 148.46 1233.27C113.832 1328.4 163.013 1433.65 258.309 1468.33ZM251.264 1487.69C357.267 1526.27 474.425 1471.76 512.943 1365.93C551.462 1260.1 496.755 1143.03 390.752 1104.45C284.749 1065.87 167.591 1120.38 129.073 1226.21C90.5541 1332.04 145.261 1449.11 251.264 1487.69Z" fill="url(#paint26_radial_332_429)"/>
<path fill-rule="evenodd" clip-rule="evenodd" d="M258.309 1468.33C353.604 1503.02 458.928 1454.01 493.556 1358.87C528.183 1263.73 479.003 1158.49 383.707 1123.8C288.411 1089.12 183.088 1138.13 148.46 1233.27C113.832 1328.4 163.013 1433.65 258.309 1468.33ZM251.264 1487.69C357.267 1526.27 474.425 1471.76 512.943 1365.93C551.462 1260.1 496.755 1143.03 390.752 1104.45C284.749 1065.87 167.591 1120.38 129.073 1226.21C90.5541 1332.04 145.261 1449.11 251.264 1487.69Z" fill="url(#paint27_radial_332_429)"/>
<path fill-rule="evenodd" clip-rule="evenodd" d="M258.309 1468.33C353.604 1503.02 458.928 1454.01 493.556 1358.87C528.183 1263.73 479.003 1158.49 383.707 1123.8C288.411 1089.12 183.088 1138.13 148.46 1233.27C113.832 1328.4 163.013 1433.65 258.309 1468.33ZM251.264 1487.69C357.267 1526.27 474.425 1471.76 512.943 1365.93C551.462 1260.1 496.755 1143.03 390.752 1104.45C284.749 1065.87 167.591 1120.38 129.073 1226.21C90.5541 1332.04 145.261 1449.11 251.264 1487.69Z" fill="url(#paint28_radial_332_429)"/>
<path fill-rule="evenodd" clip-rule="evenodd" d="M258.309 1468.33C353.604 1503.02 458.928 1454.01 493.556 1358.87C528.183 1263.73 479.003 1158.49 383.707 1123.8C288.411 1089.12 183.088 1138.13 148.46 1233.27C113.832 1328.4 163.013 1433.65 258.309 1468.33ZM251.264 1487.69C357.267 1526.27 474.425 1471.76 512.943 1365.93C551.462 1260.1 496.755 1143.03 390.752 1104.45C284.749 1065.87 167.591 1120.38 129.073 1226.21C90.5541 1332.04 145.261 1449.11 251.264 1487.69Z" fill="url(#paint29_radial_332_429)"/>
</g>
<g opacity="0.1">
<path fill-rule="evenodd" clip-rule="evenodd" d="M266.636 1446.05C349.569 1476.24 441.271 1433.48 471.456 1350.54C501.641 1267.61 458.88 1175.91 375.947 1145.72C293.013 1115.54 201.312 1158.3 171.126 1241.23C140.941 1324.17 183.702 1415.87 266.636 1446.05ZM260.495 1462.93C352.747 1496.5 454.751 1448.94 488.328 1356.68C521.905 1264.43 474.34 1162.43 382.088 1128.85C289.836 1095.27 187.831 1142.84 154.254 1235.09C120.677 1327.34 168.242 1429.35 260.495 1462.93Z" fill="url(#paint30_radial_332_429)"/>
<path fill-rule="evenodd" clip-rule="evenodd" d="M266.636 1446.05C349.569 1476.24 441.271 1433.48 471.456 1350.54C501.641 1267.61 458.88 1175.91 375.947 1145.72C293.013 1115.54 201.312 1158.3 171.126 1241.23C140.941 1324.17 183.702 1415.87 266.636 1446.05ZM260.495 1462.93C352.747 1496.5 454.751 1448.94 488.328 1356.68C521.905 1264.43 474.34 1162.43 382.088 1128.85C289.836 1095.27 187.831 1142.84 154.254 1235.09C120.677 1327.34 168.242 1429.35 260.495 1462.93Z" fill="url(#paint31_radial_332_429)"/>
<path fill-rule="evenodd" clip-rule="evenodd" d="M266.636 1446.05C349.569 1476.24 441.271 1433.48 471.456 1350.54C501.641 1267.61 458.88 1175.91 375.947 1145.72C293.013 1115.54 201.312 1158.3 171.126 1241.23C140.941 1324.17 183.702 1415.87 266.636 1446.05ZM260.495 1462.93C352.747 1496.5 454.751 1448.94 488.328 1356.68C521.905 1264.43 474.34 1162.43 382.088 1128.85C289.836 1095.27 187.831 1142.84 154.254 1235.09C120.677 1327.34 168.242 1429.35 260.495 1462.93Z" fill="url(#paint32_radial_332_429)"/>
<path fill-rule="evenodd" clip-rule="evenodd" d="M266.636 1446.05C349.569 1476.24 441.271 1433.48 471.456 1350.54C501.641 1267.61 458.88 1175.91 375.947 1145.72C293.013 1115.54 201.312 1158.3 171.126 1241.23C140.941 1324.17 183.702 1415.87 266.636 1446.05ZM260.495 1462.93C352.747 1496.5 454.751 1448.94 488.328 1356.68C521.905 1264.43 474.34 1162.43 382.088 1128.85C289.836 1095.27 187.831 1142.84 154.254 1235.09C120.677 1327.34 168.242 1429.35 260.495 1462.93Z" fill="url(#paint33_radial_332_429)"/>
<path fill-rule="evenodd" clip-rule="evenodd" d="M266.636 1446.05C349.569 1476.24 441.271 1433.48 471.456 1350.54C501.641 1267.61 458.88 1175.91 375.947 1145.72C293.013 1115.54 201.312 1158.3 171.126 1241.23C140.941 1324.17 183.702 1415.87 266.636 1446.05ZM260.495 1462.93C352.747 1496.5 454.751 1448.94 488.328 1356.68C521.905 1264.43 474.34 1162.43 382.088 1128.85C289.836 1095.27 187.831 1142.84 154.254 1235.09C120.677 1327.34 168.242 1429.35 260.495 1462.93Z" fill="url(#paint34_radial_332_429)"/>
</g>
<g opacity="0.1">
<path fill-rule="evenodd" clip-rule="evenodd" d="M280.043 1409.22C342.634 1432 411.842 1399.73 434.624 1337.14C457.405 1274.55 425.133 1205.34 362.541 1182.56C299.95 1159.78 230.742 1192.05 207.96 1254.64C185.179 1317.23 217.451 1386.44 280.043 1409.22ZM275.408 1421.95C345.032 1447.3 422.017 1411.4 447.358 1341.77C472.699 1272.15 436.8 1195.16 367.176 1169.82C297.552 1144.48 220.567 1180.38 195.226 1250C169.885 1319.63 205.784 1396.61 275.408 1421.95Z" fill="url(#paint35_radial_332_429)"/>
<path fill-rule="evenodd" clip-rule="evenodd" d="M280.043 1409.22C342.634 1432 411.842 1399.73 434.624 1337.14C457.405 1274.55 425.133 1205.34 362.541 1182.56C299.95 1159.78 230.742 1192.05 207.96 1254.64C185.179 1317.23 217.451 1386.44 280.043 1409.22ZM275.408 1421.95C345.032 1447.3 422.017 1411.4 447.358 1341.77C472.699 1272.15 436.8 1195.16 367.176 1169.82C297.552 1144.48 220.567 1180.38 195.226 1250C169.885 1319.63 205.784 1396.61 275.408 1421.95Z" fill="url(#paint36_radial_332_429)"/>
<path fill-rule="evenodd" clip-rule="evenodd" d="M280.043 1409.22C342.634 1432 411.842 1399.73 434.624 1337.14C457.405 1274.55 425.133 1205.34 362.541 1182.56C299.95 1159.78 230.742 1192.05 207.96 1254.64C185.179 1317.23 217.451 1386.44 280.043 1409.22ZM275.408 1421.95C345.032 1447.3 422.017 1411.4 447.358 1341.77C472.699 1272.15 436.8 1195.16 367.176 1169.82C297.552 1144.48 220.567 1180.38 195.226 1250C169.885 1319.63 205.784 1396.61 275.408 1421.95Z" fill="url(#paint37_radial_332_429)"/>
<path fill-rule="evenodd" clip-rule="evenodd" d="M280.043 1409.22C342.634 1432 411.842 1399.73 434.624 1337.14C457.405 1274.55 425.133 1205.34 362.541 1182.56C299.95 1159.78 230.742 1192.05 207.96 1254.64C185.179 1317.23 217.451 1386.44 280.043 1409.22ZM275.408 1421.95C345.032 1447.3 422.017 1411.4 447.358 1341.77C472.699 1272.15 436.8 1195.16 367.176 1169.82C297.552 1144.48 220.567 1180.38 195.226 1250C169.885 1319.63 205.784 1396.61 275.408 1421.95Z" fill="url(#paint38_radial_332_429)"/>
<path fill-rule="evenodd" clip-rule="evenodd" d="M280.043 1409.22C342.634 1432 411.842 1399.73 434.624 1337.14C457.405 1274.55 425.133 1205.34 362.541 1182.56C299.95 1159.78 230.742 1192.05 207.96 1254.64C185.179 1317.23 217.451 1386.44 280.043 1409.22ZM275.408 1421.95C345.032 1447.3 422.017 1411.4 447.358 1341.77C472.699 1272.15 436.8 1195.16 367.176 1169.82C297.552 1144.48 220.567 1180.38 195.226 1250C169.885 1319.63 205.784 1396.61 275.408 1421.95Z" fill="url(#paint39_radial_332_429)"/>
</g>
<g opacity="0.1">
<path fill-rule="evenodd" clip-rule="evenodd" d="M296.052 1364.63C334.077 1378.47 376.075 1359 389.857 1321.13C403.64 1283.26 383.988 1241.34 345.964 1227.5C307.94 1213.66 265.942 1233.14 252.159 1271.01C238.376 1308.88 258.028 1350.79 296.052 1364.63ZM293.248 1372.34C335.545 1387.73 382.262 1366.07 397.593 1323.94C412.925 1281.82 391.065 1235.19 348.768 1219.8C306.471 1204.4 259.755 1226.07 244.423 1268.19C229.092 1310.32 250.952 1356.94 293.248 1372.34Z" fill="url(#paint40_radial_332_429)"/>
<path fill-rule="evenodd" clip-rule="evenodd" d="M296.052 1364.63C334.077 1378.47 376.075 1359 389.857 1321.13C403.64 1283.26 383.988 1241.34 345.964 1227.5C307.94 1213.66 265.942 1233.14 252.159 1271.01C238.376 1308.88 258.028 1350.79 296.052 1364.63ZM293.248 1372.34C335.545 1387.73 382.262 1366.07 397.593 1323.94C412.925 1281.82 391.065 1235.19 348.768 1219.8C306.471 1204.4 259.755 1226.07 244.423 1268.19C229.092 1310.32 250.952 1356.94 293.248 1372.34Z" fill="url(#paint41_radial_332_429)"/>
<path fill-rule="evenodd" clip-rule="evenodd" d="M296.052 1364.63C334.077 1378.47 376.075 1359 389.857 1321.13C403.64 1283.26 383.988 1241.34 345.964 1227.5C307.94 1213.66 265.942 1233.14 252.159 1271.01C238.376 1308.88 258.028 1350.79 296.052 1364.63ZM293.248 1372.34C335.545 1387.73 382.262 1366.07 397.593 1323.94C412.925 1281.82 391.065 1235.19 348.768 1219.8C306.471 1204.4 259.755 1226.07 244.423 1268.19C229.092 1310.32 250.952 1356.94 293.248 1372.34Z" fill="url(#paint42_radial_332_429)"/>
<path fill-rule="evenodd" clip-rule="evenodd" d="M296.052 1364.63C334.077 1378.47 376.075 1359 389.857 1321.13C403.64 1283.26 383.988 1241.34 345.964 1227.5C307.94 1213.66 265.942 1233.14 252.159 1271.01C238.376 1308.88 258.028 1350.79 296.052 1364.63ZM293.248 1372.34C335.545 1387.73 382.262 1366.07 397.593 1323.94C412.925 1281.82 391.065 1235.19 348.768 1219.8C306.471 1204.4 259.755 1226.07 244.423 1268.19C229.092 1310.32 250.952 1356.94 293.248 1372.34Z" fill="url(#paint43_radial_332_429)"/>
<path fill-rule="evenodd" clip-rule="evenodd" d="M296.052 1364.63C334.077 1378.47 376.075 1359 389.857 1321.13C403.64 1283.26 383.988 1241.34 345.964 1227.5C307.94 1213.66 265.942 1233.14 252.159 1271.01C238.376 1308.88 258.028 1350.79 296.052 1364.63ZM293.248 1372.34C335.545 1387.73 382.262 1366.07 397.593 1323.94C412.925 1281.82 391.065 1235.19 348.768 1219.8C306.471 1204.4 259.755 1226.07 244.423 1268.19C229.092 1310.32 250.952 1356.94 293.248 1372.34Z" fill="url(#paint44_radial_332_429)"/>
</g>
<g opacity="0.4">
<path fill-rule="evenodd" clip-rule="evenodd" d="M217.599 169.723C43.8069 103.011 -151.161 189.816 -217.873 363.608C-284.586 537.4 -197.781 732.368 -23.9885 799.08C149.804 865.793 344.771 778.988 411.484 605.196C478.196 431.404 391.391 236.436 217.599 169.723ZM231.171 134.366C37.852 60.1579 -179.022 156.716 -253.23 350.036C-327.439 543.355 -230.88 760.229 -37.5608 834.438C155.759 908.646 372.633 812.087 446.841 618.768C521.049 425.449 424.491 208.575 231.171 134.366Z" fill="#737373"/>
<path fill-rule="evenodd" clip-rule="evenodd" d="M217.599 169.723C43.8069 103.011 -151.161 189.816 -217.873 363.608C-284.586 537.4 -197.781 732.368 -23.9885 799.08C149.804 865.793 344.771 778.988 411.484 605.196C478.196 431.404 391.391 236.436 217.599 169.723ZM231.171 134.366C37.852 60.1579 -179.022 156.716 -253.23 350.036C-327.439 543.355 -230.88 760.229 -37.5608 834.438C155.759 908.646 372.633 812.087 446.841 618.768C521.049 425.449 424.491 208.575 231.171 134.366Z" fill="url(#paint45_radial_332_429)"/>
<path fill-rule="evenodd" clip-rule="evenodd" d="M217.599 169.723C43.8069 103.011 -151.161 189.816 -217.873 363.608C-284.586 537.4 -197.781 732.368 -23.9885 799.08C149.804 865.793 344.771 778.988 411.484 605.196C478.196 431.404 391.391 236.436 217.599 169.723ZM231.171 134.366C37.852 60.1579 -179.022 156.716 -253.23 350.036C-327.439 543.355 -230.88 760.229 -37.5608 834.438C155.759 908.646 372.633 812.087 446.841 618.768C521.049 425.449 424.491 208.575 231.171 134.366Z" fill="url(#paint46_radial_332_429)"/>
<path fill-rule="evenodd" clip-rule="evenodd" d="M217.599 169.723C43.8069 103.011 -151.161 189.816 -217.873 363.608C-284.586 537.4 -197.781 732.368 -23.9885 799.08C149.804 865.793 344.771 778.988 411.484 605.196C478.196 431.404 391.391 236.436 217.599 169.723ZM231.171 134.366C37.852 60.1579 -179.022 156.716 -253.23 350.036C-327.439 543.355 -230.88 760.229 -37.5608 834.438C155.759 908.646 372.633 812.087 446.841 618.768C521.049 425.449 424.491 208.575 231.171 134.366Z" fill="url(#paint47_radial_332_429)"/>
<path fill-rule="evenodd" clip-rule="evenodd" d="M217.599 169.723C43.8069 103.011 -151.161 189.816 -217.873 363.608C-284.586 537.4 -197.781 732.368 -23.9885 799.08C149.804 865.793 344.771 778.988 411.484 605.196C478.196 431.404 391.391 236.436 217.599 169.723ZM231.171 134.366C37.852 60.1579 -179.022 156.716 -253.23 350.036C-327.439 543.355 -230.88 760.229 -37.5608 834.438C155.759 908.646 372.633 812.087 446.841 618.768C521.049 425.449 424.491 208.575 231.171 134.366Z" fill="url(#paint48_radial_332_429)"/>
<path fill-rule="evenodd" clip-rule="evenodd" d="M217.599 169.723C43.8069 103.011 -151.161 189.816 -217.873 363.608C-284.586 537.4 -197.781 732.368 -23.9885 799.08C149.804 865.793 344.771 778.988 411.484 605.196C478.196 431.404 391.391 236.436 217.599 169.723ZM231.171 134.366C37.852 60.1579 -179.022 156.716 -253.23 350.036C-327.439 543.355 -230.88 760.229 -37.5608 834.438C155.759 908.646 372.633 812.087 446.841 618.768C521.049 425.449 424.491 208.575 231.171 134.366Z" fill="url(#paint49_radial_332_429)"/>
<path fill-rule="evenodd" clip-rule="evenodd" d="M217.599 169.723C43.8069 103.011 -151.161 189.816 -217.873 363.608C-284.586 537.4 -197.781 732.368 -23.9885 799.08C149.804 865.793 344.771 778.988 411.484 605.196C478.196 431.404 391.391 236.436 217.599 169.723ZM231.171 134.366C37.852 60.1579 -179.022 156.716 -253.23 350.036C-327.439 543.355 -230.88 760.229 -37.5608 834.438C155.759 908.646 372.633 812.087 446.841 618.768C521.049 425.449 424.491 208.575 231.171 134.366Z" fill="url(#paint50_radial_332_429)"/>
</g>
<g opacity="0.4">
<path fill-rule="evenodd" clip-rule="evenodd" d="M200.023 214.712C51.2669 157.61 -115.656 232.018 -172.809 380.907C-229.962 529.796 -155.703 696.785 -6.94644 753.887C141.81 810.989 308.733 736.581 365.886 587.692C423.039 438.803 348.78 271.814 200.023 214.712ZM211.651 184.421C46.1801 120.903 -139.498 203.671 -203.073 369.289C-266.648 534.908 -184.045 720.659 -18.574 784.178C146.897 847.696 332.575 764.928 396.15 599.31C459.725 433.691 377.122 247.94 211.651 184.421Z" fill="#737373"/>
<path fill-rule="evenodd" clip-rule="evenodd" d="M200.023 214.712C51.2669 157.61 -115.656 232.018 -172.809 380.907C-229.962 529.796 -155.703 696.785 -6.94644 753.887C141.81 810.989 308.733 736.581 365.886 587.692C423.039 438.803 348.78 271.814 200.023 214.712ZM211.651 184.421C46.1801 120.903 -139.498 203.671 -203.073 369.289C-266.648 534.908 -184.045 720.659 -18.574 784.178C146.897 847.696 332.575 764.928 396.15 599.31C459.725 433.691 377.122 247.94 211.651 184.421Z" fill="url(#paint51_radial_332_429)"/>
<path fill-rule="evenodd" clip-rule="evenodd" d="M200.023 214.712C51.2669 157.61 -115.656 232.018 -172.809 380.907C-229.962 529.796 -155.703 696.785 -6.94644 753.887C141.81 810.989 308.733 736.581 365.886 587.692C423.039 438.803 348.78 271.814 200.023 214.712ZM211.651 184.421C46.1801 120.903 -139.498 203.671 -203.073 369.289C-266.648 534.908 -184.045 720.659 -18.574 784.178C146.897 847.696 332.575 764.928 396.15 599.31C459.725 433.691 377.122 247.94 211.651 184.421Z" fill="url(#paint52_radial_332_429)"/>
<path fill-rule="evenodd" clip-rule="evenodd" d="M200.023 214.712C51.2669 157.61 -115.656 232.018 -172.809 380.907C-229.962 529.796 -155.703 696.785 -6.94644 753.887C141.81 810.989 308.733 736.581 365.886 587.692C423.039 438.803 348.78 271.814 200.023 214.712ZM211.651 184.421C46.1801 120.903 -139.498 203.671 -203.073 369.289C-266.648 534.908 -184.045 720.659 -18.574 784.178C146.897 847.696 332.575 764.928 396.15 599.31C459.725 433.691 377.122 247.94 211.651 184.421Z" fill="url(#paint53_radial_332_429)"/>
<path fill-rule="evenodd" clip-rule="evenodd" d="M200.023 214.712C51.2669 157.61 -115.656 232.018 -172.809 380.907C-229.962 529.796 -155.703 696.785 -6.94644 753.887C141.81 810.989 308.733 736.581 365.886 587.692C423.039 438.803 348.78 271.814 200.023 214.712ZM211.651 184.421C46.1801 120.903 -139.498 203.671 -203.073 369.289C-266.648 534.908 -184.045 720.659 -18.574 784.178C146.897 847.696 332.575 764.928 396.15 599.31C459.725 433.691 377.122 247.94 211.651 184.421Z" fill="url(#paint54_radial_332_429)"/>
<path fill-rule="evenodd" clip-rule="evenodd" d="M200.023 214.712C51.2669 157.61 -115.656 232.018 -172.809 380.907C-229.962 529.796 -155.703 696.785 -6.94644 753.887C141.81 810.989 308.733 736.581 365.886 587.692C423.039 438.803 348.78 271.814 200.023 214.712ZM211.651 184.421C46.1801 120.903 -139.498 203.671 -203.073 369.289C-266.648 534.908 -184.045 720.659 -18.574 784.178C146.897 847.696 332.575 764.928 396.15 599.31C459.725 433.691 377.122 247.94 211.651 184.421Z" fill="url(#paint55_radial_332_429)"/>
<path fill-rule="evenodd" clip-rule="evenodd" d="M200.023 214.712C51.2669 157.61 -115.656 232.018 -172.809 380.907C-229.962 529.796 -155.703 696.785 -6.94644 753.887C141.81 810.989 308.733 736.581 365.886 587.692C423.039 438.803 348.78 271.814 200.023 214.712ZM211.651 184.421C46.1801 120.903 -139.498 203.671 -203.073 369.289C-266.648 534.908 -184.045 720.659 -18.574 784.178C146.897 847.696 332.575 764.928 396.15 599.31C459.725 433.691 377.122 247.94 211.651 184.421Z" fill="url(#paint56_radial_332_429)"/>
</g>
<g opacity="0.4">
<path fill-rule="evenodd" clip-rule="evenodd" d="M184.556 255.006C57.7887 206.345 -84.3836 269.555 -132.994 396.19C-181.605 522.825 -118.246 664.931 8.5214 713.593C135.289 762.254 277.461 699.044 326.072 572.409C374.683 445.774 311.324 303.668 184.556 255.006ZM194.446 229.243C53.4347 175.114 -104.712 245.426 -158.784 386.29C-212.857 527.154 -142.379 685.227 -1.3682 739.356C139.643 793.485 297.79 723.173 351.862 582.309C405.935 441.445 335.457 283.372 194.446 229.243Z" fill="#737373"/>
<path fill-rule="evenodd" clip-rule="evenodd" d="M184.556 255.006C57.7887 206.345 -84.3836 269.555 -132.994 396.19C-181.605 522.825 -118.246 664.931 8.5214 713.593C135.289 762.254 277.461 699.044 326.072 572.409C374.683 445.774 311.324 303.668 184.556 255.006ZM194.446 229.243C53.4347 175.114 -104.712 245.426 -158.784 386.29C-212.857 527.154 -142.379 685.227 -1.3682 739.356C139.643 793.485 297.79 723.173 351.862 582.309C405.935 441.445 335.457 283.372 194.446 229.243Z" fill="url(#paint57_radial_332_429)"/>
<path fill-rule="evenodd" clip-rule="evenodd" d="M184.556 255.006C57.7887 206.345 -84.3836 269.555 -132.994 396.19C-181.605 522.825 -118.246 664.931 8.5214 713.593C135.289 762.254 277.461 699.044 326.072 572.409C374.683 445.774 311.324 303.668 184.556 255.006ZM194.446 229.243C53.4347 175.114 -104.712 245.426 -158.784 386.29C-212.857 527.154 -142.379 685.227 -1.3682 739.356C139.643 793.485 297.79 723.173 351.862 582.309C405.935 441.445 335.457 283.372 194.446 229.243Z" fill="url(#paint58_radial_332_429)"/>
<path fill-rule="evenodd" clip-rule="evenodd" d="M184.556 255.006C57.7887 206.345 -84.3836 269.555 -132.994 396.19C-181.605 522.825 -118.246 664.931 8.5214 713.593C135.289 762.254 277.461 699.044 326.072 572.409C374.683 445.774 311.324 303.668 184.556 255.006ZM194.446 229.243C53.4347 175.114 -104.712 245.426 -158.784 386.29C-212.857 527.154 -142.379 685.227 -1.3682 739.356C139.643 793.485 297.79 723.173 351.862 582.309C405.935 441.445 335.457 283.372 194.446 229.243Z" fill="url(#paint59_radial_332_429)"/>
<path fill-rule="evenodd" clip-rule="evenodd" d="M184.556 255.006C57.7887 206.345 -84.3836 269.555 -132.994 396.19C-181.605 522.825 -118.246 664.931 8.5214 713.593C135.289 762.254 277.461 699.044 326.072 572.409C374.683 445.774 311.324 303.668 184.556 255.006ZM194.446 229.243C53.4347 175.114 -104.712 245.426 -158.784 386.29C-212.857 527.154 -142.379 685.227 -1.3682 739.356C139.643 793.485 297.79 723.173 351.862 582.309C405.935 441.445 335.457 283.372 194.446 229.243Z" fill="url(#paint60_radial_332_429)"/>
<path fill-rule="evenodd" clip-rule="evenodd" d="M184.556 255.006C57.7887 206.345 -84.3836 269.555 -132.994 396.19C-181.605 522.825 -118.246 664.931 8.5214 713.593C135.289 762.254 277.461 699.044 326.072 572.409C374.683 445.774 311.324 303.668 184.556 255.006ZM194.446 229.243C53.4347 175.114 -104.712 245.426 -158.784 386.29C-212.857 527.154 -142.379 685.227 -1.3682 739.356C139.643 793.485 297.79 723.173 351.862 582.309C405.935 441.445 335.457 283.372 194.446 229.243Z" fill="url(#paint61_radial_332_429)"/>
<path fill-rule="evenodd" clip-rule="evenodd" d="M184.556 255.006C57.7887 206.345 -84.3836 269.555 -132.994 396.19C-181.605 522.825 -118.246 664.931 8.5214 713.593C135.289 762.254 277.461 699.044 326.072 572.409C374.683 445.774 311.324 303.668 184.556 255.006ZM194.446 229.243C53.4347 175.114 -104.712 245.426 -158.784 386.29C-212.857 527.154 -142.379 685.227 -1.3682 739.356C139.643 793.485 297.79 723.173 351.862 582.309C405.935 441.445 335.457 283.372 194.446 229.243Z" fill="url(#paint62_radial_332_429)"/>
</g>
<g opacity="0.4">
<path fill-rule="evenodd" clip-rule="evenodd" d="M171.298 289.545C63.6052 248.205 -57.1681 301.888 -98.4567 409.448C-139.745 517.009 -85.9139 637.716 21.7789 679.055C129.472 720.395 250.245 666.712 291.534 559.152C332.822 451.591 278.991 330.884 171.298 289.545ZM179.698 267.662C59.9048 221.678 -74.4385 281.392 -120.366 401.038C-166.294 520.684 -106.414 654.954 13.379 700.938C133.172 746.922 267.515 687.208 313.443 567.562C359.371 447.916 299.491 313.646 179.698 267.662Z" fill="#737373"/>
<path fill-rule="evenodd" clip-rule="evenodd" d="M171.298 289.545C63.6052 248.205 -57.1681 301.888 -98.4567 409.448C-139.745 517.009 -85.9139 637.716 21.7789 679.055C129.472 720.395 250.245 666.712 291.534 559.152C332.822 451.591 278.991 330.884 171.298 289.545ZM179.698 267.662C59.9048 221.678 -74.4385 281.392 -120.366 401.038C-166.294 520.684 -106.414 654.954 13.379 700.938C133.172 746.922 267.515 687.208 313.443 567.562C359.371 447.916 299.491 313.646 179.698 267.662Z" fill="url(#paint63_radial_332_429)"/>
<path fill-rule="evenodd" clip-rule="evenodd" d="M171.298 289.545C63.6052 248.205 -57.1681 301.888 -98.4567 409.448C-139.745 517.009 -85.9139 637.716 21.7789 679.055C129.472 720.395 250.245 666.712 291.534 559.152C332.822 451.591 278.991 330.884 171.298 289.545ZM179.698 267.662C59.9048 221.678 -74.4385 281.392 -120.366 401.038C-166.294 520.684 -106.414 654.954 13.379 700.938C133.172 746.922 267.515 687.208 313.443 567.562C359.371 447.916 299.491 313.646 179.698 267.662Z" fill="url(#paint64_radial_332_429)"/>
<path fill-rule="evenodd" clip-rule="evenodd" d="M171.298 289.545C63.6052 248.205 -57.1681 301.888 -98.4567 409.448C-139.745 517.009 -85.9139 637.716 21.7789 679.055C129.472 720.395 250.245 666.712 291.534 559.152C332.822 451.591 278.991 330.884 171.298 289.545ZM179.698 267.662C59.9048 221.678 -74.4385 281.392 -120.366 401.038C-166.294 520.684 -106.414 654.954 13.379 700.938C133.172 746.922 267.515 687.208 313.443 567.562C359.371 447.916 299.491 313.646 179.698 267.662Z" fill="url(#paint65_radial_332_429)"/>
<path fill-rule="evenodd" clip-rule="evenodd" d="M171.298 289.545C63.6052 248.205 -57.1681 301.888 -98.4567 409.448C-139.745 517.009 -85.9139 637.716 21.7789 679.055C129.472 720.395 250.245 666.712 291.534 559.152C332.822 451.591 278.991 330.884 171.298 289.545ZM179.698 267.662C59.9048 221.678 -74.4385 281.392 -120.366 401.038C-166.294 520.684 -106.414 654.954 13.379 700.938C133.172 746.922 267.515 687.208 313.443 567.562C359.371 447.916 299.491 313.646 179.698 267.662Z" fill="url(#paint66_radial_332_429)"/>
<path fill-rule="evenodd" clip-rule="evenodd" d="M171.298 289.545C63.6052 248.205 -57.1681 301.888 -98.4567 409.448C-139.745 517.009 -85.9139 637.716 21.7789 679.055C129.472 720.395 250.245 666.712 291.534 559.152C332.822 451.591 278.991 330.884 171.298 289.545ZM179.698 267.662C59.9048 221.678 -74.4385 281.392 -120.366 401.038C-166.294 520.684 -106.414 654.954 13.379 700.938C133.172 746.922 267.515 687.208 313.443 567.562C359.371 447.916 299.491 313.646 179.698 267.662Z" fill="url(#paint67_radial_332_429)"/>
<path fill-rule="evenodd" clip-rule="evenodd" d="M171.298 289.545C63.6052 248.205 -57.1681 301.888 -98.4567 409.448C-139.745 517.009 -85.9139 637.716 21.7789 679.055C129.472 720.395 250.245 666.712 291.534 559.152C332.822 451.591 278.991 330.884 171.298 289.545ZM179.698 267.662C59.9048 221.678 -74.4385 281.392 -120.366 401.038C-166.294 520.684 -106.414 654.954 13.379 700.938C133.172 746.922 267.515 687.208 313.443 567.562C359.371 447.916 299.491 313.646 179.698 267.662Z" fill="url(#paint68_radial_332_429)"/>
</g>
<g opacity="0.4">
<path fill-rule="evenodd" clip-rule="evenodd" d="M161.17 315.928C68.0486 280.182 -36.3784 326.587 -72.0737 419.576C-107.769 512.565 -61.2155 616.926 31.9063 652.672C125.028 688.418 229.455 642.014 265.15 549.024C300.846 456.035 254.292 351.674 161.17 315.928ZM168.432 297.01C64.8474 257.247 -51.3128 308.866 -91.0188 412.304C-130.725 515.741 -78.9407 631.828 24.6443 671.591C128.229 711.353 244.39 659.734 284.096 556.297C323.802 452.859 272.017 336.772 168.432 297.01Z" fill="#737373"/>
<path fill-rule="evenodd" clip-rule="evenodd" d="M161.17 315.928C68.0486 280.182 -36.3784 326.587 -72.0737 419.576C-107.769 512.565 -61.2155 616.926 31.9063 652.672C125.028 688.418 229.455 642.014 265.15 549.024C300.846 456.035 254.292 351.674 161.17 315.928ZM168.432 297.01C64.8474 257.247 -51.3128 308.866 -91.0188 412.304C-130.725 515.741 -78.9407 631.828 24.6443 671.591C128.229 711.353 244.39 659.734 284.096 556.297C323.802 452.859 272.017 336.772 168.432 297.01Z" fill="url(#paint69_radial_332_429)"/>
<path fill-rule="evenodd" clip-rule="evenodd" d="M161.17 315.928C68.0486 280.182 -36.3784 326.587 -72.0737 419.576C-107.769 512.565 -61.2155 616.926 31.9063 652.672C125.028 688.418 229.455 642.014 265.15 549.024C300.846 456.035 254.292 351.674 161.17 315.928ZM168.432 297.01C64.8474 257.247 -51.3128 308.866 -91.0188 412.304C-130.725 515.741 -78.9407 631.828 24.6443 671.591C128.229 711.353 244.39 659.734 284.096 556.297C323.802 452.859 272.017 336.772 168.432 297.01Z" fill="url(#paint70_radial_332_429)"/>
<path fill-rule="evenodd" clip-rule="evenodd" d="M161.17 315.928C68.0486 280.182 -36.3784 326.587 -72.0737 419.576C-107.769 512.565 -61.2155 616.926 31.9063 652.672C125.028 688.418 229.455 642.014 265.15 549.024C300.846 456.035 254.292 351.674 161.17 315.928ZM168.432 297.01C64.8474 257.247 -51.3128 308.866 -91.0188 412.304C-130.725 515.741 -78.9407 631.828 24.6443 671.591C128.229 711.353 244.39 659.734 284.096 556.297C323.802 452.859 272.017 336.772 168.432 297.01Z" fill="url(#paint71_radial_332_429)"/>
<path fill-rule="evenodd" clip-rule="evenodd" d="M161.17 315.928C68.0486 280.182 -36.3784 326.587 -72.0737 419.576C-107.769 512.565 -61.2155 616.926 31.9063 652.672C125.028 688.418 229.455 642.014 265.15 549.024C300.846 456.035 254.292 351.674 161.17 315.928ZM168.432 297.01C64.8474 257.247 -51.3128 308.866 -91.0188 412.304C-130.725 515.741 -78.9407 631.828 24.6443 671.591C128.229 711.353 244.39 659.734 284.096 556.297C323.802 452.859 272.017 336.772 168.432 297.01Z" fill="url(#paint72_radial_332_429)"/>
<path fill-rule="evenodd" clip-rule="evenodd" d="M161.17 315.928C68.0486 280.182 -36.3784 326.587 -72.0737 419.576C-107.769 512.565 -61.2155 616.926 31.9063 652.672C125.028 688.418 229.455 642.014 265.15 549.024C300.846 456.035 254.292 351.674 161.17 315.928ZM168.432 297.01C64.8474 257.247 -51.3128 308.866 -91.0188 412.304C-130.725 515.741 -78.9407 631.828 24.6443 671.591C128.229 711.353 244.39 659.734 284.096 556.297C323.802 452.859 272.017 336.772 168.432 297.01Z" fill="url(#paint73_radial_332_429)"/>
<path fill-rule="evenodd" clip-rule="evenodd" d="M161.17 315.928C68.0486 280.182 -36.3784 326.587 -72.0737 419.576C-107.769 512.565 -61.2155 616.926 31.9063 652.672C125.028 688.418 229.455 642.014 265.15 549.024C300.846 456.035 254.292 351.674 161.17 315.928ZM168.432 297.01C64.8474 257.247 -51.3128 308.866 -91.0188 412.304C-130.725 515.741 -78.9407 631.828 24.6443 671.591C128.229 711.353 244.39 659.734 284.096 556.297C323.802 452.859 272.017 336.772 168.432 297.01Z" fill="url(#paint74_radial_332_429)"/>
</g>
<g opacity="0.4">
<path fill-rule="evenodd" clip-rule="evenodd" d="M152.516 338.473C71.8457 307.507 -18.6125 347.693 -49.5281 428.23C-80.4436 508.768 -40.1095 599.16 40.5608 630.127C121.231 661.093 211.689 620.908 242.605 540.37C273.52 459.832 233.186 369.44 152.516 338.473ZM158.806 322.088C69.0713 287.643 -31.5508 332.343 -65.94 421.93C-100.329 511.517 -55.4632 612.066 34.2712 646.512C124.006 680.958 224.628 636.257 259.017 546.67C293.406 457.083 248.54 356.534 158.806 322.088Z" fill="#737373"/>
<path fill-rule="evenodd" clip-rule="evenodd" d="M152.516 338.473C71.8457 307.507 -18.6125 347.693 -49.5281 428.23C-80.4436 508.768 -40.1095 599.16 40.5608 630.127C121.231 661.093 211.689 620.908 242.605 540.37C273.52 459.832 233.186 369.44 152.516 338.473ZM158.806 322.088C69.0713 287.643 -31.5508 332.343 -65.94 421.93C-100.329 511.517 -55.4632 612.066 34.2712 646.512C124.006 680.958 224.628 636.257 259.017 546.67C293.406 457.083 248.54 356.534 158.806 322.088Z" fill="url(#paint75_radial_332_429)"/>
<path fill-rule="evenodd" clip-rule="evenodd" d="M152.516 338.473C71.8457 307.507 -18.6125 347.693 -49.5281 428.23C-80.4436 508.768 -40.1095 599.16 40.5608 630.127C121.231 661.093 211.689 620.908 242.605 540.37C273.52 459.832 233.186 369.44 152.516 338.473ZM158.806 322.088C69.0713 287.643 -31.5508 332.343 -65.94 421.93C-100.329 511.517 -55.4632 612.066 34.2712 646.512C124.006 680.958 224.628 636.257 259.017 546.67C293.406 457.083 248.54 356.534 158.806 322.088Z" fill="url(#paint76_radial_332_429)"/>
<path fill-rule="evenodd" clip-rule="evenodd" d="M152.516 338.473C71.8457 307.507 -18.6125 347.693 -49.5281 428.23C-80.4436 508.768 -40.1095 599.16 40.5608 630.127C121.231 661.093 211.689 620.908 242.605 540.37C273.52 459.832 233.186 369.44 152.516 338.473ZM158.806 322.088C69.0713 287.643 -31.5508 332.343 -65.94 421.93C-100.329 511.517 -55.4632 612.066 34.2712 646.512C124.006 680.958 224.628 636.257 259.017 546.67C293.406 457.083 248.54 356.534 158.806 322.088Z" fill="url(#paint77_radial_332_429)"/>
<path fill-rule="evenodd" clip-rule="evenodd" d="M152.516 338.473C71.8457 307.507 -18.6125 347.693 -49.5281 428.23C-80.4436 508.768 -40.1095 599.16 40.5608 630.127C121.231 661.093 211.689 620.908 242.605 540.37C273.52 459.832 233.186 369.44 152.516 338.473ZM158.806 322.088C69.0713 287.643 -31.5508 332.343 -65.94 421.93C-100.329 511.517 -55.4632 612.066 34.2712 646.512C124.006 680.958 224.628 636.257 259.017 546.67C293.406 457.083 248.54 356.534 158.806 322.088Z" fill="url(#paint78_radial_332_429)"/>
<path fill-rule="evenodd" clip-rule="evenodd" d="M152.516 338.473C71.8457 307.507 -18.6125 347.693 -49.5281 428.23C-80.4436 508.768 -40.1095 599.16 40.5608 630.127C121.231 661.093 211.689 620.908 242.605 540.37C273.52 459.832 233.186 369.44 152.516 338.473ZM158.806 322.088C69.0713 287.643 -31.5508 332.343 -65.94 421.93C-100.329 511.517 -55.4632 612.066 34.2712 646.512C124.006 680.958 224.628 636.257 259.017 546.67C293.406 457.083 248.54 356.534 158.806 322.088Z" fill="url(#paint79_radial_332_429)"/>
<path fill-rule="evenodd" clip-rule="evenodd" d="M152.516 338.473C71.8457 307.507 -18.6125 347.693 -49.5281 428.23C-80.4436 508.768 -40.1095 599.16 40.5608 630.127C121.231 661.093 211.689 620.908 242.605 540.37C273.52 459.832 233.186 369.44 152.516 338.473ZM158.806 322.088C69.0713 287.643 -31.5508 332.343 -65.94 421.93C-100.329 511.517 -55.4632 612.066 34.2712 646.512C124.006 680.958 224.628 636.257 259.017 546.67C293.406 457.083 248.54 356.534 158.806 322.088Z" fill="url(#paint80_radial_332_429)"/>
</g>
<g opacity="0.4">
<path fill-rule="evenodd" clip-rule="evenodd" d="M145.601 357.284C75.3956 330.334 -3.36419 365.401 -30.3136 435.606C-57.2631 505.812 -22.1969 584.572 48.0087 611.521C118.214 638.471 196.974 603.404 223.924 533.199C250.873 462.993 215.807 384.233 145.601 357.284ZM151.084 343.001C72.99 313.023 -14.6191 352.03 -44.5966 430.124C-74.5741 508.217 -35.568 595.827 42.526 625.804C120.62 655.782 208.229 616.775 238.207 538.682C268.184 460.588 229.178 372.978 151.084 343.001Z" fill="#737373"/>
<path fill-rule="evenodd" clip-rule="evenodd" d="M145.601 357.284C75.3956 330.334 -3.36419 365.401 -30.3136 435.606C-57.2631 505.812 -22.1969 584.572 48.0087 611.521C118.214 638.471 196.974 603.404 223.924 533.199C250.873 462.993 215.807 384.233 145.601 357.284ZM151.084 343.001C72.99 313.023 -14.6191 352.03 -44.5966 430.124C-74.5741 508.217 -35.568 595.827 42.526 625.804C120.62 655.782 208.229 616.775 238.207 538.682C268.184 460.588 229.178 372.978 151.084 343.001Z" fill="url(#paint81_radial_332_429)"/>
<path fill-rule="evenodd" clip-rule="evenodd" d="M145.601 357.284C75.3956 330.334 -3.36419 365.401 -30.3136 435.606C-57.2631 505.812 -22.1969 584.572 48.0087 611.521C118.214 638.471 196.974 603.404 223.924 533.199C250.873 462.993 215.807 384.233 145.601 357.284ZM151.084 343.001C72.99 313.023 -14.6191 352.03 -44.5966 430.124C-74.5741 508.217 -35.568 595.827 42.526 625.804C120.62 655.782 208.229 616.775 238.207 538.682C268.184 460.588 229.178 372.978 151.084 343.001Z" fill="url(#paint82_radial_332_429)"/>
<path fill-rule="evenodd" clip-rule="evenodd" d="M145.601 357.284C75.3956 330.334 -3.36419 365.401 -30.3136 435.606C-57.2631 505.812 -22.1969 584.572 48.0087 611.521C118.214 638.471 196.974 603.404 223.924 533.199C250.873 462.993 215.807 384.233 145.601 357.284ZM151.084 343.001C72.99 313.023 -14.6191 352.03 -44.5966 430.124C-74.5741 508.217 -35.568 595.827 42.526 625.804C120.62 655.782 208.229 616.775 238.207 538.682C268.184 460.588 229.178 372.978 151.084 343.001Z" fill="url(#paint83_radial_332_429)"/>
<path fill-rule="evenodd" clip-rule="evenodd" d="M145.601 357.284C75.3956 330.334 -3.36419 365.401 -30.3136 435.606C-57.2631 505.812 -22.1969 584.572 48.0087 611.521C118.214 638.471 196.974 603.404 223.924 533.199C250.873 462.993 215.807 384.233 145.601 357.284ZM151.084 343.001C72.99 313.023 -14.6191 352.03 -44.5966 430.124C-74.5741 508.217 -35.568 595.827 42.526 625.804C120.62 655.782 208.229 616.775 238.207 538.682C268.184 460.588 229.178 372.978 151.084 343.001Z" fill="url(#paint84_radial_332_429)"/>
<path fill-rule="evenodd" clip-rule="evenodd" d="M145.601 357.284C75.3956 330.334 -3.36419 365.401 -30.3136 435.606C-57.2631 505.812 -22.1969 584.572 48.0087 611.521C118.214 638.471 196.974 603.404 223.924 533.199C250.873 462.993 215.807 384.233 145.601 357.284ZM151.084 343.001C72.99 313.023 -14.6191 352.03 -44.5966 430.124C-74.5741 508.217 -35.568 595.827 42.526 625.804C120.62 655.782 208.229 616.775 238.207 538.682C268.184 460.588 229.178 372.978 151.084 343.001Z" fill="url(#paint85_radial_332_429)"/>
<path fill-rule="evenodd" clip-rule="evenodd" d="M145.601 357.284C75.3956 330.334 -3.36419 365.401 -30.3136 435.606C-57.2631 505.812 -22.1969 584.572 48.0087 611.521C118.214 638.471 196.974 603.404 223.924 533.199C250.873 462.993 215.807 384.233 145.601 357.284ZM151.084 343.001C72.99 313.023 -14.6191 352.03 -44.5966 430.124C-74.5741 508.217 -35.568 595.827 42.526 625.804C120.62 655.782 208.229 616.775 238.207 538.682C268.184 460.588 229.178 372.978 151.084 343.001Z" fill="url(#paint86_radial_332_429)"/>
</g>
<g opacity="0.4">
<path fill-rule="evenodd" clip-rule="evenodd" d="M133.633 388.464C80.6472 368.125 21.2058 394.59 0.866623 447.575C-19.4726 500.56 6.99242 560.002 59.9778 580.341C112.963 600.68 172.405 574.215 192.744 521.23C213.083 468.244 186.618 408.803 133.633 388.464ZM137.77 377.684C78.8316 355.06 12.7115 384.498 -9.91299 443.437C-32.5375 502.376 -3.09891 568.496 55.8399 591.121C114.779 613.745 180.899 584.306 203.523 525.368C226.148 466.429 196.709 400.309 137.77 377.684Z" fill="#737373"/>
<path fill-rule="evenodd" clip-rule="evenodd" d="M133.633 388.464C80.6472 368.125 21.2058 394.59 0.866623 447.575C-19.4726 500.56 6.99242 560.002 59.9778 580.341C112.963 600.68 172.405 574.215 192.744 521.23C213.083 468.244 186.618 408.803 133.633 388.464ZM137.77 377.684C78.8316 355.06 12.7115 384.498 -9.91299 443.437C-32.5375 502.376 -3.09891 568.496 55.8399 591.121C114.779 613.745 180.899 584.306 203.523 525.368C226.148 466.429 196.709 400.309 137.77 377.684Z" fill="url(#paint87_radial_332_429)"/>
<path fill-rule="evenodd" clip-rule="evenodd" d="M133.633 388.464C80.6472 368.125 21.2058 394.59 0.866623 447.575C-19.4726 500.56 6.99242 560.002 59.9778 580.341C112.963 600.68 172.405 574.215 192.744 521.23C213.083 468.244 186.618 408.803 133.633 388.464ZM137.77 377.684C78.8316 355.06 12.7115 384.498 -9.91299 443.437C-32.5375 502.376 -3.09891 568.496 55.8399 591.121C114.779 613.745 180.899 584.306 203.523 525.368C226.148 466.429 196.709 400.309 137.77 377.684Z" fill="url(#paint88_radial_332_429)"/>
<path fill-rule="evenodd" clip-rule="evenodd" d="M133.633 388.464C80.6472 368.125 21.2058 394.59 0.866623 447.575C-19.4726 500.56 6.99242 560.002 59.9778 580.341C112.963 600.68 172.405 574.215 192.744 521.23C213.083 468.244 186.618 408.803 133.633 388.464ZM137.77 377.684C78.8316 355.06 12.7115 384.498 -9.91299 443.437C-32.5375 502.376 -3.09891 568.496 55.8399 591.121C114.779 613.745 180.899 584.306 203.523 525.368C226.148 466.429 196.709 400.309 137.77 377.684Z" fill="url(#paint89_radial_332_429)"/>
<path fill-rule="evenodd" clip-rule="evenodd" d="M133.633 388.464C80.6472 368.125 21.2058 394.59 0.866623 447.575C-19.4726 500.56 6.99242 560.002 59.9778 580.341C112.963 600.68 172.405 574.215 192.744 521.23C213.083 468.244 186.618 408.803 133.633 388.464ZM137.77 377.684C78.8316 355.06 12.7115 384.498 -9.91299 443.437C-32.5375 502.376 -3.09891 568.496 55.8399 591.121C114.779 613.745 180.899 584.306 203.523 525.368C226.148 466.429 196.709 400.309 137.77 377.684Z" fill="url(#paint90_radial_332_429)"/>
<path fill-rule="evenodd" clip-rule="evenodd" d="M133.633 388.464C80.6472 368.125 21.2058 394.59 0.866623 447.575C-19.4726 500.56 6.99242 560.002 59.9778 580.341C112.963 600.68 172.405 574.215 192.744 521.23C213.083 468.244 186.618 408.803 133.633 388.464ZM137.77 377.684C78.8316 355.06 12.7115 384.498 -9.91299 443.437C-32.5375 502.376 -3.09891 568.496 55.8399 591.121C114.779 613.745 180.899 584.306 203.523 525.368C226.148 466.429 196.709 400.309 137.77 377.684Z" fill="url(#paint91_radial_332_429)"/>
<path fill-rule="evenodd" clip-rule="evenodd" d="M133.633 388.464C80.6472 368.125 21.2058 394.59 0.866623 447.575C-19.4726 500.56 6.99242 560.002 59.9778 580.341C112.963 600.68 172.405 574.215 192.744 521.23C213.083 468.244 186.618 408.803 133.633 388.464ZM137.77 377.684C78.8316 355.06 12.7115 384.498 -9.91299 443.437C-32.5375 502.376 -3.09891 568.496 55.8399 591.121C114.779 613.745 180.899 584.306 203.523 525.368C226.148 466.429 196.709 400.309 137.77 377.684Z" fill="url(#paint92_radial_332_429)"/>
</g>
<g opacity="0.4">
<path fill-rule="evenodd" clip-rule="evenodd" d="M118.819 426.257C86.6302 413.901 50.5608 429.871 38.2556 461.927C25.9504 493.983 42.0691 529.987 74.2577 542.343C106.446 554.699 142.516 538.729 154.821 506.672C167.126 474.616 151.007 438.613 118.819 426.257ZM121.322 419.735C85.5169 405.991 45.3948 423.755 31.707 459.413C18.0191 495.071 35.9489 535.12 71.7543 548.864C107.56 562.609 147.682 544.844 161.37 509.186C175.057 473.528 157.128 433.48 121.322 419.735Z" fill="#737373"/>
<path fill-rule="evenodd" clip-rule="evenodd" d="M118.819 426.257C86.6302 413.901 50.5608 429.871 38.2556 461.927C25.9504 493.983 42.0691 529.987 74.2577 542.343C106.446 554.699 142.516 538.729 154.821 506.672C167.126 474.616 151.007 438.613 118.819 426.257ZM121.322 419.735C85.5169 405.991 45.3948 423.755 31.707 459.413C18.0191 495.071 35.9489 535.12 71.7543 548.864C107.56 562.609 147.682 544.844 161.37 509.186C175.057 473.528 157.128 433.48 121.322 419.735Z" fill="url(#paint93_radial_332_429)"/>
<path fill-rule="evenodd" clip-rule="evenodd" d="M118.819 426.257C86.6302 413.901 50.5608 429.871 38.2556 461.927C25.9504 493.983 42.0691 529.987 74.2577 542.343C106.446 554.699 142.516 538.729 154.821 506.672C167.126 474.616 151.007 438.613 118.819 426.257ZM121.322 419.735C85.5169 405.991 45.3948 423.755 31.707 459.413C18.0191 495.071 35.9489 535.12 71.7543 548.864C107.56 562.609 147.682 544.844 161.37 509.186C175.057 473.528 157.128 433.48 121.322 419.735Z" fill="url(#paint94_radial_332_429)"/>
<path fill-rule="evenodd" clip-rule="evenodd" d="M118.819 426.257C86.6302 413.901 50.5608 429.871 38.2556 461.927C25.9504 493.983 42.0691 529.987 74.2577 542.343C106.446 554.699 142.516 538.729 154.821 506.672C167.126 474.616 151.007 438.613 118.819 426.257ZM121.322 419.735C85.5169 405.991 45.3948 423.755 31.707 459.413C18.0191 495.071 35.9489 535.12 71.7543 548.864C107.56 562.609 147.682 544.844 161.37 509.186C175.057 473.528 157.128 433.48 121.322 419.735Z" fill="url(#paint95_radial_332_429)"/>
<path fill-rule="evenodd" clip-rule="evenodd" d="M118.819 426.257C86.6302 413.901 50.5608 429.871 38.2556 461.927C25.9504 493.983 42.0691 529.987 74.2577 542.343C106.446 554.699 142.516 538.729 154.821 506.672C167.126 474.616 151.007 438.613 118.819 426.257ZM121.322 419.735C85.5169 405.991 45.3948 423.755 31.707 459.413C18.0191 495.071 35.9489 535.12 71.7543 548.864C107.56 562.609 147.682 544.844 161.37 509.186C175.057 473.528 157.128 433.48 121.322 419.735Z" fill="url(#paint96_radial_332_429)"/>
<path fill-rule="evenodd" clip-rule="evenodd" d="M118.819 426.257C86.6302 413.901 50.5608 429.871 38.2556 461.927C25.9504 493.983 42.0691 529.987 74.2577 542.343C106.446 554.699 142.516 538.729 154.821 506.672C167.126 474.616 151.007 438.613 118.819 426.257ZM121.322 419.735C85.5169 405.991 45.3948 423.755 31.707 459.413C18.0191 495.071 35.9489 535.12 71.7543 548.864C107.56 562.609 147.682 544.844 161.37 509.186C175.057 473.528 157.128 433.48 121.322 419.735Z" fill="url(#paint97_radial_332_429)"/>
<path fill-rule="evenodd" clip-rule="evenodd" d="M118.819 426.257C86.6302 413.901 50.5608 429.871 38.2556 461.927C25.9504 493.983 42.0691 529.987 74.2577 542.343C106.446 554.699 142.516 538.729 154.821 506.672C167.126 474.616 151.007 438.613 118.819 426.257ZM121.322 419.735C85.5169 405.991 45.3948 423.755 31.707 459.413C18.0191 495.071 35.9489 535.12 71.7543 548.864C107.56 562.609 147.682 544.844 161.37 509.186C175.057 473.528 157.128 433.48 121.322 419.735Z" fill="url(#paint98_radial_332_429)"/>
</g>
<defs>
<radialGradient id="paint0_radial_332_429" cx="0" cy="0" r="1" gradientUnits="userSpaceOnUse" gradientTransform="translate(740.127 1053.22) rotate(-177.996) scale(508.357 1285.05)">
<stop stop-color="#24FF00"/>
<stop offset="0.0001" stop-color="#24FF00"/>
<stop offset="0.0885417" stop-color="#24FF00" stop-opacity="0.890787"/>
<stop offset="0.317708" stop-color="#24FF00" stop-opacity="0.369829"/>
<stop offset="0.619792" stop-color="#24FF00" stop-opacity="0.197724"/>
<stop offset="1" stop-color="#24FF00" stop-opacity="0"/>
</radialGradient>
<radialGradient id="paint1_radial_332_429" cx="0" cy="0" r="1" gradientUnits="userSpaceOnUse" gradientTransform="translate(532.217 1218.19) rotate(-102.748) scale(234.245 536.015)">
<stop stop-color="#00F0FF"/>
<stop offset="1" stop-color="#00F0FF" stop-opacity="0"/>
</radialGradient>
<radialGradient id="paint2_radial_332_429" cx="0" cy="0" r="1" gradientUnits="userSpaceOnUse" gradientTransform="translate(7.69688 900.807) rotate(15.8295) scale(722.765 1708.5)">
<stop stop-color="#0057FF"/>
<stop offset="1" stop-color="#0029FF" stop-opacity="0"/>
</radialGradient>
<radialGradient id="paint3_radial_332_429" cx="0" cy="0" r="1" gradientUnits="userSpaceOnUse" gradientTransform="translate(-232.656 1290.51) rotate(-26.5972) scale(458.909 1354.74)">
<stop stop-color="#24FF00"/>
<stop offset="0.0001" stop-color="#24FF00"/>
<stop offset="0.374062" stop-color="#24FF00" stop-opacity="0.369829"/>
<stop offset="0.621741" stop-color="#24FF00" stop-opacity="0.197724"/>
<stop offset="1" stop-color="#24FF00" stop-opacity="0"/>
</radialGradient>
<radialGradient id="paint4_radial_332_429" cx="0" cy="0" r="1" gradientUnits="userSpaceOnUse" gradientTransform="translate(470.751 1341.16) rotate(148.763) scale(123.357 164.889)">
<stop stop-color="#13D3F7"/>
<stop offset="0.71666" stop-color="white" stop-opacity="0"/>
<stop offset="1" stop-color="#13D3F7" stop-opacity="0"/>
</radialGradient>
<radialGradient id="paint5_radial_332_429" cx="0" cy="0" r="1" gradientUnits="userSpaceOnUse" gradientTransform="translate(679.606 1088.09) rotate(-178.011) scale(435.163 1100.82)">
<stop stop-color="#24FF00"/>
<stop offset="0.0001" stop-color="#24FF00"/>
<stop offset="0.0885417" stop-color="#24FF00" stop-opacity="0.890787"/>
<stop offset="0.317708" stop-color="#24FF00" stop-opacity="0.369829"/>
<stop offset="0.619792" stop-color="#24FF00" stop-opacity="0.197724"/>
<stop offset="1" stop-color="#24FF00" stop-opacity="0"/>
</radialGradient>
<radialGradient id="paint6_radial_332_429" cx="0" cy="0" r="1" gradientUnits="userSpaceOnUse" gradientTransform="translate(501.587 1229.46) rotate(-102.725) scale(200.627 458.919)">
<stop stop-color="#00F0FF"/>
<stop offset="1" stop-color="#00F0FF" stop-opacity="0"/>
</radialGradient>
<radialGradient id="paint7_radial_332_429" cx="0" cy="0" r="1" gradientUnits="userSpaceOnUse" gradientTransform="translate(52.6573 957.711) rotate(15.8258) scale(618.65 1463.68)">
<stop stop-color="#0057FF"/>
<stop offset="1" stop-color="#0029FF" stop-opacity="0"/>
</radialGradient>
<radialGradient id="paint8_radial_332_429" cx="0" cy="0" r="1" gradientUnits="userSpaceOnUse" gradientTransform="translate(-153.189 1291.6) rotate(-26.6226) scale(392.985 1160.07)">
<stop stop-color="#24FF00"/>
<stop offset="0.0001" stop-color="#24FF00"/>
<stop offset="0.374062" stop-color="#24FF00" stop-opacity="0.369829"/>
<stop offset="0.621741" stop-color="#24FF00" stop-opacity="0.197724"/>
<stop offset="1" stop-color="#24FF00" stop-opacity="0"/>
</radialGradient>
<radialGradient id="paint9_radial_332_429" cx="0" cy="0" r="1" gradientUnits="userSpaceOnUse" gradientTransform="translate(448.94 1334.81) rotate(148.738) scale(105.644 141.185)">
<stop stop-color="#13D3F7"/>
<stop offset="0.71666" stop-color="white" stop-opacity="0"/>
<stop offset="1" stop-color="#13D3F7" stop-opacity="0"/>
</radialGradient>
<radialGradient id="paint10_radial_332_429" cx="0" cy="0" r="1" gradientUnits="userSpaceOnUse" gradientTransform="translate(626.419 1119.33) rotate(-177.978) scale(370.769 936.454)">
<stop stop-color="#24FF00"/>
<stop offset="0.0001" stop-color="#24FF00"/>
<stop offset="0.0885417" stop-color="#24FF00" stop-opacity="0.890787"/>
<stop offset="0.317708" stop-color="#24FF00" stop-opacity="0.369829"/>
<stop offset="0.619792" stop-color="#24FF00" stop-opacity="0.197724"/>
<stop offset="1" stop-color="#24FF00" stop-opacity="0"/>
</radialGradient>
<radialGradient id="paint11_radial_332_429" cx="0" cy="0" r="1" gradientUnits="userSpaceOnUse" gradientTransform="translate(474.824 1239.5) rotate(-102.776) scale(170.737 390.861)">
<stop stop-color="#00F0FF"/>
<stop offset="1" stop-color="#00F0FF" stop-opacity="0"/>
</radialGradient>
<radialGradient id="paint12_radial_332_429" cx="0" cy="0" r="1" gradientUnits="userSpaceOnUse" gradientTransform="translate(92.1966 1008.08) rotate(15.8338) scale(527.197 1244.92)">
<stop stop-color="#0057FF"/>
<stop offset="1" stop-color="#0029FF" stop-opacity="0"/>
</radialGradient>
<radialGradient id="paint13_radial_332_429" cx="0" cy="0" r="1" gradientUnits="userSpaceOnUse" gradientTransform="translate(-83.0051 1292.01) rotate(-26.5673) scale(334.553 987.691)">
<stop stop-color="#24FF00"/>
<stop offset="0.0001" stop-color="#24FF00"/>
<stop offset="0.374062" stop-color="#24FF00" stop-opacity="0.369829"/>
<stop offset="0.621741" stop-color="#24FF00" stop-opacity="0.197724"/>
<stop offset="1" stop-color="#24FF00" stop-opacity="0"/>
</radialGradient>
<radialGradient id="paint14_radial_332_429" cx="0" cy="0" r="1" gradientUnits="userSpaceOnUse" gradientTransform="translate(430.025 1329.09) rotate(148.792) scale(89.922 120.224)">
<stop stop-color="#13D3F7"/>
<stop offset="0.71666" stop-color="white" stop-opacity="0"/>
<stop offset="1" stop-color="#13D3F7" stop-opacity="0"/>
</radialGradient>
<radialGradient id="paint15_radial_332_429" cx="0" cy="0" r="1" gradientUnits="userSpaceOnUse" gradientTransform="translate(580.449 1145.96) rotate(-177.975) scale(314.974 795.412)">
<stop stop-color="#24FF00"/>
<stop offset="0.0001" stop-color="#24FF00"/>
<stop offset="0.0885417" stop-color="#24FF00" stop-opacity="0.890787"/>
<stop offset="0.317708" stop-color="#24FF00" stop-opacity="0.369829"/>
<stop offset="0.619792" stop-color="#24FF00" stop-opacity="0.197724"/>
<stop offset="1" stop-color="#24FF00" stop-opacity="0"/>
</radialGradient>
<radialGradient id="paint16_radial_332_429" cx="0" cy="0" r="1" gradientUnits="userSpaceOnUse" gradientTransform="translate(451.674 1248.03) rotate(-102.78) scale(145.027 332.03)">
<stop stop-color="#00F0FF"/>
<stop offset="1" stop-color="#00F0FF" stop-opacity="0"/>
</radialGradient>
<radialGradient id="paint17_radial_332_429" cx="0" cy="0" r="1" gradientUnits="userSpaceOnUse" gradientTransform="translate(126.616 1051.44) rotate(15.8346) scale(447.869 1057.4)">
<stop stop-color="#0057FF"/>
<stop offset="1" stop-color="#0029FF" stop-opacity="0"/>
</radialGradient>
<radialGradient id="paint18_radial_332_429" cx="0" cy="0" r="1" gradientUnits="userSpaceOnUse" gradientTransform="translate(-22.2056 1292.6) rotate(-26.562) scale(284.185 838.999)">
<stop stop-color="#24FF00"/>
<stop offset="0.0001" stop-color="#24FF00"/>
<stop offset="0.374062" stop-color="#24FF00" stop-opacity="0.369829"/>
<stop offset="0.621741" stop-color="#24FF00" stop-opacity="0.197724"/>
<stop offset="1" stop-color="#24FF00" stop-opacity="0"/>
</radialGradient>
<radialGradient id="paint19_radial_332_429" cx="0" cy="0" r="1" gradientUnits="userSpaceOnUse" gradientTransform="translate(413.621 1324.13) rotate(148.798) scale(76.3828 102.126)">
<stop stop-color="#13D3F7"/>
<stop offset="0.71666" stop-color="white" stop-opacity="0"/>
<stop offset="1" stop-color="#13D3F7" stop-opacity="0"/>
</radialGradient>
<radialGradient id="paint20_radial_332_429" cx="0" cy="0" r="1" gradientUnits="userSpaceOnUse" gradientTransform="translate(545.333 1166.31) rotate(-177.972) scale(272.353 687.672)">
<stop stop-color="#24FF00"/>
<stop offset="0.0001" stop-color="#24FF00"/>
<stop offset="0.0885417" stop-color="#24FF00" stop-opacity="0.890787"/>
<stop offset="0.317708" stop-color="#24FF00" stop-opacity="0.369829"/>
<stop offset="0.619792" stop-color="#24FF00" stop-opacity="0.197724"/>
<stop offset="1" stop-color="#24FF00" stop-opacity="0"/>
</radialGradient>
<radialGradient id="paint21_radial_332_429" cx="0" cy="0" r="1" gradientUnits="userSpaceOnUse" gradientTransform="translate(433.989 1254.54) rotate(-102.786) scale(125.387 287.09)">
<stop stop-color="#00F0FF"/>
<stop offset="1" stop-color="#00F0FF" stop-opacity="0"/>
</radialGradient>
<radialGradient id="paint22_radial_332_429" cx="0" cy="0" r="1" gradientUnits="userSpaceOnUse" gradientTransform="translate(152.908 1084.56) rotate(15.8354) scale(387.271 914.158)">
<stop stop-color="#0057FF"/>
<stop offset="1" stop-color="#0029FF" stop-opacity="0"/>
</radialGradient>
<radialGradient id="paint23_radial_332_429" cx="0" cy="0" r="1" gradientUnits="userSpaceOnUse" gradientTransform="translate(24.2383 1293.06) rotate(-26.5565) scale(245.709 725.416)">
<stop stop-color="#24FF00"/>
<stop offset="0.0001" stop-color="#24FF00"/>
<stop offset="0.374062" stop-color="#24FF00" stop-opacity="0.369829"/>
<stop offset="0.621741" stop-color="#24FF00" stop-opacity="0.197724"/>
<stop offset="1" stop-color="#24FF00" stop-opacity="0"/>
</radialGradient>
<radialGradient id="paint24_radial_332_429" cx="0" cy="0" r="1" gradientUnits="userSpaceOnUse" gradientTransform="translate(401.09 1320.33) rotate(148.803) scale(66.0404 88.3019)">
<stop stop-color="#13D3F7"/>
<stop offset="0.71666" stop-color="white" stop-opacity="0"/>
<stop offset="1" stop-color="#13D3F7" stop-opacity="0"/>
</radialGradient>
<radialGradient id="paint25_radial_332_429" cx="0" cy="0" r="1" gradientUnits="userSpaceOnUse" gradientTransform="translate(515.325 1183.69) rotate(-177.968) scale(235.931 595.603)">
<stop stop-color="#24FF00"/>
<stop offset="0.0001" stop-color="#24FF00"/>
<stop offset="0.0885417" stop-color="#24FF00" stop-opacity="0.890787"/>
<stop offset="0.317708" stop-color="#24FF00" stop-opacity="0.369829"/>
<stop offset="0.619792" stop-color="#24FF00" stop-opacity="0.197724"/>
<stop offset="1" stop-color="#24FF00" stop-opacity="0"/>
</radialGradient>
<radialGradient id="paint26_radial_332_429" cx="0" cy="0" r="1" gradientUnits="userSpaceOnUse" gradientTransform="translate(418.877 1260.11) rotate(-102.791) scale(108.605 248.686)">
<stop stop-color="#00F0FF"/>
<stop offset="1" stop-color="#00F0FF" stop-opacity="0"/>
</radialGradient>
<radialGradient id="paint27_radial_332_429" cx="0" cy="0" r="1" gradientUnits="userSpaceOnUse" gradientTransform="translate(175.376 1112.87) rotate(15.8363) scale(335.488 791.751)">
<stop stop-color="#0057FF"/>
<stop offset="1" stop-color="#0029FF" stop-opacity="0"/>
</radialGradient>
<radialGradient id="paint28_radial_332_429" cx="0" cy="0" r="1" gradientUnits="userSpaceOnUse" gradientTransform="translate(63.9262 1293.44) rotate(-26.5502) scale(212.83 628.353)">
<stop stop-color="#24FF00"/>
<stop offset="0.0001" stop-color="#24FF00"/>
<stop offset="0.374062" stop-color="#24FF00" stop-opacity="0.369829"/>
<stop offset="0.621741" stop-color="#24FF00" stop-opacity="0.197724"/>
<stop offset="1" stop-color="#24FF00" stop-opacity="0"/>
</radialGradient>
<radialGradient id="paint29_radial_332_429" cx="0" cy="0" r="1" gradientUnits="userSpaceOnUse" gradientTransform="translate(390.381 1317.09) rotate(148.809) scale(57.2023 76.4882)">
<stop stop-color="#13D3F7"/>
<stop offset="0.71666" stop-color="white" stop-opacity="0"/>
<stop offset="1" stop-color="#13D3F7" stop-opacity="0"/>
</radialGradient>
<radialGradient id="paint30_radial_332_429" cx="0" cy="0" r="1" gradientUnits="userSpaceOnUse" gradientTransform="translate(490.486 1197.86) rotate(-177.996) scale(205.358 519.112)">
<stop stop-color="#24FF00"/>
<stop offset="0.0001" stop-color="#24FF00"/>
<stop offset="0.0885417" stop-color="#24FF00" stop-opacity="0.890787"/>
<stop offset="0.317708" stop-color="#24FF00" stop-opacity="0.369829"/>
<stop offset="0.619792" stop-color="#24FF00" stop-opacity="0.197724"/>
<stop offset="1" stop-color="#24FF00" stop-opacity="0"/>
</radialGradient>
<radialGradient id="paint31_radial_332_429" cx="0" cy="0" r="1" gradientUnits="userSpaceOnUse" gradientTransform="translate(406.498 1264.5) rotate(-102.748) scale(94.6263 216.531)">
<stop stop-color="#00F0FF"/>
<stop offset="1" stop-color="#00F0FF" stop-opacity="0"/>
</radialGradient>
<radialGradient id="paint32_radial_332_429" cx="0" cy="0" r="1" gradientUnits="userSpaceOnUse" gradientTransform="translate(194.61 1136.29) rotate(15.8295) scale(291.971 690.171)">
<stop stop-color="#0057FF"/>
<stop offset="1" stop-color="#0029FF" stop-opacity="0"/>
</radialGradient>
<radialGradient id="paint33_radial_332_429" cx="0" cy="0" r="1" gradientUnits="userSpaceOnUse" gradientTransform="translate(97.5165 1293.72) rotate(-26.5972) scale(185.382 547.267)">
<stop stop-color="#24FF00"/>
<stop offset="0.0001" stop-color="#24FF00"/>
<stop offset="0.374062" stop-color="#24FF00" stop-opacity="0.369829"/>
<stop offset="0.621741" stop-color="#24FF00" stop-opacity="0.197724"/>
<stop offset="1" stop-color="#24FF00" stop-opacity="0"/>
</radialGradient>
<radialGradient id="paint34_radial_332_429" cx="0" cy="0" r="1" gradientUnits="userSpaceOnUse" gradientTransform="translate(381.668 1314.17) rotate(148.763) scale(49.8317 66.609)">
<stop stop-color="#13D3F7"/>
<stop offset="0.71666" stop-color="white" stop-opacity="0"/>
<stop offset="1" stop-color="#13D3F7" stop-opacity="0"/>
</radialGradient>
<radialGradient id="paint35_radial_332_429" cx="0" cy="0" r="1" gradientUnits="userSpaceOnUse" gradientTransform="translate(448.986 1221.9) rotate(-177.996) scale(154.987 391.783)">
<stop stop-color="#24FF00"/>
<stop offset="0.0001" stop-color="#24FF00"/>
<stop offset="0.0885417" stop-color="#24FF00" stop-opacity="0.890787"/>
<stop offset="0.317708" stop-color="#24FF00" stop-opacity="0.369829"/>
<stop offset="0.619792" stop-color="#24FF00" stop-opacity="0.197724"/>
<stop offset="1" stop-color="#24FF00" stop-opacity="0"/>
</radialGradient>
<radialGradient id="paint36_radial_332_429" cx="0" cy="0" r="1" gradientUnits="userSpaceOnUse" gradientTransform="translate(385.599 1272.2) rotate(-102.748) scale(71.4161 163.419)">
<stop stop-color="#00F0FF"/>
<stop offset="1" stop-color="#00F0FF" stop-opacity="0"/>
</radialGradient>
<radialGradient id="paint37_radial_332_429" cx="0" cy="0" r="1" gradientUnits="userSpaceOnUse" gradientTransform="translate(225.684 1175.44) rotate(15.8295) scale(220.355 520.884)">
<stop stop-color="#0057FF"/>
<stop offset="1" stop-color="#0029FF" stop-opacity="0"/>
</radialGradient>
<radialGradient id="paint38_radial_332_429" cx="0" cy="0" r="1" gradientUnits="userSpaceOnUse" gradientTransform="translate(152.405 1294.25) rotate(-26.5972) scale(139.911 413.032)">
<stop stop-color="#24FF00"/>
<stop offset="0.0001" stop-color="#24FF00"/>
<stop offset="0.374062" stop-color="#24FF00" stop-opacity="0.369829"/>
<stop offset="0.621741" stop-color="#24FF00" stop-opacity="0.197724"/>
<stop offset="1" stop-color="#24FF00" stop-opacity="0"/>
</radialGradient>
<radialGradient id="paint39_radial_332_429" cx="0" cy="0" r="1" gradientUnits="userSpaceOnUse" gradientTransform="translate(366.859 1309.69) rotate(148.763) scale(37.6088 50.271)">
<stop stop-color="#13D3F7"/>
<stop offset="0.71666" stop-color="white" stop-opacity="0"/>
<stop offset="1" stop-color="#13D3F7" stop-opacity="0"/>
</radialGradient>
<radialGradient id="paint40_radial_332_429" cx="0" cy="0" r="1" gradientUnits="userSpaceOnUse" gradientTransform="translate(398.486 1251.39) rotate(-177.926) scale(94.1177 237.122)">
<stop stop-color="#24FF00"/>
<stop offset="0.0001" stop-color="#24FF00"/>
<stop offset="0.0885417" stop-color="#24FF00" stop-opacity="0.890787"/>
<stop offset="0.317708" stop-color="#24FF00" stop-opacity="0.369829"/>
<stop offset="0.619792" stop-color="#24FF00" stop-opacity="0.197724"/>
<stop offset="1" stop-color="#24FF00" stop-opacity="0"/>
</radialGradient>
<radialGradient id="paint41_radial_332_429" cx="0" cy="0" r="1" gradientUnits="userSpaceOnUse" gradientTransform="translate(360.037 1281.78) rotate(-102.856) scale(43.259 99.1572)">
<stop stop-color="#00F0FF"/>
<stop offset="1" stop-color="#00F0FF" stop-opacity="0"/>
</radialGradient>
<radialGradient id="paint42_radial_332_429" cx="0" cy="0" r="1" gradientUnits="userSpaceOnUse" gradientTransform="translate(262.858 1223.08) rotate(15.8466) scale(133.863 315.142)">
<stop stop-color="#0057FF"/>
<stop offset="1" stop-color="#0029FF" stop-opacity="0"/>
</radialGradient>
<radialGradient id="paint43_radial_332_429" cx="0" cy="0" r="1" gradientUnits="userSpaceOnUse" gradientTransform="translate(218.458 1294.94) rotate(-26.4792) scale(84.8116 250.428)">
<stop stop-color="#24FF00"/>
<stop offset="0.0001" stop-color="#24FF00"/>
<stop offset="0.374062" stop-color="#24FF00" stop-opacity="0.369829"/>
<stop offset="0.621741" stop-color="#24FF00" stop-opacity="0.197724"/>
<stop offset="1" stop-color="#24FF00" stop-opacity="0"/>
</radialGradient>
<radialGradient id="paint44_radial_332_429" cx="0" cy="0" r="1" gradientUnits="userSpaceOnUse" gradientTransform="translate(348.688 1304.46) rotate(148.878) scale(22.7902 30.4902)">
<stop stop-color="#13D3F7"/>
<stop offset="0.71666" stop-color="white" stop-opacity="0"/>
<stop offset="1" stop-color="#13D3F7" stop-opacity="0"/>
</radialGradient>
<radialGradient id="paint45_radial_332_429" cx="0" cy="0" r="1" gradientUnits="userSpaceOnUse" gradientTransform="translate(-263.626 684.913) rotate(3.00447) scale(433.156 1094.95)">
<stop stop-color="#24FF00"/>
<stop offset="0.0001" stop-color="#24FF00"/>
<stop offset="0.0885417" stop-color="#24FF00" stop-opacity="0.890787"/>
<stop offset="0.317708" stop-color="#24FF00" stop-opacity="0.369829"/>
<stop offset="0.619792" stop-color="#24FF00" stop-opacity="0.197724"/>
<stop offset="1" stop-color="#24FF00" stop-opacity="0"/>
</radialGradient>
<radialGradient id="paint46_radial_332_429" cx="0" cy="0" r="1" gradientUnits="userSpaceOnUse" gradientTransform="translate(-84.0464 547.46) rotate(78.2516) scale(199.593 456.723)">
<stop stop-color="#00F0FF"/>
<stop offset="1" stop-color="#00F0FF" stop-opacity="0"/>
</radialGradient>
<radialGradient id="paint47_radial_332_429" cx="0" cy="0" r="1" gradientUnits="userSpaceOnUse" gradientTransform="translate(358.094 825.651) rotate(-163.171) scale(615.846 1455.76)">
<stop stop-color="#0057FF"/>
<stop offset="1" stop-color="#0029FF" stop-opacity="0"/>
</radialGradient>
<radialGradient id="paint48_radial_332_429" cx="0" cy="0" r="1" gradientUnits="userSpaceOnUse" gradientTransform="translate(568.656 497.22) rotate(154.403) scale(391.022 1154.34)">
<stop stop-color="#24FF00"/>
<stop offset="0.0001" stop-color="#24FF00"/>
<stop offset="0.374062" stop-color="#24FF00" stop-opacity="0.369829"/>
<stop offset="0.621741" stop-color="#24FF00" stop-opacity="0.197724"/>
<stop offset="1" stop-color="#24FF00" stop-opacity="0"/>
</radialGradient>
<radialGradient id="paint49_radial_332_429" cx="0" cy="0" r="1" gradientUnits="userSpaceOnUse" gradientTransform="translate(-29.8525 443.614) rotate(-30.2369) scale(105.109 140.497)">
<stop stop-color="#13D3F7"/>
<stop offset="0.71666" stop-color="white" stop-opacity="0"/>
<stop offset="1" stop-color="#13D3F7" stop-opacity="0"/>
</radialGradient>
<radialGradient id="paint50_radial_332_429" cx="0" cy="0" r="1" gradientUnits="userSpaceOnUse" gradientTransform="translate(80.709 322.296) rotate(31.9141) scale(242.1 231.625)">
<stop stop-color="#2EA6A0"/>
<stop offset="1" stop-color="#302EA6" stop-opacity="0"/>
</radialGradient>
<radialGradient id="paint51_radial_332_429" cx="0" cy="0" r="1" gradientUnits="userSpaceOnUse" gradientTransform="translate(-212.058 656.151) rotate(2.98947) scale(370.789 937.972)">
<stop stop-color="#24FF00"/>
<stop offset="0.0001" stop-color="#24FF00"/>
<stop offset="0.0885417" stop-color="#24FF00" stop-opacity="0.890787"/>
<stop offset="0.317708" stop-color="#24FF00" stop-opacity="0.369829"/>
<stop offset="0.619792" stop-color="#24FF00" stop-opacity="0.197724"/>
<stop offset="1" stop-color="#24FF00" stop-opacity="0"/>
</radialGradient>
<radialGradient id="paint52_radial_332_429" cx="0" cy="0" r="1" gradientUnits="userSpaceOnUse" gradientTransform="translate(-58.2944 538.362) rotate(78.2748) scale(170.948 391.031)">
<stop stop-color="#00F0FF"/>
<stop offset="1" stop-color="#00F0FF" stop-opacity="0"/>
</radialGradient>
<radialGradient id="paint53_radial_332_429" cx="0" cy="0" r="1" gradientUnits="userSpaceOnUse" gradientTransform="translate(320.126 776.55) rotate(-163.174) scale(527.133 1247.16)">
<stop stop-color="#0057FF"/>
<stop offset="1" stop-color="#0029FF" stop-opacity="0"/>
</radialGradient>
<radialGradient id="paint54_radial_332_429" cx="0" cy="0" r="1" gradientUnits="userSpaceOnUse" gradientTransform="translate(500.459 495.16) rotate(154.377) scale(334.851 988.464)">
<stop stop-color="#24FF00"/>
<stop offset="0.0001" stop-color="#24FF00"/>
<stop offset="0.374062" stop-color="#24FF00" stop-opacity="0.369829"/>
<stop offset="0.621741" stop-color="#24FF00" stop-opacity="0.197724"/>
<stop offset="1" stop-color="#24FF00" stop-opacity="0"/>
</radialGradient>
<radialGradient id="paint55_radial_332_429" cx="0" cy="0" r="1" gradientUnits="userSpaceOnUse" gradientTransform="translate(-11.8756 449.393) rotate(-30.2618) scale(90.016 120.299)">
<stop stop-color="#13D3F7"/>
<stop offset="0.71666" stop-color="white" stop-opacity="0"/>
<stop offset="1" stop-color="#13D3F7" stop-opacity="0"/>
</radialGradient>
<radialGradient id="paint56_radial_332_429" cx="0" cy="0" r="1" gradientUnits="userSpaceOnUse" gradientTransform="translate(82.8007 345.442) rotate(31.9236) scale(207.231 198.429)">
<stop stop-color="#2EA6A0"/>
<stop offset="1" stop-color="#302EA6" stop-opacity="0"/>
</radialGradient>
<radialGradient id="paint57_radial_332_429" cx="0" cy="0" r="1" gradientUnits="userSpaceOnUse" gradientTransform="translate(-166.281 630.331) rotate(3.02206) scale(315.921 797.924)">
<stop stop-color="#24FF00"/>
<stop offset="0.0001" stop-color="#24FF00"/>
<stop offset="0.0885417" stop-color="#24FF00" stop-opacity="0.890787"/>
<stop offset="0.317708" stop-color="#24FF00" stop-opacity="0.369829"/>
<stop offset="0.619792" stop-color="#24FF00" stop-opacity="0.197724"/>
<stop offset="1" stop-color="#24FF00" stop-opacity="0"/>
</radialGradient>
<radialGradient id="paint58_radial_332_429" cx="0" cy="0" r="1" gradientUnits="userSpaceOnUse" gradientTransform="translate(-35.3444 530.207) rotate(78.2243) scale(145.48 333.041)">
<stop stop-color="#00F0FF"/>
<stop offset="1" stop-color="#00F0FF" stop-opacity="0"/>
</radialGradient>
<radialGradient id="paint59_radial_332_429" cx="0" cy="0" r="1" gradientUnits="userSpaceOnUse" gradientTransform="translate(287.19 733.054) rotate(-163.166) scale(449.208 1060.76)">
<stop stop-color="#0057FF"/>
<stop offset="1" stop-color="#0029FF" stop-opacity="0"/>
</radialGradient>
<radialGradient id="paint60_radial_332_429" cx="0" cy="0" r="1" gradientUnits="userSpaceOnUse" gradientTransform="translate(440.673 493.761) rotate(154.433) scale(285.062 841.582)">
<stop stop-color="#24FF00"/>
<stop offset="0.0001" stop-color="#24FF00"/>
<stop offset="0.374062" stop-color="#24FF00" stop-opacity="0.369829"/>
<stop offset="0.621741" stop-color="#24FF00" stop-opacity="0.197724"/>
<stop offset="1" stop-color="#24FF00" stop-opacity="0"/>
</radialGradient>
<radialGradient id="paint61_radial_332_429" cx="0" cy="0" r="1" gradientUnits="userSpaceOnUse" gradientTransform="translate(4.154 454.543) rotate(-30.2077) scale(76.6198 102.439)">
<stop stop-color="#13D3F7"/>
<stop offset="0.71666" stop-color="white" stop-opacity="0"/>
<stop offset="1" stop-color="#13D3F7" stop-opacity="0"/>
</radialGradient>
<radialGradient id="paint62_radial_332_429" cx="0" cy="0" r="1" gradientUnits="userSpaceOnUse" gradientTransform="translate(84.7581 366.159) rotate(31.903) scale(176.586 168.782)">
<stop stop-color="#2EA6A0"/>
<stop offset="1" stop-color="#302EA6" stop-opacity="0"/>
</radialGradient>
<radialGradient id="paint63_radial_332_429" cx="0" cy="0" r="1" gradientUnits="userSpaceOnUse" gradientTransform="translate(-126.722 608.324) rotate(3.02518) scale(268.38 677.747)">
<stop stop-color="#24FF00"/>
<stop offset="0.0001" stop-color="#24FF00"/>
<stop offset="0.0885417" stop-color="#24FF00" stop-opacity="0.890787"/>
<stop offset="0.317708" stop-color="#24FF00" stop-opacity="0.369829"/>
<stop offset="0.619792" stop-color="#24FF00" stop-opacity="0.197724"/>
<stop offset="1" stop-color="#24FF00" stop-opacity="0"/>
</radialGradient>
<radialGradient id="paint64_radial_332_429" cx="0" cy="0" r="1" gradientUnits="userSpaceOnUse" gradientTransform="translate(-15.4951 523.287) rotate(78.2195) scale(123.573 282.913)">
<stop stop-color="#00F0FF"/>
<stop offset="1" stop-color="#00F0FF" stop-opacity="0"/>
</radialGradient>
<radialGradient id="paint65_radial_332_429" cx="0" cy="0" r="1" gradientUnits="userSpaceOnUse" gradientTransform="translate(258.511 695.6) rotate(-163.165) scale(381.616 900.98)">
<stop stop-color="#0057FF"/>
<stop offset="1" stop-color="#0029FF" stop-opacity="0"/>
</radialGradient>
<radialGradient id="paint66_radial_332_429" cx="0" cy="0" r="1" gradientUnits="userSpaceOnUse" gradientTransform="translate(388.885 492.355) rotate(154.438) scale(242.145 714.886)">
<stop stop-color="#24FF00"/>
<stop offset="0.0001" stop-color="#24FF00"/>
<stop offset="0.374062" stop-color="#24FF00" stop-opacity="0.369829"/>
<stop offset="0.621741" stop-color="#24FF00" stop-opacity="0.197724"/>
<stop offset="1" stop-color="#24FF00" stop-opacity="0"/>
</radialGradient>
<radialGradient id="paint67_radial_332_429" cx="0" cy="0" r="1" gradientUnits="userSpaceOnUse" gradientTransform="translate(18.0551 459.02) rotate(-30.2025) scale(65.0835 87.0188)">
<stop stop-color="#13D3F7"/>
<stop offset="0.71666" stop-color="white" stop-opacity="0"/>
<stop offset="1" stop-color="#13D3F7" stop-opacity="0"/>
</radialGradient>
<radialGradient id="paint68_radial_332_429" cx="0" cy="0" r="1" gradientUnits="userSpaceOnUse" gradientTransform="translate(86.5244 383.952) rotate(31.901) scale(150.014 143.36)">
<stop stop-color="#2EA6A0"/>
<stop offset="1" stop-color="#302EA6" stop-opacity="0"/>
</radialGradient>
<radialGradient id="paint69_radial_332_429" cx="0" cy="0" r="1" gradientUnits="userSpaceOnUse" gradientTransform="translate(-96.5029 591.513) rotate(3.02842) scale(232.063 585.945)">
<stop stop-color="#24FF00"/>
<stop offset="0.0001" stop-color="#24FF00"/>
<stop offset="0.0885417" stop-color="#24FF00" stop-opacity="0.890787"/>
<stop offset="0.317708" stop-color="#24FF00" stop-opacity="0.369829"/>
<stop offset="0.619792" stop-color="#24FF00" stop-opacity="0.197724"/>
<stop offset="1" stop-color="#24FF00" stop-opacity="0"/>
</radialGradient>
<radialGradient id="paint70_radial_332_429" cx="0" cy="0" r="1" gradientUnits="userSpaceOnUse" gradientTransform="translate(-0.332367 518) rotate(78.2145) scale(106.839 244.621)">
<stop stop-color="#00F0FF"/>
<stop offset="1" stop-color="#00F0FF" stop-opacity="0"/>
</radialGradient>
<radialGradient id="paint71_radial_332_429" cx="0" cy="0" r="1" gradientUnits="userSpaceOnUse" gradientTransform="translate(236.604 666.989) rotate(-163.165) scale(329.982 778.927)">
<stop stop-color="#0057FF"/>
<stop offset="1" stop-color="#0029FF" stop-opacity="0"/>
</radialGradient>
<radialGradient id="paint72_radial_332_429" cx="0" cy="0" r="1" gradientUnits="userSpaceOnUse" gradientTransform="translate(349.324 491.28) rotate(154.444) scale(209.361 618.105)">
<stop stop-color="#24FF00"/>
<stop offset="0.0001" stop-color="#24FF00"/>
<stop offset="0.374062" stop-color="#24FF00" stop-opacity="0.369829"/>
<stop offset="0.621741" stop-color="#24FF00" stop-opacity="0.197724"/>
<stop offset="1" stop-color="#24FF00" stop-opacity="0"/>
</radialGradient>
<radialGradient id="paint73_radial_332_429" cx="0" cy="0" r="1" gradientUnits="userSpaceOnUse" gradientTransform="translate(28.6742 462.44) rotate(-30.1971) scale(56.271 75.2394)">
<stop stop-color="#13D3F7"/>
<stop offset="0.71666" stop-color="white" stop-opacity="0"/>
<stop offset="1" stop-color="#13D3F7" stop-opacity="0"/>
</radialGradient>
<radialGradient id="paint74_radial_332_429" cx="0" cy="0" r="1" gradientUnits="userSpaceOnUse" gradientTransform="translate(87.8738 397.543) rotate(31.899) scale(129.716 123.94)">
<stop stop-color="#2EA6A0"/>
<stop offset="1" stop-color="#302EA6" stop-opacity="0"/>
</radialGradient>
<radialGradient id="paint75_radial_332_429" cx="0" cy="0" r="1" gradientUnits="userSpaceOnUse" gradientTransform="translate(-70.6792 577.147) rotate(3.03211) scale(201.029 507.495)">
<stop stop-color="#24FF00"/>
<stop offset="0.0001" stop-color="#24FF00"/>
<stop offset="0.0885417" stop-color="#24FF00" stop-opacity="0.890787"/>
<stop offset="0.317708" stop-color="#24FF00" stop-opacity="0.369829"/>
<stop offset="0.619792" stop-color="#24FF00" stop-opacity="0.197724"/>
<stop offset="1" stop-color="#24FF00" stop-opacity="0"/>
</radialGradient>
<radialGradient id="paint76_radial_332_429" cx="0" cy="0" r="1" gradientUnits="userSpaceOnUse" gradientTransform="translate(12.625 513.482) rotate(78.2087) scale(92.5388 211.898)">
<stop stop-color="#00F0FF"/>
<stop offset="1" stop-color="#00F0FF" stop-opacity="0"/>
</radialGradient>
<radialGradient id="paint77_radial_332_429" cx="0" cy="0" r="1" gradientUnits="userSpaceOnUse" gradientTransform="translate(217.884 642.54) rotate(-163.164) scale(285.859 674.627)">
<stop stop-color="#0057FF"/>
<stop offset="1" stop-color="#0029FF" stop-opacity="0"/>
</radialGradient>
<radialGradient id="paint78_radial_332_429" cx="0" cy="0" r="1" gradientUnits="userSpaceOnUse" gradientTransform="translate(315.517 490.362) rotate(154.45) scale(181.346 535.401)">
<stop stop-color="#24FF00"/>
<stop offset="0.0001" stop-color="#24FF00"/>
<stop offset="0.374062" stop-color="#24FF00" stop-opacity="0.369829"/>
<stop offset="0.621741" stop-color="#24FF00" stop-opacity="0.197724"/>
<stop offset="1" stop-color="#24FF00" stop-opacity="0"/>
</radialGradient>
<radialGradient id="paint79_radial_332_429" cx="0" cy="0" r="1" gradientUnits="userSpaceOnUse" gradientTransform="translate(37.7488 465.362) rotate(-30.1909) scale(48.7404 65.1733)">
<stop stop-color="#13D3F7"/>
<stop offset="0.71666" stop-color="white" stop-opacity="0"/>
<stop offset="1" stop-color="#13D3F7" stop-opacity="0"/>
</radialGradient>
<radialGradient id="paint80_radial_332_429" cx="0" cy="0" r="1" gradientUnits="userSpaceOnUse" gradientTransform="translate(89.0271 409.158) rotate(31.8966) scale(112.37 107.345)">
<stop stop-color="#2EA6A0"/>
<stop offset="1" stop-color="#302EA6" stop-opacity="0"/>
</radialGradient>
<radialGradient id="paint81_radial_332_429" cx="0" cy="0" r="1" gradientUnits="userSpaceOnUse" gradientTransform="translate(-48.7962 565.402) rotate(3.00447) scale(174.979 442.32)">
<stop stop-color="#24FF00"/>
<stop offset="0.0001" stop-color="#24FF00"/>
<stop offset="0.0885417" stop-color="#24FF00" stop-opacity="0.890787"/>
<stop offset="0.317708" stop-color="#24FF00" stop-opacity="0.369829"/>
<stop offset="0.619792" stop-color="#24FF00" stop-opacity="0.197724"/>
<stop offset="1" stop-color="#24FF00" stop-opacity="0"/>
</radialGradient>
<radialGradient id="paint82_radial_332_429" cx="0" cy="0" r="1" gradientUnits="userSpaceOnUse" gradientTransform="translate(23.7475 509.876) rotate(78.2516) scale(80.6282 184.499)">
<stop stop-color="#00F0FF"/>
<stop offset="1" stop-color="#00F0FF" stop-opacity="0"/>
</radialGradient>
<radialGradient id="paint83_radial_332_429" cx="0" cy="0" r="1" gradientUnits="userSpaceOnUse" gradientTransform="translate(202.356 622.255) rotate(-163.171) scale(248.779 588.074)">
<stop stop-color="#0057FF"/>
<stop offset="1" stop-color="#0029FF" stop-opacity="0"/>
</radialGradient>
<radialGradient id="paint84_radial_332_429" cx="0" cy="0" r="1" gradientUnits="userSpaceOnUse" gradientTransform="translate(287.415 489.581) rotate(154.403) scale(157.959 466.31)">
<stop stop-color="#24FF00"/>
<stop offset="0.0001" stop-color="#24FF00"/>
<stop offset="0.374062" stop-color="#24FF00" stop-opacity="0.369829"/>
<stop offset="0.621741" stop-color="#24FF00" stop-opacity="0.197724"/>
<stop offset="1" stop-color="#24FF00" stop-opacity="0"/>
</radialGradient>
<radialGradient id="paint85_radial_332_429" cx="0" cy="0" r="1" gradientUnits="userSpaceOnUse" gradientTransform="translate(45.6399 467.926) rotate(-30.2369) scale(42.4601 56.7556)">
<stop stop-color="#13D3F7"/>
<stop offset="0.71666" stop-color="white" stop-opacity="0"/>
<stop offset="1" stop-color="#13D3F7" stop-opacity="0"/>
</radialGradient>
<radialGradient id="paint86_radial_332_429" cx="0" cy="0" r="1" gradientUnits="userSpaceOnUse" gradientTransform="translate(90.3027 418.918) rotate(31.9141) scale(97.7994 93.568)">
<stop stop-color="#2EA6A0"/>
<stop offset="1" stop-color="#302EA6" stop-opacity="0"/>
</radialGradient>
<radialGradient id="paint87_radial_332_429" cx="0" cy="0" r="1" gradientUnits="userSpaceOnUse" gradientTransform="translate(-13.0825 545.534) rotate(3.00447) scale(132.06 333.826)">
<stop stop-color="#24FF00"/>
<stop offset="0.0001" stop-color="#24FF00"/>
<stop offset="0.0885417" stop-color="#24FF00" stop-opacity="0.890787"/>
<stop offset="0.317708" stop-color="#24FF00" stop-opacity="0.369829"/>
<stop offset="0.619792" stop-color="#24FF00" stop-opacity="0.197724"/>
<stop offset="1" stop-color="#24FF00" stop-opacity="0"/>
</radialGradient>
<radialGradient id="paint88_radial_332_429" cx="0" cy="0" r="1" gradientUnits="userSpaceOnUse" gradientTransform="translate(41.6675 503.627) rotate(78.2516) scale(60.8515 139.245)">
<stop stop-color="#00F0FF"/>
<stop offset="1" stop-color="#00F0FF" stop-opacity="0"/>
</radialGradient>
<radialGradient id="paint89_radial_332_429" cx="0" cy="0" r="1" gradientUnits="userSpaceOnUse" gradientTransform="translate(176.466 588.442) rotate(-163.171) scale(187.758 443.83)">
<stop stop-color="#0057FF"/>
<stop offset="1" stop-color="#0029FF" stop-opacity="0"/>
</radialGradient>
<radialGradient id="paint90_radial_332_429" cx="0" cy="0" r="1" gradientUnits="userSpaceOnUse" gradientTransform="translate(240.662 488.31) rotate(154.403) scale(119.214 351.932)">
<stop stop-color="#24FF00"/>
<stop offset="0.0001" stop-color="#24FF00"/>
<stop offset="0.374062" stop-color="#24FF00" stop-opacity="0.369829"/>
<stop offset="0.621741" stop-color="#24FF00" stop-opacity="0.197724"/>
<stop offset="1" stop-color="#24FF00" stop-opacity="0"/>
</radialGradient>
<radialGradient id="paint91_radial_332_429" cx="0" cy="0" r="1" gradientUnits="userSpaceOnUse" gradientTransform="translate(58.19 471.967) rotate(-30.2369) scale(32.0453 42.8344)">
<stop stop-color="#13D3F7"/>
<stop offset="0.71666" stop-color="white" stop-opacity="0"/>
<stop offset="1" stop-color="#13D3F7" stop-opacity="0"/>
</radialGradient>
<radialGradient id="paint92_radial_332_429" cx="0" cy="0" r="1" gradientUnits="userSpaceOnUse" gradientTransform="translate(91.8978 434.98) rotate(31.9141) scale(73.8109 70.6174)">
<stop stop-color="#2EA6A0"/>
<stop offset="1" stop-color="#302EA6" stop-opacity="0"/>
</radialGradient>
<radialGradient id="paint93_radial_332_429" cx="0" cy="0" r="1" gradientUnits="userSpaceOnUse" gradientTransform="translate(29.8679 521.212) rotate(3.07377) scale(80.1948 202.044)">
<stop stop-color="#24FF00"/>
<stop offset="0.0001" stop-color="#24FF00"/>
<stop offset="0.0885417" stop-color="#24FF00" stop-opacity="0.890787"/>
<stop offset="0.317708" stop-color="#24FF00" stop-opacity="0.369829"/>
<stop offset="0.619792" stop-color="#24FF00" stop-opacity="0.197724"/>
<stop offset="1" stop-color="#24FF00" stop-opacity="0"/>
</radialGradient>
<radialGradient id="paint94_radial_332_429" cx="0" cy="0" r="1" gradientUnits="userSpaceOnUse" gradientTransform="translate(63.0759 495.891) rotate(78.144) scale(36.8597 84.4888)">
<stop stop-color="#00F0FF"/>
<stop offset="1" stop-color="#00F0FF" stop-opacity="0"/>
</radialGradient>
<radialGradient id="paint95_radial_332_429" cx="0" cy="0" r="1" gradientUnits="userSpaceOnUse" gradientTransform="translate(144.994 547.344) rotate(-163.153) scale(114.06 268.523)">
<stop stop-color="#0057FF"/>
<stop offset="1" stop-color="#0029FF" stop-opacity="0"/>
</radialGradient>
<radialGradient id="paint96_radial_332_429" cx="0" cy="0" r="1" gradientUnits="userSpaceOnUse" gradientTransform="translate(183.888 486.786) rotate(154.521) scale(72.2654 213.382)">
<stop stop-color="#24FF00"/>
<stop offset="0.0001" stop-color="#24FF00"/>
<stop offset="0.374062" stop-color="#24FF00" stop-opacity="0.369829"/>
<stop offset="0.621741" stop-color="#24FF00" stop-opacity="0.197724"/>
<stop offset="1" stop-color="#24FF00" stop-opacity="0"/>
</radialGradient>
<radialGradient id="paint97_radial_332_429" cx="0" cy="0" r="1" gradientUnits="userSpaceOnUse" gradientTransform="translate(73.0815 476.74) rotate(-30.1215) scale(19.4189 25.9797)">
<stop stop-color="#13D3F7"/>
<stop offset="0.71666" stop-color="white" stop-opacity="0"/>
<stop offset="1" stop-color="#13D3F7" stop-opacity="0"/>
</radialGradient>
<radialGradient id="paint98_radial_332_429" cx="0" cy="0" r="1" gradientUnits="userSpaceOnUse" gradientTransform="translate(93.5172 454.379) rotate(31.8703) scale(44.8335 42.7298)">
<stop stop-color="#2EA6A0"/>
<stop offset="1" stop-color="#302EA6" stop-opacity="0"/>
</radialGradient>
</defs>
</svg>
