<svg width="117" height="18" viewBox="0 0 117 18" fill="none" xmlns="http://www.w3.org/2000/svg">
<path d="M1.728 16.904C1.088 16.656 0.896 16.216 1.152 15.584L6.864 1.52C7.104 0.991999 7.48 0.727999 7.992 0.727999H8.04C8.56 0.751999 8.912 1.016 9.096 1.52L14.904 15.584C15.16 16.216 14.976 16.656 14.352 16.904C13.72 17.152 13.28 16.968 13.032 16.352L11.736 13.208H4.26L3.024 16.352C2.776 16.976 2.344 17.16 1.728 16.904ZM5.052 11.192H10.908L7.92 3.92L5.052 11.192ZM27.2218 17C25.8538 17 24.7858 16.724 24.0178 16.172C23.2578 15.62 22.7818 14.768 22.5898 13.616C22.5578 13.264 22.6298 13 22.8058 12.824C22.9818 12.648 23.2378 12.56 23.5738 12.56C23.9098 12.56 24.1538 12.64 24.3058 12.8C24.4658 12.96 24.5738 13.208 24.6298 13.544C24.7498 14.096 25.0058 14.476 25.3978 14.684C25.7978 14.884 26.4058 14.984 27.2218 14.984H30.6778C31.7098 14.984 32.4098 14.8 32.7778 14.432C33.1538 14.056 33.3418 13.36 33.3418 12.344C33.3418 11.312 33.1498 10.608 32.7658 10.232C32.3818 9.848 31.6858 9.656 30.6778 9.656H27.7018C26.1898 9.656 25.0658 9.288 24.3298 8.552C23.6018 7.808 23.2378 6.68 23.2378 5.168C23.2378 3.664 23.5978 2.548 24.3178 1.82C25.0458 1.092 26.1658 0.727999 27.6778 0.727999H30.5338C31.8058 0.727999 32.8018 0.987999 33.5218 1.508C34.2498 2.028 34.7098 2.824 34.9018 3.896C34.9498 4.24 34.8858 4.504 34.7098 4.688C34.5338 4.864 34.2698 4.952 33.9178 4.952C33.5978 4.952 33.3578 4.868 33.1978 4.7C33.0378 4.532 32.9338 4.288 32.8858 3.968C32.7578 3.496 32.5138 3.176 32.1538 3.008C31.7938 2.832 31.2538 2.744 30.5338 2.744H27.6778C26.7178 2.744 26.0738 2.916 25.7458 3.26C25.4178 3.596 25.2538 4.232 25.2538 5.168C25.2538 6.112 25.4218 6.76 25.7578 7.112C26.0938 7.464 26.7418 7.64 27.7018 7.64H30.6778C32.2538 7.64 33.4258 8.024 34.1938 8.792C34.9698 9.56 35.3578 10.744 35.3578 12.344C35.3578 13.936 34.9738 15.112 34.2058 15.872C33.4378 16.624 32.2618 17 30.6778 17H27.2218ZM46.179 17C45.507 17 45.171 16.664 45.171 15.992V1.736C45.171 1.064 45.507 0.727999 46.179 0.727999C46.619 0.727999 46.987 0.943999 47.283 1.376L52.947 9.896L52.515 9.968L58.227 1.376C58.499 0.943999 58.907 0.727999 59.451 0.727999C59.995 0.727999 60.267 1.064 60.267 1.736V15.992C60.267 16.664 59.931 17 59.259 17C58.587 17 58.251 16.664 58.251 15.992V3.752L58.875 3.968L53.835 11.384C53.539 11.816 53.131 12.032 52.611 12.032C52.251 12.032 51.923 11.816 51.627 11.384L46.587 3.968L47.187 4.136V15.992C47.187 16.664 46.851 17 46.179 17ZM71.6649 17C70.9929 17 70.6569 16.664 70.6569 15.992V1.736C70.6569 1.064 70.9929 0.727999 71.6649 0.727999H77.9289C79.2009 0.727999 80.1769 1.064 80.8569 1.736C81.5449 2.408 81.8889 3.368 81.8889 4.616V5.264C81.8889 6.344 81.5489 7.18 80.8689 7.772C82.1409 8.484 82.7769 9.784 82.7769 11.672V12.488C82.7769 13.96 82.3849 15.08 81.6009 15.848C80.8249 16.616 79.7049 17 78.2409 17H71.6649ZM72.6729 14.984H78.2409C79.1449 14.984 79.7889 14.792 80.1729 14.408C80.5649 14.016 80.7609 13.376 80.7609 12.488V11.672C80.7609 10.784 80.5729 10.152 80.1969 9.776C79.8209 9.392 79.1689 9.2 78.2409 9.2H72.6729V14.984ZM72.6729 7.184H78.3609C78.9449 7.184 79.3409 7.004 79.5489 6.644C79.7649 6.284 79.8729 5.824 79.8729 5.264V4.616C79.8729 3.92 79.7289 3.436 79.4409 3.164C79.1529 2.884 78.6489 2.744 77.9289 2.744H72.6729V7.184ZM93.2134 17C92.8694 17 92.6134 16.92 92.4454 16.76C92.2854 16.592 92.2054 16.336 92.2054 15.992V1.76C92.2054 1.408 92.2854 1.152 92.4454 0.991999C92.6134 0.831999 92.8694 0.751999 93.2134 0.751999C93.5654 0.751999 93.8214 0.831999 93.9814 0.991999C94.1414 1.152 94.2214 1.408 94.2214 1.76V15.992C94.2214 16.336 94.1414 16.592 93.9814 16.76C93.8214 16.92 93.5654 17 93.2134 17ZM109.485 17C109.149 17 108.897 16.916 108.729 16.748C108.561 16.58 108.477 16.328 108.477 15.992V2.768H103.821C103.485 2.768 103.233 2.684 103.065 2.516C102.897 2.348 102.813 2.096 102.813 1.76C102.813 1.424 102.897 1.172 103.065 1.004C103.233 0.835999 103.485 0.751999 103.821 0.751999H115.149C115.485 0.751999 115.737 0.835999 115.905 1.004C116.073 1.172 116.157 1.424 116.157 1.76C116.157 2.096 116.073 2.348 115.905 2.516C115.737 2.684 115.485 2.768 115.149 2.768H110.493V15.992C110.493 16.312 110.405 16.56 110.229 16.736C110.061 16.912 109.813 17 109.485 17Z" fill="#219653"/>
<path d="M1.728 16.904L2.11176 15.9806L2.1006 15.9759L2.08932 15.9716L1.728 16.904ZM1.152 15.584L0.225499 15.2077L0.22515 15.2086L1.152 15.584ZM6.864 1.52L5.95363 1.1062L5.94518 1.12479L5.9375 1.14371L6.864 1.52ZM8.04 0.727999L8.08611 -0.270937L8.06307 -0.272001H8.04V0.727999ZM9.096 1.52L8.15664 1.86294L8.16378 1.88248L8.17171 1.9017L9.096 1.52ZM14.904 15.584L15.8309 15.2086L15.8283 15.2023L14.904 15.584ZM14.352 16.904L14.7173 17.8349L14.7213 17.8333L14.352 16.904ZM13.032 16.352L13.9597 15.9785L13.9565 15.9709L13.032 16.352ZM11.736 13.208L12.6605 12.8269L12.4054 12.208H11.736V13.208ZM4.26 13.208V12.208H3.57863L3.32934 12.8421L4.26 13.208ZM3.024 16.352L3.9533 16.7213L3.95467 16.7179L3.024 16.352ZM5.052 11.192L4.12173 10.8251L3.58265 12.192H5.052V11.192ZM10.908 11.192V12.192H12.4L11.833 10.8119L10.908 11.192ZM7.92 3.92L8.84496 3.53994L7.90099 1.24256L6.98973 3.55311L7.92 3.92ZM2.08932 15.9716C2.04754 15.9554 2.0179 15.9409 1.99801 15.9297C1.97818 15.9186 1.96982 15.9118 1.96926 15.9114C1.96896 15.9111 1.97643 15.9173 1.98722 15.9312C1.99255 15.9381 1.99836 15.9464 2.0042 15.9562C2.01004 15.966 2.01557 15.9767 2.02054 15.9881C2.02551 15.9994 2.02961 16.0108 2.03288 16.022C2.03614 16.0331 2.03836 16.0433 2.03983 16.0522C2.04279 16.0703 2.04227 16.0809 2.04222 16.0816C2.0422 16.082 2.04276 16.0723 2.04792 16.0514C2.0531 16.0304 2.06244 15.9999 2.07885 15.9594L0.22515 15.2086C0.0391579 15.6677 -0.0546218 16.2332 0.187461 16.7879C0.428836 17.3411 0.905746 17.6578 1.36668 17.8364L2.08932 15.9716ZM2.0785 15.9603L7.7905 1.89629L5.9375 1.14371L0.225499 15.2077L2.0785 15.9603ZM7.77437 1.9338C7.83966 1.79016 7.89228 1.75027 7.90063 1.74441C7.90554 1.74097 7.91009 1.73853 7.91847 1.73604C7.92781 1.73326 7.95044 1.728 7.992 1.728V-0.272001C7.5549 -0.272001 7.12672 -0.15596 6.75137 0.107586C6.38372 0.365725 6.12834 0.721837 5.95363 1.1062L7.77437 1.9338ZM7.992 1.728H8.04V-0.272001H7.992V1.728ZM7.9939 1.72694C8.04482 1.72929 8.07304 1.73664 8.08489 1.74055C8.09547 1.74405 8.09646 1.74584 8.094 1.744C8.08396 1.73647 8.11641 1.75273 8.15664 1.86294L10.0354 1.17706C9.89159 0.783272 9.65604 0.415532 9.294 0.143999C8.9299 -0.129074 8.50903 -0.251418 8.08611 -0.270937L7.9939 1.72694ZM8.17171 1.9017L13.9797 15.9657L15.8283 15.2023L10.0203 1.1383L8.17171 1.9017ZM13.9772 15.9594C13.9939 16.0008 14.0037 16.0323 14.0092 16.0545C14.0148 16.0767 14.0157 16.0878 14.0157 16.089C14.0158 16.0899 14.0151 16.0808 14.0177 16.0641C14.0189 16.0558 14.0209 16.0461 14.0239 16.0354C14.0269 16.0247 14.0307 16.0135 14.0354 16.0022C14.0401 15.9909 14.0455 15.9801 14.0513 15.9701C14.057 15.9601 14.0629 15.9514 14.0684 15.944C14.0796 15.9291 14.0879 15.9217 14.0892 15.9206C14.0902 15.9198 14.0838 15.9254 14.0663 15.9354C14.0488 15.9455 14.0217 15.9592 13.9827 15.9747L14.7213 17.8333C15.1797 17.6511 15.6485 17.3289 15.8806 16.7738C16.1111 16.2225 16.0151 15.6634 15.8309 15.2086L13.9772 15.9594ZM13.9867 15.9731C13.9453 15.9894 13.9136 15.9989 13.8909 16.0043C13.8683 16.0097 13.8565 16.0107 13.8544 16.0108C13.8526 16.0109 13.8605 16.0103 13.8759 16.0127C13.8917 16.0151 13.9118 16.0202 13.9338 16.0294C13.9558 16.0386 13.9747 16.0498 13.9894 16.0608C14.0038 16.0715 14.011 16.0796 14.0122 16.081C14.0131 16.0821 14.0078 16.076 13.998 16.0593C13.9882 16.0425 13.9749 16.0164 13.9596 15.9785L12.1044 16.7255C12.2883 17.1824 12.6117 17.6444 13.1622 17.8746C13.7075 18.1026 14.2622 18.0135 14.7173 17.8349L13.9867 15.9731ZM13.9565 15.9709L12.6605 12.8269L10.8115 13.5891L12.1075 16.7331L13.9565 15.9709ZM11.736 12.208H4.26V14.208H11.736V12.208ZM3.32934 12.8421L2.09333 15.9861L3.95467 16.7179L5.19067 13.5739L3.32934 12.8421ZM2.0947 15.9827C2.07884 16.0226 2.06484 16.0505 2.05434 16.0689C2.04387 16.0872 2.0379 16.0942 2.03839 16.0936C2.0391 16.0928 2.04635 16.0844 2.06146 16.0728C2.06893 16.0672 2.07789 16.061 2.08832 16.0549C2.09876 16.0488 2.11009 16.0431 2.12214 16.038C2.13419 16.0328 2.14626 16.0286 2.15808 16.0253C2.16988 16.0219 2.18076 16.0196 2.19039 16.0181C2.20987 16.0151 2.22185 16.0157 2.22404 16.0159C2.22588 16.016 2.2178 16.0156 2.19851 16.0106C2.17912 16.0057 2.15041 15.9966 2.11176 15.9806L1.34424 17.8274C1.79485 18.0147 2.35368 18.1132 2.90586 17.878C3.45641 17.6435 3.77349 17.1738 3.9533 16.7213L2.0947 15.9827ZM5.052 12.192H10.908V10.192H5.052V12.192ZM11.833 10.8119L8.84496 3.53994L6.99504 4.30006L9.98304 11.5721L11.833 10.8119ZM6.98973 3.55311L4.12173 10.8251L5.98227 11.5589L8.85027 4.28689L6.98973 3.55311ZM24.0178 16.172L23.4301 16.9811L23.4342 16.984L24.0178 16.172ZM22.5898 13.616L21.5939 13.7065L21.5973 13.7436L21.6034 13.7804L22.5898 13.616ZM22.8058 12.824L22.0987 12.1169L22.0987 12.1169L22.8058 12.824ZM24.3058 12.8L23.5808 13.4887L23.5896 13.498L23.5987 13.5071L24.3058 12.8ZM24.6298 13.544L23.6434 13.7084L23.6474 13.7325L23.6526 13.7564L24.6298 13.544ZM25.3978 14.684L24.9291 15.5673L24.9398 15.573L24.9506 15.5784L25.3978 14.684ZM32.7778 14.432L32.0707 13.7249L32.0707 13.7249L32.7778 14.432ZM32.7658 10.232L32.0587 10.9391L32.0662 10.9465L32.7658 10.232ZM24.3298 8.552L23.615 9.25142L23.6227 9.25911L24.3298 8.552ZM24.3178 1.82L23.6107 1.11288L23.6068 1.11681L24.3178 1.82ZM33.5218 1.508L32.9363 2.31869L32.9406 2.32173L33.5218 1.508ZM34.9018 3.896L35.8922 3.7578L35.8896 3.73869L35.8861 3.7197L34.9018 3.896ZM34.7098 4.688L35.4169 5.39511L35.4248 5.38725L35.4325 5.37922L34.7098 4.688ZM33.1978 4.7L33.922 4.01034L33.9219 4.01034L33.1978 4.7ZM32.8858 3.968L33.8747 3.81966L33.8661 3.76227L33.851 3.70627L32.8858 3.968ZM32.1538 3.008L31.7146 3.90638L31.7227 3.91036L31.7309 3.91418L32.1538 3.008ZM25.7458 3.26L26.4614 3.95858L26.4695 3.95007L25.7458 3.26ZM25.7578 7.112L26.4812 6.42152L26.4812 6.42152L25.7578 7.112ZM34.1938 8.792L33.4867 9.49912L33.4904 9.50276L34.1938 8.792ZM34.2058 15.872L34.9054 16.5865L34.9092 16.5828L34.2058 15.872ZM27.2218 16C25.9736 16 25.1387 15.7462 24.6014 15.36L23.4342 16.984C24.4329 17.7018 25.7341 18 27.2218 18V16ZM24.6055 15.3629C24.1068 15.0007 23.7361 14.4112 23.5762 13.4516L21.6034 13.7804C21.8275 15.1248 22.4088 16.2393 23.4301 16.9811L24.6055 15.3629ZM23.5857 13.5255C23.5817 13.4819 23.582 13.4517 23.5832 13.4333C23.5844 13.415 23.5863 13.4107 23.5846 13.4171C23.5827 13.4241 23.5772 13.441 23.5645 13.4635C23.5515 13.4865 23.5341 13.5099 23.5129 13.5311L22.0987 12.1169C21.6358 12.5798 21.5468 13.1881 21.5939 13.7065L23.5857 13.5255ZM23.5129 13.5311C23.5001 13.5439 23.4866 13.5543 23.4743 13.5618C23.4622 13.5691 23.4548 13.5717 23.4549 13.5717C23.4565 13.5711 23.4908 13.56 23.5738 13.56V11.56C23.0681 11.56 22.5204 11.6952 22.0987 12.1169L23.5129 13.5311ZM23.5738 13.56C23.6186 13.56 23.6507 13.5627 23.6719 13.5656C23.6931 13.5685 23.7005 13.5713 23.6973 13.5702C23.6937 13.5691 23.6785 13.5637 23.6563 13.5502C23.6335 13.5364 23.6069 13.5163 23.5808 13.4887L25.0308 12.1113C24.6106 11.669 24.0421 11.56 23.5738 11.56V13.56ZM23.5987 13.5071C23.5747 13.4831 23.5764 13.4742 23.59 13.5053C23.6041 13.5377 23.6256 13.6014 23.6434 13.7084L25.6162 13.3796C25.5423 12.9361 25.3777 12.4577 25.0129 12.0929L23.5987 13.5071ZM23.6526 13.7564C23.8167 14.5113 24.2092 15.1854 24.9291 15.5673L25.8665 13.8007C25.8024 13.7666 25.6829 13.6807 25.607 13.3316L23.6526 13.7564ZM24.9506 15.5784C25.5614 15.8838 26.3585 15.984 27.2218 15.984V13.984C26.4531 13.984 26.0342 13.8842 25.845 13.7896L24.9506 15.5784ZM27.2218 15.984H30.6778V13.984H27.2218V15.984ZM30.6778 15.984C31.7478 15.984 32.814 15.81 33.4849 15.1391L32.0707 13.7249C32.0056 13.79 31.6718 13.984 30.6778 13.984V15.984ZM33.4849 15.1391C34.1592 14.4648 34.3418 13.4108 34.3418 12.344H32.3418C32.3418 13.3092 32.1484 13.6472 32.0707 13.7249L33.4849 15.1391ZM34.3418 12.344C34.3418 11.2629 34.156 10.1936 33.4654 9.51749L32.0662 10.9465C32.1437 11.0224 32.3418 11.3611 32.3418 12.344H34.3418ZM33.4729 9.52489C32.7944 8.84639 31.7467 8.656 30.6778 8.656V10.656C31.625 10.656 31.9692 10.8496 32.0587 10.9391L33.4729 9.52489ZM30.6778 8.656H27.7018V10.656H30.6778V8.656ZM27.7018 8.656C26.3349 8.656 25.5148 8.32274 25.0369 7.84489L23.6227 9.25911C24.6169 10.2533 26.0447 10.656 27.7018 10.656V8.656ZM25.0446 7.85262C24.568 7.36562 24.2378 6.53657 24.2378 5.168H22.2378C22.2378 6.82343 22.6356 8.25038 23.6151 9.25138L25.0446 7.85262ZM24.2378 5.168C24.2378 3.80449 24.5654 2.99179 25.0288 2.52319L23.6068 1.11681C22.6303 2.10421 22.2378 3.52351 22.2378 5.168H24.2378ZM25.0249 2.52711C25.493 2.05905 26.3072 1.728 27.6778 1.728V-0.272001C26.0244 -0.272001 24.5987 0.124944 23.6107 1.11289L25.0249 2.52711ZM27.6778 1.728H30.5338V-0.272001H27.6778V1.728ZM30.5338 1.728C31.6831 1.728 32.4461 1.96464 32.9363 2.31868L34.1073 0.697321C33.1575 0.0113566 31.9285 -0.272001 30.5338 -0.272001V1.728ZM32.9406 2.32173C33.4117 2.65828 33.7609 3.19797 33.9175 4.0723L35.8861 3.7197C35.6587 2.45002 35.0879 1.39772 34.103 0.694266L32.9406 2.32173ZM33.9114 4.0342C33.9226 4.11476 33.9133 4.13556 33.918 4.1164C33.9206 4.10567 33.9266 4.08646 33.9393 4.06278C33.9522 4.03876 33.9687 4.01611 33.9872 3.99678L35.4325 5.37922C35.8901 4.90075 35.9661 4.28718 35.8922 3.7578L33.9114 4.0342ZM34.0027 3.98089C34.0183 3.96532 34.0339 3.95377 34.0468 3.94601C34.0594 3.93845 34.0662 3.93646 34.0636 3.93732C34.0564 3.93969 34.0135 3.952 33.9178 3.952V5.952C34.424 5.952 34.9872 5.82479 35.4169 5.39511L34.0027 3.98089ZM33.9178 3.952C33.8425 3.952 33.8186 3.94179 33.8282 3.94514C33.8339 3.94714 33.8476 3.95265 33.8659 3.96416C33.8844 3.97587 33.9039 3.99138 33.922 4.01034L32.4737 5.38965C32.8852 5.82174 33.4309 5.952 33.9178 5.952V3.952ZM33.9219 4.01034C33.9498 4.03959 33.9039 4.01414 33.8747 3.81966L31.8969 4.11634C31.9637 4.56186 32.1258 5.02441 32.4737 5.38966L33.9219 4.01034ZM33.851 3.70627C33.6653 3.02175 33.2642 2.42264 32.5767 2.10182L31.7309 3.91418C31.7635 3.92936 31.8503 3.97024 31.9207 4.22973L33.851 3.70627ZM32.593 2.10962C32.0269 1.83285 31.3032 1.744 30.5338 1.744V3.744C31.2044 3.744 31.5607 3.83115 31.7146 3.90638L32.593 2.10962ZM30.5338 1.744H27.6778V3.744H30.5338V1.744ZM27.6778 1.744C26.6868 1.744 25.658 1.903 25.0221 2.56992L26.4695 3.95007C26.4654 3.95437 26.5203 3.8959 26.7328 3.83913C26.9427 3.78309 27.2502 3.744 27.6778 3.744V1.744ZM25.0302 2.56146C24.4075 3.19942 24.2538 4.19557 24.2538 5.168H26.2538C26.2538 4.26842 26.4282 3.99258 26.4614 3.95854L25.0302 2.56146ZM24.2538 5.168C24.2538 6.15762 24.4149 7.15346 25.0345 7.80248L26.4812 6.42152C26.4287 6.36654 26.2538 6.06638 26.2538 5.168H24.2538ZM25.0345 7.80247C25.6754 8.47394 26.7024 8.64 27.7018 8.64V6.64C26.7812 6.64 26.5122 6.45406 26.4812 6.42152L25.0345 7.80247ZM27.7018 8.64H30.6778V6.64H27.7018V8.64ZM30.6778 8.64C32.1084 8.64 32.9767 8.98908 33.4867 9.49911L34.9009 8.08489C33.8749 7.05892 32.3993 6.64 30.6778 6.64V8.64ZM33.4904 9.50276C34.0036 10.0106 34.3578 10.8869 34.3578 12.344H36.3578C36.3578 10.6011 35.9361 9.10935 34.8972 8.08124L33.4904 9.50276ZM34.3578 12.344C34.3578 13.795 34.0067 14.6622 33.5024 15.1612L34.9092 16.5828C35.941 15.5618 36.3578 14.077 36.3578 12.344H34.3578ZM33.5062 15.1575C32.9976 15.6555 32.1231 16 30.6778 16V18C32.4005 18 33.878 17.5925 34.9054 16.5865L33.5062 15.1575ZM30.6778 16H27.2218V18H30.6778V16ZM47.283 1.376L48.1159 0.822328L48.1079 0.810768L47.283 1.376ZM52.947 9.896L53.1114 10.8824L54.6348 10.6285L53.7798 9.34238L52.947 9.896ZM52.515 9.968L51.6822 9.41437L50.4066 11.3332L52.6794 10.9544L52.515 9.968ZM58.227 1.376L59.0598 1.92963L59.0666 1.9193L59.0732 1.90881L58.227 1.376ZM58.251 3.752L58.5781 2.80701L57.251 2.34763V3.752H58.251ZM58.875 3.968L59.7021 4.53009L60.436 3.45014L59.2021 3.02301L58.875 3.968ZM53.835 11.384L54.6599 11.9492L54.6621 11.9461L53.835 11.384ZM51.627 11.384L50.7999 11.9461L50.8021 11.9492L51.627 11.384ZM46.587 3.968L46.8566 3.00504L44.2222 2.26738L45.7599 4.53009L46.587 3.968ZM47.187 4.136H48.187V3.37754L47.4566 3.17304L47.187 4.136ZM46.179 16C46.1363 16 46.1052 15.9973 46.0842 15.9943C46.0632 15.9913 46.0541 15.9883 46.0542 15.9883C46.0547 15.9885 46.0642 15.9917 46.0792 16.0008C46.0867 16.0052 46.095 16.0108 46.1039 16.0177C46.1127 16.0246 46.1216 16.0323 46.1301 16.0409C46.1387 16.0494 46.1464 16.0583 46.1533 16.0671C46.1602 16.076 46.1658 16.0843 46.1702 16.0918C46.1793 16.1068 46.1825 16.1163 46.1827 16.1168C46.1827 16.1169 46.1797 16.1078 46.1767 16.0868C46.1737 16.0658 46.171 16.0347 46.171 15.992H44.171C44.171 16.4821 44.2942 17.0334 44.7159 17.4551C45.1376 17.8768 45.6889 18 46.179 18V16ZM46.171 15.992V1.736H44.171V15.992H46.171ZM46.171 1.736C46.171 1.69328 46.1737 1.66221 46.1767 1.64117C46.1797 1.62021 46.1827 1.61111 46.1827 1.61123C46.1825 1.61166 46.1793 1.62116 46.1702 1.63625C46.1658 1.6437 46.1602 1.65204 46.1533 1.66088C46.1464 1.66973 46.1387 1.67856 46.1301 1.68711C46.1216 1.69565 46.1127 1.70341 46.1039 1.71029C46.095 1.71716 46.0867 1.72277 46.0792 1.72724C46.0642 1.73629 46.0547 1.73954 46.0542 1.73968C46.0541 1.73972 46.0632 1.73669 46.0842 1.7337C46.1052 1.73069 46.1363 1.728 46.179 1.728V-0.272001C45.6889 -0.272001 45.1376 -0.148787 44.7159 0.272892C44.2942 0.694572 44.171 1.24585 44.171 1.736H46.171ZM46.179 1.728C46.2232 1.728 46.3079 1.72203 46.4581 1.94123L48.1079 0.810768C47.6661 0.165968 47.0148 -0.272001 46.179 -0.272001V1.728ZM46.4502 1.92962L52.1142 10.4496L53.7798 9.34238L48.1158 0.822382L46.4502 1.92962ZM52.7826 8.90961L52.3506 8.98161L52.6794 10.9544L53.1114 10.8824L52.7826 8.90961ZM53.3478 10.5216L59.0598 1.92963L57.3942 0.822373L51.6822 9.41437L53.3478 10.5216ZM59.0732 1.90881C59.1481 1.78983 59.2235 1.728 59.451 1.728V-0.272001C58.5905 -0.272001 57.8499 0.098169 57.3808 0.843186L59.0732 1.90881ZM59.451 1.728C59.4859 1.728 59.4706 1.73353 59.4273 1.71568C59.4052 1.7066 59.3794 1.69282 59.3528 1.67314C59.3262 1.65339 59.3036 1.63127 59.2858 1.6092C59.2497 1.5647 59.2455 1.5368 59.2505 1.55552C59.2561 1.57632 59.267 1.63219 59.267 1.736H61.267C61.267 1.29107 61.1812 0.771938 60.8402 0.350801C60.4666 -0.110743 59.9396 -0.272001 59.451 -0.272001V1.728ZM59.267 1.736V15.992H61.267V1.736H59.267ZM59.267 15.992C59.267 16.0347 59.2643 16.0658 59.2613 16.0868C59.2583 16.1078 59.2553 16.1169 59.2553 16.1168C59.2555 16.1163 59.2587 16.1068 59.2678 16.0918C59.2722 16.0843 59.2778 16.076 59.2847 16.0671C59.2916 16.0583 59.2993 16.0494 59.3079 16.0409C59.3164 16.0323 59.3253 16.0246 59.3341 16.0177C59.343 16.0108 59.3513 16.0052 59.3588 16.0008C59.3738 15.9917 59.3833 15.9885 59.3838 15.9883C59.3839 15.9883 59.3748 15.9913 59.3538 15.9943C59.3328 15.9973 59.3017 16 59.259 16V18C59.7491 18 60.3004 17.8768 60.7221 17.4551C61.1438 17.0334 61.267 16.4821 61.267 15.992H59.267ZM59.259 16C59.2163 16 59.1852 15.9973 59.1642 15.9943C59.1432 15.9913 59.1341 15.9883 59.1342 15.9883C59.1347 15.9885 59.1442 15.9917 59.1592 16.0008C59.1667 16.0052 59.175 16.0108 59.1839 16.0177C59.1927 16.0246 59.2016 16.0323 59.2101 16.0409C59.2187 16.0494 59.2264 16.0583 59.2333 16.0671C59.2402 16.076 59.2458 16.0843 59.2502 16.0918C59.2593 16.1068 59.2625 16.1163 59.2627 16.1168C59.2627 16.1169 59.2597 16.1078 59.2567 16.0868C59.2537 16.0658 59.251 16.0347 59.251 15.992H57.251C57.251 16.4821 57.3742 17.0334 57.7959 17.4551C58.2176 17.8768 58.7689 18 59.259 18V16ZM59.251 15.992V3.752H57.251V15.992H59.251ZM57.9239 4.69698L58.5479 4.91298L59.2021 3.02301L58.5781 2.80701L57.9239 4.69698ZM58.0479 3.40591L53.0079 10.8219L54.6621 11.9461L59.7021 4.53009L58.0479 3.40591ZM53.0101 10.8188C52.8989 10.981 52.7984 11.032 52.611 11.032V13.032C53.4636 13.032 54.1791 12.651 54.6599 11.9492L53.0101 10.8188ZM52.611 11.032C52.6228 11.032 52.6358 11.034 52.6465 11.0374C52.6567 11.0406 52.6563 11.0423 52.645 11.0348C52.6188 11.0176 52.5497 10.9615 52.4519 10.8188L50.8021 11.9492C51.1941 12.5214 51.7882 13.032 52.611 13.032V11.032ZM52.4541 10.8219L47.4141 3.40591L45.7599 4.53009L50.7999 11.9461L52.4541 10.8219ZM46.3174 4.93096L46.9174 5.09896L47.4566 3.17304L46.8566 3.00504L46.3174 4.93096ZM46.187 4.136V15.992H48.187V4.136H46.187ZM46.187 15.992C46.187 16.0347 46.1843 16.0658 46.1813 16.0868C46.1783 16.1078 46.1753 16.1169 46.1753 16.1168C46.1755 16.1163 46.1787 16.1068 46.1878 16.0918C46.1922 16.0843 46.1978 16.076 46.2047 16.0671C46.2116 16.0583 46.2193 16.0494 46.2279 16.0409C46.2364 16.0323 46.2453 16.0246 46.2541 16.0177C46.263 16.0108 46.2713 16.0052 46.2788 16.0008C46.2938 15.9917 46.3033 15.9885 46.3038 15.9883C46.3039 15.9883 46.2948 15.9913 46.2738 15.9943C46.2528 15.9973 46.2217 16 46.179 16V18C46.6691 18 47.2204 17.8768 47.6421 17.4551C48.0638 17.0334 48.187 16.4821 48.187 15.992H46.187ZM80.8569 1.736L80.154 2.44729L80.1582 2.45138L80.8569 1.736ZM80.8689 7.772L80.2123 7.01778L79.1408 7.95066L80.3805 8.6446L80.8689 7.772ZM81.6009 15.848L80.9011 15.1336L80.8975 15.1372L81.6009 15.848ZM72.6729 14.984H71.6729V15.984H72.6729V14.984ZM80.1729 14.408L79.4658 13.7009L79.4658 13.7009L80.1729 14.408ZM80.1969 9.776L79.4824 10.4757L79.4898 10.4831L80.1969 9.776ZM72.6729 9.2V8.2H71.6729V9.2H72.6729ZM72.6729 7.184H71.6729V8.184H72.6729V7.184ZM79.5489 6.644L78.6914 6.1295L78.6872 6.13658L78.6831 6.14372L79.5489 6.644ZM79.4409 3.164L78.7439 3.88099L78.749 3.88604L78.7543 3.89101L79.4409 3.164ZM72.6729 2.744V1.744H71.6729V2.744H72.6729ZM71.6649 16C71.6222 16 71.5911 15.9973 71.5701 15.9943C71.5491 15.9913 71.54 15.9883 71.5402 15.9883C71.5406 15.9885 71.5501 15.9917 71.5652 16.0008C71.5726 16.0052 71.581 16.0108 71.5898 16.0177C71.5987 16.0246 71.6075 16.0323 71.616 16.0409C71.6246 16.0494 71.6323 16.0583 71.6392 16.0671C71.6461 16.076 71.6517 16.0843 71.6562 16.0918C71.6652 16.1068 71.6685 16.1163 71.6686 16.1168C71.6687 16.1169 71.6656 16.1078 71.6626 16.0868C71.6596 16.0658 71.6569 16.0347 71.6569 15.992H69.6569C69.6569 16.4821 69.7801 17.0334 70.2018 17.4551C70.6235 17.8768 71.1748 18 71.6649 18V16ZM71.6569 15.992V1.736H69.6569V15.992H71.6569ZM71.6569 1.736C71.6569 1.69328 71.6596 1.66221 71.6626 1.64117C71.6656 1.62021 71.6687 1.61111 71.6686 1.61123C71.6685 1.61166 71.6652 1.62116 71.6562 1.63625C71.6517 1.6437 71.6461 1.65204 71.6392 1.66088C71.6323 1.66973 71.6246 1.67856 71.616 1.68711C71.6075 1.69565 71.5987 1.70341 71.5898 1.71029C71.581 1.71716 71.5726 1.72277 71.5652 1.72724C71.5501 1.73629 71.5406 1.73954 71.5402 1.73968C71.54 1.73972 71.5491 1.73669 71.5701 1.7337C71.5911 1.73069 71.6222 1.728 71.6649 1.728V-0.272001C71.1748 -0.272001 70.6235 -0.148787 70.2018 0.272892C69.7801 0.694572 69.6569 1.24585 69.6569 1.736H71.6569ZM71.6649 1.728H77.9289V-0.272001H71.6649V1.728ZM77.9289 1.728C79.0275 1.728 79.7166 2.01501 80.154 2.44728L81.5598 1.02472C80.6373 0.112992 79.3743 -0.272001 77.9289 -0.272001V1.728ZM80.1582 2.45138C80.6008 2.8837 80.8889 3.55338 80.8889 4.616H82.8889C82.8889 3.18262 82.4891 1.93229 81.5557 1.02062L80.1582 2.45138ZM80.8889 4.616V5.264H82.8889V4.616H80.8889ZM80.8889 5.264C80.8889 6.11746 80.631 6.65332 80.2123 7.01778L81.5256 8.52622C82.4669 7.70668 82.8889 6.57053 82.8889 5.264H80.8889ZM80.3805 8.6446C81.2417 9.12666 81.7769 10.0224 81.7769 11.672H83.7769C83.7769 9.54564 83.0402 7.84134 81.3574 6.8994L80.3805 8.6446ZM81.7769 11.672V12.488H83.7769V11.672H81.7769ZM81.7769 12.488C81.7769 13.7861 81.4346 14.6111 80.9012 15.1336L82.3007 16.5624C83.3353 15.5489 83.7769 14.1339 83.7769 12.488H81.7769ZM80.8975 15.1372C80.3655 15.6637 79.534 16 78.2409 16V18C79.8759 18 81.2843 17.5683 82.3044 16.5588L80.8975 15.1372ZM78.2409 16H71.6649V18H78.2409V16ZM72.6729 15.984H78.2409V13.984H72.6729V15.984ZM78.2409 15.984C79.2434 15.984 80.2167 15.7785 80.88 15.1151L79.4658 13.7009C79.3612 13.8055 79.0465 13.984 78.2409 13.984V15.984ZM80.88 15.1151C81.5457 14.4495 81.7609 13.4877 81.7609 12.488H79.7609C79.7609 13.2643 79.5842 13.5825 79.4658 13.7009L80.88 15.1151ZM81.7609 12.488V11.672H79.7609V12.488H81.7609ZM81.7609 11.672C81.7609 10.6867 81.5599 9.72473 80.904 9.06889L79.4898 10.4831C79.586 10.5793 79.7609 10.8813 79.7609 11.672H81.7609ZM80.9114 9.07637C80.2496 8.40048 79.2554 8.2 78.2409 8.2V10.2C79.0825 10.2 79.3922 10.3835 79.4824 10.4756L80.9114 9.07637ZM78.2409 8.2H72.6729V10.2H78.2409V8.2ZM71.6729 9.2V14.984H73.6729V9.2H71.6729ZM72.6729 8.184H78.3609V6.184H72.6729V8.184ZM78.3609 8.184C79.1408 8.184 79.9599 7.93155 80.4148 7.14428L78.6831 6.14372C78.6827 6.14438 78.6856 6.13977 78.6912 6.13475C78.6965 6.13004 78.6958 6.13241 78.6821 6.13863C78.6505 6.153 78.5565 6.184 78.3609 6.184V8.184ZM80.4064 7.1585C80.7418 6.59947 80.8729 5.94655 80.8729 5.264H78.8729C78.8729 5.70145 78.788 5.96853 78.6914 6.1295L80.4064 7.1585ZM80.8729 5.264V4.616H78.8729V5.264H80.8729ZM80.8729 4.616C80.8729 3.83886 80.7227 2.99903 80.1276 2.43699L78.7543 3.89101C78.7398 3.87733 78.7711 3.89731 78.8065 4.01617C78.8427 4.13809 78.8729 4.33088 78.8729 4.616H80.8729ZM80.138 2.44701C79.562 1.88695 78.7213 1.744 77.9289 1.744V3.744C78.2298 3.744 78.4402 3.77389 78.5793 3.81252C78.7171 3.8508 78.751 3.88792 78.7439 3.88099L80.138 2.44701ZM77.9289 1.744H72.6729V3.744H77.9289V1.744ZM71.6729 2.744V7.184H73.6729V2.744H71.6729ZM92.4454 16.76L91.7212 17.4497L91.7381 17.4673L91.7557 17.4841L92.4454 16.76ZM92.4454 0.991999L91.7557 0.26786L91.7469 0.276271L91.7383 0.284893L92.4454 0.991999ZM93.9814 0.991999L94.6885 0.284893L94.6885 0.284892L93.9814 0.991999ZM93.9814 16.76L94.6885 17.4671L94.6971 17.4585L94.7055 17.4497L93.9814 16.76ZM93.2134 16C93.1155 16 93.0703 15.9882 93.0616 15.9855C93.0585 15.9845 93.066 15.9866 93.0805 15.9947C93.0953 16.0032 93.1147 16.0165 93.135 16.0359L91.7557 17.4841C92.1825 17.8906 92.7348 18 93.2134 18V16ZM93.1695 16.0703C93.1889 16.0907 93.2022 16.11 93.2106 16.1249C93.2188 16.1393 93.2208 16.1469 93.2199 16.1437C93.2172 16.1351 93.2054 16.0899 93.2054 15.992H91.2054C91.2054 16.4706 91.3148 17.0229 91.7212 17.4497L93.1695 16.0703ZM93.2054 15.992V1.76H91.2054V15.992H93.2054ZM93.2054 1.76C93.2054 1.70939 93.2083 1.67143 93.2118 1.64445C93.2154 1.61745 93.2192 1.60438 93.2199 1.60227C93.2204 1.60043 93.2173 1.61112 93.2066 1.62972C93.1955 1.64888 93.178 1.67356 93.1525 1.6991L91.7383 0.284893C91.3091 0.714031 91.2054 1.28627 91.2054 1.76H93.2054ZM93.135 1.71614C93.1147 1.73551 93.0953 1.74884 93.0805 1.75726C93.066 1.76543 93.0585 1.76746 93.0616 1.76648C93.0703 1.76378 93.1155 1.752 93.2134 1.752V-0.248001C92.7348 -0.248001 92.1825 -0.138569 91.7557 0.26786L93.135 1.71614ZM93.2134 1.752C93.264 1.752 93.3019 1.7549 93.3289 1.75845C93.3559 1.76201 93.369 1.76582 93.3711 1.76648C93.3729 1.76706 93.3623 1.76392 93.3437 1.75318C93.3245 1.74213 93.2998 1.72465 93.2743 1.69911L94.6885 0.284892C94.2593 -0.144246 93.6871 -0.248001 93.2134 -0.248001V1.752ZM93.2743 1.6991C93.2487 1.67356 93.2312 1.64888 93.2202 1.62972C93.2095 1.61112 93.2063 1.60043 93.2069 1.60227C93.2076 1.60438 93.2114 1.61745 93.2149 1.64445C93.2185 1.67143 93.2214 1.70939 93.2214 1.76H95.2214C95.2214 1.28627 95.1176 0.714031 94.6885 0.284893L93.2743 1.6991ZM93.2214 1.76V15.992H95.2214V1.76H93.2214ZM93.2214 15.992C93.2214 16.0899 93.2096 16.1351 93.2069 16.1437C93.2059 16.1469 93.2079 16.1393 93.2161 16.1249C93.2245 16.11 93.2379 16.0907 93.2572 16.0703L94.7055 17.4497C95.1119 17.0229 95.2214 16.4706 95.2214 15.992H93.2214ZM93.2743 16.0529C93.2998 16.0274 93.3245 16.0099 93.3437 15.9988C93.3623 15.9881 93.3729 15.9849 93.3711 15.9855C93.369 15.9862 93.3559 15.99 93.3289 15.9935C93.3019 15.9971 93.264 16 93.2134 16V18C93.6871 18 94.2593 17.8962 94.6885 17.4671L93.2743 16.0529ZM108.729 16.748L108.022 17.4551L108.022 17.4551L108.729 16.748ZM108.477 2.768H109.477V1.768H108.477V2.768ZM103.065 2.516L102.358 3.22311L102.358 3.22311L103.065 2.516ZM103.065 1.004L103.772 1.71111L103.772 1.71111L103.065 1.004ZM115.905 2.516L116.612 3.22311L116.612 3.22311L115.905 2.516ZM110.493 2.768V1.768H109.493V2.768H110.493ZM110.229 16.736L109.522 16.0289L109.514 16.0371L109.506 16.0455L110.229 16.736ZM109.485 16C109.442 16 109.411 15.9973 109.39 15.9943C109.369 15.9913 109.36 15.9883 109.36 15.9883C109.361 15.9885 109.37 15.9917 109.385 16.0008C109.401 16.01 109.419 16.0233 109.436 16.0409L108.022 17.4551C108.444 17.8768 108.995 18 109.485 18V16ZM109.436 16.0409C109.454 16.0585 109.467 16.0763 109.476 16.0918C109.485 16.1068 109.489 16.1163 109.489 16.1168C109.489 16.1169 109.486 16.1078 109.483 16.0868C109.48 16.0658 109.477 16.0347 109.477 15.992H107.477C107.477 16.4821 107.6 17.0334 108.022 17.4551L109.436 16.0409ZM109.477 15.992V2.768H107.477V15.992H109.477ZM108.477 1.768H103.821V3.768H108.477V1.768ZM103.821 1.768C103.778 1.768 103.747 1.7653 103.726 1.7623C103.705 1.75931 103.696 1.75628 103.696 1.75632C103.697 1.75646 103.706 1.7597 103.721 1.76876C103.737 1.77802 103.755 1.79132 103.772 1.80889L102.358 3.22311C102.78 3.64479 103.331 3.768 103.821 3.768V1.768ZM103.772 1.80889C103.79 1.82647 103.803 1.84431 103.812 1.85975C103.821 1.87484 103.825 1.88434 103.825 1.88477C103.825 1.88489 103.822 1.87578 103.819 1.85483C103.816 1.83379 103.813 1.80272 103.813 1.76H101.813C101.813 2.25014 101.936 2.80143 102.358 3.22311L103.772 1.80889ZM103.813 1.76C103.813 1.71728 103.816 1.68621 103.819 1.66517C103.822 1.64421 103.825 1.63511 103.825 1.63523C103.825 1.63566 103.821 1.64516 103.812 1.66025C103.803 1.67569 103.79 1.69353 103.772 1.71111L102.358 0.296893C101.936 0.718572 101.813 1.26985 101.813 1.76H103.813ZM103.772 1.71111C103.755 1.72868 103.737 1.74197 103.721 1.75124C103.706 1.76029 103.697 1.76354 103.696 1.76368C103.696 1.76372 103.705 1.76069 103.726 1.7577C103.747 1.75469 103.778 1.752 103.821 1.752V-0.248001C103.331 -0.248001 102.78 -0.124787 102.358 0.296893L103.772 1.71111ZM103.821 1.752H115.149V-0.248001H103.821V1.752ZM115.149 1.752C115.192 1.752 115.223 1.75469 115.244 1.7577C115.265 1.76069 115.274 1.76372 115.274 1.76368C115.274 1.76354 115.264 1.76029 115.249 1.75124C115.233 1.74197 115.216 1.72868 115.198 1.71111L116.612 0.296892C116.191 -0.124787 115.639 -0.248001 115.149 -0.248001V1.752ZM115.198 1.71111C115.181 1.69353 115.167 1.67569 115.158 1.66025C115.149 1.64516 115.146 1.63566 115.146 1.63523C115.145 1.63511 115.148 1.64421 115.151 1.66517C115.154 1.68621 115.157 1.71728 115.157 1.76H117.157C117.157 1.26985 117.034 0.718572 116.612 0.296892L115.198 1.71111ZM115.157 1.76C115.157 1.80272 115.154 1.83379 115.151 1.85483C115.148 1.87578 115.145 1.88489 115.146 1.88477C115.146 1.88434 115.149 1.87484 115.158 1.85975C115.167 1.84431 115.181 1.82647 115.198 1.80889L116.612 3.22311C117.034 2.80143 117.157 2.25014 117.157 1.76H115.157ZM115.198 1.80889C115.216 1.79132 115.233 1.77802 115.249 1.76876C115.264 1.7597 115.274 1.75646 115.274 1.75632C115.274 1.75628 115.265 1.75931 115.244 1.7623C115.223 1.7653 115.192 1.768 115.149 1.768V3.768C115.639 3.768 116.191 3.64479 116.612 3.22311L115.198 1.80889ZM115.149 1.768H110.493V3.768H115.149V1.768ZM109.493 2.768V15.992H111.493V2.768H109.493ZM109.493 15.992C109.493 16.0619 109.483 16.0873 109.485 16.0836C109.486 16.0813 109.489 16.0733 109.496 16.0619C109.503 16.0504 109.512 16.039 109.522 16.0289L110.936 17.4431C111.349 17.0301 111.493 16.4979 111.493 15.992H109.493ZM109.506 16.0455C109.521 16.0301 109.537 16.0171 109.552 16.0072C109.568 15.9974 109.579 15.9929 109.583 15.9916C109.589 15.9894 109.562 16 109.485 16V18C109.988 18 110.537 17.8616 110.953 17.4265L109.506 16.0455Z" fill="#219653"/>
</svg>
