<svg width="39" height="39" viewBox="0 0 39 39" fill="none" xmlns="http://www.w3.org/2000/svg">
<g clip-path="url(#clip0_604_1067)">
<path d="M38.4448 10.2407C38.4447 10.2407 38.4447 10.2407 38.4446 10.2407L38.4433 10.2394L35.926 9.88024C35.5722 9.82985 35.3262 9.50216 35.3766 9.14834C35.4008 8.97831 35.4916 8.82494 35.6289 8.72188L37.6635 7.19595C37.9495 6.98151 38.0074 6.57592 37.7929 6.28998L35.4633 3.18376C35.2488 2.89781 34.8433 2.83989 34.5573 3.05433L32.5234 4.58026C32.2386 4.79632 31.8327 4.74067 31.6167 4.45593C31.5118 4.31769 31.4668 4.14305 31.4919 3.97131L31.8517 1.45398C31.9024 1.10017 31.6567 0.772315 31.303 0.721515C31.3027 0.721515 31.3025 0.721434 31.3022 0.721434L27.4609 0.172669C27.1072 0.12187 26.7791 0.367455 26.7283 0.721273C26.7283 0.721353 26.7283 0.721353 26.7283 0.721434L26.3685 3.23876C26.3181 3.59258 25.9905 3.83857 25.6366 3.78818C25.4666 3.76399 25.3132 3.67315 25.2102 3.5358L23.6849 1.50122C23.4705 1.21527 23.0649 1.15736 22.7789 1.3718L20.8343 2.83107C19.9545 2.73756 19.0673 2.73756 18.1875 2.83107C12.426 3.48961 7.90783 8.08438 7.3462 13.8562C7.32873 14.0393 7.32226 14.2212 7.3132 14.403H7.11906C6.812 14.4036 6.54756 14.6199 6.48617 14.9207L6.039 17.0472L4.24775 15.8118C3.99068 15.6344 3.6435 15.6661 3.42266 15.8869L1.48128 17.8283C1.26077 18.049 1.22922 18.3957 1.40621 18.6527L2.63576 20.4407L0.508644 20.8879C0.211127 20.9531 -0.000645649 21.2169 1.47904e-06 21.5214V24.11C-0.000160303 24.416 0.214282 24.6804 0.513821 24.7435L2.64093 25.1907L1.41139 26.9787C1.2344 27.2357 1.26595 27.5824 1.48646 27.8031L3.42784 29.7445C3.64867 29.9653 3.99586 29.997 4.25293 29.8196L6.04094 28.5868L6.48811 30.7139C6.54951 31.0147 6.81394 31.231 7.121 31.2316H9.70951C10.0156 31.2318 10.28 31.0173 10.3431 30.7178L10.7902 28.5907L12.5782 29.8202C12.8352 29.9972 13.1819 29.9657 13.4027 29.7451L14.4077 28.7369V30.5812C14.4106 31.5019 14.9038 32.3511 15.7019 32.8099V36.4054C15.7019 37.835 16.8608 38.9939 18.2904 38.9939H20.879C22.3085 38.9939 23.4675 37.835 23.4675 36.4054V32.8099C24.2656 32.3511 24.7588 31.5019 24.7617 30.5812V28.0199C24.7793 26.9422 25.3431 25.9472 26.2585 25.3783C26.7956 25.0299 27.3049 24.6404 27.7819 24.2135L26.9186 23.2493C26.4919 23.6317 26.036 23.9803 25.5551 24.2918C24.2701 25.0983 23.4836 26.5029 23.4675 28.0199V30.5812C23.4675 31.2961 22.888 31.8755 22.1732 31.8755H16.9962C16.2813 31.8755 15.7019 31.2961 15.7019 30.5812V27.9662C15.687 26.4779 14.9127 25.1004 13.6492 24.3138C8.52017 21.0909 6.97483 14.3204 10.1977 9.19138C12.1973 6.00904 15.6871 4.0721 19.4456 4.05868C19.4359 4.08173 19.4274 4.10527 19.4203 4.12921C19.3963 4.29908 19.4408 4.47163 19.5439 4.60874L21.0692 6.64266C21.23 6.85079 21.2455 7.13666 21.108 7.36097C20.9757 7.58666 20.7198 7.70977 20.4609 7.67224L17.9436 7.31244C17.5898 7.26172 17.2619 7.50739 17.2111 7.86112C17.2111 7.86136 17.211 7.86161 17.211 7.86185L16.6616 11.7051C16.6109 12.0589 16.8566 12.3868 17.2103 12.4376C17.2105 12.4376 17.2108 12.4377 17.211 12.4377L19.7284 12.7975C20.0822 12.8479 20.3282 13.1756 20.2778 13.5294C20.2536 13.6994 20.1627 13.8528 20.0254 13.9559L17.9915 15.4811C17.7055 15.6956 17.6476 16.1012 17.862 16.3871L20.1917 19.4933C20.4061 19.7793 20.8117 19.8372 21.0977 19.6228L23.1323 18.0975C23.4184 17.8834 23.824 17.9419 24.0381 18.2282C24.1405 18.3652 24.1846 18.5371 24.1605 18.7064L23.8014 21.2238C23.7506 21.5775 23.9962 21.9055 24.35 21.9563C24.3501 21.9563 24.3501 21.9563 24.3501 21.9563L28.1941 22.5057C28.2243 22.5096 28.2548 22.5115 28.2853 22.5115C28.6075 22.512 28.8809 22.2753 28.9266 21.9563L29.2858 19.439C29.3362 19.0852 29.6639 18.8392 30.0177 18.8896C30.1877 18.9138 30.3411 19.0046 30.4442 19.1419L31.9701 21.1759C32.1845 21.4618 32.5901 21.5197 32.8761 21.3053L35.9823 18.9756C36.2682 18.7612 36.3261 18.3556 36.1117 18.0697L34.5864 16.0357C34.4263 15.8273 34.4109 15.5419 34.5476 15.3174C34.6771 15.0887 34.9353 14.9648 35.1947 15.0068L37.7121 15.366C38.0658 15.4168 38.3938 15.1711 38.4446 14.8173C38.4446 14.8173 38.4446 14.8173 38.4446 14.8172L38.9934 10.9732C39.0442 10.6194 38.7986 10.2915 38.4448 10.2407ZM16.9962 33.1698H22.1732V34.464H16.9962V33.1698ZM16.9962 35.7583H22.1732V36.4054C22.1732 37.1202 21.5938 37.6997 20.879 37.6997H18.2904C17.5756 37.6997 16.9962 37.1202 16.9962 36.4054V35.7583ZM11.8444 24.5985C12.1977 24.8875 12.5669 25.1565 12.9503 25.4042C13.5618 25.7906 14.0221 26.3752 14.2543 27.0602L12.8662 28.4457L11.5221 27.519C10.9336 27.1134 10.1276 27.2618 9.72197 27.8504C9.62474 27.9915 9.55647 28.1505 9.5212 28.3182L9.18211 29.9341H7.64388L7.30479 28.3208C7.15756 27.6214 6.4712 27.1736 5.77174 27.3208C5.60405 27.3561 5.44502 27.4244 5.30387 27.5216L3.95913 28.4457L2.78006 27.2692L3.70611 25.9258C4.1121 25.3375 3.96423 24.5315 3.37591 24.1255C3.23467 24.028 3.07548 23.9596 2.90755 23.9242L1.29426 23.5845V22.0469L2.90755 21.7072C3.60677 21.5589 4.05345 20.8719 3.90518 20.1726C3.86999 20.0067 3.80261 19.8493 3.70675 19.7095L2.78006 18.3622L3.95913 17.1857L5.30451 18.1124C5.89332 18.5175 6.69924 18.3687 7.10442 17.7799C7.20149 17.6389 7.2696 17.48 7.30479 17.3125L7.41803 16.7741C7.52174 17.5198 7.69347 18.2542 7.93121 18.9685C5.80191 19.2224 4.28156 21.1544 4.5354 23.2837C4.78924 25.4129 6.72124 26.9333 8.85053 26.6795C10.1323 26.5266 11.2544 25.7467 11.8444 24.5985ZM10.8394 23.6867C10.3562 25.0299 8.87561 25.727 7.53241 25.2439C6.18922 24.7606 5.4921 23.2801 5.97526 21.9369C6.34493 20.9093 7.32056 20.2249 8.41259 20.2272C8.421 20.2272 8.42877 20.2272 8.43718 20.2272C9.0323 21.5104 9.84501 22.6808 10.8394 23.6867ZM37.2513 13.9915L35.3746 13.7235C34.3132 13.5719 33.3299 14.3096 33.1783 15.371C33.1055 15.8807 33.2381 16.3984 33.5471 16.8103L34.6841 18.3266L32.6133 19.8797L31.4757 18.3641C30.8324 17.5062 29.6156 17.3323 28.7578 17.9755C28.3459 18.2843 28.0736 18.7442 28.0006 19.2539L27.7385 21.1332L25.1765 20.7669L25.4444 18.8902C25.5964 17.8288 24.8592 16.8452 23.7978 16.6933C23.2878 16.6202 22.7698 16.7529 22.3576 17.0621L20.8414 18.1991L19.2883 16.1283L20.8039 14.9906C21.6617 14.3474 21.8357 13.1305 21.1925 12.2728C20.8836 11.8609 20.4238 11.5885 19.9141 11.5155L18.0374 11.2476L18.4037 8.68565L20.2804 8.95356C21.3417 9.10555 22.3254 8.36831 22.4773 7.30694C22.5503 6.79692 22.4177 6.27889 22.1085 5.86675L20.9676 4.34924L23.0384 2.79613L24.1761 4.31235C24.8193 5.1702 26.0362 5.3442 26.8939 4.70095C27.3058 4.39211 27.5782 3.93224 27.6511 3.42255L27.9191 1.54588L30.481 1.9115L30.2131 3.78818C30.0615 4.84963 30.7991 5.83294 31.8606 5.98453C32.3703 6.05733 32.888 5.92467 33.2999 5.61567L34.8162 4.47866L36.3693 6.54947L34.853 7.68713C33.9952 8.33037 33.8212 9.54722 34.4644 10.405C34.7733 10.8169 35.2332 11.0892 35.7428 11.1622L37.6195 11.4301L37.2513 13.9915Z" fill="#333333"/>
<path d="M27.8265 6.16113C24.9673 6.16113 22.6495 8.47899 22.6495 11.3382C22.6495 14.1973 24.9673 16.5152 27.8265 16.5152C30.6857 16.5152 33.0035 14.1973 33.0035 11.3382C33.0003 8.48028 30.6844 6.16429 27.8265 6.16113ZM27.8265 15.2209C25.6821 15.2209 23.9437 13.4826 23.9437 11.3382C23.9437 9.19374 25.6821 7.45539 27.8265 7.45539C29.9709 7.45539 31.7093 9.19374 31.7093 11.3382C31.7068 13.4815 29.9699 15.2184 27.8265 15.2209Z" fill="#333333"/>
<path d="M20.2318 28.6406H18.9376V30.582H20.2318V28.6406Z" fill="#333333"/>
<path d="M16.7541 22.2849C12.7593 20.7243 10.786 16.2208 12.3466 12.226C12.9514 10.6781 14.0367 9.36498 15.4431 8.47971L14.7513 7.38477C10.5178 10.0518 9.24785 15.6458 11.9149 19.8794C12.9478 21.5189 14.4792 22.7842 16.2843 23.4892C17.8821 24.1014 18.9371 25.6351 18.9375 27.3461H20.2318C20.2338 25.1012 18.8504 23.0879 16.7541 22.2849Z" fill="#333333"/>
<path d="M36.41 24.1104H31.8801V25.4046H36.41V24.1104Z" fill="#333333"/>
<path d="M31.6474 27.4949L30.8189 28.4893L34.7019 31.7244L35.5304 30.73L31.6474 27.4949Z" fill="#333333"/>
<path d="M29.2916 29.2871H27.9974V33.817H29.2916V29.2871Z" fill="#333333"/>
<path d="M5.8375 9.89249L0.660828 11.1865L0.974528 12.4415L6.1512 11.1474L5.8375 9.89249Z" fill="#333333"/>
<path d="M2.48762 3.52356L1.73578 4.57617L6.26532 7.81148L7.01717 6.75887L2.48762 3.52356Z" fill="#333333"/>
<path d="M8.53433 0.00558462L7.28046 0.326172L8.604 5.5028L9.85788 5.18221L8.53433 0.00558462Z" fill="#333333"/>
</g>
<defs>
<clipPath id="clip0_604_1067">
<rect width="39" height="39" fill="white"/>
</clipPath>
</defs>
</svg>
