<svg width="34" height="34" viewBox="0 0 34 34" fill="none" xmlns="http://www.w3.org/2000/svg">
<g clip-path="url(#clip0_604_1250)">
<path d="M34 8.85579V33.2883C34 33.6814 33.6814 34 33.2883 34H0.711651C0.318582 34 0 33.6814 0 33.2883V29.1044C0 28.7113 0.318582 28.3927 0.711651 28.3927C1.10472 28.3927 1.4233 28.7113 1.4233 29.1044V32.5767H8.14421V29.2163C8.14421 28.8232 8.4628 28.5046 8.85587 28.5046C9.24893 28.5046 9.56752 28.8232 9.56752 29.2163V32.5767H32.5767V29.9279H25.1442C24.7511 29.9279 24.4326 29.6094 24.4326 29.2163C24.4326 28.8232 24.7511 28.5046 25.1442 28.5046H32.5767V9.56744H29.2163C28.8232 9.56744 28.5046 9.24885 28.5046 8.85579C28.5046 8.46272 28.8232 8.14414 29.2163 8.14414H33.2883C33.6814 8.14414 34 8.46272 34 8.85579ZM8.85587 24.4325C8.4628 24.4325 8.14421 24.7511 8.14421 25.1441C8.14421 25.5372 8.4628 25.8558 8.85587 25.8558H17C17.3931 25.8558 17.7117 25.5372 17.7117 25.1441V17.7117H21.0721C21.4652 17.7117 21.7838 17.3931 21.7838 17C21.7838 16.6069 21.4652 16.2883 21.0721 16.2883H13.6397V12.9279C13.6397 12.5349 13.3211 12.2163 12.928 12.2163C12.5349 12.2163 12.2164 12.5349 12.2164 12.9279V16.2883H8.85587C8.4628 16.2883 8.14421 16.6069 8.14421 17C8.14421 17.3931 8.4628 17.7117 8.85587 17.7117H16.2883V24.4325H8.85587ZM33.2883 0H0.711651C0.318582 0 0 0.318582 0 0.711651V25.1441C0 25.5372 0.318582 25.8558 0.711651 25.8558H4.07207V29.216C4.07207 29.6091 4.39065 29.9277 4.78372 29.9277C5.17679 29.9277 5.49537 29.6091 5.49537 29.216V21.7837H12.928C13.3211 21.7837 13.6397 21.4651 13.6397 21.0721C13.6397 20.679 13.3211 20.3604 12.928 20.3604H5.49537V17C5.49537 16.6069 5.17679 16.2883 4.78372 16.2883C4.39065 16.2883 4.07207 16.6069 4.07207 17V24.4325H1.4233V9.56744H4.78372C5.17679 9.56744 5.49537 9.24885 5.49537 8.85579C5.49537 8.46272 5.17679 8.14414 4.78372 8.14414H1.4233V5.49537H8.14421V12.2163H4.67673C4.28367 12.2163 3.96508 12.5349 3.96508 12.9279C3.96508 13.321 4.28367 13.6396 4.67673 13.6396H8.85587C9.24893 13.6396 9.56752 13.321 9.56752 12.9279V4.78372C9.56752 4.39065 9.24893 4.07207 8.85587 4.07207H1.4233V1.4233H12.2164V8.85579C12.2164 9.24885 12.5349 9.56744 12.928 9.56744H21.0721C21.4652 9.56744 21.7838 9.24885 21.7838 8.85579C21.7838 8.46272 21.4652 8.14414 21.0721 8.14414H13.6397V1.4233H32.5767V4.07207H17C16.6069 4.07207 16.2883 4.39065 16.2883 4.78372C16.2883 5.17679 16.6069 5.49537 17 5.49537H24.4326L24.4326 12.2163H17C16.6069 12.2163 16.2883 12.5349 16.2883 12.9279C16.2883 13.321 16.6069 13.6396 17 13.6396H24.4326V16.9802C24.4325 16.9868 24.4324 16.9934 24.4324 17C24.4324 17.0066 24.4325 17.0132 24.4326 17.0198L24.4327 21.0725C24.4327 21.4655 24.7513 21.7841 25.1444 21.7841H28.5048L28.5046 25.1441C28.5046 25.5371 28.8232 25.8558 29.2162 25.8558C29.2163 25.8558 29.2163 25.8558 29.2163 25.8558C29.6094 25.8558 29.9279 25.5372 29.9279 25.1442L29.9282 21.0725C29.9282 20.8837 29.8532 20.7027 29.7197 20.5692C29.5863 20.4358 29.4052 20.3608 29.2165 20.3608H25.856V17.7117H29.2161C29.4049 17.7117 29.5859 17.6367 29.7193 17.5032C29.8528 17.3697 29.9278 17.1887 29.9278 17L29.9276 12.9279C29.9276 12.5349 29.609 12.2163 29.216 12.2163C28.8229 12.2163 28.5043 12.5349 28.5043 12.9279L28.5045 16.2883H25.8559L25.8559 5.49537H33.2883C33.6814 5.49537 34 5.17679 34 4.78372V0.711651C34 0.318582 33.6814 0 33.2883 0ZM25.8559 25.1441C25.8559 24.7511 25.5373 24.4325 25.1442 24.4325H21.7839L21.7838 21.0721C21.7838 20.679 21.4652 20.3604 21.0721 20.3604C20.6791 20.3604 20.3605 20.679 20.3605 21.0721L20.3606 25.1335C20.3605 25.137 20.3605 25.1406 20.3605 25.1441C20.3605 25.1477 20.3605 25.1513 20.3606 25.1548L20.3607 28.5046H13.2281C12.835 28.5046 12.5164 28.8232 12.5164 29.2163C12.5164 29.6094 12.835 29.9279 13.2281 29.9279H21.0723C21.261 29.9279 21.442 29.853 21.5755 29.7195C21.709 29.586 21.784 29.4049 21.784 29.2163L21.7839 25.8558H25.1442C25.5373 25.8558 25.8559 25.5372 25.8559 25.1441Z" fill="#333333"/>
</g>
<defs>
<clipPath id="clip0_604_1250">
<rect width="34" height="34" fill="white"/>
</clipPath>
</defs>
</svg>
