<svg width="39" height="39" viewBox="0 0 39 39" fill="none" xmlns="http://www.w3.org/2000/svg">
<path d="M37.412 15.2837L29.25 11.7859V4.875C29.25 4.7134 29.1857 4.55843 29.0715 4.44417L26.0246 1.3973C25.9103 1.28301 25.7554 1.21878 25.5938 1.21875H3.04688C2.56203 1.21875 2.09704 1.41136 1.7542 1.7542C1.41136 2.09704 1.21875 2.56203 1.21875 3.04688V35.9531C1.21875 36.438 1.41136 36.903 1.7542 37.2458C2.09704 37.5886 2.56203 37.7812 3.04688 37.7812H27.4219C27.9067 37.7812 28.3717 37.5886 28.7146 37.2458C29.0574 36.903 29.25 36.438 29.25 35.9531V34.4382L32.4224 32.175C34.0788 30.9894 35.4288 29.4263 36.3607 27.615C37.2927 25.8037 37.7796 23.7965 37.7812 21.7596V15.8438C37.7812 15.7245 37.7462 15.6079 37.6806 15.5084C37.615 15.4088 37.5216 15.3307 37.412 15.2837ZM28.0312 5.12728V5.48438H24.9844V2.4375H25.3415L28.0312 5.12728ZM27.4219 36.5625H3.04688C2.88526 36.5625 2.73026 36.4983 2.61598 36.384C2.5017 36.2697 2.4375 36.1147 2.4375 35.9531V3.04688C2.4375 2.88526 2.5017 2.73026 2.61598 2.61598C2.73026 2.5017 2.88526 2.4375 3.04688 2.4375H23.7656V6.09375C23.7656 6.25537 23.8298 6.41036 23.9441 6.52464C24.0584 6.63892 24.2134 6.70312 24.375 6.70312H28.0312V11.7859L19.8693 15.2837C19.7597 15.3307 19.6663 15.4088 19.6006 15.5084C19.535 15.6079 19.5 15.7245 19.5 15.8438V21.7596C19.5016 23.7965 19.9886 25.8037 20.9205 27.615C21.8524 29.4263 23.2025 30.9894 24.8588 32.175L28.0312 34.4382V35.9531C28.0312 36.1147 27.967 36.2697 27.8528 36.384C27.7385 36.4983 27.5835 36.5625 27.4219 36.5625ZM36.5625 21.7596C36.5607 23.6021 36.12 25.4178 35.2769 27.0562C34.4338 28.6946 33.2126 30.1086 31.7143 31.1811L28.6406 33.3761L25.5669 31.1823C24.0685 30.1097 22.8472 28.6955 22.0041 27.0569C21.161 25.4183 20.7204 23.6024 20.7188 21.7596V16.2453L28.6406 12.8505L36.5625 16.2453V21.7596Z" fill="#333333"/>
<path d="M28.4139 14.6684L22.3202 17.1059C22.2071 17.1512 22.1102 17.2294 22.042 17.3303C21.9738 17.4312 21.9374 17.5502 21.9375 17.672V21.5172C21.9339 23.0714 22.2817 24.6063 22.955 26.0072C23.6282 27.408 24.6094 28.6385 25.8253 29.6066L28.2598 31.5566C28.3678 31.6432 28.5022 31.6903 28.6406 31.6903C28.7791 31.6903 28.9134 31.6432 29.0215 31.5566L31.4559 29.6066C32.6718 28.6385 33.653 27.408 34.3263 26.0072C34.9995 24.6063 35.3474 23.0714 35.3437 21.5172V17.672C35.3438 17.5502 35.3074 17.4312 35.2392 17.3303C35.171 17.2294 35.0741 17.1512 34.9611 17.1059L28.8673 14.6684C28.7217 14.6105 28.5595 14.6105 28.4139 14.6684ZM34.125 18.0846V21.5172C34.1283 22.8884 33.8215 24.2427 33.2275 25.4786C32.6335 26.7145 31.7677 27.8001 30.6948 28.6542L28.6406 30.2983L26.5864 28.653C25.5138 27.799 24.648 26.7136 24.054 25.4779C23.46 24.2422 23.1531 22.8882 23.1562 21.5172V18.0846L28.6406 15.8908L34.125 18.0846Z" fill="#333333"/>
<path d="M4.26562 12.1875H21.3281C21.4897 12.1875 21.6447 12.1233 21.759 12.009C21.8733 11.8947 21.9375 11.7397 21.9375 11.5781V4.26562C21.9375 4.10401 21.8733 3.94901 21.759 3.83473C21.6447 3.72045 21.4897 3.65625 21.3281 3.65625H4.26562C4.10401 3.65625 3.94901 3.72045 3.83473 3.83473C3.72045 3.94901 3.65625 4.10401 3.65625 4.26562V11.5781C3.65625 11.7397 3.72045 11.8947 3.83473 12.009C3.94901 12.1233 4.10401 12.1875 4.26562 12.1875ZM4.875 4.875H20.7188V10.9688H4.875V4.875Z" fill="#333333"/>
<path d="M17.6719 26.8125H4.26562C4.10401 26.8125 3.94901 26.8767 3.83473 26.991C3.72045 27.1053 3.65625 27.2603 3.65625 27.4219V34.7344C3.65625 34.896 3.72045 35.051 3.83473 35.1653C3.94901 35.2795 4.10401 35.3438 4.26562 35.3438H17.6719C17.8335 35.3438 17.9885 35.2795 18.1028 35.1653C18.217 35.051 18.2812 34.896 18.2812 34.7344V27.4219C18.2812 27.2603 18.217 27.1053 18.1028 26.991C17.9885 26.8767 17.8335 26.8125 17.6719 26.8125ZM17.0625 34.125H4.875V28.0312H17.0625V34.125Z" fill="#333333"/>
<path d="M3.65625 15.2344H18.2812V16.4531H3.65625V15.2344Z" fill="#333333"/>
<path d="M3.65625 18.8906H18.2812V20.1094H3.65625V18.8906Z" fill="#333333"/>
<path d="M3.65625 22.5469H18.2812V23.7656H3.65625V22.5469Z" fill="#333333"/>
</svg>
