<svg width="36" height="36" viewBox="0 0 36 36" fill="none" xmlns="http://www.w3.org/2000/svg">
<g clip-path="url(#clip0_604_1110)">
<path d="M35.5219 13.6869C35.3315 13.4964 35.0969 13.356 34.8391 13.278C34.5814 13.2 34.3083 13.187 34.0442 13.24C33.7802 13.293 33.5333 13.4105 33.3256 13.5819C33.1179 13.7534 32.9558 13.9735 32.8537 14.2227L30.7614 19.3252C30.3927 19.0366 29.9313 18.8928 29.4639 18.9208C28.9966 18.9489 28.5556 19.1468 28.224 19.4773L26.0702 21.6308C25.8284 21.8717 25.5013 22.0072 25.1601 22.008H23.175C20.7503 22.008 20.1094 24.3722 20.1094 25.6223V31.919H19.0038C18.8732 31.919 18.7481 31.9708 18.6558 32.0631C18.5635 32.1554 18.5116 32.2806 18.5116 32.4112V35.5066C18.5116 35.5712 18.5243 35.6353 18.549 35.695C18.5737 35.7547 18.61 35.809 18.6557 35.8547C18.7014 35.9004 18.7557 35.9367 18.8154 35.9614C18.8751 35.9861 18.9391 35.9988 19.0038 35.9988H28.0547C28.1852 35.9988 28.3104 35.9469 28.4027 35.8546C28.495 35.7623 28.5469 35.6371 28.5469 35.5066V32.4112C28.5468 32.2806 28.4949 32.1555 28.4026 32.0632C28.3103 31.9709 28.1852 31.919 28.0547 31.919H26.9508L26.9668 27.5644L30.0465 26.3623C30.7978 26.0704 31.48 25.6249 32.0493 25.0542L32.114 24.9898C32.7632 24.3388 33.2502 23.5441 33.5354 22.6701L35.9429 15.267C35.9466 15.2555 35.9499 15.2439 35.9527 15.2321C36.0189 14.9592 36.014 14.6739 35.9386 14.4034C35.8631 14.1329 35.7197 13.8862 35.5219 13.6869ZM27.5625 35.0144H19.496V32.9033H27.5625V35.0144ZM35.0004 14.9827L32.5994 22.366C32.3623 23.0923 31.9576 23.7525 31.4182 24.2934L31.3535 24.3578C30.8803 24.8323 30.3133 25.2029 29.6887 25.4457L26.2969 26.7693C26.2049 26.8051 26.1259 26.8678 26.0701 26.9492C26.0143 27.0305 25.9842 27.1268 25.9838 27.2255L25.9664 31.9187H21.0938V25.6223C21.0938 25.5149 21.1174 22.9924 23.175 22.9924H25.1603C25.4588 22.9932 25.7544 22.9348 26.0301 22.8205C26.3058 22.7063 26.5561 22.5385 26.7666 22.3269L28.9201 20.1734C29.0951 19.9994 29.3318 19.9018 29.5785 19.9018C29.8252 19.9018 30.0619 19.9994 30.2369 20.1734L30.2465 20.1827L28.0434 22.3857C27.9964 22.4311 27.959 22.4854 27.9332 22.5455C27.9074 22.6056 27.8938 22.6701 27.8933 22.7355C27.8927 22.8008 27.9052 22.8657 27.9299 22.9261C27.9547 22.9866 27.9913 23.0416 28.0375 23.0878C28.0837 23.134 28.1387 23.1705 28.1992 23.1952C28.2596 23.22 28.3245 23.2324 28.3898 23.2318C28.4552 23.2313 28.5197 23.2177 28.5798 23.1919C28.6398 23.1661 28.6941 23.1285 28.7395 23.0815L31.2899 20.5317C31.3005 20.5201 31.3104 20.508 31.3197 20.4954C31.3276 20.4859 31.336 20.4769 31.3433 20.4673C31.3643 20.4381 31.3821 20.4067 31.3962 20.3737V20.3714V20.3697L33.7635 14.5973C33.8041 14.4982 33.8686 14.4107 33.9513 14.3425C34.0339 14.2743 34.1321 14.2275 34.2371 14.2065C34.3422 14.1854 34.4508 14.1905 34.5533 14.2215C34.6559 14.2525 34.7492 14.3084 34.8249 14.3842C34.9017 14.4614 34.958 14.5566 34.9886 14.6611C35.0192 14.7657 35.0233 14.8762 35.0004 14.9827Z" fill="#333333"/>
<path d="M16.9962 31.9185H15.8906V25.6219C15.8906 24.3717 15.2499 22.0075 12.825 22.0075H10.8399C10.4987 22.0068 10.1716 21.8712 9.92981 21.6304L7.776 19.4768C7.44451 19.1461 7.0035 18.9481 6.5361 18.9201C6.0687 18.8921 5.60719 19.036 5.23856 19.3247L3.14718 14.2225C3.04515 13.9731 2.88304 13.7528 2.67527 13.5812C2.46751 13.4096 2.22054 13.2921 1.95635 13.239C1.69216 13.186 1.41895 13.1991 1.16105 13.2771C0.903139 13.3552 0.668536 13.4958 0.478121 13.6865C0.280324 13.8858 0.136856 14.1325 0.0613832 14.4029C-0.0140895 14.6734 -0.0190534 14.9587 0.0469643 15.2317C0.0500581 15.2435 0.0531518 15.255 0.0570893 15.2665L2.46459 22.6688C2.74988 23.5429 3.23692 24.3377 3.88631 24.9888L3.95043 25.0526C4.51969 25.6234 5.20183 26.069 5.95321 26.361L9.03318 27.5631L9.04921 31.9177H7.94531C7.8148 31.9177 7.68965 31.9696 7.59736 32.0619C7.50507 32.1542 7.4532 32.2793 7.45312 32.4098V35.5053C7.45312 35.6358 7.50498 35.761 7.59728 35.8533C7.68958 35.9456 7.81477 35.9975 7.94531 35.9975H16.9962C17.0609 35.9975 17.1249 35.9848 17.1846 35.9601C17.2443 35.9354 17.2986 35.8991 17.3443 35.8534C17.39 35.8077 17.4263 35.7534 17.451 35.6937C17.4757 35.6339 17.4884 35.5699 17.4884 35.5053V32.4107C17.4884 32.2802 17.4365 32.155 17.3442 32.0627C17.2519 31.9704 17.1268 31.9185 16.9962 31.9185ZM10.0162 27.225C10.0158 27.1263 9.98573 27.0301 9.9299 26.9487C9.87407 26.8673 9.79505 26.8047 9.70312 26.7688L6.31125 25.4453C5.68651 25.2021 5.11941 24.8312 4.64625 24.3563L4.58212 24.2924C4.04261 23.7514 3.63796 23.091 3.40087 22.3647L0.999558 14.9822C0.976479 14.8755 0.980447 14.7648 1.0111 14.6601C1.04175 14.5553 1.09812 14.4599 1.17506 14.3826C1.2508 14.3068 1.34412 14.2509 1.4467 14.2198C1.54928 14.1888 1.65794 14.1836 1.763 14.2048C1.86807 14.2259 1.96627 14.2727 2.04889 14.3409C2.1315 14.4092 2.19595 14.4968 2.2365 14.596L4.60153 20.3664V20.3681V20.3704C4.61566 20.4034 4.6334 20.4349 4.6544 20.464C4.66171 20.4744 4.67015 20.4834 4.67803 20.4922C4.68725 20.5048 4.6972 20.5169 4.70784 20.5284L7.2585 23.0794C7.30389 23.1264 7.35819 23.1639 7.41824 23.1897C7.47828 23.2155 7.54286 23.2291 7.60821 23.2297C7.67357 23.2303 7.73838 23.2178 7.79887 23.1931C7.85936 23.1684 7.91433 23.1318 7.96055 23.0856C8.00677 23.0394 8.04333 22.9845 8.06809 22.924C8.09285 22.8635 8.10531 22.7987 8.10476 22.7333C8.1042 22.668 8.09064 22.6034 8.06486 22.5434C8.03907 22.4833 8.00159 22.429 7.95459 22.3836L5.75156 20.1805L5.76112 20.1713C5.93594 19.997 6.1727 19.8992 6.41953 19.8992C6.66636 19.8992 6.90312 19.997 7.07793 20.1713L9.23147 22.3248C9.4419 22.5364 9.69221 22.7042 9.96792 22.8184C10.2436 22.9326 10.5393 22.991 10.8377 22.9902H12.825C14.8702 22.9902 14.9062 25.5139 14.9062 25.6202V31.9168H10.0336L10.0162 27.225ZM16.504 35.0137H8.4375V32.9026H16.504V35.0137Z" fill="#333333"/>
<path d="M27.8477 12.5456C28.55 11.8377 29.1052 10.9976 29.481 10.0739C29.8569 9.15015 30.046 8.16112 30.0375 7.1639C30.0358 6.20644 29.8418 5.25908 29.467 4.37803C29.0922 3.49698 28.5442 2.70022 27.8555 2.03503C26.5356 0.777674 24.7942 0.0576437 22.9717 0.0156204C21.1492 -0.026403 19.3765 0.6126 18 1.80778C16.6234 0.61266 14.8507 -0.0263036 13.0283 0.0157193C11.2058 0.0577422 9.46443 0.777733 8.14442 2.03503C7.45576 2.70022 6.90776 3.49698 6.53295 4.37803C6.15813 5.25908 5.96414 6.20644 5.96249 7.1639C5.95399 8.16114 6.14316 9.15018 6.51907 10.0739C6.89497 10.9976 7.45017 11.8377 8.15258 12.5456L16.2599 20.6535C16.7218 21.1142 17.3476 21.373 18 21.373C18.6524 21.373 19.2782 21.1142 19.7401 20.6535L27.8477 12.5456ZM16.956 19.9574L8.84811 11.8498C8.23804 11.2343 7.75593 10.5041 7.42961 9.70125C7.10328 8.89843 6.93921 8.03892 6.94686 7.17234C6.94771 6.34594 7.11461 5.52813 7.43763 4.76747C7.76066 4.00682 8.23323 3.31882 8.8273 2.74434C10.02 1.60731 11.609 0.980052 13.2568 0.995807C14.9046 1.01156 16.4813 1.66909 17.6521 2.82872C17.7444 2.92094 17.8695 2.97275 18 2.97275C18.1305 2.97275 18.2556 2.92094 18.3479 2.82872C19.5188 1.66935 21.0955 1.012 22.7432 0.99625C24.3909 0.980496 25.9798 1.60757 27.1727 2.74434C27.7667 3.31882 28.2393 4.00682 28.5623 4.76747C28.8854 5.52813 29.0523 6.34594 29.0531 7.17234C29.0608 8.03892 28.8967 8.89843 28.5704 9.70125C28.244 10.5041 27.7619 11.2343 27.1519 11.8498L19.044 19.9574C18.7669 20.2339 18.3914 20.3892 18 20.3892C17.6085 20.3892 17.2331 20.2339 16.956 19.9574Z" fill="#333333"/>
<path d="M27.7875 7.18574C27.7876 6.52761 27.6556 5.87615 27.3992 5.27001C27.1428 4.66388 26.7673 4.11542 26.2949 3.65718C26.2483 3.61234 26.1934 3.57711 26.1332 3.55351C26.073 3.52991 26.0087 3.51839 25.9441 3.51962C25.8795 3.52085 25.8157 3.53479 25.7565 3.56066C25.6972 3.58653 25.6436 3.62382 25.5988 3.6704C25.554 3.71697 25.5187 3.77192 25.4951 3.83211C25.4715 3.89229 25.46 3.95654 25.4612 4.02118C25.4625 4.08582 25.4764 4.14958 25.5023 4.20883C25.5282 4.26808 25.5654 4.32165 25.612 4.36649C25.9899 4.73415 26.29 5.17398 26.4946 5.65987C26.6992 6.14576 26.8041 6.66781 26.8031 7.19502C26.8094 7.91552 26.6354 8.62615 26.2969 9.26221C26.2355 9.37745 26.2225 9.51233 26.2607 9.63718C26.2988 9.76203 26.385 9.86661 26.5002 9.92793C26.6154 9.98924 26.7503 10.0023 26.8752 9.96413C27 9.92599 27.1046 9.83983 27.1659 9.72458C27.5814 8.9433 27.795 8.07059 27.7875 7.18574Z" fill="#333333"/>
</g>
<defs>
<clipPath id="clip0_604_1110">
<rect width="36" height="36" fill="white"/>
</clipPath>
</defs>
</svg>
