<svg width="36" height="36" viewBox="0 0 36 36" fill="none" xmlns="http://www.w3.org/2000/svg">
<g clip-path="url(#clip0_604_1019)">
<path d="M9.07298 0C8.68464 0 8.36978 0.31493 8.36978 0.703195C8.36978 1.09153 8.68464 1.40639 9.07298 1.40639C13.0451 1.40639 16.2767 4.72184 16.2767 8.79729C16.2767 9.18563 16.5916 9.50048 16.9799 9.50048C17.3682 9.50048 17.6831 9.18555 17.6831 8.79729C17.6832 3.94643 13.8206 0 9.07298 0Z" fill="#333333"/>
<path d="M9.07066 3.33594C8.68232 3.33594 8.36746 3.65087 8.36746 4.03913C8.36746 4.42747 8.68232 4.74233 9.07066 4.74233C11.2458 4.74233 13.0153 6.56124 13.0153 8.79697C13.0153 9.1853 13.3303 9.50016 13.7185 9.50016C14.1069 9.50016 14.4217 9.18523 14.4217 8.79697C14.4218 5.78576 12.0213 3.33594 9.07066 3.33594Z" fill="#333333"/>
<path d="M9.0843 6.40918C8.69589 6.40918 8.3811 6.72397 8.3811 7.11238C8.3811 7.50071 8.69603 7.81557 9.0843 7.81557C9.59245 7.81557 10.0057 8.24616 10.0057 8.77548C10.0057 9.16381 10.3206 9.47867 10.7089 9.47867C11.0973 9.47867 11.4121 9.16374 11.4121 8.77548C11.4122 7.47069 10.3679 6.40918 9.0843 6.40918Z" fill="#333333"/>
<path d="M32.2375 5.57324H30.6788C30.2904 5.57324 29.9756 5.8881 29.9756 6.27644C29.9756 6.66477 30.2904 6.97963 30.6788 6.97963H32.2375C33.5365 6.97963 34.5933 8.03643 34.5933 9.33538V18.8809C34.5933 19.6289 34.2425 20.2959 33.6974 20.7278V18.8888C33.6974 17.4542 32.6737 16.2219 31.2633 15.9589L30.8088 15.8742C30.9102 15.5634 30.9656 15.2322 30.9656 14.888V13.2721C30.9656 11.5151 29.5362 10.0856 27.7791 10.0856C26.0221 10.0856 24.5927 11.5151 24.5927 13.2721V14.888C24.5927 15.2322 24.6483 15.5634 24.7496 15.8742L24.295 15.9589C22.8846 16.2219 21.861 17.4541 21.861 18.8888V20.9274C21.1503 20.5213 20.6698 19.7564 20.6698 18.8809V9.33538C20.6698 8.03643 21.7266 6.97963 23.0256 6.97963H24.7016C25.0899 6.97963 25.4048 6.66477 25.4048 6.27644C25.4048 5.8881 25.0898 5.57324 24.7016 5.57324H23.0256C20.9512 5.57324 19.2635 7.26095 19.2635 9.33538V18.8809C19.2635 20.9554 20.9512 22.6431 23.0256 22.6431H26.5641V24.6649C26.5641 24.9489 26.735 25.2051 26.9972 25.3141C27.0845 25.3505 27.1762 25.3681 27.2672 25.3681C27.4495 25.3681 27.6287 25.2972 27.763 25.1638L30.2996 22.6431H32.2375C34.312 22.6431 35.9997 20.9554 35.9997 18.8809V9.33538C35.9997 7.26095 34.312 5.57324 32.2375 5.57324ZM25.999 13.2721C25.999 12.2905 26.7975 11.492 27.7791 11.492C28.7606 11.492 29.5592 12.2905 29.5592 13.2721V14.888C29.5592 15.8696 28.7606 16.6681 27.7791 16.6681C26.7975 16.6681 25.999 15.8696 25.999 14.888V13.2721ZM32.2907 21.2352C32.273 21.2356 32.2553 21.2365 32.2374 21.2365H30.0097V21.2367C29.8239 21.2367 29.6457 21.3102 29.514 21.441L27.9705 22.9748V21.9398C27.9705 21.5515 27.6556 21.2366 27.2673 21.2366H23.2675V18.8887C23.2675 18.1311 23.8081 17.4803 24.5529 17.3414L25.5442 17.1565C26.1198 17.7237 26.9091 18.0745 27.7791 18.0745C28.6491 18.0745 29.4386 17.7236 30.0142 17.1565L31.0056 17.3413C31.7504 17.4802 32.291 18.131 32.291 18.8887V21.2352H32.2907Z" fill="#333333"/>
<path d="M27.8473 5.77926C27.7166 5.64777 27.5351 5.57324 27.3502 5.57324C27.1653 5.57324 26.9838 5.64777 26.853 5.77926C26.7223 5.90941 26.647 6.09088 26.647 6.27644C26.647 6.46136 26.7222 6.64284 26.853 6.77362C26.9838 6.90433 27.1652 6.97963 27.3502 6.97963C27.5351 6.97963 27.7166 6.9044 27.8473 6.77362C27.9781 6.64213 28.0534 6.46143 28.0534 6.27644C28.0534 6.09081 27.9782 5.91004 27.8473 5.77926Z" fill="#333333"/>
<path d="M13.0695 23.6562C12.9388 23.5254 12.7581 23.4502 12.5724 23.4502C12.3874 23.4502 12.206 23.5254 12.0753 23.6562C11.9445 23.787 11.8692 23.9684 11.8692 24.1534C11.8692 24.339 11.9444 24.5198 12.0753 24.6506C12.2067 24.7821 12.3874 24.8572 12.5724 24.8572C12.7573 24.8572 12.9388 24.7821 13.0695 24.6506C13.201 24.5198 13.2756 24.3389 13.2756 24.1534C13.2756 23.9685 13.201 23.7871 13.0695 23.6562Z" fill="#333333"/>
<path d="M28.4614 30.0141L23.074 24.6267C22.3568 23.9095 21.2286 23.8046 20.3916 24.377L16.9532 26.7281C16.6741 26.9189 16.2982 26.8839 16.0591 26.6448L14.9221 25.5077C14.6476 25.2333 14.2024 25.2332 13.9275 25.5077C13.6529 25.7823 13.6529 26.2275 13.9275 26.5023L15.0645 27.6393C15.7817 28.3565 16.9098 28.4616 17.7469 27.889L21.1854 25.538C21.4643 25.3472 21.8403 25.3821 22.0795 25.6212L27.4669 31.0087C27.741 31.2827 27.7409 31.7289 27.4668 32.0032C24.0122 35.4578 18.3911 35.4578 14.9365 32.0032L3.99712 21.0637C2.32354 19.3902 1.40202 17.1652 1.40202 14.7985C1.40202 12.4318 2.32361 10.2068 3.99719 8.53319C4.13001 8.40037 4.30656 8.32732 4.49437 8.32732C4.68224 8.32732 4.85887 8.40044 4.99162 8.53326L10.379 13.9207C10.618 14.1597 10.653 14.5358 10.4623 14.8148L8.11131 18.2532C7.53876 19.0903 7.6438 20.2184 8.36092 20.9356L10.0701 22.6448C10.3447 22.9193 10.7899 22.9193 11.0646 22.6448C11.3392 22.3702 11.3392 21.9249 11.0646 21.6502L9.35549 19.941C9.1165 19.7021 9.08148 19.326 9.27224 19.047L11.6233 15.6086C12.1957 14.7715 12.0906 13.6433 11.3735 12.9262L5.98619 7.53876C5.16367 6.71625 3.82527 6.71625 3.00262 7.53876C-1.00034 11.5418 -1.00034 18.0552 3.00262 22.0582L13.942 32.9975C15.9435 34.999 18.5725 35.9998 21.2016 35.9998C23.8307 35.9997 26.4598 34.999 28.4613 32.9975C29.2838 32.175 29.2838 30.8367 28.4614 30.0141Z" fill="#333333"/>
<path d="M9.473 17.2909L5.21023 13.0281C4.93552 12.7536 4.49037 12.7536 4.21566 13.0281C3.94109 13.3028 3.94109 13.7481 4.21566 14.0227L8.4785 18.2855C8.61582 18.4227 8.79568 18.4914 8.97575 18.4914C9.15568 18.4914 9.33568 18.4227 9.473 18.2855C9.74757 18.0108 9.74757 17.5655 9.473 17.2909Z" fill="#333333"/>
<path d="M25.7879 33.6061L21.3027 29.1209C21.028 28.8464 20.5829 28.8464 20.3082 29.1209C20.0336 29.3956 20.0336 29.8408 20.3082 30.1155L24.7933 34.6006C24.9306 34.7379 25.1105 34.8066 25.2906 34.8066C25.4705 34.8066 25.6505 34.7379 25.7879 34.6006C26.0625 34.3259 26.0625 33.8807 25.7879 33.6061Z" fill="#333333"/>
</g>
<defs>
<clipPath id="clip0_604_1019">
<rect width="36" height="36" fill="white"/>
</clipPath>
</defs>
</svg>
