<svg width="332" height="332" viewBox="0 0 332 332" fill="none" xmlns="http://www.w3.org/2000/svg">
<g clip-path="url(#clip0_604_783)">
<path d="M242.324 29.4813C242.07 29.1542 242.106 28.8634 242.433 28.6089L249.746 23.0471C250.037 22.829 250.328 22.829 250.582 22.9744H250.619C250.874 23.1561 250.983 23.4106 250.91 23.7014L249.6 32.8257C249.527 33.2256 249.309 33.4073 248.909 33.3346C248.509 33.2619 248.327 33.0438 248.4 32.6439L248.691 30.6082L244.762 28.3544L243.161 29.6267C242.834 29.8449 242.543 29.8085 242.324 29.4813ZM245.817 27.5183L248.873 29.3359L249.564 24.6102L245.817 27.5183Z" fill="#E0E0E0"/>
<path d="M252.729 35.9522C252.22 35.625 251.892 35.2251 251.747 34.8253C251.601 34.4254 251.601 33.9528 251.819 33.4803C251.892 33.2985 252.038 33.1895 252.183 33.1531C252.329 33.1168 252.511 33.1531 252.693 33.2622C252.874 33.3712 252.947 33.4803 252.984 33.6257C252.984 33.7711 252.984 33.9165 252.911 34.1346C252.874 34.28 252.911 34.4254 252.984 34.5345C253.056 34.6435 253.238 34.7889 253.456 34.9343L255.421 36.2793C255.748 36.4975 255.967 36.5702 256.149 36.5702C256.33 36.5702 256.512 36.3521 256.731 36.0249C256.949 35.6977 257.022 35.4433 256.985 35.2615C256.949 35.0797 256.767 34.898 256.476 34.6799L254.548 33.3712C253.966 32.9713 253.638 32.5351 253.529 32.0626C253.42 31.5536 253.602 31.0447 253.966 30.4631C254.366 29.8815 254.803 29.5179 255.275 29.4452C255.748 29.3362 256.294 29.5179 256.876 29.9178L258.768 31.1901C259.714 31.8444 260.005 32.6078 259.641 33.5166C259.568 33.6984 259.423 33.8074 259.277 33.8438C259.132 33.8801 258.95 33.8438 258.768 33.6984C258.622 33.5893 258.513 33.4803 258.513 33.3349C258.477 33.1895 258.513 33.044 258.55 32.8623C258.55 32.7169 258.55 32.6078 258.477 32.5351C258.404 32.4624 258.259 32.317 258.077 32.208L256.221 30.8993C255.93 30.6812 255.676 30.6085 255.53 30.6448C255.385 30.6812 255.203 30.8266 254.984 31.1538C254.803 31.4446 254.693 31.6627 254.73 31.8444C254.766 32.0262 254.912 32.208 255.203 32.3897L257.131 33.6984C257.749 34.0982 258.077 34.5708 258.186 35.0797C258.295 35.5887 258.113 36.1339 257.713 36.7519C257.313 37.3699 256.84 37.6971 256.33 37.8061C255.821 37.9152 255.275 37.7334 254.657 37.3335L252.729 35.9522Z" fill="#E0E0E0"/>
<path d="M269.9 39.5141C270.628 40.0958 270.991 40.6774 271.028 41.259C271.064 41.8406 270.773 42.5313 270.155 43.2947L267.681 46.4209C267.426 46.7481 267.135 46.7845 266.808 46.53C266.48 46.2755 266.444 45.9847 266.699 45.6576L269.209 42.5313C269.536 42.0951 269.718 41.7316 269.718 41.4044C269.718 41.0772 269.5 40.7864 269.136 40.4593L268.663 40.0958C268.227 39.7686 267.826 39.6232 267.499 39.6595C267.172 39.6959 266.808 39.9503 266.48 40.3866L264.007 43.5128C263.752 43.84 263.461 43.8763 263.133 43.6219C262.806 43.3674 262.77 43.0766 263.024 42.7494L265.498 39.6232C265.826 39.187 266.007 38.8234 266.007 38.4963C266.007 38.1691 265.789 37.8783 265.425 37.5511L264.952 37.1876C264.516 36.8604 264.116 36.6787 263.788 36.7514C263.461 36.7877 263.097 37.0422 262.77 37.4784L260.296 40.6047C260.041 40.9318 259.75 40.9682 259.423 40.7137C259.095 40.4593 259.059 40.1685 259.314 39.8413L263.133 35.0065C263.388 34.6793 263.679 34.643 264.007 34.8975C264.334 35.1519 264.37 35.4427 264.116 35.7699L263.934 35.988C264.334 35.879 264.698 35.879 265.062 35.9517C265.389 36.0244 265.716 36.2061 266.08 36.4606L266.226 36.5696C266.699 36.9332 267.026 37.2967 267.172 37.6602C267.317 38.0237 267.39 38.3872 267.281 38.7871C267.717 38.6417 268.117 38.6053 268.445 38.6417C268.772 38.678 269.1 38.8598 269.464 39.1143L269.9 39.5141Z" fill="#E0E0E0"/>
<path d="M270.155 49.4381C269.864 49.1473 269.827 48.8565 270.118 48.5657L275.975 42.2405C276.266 41.9496 276.558 41.9496 276.849 42.2041L279.65 44.7851C280.232 45.294 280.523 45.8756 280.559 46.4573C280.596 47.0389 280.341 47.6205 279.832 48.1658L279.577 48.4566C279.14 48.9292 278.631 49.1836 278.085 49.1473C278.376 49.9834 278.122 50.8195 277.321 51.6555L276.994 52.0191C276.376 52.6734 275.757 53.0006 275.102 53.0369C274.448 53.0733 273.793 52.7824 273.138 52.1645L270.155 49.4381ZM271.428 48.9292L273.902 51.2193C274.302 51.5828 274.666 51.7646 274.993 51.7646C275.321 51.7646 275.684 51.5465 276.048 51.1466L276.376 50.7831C276.739 50.3832 276.921 50.0197 276.921 49.6926C276.921 49.3654 276.703 49.0019 276.303 48.6384L273.829 46.3482L271.428 48.9292ZM274.629 45.4758L277.176 47.8023C277.431 48.0567 277.685 48.1294 277.94 48.0567C278.195 47.984 278.413 47.8386 278.668 47.5842L278.922 47.2933C279.213 47.0025 279.359 46.7117 279.322 46.4573C279.286 46.2028 279.14 45.9483 278.813 45.6575L276.485 43.4764L274.629 45.4758Z" fill="#E0E0E0"/>
<path d="M277.467 56.4535C277.176 56.1627 277.176 55.8719 277.467 55.5811L281.869 51.2552C282.16 50.9644 282.451 50.9644 282.742 51.2552C283.033 51.546 283.033 51.8368 282.742 52.1276L278.34 56.4535C278.049 56.7443 277.758 56.7443 277.467 56.4535ZM283.433 50.3101C283.106 49.9829 283.106 49.6557 283.433 49.3286L283.761 49.0014C284.088 48.6742 284.416 48.7106 284.743 49.0377L285.034 49.3286C285.325 49.6557 285.325 49.9465 284.998 50.2737L284.67 50.5645C284.343 50.8917 284.015 50.8917 283.724 50.5645L283.433 50.3101Z" fill="#E0E0E0"/>
<path d="M282.415 61.6883C281.76 60.9612 281.469 60.3069 281.469 59.6526C281.505 58.9983 281.869 58.3803 282.56 57.7259L285.034 55.4721L284.561 54.9269C284.27 54.636 284.306 54.3452 284.597 54.0544C284.888 53.7636 285.179 53.8 285.47 54.0908L285.943 54.5997L286.744 53.8727C287.035 53.5818 287.326 53.6182 287.617 53.909C287.908 54.1998 287.872 54.4906 287.581 54.7815L286.78 55.5085L287.908 56.7444C288.199 57.0353 288.163 57.3261 287.872 57.6169C287.58 57.9077 287.289 57.8713 286.998 57.5805L285.871 56.3446L283.397 58.5984C282.924 58.9983 282.706 59.3618 282.706 59.6889C282.706 59.9797 282.888 60.3796 283.324 60.8158C283.47 60.9612 283.506 61.1067 283.506 61.2521C283.506 61.3975 283.433 61.5429 283.288 61.6883C282.997 62.0154 282.706 61.9791 282.415 61.6883Z" fill="#E0E0E0"/>
<path d="M290.527 67.2132C290.054 66.5952 290.091 66.0499 290.709 65.5774L291.291 65.1412C291.873 64.6686 292.419 64.7413 292.892 65.3593L293.329 65.9045C293.801 66.4862 293.729 66.9951 293.11 67.4677L292.528 67.9402C291.91 68.4128 291.4 68.3764 290.927 67.7948L290.527 67.2132Z" fill="#E0E0E0"/>
<path d="M294.202 76.3394C294.129 75.9395 294.274 75.6851 294.675 75.6124L303.697 73.7584C304.061 73.6857 304.315 73.7948 304.461 74.0493V74.0856C304.606 74.3401 304.606 74.6309 304.424 74.8853L299.295 82.5192C299.077 82.8464 298.785 82.9191 298.458 82.7009C298.131 82.4465 298.058 82.192 298.276 81.8649L299.44 80.1563L296.93 76.3758L294.929 76.812C294.529 76.8847 294.274 76.7393 294.202 76.3394ZM298.203 76.1213L300.168 79.0658L302.824 75.1034L298.203 76.1213Z" fill="#E0E0E0"/>
<path d="M300.75 86.6981C300.459 86.1529 300.313 85.6803 300.35 85.2441C300.386 84.8079 300.604 84.408 301.005 84.0808C301.15 83.9354 301.332 83.8991 301.478 83.9354C301.623 83.9718 301.769 84.0808 301.878 84.2626C301.95 84.4443 301.987 84.5897 301.95 84.6988C301.914 84.8079 301.805 84.9533 301.659 85.0987C301.55 85.2077 301.514 85.3531 301.55 85.4985C301.587 85.6439 301.659 85.8257 301.805 86.0438L303.005 88.1159C303.187 88.443 303.369 88.6248 303.551 88.6975C303.733 88.7338 303.988 88.6611 304.315 88.4794C304.643 88.2976 304.824 88.1159 304.897 87.9341C304.97 87.7523 304.861 87.4979 304.679 87.1707L303.515 85.135C303.151 84.517 303.042 83.9718 303.187 83.4992C303.333 83.0266 303.697 82.5904 304.279 82.2632C304.897 81.8997 305.443 81.7907 305.916 81.8997C306.389 82.0088 306.825 82.4086 307.153 83.0266L308.28 84.9896C308.863 85.9711 308.79 86.8072 308.062 87.4615C307.917 87.6069 307.735 87.6433 307.589 87.6069C307.444 87.5706 307.298 87.4615 307.189 87.2798C307.08 87.1344 307.08 86.9526 307.116 86.8435C307.153 86.6981 307.225 86.5891 307.371 86.4437C307.444 86.3346 307.48 86.2256 307.444 86.0802C307.407 85.9711 307.335 85.7893 307.225 85.6076L306.098 83.6446C305.916 83.3174 305.734 83.1357 305.588 83.0993C305.443 83.063 305.188 83.1357 304.861 83.3174C304.57 83.4992 304.388 83.6446 304.352 83.8264C304.315 83.9718 304.388 84.2262 304.533 84.517L305.698 86.5527C306.061 87.1707 306.17 87.7523 306.061 88.2249C305.916 88.7338 305.552 89.1701 304.934 89.5336C304.315 89.8971 303.733 90.0061 303.224 89.8971C302.714 89.7517 302.314 89.3882 301.95 88.7702L300.75 86.6981Z" fill="#E0E0E0"/>
<path d="M314.647 97.2412C315.047 98.0773 315.156 98.768 314.938 99.3133C314.72 99.8585 314.174 100.367 313.265 100.804L309.699 102.549C309.336 102.73 309.044 102.621 308.899 102.258C308.753 101.894 308.826 101.603 309.19 101.458L312.755 99.7131C313.265 99.4587 313.556 99.2042 313.701 98.9134C313.847 98.6226 313.774 98.2591 313.592 97.8228L313.337 97.2776C313.083 96.7686 312.828 96.4778 312.501 96.3688C312.173 96.2597 311.773 96.3324 311.264 96.5869L307.698 98.3318C307.335 98.5135 307.044 98.4045 306.898 98.0409C306.716 97.6774 306.825 97.3866 307.189 97.2412L310.754 95.4963C311.264 95.2419 311.555 94.9874 311.7 94.6966C311.846 94.4058 311.809 94.0423 311.591 93.606L311.336 93.0608C311.082 92.5518 310.827 92.261 310.5 92.152C310.172 92.0429 309.772 92.1156 309.263 92.3701L305.698 94.115C305.334 94.2967 305.043 94.1877 304.897 93.8242C304.752 93.4606 304.824 93.1698 305.188 93.0244L310.718 90.3344C311.082 90.1526 311.373 90.2617 311.518 90.6252C311.7 90.9887 311.591 91.2432 311.227 91.4249L310.936 91.5703C311.336 91.6431 311.7 91.7885 311.955 92.0066C312.21 92.2247 312.464 92.5155 312.646 92.9154L312.719 93.0971C312.973 93.6424 313.119 94.115 313.119 94.4785C313.119 94.842 312.973 95.2055 312.719 95.5327C313.192 95.6054 313.556 95.7144 313.81 95.8962C314.065 96.078 314.32 96.3688 314.501 96.7686L314.647 97.2412Z" fill="#E0E0E0"/>
<path d="M310.572 106.257C310.427 105.894 310.536 105.603 310.9 105.457L318.94 102.295C319.303 102.149 319.595 102.258 319.74 102.622L321.122 106.148C321.414 106.875 321.45 107.493 321.195 108.038C320.977 108.584 320.504 108.983 319.813 109.238L319.449 109.383C318.831 109.638 318.285 109.601 317.812 109.383C317.703 110.256 317.084 110.91 316.029 111.31L315.556 111.492C314.72 111.819 313.992 111.855 313.41 111.564C312.792 111.31 312.355 110.765 312.028 109.929L310.572 106.257ZM311.918 106.402L313.155 109.529C313.374 110.038 313.592 110.365 313.919 110.474C314.21 110.619 314.611 110.583 315.12 110.365L315.593 110.183C316.102 110.001 316.393 109.747 316.539 109.456C316.684 109.165 316.648 108.765 316.43 108.22L315.193 105.094L311.918 106.402ZM316.32 104.658L317.594 107.857C317.739 108.184 317.921 108.365 318.176 108.402C318.43 108.438 318.721 108.402 319.012 108.293L319.376 108.147C319.776 108.002 319.995 107.82 320.104 107.566C320.213 107.348 320.177 107.02 319.995 106.621L318.831 103.64L316.32 104.658Z" fill="#E0E0E0"/>
<path d="M314.138 115.816C313.992 115.416 314.138 115.161 314.538 115.052L320.359 113.089C320.759 112.944 321.013 113.089 321.122 113.489C321.268 113.889 321.122 114.144 320.759 114.253L314.938 116.216C314.501 116.325 314.247 116.216 314.138 115.816ZM322.177 112.871C322.032 112.435 322.178 112.144 322.614 111.999L323.014 111.853C323.451 111.708 323.742 111.853 323.887 112.29L324.033 112.689C324.178 113.126 324.033 113.38 323.596 113.526L323.196 113.671C322.76 113.816 322.469 113.671 322.323 113.271L322.177 112.871Z" fill="#E0E0E0"/>
<path d="M316.284 122.687C315.993 121.778 316.029 121.014 316.32 120.469C316.611 119.888 317.23 119.488 318.139 119.197L321.377 118.252L321.159 117.561C321.05 117.161 321.195 116.907 321.559 116.798C321.959 116.689 322.214 116.798 322.323 117.198L322.541 117.888L323.56 117.597C323.96 117.488 324.215 117.597 324.324 117.997C324.433 118.397 324.288 118.652 323.924 118.761L322.905 119.051L323.378 120.651C323.487 121.051 323.342 121.305 322.978 121.414C322.614 121.523 322.323 121.414 322.214 121.014L321.741 119.415L318.503 120.36C317.921 120.542 317.557 120.76 317.412 121.051C317.266 121.342 317.266 121.741 317.448 122.323C317.485 122.505 317.485 122.65 317.448 122.796C317.375 122.941 317.266 123.014 317.048 123.086C316.684 123.232 316.43 123.086 316.284 122.687Z" fill="#E0E0E0"/>
<path d="M321.195 131.157C321.013 130.393 321.341 129.957 322.068 129.775L322.796 129.63C323.524 129.485 323.996 129.775 324.142 130.539L324.288 131.229C324.433 131.956 324.142 132.393 323.414 132.538L322.687 132.683C321.923 132.865 321.486 132.574 321.304 131.847L321.195 131.157Z" fill="#E0E0E0"/>
<path d="M320.504 141.045C320.613 140.645 320.831 140.5 321.268 140.573L330.181 142.863C330.508 142.972 330.69 143.154 330.763 143.481V143.517C330.799 143.844 330.654 144.062 330.363 144.208L322.396 148.861C322.032 149.079 321.741 149.006 321.559 148.643C321.341 148.279 321.45 147.988 321.777 147.807L323.56 146.789L322.941 142.281L320.941 141.772C320.54 141.663 320.395 141.445 320.504 141.045ZM324.215 142.572L324.688 146.098L328.799 143.699L324.215 142.572Z" fill="#E0E0E0"/>
<path d="M321.887 153.222C321.85 152.604 321.923 152.132 322.178 151.732C322.396 151.368 322.76 151.114 323.269 150.968C323.487 150.932 323.633 150.932 323.742 151.041C323.851 151.15 323.924 151.296 323.96 151.514C323.96 151.696 323.924 151.841 323.851 151.95C323.742 152.059 323.633 152.132 323.414 152.204C323.269 152.277 323.196 152.386 323.16 152.532C323.123 152.677 323.123 152.859 323.123 153.15L323.305 155.512C323.342 155.876 323.414 156.13 323.56 156.276C323.706 156.421 323.96 156.458 324.36 156.421C324.761 156.385 325.015 156.312 325.124 156.167C325.233 156.021 325.27 155.767 325.27 155.403L325.088 153.077C325.052 152.386 325.161 151.841 325.488 151.477C325.816 151.114 326.325 150.896 327.016 150.823C327.744 150.787 328.253 150.896 328.653 151.223C329.053 151.55 329.235 152.059 329.308 152.786L329.49 155.04C329.563 156.167 329.162 156.894 328.217 157.148C327.998 157.221 327.853 157.185 327.744 157.076C327.634 156.966 327.562 156.821 327.525 156.603C327.525 156.421 327.562 156.276 327.634 156.167C327.707 156.058 327.853 155.985 328.035 155.912C328.144 155.84 328.217 155.767 328.253 155.621C328.289 155.476 328.289 155.331 328.289 155.113L328.107 152.859C328.071 152.495 327.998 152.241 327.889 152.168C327.78 152.095 327.525 152.023 327.162 152.059C326.798 152.095 326.579 152.168 326.47 152.277C326.361 152.386 326.325 152.641 326.325 153.004L326.507 155.331C326.543 156.058 326.434 156.603 326.07 157.003C325.743 157.403 325.197 157.621 324.469 157.657C323.742 157.73 323.196 157.584 322.796 157.221C322.396 156.894 322.178 156.349 322.141 155.621L321.887 153.222Z" fill="#E0E0E0"/>
<path d="M329.817 168.563C329.817 169.472 329.635 170.126 329.199 170.562C328.762 170.962 328.071 171.18 327.052 171.18L323.087 171.253C322.687 171.253 322.469 171.071 322.469 170.635C322.469 170.235 322.65 170.017 323.087 170.017L327.052 169.944C327.598 169.944 327.998 169.835 328.253 169.617C328.508 169.399 328.617 169.072 328.617 168.563V167.981C328.617 167.436 328.471 167.036 328.217 166.818C327.962 166.6 327.562 166.455 327.016 166.491L323.051 166.564C322.65 166.564 322.432 166.382 322.432 165.946C322.432 165.546 322.614 165.328 323.051 165.328L327.016 165.255C327.562 165.255 327.962 165.146 328.217 164.928C328.471 164.71 328.58 164.383 328.58 163.874V163.292C328.58 162.747 328.435 162.347 328.18 162.129C327.925 161.911 327.525 161.802 326.98 161.802L323.014 161.874C322.614 161.874 322.396 161.693 322.396 161.256C322.396 160.856 322.578 160.638 323.014 160.638L329.162 160.529C329.563 160.529 329.781 160.711 329.781 161.147C329.781 161.547 329.599 161.765 329.162 161.765H328.835C329.162 162.02 329.417 162.311 329.563 162.601C329.708 162.892 329.781 163.256 329.817 163.692V163.874C329.817 164.492 329.744 164.964 329.599 165.291C329.453 165.619 329.162 165.909 328.799 166.091C329.199 166.346 329.453 166.6 329.635 166.891C329.817 167.182 329.89 167.545 329.89 167.981L329.817 168.563Z" fill="#E0E0E0"/>
<path d="M322.141 175.069C322.178 174.669 322.396 174.488 322.796 174.524L331.418 175.178C331.818 175.215 332 175.433 332 175.833L331.709 179.613C331.636 180.377 331.418 180.958 330.981 181.322C330.545 181.722 329.963 181.867 329.199 181.794L328.799 181.758C328.144 181.722 327.671 181.467 327.343 181.031C326.87 181.758 326.034 182.085 324.906 182.013L324.397 181.976C323.524 181.903 322.832 181.613 322.432 181.104C321.996 180.595 321.814 179.904 321.887 179.032L322.141 175.069ZM323.342 175.76L323.087 179.141C323.051 179.686 323.123 180.086 323.342 180.34C323.56 180.595 323.924 180.74 324.469 180.777L324.979 180.813C325.524 180.849 325.925 180.777 326.143 180.558C326.361 180.34 326.543 179.977 326.579 179.395L326.834 176.051L323.342 175.76ZM328.035 176.124L327.78 179.577C327.744 179.941 327.853 180.195 328.035 180.34C328.253 180.486 328.508 180.558 328.871 180.595L329.272 180.631C329.708 180.668 329.999 180.595 330.181 180.449C330.363 180.304 330.472 179.977 330.508 179.541L330.727 176.378L328.035 176.124Z" fill="#E0E0E0"/>
<path d="M321.232 185.249C321.268 184.849 321.523 184.667 321.923 184.704L328.035 185.467C328.435 185.503 328.617 185.758 328.58 186.158C328.544 186.558 328.289 186.739 327.889 186.703L321.777 185.94C321.341 185.867 321.159 185.649 321.232 185.249ZM329.744 186.085C329.817 185.613 330.072 185.431 330.508 185.467L330.945 185.503C331.382 185.54 331.6 185.831 331.527 186.267L331.491 186.667C331.454 187.103 331.2 187.285 330.727 187.248L330.29 187.212C329.817 187.176 329.635 186.921 329.672 186.485L329.744 186.085Z" fill="#E0E0E0"/>
<path d="M320.177 192.411C320.322 191.465 320.65 190.811 321.195 190.411C321.705 190.048 322.432 189.902 323.378 190.084L326.689 190.629L326.798 189.939C326.871 189.539 327.089 189.357 327.489 189.43C327.889 189.502 328.071 189.721 327.998 190.12L327.889 190.811L328.944 190.993C329.344 191.066 329.526 191.284 329.453 191.684C329.381 192.083 329.162 192.265 328.762 192.192L327.707 192.011L327.453 193.647C327.38 194.046 327.162 194.228 326.761 194.155C326.361 194.083 326.179 193.865 326.252 193.465L326.507 191.829L323.196 191.284C322.578 191.175 322.141 191.247 321.923 191.429C321.668 191.611 321.486 192.011 321.414 192.629C321.377 192.81 321.304 192.956 321.195 193.065C321.086 193.174 320.904 193.174 320.722 193.138C320.286 193.029 320.104 192.81 320.177 192.411Z" fill="#E0E0E0"/>
<path d="M320.904 202.116C321.086 201.353 321.559 201.062 322.287 201.244L322.978 201.389C323.705 201.571 323.997 202.007 323.815 202.771L323.669 203.461C323.487 204.188 323.051 204.443 322.323 204.261L321.632 204.079C320.868 203.898 320.577 203.461 320.759 202.734L320.904 202.116Z" fill="#E0E0E0"/>
<path d="M316.029 210.659C316.284 210.331 316.575 210.295 316.902 210.586L323.96 216.511C324.215 216.766 324.288 217.02 324.215 217.311V217.347C324.106 217.638 323.887 217.783 323.56 217.82L314.356 218.547C313.956 218.583 313.737 218.401 313.701 217.965C313.665 217.565 313.847 217.347 314.283 217.311L316.32 217.166L317.703 212.84L316.102 211.531C315.811 211.24 315.775 210.986 316.029 210.659ZM318.721 213.639L317.63 217.02L322.396 216.657L318.721 213.639Z" fill="#E0E0E0"/>
<path d="M311.991 222.255C312.21 221.673 312.501 221.274 312.901 221.019C313.265 220.765 313.701 220.692 314.21 220.801C314.429 220.837 314.538 220.946 314.611 221.092C314.683 221.237 314.683 221.419 314.611 221.601C314.538 221.783 314.429 221.892 314.32 221.964C314.21 222.001 314.029 222.037 313.81 222.001C313.665 222.001 313.519 222.073 313.446 222.182C313.337 222.291 313.265 222.473 313.155 222.728L312.282 224.945C312.137 225.309 312.1 225.563 312.173 225.709C312.246 225.89 312.464 226.036 312.828 226.181C313.192 226.326 313.446 226.363 313.628 226.29C313.81 226.217 313.956 225.999 314.101 225.636L314.974 223.455C315.229 222.8 315.593 222.364 316.029 222.182C316.502 222.001 317.048 222.001 317.703 222.255C318.358 222.51 318.794 222.873 319.012 223.309C319.194 223.746 319.194 224.327 318.903 224.981L318.067 227.09C317.63 228.144 316.939 228.617 315.993 228.435C315.775 228.399 315.666 228.289 315.593 228.144C315.52 227.999 315.52 227.817 315.629 227.635C315.702 227.453 315.811 227.344 315.92 227.308C316.029 227.272 316.211 227.235 316.393 227.272C316.539 227.272 316.611 227.199 316.721 227.126C316.83 227.054 316.866 226.872 316.975 226.654L317.812 224.545C317.957 224.218 317.994 223.964 317.921 223.818C317.848 223.673 317.666 223.527 317.303 223.382C316.975 223.237 316.721 223.237 316.575 223.273C316.43 223.309 316.284 223.527 316.139 223.855L315.265 226.036C315.011 226.726 314.647 227.163 314.174 227.344C313.701 227.562 313.119 227.526 312.464 227.235C311.773 226.981 311.336 226.581 311.155 226.108C310.936 225.636 310.973 225.054 311.264 224.4L311.991 222.255Z" fill="#E0E0E0"/>
<path d="M312.319 239.667C311.918 240.503 311.446 240.976 310.863 241.158C310.318 241.339 309.554 241.194 308.681 240.758L305.116 239.013C304.752 238.831 304.643 238.577 304.824 238.213C305.006 237.85 305.261 237.74 305.625 237.922L309.226 239.667C309.736 239.922 310.136 239.994 310.427 239.885C310.754 239.813 311.009 239.558 311.227 239.122L311.482 238.577C311.737 238.068 311.773 237.668 311.664 237.341C311.555 237.013 311.227 236.723 310.754 236.505L307.189 234.76C306.825 234.578 306.716 234.323 306.898 233.96C307.08 233.596 307.335 233.487 307.698 233.669L311.264 235.378C311.773 235.632 312.173 235.705 312.501 235.596C312.828 235.523 313.083 235.269 313.301 234.832L313.556 234.287C313.81 233.778 313.847 233.378 313.737 233.051C313.628 232.724 313.301 232.433 312.828 232.215L309.226 230.579C308.863 230.397 308.753 230.143 308.935 229.779C309.117 229.416 309.372 229.307 309.736 229.489L315.265 232.179C315.629 232.36 315.738 232.615 315.556 232.978C315.375 233.342 315.12 233.451 314.756 233.269L314.465 233.124C314.647 233.487 314.756 233.851 314.756 234.214C314.756 234.542 314.647 234.905 314.465 235.305L314.392 235.487C314.138 236.032 313.847 236.432 313.556 236.65C313.265 236.904 312.901 237.013 312.501 237.013C312.719 237.413 312.864 237.777 312.864 238.104C312.901 238.431 312.792 238.795 312.61 239.195L312.319 239.667Z" fill="#E0E0E0"/>
<path d="M302.714 242.103C302.933 241.739 303.187 241.666 303.551 241.884L311.009 246.21C311.373 246.428 311.446 246.683 311.227 247.046L309.336 250.318C308.935 250.972 308.462 251.409 307.917 251.554C307.371 251.699 306.753 251.59 306.098 251.227L305.77 251.045C305.188 250.718 304.861 250.282 304.752 249.736C303.988 250.173 303.115 250.136 302.132 249.555L301.696 249.3C300.932 248.864 300.459 248.319 300.277 247.664C300.095 247.01 300.241 246.319 300.714 245.556L302.714 242.103ZM303.442 243.229L301.732 246.138C301.441 246.61 301.368 247.01 301.441 247.337C301.514 247.664 301.805 247.955 302.278 248.21L302.714 248.464C303.187 248.719 303.551 248.828 303.879 248.755C304.206 248.682 304.497 248.391 304.788 247.919L306.498 245.011L303.442 243.229ZM307.553 245.592L305.807 248.573C305.625 248.864 305.588 249.155 305.734 249.373C305.879 249.591 306.061 249.809 306.352 249.954L306.68 250.136C307.044 250.354 307.335 250.427 307.589 250.354C307.808 250.282 308.062 250.064 308.28 249.7L309.881 246.937L307.553 245.592Z" fill="#E0E0E0"/>
<path d="M297.403 250.791C297.621 250.464 297.912 250.391 298.24 250.609L303.406 253.953C303.733 254.172 303.806 254.462 303.588 254.789C303.369 255.117 303.078 255.189 302.751 254.971L297.585 251.627C297.258 251.445 297.185 251.154 297.403 250.791ZM304.715 255.298C304.97 254.899 305.297 254.826 305.661 255.08L306.025 255.335C306.389 255.589 306.462 255.88 306.207 256.28L305.989 256.643C305.734 257.007 305.443 257.08 305.043 256.825L304.679 256.607C304.279 256.353 304.206 256.025 304.461 255.662L304.715 255.298Z" fill="#E0E0E0"/>
<path d="M293.365 256.788C293.911 255.989 294.493 255.552 295.147 255.443C295.766 255.334 296.494 255.552 297.257 256.098L300.022 258.024L300.423 257.443C300.641 257.115 300.932 257.043 301.259 257.297C301.587 257.552 301.659 257.806 301.405 258.133L301.005 258.715L301.878 259.333C302.205 259.551 302.278 259.842 302.023 260.169C301.769 260.496 301.514 260.569 301.186 260.314L300.313 259.696L299.368 261.078C299.149 261.405 298.858 261.478 298.531 261.223C298.203 261.005 298.131 260.714 298.385 260.387L299.331 259.006L296.566 257.079C296.057 256.716 295.657 256.57 295.366 256.643C295.075 256.716 294.747 256.97 294.384 257.479C294.274 257.624 294.165 257.733 294.02 257.77C293.874 257.806 293.729 257.77 293.547 257.624C293.183 257.406 293.147 257.115 293.365 256.788Z" fill="#E0E0E0"/>
<path d="M289.8 265.803C290.273 265.185 290.818 265.148 291.437 265.621L292.019 266.094C292.601 266.566 292.637 267.111 292.164 267.729L291.728 268.275C291.255 268.856 290.746 268.893 290.163 268.42L289.581 267.948C288.963 267.475 288.927 266.93 289.363 266.348L289.8 265.803Z" fill="#E0E0E0"/>
<path d="M281.614 271.475C281.978 271.293 282.269 271.402 282.451 271.766L286.198 280.163C286.344 280.49 286.271 280.781 286.089 280.999L286.053 281.036C285.834 281.254 285.543 281.29 285.252 281.181L276.667 277.837C276.266 277.691 276.157 277.4 276.303 277.037C276.448 276.673 276.739 276.528 277.103 276.71L279.031 277.473L282.16 274.201L281.287 272.347C281.141 271.875 281.25 271.62 281.614 271.475ZM282.706 275.292L280.232 277.873L284.67 279.618L282.706 275.292Z" fill="#E0E0E0"/>
<path d="M272.956 280.089C273.393 279.653 273.865 279.435 274.302 279.362C274.739 279.326 275.175 279.435 275.575 279.726C275.721 279.871 275.83 280.017 275.83 280.162C275.83 280.307 275.757 280.489 275.612 280.598C275.466 280.744 275.321 280.78 275.175 280.78C275.03 280.78 274.884 280.707 274.702 280.598C274.557 280.525 274.411 280.525 274.302 280.598C274.156 280.671 274.011 280.78 273.793 280.962L272.046 282.561C271.755 282.816 271.61 283.034 271.61 283.216C271.61 283.397 271.719 283.615 271.974 283.906C272.228 284.197 272.447 284.342 272.629 284.342C272.81 284.342 273.029 284.233 273.32 283.979L275.03 282.379C275.539 281.907 276.048 281.689 276.558 281.689C277.067 281.725 277.54 281.98 278.013 282.488C278.486 282.997 278.74 283.506 278.704 284.015C278.668 284.524 278.413 284.997 277.904 285.469L276.23 286.996C275.393 287.759 274.557 287.869 273.756 287.323C273.574 287.214 273.502 287.069 273.538 286.887C273.538 286.742 273.611 286.56 273.793 286.451C273.938 286.305 274.084 286.269 274.193 286.269C274.338 286.269 274.484 286.342 274.629 286.414C274.739 286.451 274.884 286.451 274.993 286.414C275.102 286.378 275.248 286.269 275.43 286.087L277.103 284.561C277.358 284.306 277.503 284.088 277.503 283.943C277.503 283.797 277.394 283.579 277.14 283.288C276.921 283.034 276.703 282.888 276.521 282.888C276.339 282.888 276.121 282.997 275.866 283.252L274.156 284.851C273.611 285.36 273.101 285.578 272.592 285.578C272.083 285.578 271.574 285.288 271.064 284.742C270.555 284.197 270.337 283.688 270.337 283.179C270.373 282.67 270.628 282.161 271.173 281.652L272.956 280.089Z" fill="#E0E0E0"/>
<path d="M265.716 295.94C264.989 296.521 264.334 296.74 263.752 296.667C263.17 296.594 262.551 296.158 261.933 295.358L259.459 292.268C259.204 291.941 259.241 291.65 259.568 291.396C259.896 291.141 260.187 291.178 260.441 291.505L262.915 294.595C263.243 295.031 263.606 295.285 263.897 295.322C264.225 295.395 264.552 295.249 264.952 294.958L265.425 294.595C265.862 294.268 266.08 293.904 266.117 293.577C266.153 293.25 266.007 292.85 265.644 292.414L263.17 289.324C262.915 288.997 262.952 288.706 263.279 288.451C263.606 288.197 263.897 288.233 264.152 288.56L266.626 291.65C266.953 292.087 267.317 292.341 267.608 292.377C267.936 292.45 268.263 292.305 268.663 292.014L269.136 291.65C269.573 291.323 269.791 290.96 269.827 290.632C269.864 290.305 269.718 289.905 269.354 289.469L266.881 286.379C266.626 286.052 266.662 285.761 266.99 285.507C267.317 285.252 267.608 285.289 267.863 285.616L271.683 290.414C271.937 290.741 271.901 291.032 271.574 291.287C271.246 291.541 270.955 291.505 270.7 291.178L270.482 290.923C270.482 291.359 270.409 291.723 270.264 292.014C270.118 292.305 269.864 292.595 269.536 292.886L269.391 292.995C268.918 293.359 268.481 293.613 268.117 293.686C267.754 293.759 267.353 293.722 266.99 293.541C267.026 294.013 266.99 294.377 266.844 294.704C266.735 294.995 266.48 295.285 266.153 295.576L265.716 295.94Z" fill="#E0E0E0"/>
<path d="M255.894 293.977C256.221 293.759 256.512 293.796 256.731 294.123L261.569 301.284C261.787 301.611 261.751 301.902 261.424 302.12L258.295 304.265C257.64 304.701 257.058 304.846 256.476 304.774C255.894 304.665 255.421 304.301 254.984 303.683L254.766 303.356C254.402 302.811 254.293 302.265 254.439 301.757C253.566 301.829 252.802 301.393 252.147 300.448L251.856 300.048C251.346 299.321 251.165 298.63 251.31 297.976C251.456 297.322 251.856 296.74 252.62 296.267L255.894 293.977ZM256.076 295.359L253.275 297.249C252.838 297.54 252.547 297.867 252.511 298.194C252.438 298.521 252.583 298.921 252.874 299.357L253.165 299.757C253.456 300.193 253.784 300.448 254.111 300.521C254.439 300.593 254.803 300.448 255.275 300.157L258.077 298.267L256.076 295.359ZM258.732 299.248L255.894 301.175C255.603 301.357 255.457 301.611 255.494 301.866C255.53 302.12 255.603 302.375 255.785 302.665L256.003 302.993C256.258 303.356 256.476 303.538 256.731 303.574C256.985 303.611 257.276 303.501 257.64 303.283L260.296 301.502L258.732 299.248Z" fill="#E0E0E0"/>
<path d="M247.381 299.537C247.745 299.319 248 299.391 248.218 299.755L251.419 304.99C251.638 305.317 251.565 305.607 251.201 305.826C250.837 306.044 250.582 305.971 250.364 305.607L247.163 300.373C246.945 300.046 247.017 299.755 247.381 299.537ZM252.001 306.771C252.401 306.516 252.729 306.625 252.947 306.989L253.165 307.352C253.384 307.752 253.311 308.043 252.911 308.298L252.547 308.516C252.183 308.734 251.856 308.661 251.637 308.298L251.419 307.934C251.165 307.534 251.237 307.243 251.637 306.989L252.001 306.771Z" fill="#E0E0E0"/>
<path d="M241.197 303.137C242.033 302.664 242.761 302.519 243.379 302.701C243.998 302.882 244.544 303.391 245.016 304.191L246.654 307.136L247.272 306.772C247.636 306.59 247.89 306.663 248.109 306.99C248.327 307.354 248.218 307.608 247.89 307.826L247.272 308.19L247.781 309.099C247.963 309.462 247.89 309.717 247.563 309.935C247.199 310.116 246.945 310.044 246.726 309.717L246.217 308.808L244.762 309.644C244.398 309.826 244.143 309.753 243.925 309.426C243.743 309.062 243.816 308.808 244.143 308.59L245.599 307.754L243.961 304.809C243.67 304.264 243.343 303.973 243.052 303.9C242.761 303.828 242.324 303.937 241.815 304.228C241.633 304.337 241.488 304.337 241.342 304.337C241.197 304.337 241.087 304.191 240.978 304.009C240.76 303.61 240.869 303.319 241.197 303.137Z" fill="#E0E0E0"/>
<path d="M234.03 309.789C234.721 309.461 235.23 309.643 235.594 310.334L235.922 310.988C236.249 311.679 236.067 312.188 235.339 312.515L234.721 312.806C234.066 313.133 233.557 312.951 233.229 312.26L232.938 311.606C232.611 310.915 232.793 310.407 233.448 310.079L234.03 309.789Z" fill="#E0E0E0"/>
<path d="M224.28 311.244C224.68 311.244 224.899 311.462 224.899 311.862L224.644 321.059C224.607 321.423 224.462 321.641 224.171 321.75H224.135C223.844 321.859 223.589 321.786 223.371 321.532L217.077 314.77C216.786 314.479 216.822 314.189 217.113 313.898C217.404 313.607 217.695 313.643 217.986 313.934L219.405 315.461L223.662 313.861L223.698 311.826C223.662 311.426 223.88 311.244 224.28 311.244ZM223.589 315.206L220.278 316.442L223.516 319.932L223.589 315.206Z" fill="#E0E0E0"/>
<path d="M212.711 315.278C213.293 315.096 213.803 315.096 214.239 315.205C214.676 315.314 215.003 315.641 215.222 316.114C215.294 316.296 215.331 316.478 215.258 316.623C215.185 316.768 215.04 316.877 214.858 316.914C214.676 316.987 214.53 316.95 214.385 316.914C214.276 316.841 214.167 316.732 214.057 316.55C213.948 316.441 213.839 316.369 213.694 316.369C213.548 316.369 213.33 316.405 213.075 316.478L210.783 317.168C210.419 317.277 210.201 317.423 210.092 317.568C210.019 317.714 210.019 318.004 210.128 318.368C210.238 318.731 210.383 318.949 210.529 319.059C210.674 319.131 210.965 319.131 211.329 319.022L213.585 318.332C214.239 318.113 214.821 318.15 215.258 318.368C215.695 318.586 216.022 319.059 216.24 319.713C216.458 320.404 216.422 320.949 216.204 321.385C215.986 321.821 215.513 322.148 214.821 322.367L212.639 323.021C211.547 323.348 210.747 323.094 210.274 322.221C210.165 322.039 210.165 321.894 210.238 321.749C210.31 321.603 210.456 321.494 210.638 321.458C210.82 321.385 210.965 321.421 211.074 321.458C211.183 321.494 211.293 321.64 211.402 321.785C211.474 321.894 211.584 321.93 211.729 321.93C211.838 321.93 212.02 321.894 212.238 321.821L214.421 321.167C214.785 321.058 215.003 320.949 215.076 320.803C215.149 320.658 215.149 320.404 215.04 320.04C214.931 319.713 214.821 319.495 214.676 319.422C214.53 319.349 214.276 319.349 213.948 319.458L211.693 320.149C211.002 320.367 210.419 320.331 209.983 320.113C209.546 319.858 209.183 319.386 209.001 318.695C208.782 318.004 208.819 317.423 209.037 316.987C209.292 316.514 209.765 316.187 210.456 316.005L212.711 315.278Z" fill="#E0E0E0"/>
<path d="M199.178 326.401C198.269 326.583 197.577 326.546 197.105 326.219C196.632 325.892 196.268 325.238 196.05 324.256L195.176 320.367C195.104 319.967 195.249 319.712 195.649 319.64C196.05 319.567 196.304 319.712 196.377 320.112L197.25 324.002C197.359 324.547 197.577 324.911 197.832 325.092C198.087 325.274 198.451 325.347 198.924 325.238L199.506 325.092C200.051 324.983 200.415 324.765 200.597 324.474C200.779 324.184 200.815 323.747 200.67 323.238L199.797 319.349C199.724 318.949 199.869 318.694 200.27 318.622C200.67 318.549 200.924 318.694 200.997 319.094L201.87 322.984C201.979 323.529 202.198 323.893 202.452 324.075C202.707 324.256 203.071 324.329 203.544 324.22L204.126 324.075C204.671 323.966 205.035 323.747 205.217 323.457C205.399 323.166 205.435 322.73 205.29 322.221L204.417 318.331C204.344 317.931 204.49 317.677 204.89 317.604C205.29 317.531 205.545 317.677 205.617 318.077L206.963 324.075C207.036 324.474 206.891 324.729 206.49 324.802C206.09 324.874 205.836 324.729 205.763 324.329L205.69 324.002C205.508 324.402 205.29 324.693 205.035 324.911C204.781 325.129 204.417 325.274 204.017 325.383L203.835 325.42C203.253 325.565 202.78 325.565 202.38 325.492C201.979 325.42 201.688 325.201 201.434 324.874C201.252 325.311 201.07 325.638 200.815 325.856C200.561 326.074 200.233 326.219 199.797 326.328L199.178 326.401Z" fill="#E0E0E0"/>
<path d="M191.32 320.367C191.72 320.295 191.939 320.476 192.011 320.876L193.248 329.419C193.321 329.819 193.139 330.037 192.739 330.11L188.992 330.655C188.228 330.764 187.609 330.655 187.137 330.291C186.664 329.964 186.373 329.383 186.263 328.655L186.191 328.256C186.082 327.601 186.227 327.092 186.591 326.656C185.754 326.329 185.281 325.602 185.099 324.475L185.027 324.002C184.881 323.13 185.027 322.403 185.427 321.894C185.827 321.385 186.482 321.022 187.355 320.913L191.32 320.367ZM190.884 321.64L187.537 322.112C186.991 322.185 186.627 322.367 186.409 322.621C186.191 322.876 186.154 323.275 186.227 323.821L186.3 324.293C186.373 324.839 186.554 325.202 186.809 325.384C187.064 325.566 187.464 325.638 188.046 325.566L191.393 325.093L190.884 321.64ZM191.538 326.329L188.119 326.838C187.755 326.874 187.537 327.02 187.464 327.274C187.391 327.529 187.355 327.783 187.391 328.147L187.464 328.546C187.537 328.983 187.646 329.237 187.864 329.383C188.046 329.528 188.373 329.564 188.81 329.492L191.975 329.019L191.538 326.329Z" fill="#E0E0E0"/>
<path d="M181.207 321.639C181.607 321.603 181.825 321.785 181.862 322.185L182.444 328.292C182.48 328.692 182.298 328.91 181.898 328.946C181.498 328.982 181.279 328.801 181.243 328.401L180.661 322.294C180.625 321.894 180.807 321.676 181.207 321.639ZM182.225 330.146C182.698 330.109 182.953 330.327 182.989 330.764L183.026 331.2C183.062 331.636 182.844 331.89 182.407 331.927L182.007 331.963C181.57 332 181.316 331.818 181.279 331.345L181.243 330.909C181.207 330.436 181.389 330.182 181.825 330.146H182.225Z" fill="#E0E0E0"/>
<path d="M174.04 322.186C174.986 322.113 175.713 322.331 176.186 322.731C176.659 323.131 176.95 323.858 176.987 324.803L177.205 328.147L177.933 328.111C178.333 328.075 178.551 328.293 178.587 328.693C178.624 329.093 178.405 329.311 178.005 329.347L177.278 329.383L177.35 330.438C177.387 330.837 177.169 331.056 176.768 331.092C176.368 331.128 176.15 330.91 176.114 330.51L176.041 329.456L174.367 329.565C173.967 329.602 173.749 329.383 173.712 328.984C173.676 328.584 173.894 328.366 174.295 328.329L175.968 328.22L175.75 324.876C175.713 324.258 175.568 323.858 175.35 323.64C175.131 323.422 174.695 323.349 174.076 323.385C173.894 323.385 173.749 323.349 173.603 323.276C173.494 323.167 173.421 323.022 173.421 322.804C173.458 322.404 173.64 322.186 174.04 322.186Z" fill="#E0E0E0"/>
<path d="M164.727 325.021C165.491 325.021 165.891 325.421 165.855 326.221V326.948C165.855 327.712 165.454 328.075 164.654 328.075H163.963C163.235 328.075 162.871 327.675 162.871 326.912V326.185C162.871 325.421 163.272 325.021 163.999 325.021H164.727Z" fill="#E0E0E0"/>
<path d="M155.232 322.113C155.595 322.295 155.705 322.585 155.523 322.949L151.303 331.128C151.121 331.419 150.902 331.564 150.575 331.528H150.539C150.211 331.492 150.029 331.31 149.957 330.983L147.228 322.186C147.119 321.786 147.228 321.531 147.628 321.422C148.028 321.313 148.283 321.458 148.392 321.822L149.011 323.785L153.522 324.185L154.431 322.367C154.577 322.004 154.868 321.931 155.232 322.113ZM152.903 325.384L149.375 325.057L150.757 329.601L152.903 325.384Z" fill="#E0E0E0"/>
<path d="M143.081 320.731C143.699 320.84 144.136 321.022 144.463 321.349C144.791 321.64 144.936 322.076 144.973 322.585C144.973 322.803 144.9 322.949 144.791 323.058C144.645 323.167 144.5 323.203 144.281 323.167C144.099 323.13 143.954 323.058 143.881 322.949C143.808 322.84 143.772 322.658 143.736 322.476C143.699 322.331 143.627 322.222 143.481 322.149C143.335 322.076 143.154 322.04 142.899 322.003L140.534 321.64C140.17 321.567 139.916 321.604 139.734 321.713C139.588 321.822 139.479 322.076 139.407 322.44C139.334 322.84 139.37 323.094 139.479 323.239C139.588 323.385 139.843 323.494 140.207 323.53L142.535 323.894C143.226 324.003 143.736 324.257 144.027 324.657C144.318 325.057 144.427 325.602 144.318 326.293C144.209 326.984 143.954 327.493 143.554 327.783C143.154 328.074 142.608 328.183 141.917 328.074L139.661 327.747C138.533 327.565 137.951 326.984 137.879 326.002C137.879 325.784 137.951 325.639 138.06 325.566C138.206 325.457 138.352 325.457 138.57 325.457C138.752 325.493 138.897 325.566 138.97 325.675C139.043 325.784 139.079 325.929 139.115 326.111C139.152 326.22 139.225 326.329 139.334 326.366C139.443 326.402 139.625 326.475 139.843 326.511L142.099 326.838C142.462 326.911 142.717 326.875 142.826 326.766C142.935 326.656 143.044 326.438 143.117 326.075C143.154 325.748 143.154 325.493 143.044 325.348C142.935 325.202 142.717 325.13 142.353 325.057L140.025 324.694C139.297 324.584 138.788 324.33 138.497 323.894C138.206 323.494 138.097 322.912 138.206 322.185C138.315 321.458 138.57 320.949 139.006 320.658C139.407 320.368 139.989 320.259 140.716 320.368L143.081 320.731Z" fill="#E0E0E0"/>
<path d="M126.092 324.875C125.182 324.656 124.6 324.293 124.309 323.784C124.018 323.275 123.982 322.548 124.2 321.567L125.109 317.713C125.182 317.313 125.437 317.168 125.837 317.241C126.237 317.35 126.383 317.568 126.31 317.968L125.4 321.821C125.291 322.366 125.291 322.766 125.437 323.057C125.582 323.348 125.91 323.53 126.346 323.639L126.928 323.784C127.474 323.893 127.874 323.893 128.165 323.675C128.456 323.493 128.675 323.13 128.784 322.584L129.693 318.731C129.802 318.331 130.021 318.186 130.421 318.259C130.821 318.331 130.966 318.586 130.894 318.986L129.984 322.839C129.875 323.384 129.875 323.784 130.021 324.075C130.166 324.366 130.494 324.547 130.93 324.656L131.512 324.802C132.058 324.911 132.458 324.911 132.749 324.693C133.04 324.511 133.258 324.148 133.368 323.602L134.277 319.749C134.386 319.349 134.604 319.204 135.005 319.276C135.405 319.385 135.55 319.604 135.478 320.003L134.095 326.001C134.022 326.401 133.768 326.547 133.368 326.474C132.967 326.365 132.822 326.147 132.895 325.747L132.967 325.42C132.64 325.674 132.313 325.856 131.985 325.929C131.658 326.001 131.294 326.001 130.857 325.892L130.675 325.856C130.093 325.711 129.657 325.529 129.366 325.274C129.075 325.02 128.856 324.729 128.784 324.293C128.456 324.62 128.129 324.802 127.801 324.911C127.474 325.02 127.11 324.984 126.674 324.911L126.092 324.875Z" fill="#E0E0E0"/>
<path d="M121.617 316.041C122.017 316.15 122.126 316.405 122.017 316.804L119.434 325.056C119.325 325.456 119.07 325.565 118.67 325.456L115.032 324.329C114.305 324.111 113.795 323.711 113.504 323.202C113.213 322.693 113.213 322.075 113.432 321.348L113.541 320.985C113.723 320.367 114.086 319.931 114.596 319.713C113.977 319.058 113.868 318.186 114.195 317.095L114.341 316.623C114.596 315.787 115.032 315.205 115.614 314.878C116.196 314.587 116.924 314.551 117.761 314.841L121.617 316.041ZM119.252 321.53L115.978 320.512C115.651 320.403 115.36 320.44 115.178 320.621C114.996 320.803 114.85 321.021 114.741 321.348L114.632 321.712C114.487 322.112 114.487 322.439 114.632 322.621C114.741 322.839 114.996 323.021 115.432 323.13L118.488 324.075L119.252 321.53ZM120.671 317.023L117.433 316.005C116.924 315.859 116.487 315.823 116.196 316.005C115.905 316.15 115.687 316.477 115.505 317.023L115.36 317.495C115.214 318.004 115.178 318.404 115.323 318.695C115.469 318.986 115.796 319.204 116.342 319.385L119.58 320.403L120.671 317.023Z" fill="#E0E0E0"/>
<path d="M109.175 320.912C109.612 321.057 109.757 321.385 109.575 321.821L109.43 322.221C109.284 322.657 108.993 322.766 108.557 322.621L108.156 322.475C107.756 322.33 107.611 322.039 107.756 321.603L107.902 321.203C108.047 320.767 108.338 320.621 108.775 320.767L109.175 320.912ZM111.94 312.806C112.304 312.951 112.449 313.206 112.304 313.569L110.194 319.349C110.048 319.749 109.794 319.858 109.393 319.712C109.03 319.567 108.884 319.313 109.03 318.949L111.14 313.169C111.285 312.769 111.576 312.66 111.94 312.806Z" fill="#E0E0E0"/>
<path d="M105.246 310.189C106.119 310.552 106.701 311.025 106.956 311.643C107.211 312.224 107.138 312.988 106.774 313.86L105.501 316.95L106.156 317.205C106.519 317.35 106.629 317.641 106.483 318.004C106.337 318.368 106.046 318.477 105.683 318.331L105.028 318.077L104.628 319.059C104.482 319.422 104.191 319.531 103.827 319.386C103.464 319.24 103.354 318.949 103.5 318.586L103.9 317.604L102.336 316.986C101.972 316.841 101.863 316.55 102.008 316.187C102.154 315.823 102.445 315.714 102.809 315.86L104.373 316.478L105.646 313.351C105.865 312.77 105.937 312.37 105.792 312.079C105.683 311.788 105.319 311.534 104.773 311.316C104.591 311.243 104.482 311.134 104.409 311.025C104.337 310.879 104.337 310.734 104.446 310.516C104.628 310.116 104.882 310.007 105.246 310.189Z" fill="#E0E0E0"/>
<path d="M95.6419 308.699C96.3331 309.026 96.515 309.571 96.1512 310.262L95.8238 310.916C95.4964 311.607 94.9871 311.752 94.2595 311.425L93.641 311.098C92.9862 310.771 92.8043 310.262 93.1681 309.607L93.4955 308.953C93.8229 308.262 94.3322 308.081 94.9871 308.408L95.6419 308.699Z" fill="#E0E0E0"/>
<path d="M88.366 301.936C88.6207 302.263 88.5843 302.554 88.2569 302.808L80.8718 308.297C80.5808 308.479 80.2897 308.515 80.0351 308.37H79.9987C79.744 308.188 79.6349 307.934 79.7076 307.643L81.0901 298.519C81.1628 298.119 81.3811 297.937 81.7813 298.01C82.1815 298.083 82.3634 298.301 82.2906 298.7L81.9632 300.736L85.8558 303.063L87.4929 301.827C87.8567 301.572 88.1113 301.609 88.366 301.936ZM84.8372 303.862L81.7813 302.045L81.0537 306.734L84.8372 303.862Z" fill="#E0E0E0"/>
<path d="M78.0342 295.358C78.5435 295.721 78.8709 296.085 79.0164 296.521C79.1619 296.921 79.1256 297.393 78.9437 297.866C78.8709 298.048 78.7254 298.157 78.5799 298.193C78.4344 298.23 78.2524 298.193 78.0706 298.048C77.925 297.939 77.8159 297.793 77.8159 297.684C77.8159 297.539 77.8159 297.393 77.8887 297.175C77.925 297.03 77.8887 296.885 77.8159 296.775C77.7431 296.666 77.5612 296.521 77.343 296.376L75.3785 295.031C75.051 294.813 74.8328 294.74 74.6509 294.74C74.469 294.776 74.2871 294.958 74.0324 295.249C73.8141 295.576 73.705 295.83 73.7414 296.012C73.7778 296.194 73.9597 296.376 74.2507 296.594L76.1788 297.939C76.7609 298.339 77.0883 298.775 77.1611 299.284C77.2338 299.756 77.0883 300.302 76.6881 300.883C76.288 301.465 75.8514 301.792 75.3421 301.901C74.8691 302.01 74.3235 301.828 73.7414 301.428L71.886 300.12C70.9401 299.466 70.6855 298.702 71.0493 297.793C71.122 297.612 71.2676 297.503 71.4131 297.466C71.5586 297.43 71.7405 297.466 71.886 297.612C72.0315 297.721 72.1407 297.83 72.1407 297.975C72.1771 298.121 72.1407 298.266 72.0679 298.448C72.0679 298.593 72.0679 298.702 72.1407 298.775C72.2134 298.884 72.359 298.993 72.5409 299.102L74.3962 300.411C74.6873 300.629 74.9419 300.701 75.0874 300.701C75.2329 300.665 75.4148 300.52 75.6331 300.193C75.815 299.902 75.9242 299.684 75.8878 299.502C75.8514 299.32 75.7059 299.138 75.4148 298.957L73.4867 297.612C72.9046 297.212 72.5409 296.739 72.4681 296.23C72.359 295.721 72.5408 295.176 72.941 294.558C73.3412 293.94 73.8141 293.613 74.3235 293.504C74.8328 293.395 75.3785 293.577 75.9605 293.976L78.0342 295.358Z" fill="#E0E0E0"/>
<path d="M60.9721 291.758C60.2445 291.176 59.8808 290.595 59.8444 290.013C59.808 289.431 60.099 288.741 60.7175 287.977L63.2277 284.887C63.4823 284.56 63.7734 284.524 64.1008 284.778C64.4282 285.033 64.4646 285.324 64.2099 285.651L61.6997 288.741C61.3359 289.177 61.1904 289.54 61.1904 289.868C61.1904 290.195 61.4087 290.522 61.7725 290.813L62.2454 291.176C62.682 291.54 63.0458 291.685 63.4096 291.649C63.737 291.612 64.1008 291.358 64.4282 290.922L66.9384 287.832C67.193 287.505 67.4841 287.468 67.8115 287.723C68.1389 287.977 68.1753 288.268 67.9206 288.595L65.4104 291.685C65.0466 292.121 64.9011 292.485 64.9011 292.812C64.9011 293.139 65.1194 293.43 65.4832 293.757L65.9561 294.121C66.3927 294.448 66.7565 294.63 67.1203 294.593C67.4477 294.557 67.8115 294.302 68.1389 293.866L70.6491 290.776C70.9038 290.449 71.1948 290.449 71.5222 290.704C71.8496 290.958 71.886 291.249 71.6313 291.576L67.7751 296.375C67.5205 296.702 67.2294 296.738 66.902 296.484C66.5746 296.229 66.5382 295.938 66.8292 295.611L67.0475 295.357C66.6473 295.466 66.2836 295.466 65.9198 295.393C65.5923 295.32 65.2649 295.139 64.9375 294.884L64.792 294.775C64.3191 294.412 63.9916 294.048 63.8461 293.685C63.7006 293.357 63.6642 292.958 63.737 292.558C63.3004 292.703 62.9003 292.739 62.5728 292.667C62.2454 292.63 61.918 292.449 61.5542 292.158L60.9721 291.758Z" fill="#E0E0E0"/>
<path d="M60.7539 281.797C61.0449 282.088 61.0449 282.379 60.7903 282.67L54.8604 288.959C54.5694 289.249 54.2783 289.249 53.9873 288.995L51.2224 286.378C50.6768 285.869 50.3857 285.287 50.3493 284.705C50.313 284.124 50.5676 283.542 51.0769 282.997L51.3316 282.706C51.7681 282.234 52.2775 282.015 52.8231 282.015C52.5685 281.179 52.8231 280.343 53.5871 279.507L53.9145 279.144C54.533 278.489 55.1514 278.162 55.8426 278.162C56.4975 278.162 57.1523 278.453 57.8071 279.071L60.7539 281.797ZM56.2428 285.687L53.7326 283.324C53.478 283.07 53.2233 282.997 52.9687 283.07C52.714 283.142 52.4957 283.288 52.2411 283.542L51.9864 283.833C51.6954 284.124 51.5499 284.415 51.5862 284.669C51.6226 284.924 51.7681 285.178 52.0956 285.469L54.4238 287.65L56.2428 285.687ZM59.4806 282.27L57.0068 279.943C56.6066 279.58 56.2428 279.398 55.9154 279.398C55.588 279.398 55.2242 279.616 54.8604 280.016L54.533 280.38C54.1692 280.779 53.9873 281.143 53.9873 281.434C53.9873 281.761 54.2056 282.124 54.6057 282.488L57.0796 284.814L59.4806 282.27Z" fill="#E0E0E0"/>
<path d="M47.439 280.744C47.7664 281.071 47.7664 281.398 47.439 281.725L47.1115 282.016C46.7841 282.343 46.4567 282.307 46.1293 281.98L45.8383 281.725C45.5472 281.398 45.5472 281.107 45.8746 280.78L46.2021 280.489C46.5295 280.162 46.8569 280.162 47.1479 280.489L47.439 280.744ZM53.4416 274.673C53.7326 274.964 53.7326 275.255 53.4416 275.546L49.0033 279.835C48.7122 280.126 48.4212 280.126 48.1302 279.835C47.8391 279.544 47.8391 279.253 48.1302 278.963L52.5685 274.673C52.8959 274.382 53.1506 274.382 53.4416 274.673Z" fill="#E0E0E0"/>
<path d="M48.5667 269.365C49.2215 270.092 49.5126 270.747 49.4762 271.401C49.4398 272.056 49.076 272.673 48.3484 273.328L45.8382 275.582L46.3112 276.127C46.6022 276.418 46.5658 276.709 46.2748 276.999C45.9838 277.29 45.6927 277.254 45.4017 276.963L44.9288 276.418L44.1284 277.145C43.8374 277.436 43.5463 277.399 43.2553 277.108C42.9643 276.818 43.0006 276.527 43.2917 276.236L44.092 275.509L42.9643 274.273C42.7096 273.982 42.7096 273.691 43.0006 273.401C43.2917 273.11 43.5827 273.146 43.8738 273.437L45.0015 274.673L47.5117 272.419C47.9846 272.019 48.2029 271.656 48.2029 271.328C48.2029 271.038 48.021 270.638 47.6208 270.202C47.5117 270.056 47.4389 269.911 47.4389 269.765C47.4389 269.62 47.5117 269.475 47.6572 269.329C47.9846 269.075 48.2757 269.075 48.5667 269.365Z" fill="#E0E0E0"/>
<path d="M40.5632 263.878C41.0362 264.496 40.9634 265.041 40.345 265.513L39.7629 265.95C39.1808 266.422 38.6351 266.349 38.1622 265.731L37.7256 265.186C37.2891 264.605 37.3618 264.096 37.9439 263.623L38.526 263.187C39.1444 262.714 39.6537 262.751 40.1267 263.332L40.5632 263.878Z" fill="#E0E0E0"/>
<path d="M36.9616 254.716C37.0344 255.116 36.8889 255.37 36.4887 255.443L27.4666 257.224C27.1028 257.26 26.8481 257.188 26.7026 256.933V256.897C26.5571 256.642 26.5571 256.352 26.739 256.097L31.9413 248.5C32.1595 248.172 32.4506 248.1 32.778 248.354C33.1054 248.609 33.1782 248.863 32.9235 249.19L31.7594 250.899L34.2332 254.679L36.234 254.28C36.6706 254.134 36.8889 254.316 36.9616 254.716ZM32.9599 254.898L31.0318 251.917L28.3397 255.843L32.9599 254.898Z" fill="#E0E0E0"/>
<path d="M30.4861 244.283C30.7771 244.828 30.9226 245.301 30.8863 245.737C30.8499 246.173 30.6316 246.573 30.2314 246.9C30.0859 247.046 29.904 247.082 29.7585 247.046C29.613 247.01 29.4675 246.901 29.3583 246.719C29.2492 246.537 29.2492 246.392 29.2856 246.283C29.3219 246.137 29.4311 246.028 29.5766 245.883C29.6857 245.774 29.7221 245.628 29.6857 245.483C29.6494 245.337 29.5766 245.156 29.4311 244.901L28.2306 242.829C28.0487 242.502 27.8668 242.32 27.6849 242.247C27.503 242.175 27.2483 242.247 26.9209 242.466C26.5935 242.647 26.3752 242.829 26.3388 243.011C26.3024 243.193 26.3752 243.447 26.5571 243.774L27.7212 245.81C28.085 246.428 28.1578 246.973 28.0487 247.446C27.9031 247.918 27.5393 248.355 26.9209 248.682C26.3024 249.045 25.7567 249.154 25.2838 249.009C24.8109 248.863 24.3743 248.5 24.0469 247.882L22.9191 245.919C22.3371 244.938 22.4462 244.101 23.1738 243.447C23.3193 243.302 23.5012 243.265 23.6467 243.302C23.7923 243.338 23.9378 243.447 24.0469 243.629C24.156 243.811 24.156 243.956 24.1197 244.065C24.0833 244.21 24.0105 244.32 23.865 244.465C23.7923 244.574 23.7559 244.683 23.7923 244.792C23.8286 244.901 23.9014 245.083 24.0105 245.265L25.1383 247.228C25.3202 247.555 25.5021 247.737 25.6476 247.773C25.7931 247.809 26.0478 247.737 26.3752 247.555C26.6662 247.373 26.8481 247.228 26.8845 247.046C26.9209 246.864 26.8845 246.646 26.7026 246.355L25.5385 244.32C25.1747 243.702 25.0655 243.12 25.2111 242.611C25.3566 242.102 25.7204 241.702 26.3752 241.339C27.03 240.975 27.5757 240.866 28.085 241.012C28.5944 241.157 28.9945 241.52 29.3583 242.175L30.4861 244.283Z" fill="#E0E0E0"/>
<path d="M16.6618 233.596C16.2617 232.76 16.1889 232.07 16.4072 231.524C16.6255 230.979 17.1712 230.506 18.0806 230.07L21.6822 228.362C22.046 228.18 22.3371 228.289 22.4826 228.653C22.6645 229.016 22.5553 229.307 22.1915 229.452L18.59 231.161C18.0806 231.415 17.7896 231.67 17.6441 231.961C17.4986 232.251 17.5349 232.615 17.7532 233.051L18.0079 233.596C18.2625 234.105 18.5172 234.396 18.8446 234.505C19.172 234.614 19.5722 234.542 20.0815 234.323L23.6831 232.615C24.0469 232.433 24.3379 232.542 24.4834 232.906C24.6653 233.269 24.5562 233.56 24.1924 233.705L20.5908 235.414C20.0815 235.668 19.7905 235.923 19.645 236.214C19.4994 236.505 19.5358 236.868 19.7541 237.304L20.0088 237.85C20.227 238.358 20.5181 238.649 20.8455 238.758C21.1729 238.867 21.5731 238.795 22.0824 238.577L25.684 236.868C26.0478 236.686 26.3388 236.795 26.4843 237.159C26.6662 237.522 26.5571 237.813 26.1933 237.959L20.6272 240.576C20.2634 240.758 19.9724 240.649 19.8269 240.285C19.645 239.922 19.7541 239.631 20.1179 239.485L20.4089 239.34C20.0088 239.267 19.645 239.085 19.3903 238.867C19.1356 238.649 18.9174 238.358 18.6991 237.959L18.6263 237.777C18.3717 237.232 18.2262 236.759 18.2625 236.395C18.2989 236.032 18.4081 235.668 18.6627 235.341C18.1898 235.269 17.826 235.159 17.5713 234.941C17.3167 234.723 17.0984 234.505 16.9165 234.105L16.6618 233.596Z" fill="#E0E0E0"/>
<path d="M20.8091 224.508C20.9546 224.871 20.8455 225.162 20.4453 225.308L12.369 228.398C12.0052 228.543 11.7142 228.434 11.5687 228.034L10.2226 224.508C9.93161 223.781 9.93161 223.163 10.1499 222.618C10.3682 222.072 10.8411 221.673 11.5687 221.418L11.9325 221.273C12.5509 221.055 13.0966 221.055 13.5696 221.309C13.6787 220.437 14.2972 219.782 15.3522 219.382L15.8251 219.201C16.6618 218.873 17.3894 218.873 17.9715 219.128C18.5899 219.419 19.0265 219.964 19.3539 220.8L20.8091 224.508ZM15.0247 226.071L13.7878 222.836C13.6787 222.509 13.4604 222.327 13.2058 222.291C12.9511 222.254 12.6601 222.291 12.369 222.4L12.0052 222.545C11.6051 222.69 11.3504 222.872 11.2777 223.09C11.1685 223.308 11.2049 223.636 11.3868 224.035L12.5146 227.016L15.0247 226.071ZM19.4267 224.363L18.2262 221.2C18.0443 220.691 17.7896 220.364 17.4622 220.218C17.1348 220.073 16.771 220.109 16.2617 220.291L15.7887 220.473C15.2794 220.655 14.952 220.909 14.8428 221.2C14.6973 221.491 14.7337 221.891 14.952 222.436L16.1525 225.599L19.4267 224.363Z" fill="#E0E0E0"/>
<path d="M9.2404 217.819C9.38592 218.256 9.2404 218.546 8.80385 218.692L8.40367 218.837C7.96712 218.983 7.67608 218.837 7.53056 218.401L7.38504 218.001C7.23953 217.565 7.38504 217.31 7.8216 217.165L8.22177 217.02C8.65833 216.874 8.94937 217.02 9.09488 217.419L9.2404 217.819ZM17.3167 214.948C17.4622 215.347 17.3167 215.602 16.9165 215.711L11.0594 217.638C10.6592 217.747 10.4045 217.638 10.2954 217.238C10.1863 216.838 10.2954 216.583 10.6956 216.474L16.5527 214.548C16.9529 214.439 17.2075 214.548 17.3167 214.948Z" fill="#E0E0E0"/>
<path d="M15.243 208.15C15.4977 209.059 15.4977 209.822 15.1703 210.368C14.8429 210.913 14.2608 211.349 13.3513 211.604L10.1135 212.549L10.2954 213.24C10.4045 213.639 10.259 213.894 9.89523 214.003C9.53144 214.112 9.2404 213.967 9.13126 213.567L8.94936 212.876L7.93074 213.167C7.53056 213.312 7.2759 213.167 7.16676 212.767C7.05763 212.367 7.20314 212.113 7.56694 212.004L8.58557 211.713L8.14901 210.113C8.03987 209.713 8.18539 209.459 8.54919 209.35C8.94936 209.241 9.20402 209.386 9.31316 209.786L9.78609 211.386L13.0239 210.44C13.6059 210.259 13.9697 210.041 14.1153 209.786C14.2608 209.495 14.2608 209.095 14.0789 208.514C14.0425 208.332 14.0425 208.187 14.0789 208.041C14.1516 207.896 14.2608 207.823 14.4791 207.75C14.8792 207.605 15.1339 207.75 15.243 208.15Z" fill="#E0E0E0"/>
<path d="M10.4409 199.608C10.5865 200.371 10.2954 200.807 9.53144 200.989L8.80385 201.135C8.07626 201.28 7.60333 200.989 7.45781 200.226L7.31229 199.571C7.16677 198.844 7.45781 198.408 8.1854 198.263L8.91299 198.117C9.67696 197.972 10.1135 198.226 10.2954 198.953L10.4409 199.608Z" fill="#E0E0E0"/>
<path d="M11.2049 189.865C11.0958 190.265 10.8411 190.411 10.4409 190.301L1.56431 187.939C1.23689 187.83 1.055 187.648 1.01862 187.321V187.284C0.982237 186.957 1.12776 186.739 1.41879 186.594L9.4223 182.013C9.78609 181.795 10.0771 181.868 10.259 182.231C10.4409 182.595 10.3682 182.886 10.0408 183.068L8.25815 184.085L8.84022 188.593L10.8411 189.102C11.1685 189.211 11.314 189.465 11.2049 189.865ZM7.53056 188.302L7.09401 184.776L2.94673 187.139L7.53056 188.302Z" fill="#E0E0E0"/>
<path d="M9.93164 177.65C9.96802 178.268 9.85889 178.741 9.64061 179.141C9.42233 179.504 9.05853 179.759 8.54922 179.904C8.33094 179.94 8.18543 179.904 8.07629 179.831C7.96715 179.722 7.89439 179.577 7.85801 179.359C7.85801 179.177 7.89439 179.031 7.96715 178.922C8.07629 178.813 8.2218 178.741 8.4037 178.668C8.54922 178.595 8.62198 178.486 8.65836 178.341C8.69474 178.195 8.73112 178.014 8.73112 177.759L8.5856 175.396C8.54922 175.033 8.47646 174.778 8.36732 174.633C8.18542 174.488 7.93077 174.451 7.53059 174.488C7.1668 174.488 6.91214 174.56 6.803 174.706C6.69386 174.851 6.65748 175.105 6.65748 175.469L6.803 177.796C6.83938 178.486 6.69386 179.031 6.36645 179.395C6.03903 179.758 5.52972 179.977 4.8385 180.013C4.11091 180.049 3.6016 179.904 3.20142 179.613C2.83763 179.286 2.61935 178.777 2.58297 178.05L2.43745 175.796C2.36469 174.669 2.80125 173.942 3.74712 173.688C3.96539 173.651 4.11091 173.651 4.22005 173.76C4.32919 173.87 4.40195 174.015 4.40195 174.233C4.40195 174.415 4.36557 174.56 4.29281 174.669C4.18367 174.778 4.07453 174.851 3.89264 174.924C3.7835 174.996 3.71074 175.069 3.67436 175.215C3.63798 175.36 3.63798 175.542 3.63798 175.76L3.7835 178.014C3.81988 178.377 3.89264 178.632 4.00177 178.704C4.11091 178.813 4.36557 178.85 4.72937 178.813C5.09316 178.777 5.31144 178.704 5.42058 178.595C5.52972 178.45 5.5661 178.232 5.5661 177.868L5.42058 175.578C5.3842 174.851 5.52972 174.306 5.85713 173.906C6.18455 173.506 6.73024 173.288 7.45783 173.252C8.18542 173.215 8.73112 173.361 9.13129 173.688C9.53147 174.015 9.74975 174.56 9.78613 175.287L9.93164 177.65Z" fill="#E0E0E0"/>
<path d="M2.18278 161.982C2.18278 161.073 2.43743 160.419 2.87399 160.019C3.31054 159.619 4.03813 159.438 5.02038 159.438L8.98576 159.51C9.38593 159.51 9.60421 159.728 9.60421 160.128C9.60421 160.528 9.38593 160.746 8.98576 160.746L5.02038 160.673C4.47469 160.673 4.07451 160.783 3.81986 160.964C3.5652 161.146 3.45606 161.51 3.41968 161.982V162.564C3.41968 163.109 3.52882 163.509 3.78348 163.763C4.03813 164.018 4.43831 164.127 4.984 164.127L8.94938 164.2C9.34955 164.2 9.56783 164.418 9.56783 164.818C9.56783 165.217 9.34955 165.436 8.94938 165.436L4.94762 165.399C4.40193 165.399 4.00175 165.508 3.7471 165.69C3.49244 165.872 3.3833 166.235 3.34692 166.708V167.289C3.34692 167.835 3.45606 168.235 3.71072 168.489C3.96537 168.744 4.36555 168.853 4.91124 168.853L8.87662 168.925C9.27679 168.925 9.49507 169.143 9.49507 169.543C9.49507 169.943 9.27679 170.161 8.87662 170.161L2.72847 170.052C2.32829 170.052 2.11002 169.834 2.11002 169.434C2.11002 169.034 2.32829 168.816 2.72847 168.816H3.05588C2.72847 168.562 2.47381 168.271 2.32829 167.944C2.18278 167.653 2.11002 167.253 2.11002 166.853V166.671C2.11002 166.054 2.21915 165.617 2.40105 165.254C2.58295 164.89 2.83761 164.672 3.23778 164.49C2.87399 164.236 2.58295 163.945 2.43743 163.654C2.29191 163.363 2.21915 163 2.21915 162.564L2.18278 161.982Z" fill="#E0E0E0"/>
<path d="M9.82249 155.657C9.78611 156.057 9.56783 156.239 9.16765 156.202L0.545694 155.475C0.145519 155.475 -0.0363792 155.257 3.2736e-07 154.857L0.327417 151.077C0.400176 150.313 0.654833 149.732 1.09139 149.368C1.52794 149.005 2.1464 148.823 2.87399 148.896L3.27416 148.932C3.92899 148.968 4.40193 149.223 4.72935 149.659C5.23866 148.932 6.03901 148.605 7.16678 148.714L7.67609 148.75C8.5492 148.823 9.24041 149.114 9.64059 149.623C10.0771 150.132 10.259 150.822 10.1499 151.731L9.82249 155.657ZM3.96537 154.567L4.25641 151.113C4.29279 150.75 4.18365 150.495 4.00175 150.35C3.78348 150.204 3.52882 150.132 3.2014 150.095L2.80123 150.059C2.36467 150.023 2.07364 150.095 1.89174 150.241C1.70984 150.386 1.6007 150.713 1.56432 151.149L1.30967 154.312L3.96537 154.567ZM8.65834 154.966L8.94938 151.622C8.98576 151.077 8.913 150.677 8.69472 150.422C8.47644 150.168 8.11265 150.023 7.56695 149.986L7.05764 149.95C6.51194 149.913 6.11177 149.986 5.89349 150.204C5.63883 150.422 5.49332 150.786 5.45694 151.368L5.1659 154.712L8.65834 154.966Z" fill="#E0E0E0"/>
<path d="M2.32831 144.606C2.25555 145.079 2.00089 145.261 1.56434 145.224L1.12778 145.152C0.691228 145.079 0.47295 144.825 0.545709 144.388L0.618468 143.988C0.691228 143.552 0.909505 143.371 1.38244 143.407L1.81899 143.48C2.29193 143.552 2.47383 143.77 2.43745 144.243L2.32831 144.606ZM10.8411 145.552C10.8047 145.951 10.5501 146.133 10.1499 146.061L4.03815 145.261C3.63797 145.224 3.45607 144.97 3.49245 144.57C3.52883 144.17 3.78349 143.988 4.18367 144.061L10.2954 144.861C10.732 144.897 10.9139 145.115 10.8411 145.552Z" fill="#E0E0E0"/>
<path d="M11.9689 138.391C11.787 139.337 11.4595 139.991 10.9138 140.391C10.4045 140.754 9.64056 140.863 8.73107 140.718L5.42053 140.173L5.31139 140.863C5.23863 141.263 5.02035 141.445 4.62018 141.372C4.22 141.3 4.03811 141.081 4.11087 140.682L4.22 139.991L3.165 139.809C2.76482 139.736 2.58292 139.518 2.65568 139.118C2.72844 138.719 2.94672 138.537 3.34689 138.61L4.4019 138.791L4.69294 137.155C4.7657 136.756 4.98398 136.574 5.38415 136.647C5.78433 136.719 5.96622 136.937 5.89346 137.337L5.60243 138.973L8.91297 139.518C9.53142 139.627 9.9316 139.591 10.1863 139.409C10.4409 139.228 10.6228 138.828 10.6956 138.21C10.7319 138.028 10.8047 137.883 10.9138 137.81C11.023 137.737 11.2049 137.701 11.3868 137.737C11.8597 137.773 12.0052 137.992 11.9689 138.391Z" fill="#E0E0E0"/>
<path d="M11.3141 128.685C11.1322 129.448 10.6592 129.739 9.89525 129.557L9.20404 129.376C8.47645 129.194 8.18541 128.721 8.36731 127.994L8.5492 127.303C8.7311 126.576 9.16766 126.322 9.93163 126.504L10.6228 126.685C11.3868 126.867 11.6778 127.303 11.496 128.031L11.3141 128.685Z" fill="#E0E0E0"/>
<path d="M16.2617 120.178C16.007 120.505 15.716 120.542 15.3886 120.251L8.40368 114.289C8.14903 114.035 8.07627 113.78 8.14903 113.489V113.453C8.25816 113.162 8.47644 113.017 8.80386 112.981L18.0079 112.326C18.4081 112.29 18.6263 112.508 18.6627 112.908C18.6991 113.308 18.4808 113.526 18.0806 113.562L16.007 113.708L14.5882 117.997L16.1525 119.306C16.5163 119.597 16.5163 119.887 16.2617 120.178ZM13.606 117.197L14.7337 113.817L9.968 114.144L13.606 117.197Z" fill="#E0E0E0"/>
<path d="M20.409 108.655C20.1907 109.237 19.8633 109.637 19.4995 109.855C19.1357 110.073 18.6991 110.146 18.1898 110.073C17.9715 110.037 17.8624 109.928 17.7896 109.782C17.7169 109.637 17.7169 109.455 17.7896 109.273C17.8624 109.092 17.9715 108.983 18.0807 108.946C18.1898 108.91 18.3717 108.874 18.59 108.91C18.7355 108.91 18.881 108.874 18.9538 108.765C19.0629 108.655 19.1357 108.474 19.2448 108.219L20.1543 106.002C20.2998 105.638 20.3362 105.384 20.2634 105.238C20.1907 105.057 19.9724 104.911 19.6086 104.766C19.2448 104.62 18.9902 104.584 18.8083 104.657C18.6264 104.729 18.4808 104.948 18.3353 105.311L17.4622 107.492C17.2076 108.147 16.8438 108.546 16.3708 108.765C15.8979 108.946 15.3522 108.91 14.6974 108.655C14.0425 108.401 13.606 108.037 13.4241 107.565C13.2422 107.129 13.2786 106.547 13.5332 105.893L14.3699 103.784C14.8065 102.73 15.4977 102.294 16.48 102.439C16.6982 102.476 16.8074 102.585 16.8801 102.73C16.9529 102.876 16.9165 103.057 16.8438 103.239C16.771 103.421 16.6619 103.53 16.5527 103.566C16.4072 103.603 16.2617 103.639 16.0798 103.603C15.9343 103.603 15.8615 103.675 15.7524 103.748C15.6796 103.857 15.6069 104.002 15.4977 104.221L14.661 106.329C14.5882 106.62 14.5518 106.874 14.5882 107.02C14.661 107.165 14.8429 107.31 15.2067 107.456C15.5341 107.601 15.7524 107.638 15.9343 107.565C16.0798 107.492 16.2253 107.31 16.3708 106.983L17.2439 104.802C17.535 104.111 17.8988 103.675 18.3717 103.493C18.8446 103.312 19.4267 103.348 20.0815 103.603C20.7728 103.893 21.2093 104.257 21.3912 104.729C21.5731 105.202 21.5367 105.784 21.2821 106.438L20.409 108.655Z" fill="#E0E0E0"/>
<path d="M20.1907 91.2427C20.5908 90.4066 21.0638 89.9341 21.6458 89.7523C22.2279 89.5706 22.9555 89.716 23.8286 90.1522L27.3938 91.8971C27.7576 92.0788 27.8667 92.3333 27.6848 92.6968C27.5029 93.0603 27.2483 93.1694 26.8481 92.9876L23.3193 91.2427C22.81 90.9883 22.4098 90.9156 22.1188 90.9883C21.7914 91.061 21.5367 91.3154 21.3184 91.7517L21.0638 92.2969C20.8091 92.8059 20.7727 93.2057 20.8819 93.5329C20.991 93.8601 21.3184 94.1509 21.7914 94.369L25.3566 96.1139C25.7203 96.2956 25.8295 96.5864 25.6476 96.9136C25.4657 97.2771 25.211 97.3862 24.8109 97.2044L21.2457 95.4595C20.7363 95.2414 20.3362 95.1324 20.0088 95.2414C19.6813 95.3141 19.4267 95.5686 19.2084 96.0048L18.9537 96.5501C18.6991 97.059 18.6627 97.4589 18.7718 97.786C18.881 98.1132 19.2084 98.404 19.6813 98.6221L23.2465 100.367C23.6103 100.549 23.7195 100.84 23.5376 101.203C23.3557 101.567 23.101 101.676 22.7008 101.494L17.1711 98.7675C16.8074 98.5858 16.6982 98.295 16.8801 97.9314C17.062 97.5679 17.3167 97.4589 17.7168 97.6406L18.0079 97.786C17.826 97.4225 17.7168 97.059 17.7168 96.6955C17.7168 96.3683 17.826 96.0048 18.0079 95.6049L18.0806 95.4232C18.3353 94.8779 18.6263 94.5144 18.9174 94.2599C19.2084 94.0055 19.5722 93.8964 20.0088 93.9328C19.7905 93.5329 19.645 93.1694 19.645 92.8422C19.6086 92.515 19.7177 92.1515 19.8996 91.7517L20.1907 91.2427Z" fill="#E0E0E0"/>
<path d="M29.904 88.8071C29.6857 89.1706 29.4311 89.2433 29.0673 89.0252L21.6458 84.6267C21.282 84.4085 21.2093 84.1541 21.4276 83.7906L23.3557 80.5189C23.7559 79.8646 24.2288 79.4647 24.7745 79.3193C25.3202 79.1739 25.9386 79.283 26.5935 79.6828L26.9209 79.8646C27.4666 80.1917 27.8304 80.628 27.9031 81.1732C28.6671 80.737 29.5402 80.8097 30.5225 81.3914L30.959 81.6458C31.723 82.1184 32.1959 82.6637 32.3414 83.2816C32.4869 83.936 32.3414 84.6267 31.9049 85.39L29.904 88.8071ZM25.1019 85.2446L26.8481 82.2638C27.03 81.973 27.0664 81.6822 26.9209 81.4641C26.8117 81.2459 26.5935 81.0278 26.3024 80.8824L25.975 80.7007C25.6112 80.4826 25.3202 80.4099 25.0655 80.4826C24.8109 80.5553 24.5926 80.7734 24.3743 81.1369L22.7372 83.8633L25.1019 85.2446ZM29.1764 87.6438L30.8862 84.7357C31.1773 84.2631 31.25 83.8633 31.1773 83.5361C31.1045 83.2089 30.8135 82.9181 30.3769 82.6273L29.9404 82.3728C29.4674 82.1547 29.1036 82.0457 28.7762 82.1184C28.4488 82.1911 28.1578 82.4819 27.8667 82.9545L26.1569 85.8626L29.1764 87.6438Z" fill="#E0E0E0"/>
<path d="M27.9759 75.5751C27.7213 75.975 27.3938 76.0477 26.9937 75.7569L26.6299 75.5024C26.2661 75.2479 26.1933 74.9208 26.448 74.5572L26.6662 74.1937C26.9209 73.8302 27.2119 73.7575 27.6121 74.012L27.9759 74.2664C28.3761 74.5209 28.4488 74.8481 28.1942 75.2116L27.9759 75.5751ZM35.2518 80.1191C35.0336 80.4462 34.7425 80.5189 34.4151 80.3008L29.2856 76.9201C28.9218 76.702 28.8854 76.4112 29.1037 76.084C29.322 75.7569 29.613 75.6841 29.9404 75.9023L35.0699 79.283C35.4337 79.5011 35.4701 79.7919 35.2518 80.1191Z" fill="#E0E0E0"/>
<path d="M39.2899 74.2669C38.7442 75.0303 38.1258 75.5029 37.5073 75.6119C36.8889 75.721 36.1613 75.5029 35.3973 74.9576L32.6689 72.9946L32.2687 73.5763C32.0504 73.9034 31.7594 73.9398 31.4319 73.7217C31.1045 73.4672 31.0682 73.2127 31.2864 72.8856L31.6866 72.3039L30.8135 71.686C30.4861 71.4679 30.4497 71.177 30.668 70.8499C30.8863 70.5227 31.1773 70.4864 31.5047 70.7045L32.3778 71.3225L33.3601 69.9411C33.5783 69.6139 33.8694 69.5776 34.1968 69.7957C34.5242 70.0501 34.5606 70.3046 34.3423 70.6318L33.3601 72.0131L36.0885 73.9761C36.5978 74.3396 36.998 74.485 37.2891 74.4123C37.5801 74.3396 37.9075 74.0852 38.2713 73.5763C38.3804 73.4308 38.4896 73.3218 38.6351 73.2854C38.7806 73.2491 38.9261 73.2854 39.108 73.4309C39.4718 73.649 39.5446 73.9398 39.2899 74.2669Z" fill="#E0E0E0"/>
<path d="M43.0007 65.1784C42.4913 65.7964 41.9457 65.8328 41.3636 65.3238L40.8179 64.8513C40.2358 64.3787 40.1994 63.8334 40.6724 63.2155L41.1089 62.6702C41.5819 62.0886 42.0912 62.0522 42.6732 62.5248L43.2189 62.9973C43.801 63.5063 43.8738 64.0152 43.4008 64.5968L43.0007 65.1784Z" fill="#E0E0E0"/>
<path d="M51.1497 59.6904C50.7859 59.8721 50.4949 59.7631 50.3494 59.3996L46.6386 50.966C46.4931 50.6388 46.5659 50.348 46.7842 50.1299H46.8205C47.0388 49.9118 47.3298 49.8754 47.6209 50.0208L56.1701 53.4379C56.5703 53.5833 56.6794 53.8741 56.4975 54.2376C56.352 54.6011 56.0609 54.7102 55.6972 54.5648L53.769 53.8014L50.604 57.0367L51.4407 58.8906C51.6226 59.2905 51.5499 59.545 51.1497 59.6904ZM50.0947 55.8371L52.5685 53.2925L48.1302 51.5113L50.0947 55.8371Z" fill="#E0E0E0"/>
<path d="M59.8808 51.1467C59.4078 51.5466 58.9713 51.8011 58.5347 51.8374C58.0982 51.8738 57.6616 51.7647 57.2615 51.4375C57.1159 51.2921 57.0068 51.1467 57.0432 51.0013C57.0432 50.8559 57.1159 50.6742 57.2615 50.5651C57.407 50.4197 57.5525 50.3833 57.698 50.3833C57.8435 50.3833 57.989 50.4561 58.1709 50.5651C58.3165 50.6378 58.462 50.6378 58.5711 50.5651C58.6803 50.4924 58.8622 50.3834 59.0804 50.2016L60.863 48.6021C61.1541 48.3477 61.2996 48.1295 61.2996 47.9478C61.2996 47.766 61.1905 47.5479 60.9358 47.2571C60.6811 46.9663 60.4629 46.8209 60.281 46.8209C60.0991 46.8209 59.8808 46.9299 59.5897 47.1844L57.8435 48.7475C57.3342 49.2201 56.8249 49.4382 56.3156 49.4019C55.8063 49.3655 55.3333 49.111 54.8604 48.6021C54.3875 48.0568 54.1692 47.5479 54.1692 47.0753C54.2056 46.6028 54.4602 46.0939 55.0059 45.6213L56.6794 44.0945C57.5161 43.3311 58.3528 43.2221 59.1532 43.8037C59.3351 43.9128 59.4078 44.0582 59.3715 44.2399C59.3715 44.3853 59.2623 44.5307 59.1168 44.6761C58.9713 44.8215 58.8258 44.8579 58.7166 44.8579C58.6075 44.8579 58.4256 44.7852 58.2801 44.7125C58.1709 44.6761 58.0254 44.6761 57.9163 44.7125C57.8071 44.7488 57.6616 44.8579 57.4797 45.0033L55.8063 46.5301C55.5516 46.7845 55.4061 46.9663 55.3697 47.1481C55.3697 47.2935 55.4789 47.5116 55.7335 47.8024C55.9518 48.0568 56.1701 48.2022 56.352 48.2022C56.5339 48.2022 56.7521 48.0932 57.0068 47.8751L58.753 46.312C59.2987 45.8394 59.808 45.5849 60.3173 45.6213C60.8267 45.6576 61.336 45.9121 61.8089 46.4574C62.3182 47.0026 62.5365 47.5116 62.5001 48.0205C62.4637 48.5294 62.2091 49.0383 61.6634 49.5109L59.8808 51.1467Z" fill="#E0E0E0"/>
<path d="M67.3386 35.333C68.0662 34.7514 68.721 34.5333 69.3031 34.6423C69.8851 34.7514 70.4672 35.1876 71.0857 35.951L73.5231 39.0772C73.7778 39.4044 73.7414 39.6952 73.414 39.9497C73.0866 40.2041 72.7955 40.1678 72.5409 39.8406L70.1034 36.7144C69.776 36.2418 69.4486 35.9873 69.1212 35.951C68.7938 35.8783 68.4663 35.9873 68.0662 36.2782L67.5932 36.6417C67.1567 36.9688 66.9384 37.3324 66.902 37.6595C66.8656 37.9867 67.0112 38.3866 67.375 38.8228L69.8124 41.949C70.067 42.2762 70.0307 42.567 69.7032 42.8215C69.3758 43.0759 69.0848 43.0396 68.8301 42.7124L66.3927 39.5862C66.0653 39.1499 65.7379 38.8955 65.4105 38.8228C65.083 38.7501 64.7556 38.8591 64.3555 39.1863L63.8825 39.5498C63.446 39.877 63.2277 40.2405 63.1913 40.5677C63.1549 40.8948 63.3004 41.2947 63.6642 41.7309L66.1017 44.8572C66.3563 45.1843 66.3199 45.4751 65.9925 45.7296C65.6651 45.9841 65.3741 45.9477 65.1194 45.6206L61.3359 40.7858C61.0813 40.4586 61.1177 40.1678 61.4451 39.9133C61.7725 39.6589 62.0635 39.6952 62.3182 40.0224L62.5365 40.2768C62.5365 39.8406 62.6092 39.4771 62.7547 39.1863C62.9003 38.8955 63.1549 38.6047 63.4823 38.3502L63.6279 38.2412C64.1008 37.8776 64.5373 37.6595 64.9011 37.5505C65.2649 37.4778 65.6651 37.5141 66.0289 37.6959C65.9925 37.2233 66.0289 36.8598 66.1744 36.5326C66.3199 36.2418 66.5382 35.951 66.902 35.6602L67.3386 35.333Z" fill="#E0E0E0"/>
<path d="M77.0519 37.4054C76.7245 37.6235 76.4335 37.5871 76.2152 37.2236L71.4131 30.026C71.1948 29.6988 71.2312 29.408 71.595 29.1899L74.76 27.0815C75.4148 26.6453 75.9969 26.4999 76.579 26.6089C77.161 26.718 77.634 27.0815 78.0705 27.6995L78.2888 28.0266C78.6526 28.5719 78.7617 29.1172 78.6162 29.6261C79.4893 29.5534 80.2533 29.9896 80.9081 30.9711L81.1992 31.371C81.7085 32.098 81.8904 32.8251 81.7449 33.443C81.5993 34.0974 81.1628 34.6426 80.4352 35.1516L77.0519 37.4054ZM74.2871 32.098L77.161 30.1714C77.4521 29.9896 77.5976 29.7352 77.5976 29.4807C77.5976 29.2262 77.4885 28.9718 77.3066 28.681L77.0883 28.3538C76.87 27.9903 76.6154 27.8085 76.3971 27.7722C76.1788 27.7358 75.8514 27.8449 75.4876 28.063L72.8319 29.8442L74.2871 32.098ZM76.9064 36.024L79.7076 34.1701C80.1805 33.8793 80.4352 33.5521 80.4716 33.2249C80.508 32.8978 80.4352 32.4979 80.1078 32.0617L79.8168 31.6618C79.5257 31.2256 79.1983 30.9711 78.9073 30.8984C78.5799 30.8257 78.1797 30.9711 77.7431 31.2619L74.9419 33.1159L76.9064 36.024Z" fill="#E0E0E0"/>
<path d="M81.0537 24.6462C80.6535 24.9007 80.3261 24.7916 80.1078 24.3917L79.8895 24.0282C79.6713 23.6284 79.744 23.3375 80.1442 23.0831L80.508 22.865C80.8718 22.6469 81.1992 22.7196 81.4175 23.1194L81.6358 23.483C81.8904 23.8828 81.8177 24.21 81.4175 24.4281L81.0537 24.6462ZM85.6375 31.8802C85.2737 32.0983 85.019 32.0256 84.8008 31.6621L81.6358 26.3911C81.4175 26.0276 81.4902 25.7731 81.854 25.555C82.2178 25.3369 82.4725 25.4096 82.6908 25.7731L85.8558 31.0441C86.0741 31.4076 86.0013 31.6984 85.6375 31.8802Z" fill="#E0E0E0"/>
<path d="M91.8948 28.317C91.0581 28.7896 90.3305 28.935 89.712 28.7533C89.0936 28.5715 88.5479 28.0626 88.1113 27.2265L86.4742 24.282L85.8558 24.6092C85.492 24.7909 85.2373 24.7182 85.0191 24.3547C84.8008 23.9912 84.9099 23.7367 85.2737 23.5186L85.8922 23.1915L85.3829 22.2463C85.201 21.8828 85.2737 21.6283 85.6375 21.4102C86.0013 21.2285 86.256 21.3012 86.4742 21.6647L86.9836 22.6098L88.4387 21.8101C88.8025 21.6283 89.0572 21.701 89.2755 22.0646C89.4574 22.4281 89.3846 22.6825 89.0208 22.9006L87.5656 23.7004L89.2027 26.6449C89.4938 27.1901 89.7848 27.481 90.1122 27.59C90.4032 27.6627 90.8398 27.5537 91.3491 27.2628C91.531 27.1538 91.6765 27.1538 91.822 27.1901C91.9676 27.2265 92.0767 27.3356 92.1858 27.5173C92.3314 27.8445 92.2586 28.1353 91.8948 28.317Z" fill="#E0E0E0"/>
<path d="M99.098 21.7746C98.4067 22.1018 97.8974 21.92 97.57 21.193L97.279 20.5387C96.9516 19.848 97.1698 19.3391 97.861 19.0119L98.4795 18.7211C99.1343 18.4303 99.6436 18.612 99.9711 19.3027L100.262 19.957C100.59 20.6477 100.408 21.1566 99.7528 21.4838L99.098 21.7746Z" fill="#E0E0E0"/>
<path d="M108.92 20.357C108.52 20.357 108.302 20.1389 108.302 19.739L108.629 10.5421C108.666 10.1785 108.811 9.96043 109.102 9.85138H109.139C109.43 9.74232 109.684 9.85138 109.903 10.0695L116.124 16.8673C116.415 17.1944 116.415 17.4852 116.124 17.7397C115.833 17.9942 115.542 17.9942 115.251 17.7033L113.868 16.1766L109.612 17.7397L109.575 19.7754C109.539 20.1753 109.321 20.357 108.92 20.357ZM109.612 16.3947L112.959 15.1951L109.757 11.669L109.612 16.3947Z" fill="#E0E0E0"/>
<path d="M120.489 16.4664C119.907 16.6482 119.398 16.6482 118.961 16.5028C118.561 16.3574 118.197 16.0666 117.979 15.594C117.906 15.4122 117.87 15.2305 117.943 15.0851C118.015 14.9397 118.161 14.8306 118.343 14.7943C118.525 14.7215 118.67 14.7579 118.816 14.8306C118.925 14.9033 119.034 15.0124 119.143 15.1941C119.252 15.3032 119.361 15.3759 119.507 15.3759C119.652 15.3759 119.871 15.3395 120.125 15.2668L122.417 14.5761C122.781 14.4671 122.999 14.3217 123.108 14.1763C123.181 14.0309 123.181 13.7401 123.072 13.3765C122.963 13.013 122.817 12.7586 122.672 12.6859C122.526 12.6131 122.235 12.6131 121.872 12.7222L119.616 13.3765C118.961 13.5583 118.379 13.5583 117.943 13.3038C117.506 13.0494 117.179 12.6131 116.997 11.9225C116.778 11.2318 116.815 10.6865 117.033 10.2503C117.251 9.81407 117.724 9.4869 118.416 9.30515L120.598 8.65082C121.69 8.32365 122.49 8.61446 122.963 9.45055C123.072 9.63231 123.072 9.81407 122.999 9.92312C122.927 10.0685 122.781 10.1776 122.599 10.2139C122.417 10.2503 122.272 10.2503 122.163 10.1776C122.053 10.1049 121.944 9.99583 121.835 9.85042C121.762 9.74137 121.653 9.70501 121.508 9.70501C121.399 9.70501 121.217 9.74137 120.998 9.81407L118.816 10.4684C118.452 10.5775 118.234 10.6865 118.161 10.8319C118.088 10.9773 118.088 11.2318 118.197 11.5953C118.306 11.9225 118.416 12.1406 118.561 12.2133C118.707 12.286 118.961 12.286 119.289 12.1769L121.544 11.5226C122.235 11.3045 122.817 11.3408 123.254 11.5953C123.691 11.8498 124.018 12.3223 124.236 13.013C124.455 13.7037 124.418 14.2853 124.163 14.7579C123.909 15.1941 123.436 15.5213 122.745 15.7394L120.489 16.4664Z" fill="#E0E0E0"/>
<path d="M134.095 5.45284C135.005 5.27108 135.696 5.34378 136.169 5.67095C136.642 5.99811 137.005 6.65244 137.224 7.63394L138.06 11.5236C138.133 11.9234 137.988 12.1779 137.588 12.2506C137.187 12.3233 136.933 12.1779 136.86 11.778L136.023 7.8884C135.914 7.34313 135.732 6.97961 135.478 6.79785C135.223 6.61609 134.859 6.54339 134.386 6.65245L133.804 6.79785C133.258 6.90691 132.895 7.12502 132.713 7.41583C132.531 7.70664 132.494 8.10651 132.604 8.65179L133.44 12.5414C133.513 12.9413 133.368 13.1958 132.967 13.2685C132.567 13.3412 132.313 13.1958 132.24 12.7959L131.403 8.90625C131.294 8.36098 131.112 7.99746 130.857 7.8157C130.603 7.63394 130.239 7.56124 129.766 7.67029L129.148 7.743C128.602 7.85205 128.238 8.07016 128.056 8.36097C127.874 8.65179 127.838 9.05166 127.947 9.59693L128.784 13.4866C128.856 13.8864 128.711 14.1409 128.311 14.2136C127.911 14.2863 127.656 14.1409 127.583 13.741L126.274 7.743C126.201 7.34313 126.346 7.08867 126.746 7.01596C127.147 6.94326 127.401 7.08867 127.474 7.48853L127.547 7.8157C127.729 7.45218 127.947 7.12502 128.238 6.94326C128.529 6.7615 128.856 6.57974 129.257 6.50704L129.439 6.47069C130.021 6.32528 130.494 6.32528 130.894 6.43434C131.258 6.54339 131.585 6.72515 131.84 7.05231C132.021 6.61609 132.203 6.28893 132.458 6.07082C132.713 5.85271 133.04 5.7073 133.477 5.59825L134.095 5.45284Z" fill="#E0E0E0"/>
<path d="M141.953 11.5591C141.553 11.6318 141.335 11.45 141.262 11.0502L140.098 2.50753C140.025 2.10766 140.207 1.88955 140.607 1.81685L144.354 1.30792C145.118 1.19887 145.737 1.30792 146.21 1.67144C146.682 2.03496 146.973 2.58023 147.046 3.30727L147.083 3.70713C147.155 4.36146 147.046 4.87039 146.682 5.30661C147.519 5.63377 147.992 6.36081 148.138 7.48771L148.21 7.96028C148.32 8.83272 148.174 9.55976 147.774 10.0687C147.41 10.5776 146.755 10.9048 145.882 11.0138L141.953 11.5591ZM141.735 5.56107L145.155 5.0885C145.518 5.05215 145.737 4.90674 145.846 4.65228C145.955 4.43417 145.955 4.14335 145.918 3.77984L145.882 3.37997C145.809 2.9801 145.7 2.68929 145.518 2.54388C145.336 2.39847 145.009 2.36212 144.572 2.43483L141.371 2.9074L141.735 5.56107ZM142.39 10.2504L145.737 9.77787C146.282 9.70516 146.646 9.52341 146.864 9.26894C147.083 9.01448 147.119 8.61461 147.046 8.06934L146.973 7.59677C146.901 7.05149 146.719 6.68797 146.464 6.50621C146.21 6.32446 145.809 6.25175 145.227 6.32446L141.88 6.79703L142.39 10.2504Z" fill="#E0E0E0"/>
<path d="M151.121 1.85394C150.648 1.89029 150.393 1.67218 150.357 1.23596L150.32 0.799739C150.284 0.363519 150.502 0.109057 150.939 0.0727053L151.375 1.92318e-06C151.812 -0.0363498 152.067 0.18176 152.103 0.617981L152.139 1.0542C152.176 1.52677 151.994 1.78123 151.557 1.81759L151.121 1.85394ZM152.067 10.3602C151.666 10.3966 151.448 10.2148 151.412 9.81496L150.866 3.67152C150.83 3.27165 151.012 3.05354 151.412 3.01719C151.812 2.98084 152.03 3.1626 152.067 3.56247L152.612 9.7059C152.649 10.1058 152.467 10.3239 152.067 10.3602Z" fill="#E0E0E0"/>
<path d="M159.233 9.88785C158.288 9.9242 157.56 9.74244 157.087 9.30622C156.614 8.87 156.359 8.17932 156.287 7.23417L156.105 3.88982L155.377 3.92617C154.977 3.92617 154.759 3.74441 154.722 3.34454C154.686 2.94467 154.904 2.72656 155.304 2.69021L156.032 2.65386L155.959 1.59966C155.923 1.19979 156.141 0.98168 156.541 0.945328C156.941 0.908976 157.16 1.12709 157.196 1.52696L157.269 2.58115L158.942 2.50845C159.343 2.4721 159.561 2.69021 159.597 3.09008C159.634 3.48995 159.415 3.70806 159.015 3.74441L157.342 3.81711L157.524 7.16147C157.56 7.77945 157.705 8.17932 157.924 8.39743C158.142 8.61554 158.579 8.68824 159.197 8.65189C159.379 8.65189 159.524 8.68824 159.634 8.76094C159.743 8.83365 159.815 9.0154 159.815 9.23351C159.815 9.63338 159.634 9.85149 159.233 9.88785Z" fill="#E0E0E0"/>
<path d="M168.583 7.12581C167.819 7.12581 167.419 6.72594 167.455 5.9262V5.19917C167.455 4.43578 167.855 4.07227 168.656 4.07227H169.347C170.075 4.07227 170.438 4.47213 170.438 5.23552V5.96255C170.438 6.72594 170.038 7.12581 169.311 7.08946L168.583 7.12581Z" fill="#E0E0E0"/>
<path d="M177.933 10.1069C177.569 9.92513 177.46 9.63431 177.678 9.27079L181.971 1.12801C182.153 0.837201 182.407 0.691794 182.698 0.728146H182.735C183.062 0.764498 183.244 0.946256 183.317 1.27342L185.972 10.1069C186.082 10.5068 185.936 10.7612 185.572 10.8703C185.172 10.9793 184.917 10.8339 184.808 10.4704L184.226 8.50741L179.715 8.07119L178.769 9.88877C178.551 10.2159 178.296 10.2886 177.933 10.1069ZM180.261 6.83523L183.79 7.19875L182.407 2.61843L180.261 6.83523Z" fill="#E0E0E0"/>
<path d="M190.156 11.5966C189.538 11.4875 189.101 11.3058 188.774 10.9786C188.446 10.6514 188.301 10.2516 188.264 9.74264C188.264 9.52453 188.337 9.37912 188.446 9.27007C188.555 9.16101 188.737 9.12466 188.955 9.16101C189.137 9.19736 189.283 9.27007 189.356 9.37912C189.428 9.48818 189.465 9.66993 189.501 9.85169C189.538 9.9971 189.61 10.1062 189.756 10.1789C189.901 10.2516 190.083 10.3243 190.338 10.3606L192.703 10.7605C193.066 10.8332 193.321 10.7968 193.503 10.6878C193.685 10.5787 193.758 10.3606 193.83 9.96075C193.903 9.56088 193.867 9.30642 193.758 9.16101C193.648 9.0156 193.394 8.90655 193.03 8.8702L190.702 8.50668C190.01 8.39762 189.538 8.14316 189.247 7.7433C188.955 7.34343 188.883 6.79815 188.992 6.10747C189.101 5.41679 189.356 4.90786 189.756 4.61705C190.156 4.32624 190.702 4.25353 191.393 4.36259L193.648 4.7261C194.776 4.90786 195.358 5.48949 195.395 6.47099C195.395 6.6891 195.322 6.8345 195.213 6.90721C195.067 6.97991 194.922 7.01626 194.703 6.97991C194.522 6.94356 194.376 6.87085 194.303 6.7618C194.231 6.65274 194.194 6.50734 194.158 6.32558C194.121 6.21652 194.049 6.10747 193.94 6.03477C193.83 5.96206 193.648 5.92571 193.43 5.88936L191.175 5.52584C190.811 5.45314 190.556 5.48949 190.447 5.56219C190.338 5.6349 190.229 5.88936 190.156 6.25288C190.083 6.58004 190.12 6.8345 190.229 6.97991C190.338 7.12532 190.556 7.19802 190.884 7.27072L193.212 7.63424C193.94 7.74329 194.449 8.03411 194.74 8.43398C195.031 8.83385 195.14 9.41547 195.031 10.1425C194.922 10.9059 194.631 11.4148 194.231 11.7056C193.83 11.9964 193.248 12.1055 192.521 11.9601L190.156 11.5966Z" fill="#E0E0E0"/>
<path d="M207.182 7.56118C208.055 7.77929 208.673 8.14281 208.964 8.65174C209.255 9.16066 209.292 9.92404 209.037 10.8692L208.091 14.7588C207.982 15.1587 207.764 15.3041 207.364 15.195C206.963 15.086 206.818 14.8679 206.927 14.468L207.873 10.6147C208.018 10.0695 207.982 9.66958 207.836 9.37877C207.655 9.08796 207.364 8.86985 206.891 8.76079L206.309 8.61538C205.763 8.46998 205.363 8.50633 205.072 8.68809C204.781 8.86985 204.562 9.23336 204.453 9.77864L203.507 13.6319C203.398 14.0318 203.18 14.1772 202.78 14.0681C202.38 13.9591 202.234 13.741 202.343 13.3411L203.289 9.48782C203.435 8.94255 203.398 8.54268 203.253 8.25187C203.107 7.96105 202.78 7.74294 202.343 7.63389L201.761 7.48848C201.215 7.34307 200.815 7.37943 200.524 7.56118C200.233 7.74294 200.015 8.10646 199.906 8.65174L198.96 12.505C198.851 12.9049 198.632 13.0503 198.232 12.9412C197.832 12.8322 197.687 12.6141 197.796 12.2142L199.251 6.25252C199.36 5.85266 199.578 5.70725 199.979 5.8163C200.379 5.92536 200.524 6.14347 200.415 6.54334L200.27 6.90685C200.597 6.65239 200.924 6.47063 201.252 6.39793C201.579 6.32523 201.943 6.32523 202.38 6.43428L202.561 6.47063C203.144 6.61604 203.58 6.7978 203.871 7.05226C204.162 7.30672 204.344 7.63389 204.453 8.03376C204.781 7.70659 205.108 7.52483 205.435 7.41578C205.763 7.34307 206.127 7.34307 206.563 7.45213L207.182 7.56118Z" fill="#E0E0E0"/>
<path d="M211.547 16.4674C211.147 16.3583 211.038 16.1039 211.147 15.704L213.803 7.48852C213.912 7.08865 214.167 6.9796 214.567 7.08865L218.168 8.25191C218.896 8.50637 219.405 8.86989 219.66 9.37881C219.915 9.88773 219.951 10.5057 219.696 11.2327L219.587 11.5963C219.369 12.2142 219.041 12.6505 218.532 12.8686C219.151 13.5229 219.26 14.3953 218.896 15.4859L218.75 15.9585C218.459 16.7946 218.059 17.3762 217.441 17.667C216.859 17.9578 216.131 17.9578 215.294 17.7033L211.547 16.4674ZM212.493 15.4859L215.695 16.5401C216.204 16.7219 216.64 16.7219 216.931 16.5764C217.222 16.431 217.477 16.1039 217.623 15.5949L217.768 15.1224C217.95 14.6135 217.95 14.2136 217.805 13.9228C217.659 13.632 217.332 13.4138 216.786 13.2321L213.584 12.1779L212.493 15.4859ZM213.985 10.9783L217.259 12.0325C217.586 12.1415 217.841 12.1052 218.059 11.9598C218.241 11.778 218.387 11.5599 218.496 11.2327L218.605 10.8692C218.75 10.4694 218.75 10.1785 218.641 9.96044C218.532 9.74233 218.277 9.56057 217.841 9.45151L214.821 8.47002L213.985 10.9783Z" fill="#E0E0E0"/>
<path d="M221.188 19.7749C220.824 19.6295 220.679 19.375 220.824 18.9751L223.007 13.2316C223.152 12.8317 223.407 12.7226 223.807 12.868C224.171 13.0135 224.316 13.2679 224.171 13.6678L221.988 19.4114C221.843 19.8112 221.588 19.9203 221.188 19.7749ZM224.025 11.7048C223.589 11.5594 223.443 11.2322 223.625 10.796L223.771 10.3961C223.916 9.95991 224.244 9.85086 224.644 9.99626L225.044 10.1417C225.444 10.2871 225.59 10.5779 225.408 11.0141L225.262 11.414C225.117 11.8502 224.826 11.9956 224.389 11.8502L224.025 11.7048Z" fill="#E0E0E0"/>
<path d="M227.845 22.4644C226.972 22.1009 226.39 21.5919 226.135 21.0103C225.881 20.4287 225.954 19.6653 226.317 18.7929L227.627 15.703L227.009 15.4121C226.645 15.2667 226.536 14.9759 226.681 14.6124C226.827 14.2489 227.118 14.1398 227.481 14.2852L228.136 14.5761L228.536 13.5946C228.682 13.231 228.973 13.122 229.337 13.2674C229.701 13.4128 229.81 13.7036 229.664 14.0671L229.264 15.0486L230.792 15.703C231.156 15.8484 231.265 16.1392 231.119 16.5027C230.974 16.8662 230.683 16.9753 230.319 16.8299L228.791 16.1755L227.481 19.2654C227.227 19.8471 227.19 20.2469 227.3 20.5377C227.409 20.8285 227.773 21.083 228.318 21.3011C228.5 21.3738 228.609 21.4829 228.682 21.5919C228.755 21.7373 228.718 21.8827 228.646 22.1009C228.5 22.5007 228.245 22.6098 227.845 22.4644Z" fill="#E0E0E0"/>
<path d="M237.449 24.0277C236.758 23.6642 236.576 23.1552 236.94 22.4645L237.268 21.8102C237.595 21.1195 238.141 20.9741 238.832 21.3376L239.45 21.6648C240.105 21.992 240.251 22.5009 239.923 23.1916L239.596 23.8459C239.232 24.5366 238.759 24.7184 238.068 24.3912L237.449 24.0277Z" fill="#E0E0E0"/>
</g>
<defs>
<clipPath id="clip0_604_783">
<rect width="332" height="332" fill="white"/>
</clipPath>
</defs>
</svg>
