<svg width="36" height="36" viewBox="0 0 36 36" fill="none" xmlns="http://www.w3.org/2000/svg">
<path d="M33.6326 4.80957H2.36742C1.06207 4.80957 0 5.87164 0 7.17699V28.8221C0 30.1275 1.06207 31.1895 2.36742 31.1895H33.6326C34.938 31.1895 36 30.1274 36 28.8221V7.17699C36 5.87164 34.9379 4.80957 33.6326 4.80957ZM8.41753 30.0622H2.36742C1.68363 30.0622 1.12732 29.5058 1.12732 28.8221V7.17699C1.12732 6.4932 1.68363 5.93689 2.36742 5.93689H8.41753V30.0622ZM34.8727 28.8221C34.8727 29.5059 34.3164 30.0622 33.6326 30.0622H9.54492V5.93696H33.6326C34.3164 5.93696 34.8727 6.49327 34.8727 7.17706V28.8221Z" fill="#BDBDBD"/>
<path d="M13.7912 7.21484H11.3862C11.0749 7.21484 10.8225 7.4672 10.8225 7.77854C10.8225 8.08988 11.0749 8.34224 11.3862 8.34224H13.7912C14.1025 8.34224 14.3549 8.08988 14.3549 7.77854C14.3549 7.4672 14.1025 7.21484 13.7912 7.21484Z" fill="#BDBDBD"/>
<path d="M6.57619 7.21484H2.96866C2.65739 7.21484 2.40497 7.4672 2.40497 7.77854C2.40497 8.08988 2.65732 8.34224 2.96866 8.34224H6.57619C6.88746 8.34224 7.13988 8.08988 7.13988 7.77854C7.13988 7.4672 6.88753 7.21484 6.57619 7.21484Z" fill="#BDBDBD"/>
<path d="M6.57619 13.2275H2.96866C2.65739 13.2275 2.40497 13.4799 2.40497 13.7912C2.40497 14.1026 2.65732 14.3549 2.96866 14.3549H6.57619C6.88746 14.3549 7.13988 14.1026 7.13988 13.7912C7.13988 13.4799 6.88753 13.2275 6.57619 13.2275Z" fill="#BDBDBD"/>
<path d="M6.57619 18.0371H2.96866C2.65739 18.0371 2.40497 18.2895 2.40497 18.6008C2.40497 18.9121 2.65732 19.1645 2.96866 19.1645H6.57619C6.88746 19.1645 7.13988 18.9121 7.13988 18.6008C7.13988 18.2895 6.88753 18.0371 6.57619 18.0371Z" fill="#BDBDBD"/>
<path d="M6.57619 22.8477H2.96866C2.65739 22.8477 2.40497 23.1 2.40497 23.4114C2.40497 23.7227 2.65732 23.975 2.96866 23.975H6.57619C6.88746 23.975 7.13988 23.7227 7.13988 23.4114C7.13988 23.1 6.88753 22.8477 6.57619 22.8477Z" fill="#BDBDBD"/>
<path d="M6.57619 15.6328H2.96866C2.65739 15.6328 2.40497 15.8852 2.40497 16.1965C2.40497 16.5079 2.65732 16.7602 2.96866 16.7602H6.57619C6.88746 16.7602 7.13988 16.5079 7.13988 16.1965C7.13988 15.8852 6.88753 15.6328 6.57619 15.6328Z" fill="#BDBDBD"/>
<path d="M6.57619 20.4424H2.96866C2.65739 20.4424 2.40497 20.6947 2.40497 21.0061C2.40497 21.3174 2.65732 21.5698 2.96866 21.5698H6.57619C6.88746 21.5698 7.13988 21.3174 7.13988 21.0061C7.13988 20.6947 6.88753 20.4424 6.57619 20.4424Z" fill="#BDBDBD"/>
<path d="M5.3737 26.4551H2.96866C2.65739 26.4551 2.40497 26.7074 2.40497 27.0188C2.40497 27.33 2.65732 27.5825 2.96866 27.5825H5.3737C5.68498 27.5825 5.9374 27.3301 5.9374 27.0188C5.9374 26.7074 5.68498 26.4551 5.3737 26.4551Z" fill="#BDBDBD"/>
<path d="M5.3737 9.62012H2.96866C2.65739 9.62012 2.40497 9.87247 2.40497 10.1838C2.40497 10.4952 2.65732 10.7475 2.96866 10.7475H5.3737C5.68498 10.7475 5.9374 10.4952 5.9374 10.1838C5.9374 9.87247 5.68498 9.62012 5.3737 9.62012Z" fill="#BDBDBD"/>
<path d="M18.6012 7.21484H16.1962C15.8849 7.21484 15.6325 7.4672 15.6325 7.77854C15.6325 8.08988 15.8849 8.34224 16.1962 8.34224H18.6012C18.9125 8.34224 19.1649 8.08988 19.1649 7.77854C19.1649 7.4672 18.9126 7.21484 18.6012 7.21484Z" fill="#BDBDBD"/>
<path d="M23.4112 7.21484H21.0062C20.6949 7.21484 20.4425 7.4672 20.4425 7.77854C20.4425 8.08988 20.6949 8.34224 21.0062 8.34224H23.4112C23.7225 8.34224 23.9749 8.08988 23.9749 7.77854C23.9749 7.4672 23.7226 7.21484 23.4112 7.21484Z" fill="#BDBDBD"/>
<path d="M28.2213 7.21484H25.8163C25.505 7.21484 25.2526 7.4672 25.2526 7.77854C25.2526 8.08988 25.5049 8.34224 25.8163 8.34224H28.2213C28.5326 8.34224 28.785 8.08988 28.785 7.77854C28.785 7.4672 28.5326 7.21484 28.2213 7.21484Z" fill="#BDBDBD"/>
<path d="M33.0314 7.21484H30.6263C30.315 7.21484 30.0626 7.4672 30.0626 7.77854C30.0626 8.08988 30.315 8.34224 30.6263 8.34224H33.0314C33.3426 8.34224 33.5951 8.08988 33.5951 7.77854C33.5951 7.4672 33.3426 7.21484 33.0314 7.21484Z" fill="#BDBDBD"/>
<path d="M17.7375 19.9543C17.4886 19.7674 17.1352 19.8176 16.9483 20.0665C16.4817 20.6875 15.7693 21.0437 14.9937 21.0437C13.6469 21.0437 12.5512 19.948 12.5512 18.6012C12.5512 17.2543 13.6469 16.1586 14.9937 16.1586C15.7699 16.1586 16.4827 16.5153 16.9491 17.1371C17.136 17.3861 17.4893 17.4366 17.7382 17.2498C17.9872 17.0629 18.0376 16.7096 17.8509 16.4606C17.1694 15.5522 16.128 15.0312 14.9937 15.0312C13.0253 15.0312 11.4238 16.6328 11.4238 18.6012C11.4238 20.5696 13.0253 22.1711 14.9937 22.1711C16.1271 22.1711 17.168 21.6508 17.8496 20.7435C18.0367 20.4946 17.9865 20.1413 17.7375 19.9543Z" fill="#BDBDBD"/>
<path d="M23.2981 19.7153C24.3701 19.4897 25.1775 18.5369 25.1775 17.3987C25.1775 16.0933 24.1154 15.0312 22.8101 15.0312H19.8038C19.4925 15.0312 19.2401 15.2836 19.2401 15.5949V21.6074C19.2401 21.9187 19.4925 22.1711 19.8038 22.1711C20.1152 22.1711 20.3675 21.9188 20.3675 21.6074V19.7661H21.927L23.5617 21.9456C23.6725 22.0933 23.8417 22.1711 24.0131 22.1711C24.1308 22.1711 24.2495 22.1344 24.3508 22.0584C24.5998 21.8717 24.6504 21.5183 24.4636 21.2693L23.2981 19.7153ZM20.3674 18.6388V16.1587H22.81C23.4938 16.1587 24.0501 16.715 24.0501 17.3988C24.0501 18.0826 23.4938 18.6389 22.81 18.6389H20.3674V18.6388Z" fill="#BDBDBD"/>
<path d="M32.991 21.5513L32.3897 15.5389C32.3639 15.2805 32.1649 15.0732 31.9077 15.0369C31.6509 15.0004 31.4019 15.1445 31.3055 15.3857L29.4238 20.0898L27.5421 15.3857C27.4456 15.1446 27.197 15.0008 26.9399 15.0369C26.6828 15.0732 26.4838 15.2805 26.4579 15.5389L25.8567 21.5514C25.8257 21.8612 26.0517 22.1374 26.3615 22.1684C26.6709 22.1993 26.9474 21.9733 26.9785 21.6635L27.3507 17.9421L28.9005 21.8168C28.9862 22.0308 29.1933 22.1711 29.4239 22.1711C29.6544 22.1711 29.8616 22.0308 29.9472 21.8168L31.4971 17.9421L31.8693 21.6635C31.8984 21.9542 32.1434 22.1711 32.4295 22.1711C32.4483 22.1711 32.4672 22.1702 32.4863 22.1682C32.7959 22.1374 33.0219 21.8611 32.991 21.5513Z" fill="#BDBDBD"/>
</svg>
