<svg width="32" height="32" viewBox="0 0 32 32" fill="none" xmlns="http://www.w3.org/2000/svg">
<g clip-path="url(#clip0_604_1229)">
<path d="M31.3333 22.6631C31.7067 22.6631 32 22.9698 32 23.3298C32 23.7031 31.7067 23.9964 31.3333 23.9964H30.6667V22.6631H31.3333Z" fill="#BDBDBD"/>
<path d="M1.3333 22.6631H30.6666V23.9964H1.3333V22.6631Z" fill="#BDBDBD"/>
<path d="M32 7.3291V23.3291C32 22.9691 31.7067 22.6624 31.3333 22.6624H30.6667V7.3291C30.6667 6.9691 30.3733 6.66244 30 6.66244H22C21.72 6.66244 21.48 6.50243 21.3867 6.26243C21.3467 6.18243 21.3333 6.0891 21.3333 5.99577C21.3333 5.63577 21.6267 5.3291 22 5.3291H30C31.1067 5.3291 32 6.23577 32 7.3291Z" fill="#BDBDBD"/>
<path d="M32 25.9958C32 27.1024 31.1066 27.9958 30 27.9958H19.44C19.3466 27.5958 19.3333 27.3558 19.3333 27.3291C19.3333 26.9558 19.0266 26.6624 18.6666 26.6624H30C30.3733 26.6624 30.6666 26.3691 30.6666 25.9958V23.9958H31.3333C31.7066 23.9958 32 23.7024 32 23.3291V25.9958Z" fill="#BDBDBD"/>
<path d="M19.3333 27.3298C19.3333 27.3564 19.3467 27.5964 19.44 27.9964H18.08C18 27.6098 18 27.3564 18 27.3298C18 26.9698 18.2933 26.6631 18.6667 26.6631C19.0267 26.6631 19.3333 26.9564 19.3333 27.3298Z" fill="#BDBDBD"/>
<path d="M13.3066 26.6631H18.6666C18.2933 26.6631 18 26.9698 18 27.3298C18 27.3564 18 27.6098 18.08 27.9964H13.9066C13.9733 27.5964 13.9733 27.3564 13.9733 27.3298C13.9733 26.9564 13.6666 26.6631 13.3066 26.6631Z" fill="#BDBDBD"/>
<path d="M16.6667 9.72949V10.9962C16.6667 11.3695 16.3733 11.6628 16 11.6628C15.6267 11.6628 15.3333 11.3695 15.3333 10.9962V9.72949L16 10.3962L16.6667 9.72949Z" fill="#BDBDBD"/>
<path d="M16.6667 0.66276V9.72943L16 10.3961L15.3333 9.72943V0.66276C15.3333 0.30276 15.6267 -0.00390625 16 -0.00390625C16.3733 -0.00390625 16.6667 0.30276 16.6667 0.66276Z" fill="#BDBDBD"/>
<path d="M13.9733 27.3298C13.9733 27.3564 13.9733 27.5964 13.9067 27.9964H12.5467C12.64 27.6098 12.64 27.3698 12.64 27.3431C12.64 26.9698 12.9333 26.6764 13.3067 26.6631C13.6667 26.6631 13.9733 26.9564 13.9733 27.3298Z" fill="#BDBDBD"/>
<path d="M15.5334 11.8098L12.2 8.47651C12 8.27651 11.9467 7.99651 12.0534 7.75651C12.08 7.67651 12.1334 7.59651 12.2 7.52984C12.4534 7.27651 12.88 7.27651 13.1334 7.52984L15.3334 9.72984V10.9965C15.3334 11.3698 15.6267 11.6632 16 11.6632C16.3734 11.6632 16.6667 11.3698 16.6667 10.9965V9.72984L18.8667 7.52984C18.9867 7.40984 19.16 7.34318 19.3334 7.34318C19.5067 7.34318 19.68 7.40984 19.8 7.52984C20.0667 7.79651 20.0667 8.20984 19.8 8.47651L16.4667 11.8098C16.3467 11.9298 16.1734 11.9965 16 11.9965C15.8267 11.9965 15.6534 11.9298 15.5334 11.8098Z" fill="#BDBDBD"/>
<path d="M13.9066 27.9961C13.7866 28.6094 13.5066 29.5961 12.7599 30.6628H19.2399C18.4933 29.5961 18.1866 28.6094 18.0799 27.9961H19.4399C19.5999 28.6628 20.0266 29.7561 21.1333 30.8628C21.3333 31.0494 21.3866 31.3428 21.2799 31.5828C21.1866 31.8361 20.9333 31.9961 20.6666 31.9961H11.3333C11.0666 31.9961 10.8133 31.8361 10.7199 31.5828C10.6133 31.3428 10.6666 31.0494 10.8666 30.8628C11.9733 29.7428 12.3866 28.6628 12.5466 27.9961H13.9066Z" fill="#BDBDBD"/>
<path d="M11.3333 14.6631H20.6666C21.04 14.6631 21.3333 14.3698 21.3333 13.9964V11.3298C21.3333 10.9698 21.6266 10.6631 22 10.6631C22.3733 10.6631 22.6667 10.9698 22.6667 11.3298V13.9964C22.6667 15.1031 21.7733 15.9964 20.6666 15.9964H11.3333C10.2266 15.9964 9.33331 15.1031 9.33331 13.9964V11.3298C9.33331 10.9698 9.62664 10.6631 9.99998 10.6631C10.3733 10.6631 10.6666 10.9698 10.6666 11.3298V13.9964C10.6666 14.3698 10.96 14.6631 11.3333 14.6631Z" fill="#BDBDBD"/>
<path d="M1.33333 22.6631V23.9964H0.666659C0.293326 23.9964 -7.62939e-06 23.7031 -7.62939e-06 23.3298C-7.62939e-06 22.9698 0.293326 22.6631 0.666659 22.6631H1.33333Z" fill="#BDBDBD"/>
<path d="M-7.62939e-06 7.3291C-7.62939e-06 6.23577 0.893326 5.3291 1.99999 5.3291H9.99999C10.3733 5.3291 10.6667 5.63577 10.6667 5.99577C10.6667 6.3691 10.3733 6.66244 9.99999 6.66244H1.99999C1.62666 6.66244 1.33333 6.9691 1.33333 7.3291V22.6624H0.666659C0.293326 22.6624 -7.62939e-06 22.9691 -7.62939e-06 23.3291V7.3291Z" fill="#BDBDBD"/>
<path d="M1.33333 25.9958C1.33333 26.3691 1.62666 26.6624 1.99999 26.6624H13.3067C12.9333 26.6758 12.64 26.9691 12.64 27.3424C12.64 27.3691 12.64 27.6091 12.5467 27.9958H1.99999C0.893326 27.9958 -7.62939e-06 27.1024 -7.62939e-06 25.9958V23.3291C-7.62939e-06 23.7024 0.293326 23.9958 0.666659 23.9958H1.33333V25.9958Z" fill="#BDBDBD"/>
</g>
<defs>
<clipPath id="clip0_604_1229">
<rect width="32" height="32" fill="white"/>
</clipPath>
</defs>
</svg>
