<svg width="20" height="20" viewBox="0 0 20 20" fill="none" xmlns="http://www.w3.org/2000/svg">
<path fill-rule="evenodd" clip-rule="evenodd" d="M18.6648 3H1.24431C0.6234 3 0.13065 3.46289 0.0373258 4.05891L9.95454 10.5928L19.8718 4.05891C19.7784 3.46289 19.2857 3 18.6648 3ZM0 14.1889V5.52347L6.71185 9.94578L0 14.1889ZM19.9091 14.1889L13.1972 9.94578L19.9091 5.52347V14.1889ZM10.2569 12.1608L12.0176 11.0011L19.8295 15.941C19.7337 16.5321 19.2434 16.9912 18.625 16.9912H1.20453C0.586102 16.9912 0.0958406 16.5321 2.81297e-05 15.941L7.81185 10.9998L9.57256 12.1608C9.67709 12.2292 9.7953 12.2628 9.91475 12.2628C10.0342 12.2628 10.1524 12.2292 10.2569 12.1608Z" fill="#E0E0E0"/>
</svg>
