<svg width="33" height="33" viewBox="0 0 33 33" fill="none" xmlns="http://www.w3.org/2000/svg">
<g clip-path="url(#clip0_604_1182)">
<path d="M24.7129 12.7949L23.9712 13.6056L27.3442 16.6977C28.1383 17.4283 28.5909 18.4576 28.5912 19.5363V33.0003H29.6912V19.5363C29.6898 18.1489 29.1079 16.8259 28.0863 15.8869L24.7129 12.7949Z" fill="#BDBDBD"/>
<path d="M20.3412 0H6.0412C4.5232 0.001925 3.29312 1.232 3.2912 2.75V30.25C3.29312 31.768 4.5232 32.9981 6.0412 33H19.7912V32.016C19.7886 29.5384 20.522 27.1153 21.8988 25.0553C22.0446 24.8369 22.0153 24.5464 21.8301 24.3612L17.9801 20.5112C17.6242 20.1549 17.4356 19.665 17.4604 19.1621C17.4855 18.659 17.7218 18.1904 18.111 17.8711C18.8605 17.2982 19.9205 17.38 20.5733 18.0608L26.0024 23.49L26.7801 22.7122L23.0912 19.0223V2.75C23.0893 1.232 21.8592 0.001925 20.3412 0ZM21.9912 17.9223L21.351 17.2821C20.2958 16.2041 18.5988 16.0918 17.4108 17.0217C16.7824 17.5381 16.4011 18.2963 16.3614 19.1091C16.3218 19.9217 16.6271 20.7133 17.2024 21.2889L20.7389 24.8255C19.42 26.9508 18.7127 29.3989 18.6951 31.9H6.0412C5.13012 31.9 4.3912 31.1611 4.3912 30.25V28.6H18.1412V27.5H4.3912V4.4H21.9912V17.9223ZM21.9912 3.3H4.3912V2.75C4.3912 1.83893 5.13012 1.1 6.0412 1.1H20.3412C21.2523 1.1 21.9912 1.83893 21.9912 2.75V3.3Z" fill="#BDBDBD"/>
<path d="M6.59121 9.9H8.79121C9.39882 9.9 9.89121 9.40761 9.89121 8.8V6.6C9.89121 5.99239 9.39882 5.5 8.79121 5.5H6.59121C5.9836 5.5 5.49121 5.99239 5.49121 6.6V8.8C5.49121 9.40761 5.9836 9.9 6.59121 9.9ZM6.59121 6.6H8.79121V8.8H6.59121V6.6Z" fill="#BDBDBD"/>
<path d="M12.0912 9.9H14.2912C14.8988 9.9 15.3912 9.40761 15.3912 8.8V6.6C15.3912 5.99239 14.8988 5.5 14.2912 5.5H12.0912C11.4836 5.5 10.9912 5.99239 10.9912 6.6V8.8C10.9912 9.40761 11.4836 9.9 12.0912 9.9ZM12.0912 6.6H14.2912V8.8H12.0912V6.6Z" fill="#BDBDBD"/>
<path d="M17.5912 9.9H19.7912C20.3988 9.9 20.8912 9.40761 20.8912 8.8V6.6C20.8912 5.99239 20.3988 5.5 19.7912 5.5H17.5912C16.9836 5.5 16.4912 5.99239 16.4912 6.6V8.8C16.4912 9.40761 16.9836 9.9 17.5912 9.9ZM17.5912 6.6H19.7912V8.8H17.5912V6.6Z" fill="#BDBDBD"/>
<path d="M6.59121 15.4H8.79121C9.39882 15.4 9.89121 14.9076 9.89121 14.3V12.1C9.89121 11.4924 9.39882 11 8.79121 11H6.59121C5.9836 11 5.49121 11.4924 5.49121 12.1V14.3C5.49121 14.9076 5.9836 15.4 6.59121 15.4ZM6.59121 12.1H8.79121V14.3H6.59121V12.1Z" fill="#BDBDBD"/>
<path d="M6.59121 20.9H8.79121C9.39882 20.9 9.89121 20.4076 9.89121 19.8V17.6C9.89121 16.9924 9.39882 16.5 8.79121 16.5H6.59121C5.9836 16.5 5.49121 16.9924 5.49121 17.6V19.8C5.49121 20.4076 5.9836 20.9 6.59121 20.9ZM6.59121 17.6H8.79121V19.8H6.59121V17.6Z" fill="#BDBDBD"/>
<path d="M12.0912 15.4H14.2912C14.8988 15.4 15.3912 14.9076 15.3912 14.3V12.1C15.3912 11.4924 14.8988 11 14.2912 11H12.0912C11.4836 11 10.9912 11.4924 10.9912 12.1V14.3C10.9912 14.9076 11.4836 15.4 12.0912 15.4ZM12.0912 12.1H14.2912V14.3H12.0912V12.1Z" fill="#BDBDBD"/>
<path d="M17.5912 15.4H19.7912C20.3988 15.4 20.8912 14.9076 20.8912 14.3V12.1C20.8912 11.4924 20.3988 11 19.7912 11H17.5912C16.9836 11 16.4912 11.4924 16.4912 12.1V14.3C16.4912 14.9076 16.9836 15.4 17.5912 15.4ZM17.5912 12.1H19.7912V14.3H17.5912V12.1Z" fill="#BDBDBD"/>
<path d="M12.0912 20.9H14.2912C14.8988 20.9 15.3912 20.4076 15.3912 19.8V17.6C15.3912 16.9924 14.8988 16.5 14.2912 16.5H12.0912C11.4836 16.5 10.9912 16.9924 10.9912 17.6V19.8C10.9912 20.4076 11.4836 20.9 12.0912 20.9ZM12.0912 17.6H14.2912V19.8H12.0912V17.6Z" fill="#BDBDBD"/>
<path d="M6.59121 26.4H8.79121C9.39882 26.4 9.89121 25.9076 9.89121 25.3V23.1C9.89121 22.4924 9.39882 22 8.79121 22H6.59121C5.9836 22 5.49121 22.4924 5.49121 23.1V25.3C5.49121 25.9076 5.9836 26.4 6.59121 26.4ZM6.59121 23.1H8.79121V25.3H6.59121V23.1Z" fill="#BDBDBD"/>
<path d="M12.0912 26.4H14.2912C14.8988 26.4 15.3912 25.9076 15.3912 25.3V23.1C15.3912 22.4924 14.8988 22 14.2912 22H12.0912C11.4836 22 10.9912 22.4924 10.9912 23.1V25.3C10.9912 25.9076 11.4836 26.4 12.0912 26.4ZM12.0912 23.1H14.2912V25.3H12.0912V23.1Z" fill="#BDBDBD"/>
<path d="M12.6412 29.7002H13.7412V30.8002H12.6412V29.7002Z" fill="#BDBDBD"/>
</g>
<defs>
<clipPath id="clip0_604_1182">
<rect width="33" height="33" fill="white"/>
</clipPath>
</defs>
</svg>
