<svg width="17" height="17" viewBox="0 0 17 17" fill="none" xmlns="http://www.w3.org/2000/svg">
<path fill-rule="evenodd" clip-rule="evenodd" d="M8.77127 0C10.8761 0.293616 12.7828 1.24521 14.2898 2.75221C15.719 4.18491 16.6564 5.98905 16.9996 7.97715L15.6942 8.20002C15.4006 6.48431 14.5905 4.92426 13.3559 3.68965C12.0541 2.39138 10.4056 1.56713 8.58732 1.31243L8.77127 0ZM12.9243 11.2458C12.3689 10.6975 11.6756 10.6975 11.1237 11.2458C10.7028 11.6633 10.2818 12.0807 9.8679 12.5052C9.7547 12.6219 9.65919 12.6467 9.52123 12.5689C9.41329 12.51 9.30258 12.4556 9.19195 12.4012L9.19193 12.4012L9.19191 12.4012C9.02336 12.3183 8.85501 12.2355 8.69698 12.1373C7.47653 11.3697 6.45418 10.3827 5.54857 9.27189C5.0993 8.72004 4.69956 8.12927 4.42009 7.46421C4.36349 7.32978 4.37411 7.24134 4.48377 7.13168C4.84434 6.78323 5.19713 6.42699 5.55102 6.06963L5.72898 5.89C6.3056 5.30985 6.3056 4.63064 5.72545 4.04695C5.561 3.88073 5.39655 3.71629 5.23211 3.55184L5.23198 3.55171C5.06747 3.38721 4.90297 3.22271 4.73847 3.05644C4.6253 2.94327 4.51253 2.82971 4.39975 2.71614L4.39965 2.71604L4.39962 2.71602C4.17402 2.48884 3.94841 2.26166 3.71966 2.03762C3.16427 1.49638 2.47091 1.49638 1.91905 2.04116C1.74921 2.20817 1.5822 2.37688 1.4153 2.54548L1.4153 2.54549C1.16505 2.79828 0.915057 3.05082 0.656152 3.29699C0.25641 3.6755 0.0547704 4.13892 0.0123199 4.68017C-0.0548933 5.56101 0.160897 6.39233 0.465125 7.20243C1.08773 8.87922 2.03579 10.3685 3.18549 11.734C4.73847 13.5806 6.59214 15.0416 8.76066 16.0958C9.73702 16.5698 10.7488 16.9342 11.8489 16.9943C12.606 17.0368 13.2639 16.8458 13.791 16.255C14.0282 15.9899 14.2852 15.7402 14.542 15.4906C14.6759 15.3605 14.8098 15.2304 14.9407 15.0982C15.5067 14.5251 15.5103 13.8318 14.9478 13.2658C14.2757 12.5901 13.6 11.918 12.9243 11.2458ZM12.2487 8.42642L13.554 8.20356C13.3488 7.00433 12.7828 5.9183 11.9232 5.05514C11.0141 4.146 9.86436 3.57291 8.59792 3.39604L8.41397 4.70847C9.39387 4.84643 10.2853 5.28862 10.9893 5.99259C11.6544 6.65765 12.0895 7.49958 12.2487 8.42642Z" fill="#E0E0E0"/>
</svg>
