<svg width="27" height="27" viewBox="0 0 27 27" fill="none" xmlns="http://www.w3.org/2000/svg">
<g clip-path="url(#clip0_604_1207)">
<path d="M11.142 6.0869C11.0351 5.81595 10.729 5.6829 10.458 5.78995C8.9284 6.3936 7.62296 7.42967 6.68292 8.78621C5.72031 10.1751 5.21158 11.8057 5.21158 13.5015C5.21158 13.7928 5.44772 14.0288 5.73887 14.0288C6.03002 14.0288 6.26616 13.7927 6.26616 13.5015C6.26616 10.5107 8.06351 7.86879 10.8451 6.77102C11.116 6.66407 11.2489 6.35784 11.142 6.0869Z" fill="#BDBDBD"/>
<path d="M16.9736 12.9793C16.6824 12.9793 16.4463 13.2154 16.4463 13.5066C16.4463 15.1348 15.1216 16.4595 13.4933 16.4595C11.865 16.4595 10.5403 15.1349 10.5403 13.5066C10.5403 11.8783 11.865 10.5536 13.4933 10.5536C13.7845 10.5536 14.0206 10.3175 14.0206 10.0263C14.0206 9.73506 13.7845 9.49902 13.4933 9.49902C11.2835 9.49902 9.48576 11.2968 9.48576 13.5066C9.48576 15.7164 11.2836 17.5141 13.4933 17.5141C15.703 17.5141 17.5009 15.7164 17.5009 13.5066C17.5009 13.2154 17.2648 12.9793 16.9736 12.9793Z" fill="#BDBDBD"/>
<path d="M18.9283 12.959C18.6371 12.959 18.401 13.1951 18.401 13.4863V13.5062C18.401 13.7974 18.6372 14.0334 18.9283 14.0334C19.2195 14.0334 19.4556 13.7974 19.4556 13.5062V13.4863C19.4556 13.1951 19.2195 12.959 18.9283 12.959Z" fill="#BDBDBD"/>
<path d="M16.7945 17.7688C16.6965 17.6702 16.5604 17.6143 16.4218 17.6143C16.2831 17.6143 16.1471 17.6702 16.0489 17.7688C15.9508 17.8669 15.8944 18.0024 15.8944 18.1416C15.8944 18.2803 15.9508 18.4164 16.0489 18.5144C16.1471 18.6125 16.2825 18.6684 16.4218 18.6684C16.5604 18.6684 16.6965 18.6125 16.7945 18.5144C16.8926 18.4164 16.9491 18.2803 16.9491 18.1416C16.9491 18.0023 16.8927 17.8669 16.7945 17.7688Z" fill="#BDBDBD"/>
<path d="M25.2063 19.1202C24.9034 19.1202 24.618 19.196 24.3675 19.3292L22.807 17.7687C22.7081 17.6698 22.574 17.6143 22.4341 17.6143H18.5891C18.2979 17.6143 18.0618 17.8504 18.0618 18.1415C18.0618 18.4328 18.2979 18.6688 18.5891 18.6688H22.2157L23.6219 20.0751C23.489 20.3254 23.4134 20.6105 23.4134 20.913C23.4134 21.9016 24.2177 22.7059 25.2063 22.7059C26.1949 22.7059 26.9992 21.9016 26.9992 20.913C26.9992 19.9244 26.1949 19.1202 25.2063 19.1202ZM25.2063 21.6513C24.7992 21.6513 24.4681 21.3202 24.4681 20.9131C24.4681 20.506 24.7993 20.1749 25.2063 20.1749C25.6134 20.1749 25.9446 20.5061 25.9446 20.9131C25.9446 21.3202 25.6133 21.6513 25.2063 21.6513Z" fill="#BDBDBD"/>
<path d="M25.207 4.29611C24.2183 4.29611 23.4141 5.10036 23.4141 6.08897C23.4141 6.39156 23.4897 6.67665 23.6227 6.92692L22.2164 8.33319H16.4463C15.7133 7.91406 14.8901 7.64775 14.027 7.56944V6.61626H19.5874C19.7794 6.61626 19.9563 6.51185 20.0491 6.34373L21.6515 3.4397C21.8689 3.53347 22.1081 3.58567 22.3596 3.58567C23.3482 3.58567 24.1524 2.78142 24.1524 1.79281C24.1524 0.804252 23.3482 0 22.3596 0C21.371 0 20.5667 0.804252 20.5667 1.79286C20.5667 2.13859 20.6653 2.46148 20.8355 2.7356L19.2761 5.56163H14.027V0.529506C14.027 0.238254 13.7909 0.00221484 13.4997 0.00221484H11.1352C10.844 0.00221484 10.6079 0.238307 10.6079 0.529506V2.16127C9.51842 2.43728 8.48108 2.86712 7.51441 3.44329L6.36501 2.29395C6.26608 2.19507 6.13193 2.13949 5.99202 2.13949C5.85217 2.13949 5.71801 2.19512 5.61914 2.2941L2.28617 5.62955C2.08034 5.83553 2.0804 6.16924 2.28627 6.37511L3.43435 7.52324C2.85823 8.49002 2.42839 9.52731 2.15243 10.6167H0.528741C0.237541 10.6167 0.00144958 10.8528 0.00144958 11.144V15.8594C0.00144958 16.1506 0.237594 16.3867 0.528741 16.3867H2.15254C2.42844 17.4761 2.85828 18.5134 3.43446 19.4801L2.28638 20.6283C2.0805 20.8341 2.08045 21.1678 2.28627 21.3738L5.61924 24.7093C5.71812 24.8082 5.85228 24.8638 5.99213 24.8639C5.99218 24.8639 5.99218 24.8639 5.99223 24.8639C6.13208 24.8639 6.26619 24.8083 6.36512 24.7094L7.51446 23.5601C8.48124 24.1363 9.51853 24.5661 10.6079 24.8422V26.4713C10.6079 26.7625 10.8438 26.9985 11.1349 26.9986H13.4993H13.4997C13.6395 26.9986 13.7736 26.9444 13.8724 26.8456C13.9714 26.7467 14.027 26.6125 14.027 26.4726V21.416H19.2751L20.8361 24.2633C20.6656 24.5377 20.5667 24.8609 20.5667 25.207C20.5667 26.1956 21.371 26.9999 22.3596 26.9999C23.3482 26.9999 24.1525 26.1956 24.1525 25.207C24.1525 24.2184 23.3482 23.4142 22.3596 23.4142C22.1088 23.4142 21.8699 23.4661 21.653 23.5596L20.0498 20.6351C19.9572 20.4663 19.78 20.3613 19.5874 20.3613H14.0269V18.9416C14.0269 18.6504 13.7908 18.4143 13.4996 18.4143C10.7907 18.4143 8.58698 16.2105 8.58698 13.5017C8.58698 10.8256 10.7379 8.64279 13.4016 8.59032C13.4316 8.59565 13.4623 8.59892 13.4939 8.59892C15.5348 8.59892 17.3839 9.88353 18.0952 11.7954C18.1742 12.0078 18.3755 12.139 18.5895 12.139C18.6505 12.139 18.7127 12.1283 18.7733 12.1058C19.0463 12.0042 19.1852 11.7007 19.0836 11.4277C18.7953 10.6528 18.3526 9.96342 17.7993 9.38777H22.4348C22.5746 9.38777 22.7087 9.33219 22.8076 9.23331L24.3682 7.6728C24.6186 7.80601 24.904 7.88178 25.207 7.88178C26.1956 7.88178 26.9998 7.07753 26.9998 6.08892C26.9998 5.10036 26.1955 4.29611 25.207 4.29611ZM22.3596 1.05463C22.7667 1.05463 23.0978 1.38581 23.0978 1.79286C23.0978 2.19992 22.7666 2.53109 22.3596 2.53109C21.9525 2.53109 21.6213 2.19992 21.6213 1.79286C21.6213 1.38581 21.9525 1.05463 22.3596 1.05463ZM22.3596 24.4689C22.7667 24.4689 23.0978 24.8001 23.0978 25.2071C23.0978 25.6142 22.7666 25.9454 22.3596 25.9454C21.9525 25.9454 21.6213 25.6142 21.6213 25.2071C21.6213 24.8001 21.9525 24.4689 22.3596 24.4689ZM12.9724 7.55757C9.92817 7.82546 7.53234 10.3891 7.53234 13.5017C7.53234 16.6143 9.92806 19.178 12.9723 19.4459V25.9451L11.6624 25.9444V24.4241C11.6624 24.1756 11.4889 23.9608 11.2459 23.9086C9.98966 23.6387 8.80451 23.1476 7.72329 22.4489C7.51457 22.314 7.24003 22.3431 7.06422 22.5189L5.99229 23.5909L3.40477 21.0014L4.4758 19.9304C4.65151 19.7546 4.68073 19.4801 4.54578 19.2713C3.8471 18.1901 3.35599 17.005 3.0862 15.7488C3.03399 15.5058 2.81921 15.3322 2.57067 15.3322H1.05603V11.6715H2.57062C2.81921 11.6715 3.03394 11.4979 3.08615 11.2549C3.35599 9.9987 3.84705 8.8136 4.54573 7.73239C4.68068 7.52367 4.65146 7.24908 4.47575 7.07331L3.40472 6.00228L5.99223 3.41281L7.06416 4.48479C7.23998 4.66061 7.51452 4.68967 7.72324 4.55483C8.8044 3.85615 9.98955 3.36498 11.2458 3.09509C11.4888 3.04288 11.6624 2.82809 11.6624 2.57955V1.05685H12.9723V7.55757H12.9724ZM25.207 6.82715C24.7998 6.82715 24.4687 6.49598 24.4687 6.08892C24.4687 5.68186 24.7999 5.35069 25.207 5.35069C25.614 5.35069 25.9452 5.68186 25.9452 6.08892C25.9452 6.49598 25.614 6.82715 25.207 6.82715Z" fill="#BDBDBD"/>
<path d="M25.2063 11.7158C24.4012 11.7158 23.7184 12.2493 23.4927 12.9814H21.937C21.6458 12.9814 21.4097 13.2175 21.4097 13.5087C21.4097 13.7999 21.6458 14.036 21.937 14.036H23.4927C23.7184 14.768 24.4011 15.3016 25.2063 15.3016C26.1949 15.3016 26.9992 14.4973 26.9992 13.5087C26.9992 12.5201 26.1949 11.7158 25.2063 11.7158ZM25.2063 14.2469C24.7992 14.2469 24.4681 13.9157 24.4681 13.5087C24.4681 13.1016 24.7993 12.7705 25.2063 12.7705C25.6134 12.7705 25.9446 13.1016 25.9446 13.5087C25.9446 13.9157 25.6134 14.2469 25.2063 14.2469Z" fill="#BDBDBD"/>
</g>
<defs>
<clipPath id="clip0_604_1207">
<rect width="27" height="27" fill="white"/>
</clipPath>
</defs>
</svg>
