<svg width="39" height="39" viewBox="0 0 39 39" fill="none" xmlns="http://www.w3.org/2000/svg">
<path d="M10.9688 3.65625H12.1875V4.875H10.9688V3.65625Z" fill="#BDBDBD"/>
<path d="M13.4062 3.65625H18.2812V4.875H13.4062V3.65625Z" fill="#BDBDBD"/>
<path d="M24.9844 27.4219C24.9834 28.2297 24.6621 29.0041 24.0909 29.5753C23.5197 30.1465 22.7453 30.4678 21.9375 30.4688H10.8054L12.9005 26.8405C12.8342 27.0273 12.7992 27.2237 12.7969 27.4219C12.7969 27.9067 12.9895 28.3717 13.3323 28.7146C13.6752 29.0574 14.1401 29.25 14.625 29.25H17.0625C17.5473 29.25 18.0123 29.0574 18.3552 28.7146C18.698 28.3717 18.8906 27.9067 18.8906 27.4219C18.8906 26.937 18.698 26.472 18.3552 26.1292C18.0123 25.7864 17.5473 25.5938 17.0625 25.5938H14.625C14.3348 25.5943 14.049 25.6641 13.7913 25.7973C13.5335 25.9305 13.3113 26.1233 13.143 26.3597C13.385 25.7896 13.4003 25.1487 13.1858 24.5677C12.9713 23.9866 12.5432 23.5094 11.9888 23.2333C11.4344 22.9572 10.7956 22.903 10.2026 23.0819C9.60968 23.2608 9.10735 23.6592 8.79815 24.1958L6.72628 27.7863C6.71124 27.6654 6.70351 27.5437 6.70312 27.4219V5.48438C6.70409 4.67659 7.02541 3.90217 7.5966 3.33098C8.16779 2.75979 8.94221 2.43847 9.75 2.4375H21.9375C22.4721 2.43874 22.997 2.58005 23.46 2.84735C23.9229 3.11464 24.3077 3.49859 24.5761 3.96094L25.6309 3.35156C25.2553 2.70437 24.7166 2.1669 24.0686 1.79269C23.4206 1.41848 22.6858 1.2206 21.9375 1.21875H9.75C8.61908 1.22004 7.53485 1.66987 6.73517 2.46955C5.93549 3.26923 5.48566 4.35346 5.48437 5.48438V17.2453C5.09658 17.4258 4.78434 17.7365 4.602 18.1234L1.83605 24.1239C1.42659 25.0041 1.21584 25.9636 1.21875 26.9344V37.7812H2.4375V26.9344C2.43478 26.1406 2.60705 25.356 2.94206 24.6364L5.48437 19.1204V27.4219C5.48396 28.1497 5.6705 28.8654 6.02611 29.5005C6.07199 29.6032 6.14542 29.6912 6.23826 29.7548C6.3311 29.8184 6.43973 29.855 6.55211 29.8606C6.66449 29.8662 6.77624 29.8406 6.87495 29.7866C6.97367 29.7326 7.05551 29.6523 7.1114 29.5547L9.85359 24.8052C10.0164 24.5276 10.2823 24.3256 10.5935 24.2433C10.9046 24.1611 11.2357 24.2052 11.5144 24.3661C11.7931 24.5271 11.9968 24.7917 12.0812 25.1023C12.1655 25.4129 12.1235 25.7442 11.9645 26.024L9.22228 30.7734C9.1678 30.8677 9.13957 30.9749 9.14053 31.0837C9.1415 31.1926 9.17162 31.2993 9.22776 31.3926L10.533 33.5619C10.8178 34.0365 10.9684 34.5795 10.9687 35.1329V37.7752H12.1875V35.1329C12.1874 34.3583 11.9768 33.5984 11.5781 32.9343L10.828 31.6875H21.9375C23.0684 31.6862 24.1526 31.2364 24.9523 30.4367C25.752 29.637 26.2018 28.5528 26.2031 27.4219V24.375H24.9844V27.4219ZM14.625 26.8125H17.0625C17.2241 26.8125 17.3791 26.8767 17.4934 26.991C17.6077 27.1053 17.6719 27.2603 17.6719 27.4219C17.6719 27.5835 17.6077 27.7385 17.4934 27.8528C17.3791 27.967 17.2241 28.0312 17.0625 28.0312H14.625C14.4634 28.0312 14.3084 27.967 14.1941 27.8528C14.0798 27.7385 14.0156 27.5835 14.0156 27.4219C14.0156 27.2603 14.0798 27.1053 14.1941 26.991C14.3084 26.8767 14.4634 26.8125 14.625 26.8125Z" fill="#BDBDBD"/>
<path d="M36.0202 8.42196C34.6497 6.4603 32.6057 5.07115 30.2773 4.51898C27.9489 3.96682 25.4987 4.29022 23.3934 5.42759C21.288 6.56497 19.6744 8.4369 18.8598 10.687C18.0452 12.937 18.0866 15.4081 18.9759 17.6296L16.9163 21.1213C16.8569 21.2218 16.8276 21.3373 16.8319 21.454C16.8362 21.5706 16.874 21.6836 16.9406 21.7795C17.009 21.8751 17.1032 21.9494 17.2122 21.9936C17.3211 22.0378 17.4404 22.0502 17.5561 22.0293L21.5353 21.2859C22.8865 22.4971 24.55 23.3056 26.3372 23.6198C26.8988 23.7163 27.4675 23.7652 28.0374 23.766C29.821 23.7655 31.5703 23.2758 33.0949 22.3501C34.6194 21.4244 35.8609 20.0982 36.6841 18.5159C37.5073 16.9337 37.8807 15.1559 37.7636 13.3761C37.6465 11.5963 37.0435 9.88279 36.0202 8.42196ZM36.4345 15.4968C36.1665 17.017 35.4911 18.4359 34.4802 19.6025C33.4694 20.769 32.1609 21.6394 30.6944 22.121C29.2278 22.6026 27.6581 22.6772 26.1524 22.337C24.6468 21.9967 23.2617 21.2544 22.1447 20.189C22.0304 20.0829 21.8802 20.0241 21.7242 20.0245C21.6876 20.0234 21.6509 20.0255 21.6145 20.0306L18.6469 20.5851L20.1825 17.9891C20.2302 17.9055 20.2583 17.8122 20.2647 17.7161C20.271 17.62 20.2554 17.5238 20.2191 17.4346C19.5394 15.8966 19.3336 14.1908 19.628 12.5352C20.0207 10.3065 21.2827 8.32515 23.1363 7.02693C24.0541 6.38412 25.0896 5.92838 26.1835 5.68573C27.2775 5.44308 28.4085 5.41828 29.512 5.61274C30.6156 5.8072 31.67 6.21711 32.6151 6.81907C33.5602 7.42103 34.3775 8.20325 35.0203 9.12107C35.6632 10.0389 36.1189 11.0743 36.3615 12.1683C36.6042 13.2622 36.629 14.3933 36.4345 15.4968Z" fill="#BDBDBD"/>
<path d="M32.2969 10.3594H30.4688V9.75C30.4688 9.10353 30.2119 8.48355 29.7548 8.02643C29.2977 7.56931 28.6777 7.3125 28.0312 7.3125C27.3848 7.3125 26.7648 7.56931 26.3077 8.02643C25.8506 8.48355 25.5938 9.10353 25.5938 9.75V10.3594H23.7656C23.604 10.3594 23.449 10.4236 23.3347 10.5379C23.2205 10.6521 23.1562 10.8071 23.1562 10.9688V18.2812C23.1577 18.7657 23.3508 19.2298 23.6933 19.5723C24.0358 19.9149 24.5 20.1079 24.9844 20.1094H31.0781C31.5625 20.1079 32.0267 19.9149 32.3692 19.5723C32.7117 19.2298 32.9048 18.7657 32.9062 18.2812V10.9688C32.9062 10.8071 32.842 10.6521 32.7278 10.5379C32.6135 10.4236 32.4585 10.3594 32.2969 10.3594ZM26.8125 9.75C26.8125 9.42677 26.9409 9.11677 27.1695 8.88821C27.398 8.65965 27.708 8.53125 28.0312 8.53125C28.3545 8.53125 28.6645 8.65965 28.893 8.88821C29.1216 9.11677 29.25 9.42677 29.25 9.75V10.3594H26.8125V9.75ZM31.6875 18.2812C31.6875 18.4429 31.6233 18.5979 31.509 18.7121C31.3947 18.8264 31.2397 18.8906 31.0781 18.8906H24.9844C24.8228 18.8906 24.6678 18.8264 24.5535 18.7121C24.4392 18.5979 24.375 18.4429 24.375 18.2812V17.6719H31.6875V18.2812ZM31.6875 16.4531H24.375V11.5781H25.5938V12.7969H26.8125V11.5781H29.25V12.7969H30.4688V11.5781H31.6875V16.4531Z" fill="#BDBDBD"/>
<path d="M13.5848 9.31934L12.6464 10.2578C12.0147 9.83969 11.2503 9.67109 10.5013 9.78469C9.75241 9.8983 9.07236 10.286 8.59308 10.8726C8.11381 11.4592 7.86948 12.2029 7.90747 12.9594C7.94547 13.716 8.26308 14.4314 8.79871 14.9671C9.33435 15.5027 10.0498 15.8203 10.8064 15.8583C11.5629 15.8963 12.3066 15.652 12.8932 15.1727C13.4798 14.6934 13.8675 14.0134 13.9811 13.2645C14.0947 12.5155 13.9261 11.7511 13.508 11.1194L14.4465 10.181L13.5848 9.31934ZM12.7969 12.797C12.7969 13.1586 12.6897 13.5121 12.4888 13.8127C12.2879 14.1133 12.0024 14.3476 11.6683 14.486C11.3343 14.6244 10.9667 14.6606 10.6121 14.59C10.2575 14.5195 9.93174 14.3454 9.67607 14.0897C9.42041 13.8341 9.24629 13.5083 9.17576 13.1537C9.10522 12.7991 9.14142 12.4315 9.27979 12.0974C9.41815 11.7634 9.65247 11.4779 9.9531 11.277C10.2537 11.0761 10.6072 10.9689 10.9688 10.9689C11.2402 10.97 11.5079 11.0325 11.7518 11.1517L9.92855 12.975L10.7902 13.8366L12.6141 12.014C12.7333 12.2579 12.7958 12.5256 12.7969 12.797Z" fill="#BDBDBD"/>
<path d="M15.2344 10.9688H17.6719V12.1875H15.2344V10.9688Z" fill="#BDBDBD"/>
<path d="M15.2344 13.4062H17.6719V14.625H15.2344V13.4062Z" fill="#BDBDBD"/>
</svg>
