<svg width="29" height="29" viewBox="0 0 29 29" fill="none" xmlns="http://www.w3.org/2000/svg">
<path d="M25.7077 27.2706H3.29227C1.47703 27.2706 0 25.7936 0 23.9783V4.97391C0 3.15867 1.47703 1.68164 3.29227 1.68164H25.7077C27.523 1.68164 29 3.15867 29 4.97391V23.9783C29 25.7936 27.523 27.2706 25.7077 27.2706ZM3.29227 2.66232C2.01772 2.66232 0.980676 3.69936 0.980676 4.97391V23.9783C0.980676 25.2529 2.01772 26.2899 3.29227 26.2899H25.7077C26.9823 26.2899 28.0193 25.2529 28.0193 23.9783V4.97391C28.0193 3.69936 26.9823 2.66232 25.7077 2.66232H3.29227Z" fill="#BDBDBD"/>
<path d="M24.5743 19.7844H16.8693C16.5984 19.7844 16.379 19.5649 16.379 19.294C16.379 19.0234 16.5984 18.8037 16.8693 18.8037H24.5743C24.845 18.8037 25.0647 19.0234 25.0647 19.294C25.0647 19.5649 24.8452 19.7844 24.5743 19.7844Z" fill="#BDBDBD"/>
<path d="M24.5743 23.3293H16.8693C16.5984 23.3293 16.379 23.1099 16.379 22.839C16.379 22.5684 16.5984 22.3486 16.8693 22.3486H24.5743C24.845 22.3486 25.0647 22.5684 25.0647 22.839C25.0647 23.1099 24.8452 23.3293 24.5743 23.3293Z" fill="#BDBDBD"/>
<path d="M24.5743 12.6936H16.8693C16.5984 12.6936 16.379 12.4741 16.379 12.2032C16.379 11.9326 16.5984 11.7129 16.8693 11.7129H24.5743C24.845 11.7129 25.0647 11.9326 25.0647 12.2032C25.0647 12.4741 24.8452 12.6936 24.5743 12.6936Z" fill="#BDBDBD"/>
<path d="M24.5743 16.2385H16.8693C16.5984 16.2385 16.379 16.019 16.379 15.7482C16.379 15.4775 16.5984 15.2578 16.8693 15.2578H24.5743C24.845 15.2578 25.0647 15.4775 25.0647 15.7482C25.0647 16.019 24.8452 16.2385 24.5743 16.2385Z" fill="#BDBDBD"/>
<path d="M28.5097 8.24728H0.490338C0.219448 8.24728 0 8.02783 0 7.75694C0 7.48605 0.219448 7.2666 0.490338 7.2666H28.5097C28.7806 7.2666 29 7.48605 29 7.75694C29 8.02783 28.7806 8.24728 28.5097 8.24728Z" fill="#BDBDBD"/>
<path d="M7.06886 6.49875C6.22746 6.49875 5.54285 5.81441 5.54285 4.97301C5.54285 4.1316 6.22746 3.44727 7.06886 3.44727C7.91026 3.44727 8.5946 4.1316 8.5946 4.97301C8.5946 5.81441 7.91026 6.49875 7.06886 6.49875ZM7.06886 4.42794C6.76814 4.42794 6.52352 4.67256 6.52352 4.97301C6.52352 5.27345 6.76814 5.51807 7.06886 5.51807C7.3693 5.51807 7.61392 5.27345 7.61392 4.97301C7.61392 4.67256 7.3693 4.42794 7.06886 4.42794Z" fill="#BDBDBD"/>
<path d="M3.53581 6.49875C2.69468 6.49875 2.01007 5.81441 2.01007 4.97301C2.01007 4.1316 2.69468 3.44727 3.53581 3.44727C4.37721 3.44727 5.06182 4.1316 5.06182 4.97301C5.06182 5.81441 4.37721 6.49875 3.53581 6.49875ZM3.53581 4.42794C3.23537 4.42794 2.99075 4.67256 2.99075 4.97301C2.99075 5.27345 3.23537 5.51807 3.53581 5.51807C3.83653 5.51807 4.08115 5.27345 4.08115 4.97301C4.08115 4.67256 3.83653 4.42794 3.53581 4.42794Z" fill="#BDBDBD"/>
<path d="M10.6017 6.49875C9.76027 6.49875 9.07593 5.81441 9.07593 4.97301C9.07593 4.1316 9.76027 3.44727 10.6017 3.44727C11.4431 3.44727 12.1277 4.1316 12.1277 4.97301C12.1277 5.81441 11.4431 6.49875 10.6017 6.49875ZM10.6017 4.42794C10.301 4.42794 10.0566 4.67256 10.0566 4.97301C10.0566 5.27345 10.3012 5.51807 10.6017 5.51807C10.9024 5.51807 11.147 5.27345 11.147 4.97301C11.147 4.67256 10.9024 4.42794 10.6017 4.42794Z" fill="#BDBDBD"/>
<path d="M13.1691 23.3289H4.27293C4.00204 23.3289 3.78259 23.1094 3.78259 22.8385V12.2032C3.78259 11.9326 4.00204 11.7129 4.27293 11.7129H13.1691C13.44 11.7129 13.6594 11.9326 13.6594 12.2032V22.8385C13.6594 23.1094 13.44 23.3289 13.1691 23.3289ZM4.76327 22.3482H12.6787V12.6936H4.76327V22.3482Z" fill="#BDBDBD"/>
</svg>
