<svg width="59" height="65" viewBox="0 0 59 65" fill="none" xmlns="http://www.w3.org/2000/svg">
<mask id="path-1-outside-1_178_164" maskUnits="userSpaceOnUse" x="-0.28418" y="0" width="59" height="65" fill="black">
<rect fill="white" x="-0.28418" width="59" height="65"/>
<path fill-rule="evenodd" clip-rule="evenodd" d="M56.2305 19.3309L55.6399 19.9215L56.5298 20.8117C58.8679 23.1499 58.8679 26.9544 56.5298 29.2927L49.8819 35.9406C49.4078 36.4146 48.6159 36.4146 48.1418 35.9406C47.6613 35.46 47.6613 34.6809 48.1418 34.2004L54.7896 27.5524C56.1684 26.1738 56.1684 23.9304 54.7896 22.5518L53.8997 21.6619L46.335 29.2267V59.3326C46.335 61.9062 44.2411 64.0001 41.6674 64.0001H5.38336C2.80971 64.0001 0.71582 61.9062 0.71582 59.3326V15.5107V8.13967C0.71582 5.56602 2.80971 3.47213 5.38336 3.47213H10.2806V2.23047C10.2806 1.551 10.8315 1 11.5111 1C12.1907 1 12.7416 1.551 12.7416 2.23047V3.47213H18.3526V2.23047C18.3526 1.551 18.9035 1 19.5831 1C20.2627 1 20.8136 1.551 20.8136 2.23047V3.47213H26.4246V2.23047C26.4246 1.551 26.9755 1 27.6551 1C28.3347 1 28.8856 1.551 28.8856 2.23047V3.47213H34.4966V2.23047C34.4966 1.551 35.0475 1 35.7271 1C36.4067 1 36.9576 1.551 36.9576 2.23047V3.47201H41.6674C44.2075 3.47189 46.335 5.59691 46.335 8.13955V12.6739L47.9543 11.0547C50.2101 8.79871 53.9747 8.79871 56.2305 11.0547C58.4863 13.3105 58.4862 17.0751 56.2305 19.3309ZM31.6093 30.88L36.4053 35.6758L52.1595 19.9217L47.3636 15.1257L31.6093 30.88ZM25.6024 44.641C26.1415 44.2929 26.6818 43.944 27.226 43.5969C29.8409 41.7232 32.3227 39.659 34.6573 37.408L29.8772 32.628C25.2228 37.4551 21.3027 42.9902 18.2995 48.9859C20.8606 47.703 23.2193 46.1799 25.6024 44.641ZM54.4902 12.7948C53.8498 12.1542 52.9982 11.8014 52.0923 11.8014C51.1866 11.8014 50.335 12.1542 49.6944 12.7948L49.1038 13.3854L53.8996 18.1814L54.4902 17.5908C55.797 16.2838 55.7973 14.1017 54.4902 12.7948ZM5.38336 5.93295C4.16655 5.93295 3.17676 6.92286 3.17676 8.13955V14.2802H43.8741V8.13967C43.8741 6.9391 42.8681 5.93307 41.6675 5.93307H36.9577V7.33765C36.9577 8.01712 36.4068 8.56812 35.7272 8.56812C35.0476 8.56812 34.4967 8.01712 34.4967 7.33765V5.93307H28.8857V7.33765C28.8857 8.01712 28.3348 8.56812 27.6552 8.56812C26.9756 8.56812 26.4247 8.01712 26.4247 7.33765V5.93307H20.8137V7.33765C20.8137 8.01712 20.2628 8.56812 19.5832 8.56812C18.9036 8.56812 18.3527 8.01712 18.3527 7.33765V5.93307H12.7417V7.33753C12.7417 8.01699 12.1908 8.568 11.5112 8.568C10.8316 8.568 10.2807 8.01699 10.2807 7.33753V5.93295H5.38336ZM41.6674 61.5391C42.8842 61.5391 43.874 60.5491 43.874 59.3325V31.6875L37.2755 38.286C35.4572 40.1043 33.5493 41.8108 31.5583 43.4036H37.7361C38.4157 43.4036 38.9665 43.9546 38.9665 44.634C38.9665 45.3135 38.4157 45.8645 37.7361 45.8645H28.2871C24.5852 48.4797 20.6273 50.7262 16.4426 52.5822L16.2085 52.8155H22.0167C22.6963 52.8155 23.2472 53.3665 23.2472 54.046C23.2472 54.7255 22.6963 55.2765 22.0167 55.2765H9.49767C8.81809 55.2765 8.26721 54.7255 8.26721 54.046C8.26721 53.3665 8.81809 52.8155 9.49767 52.8155H12.7217L14.704 50.8404C15.4565 49.1439 16.273 47.4845 17.1523 45.8645H9.49767C8.81809 45.8645 8.26721 45.3135 8.26721 44.634C8.26721 43.9546 8.81809 43.4036 9.49767 43.4036H18.5556C19.997 40.9902 21.5828 38.6708 23.3089 36.4525H9.49767C8.81809 36.4525 8.26721 35.9015 8.26721 35.222C8.26721 34.5426 8.81809 33.9916 9.49767 33.9916H25.3167C26.488 32.6216 27.7153 31.2936 28.9984 30.0105L28.999 30.0098L31.9682 27.0405H9.49767C8.81809 27.0405 8.26721 26.4895 8.26721 25.8101C8.26721 25.1306 8.81809 24.5796 9.49767 24.5796H34.4292L42.2678 16.741H3.17676V59.3325C3.17676 60.5491 4.16667 61.5391 5.38336 61.5391H41.6674ZM37.7362 52.8156H32.7595C32.08 52.8156 31.5291 53.3666 31.5291 54.046C31.5291 54.7255 32.08 55.2765 32.7595 55.2765H37.7362C38.4158 55.2765 38.9666 54.7255 38.9666 54.046C38.9666 53.3666 38.4158 52.8156 37.7362 52.8156ZM28.5942 53.5753C28.3921 53.0906 27.8922 52.7801 27.3673 52.8193C26.8544 52.8575 26.4106 53.2225 26.2728 53.7175C25.9765 54.7821 27.1917 55.6735 28.1189 55.0834C28.616 54.7673 28.8206 54.119 28.5942 53.5753Z"/>
</mask>
<path fill-rule="evenodd" clip-rule="evenodd" d="M56.2305 19.3309L55.6399 19.9215L56.5298 20.8117C58.8679 23.1499 58.8679 26.9544 56.5298 29.2927L49.8819 35.9406C49.4078 36.4146 48.6159 36.4146 48.1418 35.9406C47.6613 35.46 47.6613 34.6809 48.1418 34.2004L54.7896 27.5524C56.1684 26.1738 56.1684 23.9304 54.7896 22.5518L53.8997 21.6619L46.335 29.2267V59.3326C46.335 61.9062 44.2411 64.0001 41.6674 64.0001H5.38336C2.80971 64.0001 0.71582 61.9062 0.71582 59.3326V15.5107V8.13967C0.71582 5.56602 2.80971 3.47213 5.38336 3.47213H10.2806V2.23047C10.2806 1.551 10.8315 1 11.5111 1C12.1907 1 12.7416 1.551 12.7416 2.23047V3.47213H18.3526V2.23047C18.3526 1.551 18.9035 1 19.5831 1C20.2627 1 20.8136 1.551 20.8136 2.23047V3.47213H26.4246V2.23047C26.4246 1.551 26.9755 1 27.6551 1C28.3347 1 28.8856 1.551 28.8856 2.23047V3.47213H34.4966V2.23047C34.4966 1.551 35.0475 1 35.7271 1C36.4067 1 36.9576 1.551 36.9576 2.23047V3.47201H41.6674C44.2075 3.47189 46.335 5.59691 46.335 8.13955V12.6739L47.9543 11.0547C50.2101 8.79871 53.9747 8.79871 56.2305 11.0547C58.4863 13.3105 58.4862 17.0751 56.2305 19.3309ZM31.6093 30.88L36.4053 35.6758L52.1595 19.9217L47.3636 15.1257L31.6093 30.88ZM25.6024 44.641C26.1415 44.2929 26.6818 43.944 27.226 43.5969C29.8409 41.7232 32.3227 39.659 34.6573 37.408L29.8772 32.628C25.2228 37.4551 21.3027 42.9902 18.2995 48.9859C20.8606 47.703 23.2193 46.1799 25.6024 44.641ZM54.4902 12.7948C53.8498 12.1542 52.9982 11.8014 52.0923 11.8014C51.1866 11.8014 50.335 12.1542 49.6944 12.7948L49.1038 13.3854L53.8996 18.1814L54.4902 17.5908C55.797 16.2838 55.7973 14.1017 54.4902 12.7948ZM5.38336 5.93295C4.16655 5.93295 3.17676 6.92286 3.17676 8.13955V14.2802H43.8741V8.13967C43.8741 6.9391 42.8681 5.93307 41.6675 5.93307H36.9577V7.33765C36.9577 8.01712 36.4068 8.56812 35.7272 8.56812C35.0476 8.56812 34.4967 8.01712 34.4967 7.33765V5.93307H28.8857V7.33765C28.8857 8.01712 28.3348 8.56812 27.6552 8.56812C26.9756 8.56812 26.4247 8.01712 26.4247 7.33765V5.93307H20.8137V7.33765C20.8137 8.01712 20.2628 8.56812 19.5832 8.56812C18.9036 8.56812 18.3527 8.01712 18.3527 7.33765V5.93307H12.7417V7.33753C12.7417 8.01699 12.1908 8.568 11.5112 8.568C10.8316 8.568 10.2807 8.01699 10.2807 7.33753V5.93295H5.38336ZM41.6674 61.5391C42.8842 61.5391 43.874 60.5491 43.874 59.3325V31.6875L37.2755 38.286C35.4572 40.1043 33.5493 41.8108 31.5583 43.4036H37.7361C38.4157 43.4036 38.9665 43.9546 38.9665 44.634C38.9665 45.3135 38.4157 45.8645 37.7361 45.8645H28.2871C24.5852 48.4797 20.6273 50.7262 16.4426 52.5822L16.2085 52.8155H22.0167C22.6963 52.8155 23.2472 53.3665 23.2472 54.046C23.2472 54.7255 22.6963 55.2765 22.0167 55.2765H9.49767C8.81809 55.2765 8.26721 54.7255 8.26721 54.046C8.26721 53.3665 8.81809 52.8155 9.49767 52.8155H12.7217L14.704 50.8404C15.4565 49.1439 16.273 47.4845 17.1523 45.8645H9.49767C8.81809 45.8645 8.26721 45.3135 8.26721 44.634C8.26721 43.9546 8.81809 43.4036 9.49767 43.4036H18.5556C19.997 40.9902 21.5828 38.6708 23.3089 36.4525H9.49767C8.81809 36.4525 8.26721 35.9015 8.26721 35.222C8.26721 34.5426 8.81809 33.9916 9.49767 33.9916H25.3167C26.488 32.6216 27.7153 31.2936 28.9984 30.0105L28.999 30.0098L31.9682 27.0405H9.49767C8.81809 27.0405 8.26721 26.4895 8.26721 25.8101C8.26721 25.1306 8.81809 24.5796 9.49767 24.5796H34.4292L42.2678 16.741H3.17676V59.3325C3.17676 60.5491 4.16667 61.5391 5.38336 61.5391H41.6674ZM37.7362 52.8156H32.7595C32.08 52.8156 31.5291 53.3666 31.5291 54.046C31.5291 54.7255 32.08 55.2765 32.7595 55.2765H37.7362C38.4158 55.2765 38.9666 54.7255 38.9666 54.046C38.9666 53.3666 38.4158 52.8156 37.7362 52.8156ZM28.5942 53.5753C28.3921 53.0906 27.8922 52.7801 27.3673 52.8193C26.8544 52.8575 26.4106 53.2225 26.2728 53.7175C25.9765 54.7821 27.1917 55.6735 28.1189 55.0834C28.616 54.7673 28.8206 54.119 28.5942 53.5753Z" fill="#212121"/>
<path d="M55.6399 19.9215L55.4985 19.7801L55.3571 19.9215L55.4984 20.0629L55.6399 19.9215ZM56.2305 19.3309L56.3719 19.4723L56.3719 19.4723L56.2305 19.3309ZM56.5298 20.8117L56.3883 20.9531L56.3883 20.9531L56.5298 20.8117ZM56.5298 29.2927L56.6712 29.4341V29.4341L56.5298 29.2927ZM49.8819 35.9406L50.0233 36.0821L50.0233 36.0821L49.8819 35.9406ZM48.1418 35.9406L48.0003 36.082L48.0004 36.0821L48.1418 35.9406ZM48.1418 34.2004L48.2832 34.3418L48.2832 34.3418L48.1418 34.2004ZM54.7896 27.5524L54.6482 27.411L54.6482 27.411L54.7896 27.5524ZM54.7896 22.5518L54.6482 22.6932L54.6482 22.6932L54.7896 22.5518ZM53.8997 21.6619L54.0412 21.5205L53.8997 21.3791L53.7583 21.5205L53.8997 21.6619ZM46.335 29.2267L46.1935 29.0853L46.135 29.1439V29.2267H46.335ZM10.2806 3.47213V3.67213H10.4806V3.47213H10.2806ZM12.7416 3.47213H12.5416V3.67213H12.7416V3.47213ZM18.3526 3.47213V3.67213H18.5526V3.47213H18.3526ZM20.8136 3.47213H20.6136V3.67213H20.8136V3.47213ZM26.4246 3.47213V3.67213H26.6246V3.47213H26.4246ZM28.8856 3.47213H28.6856V3.67213H28.8856V3.47213ZM34.4966 3.47213V3.67213H34.6966V3.47213H34.4966ZM36.9576 3.47201H36.7575V3.67201H36.9576V3.47201ZM41.6674 3.47201V3.67201H41.6674L41.6674 3.47201ZM46.335 12.6739H46.135V13.1568L46.4764 12.8154L46.335 12.6739ZM47.9543 11.0547L48.0957 11.1961L48.0957 11.1961L47.9543 11.0547ZM56.2305 11.0547L56.0891 11.1961L56.0891 11.1961L56.2305 11.0547ZM36.4053 35.6758L36.2639 35.8173L36.4053 35.9587L36.5467 35.8173L36.4053 35.6758ZM31.6093 30.88L31.4679 30.7385L31.3265 30.88L31.4679 31.0214L31.6093 30.88ZM52.1595 19.9217L52.3009 20.0631L52.4423 19.9217L52.3009 19.7802L52.1595 19.9217ZM47.3636 15.1257L47.505 14.9842L47.3636 14.8428L47.2222 14.9842L47.3636 15.1257ZM27.226 43.5969L27.3337 43.7657L27.3425 43.7594L27.226 43.5969ZM25.6024 44.641L25.7109 44.809L25.6024 44.641ZM34.6573 37.408L34.7961 37.5519L34.9428 37.4106L34.7987 37.2665L34.6573 37.408ZM29.8772 32.628L30.0186 32.4865L29.8746 32.3425L29.7332 32.4891L29.8772 32.628ZM18.2995 48.9859L18.1206 48.8964L17.8513 49.4341L18.389 49.1648L18.2995 48.9859ZM54.4902 12.7948L54.3488 12.9362L54.3488 12.9362L54.4902 12.7948ZM49.6944 12.7948L49.8358 12.9362V12.9362L49.6944 12.7948ZM49.1038 13.3854L48.9623 13.244L48.8209 13.3854L48.9623 13.5268L49.1038 13.3854ZM53.8996 18.1814L53.7582 18.3228L53.8996 18.4642L54.041 18.3228L53.8996 18.1814ZM54.4902 17.5908L54.6317 17.7322L54.6317 17.7322L54.4902 17.5908ZM3.17676 14.2802H2.97676V14.4802H3.17676V14.2802ZM43.8741 14.2802V14.4802H44.0741V14.2802H43.8741ZM36.9577 5.93307V5.73307H36.7577V5.93307H36.9577ZM34.4967 5.93307H34.6967V5.73307H34.4967V5.93307ZM28.8857 5.93307V5.73307H28.6857V5.93307H28.8857ZM26.4247 5.93307H26.6247V5.73307H26.4247V5.93307ZM20.8137 5.93307V5.73307H20.6137V5.93307H20.8137ZM18.3527 5.93307H18.5527V5.73307H18.3527V5.93307ZM12.7417 5.93307V5.73307H12.5417V5.93307H12.7417ZM10.2807 5.93295H10.4807V5.73295H10.2807V5.93295ZM43.874 31.6875H44.074V31.2047L43.7326 31.5461L43.874 31.6875ZM37.2755 38.286L37.1341 38.1446L37.2755 38.286ZM31.5583 43.4036L31.4333 43.2474L30.9881 43.6036H31.5583V43.4036ZM28.2871 45.8645V45.6645H28.2235L28.1717 45.7011L28.2871 45.8645ZM16.4426 52.5822L16.3615 52.3994L16.3276 52.4144L16.3014 52.4406L16.4426 52.5822ZM16.2085 52.8155L16.0673 52.6739L15.7246 53.0155H16.2085V52.8155ZM12.7217 52.8155V53.0155H12.8044L12.8629 52.9572L12.7217 52.8155ZM14.704 50.8404L14.8452 50.9821L14.8717 50.9557L14.8869 50.9215L14.704 50.8404ZM17.1523 45.8645L17.3281 45.9599L17.4884 45.6645H17.1523V45.8645ZM18.5556 43.4036V43.6036H18.6691L18.7274 43.5061L18.5556 43.4036ZM23.3089 36.4525L23.4668 36.5753L23.718 36.2525H23.3089V36.4525ZM25.3167 33.9916V34.1916H25.4088L25.4687 34.1215L25.3167 33.9916ZM28.9984 30.0105L29.1398 30.1519L29.1463 30.1455L29.1521 30.1385L28.9984 30.0105ZM28.999 30.0098L28.8576 29.8684L28.8511 29.8748L28.8453 29.8818L28.999 30.0098ZM31.9682 27.0405L32.1097 27.182L32.4511 26.8405H31.9682V27.0405ZM34.4292 24.5796V24.7796H34.512L34.5706 24.721L34.4292 24.5796ZM42.2678 16.741L42.4092 16.8824L42.7506 16.541H42.2678V16.741ZM3.17676 16.741V16.541H2.97676V16.741H3.17676ZM27.3673 52.8193L27.3524 52.6198L27.3524 52.6198L27.3673 52.8193ZM28.5942 53.5753L28.7788 53.4984L28.7788 53.4983L28.5942 53.5753ZM26.2728 53.7175L26.0801 53.6639L26.0801 53.6639L26.2728 53.7175ZM28.1189 55.0834L28.0115 54.9147L28.0115 54.9147L28.1189 55.0834ZM55.7813 20.063L56.3719 19.4723L56.0891 19.1895L55.4985 19.7801L55.7813 20.063ZM56.6712 20.6703L55.7813 19.7801L55.4984 20.0629L56.3883 20.9531L56.6712 20.6703ZM56.6712 29.4341C59.0874 27.0177 59.0874 23.0866 56.6712 20.6702L56.3883 20.9531C58.6484 23.2132 58.6484 26.8911 56.3883 29.1512L56.6712 29.4341ZM50.0233 36.0821L56.6712 29.4341L56.3883 29.1512L49.7405 35.7992L50.0233 36.0821ZM48.0004 36.0821C48.5526 36.6341 49.4711 36.6341 50.0233 36.0821L49.7405 35.7992C49.3445 36.1951 48.6792 36.1951 48.2832 35.7992L48.0004 36.0821ZM48.0003 34.059C47.4417 34.6176 47.4418 35.5233 48.0003 36.082L48.2832 35.7992C47.8808 35.3967 47.8808 34.7442 48.2832 34.3418L48.0003 34.059ZM54.6482 27.411L48.0003 34.059L48.2832 34.3418L54.931 27.6938L54.6482 27.411ZM54.6482 22.6932C55.9488 23.9937 55.9488 26.1105 54.6482 27.411L54.931 27.6938C56.3879 26.2371 56.3879 23.8671 54.931 22.4104L54.6482 22.6932ZM53.7583 21.8033L54.6482 22.6932L54.931 22.4104L54.0412 21.5205L53.7583 21.8033ZM46.4764 29.3681L54.0412 21.8033L53.7583 21.5205L46.1935 29.0853L46.4764 29.3681ZM46.535 59.3326V29.2267H46.135V59.3326H46.535ZM41.6674 64.2001C44.3515 64.2001 46.535 62.0167 46.535 59.3326H46.135C46.135 61.7958 44.1306 63.8001 41.6674 63.8001V64.2001ZM5.38336 64.2001H41.6674V63.8001H5.38336V64.2001ZM0.51582 59.3326C0.51582 62.0167 2.69925 64.2001 5.38336 64.2001V63.8001C2.92017 63.8001 0.91582 61.7958 0.91582 59.3326H0.51582ZM0.51582 15.5107V59.3326H0.91582V15.5107H0.51582ZM0.51582 8.13967V15.5107H0.91582V8.13967H0.51582ZM5.38336 3.27213C2.69925 3.27213 0.51582 5.45557 0.51582 8.13967H0.91582C0.91582 5.67648 2.92017 3.67213 5.38336 3.67213V3.27213ZM10.2806 3.27213H5.38336V3.67213H10.2806V3.27213ZM10.0806 2.23047V3.47213H10.4806V2.23047H10.0806ZM11.5111 0.8C10.721 0.8 10.0806 1.44056 10.0806 2.23047H10.4806C10.4806 1.66145 10.942 1.2 11.5111 1.2V0.8ZM12.9416 2.23047C12.9416 1.44056 12.3011 0.8 11.5111 0.8V1.2C12.0802 1.2 12.5416 1.66145 12.5416 2.23047H12.9416ZM12.9416 3.47213V2.23047H12.5416V3.47213H12.9416ZM18.3526 3.27213H12.7416V3.67213H18.3526V3.27213ZM18.1526 2.23047V3.47213H18.5526V2.23047H18.1526ZM19.5831 0.8C18.793 0.8 18.1526 1.44056 18.1526 2.23047H18.5526C18.5526 1.66145 19.014 1.2 19.5831 1.2V0.8ZM21.0136 2.23047C21.0136 1.44056 20.3731 0.8 19.5831 0.8V1.2C20.1522 1.2 20.6136 1.66145 20.6136 2.23047H21.0136ZM21.0136 3.47213V2.23047H20.6136V3.47213H21.0136ZM26.4246 3.27213H20.8136V3.67213H26.4246V3.27213ZM26.2246 2.23047V3.47213H26.6246V2.23047H26.2246ZM27.6551 0.8C26.865 0.8 26.2246 1.44056 26.2246 2.23047H26.6246C26.6246 1.66145 27.086 1.2 27.6551 1.2V0.8ZM29.0856 2.23047C29.0856 1.44056 28.4451 0.8 27.6551 0.8V1.2C28.2242 1.2 28.6856 1.66145 28.6856 2.23047H29.0856ZM29.0856 3.47213V2.23047H28.6856V3.47213H29.0856ZM34.4966 3.27213H28.8856V3.67213H34.4966V3.27213ZM34.2966 2.23047V3.47213H34.6966V2.23047H34.2966ZM35.7271 0.8C34.937 0.8 34.2966 1.44056 34.2966 2.23047H34.6966C34.6966 1.66145 35.158 1.2 35.7271 1.2V0.8ZM37.1575 2.23047C37.1575 1.44056 36.5171 0.8 35.7271 0.8V1.2C36.2962 1.2 36.7575 1.66145 36.7575 2.23047H37.1575ZM37.1575 3.47201V2.23047H36.7575V3.47201H37.1575ZM41.6674 3.27201H36.9576V3.67201H41.6674V3.27201ZM46.535 8.13955C46.535 5.48639 44.3179 3.27188 41.6674 3.27201L41.6674 3.67201C44.0971 3.67189 46.135 5.70743 46.135 8.13955H46.535ZM46.535 12.6739V8.13955H46.135V12.6739H46.535ZM47.8128 10.9132L46.1935 12.5325L46.4764 12.8154L48.0957 11.1961L47.8128 10.9132ZM56.3719 10.9132C54.038 8.57918 50.1467 8.57918 47.8128 10.9132L48.0957 11.1961C50.2734 9.01824 53.9114 9.01824 56.0891 11.1961L56.3719 10.9132ZM56.3719 19.4723C58.7057 17.1384 58.7058 13.2472 56.3719 10.9132L56.0891 11.1961C58.2668 13.3738 58.2667 17.0118 56.0891 19.1895L56.3719 19.4723ZM36.5467 35.5344L31.7507 30.7385L31.4679 31.0214L36.2639 35.8173L36.5467 35.5344ZM52.0181 19.7802L36.2639 35.5344L36.5467 35.8173L52.3009 20.0631L52.0181 19.7802ZM47.2222 15.2671L52.0181 20.0631L52.3009 19.7802L47.505 14.9842L47.2222 15.2671ZM31.7507 31.0214L47.505 15.2671L47.2222 14.9842L31.4679 30.7385L31.7507 31.0214ZM27.1185 43.4282C26.5737 43.7757 26.0329 44.1249 25.4939 44.473L25.7109 44.809C26.2501 44.4609 26.7899 44.1122 27.3336 43.7655L27.1185 43.4282ZM34.5185 37.264C32.1909 39.5082 29.7166 41.5663 27.1095 43.4343L27.3425 43.7594C29.9652 41.8802 32.4545 39.8097 34.7961 37.5519L34.5185 37.264ZM29.7358 32.7694L34.5159 37.5494L34.7987 37.2665L30.0186 32.4865L29.7358 32.7694ZM18.4783 49.0755C21.4724 43.0979 25.3808 37.5794 30.0212 32.7668L29.7332 32.4891C25.0648 37.3308 21.1329 42.8825 18.1206 48.8964L18.4783 49.0755ZM25.4939 44.473C23.1094 46.0128 20.7597 47.5299 18.2099 48.8071L18.389 49.1648C20.9615 47.8761 23.3293 46.347 25.7109 44.809L25.4939 44.473ZM52.0923 12.0014C52.9451 12.0014 53.7459 12.3331 54.3488 12.9362L54.6317 12.6534C53.9537 11.9753 53.0512 11.6014 52.0923 11.6014V12.0014ZM49.8358 12.9362C50.4389 12.3331 51.2396 12.0014 52.0923 12.0014V11.6014C51.1335 11.6014 50.231 11.9753 49.553 12.6534L49.8358 12.9362ZM49.2452 13.5268L49.8358 12.9362L49.553 12.6534L48.9623 13.244L49.2452 13.5268ZM54.041 18.04L49.2452 13.244L48.9623 13.5268L53.7582 18.3228L54.041 18.04ZM54.3488 17.4494L53.7582 18.04L54.041 18.3228L54.6317 17.7322L54.3488 17.4494ZM54.3488 12.9362C55.5777 14.165 55.5775 16.2204 54.3488 17.4494L54.6317 17.7322C56.0165 16.3471 56.0168 14.0384 54.6317 12.6534L54.3488 12.9362ZM3.37676 8.13955C3.37676 7.03331 4.27701 6.13295 5.38336 6.13295V5.73295C4.05608 5.73295 2.97676 6.81241 2.97676 8.13955H3.37676ZM3.37676 14.2802V8.13955H2.97676V14.2802H3.37676ZM43.8741 14.0802H3.17676V14.4802H43.8741V14.0802ZM43.6741 8.13967V14.2802H44.0741V8.13967H43.6741ZM41.6675 6.13307C42.7577 6.13307 43.6741 7.04956 43.6741 8.13967H44.0741C44.0741 6.82865 42.9786 5.73307 41.6675 5.73307V6.13307ZM36.9577 6.13307H41.6675V5.73307H36.9577V6.13307ZM37.1577 7.33765V5.93307H36.7577V7.33765H37.1577ZM35.7272 8.76812C36.5173 8.76812 37.1577 8.12756 37.1577 7.33765H36.7577C36.7577 7.90667 36.2963 8.36812 35.7272 8.36812V8.76812ZM34.2967 7.33765C34.2967 8.12756 34.9371 8.76812 35.7272 8.76812V8.36812C35.1581 8.36812 34.6967 7.90667 34.6967 7.33765H34.2967ZM34.2967 5.93307V7.33765H34.6967V5.93307H34.2967ZM28.8857 6.13307H34.4967V5.73307H28.8857V6.13307ZM29.0857 7.33765V5.93307H28.6857V7.33765H29.0857ZM27.6552 8.76812C28.4453 8.76812 29.0857 8.12756 29.0857 7.33765H28.6857C28.6857 7.90667 28.2243 8.36812 27.6552 8.36812V8.76812ZM26.2247 7.33765C26.2247 8.12756 26.8651 8.76812 27.6552 8.76812V8.36812C27.0861 8.36812 26.6247 7.90667 26.6247 7.33765H26.2247ZM26.2247 5.93307V7.33765H26.6247V5.93307H26.2247ZM20.8137 6.13307H26.4247V5.73307H20.8137V6.13307ZM21.0137 7.33765V5.93307H20.6137V7.33765H21.0137ZM19.5832 8.76812C20.3733 8.76812 21.0137 8.12756 21.0137 7.33765H20.6137C20.6137 7.90667 20.1523 8.36812 19.5832 8.36812V8.76812ZM18.1527 7.33765C18.1527 8.12756 18.7932 8.76812 19.5832 8.76812V8.36812C19.0141 8.36812 18.5527 7.90667 18.5527 7.33765H18.1527ZM18.1527 5.93307V7.33765H18.5527V5.93307H18.1527ZM12.7417 6.13307H18.3527V5.73307H12.7417V6.13307ZM12.9417 7.33753V5.93307H12.5417V7.33753H12.9417ZM11.5112 8.768C12.3013 8.768 12.9417 8.12744 12.9417 7.33753H12.5417C12.5417 7.90655 12.0803 8.368 11.5112 8.368V8.768ZM10.0807 7.33753C10.0807 8.12744 10.7212 8.768 11.5112 8.768V8.368C10.9421 8.368 10.4807 7.90655 10.4807 7.33753H10.0807ZM10.0807 5.93295V7.33753H10.4807V5.93295H10.0807ZM5.38336 6.13295H10.2807V5.73295H5.38336V6.13295ZM43.674 59.3325C43.674 60.4387 42.7738 61.3391 41.6674 61.3391V61.7391C42.9947 61.7391 44.074 60.6596 44.074 59.3325H43.674ZM43.674 31.6875V59.3325H44.074V31.6875H43.674ZM37.4169 38.4275L44.0154 31.8289L43.7326 31.5461L37.1341 38.1446L37.4169 38.4275ZM31.6832 43.5597C33.68 41.9624 35.5934 40.2509 37.4169 38.4275L37.1341 38.1446C35.321 39.9576 33.4186 41.6593 31.4333 43.2474L31.6832 43.5597ZM37.7361 43.2036H31.5583V43.6036H37.7361V43.2036ZM39.1665 44.634C39.1665 43.8441 38.5261 43.2036 37.7361 43.2036V43.6036C38.3052 43.6036 38.7665 44.065 38.7665 44.634H39.1665ZM37.7361 46.0645C38.5261 46.0645 39.1665 45.4239 39.1665 44.634H38.7665C38.7665 45.203 38.3052 45.6645 37.7361 45.6645V46.0645ZM28.2871 46.0645H37.7361V45.6645H28.2871V46.0645ZM16.5237 52.7651C20.7203 50.9037 24.6898 48.6507 28.4025 46.0278L28.1717 45.7011C24.4806 48.3087 20.5342 50.5487 16.3615 52.3994L16.5237 52.7651ZM16.3497 52.9572L16.5838 52.7239L16.3014 52.4406L16.0673 52.6739L16.3497 52.9572ZM22.0167 52.6155H16.2085V53.0155H22.0167V52.6155ZM23.4472 54.046C23.4472 53.2561 22.8068 52.6155 22.0167 52.6155V53.0155C22.5858 53.0155 23.0472 53.477 23.0472 54.046H23.4472ZM22.0167 55.4765C22.8068 55.4765 23.4472 54.8359 23.4472 54.046H23.0472C23.0472 54.615 22.5858 55.0765 22.0167 55.0765V55.4765ZM9.49767 55.4765H22.0167V55.0765H9.49767V55.4765ZM8.06721 54.046C8.06721 54.8359 8.70762 55.4765 9.49767 55.4765V55.0765C8.92856 55.0765 8.46721 54.615 8.46721 54.046H8.06721ZM9.49767 52.6155C8.70762 52.6155 8.06721 53.2561 8.06721 54.046H8.46721C8.46721 53.477 8.92856 53.0155 9.49767 53.0155V52.6155ZM12.7217 52.6155H9.49767V53.0155H12.7217V52.6155ZM14.5629 50.6987L12.5806 52.6739L12.8629 52.9572L14.8452 50.9821L14.5629 50.6987ZM16.9765 45.7691C16.0947 47.3938 15.2758 49.058 14.5212 50.7593L14.8869 50.9215C15.6371 49.2299 16.4513 47.5752 17.3281 45.9599L16.9765 45.7691ZM9.49767 46.0645H17.1523V45.6645H9.49767V46.0645ZM8.06721 44.634C8.06721 45.4239 8.70762 46.0645 9.49767 46.0645V45.6645C8.92856 45.6645 8.46721 45.203 8.46721 44.634H8.06721ZM9.49767 43.2036C8.70762 43.2036 8.06721 43.8441 8.06721 44.634H8.46721C8.46721 44.065 8.92856 43.6036 9.49767 43.6036V43.2036ZM18.5556 43.2036H9.49767V43.6036H18.5556V43.2036ZM23.1511 36.3297C21.42 38.5545 19.8295 40.8807 18.3839 43.301L18.7274 43.5061C20.1645 41.0998 21.7457 38.7871 23.4668 36.5753L23.1511 36.3297ZM9.49767 36.6525H23.3089V36.2525H9.49767V36.6525ZM8.06721 35.222C8.06721 36.012 8.70762 36.6525 9.49767 36.6525V36.2525C8.92856 36.2525 8.46721 35.7911 8.46721 35.222H8.06721ZM9.49767 33.7916C8.70762 33.7916 8.06721 34.4321 8.06721 35.222H8.46721C8.46721 34.653 8.92856 34.1916 9.49767 34.1916V33.7916ZM25.3167 33.7916H9.49767V34.1916H25.3167V33.7916ZM28.857 29.8691C27.5701 31.1559 26.3393 32.4877 25.1647 33.8616L25.4687 34.1215C26.6366 32.7555 27.8604 31.4314 29.1398 30.1519L28.857 29.8691ZM28.8453 29.8818L28.8447 29.8826L29.1521 30.1385L29.1527 30.1377L28.8453 29.8818ZM31.8268 26.8991L28.8576 29.8684L29.1404 30.1512L32.1097 27.182L31.8268 26.8991ZM9.49767 27.2405H31.9682V26.8405H9.49767V27.2405ZM8.06721 25.8101C8.06721 26.6 8.70762 27.2405 9.49767 27.2405V26.8405C8.92856 26.8405 8.46721 26.3791 8.46721 25.8101H8.06721ZM9.49767 24.3796C8.70762 24.3796 8.06721 25.0202 8.06721 25.8101H8.46721C8.46721 25.241 8.92856 24.7796 9.49767 24.7796V24.3796ZM34.4292 24.3796H9.49767V24.7796H34.4292V24.3796ZM42.1263 16.5996L34.2878 24.4382L34.5706 24.721L42.4092 16.8824L42.1263 16.5996ZM3.17676 16.941H42.2678V16.541H3.17676V16.941ZM3.37676 59.3325V16.741H2.97676V59.3325H3.37676ZM5.38336 61.3391C4.27713 61.3391 3.37676 60.4387 3.37676 59.3325H2.97676C2.97676 60.6596 4.05621 61.7391 5.38336 61.7391V61.3391ZM41.6674 61.3391H5.38336V61.7391H41.6674V61.3391ZM32.7595 53.0156H37.7362V52.6156H32.7595V53.0156ZM31.7291 54.046C31.7291 53.477 32.1904 53.0156 32.7595 53.0156V52.6156C31.9695 52.6156 31.3291 53.2561 31.3291 54.046H31.7291ZM32.7595 55.0765C32.1904 55.0765 31.7291 54.6151 31.7291 54.046H31.3291C31.3291 54.8359 31.9695 55.4765 32.7595 55.4765V55.0765ZM37.7362 55.0765H32.7595V55.4765H37.7362V55.0765ZM38.7666 54.046C38.7666 54.6151 38.3053 55.0765 37.7362 55.0765V55.4765C38.5262 55.4765 39.1666 54.8359 39.1666 54.046H38.7666ZM37.7362 53.0156C38.3053 53.0156 38.7666 53.477 38.7666 54.046H39.1666C39.1666 53.2561 38.5262 52.6156 37.7362 52.6156V53.0156ZM27.3821 53.0187C27.8203 52.986 28.2404 53.2463 28.4096 53.6522L28.7788 53.4983C28.5439 52.9348 27.9641 52.5742 27.3524 52.6198L27.3821 53.0187ZM26.4654 53.7711C26.5807 53.3571 26.9536 53.0507 27.3822 53.0187L27.3524 52.6198C26.7553 52.6644 26.2405 53.0878 26.0801 53.6639L26.4654 53.7711ZM28.0115 54.9147C27.2375 55.4073 26.2188 54.6574 26.4655 53.7711L26.0801 53.6639C25.7342 54.9068 27.1459 55.9397 28.2262 55.2522L28.0115 54.9147ZM28.4095 53.6521C28.5985 54.1059 28.4267 54.6507 28.0115 54.9147L28.2262 55.2522C28.8052 54.884 29.0427 54.1321 28.7788 53.4984L28.4095 53.6521Z" fill="#212121" mask="url(#path-1-outside-1_178_164)"/>
</svg>
