<svg width="68" height="64" viewBox="0 0 68 64" fill="none" xmlns="http://www.w3.org/2000/svg">
<mask id="path-1-outside-1_178_158" maskUnits="userSpaceOnUse" x="0" y="-0.581787" width="68" height="65" fill="black">
<rect fill="white" y="-0.581787" width="68" height="65"/>
<path fill-rule="evenodd" clip-rule="evenodd" d="M65.6954 28.8208C67.4352 30.6189 67.4352 33.4362 65.6954 35.2339L61.1727 39.9097C60.73 40.3674 60.5271 40.9913 60.6162 41.6218L61.5271 48.063C61.8776 50.5405 60.2215 52.8195 57.7576 53.2515L51.3501 54.3754C50.7227 54.4857 50.192 54.8714 49.8934 55.4339L46.8444 61.1803C46.0151 62.7438 44.4315 63.6365 42.7809 63.6365C42.0976 63.6365 41.4027 63.484 40.745 63.1622L34.9005 60.3051C34.3279 60.0251 33.6718 60.0257 33.0998 60.3051L27.2557 63.1622C25.0079 64.2604 22.3291 63.3903 21.1563 61.1803L18.1069 55.4339C17.8088 54.8714 17.2776 54.4852 16.6507 54.3754L10.2431 53.2515C7.77878 52.8195 6.12264 50.5405 6.47361 48.063L7.38451 41.6218C7.47364 40.9913 7.27071 40.3674 6.8281 39.9092L2.3048 35.2339C0.565067 33.4357 0.565067 30.6189 2.3048 28.8208L6.8281 24.1449C7.27071 23.6877 7.47364 23.0633 7.38451 22.4329L6.47361 15.9916C6.12264 13.5147 7.77878 11.2356 10.2426 10.8031L16.6507 9.67919C17.2776 9.56892 17.8088 9.1832 18.1069 8.62075L21.1563 2.87435C22.3291 0.664314 25.0079 -0.205804 27.2557 0.892417L33.0998 3.7495C33.6723 4.02897 34.3279 4.02897 34.9005 3.7495L40.745 0.892417C42.9923 -0.205804 45.6717 0.664314 46.8444 2.87435L49.8934 8.62075C50.1915 9.1832 50.7227 9.56942 51.3496 9.67919L57.7571 10.8031C60.2215 11.2356 61.8771 13.5147 61.5271 15.9916L60.6157 22.4329C60.5266 23.0633 60.7295 23.6877 61.1722 24.1449L65.6954 28.8208ZM58.0789 41.9808C57.8785 40.5623 58.3347 39.1579 59.3307 38.1282L63.854 33.4523C64.6269 32.6537 64.6269 31.4014 63.854 30.6023L59.3307 25.9269C58.3347 24.8972 57.8785 23.4928 58.0789 22.0743L58.9903 15.633C59.1459 14.5318 58.4097 13.5192 57.3145 13.3268L50.907 12.2029C49.4961 11.9552 48.3012 11.0876 47.6299 9.8222L44.581 4.07529C44.0598 3.09289 42.869 2.70617 41.87 3.1946L36.0254 6.05169V6.05119C34.7378 6.68111 33.2614 6.68061 31.9749 6.05119L26.1303 3.1946C25.1318 2.70667 23.9404 3.09289 23.4192 4.07529L20.3703 9.8222C19.6986 11.0876 18.5042 11.9552 17.0933 12.2029L10.6852 13.3268C9.59002 13.5192 8.85434 14.5318 9.00994 15.6325L9.92134 22.0743C10.1218 23.4928 9.66555 24.8972 8.66954 25.9269L4.14624 30.6023C3.37281 31.4014 3.37281 32.6537 4.14624 33.4523L8.66954 38.1282C9.66555 39.1579 10.1218 40.5623 9.92134 41.9808L9.00994 48.4221C8.85434 49.5228 9.59002 50.5359 10.6852 50.7278L17.0933 51.8517C18.5042 52.0994 19.6986 52.9675 20.3703 54.2329L23.4192 59.9798C23.9404 60.9617 25.1313 61.349 26.1303 60.86L31.9749 58.0034C32.6184 57.6887 33.3093 57.5316 34.0001 57.5316C34.691 57.5316 35.3818 57.6887 36.0254 58.0034L41.87 60.86C42.8695 61.349 44.0598 60.9617 44.581 59.9793L47.6299 54.2329C48.3017 52.967 49.4961 52.0994 50.907 51.8517L57.315 50.7278C58.4102 50.5359 59.1459 49.5228 58.9903 48.4221L58.0789 41.9808ZM51.854 25.6963C51.8042 26.0493 51.9175 26.3988 52.1657 26.6556L54.8667 29.4472C56.2661 30.8939 56.2661 33.1603 54.8667 34.607L52.1657 37.3991C51.9175 37.6559 51.8037 38.0054 51.854 38.3584L52.3979 42.2049C52.6798 44.1979 51.3475 46.0318 49.365 46.3793L45.5386 47.0505C45.1872 47.1124 44.8896 47.3279 44.7224 47.6431L42.9016 51.0748C42.2344 52.3326 40.961 53.0512 39.6326 53.0512C39.0828 53.0512 38.5238 52.9283 37.9946 52.6695L34.5046 50.9635C34.1838 50.8069 33.8162 50.8069 33.4955 50.9635L30.0054 52.6695C28.1972 53.5537 26.0416 52.8533 25.0984 51.0753L23.2776 47.6436C23.1105 47.3284 22.8129 47.1124 22.4614 47.0505L18.6355 46.3798C16.6526 46.0318 15.3202 44.1979 15.6022 42.2049L16.1465 38.3589C16.1964 38.0054 16.0826 37.6559 15.8348 37.3991L13.1333 34.607C11.734 33.1608 11.734 30.8939 13.1333 29.4472L15.8343 26.6551C16.0826 26.3988 16.1964 26.0493 16.1465 25.6958L15.6022 21.8493C15.3202 19.8568 16.6526 18.0229 18.6355 17.6749L22.4614 17.0037C22.8129 16.9423 23.1105 16.7263 23.2776 16.4111L25.0984 12.9794C26.0416 11.2014 28.1972 10.501 30.0054 11.3847L33.4955 13.0912C33.8162 13.2478 34.1838 13.2478 34.5046 13.0912L37.9946 11.3852C39.8028 10.501 41.9585 11.2014 42.9021 12.9794L44.7229 16.4111C44.8901 16.7263 45.1877 16.9423 45.5386 17.0042L49.365 17.6755C51.348 18.0229 52.6798 19.8568 52.3979 21.8498L51.854 25.6963ZM50.3243 35.6181L53.0253 32.826C53.4583 32.3783 53.4583 31.6769 53.0253 31.2287L50.3243 28.4371C49.5226 27.6083 49.1556 26.4788 49.3172 25.3373L49.861 21.4908C49.9481 20.8739 49.5357 20.3064 48.9224 20.1987L45.096 19.5275C43.9605 19.3286 42.9998 18.6302 42.4595 17.612L40.6387 14.1804C40.3466 13.63 39.6794 13.413 39.12 13.6869L35.63 15.3929C34.5942 15.899 33.4063 15.899 32.3706 15.3929L28.8805 13.6869C28.3211 13.4135 27.6539 13.63 27.3619 14.1804L25.5411 17.612C25.0008 18.6302 24.0395 19.3286 22.9045 19.5275L19.0781 20.1987C18.4648 20.3064 18.0524 20.8739 18.1395 21.4908L18.6833 25.3373C18.845 26.4788 18.4779 27.6083 17.6763 28.4371L14.9753 31.2287C14.5422 31.6764 14.5422 32.3783 14.9753 32.826L17.6763 35.6181C18.4779 36.4464 18.845 37.5764 18.6833 38.7174L18.1395 42.5639C18.0524 43.1808 18.4648 43.7483 19.0781 43.856L22.9045 44.5272C24.0395 44.7261 25.0008 45.4245 25.5411 46.4427L27.3619 49.8743C27.6539 50.4247 28.3211 50.6417 28.8805 50.3678L32.3706 48.6618C32.8887 48.4085 33.4446 48.2821 34.0005 48.2821C34.5564 48.2821 35.1118 48.4085 35.63 48.6618L39.12 50.3678C39.6794 50.6412 40.3466 50.4247 40.6387 49.8743L42.4595 46.4427C42.9998 45.4245 43.9605 44.7261 45.096 44.5272L48.9224 43.856C49.5362 43.7483 49.9486 43.1808 49.861 42.5639L49.3172 38.7174C49.1556 37.5764 49.5226 36.4464 50.3243 35.6181ZM42.8584 25.9797H39.5456C39.3437 25.9797 39.1796 25.8156 39.1796 25.6142V20.325C39.1796 20.2505 39.173 19.5767 38.9409 18.8793C38.3643 17.1497 37.0496 16.9629 36.5113 16.9629C35.973 16.9629 34.6588 17.1497 34.0822 18.8793C33.8501 19.5767 33.8431 20.2505 33.8431 20.325V20.6553C33.8431 21.889 33.3627 23.0491 32.49 23.9213C31.4945 24.9168 30.2604 25.6721 28.9215 26.1056L28.3922 26.2773C28.1631 26.0628 27.8565 25.9309 27.5181 25.9309H23.0507C22.3432 25.9309 21.7697 26.5044 21.7697 27.2119V40.2853C21.7697 40.9928 22.3432 41.5663 23.0507 41.5663H27.5181C27.8867 41.5663 28.218 41.4097 28.4522 41.1605C30.7674 42.4364 33.3587 43.1077 36.0234 43.1077H42.8589C44.6546 43.1077 46.1158 41.6469 46.1158 39.8508V29.2366C46.1158 27.441 44.6546 25.9797 42.8584 25.9797ZM24.3317 28.4929H26.2134V39.0043H24.3317V28.4929ZM42.8584 40.5456H36.0234C33.4463 40.5456 30.9502 39.7969 28.7991 38.3814V28.8388L29.711 28.5433C31.4336 27.9848 33.0208 27.0135 34.3018 25.733C35.6583 24.377 36.3749 22.601 36.3749 20.6825L36.3774 20.3255L36.3771 20.2778C36.3753 20.0787 36.3719 19.693 36.5571 19.6925C36.739 19.6925 36.743 20.0847 36.7451 20.2947L36.7455 20.3245L36.6176 25.6137C36.6176 27.2285 37.9308 28.5418 39.5456 28.5418H42.8584C43.2416 28.5418 43.5533 28.8534 43.5533 29.2366V29.4119H40.9394C40.232 29.4119 39.6579 29.9859 39.6579 30.6934C39.6579 31.4003 40.232 31.9744 40.9394 31.9744H43.5533V33.2232H40.9394C40.232 33.2232 39.6579 33.7972 39.6579 34.5042C39.6579 35.2116 40.232 35.7857 40.9394 35.7857H43.5533V36.9478H40.9394C40.232 36.9478 39.6579 37.5214 39.6579 38.2289C39.6579 38.9363 40.232 39.5099 40.9394 39.5099H43.5533V39.8503C43.5533 40.234 43.2416 40.5456 42.8584 40.5456ZM35.2514 29.4774C35.907 29.2115 36.6542 29.5267 36.9206 30.1823L36.9443 30.2402C37.2101 30.8958 36.8944 31.6431 36.2388 31.9095C36.0812 31.9734 35.918 32.0036 35.7574 32.0036C35.2514 32.0036 34.772 31.702 34.5701 31.204L34.5464 31.1461C34.2805 30.491 34.5957 29.7437 35.2514 29.4774Z"/>
</mask>
<path fill-rule="evenodd" clip-rule="evenodd" d="M65.6954 28.8208C67.4352 30.6189 67.4352 33.4362 65.6954 35.2339L61.1727 39.9097C60.73 40.3674 60.5271 40.9913 60.6162 41.6218L61.5271 48.063C61.8776 50.5405 60.2215 52.8195 57.7576 53.2515L51.3501 54.3754C50.7227 54.4857 50.192 54.8714 49.8934 55.4339L46.8444 61.1803C46.0151 62.7438 44.4315 63.6365 42.7809 63.6365C42.0976 63.6365 41.4027 63.484 40.745 63.1622L34.9005 60.3051C34.3279 60.0251 33.6718 60.0257 33.0998 60.3051L27.2557 63.1622C25.0079 64.2604 22.3291 63.3903 21.1563 61.1803L18.1069 55.4339C17.8088 54.8714 17.2776 54.4852 16.6507 54.3754L10.2431 53.2515C7.77878 52.8195 6.12264 50.5405 6.47361 48.063L7.38451 41.6218C7.47364 40.9913 7.27071 40.3674 6.8281 39.9092L2.3048 35.2339C0.565067 33.4357 0.565067 30.6189 2.3048 28.8208L6.8281 24.1449C7.27071 23.6877 7.47364 23.0633 7.38451 22.4329L6.47361 15.9916C6.12264 13.5147 7.77878 11.2356 10.2426 10.8031L16.6507 9.67919C17.2776 9.56892 17.8088 9.1832 18.1069 8.62075L21.1563 2.87435C22.3291 0.664314 25.0079 -0.205804 27.2557 0.892417L33.0998 3.7495C33.6723 4.02897 34.3279 4.02897 34.9005 3.7495L40.745 0.892417C42.9923 -0.205804 45.6717 0.664314 46.8444 2.87435L49.8934 8.62075C50.1915 9.1832 50.7227 9.56942 51.3496 9.67919L57.7571 10.8031C60.2215 11.2356 61.8771 13.5147 61.5271 15.9916L60.6157 22.4329C60.5266 23.0633 60.7295 23.6877 61.1722 24.1449L65.6954 28.8208ZM58.0789 41.9808C57.8785 40.5623 58.3347 39.1579 59.3307 38.1282L63.854 33.4523C64.6269 32.6537 64.6269 31.4014 63.854 30.6023L59.3307 25.9269C58.3347 24.8972 57.8785 23.4928 58.0789 22.0743L58.9903 15.633C59.1459 14.5318 58.4097 13.5192 57.3145 13.3268L50.907 12.2029C49.4961 11.9552 48.3012 11.0876 47.6299 9.8222L44.581 4.07529C44.0598 3.09289 42.869 2.70617 41.87 3.1946L36.0254 6.05169V6.05119C34.7378 6.68111 33.2614 6.68061 31.9749 6.05119L26.1303 3.1946C25.1318 2.70667 23.9404 3.09289 23.4192 4.07529L20.3703 9.8222C19.6986 11.0876 18.5042 11.9552 17.0933 12.2029L10.6852 13.3268C9.59002 13.5192 8.85434 14.5318 9.00994 15.6325L9.92134 22.0743C10.1218 23.4928 9.66555 24.8972 8.66954 25.9269L4.14624 30.6023C3.37281 31.4014 3.37281 32.6537 4.14624 33.4523L8.66954 38.1282C9.66555 39.1579 10.1218 40.5623 9.92134 41.9808L9.00994 48.4221C8.85434 49.5228 9.59002 50.5359 10.6852 50.7278L17.0933 51.8517C18.5042 52.0994 19.6986 52.9675 20.3703 54.2329L23.4192 59.9798C23.9404 60.9617 25.1313 61.349 26.1303 60.86L31.9749 58.0034C32.6184 57.6887 33.3093 57.5316 34.0001 57.5316C34.691 57.5316 35.3818 57.6887 36.0254 58.0034L41.87 60.86C42.8695 61.349 44.0598 60.9617 44.581 59.9793L47.6299 54.2329C48.3017 52.967 49.4961 52.0994 50.907 51.8517L57.315 50.7278C58.4102 50.5359 59.1459 49.5228 58.9903 48.4221L58.0789 41.9808ZM51.854 25.6963C51.8042 26.0493 51.9175 26.3988 52.1657 26.6556L54.8667 29.4472C56.2661 30.8939 56.2661 33.1603 54.8667 34.607L52.1657 37.3991C51.9175 37.6559 51.8037 38.0054 51.854 38.3584L52.3979 42.2049C52.6798 44.1979 51.3475 46.0318 49.365 46.3793L45.5386 47.0505C45.1872 47.1124 44.8896 47.3279 44.7224 47.6431L42.9016 51.0748C42.2344 52.3326 40.961 53.0512 39.6326 53.0512C39.0828 53.0512 38.5238 52.9283 37.9946 52.6695L34.5046 50.9635C34.1838 50.8069 33.8162 50.8069 33.4955 50.9635L30.0054 52.6695C28.1972 53.5537 26.0416 52.8533 25.0984 51.0753L23.2776 47.6436C23.1105 47.3284 22.8129 47.1124 22.4614 47.0505L18.6355 46.3798C16.6526 46.0318 15.3202 44.1979 15.6022 42.2049L16.1465 38.3589C16.1964 38.0054 16.0826 37.6559 15.8348 37.3991L13.1333 34.607C11.734 33.1608 11.734 30.8939 13.1333 29.4472L15.8343 26.6551C16.0826 26.3988 16.1964 26.0493 16.1465 25.6958L15.6022 21.8493C15.3202 19.8568 16.6526 18.0229 18.6355 17.6749L22.4614 17.0037C22.8129 16.9423 23.1105 16.7263 23.2776 16.4111L25.0984 12.9794C26.0416 11.2014 28.1972 10.501 30.0054 11.3847L33.4955 13.0912C33.8162 13.2478 34.1838 13.2478 34.5046 13.0912L37.9946 11.3852C39.8028 10.501 41.9585 11.2014 42.9021 12.9794L44.7229 16.4111C44.8901 16.7263 45.1877 16.9423 45.5386 17.0042L49.365 17.6755C51.348 18.0229 52.6798 19.8568 52.3979 21.8498L51.854 25.6963ZM50.3243 35.6181L53.0253 32.826C53.4583 32.3783 53.4583 31.6769 53.0253 31.2287L50.3243 28.4371C49.5226 27.6083 49.1556 26.4788 49.3172 25.3373L49.861 21.4908C49.9481 20.8739 49.5357 20.3064 48.9224 20.1987L45.096 19.5275C43.9605 19.3286 42.9998 18.6302 42.4595 17.612L40.6387 14.1804C40.3466 13.63 39.6794 13.413 39.12 13.6869L35.63 15.3929C34.5942 15.899 33.4063 15.899 32.3706 15.3929L28.8805 13.6869C28.3211 13.4135 27.6539 13.63 27.3619 14.1804L25.5411 17.612C25.0008 18.6302 24.0395 19.3286 22.9045 19.5275L19.0781 20.1987C18.4648 20.3064 18.0524 20.8739 18.1395 21.4908L18.6833 25.3373C18.845 26.4788 18.4779 27.6083 17.6763 28.4371L14.9753 31.2287C14.5422 31.6764 14.5422 32.3783 14.9753 32.826L17.6763 35.6181C18.4779 36.4464 18.845 37.5764 18.6833 38.7174L18.1395 42.5639C18.0524 43.1808 18.4648 43.7483 19.0781 43.856L22.9045 44.5272C24.0395 44.7261 25.0008 45.4245 25.5411 46.4427L27.3619 49.8743C27.6539 50.4247 28.3211 50.6417 28.8805 50.3678L32.3706 48.6618C32.8887 48.4085 33.4446 48.2821 34.0005 48.2821C34.5564 48.2821 35.1118 48.4085 35.63 48.6618L39.12 50.3678C39.6794 50.6412 40.3466 50.4247 40.6387 49.8743L42.4595 46.4427C42.9998 45.4245 43.9605 44.7261 45.096 44.5272L48.9224 43.856C49.5362 43.7483 49.9486 43.1808 49.861 42.5639L49.3172 38.7174C49.1556 37.5764 49.5226 36.4464 50.3243 35.6181ZM42.8584 25.9797H39.5456C39.3437 25.9797 39.1796 25.8156 39.1796 25.6142V20.325C39.1796 20.2505 39.173 19.5767 38.9409 18.8793C38.3643 17.1497 37.0496 16.9629 36.5113 16.9629C35.973 16.9629 34.6588 17.1497 34.0822 18.8793C33.8501 19.5767 33.8431 20.2505 33.8431 20.325V20.6553C33.8431 21.889 33.3627 23.0491 32.49 23.9213C31.4945 24.9168 30.2604 25.6721 28.9215 26.1056L28.3922 26.2773C28.1631 26.0628 27.8565 25.9309 27.5181 25.9309H23.0507C22.3432 25.9309 21.7697 26.5044 21.7697 27.2119V40.2853C21.7697 40.9928 22.3432 41.5663 23.0507 41.5663H27.5181C27.8867 41.5663 28.218 41.4097 28.4522 41.1605C30.7674 42.4364 33.3587 43.1077 36.0234 43.1077H42.8589C44.6546 43.1077 46.1158 41.6469 46.1158 39.8508V29.2366C46.1158 27.441 44.6546 25.9797 42.8584 25.9797ZM24.3317 28.4929H26.2134V39.0043H24.3317V28.4929ZM42.8584 40.5456H36.0234C33.4463 40.5456 30.9502 39.7969 28.7991 38.3814V28.8388L29.711 28.5433C31.4336 27.9848 33.0208 27.0135 34.3018 25.733C35.6583 24.377 36.3749 22.601 36.3749 20.6825L36.3774 20.3255L36.3771 20.2778C36.3753 20.0787 36.3719 19.693 36.5571 19.6925C36.739 19.6925 36.743 20.0847 36.7451 20.2947L36.7455 20.3245L36.6176 25.6137C36.6176 27.2285 37.9308 28.5418 39.5456 28.5418H42.8584C43.2416 28.5418 43.5533 28.8534 43.5533 29.2366V29.4119H40.9394C40.232 29.4119 39.6579 29.9859 39.6579 30.6934C39.6579 31.4003 40.232 31.9744 40.9394 31.9744H43.5533V33.2232H40.9394C40.232 33.2232 39.6579 33.7972 39.6579 34.5042C39.6579 35.2116 40.232 35.7857 40.9394 35.7857H43.5533V36.9478H40.9394C40.232 36.9478 39.6579 37.5214 39.6579 38.2289C39.6579 38.9363 40.232 39.5099 40.9394 39.5099H43.5533V39.8503C43.5533 40.234 43.2416 40.5456 42.8584 40.5456ZM35.2514 29.4774C35.907 29.2115 36.6542 29.5267 36.9206 30.1823L36.9443 30.2402C37.2101 30.8958 36.8944 31.6431 36.2388 31.9095C36.0812 31.9734 35.918 32.0036 35.7574 32.0036C35.2514 32.0036 34.772 31.702 34.5701 31.204L34.5464 31.1461C34.2805 30.491 34.5957 29.7437 35.2514 29.4774Z" fill="#212121"/>
<path d="M65.6954 35.2339L65.5517 35.0948L65.5517 35.0948L65.6954 35.2339ZM65.6954 28.8208L65.5517 28.9598L65.5517 28.9598L65.6954 28.8208ZM61.1727 39.9097L61.0289 39.7707L61.0289 39.7707L61.1727 39.9097ZM60.6162 41.6218L60.4182 41.6498V41.6498L60.6162 41.6218ZM61.5271 48.063L61.3291 48.0911V48.0911L61.5271 48.063ZM57.7576 53.2515L57.7231 53.0545H57.7231L57.7576 53.2515ZM51.3501 54.3754L51.3155 54.1784L51.3155 54.1784L51.3501 54.3754ZM49.8934 55.4339L49.7167 55.3401L49.7167 55.3401L49.8934 55.4339ZM46.8444 61.1803L46.6678 61.0865L46.6677 61.0865L46.8444 61.1803ZM40.745 63.1622L40.8329 62.9826L40.8329 62.9825L40.745 63.1622ZM34.9005 60.3051L34.8126 60.4848L34.8126 60.4848L34.9005 60.3051ZM33.0998 60.3051L33.012 60.1254L33.012 60.1254L33.0998 60.3051ZM27.2557 63.1622L27.3435 63.3419L27.3436 63.3419L27.2557 63.1622ZM21.1563 61.1803L21.333 61.0865L21.333 61.0865L21.1563 61.1803ZM18.1069 55.4339L17.9302 55.5275L17.9302 55.5276L18.1069 55.4339ZM16.6507 54.3754L16.6161 54.5724L16.6162 54.5724L16.6507 54.3754ZM10.2431 53.2515L10.2777 53.0545L10.2776 53.0545L10.2431 53.2515ZM6.47361 48.063L6.67163 48.0911L6.67164 48.0911L6.47361 48.063ZM7.38451 41.6218L7.58254 41.6498L7.58254 41.6498L7.38451 41.6218ZM6.8281 39.9092L6.97195 39.7703L6.97184 39.7702L6.8281 39.9092ZM2.3048 35.2339L2.44854 35.0948L2.44853 35.0948L2.3048 35.2339ZM2.3048 28.8208L2.44853 28.9598L2.44855 28.9598L2.3048 28.8208ZM6.8281 24.1449L6.6844 24.0058L6.68435 24.0058L6.8281 24.1449ZM7.38451 22.4329L7.58254 22.4049L7.58254 22.4049L7.38451 22.4329ZM6.47361 15.9916L6.67164 15.9636L6.67163 15.9635L6.47361 15.9916ZM10.2426 10.8031L10.2081 10.6061L10.208 10.6061L10.2426 10.8031ZM16.6507 9.67919L16.6852 9.87618L16.6853 9.87617L16.6507 9.67919ZM18.1069 8.62075L17.9302 8.527L17.9302 8.52709L18.1069 8.62075ZM21.1563 2.87435L21.333 2.9681L21.333 2.9681L21.1563 2.87435ZM27.2557 0.892417L27.3436 0.71274L27.3435 0.712718L27.2557 0.892417ZM33.0998 3.7495L33.012 3.92918L33.0121 3.92923L33.0998 3.7495ZM34.9005 3.7495L34.9882 3.92923L34.9883 3.92918L34.9005 3.7495ZM40.745 0.892417L40.6572 0.712726L40.6572 0.712737L40.745 0.892417ZM46.8444 2.87435L47.0211 2.78061L47.0211 2.7806L46.8444 2.87435ZM49.8934 8.62075L50.0701 8.52709L50.07 8.52701L49.8934 8.62075ZM51.3496 9.67919L51.3842 9.4822L51.3841 9.48219L51.3496 9.67919ZM57.7571 10.8031L57.7917 10.6061L57.7917 10.6061L57.7571 10.8031ZM61.5271 15.9916L61.7252 16.0196L61.7252 16.0195L61.5271 15.9916ZM60.6157 22.4329L60.4177 22.4048L60.4177 22.4049L60.6157 22.4329ZM61.1722 24.1449L61.3159 24.0058L61.3159 24.0058L61.1722 24.1449ZM59.3307 38.1282L59.187 37.9891L59.187 37.9892L59.3307 38.1282ZM58.0789 41.9808L57.8809 42.0088L57.8809 42.0088L58.0789 41.9808ZM63.854 33.4523L63.7103 33.3132L63.7103 33.3133L63.854 33.4523ZM63.854 30.6023L63.9978 30.4632L63.9977 30.4632L63.854 30.6023ZM59.3307 25.9269L59.187 26.066L59.187 26.066L59.3307 25.9269ZM58.0789 22.0743L57.8809 22.0463L57.8809 22.0464L58.0789 22.0743ZM58.9903 15.633L59.1883 15.6611L59.1884 15.661L58.9903 15.633ZM57.3145 13.3268L57.3491 13.1299L57.3491 13.1298L57.3145 13.3268ZM50.907 12.2029L50.8724 12.3999L50.8724 12.3999L50.907 12.2029ZM47.6299 9.8222L47.8066 9.72848L47.8066 9.72847L47.6299 9.8222ZM44.581 4.07529L44.4043 4.16902L44.4043 4.16903L44.581 4.07529ZM41.87 3.1946L41.9578 3.37428L41.9578 3.37428L41.87 3.1946ZM36.0254 6.05169H35.8254V6.37208L36.1132 6.23137L36.0254 6.05169ZM36.0254 6.05119H36.2254V5.73068L35.9375 5.87153L36.0254 6.05119ZM31.9749 6.05119L32.0628 5.87153L32.0627 5.8715L31.9749 6.05119ZM26.1303 3.1946L26.2181 3.01492L26.2181 3.01491L26.1303 3.1946ZM23.4192 4.07529L23.5959 4.16903L23.5959 4.16902L23.4192 4.07529ZM20.3703 9.8222L20.547 9.91597L20.547 9.91593L20.3703 9.8222ZM17.0933 12.2029L17.1278 12.3999L17.1279 12.3999L17.0933 12.2029ZM10.6852 13.3268L10.6507 13.1298L10.6506 13.1299L10.6852 13.3268ZM9.00994 15.6325L8.81191 15.6605L8.81191 15.6606L9.00994 15.6325ZM9.92134 22.0743L10.1194 22.0464L10.1194 22.0463L9.92134 22.0743ZM8.66954 25.9269L8.81328 26.066L8.8133 26.066L8.66954 25.9269ZM4.14624 30.6023L4.28996 30.7414L4.28998 30.7414L4.14624 30.6023ZM4.14624 33.4523L4.28999 33.3133L4.28991 33.3132L4.14624 33.4523ZM8.66954 38.1282L8.8133 37.9892L8.81329 37.9891L8.66954 38.1282ZM9.92134 41.9808L10.1194 42.0088L10.1194 42.0088L9.92134 41.9808ZM9.00994 48.4221L8.81191 48.3941L8.81191 48.3941L9.00994 48.4221ZM10.6852 50.7278L10.7198 50.5308L10.7197 50.5308L10.6852 50.7278ZM17.0933 51.8517L17.1279 51.6547L17.1278 51.6547L17.0933 51.8517ZM20.3703 54.2329L20.547 54.1392L20.547 54.1391L20.3703 54.2329ZM23.4192 59.9798L23.2426 60.0736L23.2426 60.0736L23.4192 59.9798ZM26.1303 60.86L26.0425 60.6803L26.0424 60.6804L26.1303 60.86ZM31.9749 58.0034L32.0627 58.1831L32.0628 58.1831L31.9749 58.0034ZM36.0254 58.0034L35.9375 58.1831L35.9375 58.1831L36.0254 58.0034ZM41.87 60.86L41.9578 60.6804L41.9578 60.6803L41.87 60.86ZM44.581 59.9793L44.4043 59.8856L44.4043 59.8856L44.581 59.9793ZM47.6299 54.2329L47.4533 54.1392L47.4533 54.1392L47.6299 54.2329ZM50.907 51.8517L50.8724 51.6547L50.8724 51.6547L50.907 51.8517ZM57.315 50.7278L57.2805 50.5308L57.2805 50.5308L57.315 50.7278ZM58.9903 48.4221L59.1883 48.3941L59.1883 48.3941L58.9903 48.4221ZM52.1657 26.6556L52.0219 26.7946L52.022 26.7947L52.1657 26.6556ZM51.854 25.6963L51.656 25.6683L51.656 25.6684L51.854 25.6963ZM54.8667 29.4472L55.0105 29.3082L55.0105 29.3081L54.8667 29.4472ZM54.8667 34.607L55.0105 34.746L55.0105 34.746L54.8667 34.607ZM52.1657 37.3991L52.022 37.2601L52.0219 37.2601L52.1657 37.3991ZM51.854 38.3584L52.0521 38.3304L52.052 38.3301L51.854 38.3584ZM52.3979 42.2049L52.1998 42.2329L52.1998 42.2329L52.3979 42.2049ZM49.365 46.3793L49.3305 46.1823L49.3305 46.1823L49.365 46.3793ZM45.5386 47.0505L45.5041 46.8535L45.5039 46.8535L45.5386 47.0505ZM44.7224 47.6431L44.8991 47.7369L44.8991 47.7368L44.7224 47.6431ZM42.9016 51.0748L42.7249 50.981L42.7249 50.981L42.9016 51.0748ZM37.9946 52.6695L38.0825 52.4898L38.0824 52.4898L37.9946 52.6695ZM34.5046 50.9635L34.5924 50.7838L34.5923 50.7838L34.5046 50.9635ZM33.4955 50.9635L33.4077 50.7838L33.4076 50.7838L33.4955 50.9635ZM30.0054 52.6695L29.9176 52.4898L29.9176 52.4898L30.0054 52.6695ZM25.0984 51.0753L25.2751 50.9815L25.2751 50.9815L25.0984 51.0753ZM23.2776 47.6436L23.101 47.7373L23.101 47.7374L23.2776 47.6436ZM22.4614 47.0505L22.4961 46.8535L22.4959 46.8535L22.4614 47.0505ZM18.6355 46.3798L18.6009 46.5767L18.601 46.5768L18.6355 46.3798ZM15.6022 42.2049L15.4042 42.1769L15.4042 42.1769L15.6022 42.2049ZM16.1465 38.3589L16.3445 38.3869L16.3446 38.3868L16.1465 38.3589ZM15.8348 37.3991L15.9788 37.2603L15.9786 37.26L15.8348 37.3991ZM13.1333 34.607L13.2771 34.4679L13.2771 34.4679L13.1333 34.607ZM13.1333 29.4472L12.9896 29.3082L12.9896 29.3082L13.1333 29.4472ZM15.8343 26.6551L15.6907 26.5159L15.6906 26.516L15.8343 26.6551ZM16.1465 25.6958L16.3446 25.6679L16.3445 25.6678L16.1465 25.6958ZM15.6022 21.8493L15.8002 21.8213L15.8002 21.8213L15.6022 21.8493ZM18.6355 17.6749L18.6009 17.478H18.6009L18.6355 17.6749ZM22.4614 17.0037L22.427 16.8067L22.4268 16.8067L22.4614 17.0037ZM23.2776 16.4111L23.101 16.3173L23.101 16.3174L23.2776 16.4111ZM25.0984 12.9794L25.2751 13.0732L25.2751 13.0732L25.0984 12.9794ZM30.0054 11.3847L30.0933 11.2051L30.0933 11.205L30.0054 11.3847ZM33.4955 13.0912L33.4076 13.2709L33.4077 13.2709L33.4955 13.0912ZM34.5046 13.0912L34.5923 13.2709L34.5924 13.2709L34.5046 13.0912ZM37.9946 11.3852L38.0824 11.5649L38.0825 11.5649L37.9946 11.3852ZM42.9021 12.9794L43.0788 12.8857L43.0788 12.8857L42.9021 12.9794ZM44.7229 16.4111L44.8996 16.3174L44.8996 16.3173L44.7229 16.4111ZM45.5386 17.0042L45.5039 17.2012L45.5041 17.2012L45.5386 17.0042ZM49.365 17.6755L49.3305 17.8724L49.3305 17.8725L49.365 17.6755ZM52.3979 21.8498L52.1998 21.8218L52.1998 21.8218L52.3979 21.8498ZM53.0253 32.826L52.8815 32.6869L53.0253 32.826ZM50.3243 35.6181L50.468 35.7572L50.468 35.7571L50.3243 35.6181ZM53.0253 31.2287L53.1691 31.0898L53.169 31.0897L53.0253 31.2287ZM50.3243 28.4371L50.1805 28.5762L50.1805 28.5762L50.3243 28.4371ZM49.3172 25.3373L49.5152 25.3654L49.5152 25.3653L49.3172 25.3373ZM49.861 21.4908L50.0591 21.5188L50.0591 21.5187L49.861 21.4908ZM48.9224 20.1987L48.957 20.0017L48.957 20.0017L48.9224 20.1987ZM45.096 19.5275L45.1306 19.3305L45.1305 19.3305L45.096 19.5275ZM42.4595 17.612L42.2828 17.7057L42.2828 17.7058L42.4595 17.612ZM40.6387 14.1804L40.8154 14.0866L40.8154 14.0866L40.6387 14.1804ZM39.12 13.6869L39.2078 13.8666L39.208 13.8665L39.12 13.6869ZM35.63 15.3929L35.7178 15.5726L35.7178 15.5726L35.63 15.3929ZM32.3706 15.3929L32.2827 15.5726L32.2828 15.5726L32.3706 15.3929ZM28.8805 13.6869L28.9684 13.5072L28.9684 13.5072L28.8805 13.6869ZM27.3619 14.1804L27.1852 14.0866L27.1852 14.0866L27.3619 14.1804ZM25.5411 17.612L25.7177 17.7058L25.7177 17.7057L25.5411 17.612ZM22.9045 19.5275L22.87 19.3305L22.87 19.3305L22.9045 19.5275ZM19.0781 20.1987L19.0436 20.0017L19.0435 20.0017L19.0781 20.1987ZM18.1395 21.4908L17.9415 21.5187L17.9415 21.5188L18.1395 21.4908ZM18.6833 25.3373L18.4853 25.3653L18.4853 25.3654L18.6833 25.3373ZM17.6763 28.4371L17.82 28.5762L17.82 28.5762L17.6763 28.4371ZM14.9753 31.2287L14.8315 31.0897L14.8315 31.0897L14.9753 31.2287ZM14.9753 32.826L15.119 32.6869H15.119L14.9753 32.826ZM17.6763 35.6181L17.5325 35.7571L17.5325 35.7572L17.6763 35.6181ZM18.6833 38.7174L18.4853 38.6893L18.4853 38.6894L18.6833 38.7174ZM18.1395 42.5639L17.9415 42.5359L17.9415 42.536L18.1395 42.5639ZM19.0781 43.856L19.0435 44.053L19.0436 44.053L19.0781 43.856ZM22.9045 44.5272L22.87 44.7242L22.87 44.7242L22.9045 44.5272ZM25.5411 46.4427L25.7177 46.349L25.7177 46.3489L25.5411 46.4427ZM27.3619 49.8743L27.1852 49.9681L27.1852 49.9681L27.3619 49.8743ZM28.8805 50.3678L28.7927 50.1881L28.7926 50.1882L28.8805 50.3678ZM32.3706 48.6618L32.4584 48.8415L32.3706 48.6618ZM35.63 48.6618L35.5421 48.8415L35.63 48.6618ZM39.12 50.3678L39.0322 50.5475L39.0322 50.5475L39.12 50.3678ZM40.6387 49.8743L40.8154 49.9681L40.8154 49.9681L40.6387 49.8743ZM42.4595 46.4427L42.2828 46.3489L42.2828 46.349L42.4595 46.4427ZM45.096 44.5272L45.1305 44.7242L45.1306 44.7242L45.096 44.5272ZM48.9224 43.856L48.957 44.053L48.957 44.053L48.9224 43.856ZM49.861 42.5639L49.663 42.5919L49.663 42.5921L49.861 42.5639ZM49.3172 38.7174L49.5152 38.6894L49.5152 38.6893L49.3172 38.7174ZM38.9409 18.8793L39.1307 18.8162L39.1306 18.8161L38.9409 18.8793ZM34.0822 18.8793L33.8925 18.8161L33.8925 18.8162L34.0822 18.8793ZM32.49 23.9213L32.3487 23.7798L32.3486 23.7798L32.49 23.9213ZM28.9215 26.1056L28.8598 25.9154L28.8597 25.9154L28.9215 26.1056ZM28.3922 26.2773L28.2555 26.4233L28.3417 26.504L28.454 26.4676L28.3922 26.2773ZM28.4522 41.1605L28.5487 40.9853L28.4127 40.9104L28.3064 41.0235L28.4522 41.1605ZM26.2134 28.4929H26.4134V28.2929H26.2134V28.4929ZM24.3317 28.4929V28.2929H24.1317V28.4929H24.3317ZM26.2134 39.0043V39.2043H26.4134V39.0043H26.2134ZM24.3317 39.0043H24.1317V39.2043H24.3317V39.0043ZM28.7991 38.3814H28.5991V38.4892L28.6892 38.5485L28.7991 38.3814ZM28.7991 28.8388L28.7374 28.6486L28.5991 28.6934V28.8388H28.7991ZM29.711 28.5433L29.7727 28.7335L29.7727 28.7335L29.711 28.5433ZM34.3018 25.733L34.4432 25.8745V25.8745L34.3018 25.733ZM36.3749 20.6825L36.1749 20.6811V20.6825H36.3749ZM36.3774 20.3255L36.5774 20.3269L36.5774 20.3243L36.3774 20.3255ZM36.3771 20.2778L36.5771 20.2766L36.5771 20.2761L36.3771 20.2778ZM36.5571 19.6925V19.4925L36.5566 19.4925L36.5571 19.6925ZM36.7451 20.2947L36.5451 20.2967L36.5451 20.2969L36.7451 20.2947ZM36.7455 20.3245L36.9455 20.3293L36.9454 20.3223L36.7455 20.3245ZM36.6176 25.6137L36.4176 25.6088V25.6137H36.6176ZM43.5533 29.4119V29.6119H43.7533V29.4119H43.5533ZM43.5533 31.9744H43.7533V31.7744H43.5533V31.9744ZM43.5533 33.2232V33.4232H43.7533V33.2232H43.5533ZM43.5533 35.7857H43.7533V35.5857H43.5533V35.7857ZM43.5533 36.9478V37.1478H43.7533V36.9478H43.5533ZM43.5533 39.5099H43.7533V39.3099H43.5533V39.5099ZM36.9206 30.1823L36.7353 30.2576L36.7355 30.258L36.9206 30.1823ZM35.2514 29.4774L35.1762 29.292L35.1761 29.2921L35.2514 29.4774ZM36.9443 30.2402L37.1296 30.1651L37.1294 30.1646L36.9443 30.2402ZM36.2388 31.9095L36.314 32.0948L36.3141 32.0947L36.2388 31.9095ZM34.5701 31.204L34.7554 31.1288L34.7552 31.1283L34.5701 31.204ZM34.5464 31.1461L34.3611 31.2213L34.3613 31.2217L34.5464 31.1461ZM65.8392 35.3729C67.654 33.4977 67.6539 30.5574 65.8392 28.6817L65.5517 28.9598C67.2164 30.6805 67.2164 33.3747 65.5517 35.0948L65.8392 35.3729ZM61.3164 40.0488L65.8392 35.3729L65.5517 35.0948L61.0289 39.7707L61.3164 40.0488ZM60.8143 41.5938C60.7338 41.0245 60.9166 40.4622 61.3164 40.0488L61.0289 39.7707C60.5434 40.2727 60.3204 40.9582 60.4182 41.6498L60.8143 41.5938ZM61.7252 48.035L60.8143 41.5938L60.4182 41.6498L61.3291 48.0911L61.7252 48.035ZM57.7922 53.4485C60.3623 52.9978 62.0908 50.6193 61.7252 48.035L61.3291 48.0911C61.6645 50.4617 60.0807 52.6411 57.7231 53.0545L57.7922 53.4485ZM51.3847 54.5724L57.7922 53.4485L57.7231 53.0545L51.3155 54.1784L51.3847 54.5724ZM50.07 55.5276C50.3397 55.0196 50.818 54.672 51.3847 54.5724L51.3155 54.1784C50.6273 54.2994 50.0442 54.7232 49.7167 55.3401L50.07 55.5276ZM47.0211 61.274L50.07 55.5276L49.7167 55.3401L46.6678 61.0865L47.0211 61.274ZM42.7809 63.8365C44.5035 63.8365 46.1562 62.9046 47.0211 61.274L46.6677 61.0865C45.874 62.5829 44.3594 63.4365 42.7809 63.4365V63.8365ZM40.6571 63.3418C41.3426 63.6772 42.0676 63.8365 42.7809 63.8365V63.4365C42.1275 63.4365 41.4627 63.2907 40.8329 62.9826L40.6571 63.3418ZM34.8126 60.4848L40.6572 63.3419L40.8329 62.9825L34.9883 60.1254L34.8126 60.4848ZM33.1876 60.4848C33.7043 60.2324 34.2956 60.232 34.8126 60.4848L34.9883 60.1254C34.3603 59.8183 33.6393 59.8189 33.012 60.1254L33.1876 60.4848ZM27.3436 63.3419L33.1876 60.4848L33.012 60.1254L27.1679 62.9825L27.3436 63.3419ZM20.9797 61.274C22.203 63.5794 24.9988 64.4874 27.3435 63.3419L27.1679 62.9825C25.017 64.0334 22.4552 63.2013 21.333 61.0865L20.9797 61.274ZM17.9302 55.5276L20.9797 61.274L21.333 61.0865L18.2836 55.3401L17.9302 55.5276ZM16.6162 54.5724C17.1822 54.6715 17.661 55.0196 17.9302 55.5275L18.2836 55.3402C17.9566 54.7232 17.3729 54.2989 16.6851 54.1784L16.6162 54.5724ZM10.2086 53.4485L16.6161 54.5724L16.6852 54.1784L10.2777 53.0545L10.2086 53.4485ZM6.27558 48.035C5.90948 50.6193 7.63799 52.9979 10.2086 53.4485L10.2776 53.0545C7.91957 52.6411 6.3358 50.4617 6.67163 48.0911L6.27558 48.035ZM7.18648 41.5938L6.27558 48.035L6.67164 48.0911L7.58254 41.6498L7.18648 41.5938ZM6.68425 40.0482C7.08413 40.4622 7.26696 41.0245 7.18648 41.5938L7.58254 41.6498C7.68031 40.9582 7.45729 40.2727 6.97195 39.7703L6.68425 40.0482ZM2.16106 35.3729L6.68436 40.0483L6.97184 39.7702L2.44854 35.0948L2.16106 35.3729ZM2.16106 28.6817C0.346313 30.5574 0.346313 33.4972 2.16106 35.3729L2.44853 35.0948C0.783822 33.3742 0.783822 30.6804 2.44853 28.9598L2.16106 28.6817ZM6.68435 24.0058L2.16105 28.6817L2.44855 28.9598L6.97185 24.2839L6.68435 24.0058ZM7.18648 22.4609C7.26697 23.0302 7.08406 23.5929 6.6844 24.0058L6.9718 24.284C7.45736 23.7824 7.6803 23.0964 7.58254 22.4049L7.18648 22.4609ZM6.27558 16.0196L7.18648 22.4609L7.58254 22.4049L6.67164 15.9636L6.27558 16.0196ZM10.208 10.6061C7.638 11.0573 5.90947 13.4358 6.27558 16.0196L6.67163 15.9635C6.3358 13.5935 7.91957 11.414 10.2772 11.0001L10.208 10.6061ZM16.6161 9.4822L10.2081 10.6061L10.2772 11.0001L16.6852 9.87618L16.6161 9.4822ZM17.9302 8.52709C17.661 9.03493 17.1823 9.38261 16.616 9.48222L16.6853 9.87617C17.3728 9.75523 17.9566 9.33148 18.2836 8.71441L17.9302 8.52709ZM20.9797 2.7806L17.9302 8.527L18.2836 8.7145L21.333 2.9681L20.9797 2.7806ZM27.3435 0.712718C24.9988 -0.432836 22.203 0.475261 20.9797 2.7806L21.333 2.9681C22.4552 0.853366 25.017 0.021228 27.1679 1.07212L27.3435 0.712718ZM33.1876 3.56983L27.3436 0.71274L27.1679 1.07209L33.012 3.92918L33.1876 3.56983ZM34.8127 3.56977C34.2956 3.82221 33.7047 3.82221 33.1875 3.56977L33.0121 3.92923C33.64 4.23572 34.3603 4.23572 34.9882 3.92923L34.8127 3.56977ZM40.6572 0.712737L34.8126 3.56982L34.9883 3.92918L40.8329 1.0721L40.6572 0.712737ZM47.0211 2.7806C45.7978 0.475264 43.0014 -0.432844 40.6572 0.712726L40.8329 1.07211C42.9833 0.0212362 45.5456 0.853363 46.6678 2.9681L47.0211 2.7806ZM50.07 8.52701L47.0211 2.78061L46.6678 2.96809L49.7167 8.71449L50.07 8.52701ZM51.3841 9.48219C50.818 9.38307 50.3393 9.03503 50.0701 8.52709L49.7166 8.71441C50.0436 9.33138 50.6273 9.75577 51.3151 9.87619L51.3841 9.48219ZM57.7917 10.6061L51.3842 9.4822L51.315 9.87618L57.7226 11.0001L57.7917 10.6061ZM61.7252 16.0195C62.0902 13.4358 60.3623 11.0573 57.7917 10.6061L57.7226 11.0001C60.0807 11.414 61.664 13.5935 61.3291 15.9636L61.7252 16.0195ZM60.8138 22.4609L61.7252 16.0196L61.3291 15.9635L60.4177 22.4048L60.8138 22.4609ZM61.3159 24.0058C60.9162 23.5929 60.7333 23.0302 60.8138 22.4609L60.4177 22.4049C60.32 23.0964 60.5429 23.7824 61.0285 24.284L61.3159 24.0058ZM65.8392 28.6817L61.3159 24.0058L61.0284 24.2839L65.5517 28.9598L65.8392 28.6817ZM59.187 37.9892C58.1481 39.0632 57.6718 40.5292 57.8809 42.0088L58.2769 41.9528C58.0852 40.5954 58.5214 39.2526 59.4745 38.2673L59.187 37.9892ZM63.7103 33.3133L59.187 37.9891L59.4745 38.2673L63.9978 33.5914L63.7103 33.3133ZM63.7103 30.7413C64.4082 31.4629 64.4082 32.5922 63.7103 33.3132L63.9977 33.5914C64.8457 32.7152 64.8457 31.3399 63.9978 30.4632L63.7103 30.7413ZM59.187 26.066L63.7103 30.7414L63.9977 30.4632L59.4744 25.7879L59.187 26.066ZM57.8809 22.0464C57.6718 23.5259 58.1481 24.9919 59.187 26.066L59.4745 25.7879C58.5214 24.8025 58.0852 23.4597 58.2769 22.1023L57.8809 22.0464ZM58.7923 15.605L57.8809 22.0463L58.2769 22.1024L59.1883 15.6611L58.7923 15.605ZM57.2799 13.5238C58.269 13.6975 58.9328 14.6107 58.7923 15.6051L59.1884 15.661C59.359 14.4529 58.5505 13.3408 57.3491 13.1299L57.2799 13.5238ZM50.8724 12.3999L57.28 13.5238L57.3491 13.1298L50.9415 12.0059L50.8724 12.3999ZM47.4533 9.91592C48.1534 11.2359 49.4008 12.1415 50.8724 12.3999L50.9416 12.0059C49.5913 11.7689 48.4489 10.9393 47.8066 9.72848L47.4533 9.91592ZM44.4043 4.16903L47.4533 9.91593L47.8066 9.72847L44.7577 3.98156L44.4043 4.16903ZM41.9578 3.37428C42.8599 2.93322 43.9337 3.28195 44.4043 4.16902L44.7577 3.98157C44.186 2.90382 42.878 2.47912 41.7821 3.01493L41.9578 3.37428ZM36.1132 6.23137L41.9578 3.37428L41.7821 3.01492L35.9375 5.87201L36.1132 6.23137ZM35.8254 6.05119V6.05169H36.2254V6.05119H35.8254ZM31.887 6.23084C33.229 6.88738 34.7702 6.88791 36.1133 6.23084L35.9375 5.87153C34.7054 6.47432 33.2939 6.47384 32.0628 5.87153L31.887 6.23084ZM26.0425 3.37429L31.8871 6.23087L32.0627 5.8715L26.2181 3.01492L26.0425 3.37429ZM23.5959 4.16902C24.0665 3.28202 25.1408 2.93367 26.0425 3.3743L26.2181 3.01491C25.1228 2.47968 23.8143 2.90375 23.2426 3.98157L23.5959 4.16902ZM20.547 9.91593L23.5959 4.16903L23.2426 3.98156L20.1936 9.72847L20.547 9.91593ZM17.1279 12.3999C18.5995 12.1415 19.8463 11.2358 20.547 9.91597L20.1936 9.72842C19.5508 10.9393 18.4089 11.7689 17.0587 12.0059L17.1279 12.3999ZM10.7198 13.5238L17.1278 12.3999L17.0587 12.0059L10.6507 13.1298L10.7198 13.5238ZM9.20797 15.6046C9.06747 14.6106 9.73081 13.6975 10.7198 13.5238L10.6506 13.1299C9.44922 13.3409 8.64121 14.453 8.81191 15.6605L9.20797 15.6046ZM10.1194 22.0463L9.20796 15.6045L8.81191 15.6606L9.72332 22.1024L10.1194 22.0463ZM8.8133 26.066C9.85219 24.9919 10.3284 23.5259 10.1194 22.0464L9.72331 22.1023C9.9151 23.4597 9.4789 24.8025 8.52579 25.7879L8.8133 26.066ZM4.28998 30.7414L8.81328 26.066L8.5258 25.7879L4.0025 30.4632L4.28998 30.7414ZM4.28991 33.3132C3.59161 32.5922 3.59155 31.463 4.28996 30.7414L4.00253 30.4632C3.15407 31.3398 3.15401 32.7153 4.00258 33.5915L4.28991 33.3132ZM8.81329 37.9891L4.28999 33.3133L4.0025 33.5914L8.5258 38.2673L8.81329 37.9891ZM10.1194 42.0088C10.3284 40.5292 9.85219 39.0632 8.8133 37.9892L8.52579 38.2673C9.4789 39.2526 9.9151 40.5954 9.72331 41.9528L10.1194 42.0088ZM9.20796 48.4501L10.1194 42.0088L9.72332 41.9528L8.81191 48.3941L9.20796 48.4501ZM10.7197 50.5308C9.73088 50.3576 9.06746 49.4441 9.20797 48.4501L8.81191 48.3941C8.64122 49.6016 9.44915 50.7143 10.6507 50.9248L10.7197 50.5308ZM17.1278 51.6547L10.7198 50.5308L10.6507 50.9248L17.0587 52.0487L17.1278 51.6547ZM20.547 54.1391C19.8463 52.8193 18.5995 51.9131 17.1279 51.6547L17.0587 52.0487C18.4088 52.2857 19.5508 53.1157 20.1936 54.3267L20.547 54.1391ZM23.5959 59.8861L20.547 54.1392L20.1936 54.3267L23.2426 60.0736L23.5959 59.8861ZM26.0424 60.6804C25.1403 61.1218 24.0665 60.7727 23.5959 59.8861L23.2426 60.0736C23.8143 61.1507 25.1222 61.5761 26.2182 61.0397L26.0424 60.6804ZM31.8871 57.8237L26.0425 60.6803L26.2181 61.0397L32.0627 58.1831L31.8871 57.8237ZM34.0001 57.3316C33.2788 57.3316 32.5579 57.4957 31.887 57.8238L32.0628 58.1831C32.6789 57.8817 33.3398 57.7316 34.0001 57.7316V57.3316ZM36.1132 57.8238C35.4424 57.4957 34.7215 57.3316 34.0001 57.3316V57.7316C34.6605 57.7316 35.3213 57.8817 35.9375 58.1831L36.1132 57.8238ZM41.9578 60.6803L36.1132 57.8237L35.9375 58.1831L41.7821 61.0397L41.9578 60.6803ZM44.4043 59.8856C43.9337 60.7727 42.8604 61.1219 41.9578 60.6804L41.7821 61.0397C42.8786 61.576 44.186 61.1507 44.7577 60.0731L44.4043 59.8856ZM47.4533 54.1392L44.4043 59.8856L44.7577 60.0731L47.8066 54.3267L47.4533 54.1392ZM50.8724 51.6547C49.4007 51.9131 48.1539 52.8188 47.4533 54.1392L47.8066 54.3267C48.4494 53.1153 49.5914 52.2857 50.9416 52.0487L50.8724 51.6547ZM57.2805 50.5308L50.8724 51.6547L50.9415 52.0487L57.3496 50.9248L57.2805 50.5308ZM58.7923 48.4501C58.9328 49.4441 58.2694 50.3576 57.2805 50.5308L57.3495 50.9248C58.5511 50.7143 59.359 49.6016 59.1883 48.3941L58.7923 48.4501ZM57.8809 42.0088L58.7923 48.4501L59.1883 48.3941L58.2769 41.9528L57.8809 42.0088ZM52.3095 26.5166C52.1041 26.3041 52.0108 26.0163 52.0521 25.7243L51.656 25.6684C51.5975 26.0824 51.7308 26.4934 52.0219 26.7946L52.3095 26.5166ZM55.0105 29.3081L52.3095 26.5165L52.022 26.7947L54.723 29.5863L55.0105 29.3081ZM55.0105 34.746C56.4848 33.2218 56.4848 30.8324 55.0105 29.3082L54.723 29.5863C56.0473 30.9554 56.0473 33.0988 54.723 34.4679L55.0105 34.746ZM52.3095 37.5382L55.0105 34.746L54.723 34.4679L52.022 37.2601L52.3095 37.5382ZM52.052 38.3301C52.0104 38.0385 52.104 37.7507 52.3095 37.5381L52.0219 37.2601C51.731 37.5611 51.5969 37.9722 51.656 38.3866L52.052 38.3301ZM52.5959 42.1769L52.0521 38.3304L51.656 38.3864L52.1998 42.2329L52.5959 42.1769ZM49.3996 46.5762C51.4883 46.2102 52.893 44.2767 52.5959 42.1769L52.1998 42.2329C52.4667 44.1191 51.2067 45.8534 49.3305 46.1823L49.3996 46.5762ZM45.5732 47.2475L49.3996 46.5762L49.3305 46.1823L45.5041 46.8535L45.5732 47.2475ZM44.8991 47.7368C45.0372 47.4764 45.2823 47.2987 45.5733 47.2474L45.5039 46.8535C45.0921 46.9261 44.7419 47.1795 44.5457 47.5494L44.8991 47.7368ZM43.0783 51.1685L44.8991 47.7369L44.5457 47.5494L42.7249 50.981L43.0783 51.1685ZM39.6326 53.2512C41.0331 53.2512 42.3755 52.4934 43.0783 51.1685L42.7249 50.981C42.0933 52.1718 40.8888 52.8512 39.6326 52.8512V53.2512ZM37.9067 52.8491C38.4637 53.1215 39.0528 53.2512 39.6326 53.2512V52.8512C39.1127 52.8512 38.5839 52.735 38.0825 52.4898L37.9067 52.8491ZM34.4167 51.1432L37.9068 52.8492L38.0824 52.4898L34.5924 50.7838L34.4167 51.1432ZM33.5832 51.1432C33.8486 51.0136 34.1514 51.0136 34.4168 51.1432L34.5923 50.7838C34.2162 50.6001 33.7839 50.6001 33.4077 50.7838L33.5832 51.1432ZM30.0933 52.8492L33.5833 51.1432L33.4076 50.7838L29.9176 52.4898L30.0933 52.8492ZM24.9218 51.169C25.9155 53.0423 28.1882 53.7808 30.0933 52.8491L29.9176 52.4898C28.2063 53.3266 26.1677 52.6642 25.2751 50.9815L24.9218 51.169ZM23.101 47.7374L24.9218 51.169L25.2751 50.9815L23.4543 47.5499L23.101 47.7374ZM22.4267 47.2474C22.7176 47.2987 22.9627 47.4767 23.101 47.7373L23.4543 47.5499C23.2582 47.1801 22.9081 46.9261 22.4961 46.8535L22.4267 47.2474ZM18.601 46.5768L22.4269 47.2475L22.4959 46.8535L18.67 46.1828L18.601 46.5768ZM15.4042 42.1769C15.1071 44.2767 16.5118 46.2102 18.6009 46.5767L18.6701 46.1828C16.7934 45.8535 15.5333 44.1191 15.8002 42.2329L15.4042 42.1769ZM15.9485 38.3308L15.4042 42.1769L15.8002 42.2329L16.3445 38.3869L15.9485 38.3308ZM15.6909 37.538C15.896 37.7506 15.9897 38.0386 15.9485 38.3309L16.3446 38.3868C16.403 37.9722 16.2691 37.5612 15.9788 37.2603L15.6909 37.538ZM12.9896 34.7461L15.6911 37.5382L15.9786 37.26L13.2771 34.4679L12.9896 34.7461ZM12.9896 29.3082C11.5153 30.8324 11.5152 33.2223 12.9896 34.7461L13.2771 34.4679C11.9528 33.0993 11.9527 30.9554 13.2771 29.5863L12.9896 29.3082ZM15.6906 26.516L12.9896 29.3082L13.2771 29.5863L15.9781 26.7941L15.6906 26.516ZM15.9485 25.7238C15.9897 26.0161 15.896 26.304 15.6907 26.5159L15.978 26.7942C16.2691 26.4936 16.403 26.0825 16.3446 25.6679L15.9485 25.7238ZM15.4042 21.8773L15.9485 25.7239L16.3445 25.6678L15.8002 21.8213L15.4042 21.8773ZM18.6009 17.478C16.5118 17.8445 15.1071 19.778 15.4042 21.8773L15.8002 21.8213C15.5333 19.9356 16.7933 18.2012 18.6701 17.8719L18.6009 17.478ZM22.4268 16.8067L18.6009 17.478L18.6701 17.8719L22.496 17.2007L22.4268 16.8067ZM23.101 16.3174C22.9627 16.578 22.7176 16.7559 22.427 16.8067L22.4958 17.2007C22.9081 17.1287 23.2582 16.8746 23.4543 16.5048L23.101 16.3174ZM24.9218 12.8857L23.101 16.3173L23.4543 16.5048L25.2751 13.0732L24.9218 12.8857ZM30.0933 11.205C28.1881 10.274 25.9155 11.0124 24.9218 12.8857L25.2751 13.0732C26.1677 11.3905 28.2063 10.7281 29.9176 11.5644L30.0933 11.205ZM33.5833 12.9116L30.0933 11.2051L29.9176 11.5644L33.4076 13.2709L33.5833 12.9116ZM34.4168 12.9115C34.1514 13.0411 33.8486 13.0411 33.5832 12.9115L33.4077 13.2709C33.7839 13.4546 34.2162 13.4546 34.5923 13.2709L34.4168 12.9115ZM37.9068 11.2055L34.4167 12.9115L34.5924 13.2709L38.0824 11.5649L37.9068 11.2055ZM43.0788 12.8857C42.0846 11.0124 39.8119 10.2739 37.9067 11.2056L38.0825 11.5649C39.7937 10.7281 41.8324 11.3905 42.7254 13.0732L43.0788 12.8857ZM44.8996 16.3173L43.0788 12.8857L42.7254 13.0732L44.5462 16.5048L44.8996 16.3173ZM45.5734 16.8073C45.283 16.756 45.0378 16.578 44.8996 16.3174L44.5462 16.5048C44.7423 16.8745 45.0923 17.1286 45.5039 17.2012L45.5734 16.8073ZM49.3996 17.4785L45.5732 16.8072L45.5041 17.2012L49.3305 17.8724L49.3996 17.4785ZM52.5959 21.8778C52.893 19.778 51.4888 17.8445 49.3996 17.4785L49.3305 17.8725C51.2071 18.2013 52.4667 19.9356 52.1998 21.8218L52.5959 21.8778ZM52.0521 25.7243L52.5959 21.8778L52.1998 21.8218L51.656 25.6683L52.0521 25.7243ZM52.8815 32.6869L50.1805 35.479L50.468 35.7571L53.169 32.965L52.8815 32.6869ZM52.8814 31.3677C53.2396 31.7384 53.2395 32.3168 52.8815 32.6869L53.169 32.965C53.6771 32.4398 53.677 31.6154 53.1691 31.0898L52.8814 31.3677ZM50.1805 28.5762L52.8815 31.3678L53.169 31.0897L50.468 28.298L50.1805 28.5762ZM49.1192 25.3093C48.9489 26.5119 49.336 27.703 50.1805 28.5762L50.468 28.2981C49.7093 27.5136 49.3622 26.4458 49.5152 25.3654L49.1192 25.3093ZM49.663 21.4628L49.1192 25.3093L49.5152 25.3653L50.0591 21.5188L49.663 21.4628ZM48.8878 20.3957C49.3949 20.4848 49.735 20.9528 49.663 21.4628L50.0591 21.5187C50.1613 20.7951 49.6766 20.1281 48.957 20.0017L48.8878 20.3957ZM45.0615 19.7245L48.8879 20.3957L48.957 20.0017L45.1306 19.3305L45.0615 19.7245ZM42.2828 17.7058C42.852 18.7784 43.8652 19.5149 45.0615 19.7245L45.1305 19.3305C44.0559 19.1422 43.1476 18.482 42.6362 17.5183L42.2828 17.7058ZM40.462 14.2741L42.2828 17.7057L42.6362 17.5183L40.8154 14.0866L40.462 14.2741ZM39.208 13.8665C39.6703 13.6401 40.2205 13.8189 40.462 14.2741L40.8154 14.0866C40.4728 13.4411 39.6886 13.1858 39.0321 13.5073L39.208 13.8665ZM35.7178 15.5726L39.2078 13.8666L39.0322 13.5072L35.5421 15.2132L35.7178 15.5726ZM32.2828 15.5726C33.374 16.1057 34.6266 16.1057 35.7178 15.5726L35.5422 15.2132C34.5618 15.6922 33.4387 15.6922 32.4584 15.2132L32.2828 15.5726ZM28.7927 13.8666L32.2827 15.5726L32.4584 15.2132L28.9684 13.5072L28.7927 13.8666ZM27.5385 14.2741C27.78 13.8191 28.3302 13.6405 28.7927 13.8666L28.9684 13.5072C28.312 13.1865 27.5278 13.4409 27.1852 14.0866L27.5385 14.2741ZM25.7177 17.7057L27.5385 14.2741L27.1852 14.0866L25.3644 17.5183L25.7177 17.7057ZM22.939 19.7245C24.1348 19.5149 25.1485 18.7784 25.7177 17.7058L25.3644 17.5183C24.853 18.4819 23.9442 19.1422 22.87 19.3305L22.939 19.7245ZM19.1127 20.3957L22.9391 19.7245L22.87 19.3305L19.0436 20.0017L19.1127 20.3957ZM18.3376 21.4628C18.2655 20.9528 18.6056 20.4848 19.1127 20.3957L19.0435 20.0017C18.324 20.1281 17.8393 20.7951 17.9415 21.5187L18.3376 21.4628ZM18.8814 25.3093L18.3376 21.4628L17.9415 21.5188L18.4853 25.3653L18.8814 25.3093ZM17.82 28.5762C18.6645 27.703 19.0517 26.5119 18.8814 25.3093L18.4853 25.3654C18.6383 26.4458 18.2913 27.5136 17.5325 28.2981L17.82 28.5762ZM15.119 31.3678L17.82 28.5762L17.5325 28.298L14.8315 31.0897L15.119 31.3678ZM15.119 32.6869C14.761 32.3168 14.761 31.7379 15.119 31.3678L14.8315 31.0897C14.3235 31.6149 14.3235 32.4398 14.8315 32.965L15.119 32.6869ZM17.82 35.479L15.119 32.6869L14.8315 32.965L17.5325 35.7571L17.82 35.479ZM18.8814 38.7454C19.0517 37.5433 18.6645 36.3517 17.82 35.479L17.5325 35.7572C18.2913 36.5412 18.6383 37.6094 18.4853 38.6893L18.8814 38.7454ZM18.3376 42.5919L18.8814 38.7454L18.4853 38.6894L17.9415 42.5359L18.3376 42.5919ZM19.1127 43.659C18.6056 43.5699 18.2655 43.1019 18.3376 42.5919L17.9415 42.536C17.8393 43.2596 18.324 43.9266 19.0435 44.053L19.1127 43.659ZM22.9391 44.3302L19.1127 43.659L19.0436 44.053L22.87 44.7242L22.9391 44.3302ZM25.7177 46.3489C25.1485 45.2763 24.1348 44.5398 22.939 44.3302L22.87 44.7242C23.9442 44.9125 24.853 45.5728 25.3644 46.5364L25.7177 46.3489ZM27.5385 49.7806L25.7177 46.349L25.3644 46.5364L27.1852 49.9681L27.5385 49.7806ZM28.7926 50.1882C28.3302 50.4146 27.7801 50.2358 27.5385 49.7806L27.1852 49.9681C27.5277 50.6136 28.312 50.8689 28.9685 50.5474L28.7926 50.1882ZM32.2827 48.4821L28.7927 50.1881L28.9684 50.5475L32.4584 48.8415L32.2827 48.4821ZM34.0005 48.0821C33.4141 48.0821 32.8282 48.2155 32.2827 48.4821L32.4584 48.8415C32.9492 48.6015 33.4751 48.4821 34.0005 48.4821V48.0821ZM35.7178 48.4821C35.1724 48.2155 34.5869 48.0821 34.0005 48.0821V48.4821C34.5259 48.4821 35.0513 48.6015 35.5421 48.8415L35.7178 48.4821ZM39.2078 50.1881L35.7178 48.4821L35.5421 48.8415L39.0322 50.5475L39.2078 50.1881ZM40.462 49.7806C40.2206 50.2356 39.6704 50.4142 39.2078 50.1881L39.0322 50.5475C39.6885 50.8683 40.4727 50.6138 40.8154 49.9681L40.462 49.7806ZM42.2828 46.349L40.462 49.7806L40.8154 49.9681L42.6362 46.5364L42.2828 46.349ZM45.0615 44.3302C43.8652 44.5398 42.852 45.2763 42.2828 46.3489L42.6362 46.5364C43.1476 45.5727 44.0559 44.9125 45.1305 44.7242L45.0615 44.3302ZM48.8879 43.659L45.0615 44.3302L45.1306 44.7242L48.957 44.053L48.8879 43.659ZM49.663 42.5921C49.7354 43.1019 49.3955 43.5699 48.8878 43.659L48.957 44.053C49.677 43.9266 50.1618 43.2596 50.059 42.5358L49.663 42.5921ZM49.1192 38.7454L49.663 42.5919L50.0591 42.5359L49.5152 38.6894L49.1192 38.7454ZM50.1806 35.479C49.336 36.3517 48.9489 37.5433 49.1192 38.7454L49.5152 38.6893C49.3622 37.6094 49.7093 36.5412 50.468 35.7572L50.1806 35.479ZM39.5456 26.1797H42.8584V25.7797H39.5456V26.1797ZM38.9796 25.6142C38.9796 25.9262 39.2335 26.1797 39.5456 26.1797V25.7797C39.454 25.7797 39.3796 25.705 39.3796 25.6142H38.9796ZM38.9796 20.325V25.6142H39.3796V20.325H38.9796ZM38.7511 18.9425C38.9732 19.6095 38.9796 20.2579 38.9796 20.325H39.3796C39.3796 20.243 39.3729 19.5439 39.1307 18.8162L38.7511 18.9425ZM36.5113 17.1629C36.7596 17.1629 37.1855 17.2063 37.6138 17.4468C38.037 17.6846 38.4781 18.1233 38.7512 18.9426L39.1306 18.8161C38.8272 17.9057 38.3226 17.3862 37.8097 17.0981C37.3019 16.8128 36.8013 16.7629 36.5113 16.7629V17.1629ZM34.272 18.9426C34.5451 18.1232 34.986 17.6845 35.4091 17.4468C35.8372 17.2063 36.263 17.1629 36.5113 17.1629V16.7629C36.2213 16.7629 35.7209 16.8128 35.2132 17.0981C34.7004 17.3862 34.1959 17.9057 33.8925 18.8161L34.272 18.9426ZM34.0431 20.325C34.0431 20.2581 34.05 19.6096 34.272 18.9425L33.8925 18.8162C33.6503 19.5439 33.6431 20.2428 33.6431 20.325H34.0431ZM34.0431 20.6553V20.325H33.6431V20.6553H34.0431ZM32.6314 24.0627C33.5416 23.1531 34.0431 21.942 34.0431 20.6553H33.6431C33.6431 21.836 33.1837 22.9452 32.3487 23.7798L32.6314 24.0627ZM28.9831 26.2959C30.3521 25.8526 31.6136 25.0806 32.6315 24.0627L32.3486 23.7798C31.3755 24.753 30.1687 25.4915 28.8598 25.9154L28.9831 26.2959ZM28.454 26.4676L28.9832 26.2959L28.8597 25.9154L28.3305 26.0871L28.454 26.4676ZM27.5181 26.1309C27.8032 26.1309 28.0617 26.2418 28.2555 26.4233L28.5289 26.1313C28.2646 25.8838 27.9097 25.7309 27.5181 25.7309V26.1309ZM23.0507 26.1309H27.5181V25.7309H23.0507V26.1309ZM21.9697 27.2119C21.9697 26.6149 22.4537 26.1309 23.0507 26.1309V25.7309C22.2327 25.7309 21.5697 26.394 21.5697 27.2119H21.9697ZM21.9697 40.2853V27.2119H21.5697V40.2853H21.9697ZM23.0507 41.3663C22.4537 41.3663 21.9697 40.8823 21.9697 40.2853H21.5697C21.5697 41.1032 22.2327 41.7663 23.0507 41.7663V41.3663ZM27.5181 41.3663H23.0507V41.7663H27.5181V41.3663ZM28.3064 41.0235C28.108 41.2347 27.8286 41.3663 27.5181 41.3663V41.7663C27.9447 41.7663 28.328 41.5848 28.5979 41.2974L28.3064 41.0235ZM36.0234 42.9077C33.3925 42.9077 30.8345 42.245 28.5487 40.9853L28.3556 41.3356C30.7004 42.6278 33.3248 43.3077 36.0234 43.3077V42.9077ZM42.8589 42.9077H36.0234V43.3077H42.8589V42.9077ZM45.9158 39.8508C45.9158 41.5364 44.5441 42.9077 42.8589 42.9077V43.3077C44.765 43.3077 46.3158 41.7574 46.3158 39.8508H45.9158ZM45.9158 29.2366V39.8508H46.3158V29.2366H45.9158ZM42.8584 26.1797C44.5441 26.1797 45.9158 27.5515 45.9158 29.2366H46.3158C46.3158 27.3305 44.765 25.7797 42.8584 25.7797V26.1797ZM26.2134 28.2929H24.3317V28.6929H26.2134V28.2929ZM26.4134 39.0043V28.4929H26.0134V39.0043H26.4134ZM24.3317 39.2043H26.2134V38.8043H24.3317V39.2043ZM24.1317 28.4929V39.0043H24.5317V28.4929H24.1317ZM36.0234 40.7456H42.8584V40.3456H36.0234V40.7456ZM28.6892 38.5485C30.8729 39.9854 33.4071 40.7456 36.0234 40.7456V40.3456C33.4854 40.3456 31.0276 39.6083 28.909 38.2144L28.6892 38.5485ZM28.5991 28.8388V38.3814H28.9991V28.8388H28.5991ZM29.6493 28.353L28.7374 28.6486L28.8608 29.0291L29.7727 28.7335L29.6493 28.353ZM34.1604 25.5916C32.9017 26.8497 31.3419 27.8043 29.6493 28.353L29.7727 28.7335C31.5253 28.1654 33.1398 27.1773 34.4432 25.8745L34.1604 25.5916ZM36.1749 20.6825C36.1749 22.5493 35.4784 24.274 34.1604 25.5916L34.4432 25.8745C35.8382 24.4799 36.5749 22.6526 36.5749 20.6825H36.1749ZM36.1774 20.3241L36.1749 20.6811L36.5749 20.6839L36.5774 20.3269L36.1774 20.3241ZM36.1771 20.2791L36.1774 20.3267L36.5774 20.3243L36.5771 20.2766L36.1771 20.2791ZM36.5566 19.4925C36.4259 19.4929 36.3353 19.5671 36.2832 19.6468C36.236 19.7191 36.2131 19.8043 36.2002 19.8749C36.1742 20.0182 36.1763 20.1841 36.1771 20.2796L36.5771 20.2761C36.5762 20.1725 36.5757 20.0459 36.5938 19.9465C36.603 19.8957 36.6139 19.8719 36.6181 19.8656C36.6191 19.8641 36.6146 19.8715 36.6019 19.8794C36.5876 19.8883 36.5713 19.8925 36.5576 19.8925L36.5566 19.4925ZM36.9451 20.2926C36.9441 20.1916 36.9429 20.0223 36.9149 19.877C36.9011 19.8055 36.8774 19.7202 36.8307 19.6483C36.7799 19.5699 36.6898 19.4925 36.5571 19.4925V19.8925C36.5154 19.8925 36.494 19.8642 36.4951 19.8659C36.5004 19.8741 36.5119 19.9 36.5221 19.9528C36.5421 20.0561 36.544 20.1878 36.5451 20.2967L36.9451 20.2926ZM36.9454 20.3223L36.9451 20.2925L36.5451 20.2969L36.5455 20.3267L36.9454 20.3223ZM36.8175 25.6185L36.9454 20.3293L36.5455 20.3196L36.4176 25.6088L36.8175 25.6185ZM39.5456 28.3418C38.0413 28.3418 36.8176 27.1181 36.8176 25.6137H36.4176C36.4176 27.339 37.8203 28.7418 39.5456 28.7418V28.3418ZM42.8584 28.3418H39.5456V28.7418H42.8584V28.3418ZM43.7533 29.2366C43.7533 28.743 43.3521 28.3418 42.8584 28.3418V28.7418C43.1312 28.7418 43.3533 28.9639 43.3533 29.2366H43.7533ZM43.7533 29.4119V29.2366H43.3533V29.4119H43.7533ZM40.9394 29.6119H43.5533V29.2119H40.9394V29.6119ZM39.8579 30.6934C39.8579 30.0964 40.3424 29.6119 40.9394 29.6119V29.2119C40.1215 29.2119 39.4579 29.8754 39.4579 30.6934H39.8579ZM40.9394 31.7744C40.3424 31.7744 39.8579 31.2898 39.8579 30.6934H39.4579C39.4579 31.5109 40.1216 32.1744 40.9394 32.1744V31.7744ZM43.5533 31.7744H40.9394V32.1744H43.5533V31.7744ZM43.7533 33.2232V31.9744H43.3533V33.2232H43.7533ZM40.9394 33.4232H43.5533V33.0232H40.9394V33.4232ZM39.8579 34.5042C39.8579 33.9077 40.3424 33.4232 40.9394 33.4232V33.0232C40.1216 33.0232 39.4579 33.6867 39.4579 34.5042H39.8579ZM40.9394 35.5857C40.3424 35.5857 39.8579 35.1012 39.8579 34.5042H39.4579C39.4579 35.3221 40.1215 35.9857 40.9394 35.9857V35.5857ZM43.5533 35.5857H40.9394V35.9857H43.5533V35.5857ZM43.7533 36.9478V35.7857H43.3533V36.9478H43.7533ZM40.9394 37.1478H43.5533V36.7478H40.9394V37.1478ZM39.8579 38.2289C39.8579 37.6319 40.3423 37.1478 40.9394 37.1478V36.7478C40.1216 36.7478 39.4579 37.4108 39.4579 38.2289H39.8579ZM40.9394 39.3099C40.3423 39.3099 39.8579 38.8258 39.8579 38.2289H39.4579C39.4579 39.0469 40.1216 39.7099 40.9394 39.7099V39.3099ZM43.5533 39.3099H40.9394V39.7099H43.5533V39.3099ZM43.7533 39.8503V39.5099H43.3533V39.8503H43.7533ZM42.8584 40.7456C43.3522 40.7456 43.7533 40.3443 43.7533 39.8503H43.3533C43.3533 40.1236 43.1311 40.3456 42.8584 40.3456V40.7456ZM37.1059 30.107C36.7979 29.349 35.934 28.9847 35.1762 29.292L35.3265 29.6627C35.8799 29.4383 36.5105 29.7044 36.7353 30.2576L37.1059 30.107ZM37.1294 30.1646L37.1057 30.1066L36.7355 30.258L36.7591 30.3159L37.1294 30.1646ZM36.3141 32.0947C37.072 31.7868 37.437 30.923 37.1296 30.1651L36.7589 30.3154C36.9833 30.8687 36.7169 31.4993 36.1635 31.7242L36.3141 32.0947ZM35.7574 32.2036C35.9432 32.2036 36.132 32.1686 36.314 32.0948L36.1636 31.7241C36.0304 31.7782 35.8928 31.8036 35.7574 31.8036V32.2036ZM34.3847 31.2791C34.6183 31.8553 35.1728 32.2036 35.7574 32.2036V31.8036C35.3299 31.8036 34.9257 31.5487 34.7554 31.1288L34.3847 31.2791ZM34.3613 31.2217L34.3849 31.2797L34.7552 31.1283L34.7315 31.0704L34.3613 31.2217ZM35.1761 29.2921C34.4181 29.6 34.0537 30.4639 34.3611 31.2213L34.7317 31.0709C34.5074 30.518 34.7734 29.8874 35.3266 29.6626L35.1761 29.2921Z" fill="#212121" mask="url(#path-1-outside-1_178_158)"/>
</svg>
