<svg width="389" height="338" viewBox="0 0 389 338" fill="none" xmlns="http://www.w3.org/2000/svg">
<mask id="path-1-inside-1_178_240" fill="white">
<path fill-rule="evenodd" clip-rule="evenodd" d="M141.313 14.0327C161.257 5.64347 183.869 0 208.002 0C232.135 0 254.747 5.64346 274.153 15.4815C290.565 23.8057 304.702 35.134 318.481 46.1746C321.004 48.1959 323.514 50.2076 326.024 52.1894C332.555 73.0104 339.074 92.5853 367.515 104.065C339.086 134.369 332.555 153.934 388.781 174.917C309.803 187.562 293.569 201.615 362.552 263.976C323.368 248.464 295.43 239.336 275.744 239.336C241.276 239.336 232.089 267.31 232.03 338C204.526 274.595 185.355 245.546 153.813 245.546C130.113 245.536 99.4482 261.93 52.9954 292.457C122.423 201.615 106.19 187.562 0 178.838C83.4372 153.934 76.9182 134.359 29.3184 94.1658C76.9182 92.5852 83.4373 73.0104 82.3371 43.0707C100.801 40.2237 114.699 31.1602 128.798 21.9656C132.913 19.282 137.045 16.5873 141.313 14.0327Z"/>
</mask>
<path fill-rule="evenodd" clip-rule="evenodd" d="M141.313 14.0327C161.257 5.64347 183.869 0 208.002 0C232.135 0 254.747 5.64346 274.153 15.4815C290.565 23.8057 304.702 35.134 318.481 46.1746C321.004 48.1959 323.514 50.2076 326.024 52.1894C332.555 73.0104 339.074 92.5853 367.515 104.065C339.086 134.369 332.555 153.934 388.781 174.917C309.803 187.562 293.569 201.615 362.552 263.976C323.368 248.464 295.43 239.336 275.744 239.336C241.276 239.336 232.089 267.31 232.03 338C204.526 274.595 185.355 245.546 153.813 245.546C130.113 245.536 99.4482 261.93 52.9954 292.457C122.423 201.615 106.19 187.562 0 178.838C83.4372 153.934 76.9182 134.359 29.3184 94.1658C76.9182 92.5852 83.4373 73.0104 82.3371 43.0707C100.801 40.2237 114.699 31.1602 128.798 21.9656C132.913 19.282 137.045 16.5873 141.313 14.0327Z" fill="white"/>
<path d="M141.313 14.0327L140.538 12.1891L140.407 12.244L140.286 12.3166L141.313 14.0327ZM274.153 15.4815L275.057 13.6978L275.057 13.6977L274.153 15.4815ZM318.481 46.1746L317.23 47.7353L318.481 46.1746ZM326.024 52.1894L327.933 51.5908L327.748 51.002L327.264 50.6196L326.024 52.1894ZM367.515 104.065L368.973 105.433L370.971 103.303L368.263 102.21L367.515 104.065ZM388.781 174.917L389.097 176.892L396.582 175.694L389.48 173.043L388.781 174.917ZM362.552 263.976L361.816 265.836L363.893 262.493L362.552 263.976ZM232.03 338L230.195 338.796L234.03 338.002L232.03 338ZM153.813 245.546L153.812 247.546H153.813V245.546ZM52.9954 292.457L51.4063 291.243L54.0938 294.129L52.9954 292.457ZM0 178.838L-0.57202 176.922L-0.16375 180.831L0 178.838ZM29.3184 94.1658L29.252 92.1669L24.0555 92.3395L28.028 95.6939L29.3184 94.1658ZM82.3371 43.0707L82.0323 41.0941L80.2731 41.3653L80.3385 43.1441L82.3371 43.0707ZM128.798 21.9656L129.891 23.6409V23.6409L128.798 21.9656ZM208.002 -2C183.556 -2 160.68 3.71625 140.538 12.1891L142.089 15.8762C161.833 7.5707 184.181 2 208.002 2V-2ZM275.057 13.6977C255.369 3.71633 232.447 -2 208.002 -2V2C231.824 2 254.126 7.5706 273.248 17.2654L275.057 13.6977ZM319.732 44.6138C305.978 33.5931 291.684 22.1307 275.057 13.6978L273.248 17.2652C289.446 25.4808 303.427 36.6749 317.23 47.7353L319.732 44.6138ZM327.264 50.6196C324.76 48.643 322.255 46.6359 319.732 44.6138L317.23 47.7353C319.752 49.7559 322.268 51.7721 324.785 53.7592L327.264 50.6196ZM368.263 102.21C354.398 96.6137 345.982 89.1001 340.214 80.5147C334.397 71.859 331.208 62.0331 327.933 51.5908L324.116 52.788C327.372 63.1668 330.707 73.5388 336.893 82.7456C343.127 92.0227 352.191 100.036 366.766 105.919L368.263 102.21ZM389.48 173.043C375.502 167.827 365.58 162.752 358.958 157.669C352.353 152.599 349.188 147.646 348.376 142.665C347.56 137.654 349.053 132.195 352.667 125.974C356.281 119.752 361.892 112.981 368.973 105.433L366.056 102.696C358.923 110.301 353.057 117.339 349.208 123.965C345.359 130.591 343.403 137.016 344.428 143.308C345.459 149.629 349.427 155.395 356.522 160.842C363.601 166.276 373.947 171.516 388.082 176.791L389.48 173.043ZM363.893 262.493C346.674 246.926 334.903 234.487 328.1 224.411C321.252 214.271 319.776 207.04 322.031 201.564C324.333 195.973 330.852 191.327 342.328 187.284C353.695 183.278 369.364 180.051 389.097 176.892L388.465 172.942C368.708 176.105 352.732 179.377 340.998 183.511C329.374 187.607 321.337 192.743 318.332 200.041C315.279 207.454 317.742 216.22 324.785 226.649C331.87 237.143 343.939 249.846 361.211 265.46L363.893 262.493ZM275.744 241.336C294.981 241.336 322.556 250.294 361.816 265.836L363.288 262.117C324.179 246.635 295.879 237.336 275.744 237.336V241.336ZM234.03 338.002C234.059 302.634 236.389 278.346 242.829 262.93C246.023 255.283 250.182 249.941 255.474 246.486C260.771 243.028 267.397 241.336 275.744 241.336V237.336C266.858 237.336 259.409 239.14 253.288 243.136C247.161 247.136 242.557 253.205 239.138 261.388C232.353 277.632 230.059 302.676 230.03 337.998L234.03 338.002ZM153.813 247.546C168.808 247.546 180.961 254.383 192.875 269.247C204.863 284.203 216.442 307.09 230.195 338.796L233.865 337.204C220.114 305.505 208.355 282.165 195.996 266.745C183.563 251.234 170.36 243.546 153.813 243.546V247.546ZM54.0938 294.129C77.3053 278.875 96.4936 267.205 112.804 259.352C129.13 251.492 142.402 247.542 153.812 247.546L153.814 243.546C141.524 243.541 127.613 247.783 111.069 255.748C94.5086 263.721 75.1384 275.512 51.897 290.786L54.0938 294.129ZM-0.16375 180.831C26.3813 183.012 47.1547 185.516 62.3431 189.433C77.6253 193.374 86.6948 198.612 90.596 205.806C94.454 212.921 93.6341 222.691 87.1224 236.767C80.6383 250.783 68.7507 268.548 51.4063 291.243L54.5844 293.672C71.9539 270.945 84.0725 252.887 90.7527 238.446C97.4054 224.066 98.908 212.744 94.1123 203.9C89.36 195.135 78.7998 189.546 63.342 185.56C47.7904 181.549 26.7136 179.026 0.16375 176.845L-0.16375 180.831ZM28.028 95.6939C39.9154 105.732 49.1021 114.372 54.9611 122.062C60.8436 129.783 63.0793 136.161 61.8443 141.808C60.603 147.484 55.7019 153.143 45.4781 159.02C35.3034 164.868 20.2437 170.709 -0.57202 176.922L0.57202 180.755C21.475 174.515 36.8893 168.57 47.4715 162.488C58.0046 156.434 64.1433 150.018 65.7519 142.663C67.3668 135.279 64.2626 127.67 58.1428 119.638C51.9994 111.575 42.5213 102.697 30.6087 92.6377L28.028 95.6939ZM80.3385 43.1441C80.8871 58.075 79.4766 69.7554 72.5607 77.9643C65.6761 86.1362 52.876 91.3825 29.252 92.1669L29.3847 96.1647C53.3606 95.3686 67.6199 90.0372 75.6198 80.5415C83.5884 71.083 84.8873 58.0062 84.3358 42.9973L80.3385 43.1441ZM127.706 20.2904C113.57 29.5087 100.011 38.3219 82.0323 41.0941L82.6419 45.0473C101.59 42.1256 115.828 32.8116 129.891 23.6409L127.706 20.2904ZM140.286 12.3166C135.98 14.8942 131.816 17.6101 127.706 20.2904L129.891 23.6409C134.011 20.9539 138.111 18.2803 142.34 15.7487L140.286 12.3166Z" fill="black" mask="url(#path-1-inside-1_178_240)"/>
</svg>
