<svg width="666" height="22" viewBox="0 0 666 22" fill="none" xmlns="http://www.w3.org/2000/svg">
<path d="M1 11C14.3333 -2.33333 27.6667 -2.33333 41 11C54.3333 24.3333 67.6667 24.3333 81 11C94.3333 -2.33333 107.667 -2.33333 121 11C134.333 24.3333 147.667 24.3333 161 11C174.333 -2.33333 187.667 -2.33333 201 11C214.333 24.3333 227.667 24.3333 241 11C254.333 -2.33333 267.667 -2.33333 281 11C294.333 24.3333 307.667 24.3333 321 11C334.333 -2.33333 347.667 -2.33333 361 11C374.333 24.3333 387.667 24.3333 401 11C414.333 -2.33333 427.667 -2.33333 441 11C454.333 24.3333 467.667 24.3333 481 11C494.333 -2.33333 507.667 -2.33333 521 11C534.333 24.3333 547.667 24.3333 561 11C574.333 -2.33333 587.667 -2.33333 601 11C614.333 24.3333 627.667 24.3333 641 11C654.333 -2.33333 667.667 -2.33333 681 11C694.333 24.3333 707.667 24.3333 721 11C734.333 -2.33333 747.667 -2.33333 761 11C774.333 24.3333 787.667 24.3333 801 11" stroke="black" stroke-width="2"/>
</svg>
