<svg width="873" height="22" viewBox="0 0 873 22" fill="none" xmlns="http://www.w3.org/2000/svg">
<path d="M72 11C85.3333 -2.33333 98.6667 -2.33333 112 11C125.333 24.3333 138.667 24.3333 152 11C165.333 -2.33333 178.667 -2.33333 192 11C205.333 24.3333 218.667 24.3333 232 11C245.333 -2.33333 258.667 -2.33333 272 11C285.333 24.3333 298.667 24.3333 312 11C325.333 -2.33333 338.667 -2.33333 352 11C365.333 24.3333 378.667 24.3333 392 11C405.333 -2.33333 418.667 -2.33333 432 11C445.333 24.3333 458.667 24.3333 472 11C485.333 -2.33333 498.667 -2.33333 512 11C525.333 24.3333 538.667 24.3333 552 11C565.333 -2.33333 578.667 -2.33333 592 11C605.333 24.3333 618.667 24.3333 632 11C645.333 -2.33333 658.667 -2.33333 672 11C685.333 24.3333 698.667 24.3333 712 11C725.333 -2.33333 738.667 -2.33333 752 11C765.333 24.3333 778.667 24.3333 792 11C805.333 -2.33333 818.667 -2.33333 832 11C845.333 24.3333 858.667 24.3333 872 11" stroke="#484848" stroke-width="2"/>
<path d="M-728 11C-714.667 -2.33333 -701.333 -2.33333 -688 11C-674.667 24.3333 -661.333 24.3333 -648 11C-634.667 -2.33333 -621.333 -2.33333 -608 11C-594.667 24.3333 -581.333 24.3333 -568 11C-554.667 -2.33333 -541.333 -2.33333 -528 11C-514.667 24.3333 -501.333 24.3333 -488 11C-474.667 -2.33333 -461.333 -2.33333 -448 11C-434.667 24.3333 -421.333 24.3333 -408 11C-394.667 -2.33333 -381.333 -2.33333 -368 11C-354.667 24.3333 -341.333 24.3333 -328 11C-314.667 -2.33333 -301.333 -2.33333 -288 11C-274.667 24.3333 -261.333 24.3333 -248 11C-234.667 -2.33333 -221.333 -2.33333 -208 11C-194.667 24.3333 -181.333 24.3333 -168 11C-154.667 -2.33333 -141.333 -2.33333 -128 11C-114.667 24.3333 -101.333 24.3333 -88 11C-74.6667 -2.33333 -61.3333 -2.33333 -48 11C-34.6667 24.3333 -21.3333 24.3333 -8 11C5.33333 -2.33333 18.6667 -2.33333 32 11C45.3333 24.3333 58.6667 24.3333 72 11" stroke="#484848" stroke-width="2"/>
</svg>
