<svg width="949" height="22" viewBox="0 0 949 22" fill="none" xmlns="http://www.w3.org/2000/svg">
<path d="M1 11C24.3333 -2.33333 47.6667 -2.33333 71 11C94.3333 24.3333 117.667 24.3333 141 11C164.333 -2.33333 187.667 -2.33333 211 11C234.333 24.3333 257.667 24.3333 281 11C304.333 -2.33333 327.667 -2.33333 351 11C374.333 24.3333 397.667 24.3333 421 11C444.333 -2.33333 467.667 -2.33333 491 11C514.333 24.3333 537.667 24.3333 561 11C584.333 -2.33333 607.667 -2.33333 631 11C654.333 24.3333 677.667 24.3333 701 11C724.333 -2.33333 747.667 -2.33333 771 11C794.333 24.3333 817.667 24.3333 841 11C864.333 -2.33333 887.667 -2.33333 911 11C934.333 24.3333 957.667 24.3333 981 11C1004.33 -2.33333 1027.67 -2.33333 1051 11C1074.33 24.3333 1097.67 24.3333 1121 11C1144.33 -2.33333 1167.67 -2.33333 1191 11C1214.33 24.3333 1237.67 24.3333 1261 11C1284.33 -2.33333 1307.67 -2.33333 1331 11C1354.33 24.3333 1377.67 24.3333 1401 11C1424.33 -2.33333 1447.67 -2.33333 1471 11C1494.33 24.3333 1517.67 24.3333 1541 11C1564.33 -2.33333 1587.67 -2.33333 1611 11C1634.33 24.3333 1657.67 24.3333 1681 11C1704.33 -2.33333 1727.67 -2.33333 1751 11C1774.33 24.3333 1797.67 24.3333 1821 11C1844.33 -2.33333 1867.67 -2.33333 1891 11C1914.33 24.3333 1937.67 24.3333 1961 11C1984.33 -2.33333 2007.67 -2.33333 2031 11C2054.33 24.3333 2077.67 24.3333 2101 11C2124.33 -2.33333 2147.67 -2.33333 2171 11C2194.33 24.3333 2217.67 24.3333 2241 11C2264.33 -2.33333 2287.67 -2.33333 2311 11C2334.33 24.3333 2357.67 24.3333 2381 11C2404.33 -2.33333 2427.67 -2.33333 2451 11C2474.33 24.3333 2497.67 24.3333 2521 11C2544.33 -2.33333 2567.67 -2.33333 2591 11C2614.33 24.3333 2637.67 24.3333 2661 11C2684.33 -2.33333 2707.67 -2.33333 2731 11C2754.33 24.3333 2777.67 24.3333 2801 11C2824.33 -2.33333 2847.67 -2.33333 2871 11C2894.33 24.3333 2917.67 24.3333 2941 11C2964.33 -2.33333 2987.67 -2.33333 3011 11C3034.33 24.3333 3057.67 24.3333 3081 11C3104.33 -2.33333 3127.67 -2.33333 3151 11C3174.33 24.3333 3197.67 24.3333 3221 11C3244.33 -2.33333 3267.67 -2.33333 3291 11C3314.33 24.3333 3337.67 24.3333 3361 11C3384.33 -2.33333 3407.67 -2.33333 3431 11C3454.33 24.3333 3477.67 24.3333 3501 11C3524.33 -2.33333 3547.67 -2.33333 3571 11C3594.33 24.3333 3617.67 24.3333 3641 11C3664.33 -2.33333 3687.67 -2.33333 3711 11C3734.33 24.3333 3757.67 24.3333 3781 11C3804.33 -2.33333 3827.67 -2.33333 3851 11C3874.33 24.3333 3897.67 24.3333 3921 11C3944.33 -2.33333 3967.67 -2.33333 3991 11C4014.33 24.3333 4037.67 24.3333 4061 11C4084.33 -2.33333 4107.67 -2.33333 4131 11C4154.33 24.3333 4177.67 24.3333 4201 11" stroke="black" stroke-width="2"/>
</svg>
