<svg width="780" height="24" viewBox="0 0 780 24" fill="none" xmlns="http://www.w3.org/2000/svg">
<path d="M-22 12C-8.66667 -1.33333 4.66667 -1.33333 18 12C31.3333 25.3333 44.6667 25.3333 58 12C71.3333 -1.33333 84.6667 -1.33333 98 12C111.333 25.3333 124.667 25.3333 138 12C151.333 -1.33333 164.667 -1.33333 178 12C191.333 25.3333 204.667 25.3333 218 12C231.333 -1.33333 244.667 -1.33333 258 12C271.333 25.3333 284.667 25.3333 298 12C311.333 -1.33333 324.667 -1.33333 338 12C351.333 25.3333 364.667 25.3333 378 12C391.333 -1.33333 404.667 -1.33333 418 12C431.333 25.3333 444.667 25.3333 458 12C471.333 -1.33333 484.667 -1.33333 498 12C511.333 25.3333 524.667 25.3333 538 12C551.333 -1.33333 564.667 -1.33333 578 12C591.333 25.3333 604.667 25.3333 618 12C631.333 -1.33333 644.667 -1.33333 658 12C671.333 25.3333 684.667 25.3333 698 12C711.333 -1.33333 724.667 -1.33333 738 12C751.333 25.3333 764.667 25.3333 778 12" stroke="#484848" stroke-width="4"/>
</svg>
