<svg width="360" height="22" viewBox="0 0 360 22" fill="none" xmlns="http://www.w3.org/2000/svg">
<path d="M-3841 11C-3817.67 -2.33333 -3794.33 -2.33333 -3771 11C-3747.67 24.3333 -3724.33 24.3333 -3701 11C-3677.67 -2.33333 -3654.33 -2.33333 -3631 11C-3607.67 24.3333 -3584.33 24.3333 -3561 11C-3537.67 -2.33333 -3514.33 -2.33333 -3491 11C-3467.67 24.3333 -3444.33 24.3333 -3421 11C-3397.67 -2.33333 -3374.33 -2.33333 -3351 11C-3327.67 24.3333 -3304.33 24.3333 -3281 11C-3257.67 -2.33333 -3234.33 -2.33333 -3211 11C-3187.67 24.3333 -3164.33 24.3333 -3141 11C-3117.67 -2.33333 -3094.33 -2.33333 -3071 11C-3047.67 24.3333 -3024.33 24.3333 -3001 11C-2977.67 -2.33333 -2954.33 -2.33333 -2931 11C-2907.67 24.3333 -2884.33 24.3333 -2861 11C-2837.67 -2.33333 -2814.33 -2.33333 -2791 11C-2767.67 24.3333 -2744.33 24.3333 -2721 11C-2697.67 -2.33333 -2674.33 -2.33333 -2651 11C-2627.67 24.3333 -2604.33 24.3333 -2581 11C-2557.67 -2.33333 -2534.33 -2.33333 -2511 11C-2487.67 24.3333 -2464.33 24.3333 -2441 11C-2417.67 -2.33333 -2394.33 -2.33333 -2371 11C-2347.67 24.3333 -2324.33 24.3333 -2301 11C-2277.67 -2.33333 -2254.33 -2.33333 -2231 11C-2207.67 24.3333 -2184.33 24.3333 -2161 11C-2137.67 -2.33333 -2114.33 -2.33333 -2091 11C-2067.67 24.3333 -2044.33 24.3333 -2021 11C-1997.67 -2.33333 -1974.33 -2.33333 -1951 11C-1927.67 24.3333 -1904.33 24.3333 -1881 11C-1857.67 -2.33333 -1834.33 -2.33333 -1811 11C-1787.67 24.3333 -1764.33 24.3333 -1741 11C-1717.67 -2.33333 -1694.33 -2.33333 -1671 11C-1647.67 24.3333 -1624.33 24.3333 -1601 11C-1577.67 -2.33333 -1554.33 -2.33333 -1531 11C-1507.67 24.3333 -1484.33 24.3333 -1461 11C-1437.67 -2.33333 -1414.33 -2.33333 -1391 11C-1367.67 24.3333 -1344.33 24.3333 -1321 11C-1297.67 -2.33333 -1274.33 -2.33333 -1251 11C-1227.67 24.3333 -1204.33 24.3333 -1181 11C-1157.67 -2.33333 -1134.33 -2.33333 -1111 11C-1087.67 24.3333 -1064.33 24.3333 -1041 11C-1017.67 -2.33333 -994.333 -2.33333 -971 11C-947.667 24.3333 -924.333 24.3333 -901 11C-877.667 -2.33333 -854.333 -2.33333 -831 11C-807.667 24.3333 -784.333 24.3333 -761 11C-737.667 -2.33333 -714.333 -2.33333 -691 11C-667.667 24.3333 -644.333 24.3333 -621 11C-597.667 -2.33333 -574.333 -2.33333 -551 11C-527.667 24.3333 -504.333 24.3333 -481 11C-457.667 -2.33333 -434.333 -2.33333 -411 11C-387.667 24.3333 -364.333 24.3333 -341 11C-317.667 -2.33333 -294.333 -2.33333 -271 11C-247.667 24.3333 -224.333 24.3333 -201 11C-177.667 -2.33333 -154.333 -2.33333 -131 11C-107.667 24.3333 -84.3333 24.3333 -61 11C-37.6667 -2.33333 -14.3333 -2.33333 9 11C32.3333 24.3333 55.6667 24.3333 79 11C102.333 -2.33333 125.667 -2.33333 149 11C172.333 24.3333 195.667 24.3333 219 11C242.333 -2.33333 265.667 -2.33333 289 11C312.333 24.3333 335.667 24.3333 359 11" stroke="black"/>
</svg>
