<svg width="248" height="276" viewBox="0 0 248 276" fill="none" xmlns="http://www.w3.org/2000/svg">
<mask id="path-1-inside-1_178_233" fill="white">
<path fill-rule="evenodd" clip-rule="evenodd" d="M124 23.03C131.63 7.4 139.1 0 146.35 0C155.37 0 164.04 11.44 172.27 32.73C174.503 34.5172 176.702 36.3077 178.866 38.0693C191.074 48.0077 202.149 57.0235 211.68 59.3C222.9 68.32 231.98 81.73 238.25 98.71C240.42 114.54 242.25 117.76 243.72 117.76C244.272 117.76 244.775 117.3 245.226 116.888C245.592 116.553 245.924 116.25 246.22 116.25C247.38 116.25 247.99 120.956 247.99 146.95C247.977 146.95 247.911 147.527 247.793 148.559C246.974 155.71 243.651 184.727 238.25 195.24C233.82 226.48 227.99 244.02 220.99 244.02C218.08 244.02 214.97 240.99 211.68 234.66C209.53 226.32 207.3 223.05 205 223.05C201.048 223.05 196.878 232.674 192.514 242.746C187.723 253.803 182.698 265.4 177.47 265.4C175.76 265.4 174.03 264.16 172.27 261.24C169.72 257.9 167.11 256.58 164.47 256.58C159.567 256.58 154.525 261.128 149.367 265.782C143.962 270.658 138.428 275.65 132.79 275.65C129.89 275.65 126.96 274.33 124.01 270.99C118.43 265.32 112.95 263.76 107.57 263.76C104.216 263.76 100.906 264.368 97.6447 264.966C94.4787 265.547 91.3589 266.12 88.29 266.12C84 266.12 79.82 265.01 75.74 261.25C68.2389 251.169 61.1139 249.142 54.4516 247.247C47.9423 245.395 41.8748 243.669 36.33 234.68C34.3083 238.159 32.3566 242.515 30.4788 246.706C26.9971 254.476 23.7693 261.68 20.8199 261.68C16.5199 261.68 12.8 246.39 9.75 195.27C4.90954 194.37 1.73884 162.947 0.541737 151.084C0.26239 148.315 0.0905131 146.612 0.0299683 146.61C0.00996826 146.61 0 146.74 0 147.01C0 116.11 2.13998 93.36 6.09998 93.36C7.17998 93.36 8.38999 95.06 9.73999 98.75C13.43 66.85 18.09 63.87 23.58 63.87C24.1991 63.87 24.8279 63.9086 25.4675 63.9479C26.1296 63.9886 26.8033 64.03 27.49 64.03C30.26 64.03 33.2 63.37 36.31 59.34C39.9025 57.0667 43.7153 50.4892 47.7263 43.57C53.384 33.8101 59.4359 23.37 65.8199 23.37C69.0399 23.37 72.35 26.03 75.73 32.77C79.0468 33.2128 82.4352 34.2472 85.8892 35.3016C90.7037 36.7713 95.6459 38.28 100.7 38.28C108.25 38.28 116.04 34.92 124 23.03Z"/>
</mask>
<path fill-rule="evenodd" clip-rule="evenodd" d="M124 23.03C131.63 7.4 139.1 0 146.35 0C155.37 0 164.04 11.44 172.27 32.73C174.503 34.5172 176.702 36.3077 178.866 38.0693C191.074 48.0077 202.149 57.0235 211.68 59.3C222.9 68.32 231.98 81.73 238.25 98.71C240.42 114.54 242.25 117.76 243.72 117.76C244.272 117.76 244.775 117.3 245.226 116.888C245.592 116.553 245.924 116.25 246.22 116.25C247.38 116.25 247.99 120.956 247.99 146.95C247.977 146.95 247.911 147.527 247.793 148.559C246.974 155.71 243.651 184.727 238.25 195.24C233.82 226.48 227.99 244.02 220.99 244.02C218.08 244.02 214.97 240.99 211.68 234.66C209.53 226.32 207.3 223.05 205 223.05C201.048 223.05 196.878 232.674 192.514 242.746C187.723 253.803 182.698 265.4 177.47 265.4C175.76 265.4 174.03 264.16 172.27 261.24C169.72 257.9 167.11 256.58 164.47 256.58C159.567 256.58 154.525 261.128 149.367 265.782C143.962 270.658 138.428 275.65 132.79 275.65C129.89 275.65 126.96 274.33 124.01 270.99C118.43 265.32 112.95 263.76 107.57 263.76C104.216 263.76 100.906 264.368 97.6447 264.966C94.4787 265.547 91.3589 266.12 88.29 266.12C84 266.12 79.82 265.01 75.74 261.25C68.2389 251.169 61.1139 249.142 54.4516 247.247C47.9423 245.395 41.8748 243.669 36.33 234.68C34.3083 238.159 32.3566 242.515 30.4788 246.706C26.9971 254.476 23.7693 261.68 20.8199 261.68C16.5199 261.68 12.8 246.39 9.75 195.27C4.90954 194.37 1.73884 162.947 0.541737 151.084C0.26239 148.315 0.0905131 146.612 0.0299683 146.61C0.00996826 146.61 0 146.74 0 147.01C0 116.11 2.13998 93.36 6.09998 93.36C7.17998 93.36 8.38999 95.06 9.73999 98.75C13.43 66.85 18.09 63.87 23.58 63.87C24.1991 63.87 24.8279 63.9086 25.4675 63.9479C26.1296 63.9886 26.8033 64.03 27.49 64.03C30.26 64.03 33.2 63.37 36.31 59.34C39.9025 57.0667 43.7153 50.4892 47.7263 43.57C53.384 33.8101 59.4359 23.37 65.8199 23.37C69.0399 23.37 72.35 26.03 75.73 32.77C79.0468 33.2128 82.4352 34.2472 85.8892 35.3016C90.7037 36.7713 95.6459 38.28 100.7 38.28C108.25 38.28 116.04 34.92 124 23.03Z" fill="#FFF4CE"/>
<path d="M124 23.03L125.662 24.1426L125.738 24.0296L125.797 23.9074L124 23.03ZM172.27 32.73L170.404 33.4511L170.599 33.9543L171.02 34.2914L172.27 32.73ZM178.866 38.0693L180.129 36.5182L180.129 36.5182L178.866 38.0693ZM211.68 59.3L212.933 57.7412L212.582 57.4593L212.145 57.3547L211.68 59.3ZM238.25 98.71L240.231 98.4384L240.202 98.222L240.126 98.0172L238.25 98.71ZM245.226 116.888L243.877 115.412L243.877 115.412L245.226 116.888ZM247.99 146.95V148.95H249.99L249.99 146.95L247.99 146.95ZM247.793 148.559L249.78 148.786V148.786L247.793 148.559ZM238.25 195.24L236.471 194.326L236.317 194.626L236.27 194.959L238.25 195.24ZM211.68 234.66L209.743 235.159L209.8 235.38L209.905 235.582L211.68 234.66ZM192.514 242.746L194.349 243.541L192.514 242.746ZM172.27 261.24L173.983 260.208L173.926 260.114L173.86 260.026L172.27 261.24ZM149.367 265.782L148.027 264.297L149.367 265.782ZM124.01 270.99L125.509 269.666L125.473 269.626L125.435 269.587L124.01 270.99ZM97.6447 264.966L97.2837 262.999H97.2837L97.6447 264.966ZM75.74 261.25L74.1355 262.444L74.2471 262.594L74.3846 262.721L75.74 261.25ZM54.4516 247.247L53.9044 249.171L54.4516 247.247ZM36.33 234.68L38.0322 233.63L36.2787 230.787L34.6007 233.675L36.33 234.68ZM30.4788 246.706L28.6537 245.888L30.4788 246.706ZM9.75 195.27L11.7464 195.151L11.6533 193.59L10.1156 193.304L9.75 195.27ZM0.541737 151.084L-1.44816 151.284L0.541737 151.084ZM0.0299683 146.61L0.0924398 144.611L0.0612117 144.61H0.0299683V146.61ZM9.73999 98.75L7.86174 99.4372L11.7267 98.9798L9.73999 98.75ZM25.4675 63.9479L25.5902 61.9517H25.5902L25.4675 63.9479ZM36.31 59.34L35.2405 57.6499L34.9423 57.8387L34.7267 58.1181L36.31 59.34ZM47.7263 43.57L45.996 42.567L47.7263 43.57ZM75.73 32.77L73.9422 33.6665L74.4165 34.6124L75.4653 34.7524L75.73 32.77ZM85.8892 35.3016L86.4732 33.3887L85.8892 35.3016ZM146.35 -2C141.993 -2 137.83 0.232202 133.889 4.25393C129.95 8.2736 126.064 14.2438 122.203 22.1526L125.797 23.9074C129.566 16.1862 133.23 10.6414 136.746 7.05357C140.26 3.4678 143.457 2 146.35 2V-2ZM174.135 32.0089C169.991 21.2868 165.681 12.8947 161.181 7.14815C156.709 1.43716 151.771 -2 146.35 -2V2C149.949 2 153.856 4.28285 158.032 9.61436C162.179 14.9103 166.319 22.8832 170.404 33.4511L174.135 32.0089ZM180.129 36.5182C177.966 34.7575 175.76 32.9617 173.52 31.1686L171.02 34.2914C173.245 36.0726 175.439 37.8579 177.603 39.6203L180.129 36.5182ZM212.145 57.3547C207.744 56.3037 202.838 53.6507 197.412 49.9111C192.005 46.1846 186.249 41.5009 180.129 36.5182L177.603 39.6203C183.691 44.5761 189.577 49.3696 195.142 53.2047C200.688 57.0267 206.085 60.0198 211.215 61.2453L212.145 57.3547ZM240.126 98.0172C233.761 80.7795 224.496 67.0373 212.933 57.7412L210.427 60.8587C221.303 69.6027 230.199 82.6805 236.374 99.4028L240.126 98.0172ZM243.72 115.76C244.212 115.76 244.348 116.073 244.15 115.809C243.932 115.519 243.579 114.864 243.148 113.548C242.295 110.945 241.313 106.332 240.231 98.4384L236.269 98.9816C237.357 106.918 238.375 111.83 239.347 114.794C239.828 116.263 240.344 117.402 240.951 118.21C241.577 119.045 242.493 119.76 243.72 119.76V115.76ZM243.877 115.412C243.759 115.519 243.671 115.6 243.585 115.673C243.5 115.744 243.443 115.787 243.406 115.812C243.368 115.837 243.375 115.827 243.421 115.81C243.472 115.791 243.576 115.76 243.72 115.76V119.76C244.554 119.76 245.209 119.415 245.616 119.146C246.019 118.878 246.373 118.549 246.575 118.365L243.877 115.412ZM246.22 114.25C245.428 114.25 244.842 114.635 244.591 114.813C244.305 115.016 244.033 115.269 243.877 115.412L246.575 118.365C246.671 118.277 246.74 118.214 246.803 118.16C246.866 118.105 246.897 118.082 246.907 118.074C246.92 118.065 246.874 118.1 246.78 118.14C246.684 118.182 246.488 118.25 246.22 118.25V114.25ZM249.99 146.95C249.99 133.958 249.838 126.22 249.535 121.718C249.386 119.493 249.192 117.931 248.921 116.888C248.79 116.383 248.597 115.819 248.259 115.344C247.873 114.801 247.19 114.25 246.22 114.25V118.25C245.54 118.25 245.13 117.846 244.999 117.662C244.916 117.546 244.961 117.553 245.05 117.895C245.22 118.547 245.396 119.786 245.544 121.987C245.837 126.336 245.99 133.948 245.99 146.95L249.99 146.95ZM249.78 148.786C249.84 148.267 249.885 147.872 249.917 147.606C249.933 147.471 249.944 147.383 249.951 147.333C249.955 147.304 249.955 147.311 249.95 147.336C249.95 147.34 249.939 147.399 249.918 147.477C249.911 147.503 249.88 147.621 249.816 147.764C249.789 147.824 249.709 148.001 249.556 148.194C249.476 148.294 249.329 148.46 249.102 148.612C248.866 148.77 248.485 148.95 247.99 148.95V144.95C247.027 144.95 246.509 145.599 246.423 145.707C246.269 145.9 246.188 146.078 246.161 146.14C246.096 146.285 246.064 146.406 246.056 146.436C246.032 146.523 246.019 146.596 246.015 146.618C246.004 146.678 245.995 146.739 245.99 146.779C245.977 146.87 245.962 146.99 245.945 147.128C245.912 147.409 245.865 147.818 245.806 148.331L249.78 148.786ZM240.029 196.154C242.893 190.579 245.111 180.39 246.711 170.974C248.33 161.454 249.37 152.365 249.78 148.786L245.806 148.331C245.397 151.904 244.366 160.9 242.768 170.304C241.152 179.813 239.008 189.388 236.471 194.326L240.029 196.154ZM220.99 246.02C223.659 246.02 225.856 244.339 227.617 241.992C229.397 239.62 231.001 236.229 232.473 232.003C235.423 223.527 238.01 211.18 240.23 195.521L236.27 194.959C234.06 210.54 231.517 222.583 228.695 230.687C227.28 234.751 225.838 237.698 224.417 239.591C222.978 241.509 221.821 242.02 220.99 242.02V246.02ZM209.905 235.582C211.596 238.836 213.308 241.377 215.065 243.13C216.816 244.877 218.8 246.02 220.99 246.02V242.02C220.27 242.02 219.244 241.648 217.89 240.298C216.542 238.953 215.053 236.814 213.455 233.738L209.905 235.582ZM205 225.05C205.068 225.05 205.678 225.081 206.68 226.755C207.646 228.368 208.684 231.051 209.743 235.159L213.617 234.161C212.526 229.929 211.374 226.807 210.112 224.7C208.887 222.654 207.232 221.05 205 221.05V225.05ZM194.349 243.541C196.546 238.471 198.634 233.659 200.651 230.109C201.661 228.33 202.593 226.978 203.44 226.094C204.328 225.168 204.836 225.05 205 225.05V221.05C203.188 221.05 201.693 222.135 200.551 223.328C199.368 224.563 198.244 226.247 197.173 228.133C195.026 231.912 192.846 236.949 190.679 241.951L194.349 243.541ZM177.47 267.4C179.54 267.4 181.314 266.258 182.755 264.841C184.219 263.401 185.591 261.433 186.881 259.23C189.464 254.822 191.969 249.034 194.349 243.541L190.679 241.951C188.268 247.515 185.864 253.054 183.43 257.208C182.212 259.287 181.048 260.909 179.95 261.989C178.829 263.092 178.014 263.4 177.47 263.4V267.4ZM170.557 262.272C172.416 265.356 174.667 267.4 177.47 267.4V263.4C176.853 263.4 175.644 262.964 173.983 260.208L170.557 262.272ZM164.47 258.58C166.314 258.58 168.39 259.453 170.68 262.454L173.86 260.026C171.05 256.347 167.906 254.58 164.47 254.58V258.58ZM150.706 267.267C153.312 264.917 155.757 262.715 158.142 261.088C160.543 259.449 162.62 258.58 164.47 258.58V254.58C161.417 254.58 158.522 255.985 155.887 257.784C153.235 259.594 150.58 261.994 148.027 264.297L150.706 267.267ZM132.79 277.65C136.191 277.65 139.385 276.151 142.281 274.204C145.186 272.252 148.029 269.682 150.706 267.267L148.027 264.297C145.299 266.758 142.673 269.122 140.05 270.885C137.419 272.653 135.027 273.65 132.79 273.65V277.65ZM122.511 272.314C125.742 275.972 129.182 277.65 132.79 277.65V273.65C130.598 273.65 128.178 272.688 125.509 269.666L122.511 272.314ZM107.57 265.76C112.459 265.76 117.411 267.136 122.584 272.393L125.435 269.587C119.449 263.504 113.441 261.76 107.57 261.76V265.76ZM98.0058 266.933C101.297 266.329 104.428 265.76 107.57 265.76V261.76C104.004 261.76 100.514 262.406 97.2837 262.999L98.0058 266.933ZM88.29 268.12C91.573 268.12 94.8754 267.508 98.0058 266.933L97.2837 262.999C94.082 263.587 91.1448 264.12 88.29 264.12V268.12ZM74.3846 262.721C78.8927 266.875 83.5839 268.12 88.29 268.12V264.12C84.4161 264.12 80.7472 263.145 77.0954 259.779L74.3846 262.721ZM53.9044 249.171C57.2506 250.123 60.4804 251.049 63.7985 252.921C67.0875 254.776 70.5378 257.609 74.1355 262.444L77.3445 260.056C73.4411 254.81 69.5783 251.589 65.764 249.437C61.9787 247.302 58.3149 246.267 54.9989 245.324L53.9044 249.171ZM34.6277 235.73C37.5542 240.474 40.683 243.395 44.0117 245.362C47.2911 247.3 50.6817 248.254 53.9044 249.171L54.9989 245.324C51.7122 244.389 48.8145 243.554 46.0466 241.918C43.3279 240.312 40.6506 237.875 38.0322 233.63L34.6277 235.73ZM32.304 247.524C34.194 243.305 36.1011 239.055 38.0592 235.685L34.6007 233.675C32.5155 237.264 30.5193 241.724 28.6537 245.888L32.304 247.524ZM20.8199 263.68C22.3786 263.68 23.6257 262.748 24.5204 261.824C25.4587 260.856 26.3431 259.55 27.179 258.112C28.8544 255.228 30.5784 251.375 32.304 247.524L28.6537 245.888C26.8975 249.807 25.2667 253.441 23.7205 256.102C22.9455 257.436 22.2523 258.417 21.6472 259.042C20.9983 259.711 20.7359 259.68 20.8199 259.68V263.68ZM7.75355 195.389C9.27922 220.96 10.9768 237.664 12.8482 248.001C13.7803 253.15 14.7775 256.852 15.8802 259.311C16.4307 260.538 17.0611 261.58 17.8223 262.339C18.6123 263.127 19.622 263.68 20.8199 263.68V259.68C20.9429 259.68 20.8957 259.755 20.6473 259.507C20.3702 259.231 19.9806 258.679 19.53 257.674C18.6305 255.668 17.7009 252.352 16.7842 247.289C14.9581 237.201 13.2708 220.7 11.7464 195.151L7.75355 195.389ZM-1.44816 151.284C-0.850476 157.208 0.246969 168.09 1.80589 177.611C2.5836 182.362 3.48821 186.851 4.52498 190.24C5.04025 191.924 5.61681 193.434 6.27631 194.59C6.85746 195.609 7.82917 196.947 9.38441 197.236L10.1156 193.304C10.4607 193.368 10.2745 193.527 9.75107 192.609C9.30601 191.828 8.83137 190.643 8.34999 189.069C7.39345 185.943 6.52298 181.666 5.75333 176.965C4.21751 167.584 3.13105 156.823 2.53163 150.883L-1.44816 151.284ZM-0.0325033 148.609C-0.638411 148.59 -1.05915 148.31 -1.26911 148.129C-1.47792 147.95 -1.60111 147.769 -1.65831 147.678C-1.77363 147.494 -1.82943 147.335 -1.84449 147.293C-1.86731 147.228 -1.88079 147.177 -1.88661 147.155C-1.89329 147.129 -1.89726 147.11 -1.89878 147.103C-1.90212 147.088 -1.89689 147.111 -1.88376 147.203C-1.85952 147.373 -1.8265 147.646 -1.78406 148.029C-1.69993 148.789 -1.58829 149.896 -1.44816 151.284L2.53163 150.883C2.39242 149.503 2.27845 148.374 2.19166 147.589C2.14865 147.201 2.10988 146.875 2.07614 146.638C2.06028 146.527 2.03996 146.395 2.01455 146.275C2.00433 146.227 1.97814 146.106 1.92974 145.968C1.91003 145.912 1.84979 145.743 1.73025 145.552C1.67094 145.458 1.5457 145.274 1.33489 145.093C1.12292 144.911 0.70024 144.63 0.0924398 144.611L-0.0325033 148.609ZM2 147.01C2 146.885 2.00273 146.847 2.00183 146.859C2.00132 146.866 1.9997 146.886 1.99595 146.916C1.99274 146.941 1.98459 147.001 1.96665 147.08C1.95535 147.129 1.91013 147.329 1.78598 147.56C1.72301 147.678 1.58714 147.905 1.33825 148.121C1.06574 148.358 0.618266 148.61 0.0299683 148.61V144.61C-1.17374 144.61 -1.68442 145.568 -1.74011 145.672C-1.86863 145.912 -1.9179 146.123 -1.93296 146.189C-1.97099 146.356 -1.98256 146.501 -1.98686 146.558C-1.99774 146.703 -2 146.865 -2 147.01H2ZM6.09998 91.36C4.55131 91.36 3.56191 92.4688 3.01721 93.3185C2.42659 94.2397 1.95416 95.4634 1.55517 96.8411C0.748619 99.6261 0.0952828 103.573 -0.423481 108.383C-1.46448 118.035 -2 131.528 -2 147.01H2C2 131.592 2.53446 118.26 3.55346 108.812C4.06469 104.072 4.68884 100.4 5.39729 97.9538C5.7558 96.7159 6.10024 95.9209 6.38462 95.4773C6.71492 94.9621 6.65864 95.36 6.09998 95.36V91.36ZM11.6182 98.0628C10.9221 96.1601 10.2146 94.6313 9.46946 93.542C8.80952 92.5773 7.7138 91.36 6.09998 91.36V95.36C5.56615 95.36 5.61544 94.9927 6.168 95.8004C6.63539 96.4837 7.20787 97.6499 7.86174 99.4372L11.6182 98.0628ZM23.58 61.87C22.0247 61.87 20.2832 62.0799 18.5736 63.1298C16.8794 64.1702 15.4475 65.8919 14.188 68.4694C11.7101 73.5405 9.59826 82.57 7.75324 98.5202L11.7267 98.9798C13.5717 83.03 15.6348 74.6195 17.7819 70.2256C18.8349 68.0706 19.828 67.0535 20.6669 66.5383C21.4904 66.0326 22.3902 65.87 23.58 65.87V61.87ZM25.5902 61.9517C24.9618 61.9131 24.2711 61.87 23.58 61.87V65.87C24.1271 65.87 24.694 65.9042 25.3449 65.9442L25.5902 61.9517ZM27.49 62.03C26.8746 62.03 26.2615 61.9929 25.5902 61.9517L25.3449 65.9442C25.9978 65.9843 26.7321 66.03 27.49 66.03V62.03ZM34.7267 58.1181C33.33 59.9279 32.0622 60.8672 30.9443 61.3758C29.8252 61.8849 28.7095 62.03 27.49 62.03V66.03C29.0405 66.03 30.7798 65.8451 32.6007 65.0167C34.4228 64.1878 36.18 62.7821 37.8933 60.5619L34.7267 58.1181ZM45.996 42.567C43.9803 46.0442 42.0629 49.3498 40.2085 52.0709C38.318 54.8451 36.6613 56.7509 35.2405 57.6499L37.3795 61.03C39.5513 59.6557 41.5972 57.1362 43.514 54.3235C45.4669 51.4577 47.4613 48.0151 49.4566 44.573L45.996 42.567ZM65.8199 21.37C63.6613 21.37 61.6801 22.2537 59.9178 23.537C58.1577 24.8187 56.4962 26.5845 54.9299 28.5721C51.8056 32.5368 48.804 37.723 45.996 42.567L49.4566 44.573C52.3063 39.657 55.1595 34.7433 58.0716 31.0479C59.5235 29.2055 60.9255 27.7513 62.2725 26.7705C63.6173 25.7913 64.7865 25.37 65.8199 25.37V21.37ZM77.5178 31.8734C74.0986 25.0554 70.2898 21.37 65.8199 21.37V25.37C67.7901 25.37 70.6013 27.0046 73.9422 33.6665L77.5178 31.8734ZM86.4732 33.3887C83.0531 32.3447 79.5035 31.256 75.9946 30.7876L75.4653 34.7524C78.5901 35.1696 81.8172 36.1496 85.3053 37.2144L86.4732 33.3887ZM100.7 36.28C95.9953 36.28 91.3411 34.8748 86.4732 33.3887L85.3053 37.2144C90.0664 38.6678 95.2965 40.28 100.7 40.28V36.28ZM122.338 21.9174C118.473 27.6899 114.736 31.2627 111.169 33.3977C107.626 35.5186 104.153 36.28 100.7 36.28V40.28C104.797 40.28 108.994 39.3614 113.223 36.8298C117.429 34.3123 121.567 30.2601 125.662 24.1426L122.338 21.9174Z" fill="black" mask="url(#path-1-inside-1_178_233)"/>
</svg>
