<svg width="567" height="327" viewBox="0 0 567 327" fill="none" xmlns="http://www.w3.org/2000/svg">
<mask id="path-1-inside-1_178_142" fill="white">
<path fill-rule="evenodd" clip-rule="evenodd" d="M294.112 23.1597C359.361 111.576 471.301 140.76 576.301 128.125C535.925 149.176 490.063 151.057 445.901 152.87L445.622 152.881C431.234 153.056 422.967 155.688 418.055 159.689C412.135 164.513 411.061 171.348 409.968 178.304C409.866 178.951 409.765 179.599 409.659 180.246C405.421 221.746 385.352 261.628 350.458 290.056C306.84 325.59 250.371 334.819 200.284 319.706C190.278 316.685 180.511 312.688 171.151 307.734C173.871 305.704 176.603 303.563 179.314 301.354C248.185 245.247 311.361 136.778 233.294 62.8049C226.97 57.5809 219.856 53.1357 211.972 49.5556C186.649 36.9536 155.852 36.6113 127.809 45.8935C111.901 51.2576 96.6128 59.4225 83.609 70.0164C61.8001 87.7835 46.3853 112.38 45.1075 142.091C45.6347 155.225 49.2941 174.285 63.9 177.646C50.2792 143.049 64.8259 109.479 91.0476 88.117C110.574 72.2096 136.575 63.0646 162.265 65.2959C204.8 69.6398 231.443 110.668 222.57 151.806C215.446 181.397 199.594 205.061 177.5 223.06C174.402 225.584 171.184 228.002 167.837 230.305C129.678 256.306 78.4234 264.152 38.1548 237.616C-14.3037 202.36 -6.74898 128.386 26.9208 82.3061C36.5001 69.3818 47.4256 58.0057 59.4001 48.2504C98.9108 16.062 149.746 1.52089 200.504 7.05025C208.348 5.16986 215.497 3.6857 222.409 2.61631C236.241 0.46919 250.253 0.125028 264.087 1.53775C271.491 3.0507 279.972 7.73828 294.112 23.1597Z"/>
</mask>
<path fill-rule="evenodd" clip-rule="evenodd" d="M294.112 23.1597C359.361 111.576 471.301 140.76 576.301 128.125C535.925 149.176 490.063 151.057 445.901 152.87L445.622 152.881C431.234 153.056 422.967 155.688 418.055 159.689C412.135 164.513 411.061 171.348 409.968 178.304C409.866 178.951 409.765 179.599 409.659 180.246C405.421 221.746 385.352 261.628 350.458 290.056C306.84 325.59 250.371 334.819 200.284 319.706C190.278 316.685 180.511 312.688 171.151 307.734C173.871 305.704 176.603 303.563 179.314 301.354C248.185 245.247 311.361 136.778 233.294 62.8049C226.97 57.5809 219.856 53.1357 211.972 49.5556C186.649 36.9536 155.852 36.6113 127.809 45.8935C111.901 51.2576 96.6128 59.4225 83.609 70.0164C61.8001 87.7835 46.3853 112.38 45.1075 142.091C45.6347 155.225 49.2941 174.285 63.9 177.646C50.2792 143.049 64.8259 109.479 91.0476 88.117C110.574 72.2096 136.575 63.0646 162.265 65.2959C204.8 69.6398 231.443 110.668 222.57 151.806C215.446 181.397 199.594 205.061 177.5 223.06C174.402 225.584 171.184 228.002 167.837 230.305C129.678 256.306 78.4234 264.152 38.1548 237.616C-14.3037 202.36 -6.74898 128.386 26.9208 82.3061C36.5001 69.3818 47.4256 58.0057 59.4001 48.2504C98.9108 16.062 149.746 1.52089 200.504 7.05025C208.348 5.16986 215.497 3.6857 222.409 2.61631C236.241 0.46919 250.253 0.125028 264.087 1.53775C271.491 3.0507 279.972 7.73828 294.112 23.1597Z" fill="#FFF4CE"/>
<path d="M576.301 128.125L577.225 129.899L576.062 126.14L576.301 128.125ZM294.112 23.1597L295.721 21.9722L295.658 21.8865L295.586 21.8081L294.112 23.1597ZM445.901 152.87L445.983 154.868L445.983 154.868L445.901 152.87ZM445.622 152.881L445.646 154.881L445.675 154.881L445.704 154.879L445.622 152.881ZM409.968 178.304L407.992 177.994L409.968 178.304ZM409.659 180.246L407.685 179.924L407.675 179.983L407.669 180.043L409.659 180.246ZM200.284 319.706L199.706 321.621L199.706 321.621L200.284 319.706ZM171.151 307.734L169.955 306.131L167.42 308.022L170.215 309.501L171.151 307.734ZM233.294 62.8049L234.67 61.3531L234.62 61.3063L234.568 61.2629L233.294 62.8049ZM211.972 49.5556L211.08 51.3461L211.112 51.3619L211.145 51.3766L211.972 49.5556ZM127.809 45.8935L127.18 43.9948L127.17 43.9983L127.809 45.8935ZM45.1075 142.091L43.1093 142.005L43.1058 142.088L43.1091 142.171L45.1075 142.091ZM63.9 177.646L63.4516 179.595L67.1519 180.446L65.761 176.913L63.9 177.646ZM162.265 65.2959L162.469 63.3062L162.454 63.3047L162.438 63.3034L162.265 65.2959ZM222.57 151.806L224.514 152.274L224.52 152.251L224.525 152.227L222.57 151.806ZM167.837 230.305L168.963 231.958L168.971 231.952L167.837 230.305ZM38.1548 237.616L37.0392 239.276L37.0468 239.281L37.0543 239.286L38.1548 237.616ZM26.9208 82.3061L25.314 81.1152L25.306 81.1262L26.9208 82.3061ZM200.504 7.05025L200.287 9.03849L200.632 9.07609L200.97 8.99515L200.504 7.05025ZM222.409 2.61631L222.714 4.59277L222.715 4.59263L222.409 2.61631ZM264.087 1.53775L264.487 -0.421759L264.389 -0.441752L264.29 -0.451898L264.087 1.53775ZM576.062 126.14C471.517 138.72 360.407 109.625 295.721 21.9722L292.503 24.3473C358.315 113.527 471.086 142.801 576.54 130.111L576.062 126.14ZM445.983 154.868C490.062 153.059 536.387 151.19 577.225 129.899L575.376 126.352C535.462 147.161 490.064 149.056 445.819 150.871L445.983 154.868ZM445.704 154.879L445.983 154.868L445.819 150.871L445.54 150.883L445.704 154.879ZM419.319 161.24C423.708 157.664 431.423 155.054 445.646 154.881L445.597 150.881C431.046 151.058 422.227 153.712 416.792 158.139L419.319 161.24ZM411.944 178.614C413.056 171.538 414.078 165.509 419.319 161.24L416.792 158.139C410.191 163.517 409.066 171.159 407.992 177.994L411.944 178.614ZM411.633 180.569C411.74 179.914 411.842 179.26 411.944 178.614L407.992 177.994C407.89 178.642 407.79 179.283 407.685 179.924L411.633 180.569ZM351.721 291.606C387.043 262.83 407.359 222.455 411.648 180.45L407.669 180.043C403.483 221.036 383.661 260.426 349.195 288.505L351.721 291.606ZM199.706 321.621C250.402 336.917 307.567 327.578 351.721 291.606L349.195 288.505C306.114 323.602 250.34 332.72 200.862 317.792L199.706 321.621ZM170.215 309.501C179.691 314.517 189.577 318.563 199.706 321.621L200.862 317.792C190.978 314.807 181.332 310.86 172.086 305.966L170.215 309.501ZM178.051 299.804C175.359 301.997 172.65 304.12 169.955 306.131L172.347 309.337C175.093 307.288 177.847 305.129 180.577 302.905L178.051 299.804ZM231.919 64.2567C270.255 100.582 273.969 145.313 259.511 188.139C245.017 231.07 212.278 271.92 178.051 299.804L180.577 302.905C215.222 274.681 248.506 233.243 263.301 189.419C278.131 145.491 274.4 99.0001 234.67 61.3531L231.919 64.2567ZM211.145 51.3766C218.873 54.8858 225.836 59.2381 232.021 64.3469L234.568 61.2629C228.104 55.9236 220.839 51.3857 212.798 47.7345L211.145 51.3766ZM128.437 47.7922C156.083 38.6416 186.32 39.0238 211.08 51.3461L212.863 47.765C186.978 34.8835 155.621 34.5811 127.18 43.9948L128.437 47.7922ZM84.8722 71.567C97.6755 61.1364 112.748 53.0825 128.448 47.7887L127.17 43.9983C111.053 49.4327 95.55 57.7086 82.3458 68.4658L84.8722 71.567ZM47.1056 142.177C48.3537 113.158 63.4025 89.0578 84.8722 71.567L82.3458 68.4658C60.1978 86.5092 44.4169 111.601 43.1093 142.005L47.1056 142.177ZM64.3484 175.697C57.9277 174.219 53.7509 169.285 51.0741 162.773C48.3944 156.255 47.3652 148.471 47.1059 142.011L43.1091 142.171C43.377 148.846 44.4412 157.159 47.3745 164.294C50.3106 171.436 55.2664 177.712 63.4516 179.595L64.3484 175.697ZM89.7843 86.5664C63.0769 108.324 48.0182 142.766 62.039 178.378L65.761 176.913C52.5402 143.333 66.5749 110.634 92.3108 89.6676L89.7843 86.5664ZM162.438 63.3034C136.177 61.0225 109.67 70.3663 89.7843 86.5664L92.3108 89.6676C111.478 74.0529 136.974 65.1068 162.092 67.2883L162.438 63.3034ZM224.525 152.227C233.624 110.043 206.307 67.7833 162.469 63.3062L162.062 67.2855C203.294 71.4963 229.262 111.293 220.615 151.384L224.525 152.227ZM178.763 224.611C201.177 206.351 217.282 182.315 224.514 152.274L220.625 151.338C213.61 180.479 198.011 203.77 176.237 221.51L178.763 224.611ZM168.971 231.952C172.363 229.619 175.624 227.168 178.763 224.611L176.237 221.51C173.179 224 170.004 226.386 166.704 228.657L168.971 231.952ZM37.0543 239.286C78.1916 266.394 130.346 258.27 168.963 231.958L166.711 228.652C129.009 254.341 78.6552 261.909 39.2553 235.946L37.0543 239.286ZM25.306 81.1262C8.23496 104.489 -2.22746 134.923 -1.76003 164.052C-1.29184 193.228 10.1606 221.211 37.0392 239.276L39.2704 235.956C13.6906 218.764 2.6911 192.133 2.23946 163.988C1.78707 135.796 11.9369 106.203 28.5357 83.4861L25.306 81.1262ZM58.1368 46.6998C46.0335 56.5601 34.9926 68.057 25.3141 81.1152L28.5276 83.497C38.0077 70.7066 48.8176 59.4513 60.6633 49.801L58.1368 46.6998ZM200.72 5.062C149.445 -0.523755 98.0734 14.1645 58.1368 46.6998L60.6633 49.801C99.7482 17.9595 150.048 3.56553 200.287 9.03849L200.72 5.062ZM222.103 0.639842C215.122 1.72001 207.916 3.21666 200.038 5.10535L200.97 8.99515C208.779 7.12306 215.873 5.6514 222.714 4.59277L222.103 0.639842ZM264.29 -0.451898C250.288 -1.88183 236.104 -1.53356 222.102 0.639983L222.715 4.59263C236.377 2.47194 250.219 2.13188 263.883 3.52741L264.29 -0.451898ZM295.586 21.8081C281.341 6.27239 272.505 1.21667 264.487 -0.421759L263.686 3.49727C270.476 4.88473 278.603 9.20417 292.638 24.5114L295.586 21.8081Z" fill="black" mask="url(#path-1-inside-1_178_142)"/>
</svg>
