<svg width="1920" height="1660" viewBox="0 0 1920 1660" fill="none" xmlns="http://www.w3.org/2000/svg">
<mask id="path-1-inside-1_178_139" fill="white">
<path fill-rule="evenodd" clip-rule="evenodd" d="M1522.93 86.8729C1529.18 34.7428 1580.88 0 1631.8 0C1635.54 0 1639.29 0.191596 1643 0.566805C1683.71 4.55839 1722.03 28.5079 1738 66.0288C1717.04 29.5298 1678.35 6.19494 1636.45 6.19494C1628.86 6.19494 1621.17 6.96133 1613.46 8.54998C1585.52 14.9365 1561.57 28.5079 1547.2 53.2558C1536.82 71.6171 1532.03 93.97 1540.02 113.13C1534.43 80.3986 1551.19 47.6675 1579.93 30.1046C1596.33 20.1655 1614.58 15.4874 1632.96 15.4874C1644.11 15.4874 1655.3 17.2117 1666.15 20.5247C1713.25 34.0961 1742.79 87.5834 1723.63 133.886C1707.45 173.61 1665.51 195.029 1624.05 195.029C1620.51 195.029 1616.98 194.869 1613.46 194.558C1571.15 189.768 1525.65 160.23 1523.05 115.085C1521.96 108.523 1521.42 98.1532 1522.93 86.8729ZM288.904 54.0546C265.269 30.8285 227.28 31.16 204.054 54.795C180.828 78.4301 181.16 116.419 204.795 139.645C228.43 162.871 266.418 162.539 289.644 138.904C312.871 115.269 312.539 77.2807 288.904 54.0546ZM1735.85 1541.26C1723.76 1464.9 1775.85 1393.19 1852.21 1381.1C1928.57 1369.01 2000.28 1421.1 2012.37 1497.46C2024.47 1573.82 1972.37 1645.53 1896.01 1657.62C1819.65 1669.72 1747.94 1617.62 1735.85 1541.26ZM1685.32 658.02C1660.85 661.897 1644.14 684.885 1648.02 709.365C1651.9 733.844 1674.89 750.546 1699.37 746.669C1723.84 742.792 1740.55 719.804 1736.67 695.324C1732.79 670.845 1709.8 654.143 1685.32 658.02ZM187.021 990.365C183.144 965.885 199.845 942.897 224.325 939.02C248.804 935.143 271.792 951.845 275.669 976.324C279.546 1000.8 262.845 1023.79 238.365 1027.67C213.886 1031.55 190.898 1014.84 187.021 990.365ZM1767 214.5C1767 205.94 1773.94 199 1782.5 199C1791.06 199 1798 205.94 1798 214.5V525.5C1798 534.06 1791.06 541 1782.5 541C1773.94 541 1767 534.06 1767 525.5V214.5ZM-49.9849 319C-49.1949 321.73 -48.4749 324.55 -47.8449 327.47C-48.404 324.376 -49.1582 321.811 -49.9015 319.284L-49.9016 319.284L-49.9849 319ZM-47.8449 327.46C-46.7449 333.56 -46.4049 341.67 -48.4449 355.47C-47.4449 351.82 -46.325 348.19 -45.085 344.58C-45.765 338.5 -46.6749 332.82 -47.8449 327.46ZM196.785 348.08C186.215 348.08 175.525 349.65 165.015 352.99C133.015 362.99 105.015 392.99 115.015 427.99C123.015 456.99 155.015 463.99 181.015 463.99C189.015 464.99 197.015 469.99 197.775 478.1C199.505 486.73 195.635 497.79 185.595 508.49C167.835 526.18 143.015 534.05 118.055 534.05C112.695 534.05 107.325 533.69 102.015 532.98C22.0151 523.98 -20.9849 450.98 -33.9849 375.98C-34.1949 375.13 -34.5949 374.78 -35.0949 374.78C-36.9749 374.78 -40.4049 379.62 -41.9849 381.98C-51.8249 406.59 -51.985 433.14 -47.215 458.76C-32.375 510.15 2.79504 555.53 50.475 581.11C70.895 592.07 93.6151 599.39 118.015 601.99C125.065 602.83 132.225 603.25 139.435 603.25C155.725 603.25 172.235 601.13 188.255 597.07C211.365 591.21 233.455 581.3 252.395 567.87C290.275 540.99 315.515 499.99 311.015 448.99C305.125 391.82 252.595 348.08 196.785 348.08ZM-48.4449 355.48C-57.3549 387.94 -56.895 421.46 -48.805 452.96C-48.255 455.31 -47.6449 457.66 -46.9849 460L-47.0188 459.827C-47.0874 459.477 -47.1549 459.132 -47.215 458.78C-47.775 456.84 -48.305 454.9 -48.805 452.96C-55.815 423.18 -54.605 392.69 -49.775 363.47C-49.245 360.61 -48.8049 357.95 -48.4449 355.48Z"/>
</mask>
<path fill-rule="evenodd" clip-rule="evenodd" d="M1522.93 86.8729C1529.18 34.7428 1580.88 0 1631.8 0C1635.54 0 1639.29 0.191596 1643 0.566805C1683.71 4.55839 1722.03 28.5079 1738 66.0288C1717.04 29.5298 1678.35 6.19494 1636.45 6.19494C1628.86 6.19494 1621.17 6.96133 1613.46 8.54998C1585.52 14.9365 1561.57 28.5079 1547.2 53.2558C1536.82 71.6171 1532.03 93.97 1540.02 113.13C1534.43 80.3986 1551.19 47.6675 1579.93 30.1046C1596.33 20.1655 1614.58 15.4874 1632.96 15.4874C1644.11 15.4874 1655.3 17.2117 1666.15 20.5247C1713.25 34.0961 1742.79 87.5834 1723.63 133.886C1707.45 173.61 1665.51 195.029 1624.05 195.029C1620.51 195.029 1616.98 194.869 1613.46 194.558C1571.15 189.768 1525.65 160.23 1523.05 115.085C1521.96 108.523 1521.42 98.1532 1522.93 86.8729ZM288.904 54.0546C265.269 30.8285 227.28 31.16 204.054 54.795C180.828 78.4301 181.16 116.419 204.795 139.645C228.43 162.871 266.418 162.539 289.644 138.904C312.871 115.269 312.539 77.2807 288.904 54.0546ZM1735.85 1541.26C1723.76 1464.9 1775.85 1393.19 1852.21 1381.1C1928.57 1369.01 2000.28 1421.1 2012.37 1497.46C2024.47 1573.82 1972.37 1645.53 1896.01 1657.62C1819.65 1669.72 1747.94 1617.62 1735.85 1541.26ZM1685.32 658.02C1660.85 661.897 1644.14 684.885 1648.02 709.365C1651.9 733.844 1674.89 750.546 1699.37 746.669C1723.84 742.792 1740.55 719.804 1736.67 695.324C1732.79 670.845 1709.8 654.143 1685.32 658.02ZM187.021 990.365C183.144 965.885 199.845 942.897 224.325 939.02C248.804 935.143 271.792 951.845 275.669 976.324C279.546 1000.8 262.845 1023.79 238.365 1027.67C213.886 1031.55 190.898 1014.84 187.021 990.365ZM1767 214.5C1767 205.94 1773.94 199 1782.5 199C1791.06 199 1798 205.94 1798 214.5V525.5C1798 534.06 1791.06 541 1782.5 541C1773.94 541 1767 534.06 1767 525.5V214.5ZM-49.9849 319C-49.1949 321.73 -48.4749 324.55 -47.8449 327.47C-48.404 324.376 -49.1582 321.811 -49.9015 319.284L-49.9016 319.284L-49.9849 319ZM-47.8449 327.46C-46.7449 333.56 -46.4049 341.67 -48.4449 355.47C-47.4449 351.82 -46.325 348.19 -45.085 344.58C-45.765 338.5 -46.6749 332.82 -47.8449 327.46ZM196.785 348.08C186.215 348.08 175.525 349.65 165.015 352.99C133.015 362.99 105.015 392.99 115.015 427.99C123.015 456.99 155.015 463.99 181.015 463.99C189.015 464.99 197.015 469.99 197.775 478.1C199.505 486.73 195.635 497.79 185.595 508.49C167.835 526.18 143.015 534.05 118.055 534.05C112.695 534.05 107.325 533.69 102.015 532.98C22.0151 523.98 -20.9849 450.98 -33.9849 375.98C-34.1949 375.13 -34.5949 374.78 -35.0949 374.78C-36.9749 374.78 -40.4049 379.62 -41.9849 381.98C-51.8249 406.59 -51.985 433.14 -47.215 458.76C-32.375 510.15 2.79504 555.53 50.475 581.11C70.895 592.07 93.6151 599.39 118.015 601.99C125.065 602.83 132.225 603.25 139.435 603.25C155.725 603.25 172.235 601.13 188.255 597.07C211.365 591.21 233.455 581.3 252.395 567.87C290.275 540.99 315.515 499.99 311.015 448.99C305.125 391.82 252.595 348.08 196.785 348.08ZM-48.4449 355.48C-57.3549 387.94 -56.895 421.46 -48.805 452.96C-48.255 455.31 -47.6449 457.66 -46.9849 460L-47.0188 459.827C-47.0874 459.477 -47.1549 459.132 -47.215 458.78C-47.775 456.84 -48.305 454.9 -48.805 452.96C-55.815 423.18 -54.605 392.69 -49.775 363.47C-49.245 360.61 -48.8049 357.95 -48.4449 355.48Z" fill="#FFF4CE"/>
<path d="M1522.93 86.8729L1524.91 87.1367L1524.91 87.124L1524.91 87.1113L1522.93 86.8729ZM1643 0.566805L1642.8 2.55668L1642.81 2.55726L1643 0.566805ZM1738 66.0288L1736.27 67.0247L1739.84 65.2457L1738 66.0288ZM1613.46 8.54998L1613.06 6.59111L1613.04 6.59546L1613.02 6.60027L1613.46 8.54998ZM1547.2 53.2558L1545.47 52.2515L1545.47 52.2615L1545.46 52.2717L1547.2 53.2558ZM1540.02 113.13L1538.17 113.899L1541.99 112.793L1540.02 113.13ZM1579.93 30.1046L1578.9 28.3942L1578.89 28.398L1579.93 30.1046ZM1666.15 20.5247L1665.57 22.4375L1665.58 22.4422L1665.6 22.4466L1666.15 20.5247ZM1723.63 133.886L1721.78 133.121L1721.78 133.131L1723.63 133.886ZM1613.46 194.558L1613.24 196.545L1613.26 196.548L1613.29 196.55L1613.46 194.558ZM1523.05 115.085L1525.04 114.97L1525.04 114.864L1525.02 114.759L1523.05 115.085ZM204.054 54.795L202.628 53.3932L202.628 53.3932L204.054 54.795ZM288.904 54.0546L287.502 55.4811L287.502 55.4811L288.904 54.0546ZM204.795 139.645L203.393 141.071L203.393 141.071L204.795 139.645ZM289.644 138.904L288.218 137.502L288.218 137.502L289.644 138.904ZM1735.85 1541.26L1737.83 1540.95L1737.83 1540.95L1735.85 1541.26ZM2012.37 1497.46L2010.4 1497.78L2010.4 1497.78L2012.37 1497.46ZM1896.01 1657.62L1896.32 1659.6L1896.32 1659.6L1896.01 1657.62ZM1648.02 709.365L1650 709.052L1650 709.052L1648.02 709.365ZM1685.32 658.02L1685.01 656.045L1685.01 656.045L1685.32 658.02ZM1736.67 695.324L1734.69 695.637L1734.69 695.637L1736.67 695.324ZM224.325 939.02L224.012 937.045L224.012 937.045L224.325 939.02ZM187.021 990.365L188.996 990.052L188.996 990.052L187.021 990.365ZM275.669 976.324L277.645 976.011L277.645 976.011L275.669 976.324ZM238.365 1027.67L238.052 1025.69L238.052 1025.69L238.365 1027.67ZM-47.8449 327.47L-49.7999 327.892L-45.8768 327.114L-47.8449 327.47ZM-49.9849 319L-48.0662 318.436L-51.9061 319.556L-49.9849 319ZM-49.9015 319.284L-51.8268 319.825L-51.8236 319.837L-51.8202 319.848L-49.9015 319.284ZM-49.9016 319.284L-47.9763 318.742L-47.9795 318.731L-47.9828 318.719L-49.9016 319.284ZM-48.4449 355.47L-50.4234 355.178L-46.516 355.998L-48.4449 355.47ZM-47.8449 327.46L-45.8909 327.033L-49.8132 327.815L-47.8449 327.46ZM-45.085 344.58L-43.1934 345.23L-43.0474 344.805L-43.0973 344.358L-45.085 344.58ZM165.015 352.99L165.612 354.899L165.621 354.896L165.015 352.99ZM115.015 427.99L116.943 427.458L116.941 427.449L116.938 427.441L115.015 427.99ZM181.015 463.99L181.263 462.005L181.14 461.99H181.015V463.99ZM197.775 478.1L195.784 478.287L195.794 478.391L195.814 478.493L197.775 478.1ZM185.595 508.49L187.006 509.907L187.03 509.883L187.054 509.859L185.595 508.49ZM102.015 532.98L102.28 530.998L102.259 530.995L102.239 530.993L102.015 532.98ZM-33.9849 375.98L-32.0143 375.638L-32.0264 375.569L-32.0433 375.5L-33.9849 375.98ZM-41.9849 381.98L-43.6469 380.867L-43.7639 381.042L-43.842 381.237L-41.9849 381.98ZM-47.215 458.76L-49.1812 459.126L-49.1634 459.222L-49.1364 459.315L-47.215 458.76ZM50.475 581.11L51.4209 579.348L51.4206 579.348L50.475 581.11ZM118.015 601.99L118.252 600.004L118.239 600.003L118.227 600.001L118.015 601.99ZM188.255 597.07L188.746 599.009L188.747 599.009L188.255 597.07ZM252.395 567.87L253.552 569.501L253.552 569.501L252.395 567.87ZM311.015 448.99L313.007 448.814L313.006 448.8L313.005 448.785L311.015 448.99ZM-48.4449 355.48L-46.4658 355.768L-50.3736 354.951L-48.4449 355.48ZM-46.9849 460L-48.9098 460.543L-45.0221 459.616L-46.9849 460ZM-47.0188 459.827L-45.056 459.443L-45.0561 459.442L-47.0188 459.827ZM-47.215 458.78L-45.2435 458.443L-45.2623 458.333L-45.2934 458.225L-47.215 458.78ZM-49.775 363.47L-51.7415 363.106L-51.745 363.125L-51.7482 363.144L-49.775 363.47ZM1631.8 -2C1580.15 -2 1527.35 33.2374 1520.94 86.6345L1524.91 87.1113C1531.02 36.2481 1581.6 2 1631.8 2V-2ZM1643.2 -1.42306C1639.42 -1.80493 1635.61 -2 1631.8 -2V2C1635.48 2 1639.15 2.18812 1642.8 2.55667L1643.2 -1.42306ZM1739.84 65.2457C1723.54 26.9354 1684.5 2.62604 1643.2 -1.42365L1642.81 2.55726C1682.93 6.49075 1720.53 30.0805 1736.16 66.812L1739.84 65.2457ZM1636.45 8.19494C1677.6 8.19494 1715.65 31.1185 1736.27 67.0247L1739.73 65.033C1718.44 27.9411 1679.1 4.19494 1636.45 4.19494V8.19494ZM1613.87 10.5088C1621.44 8.94765 1629 8.19494 1636.45 8.19494V4.19494C1628.73 4.19494 1620.9 4.97501 1613.06 6.59111L1613.87 10.5088ZM1548.93 54.26C1562.94 30.1345 1586.32 16.8051 1613.91 10.4997L1613.02 6.60027C1584.72 13.068 1560.2 26.8813 1545.47 52.2515L1548.93 54.26ZM1541.86 112.36C1534.21 93.982 1538.73 72.302 1548.94 54.2399L1545.46 52.2717C1534.91 70.9321 1529.86 93.9579 1538.17 113.899L1541.86 112.36ZM1578.89 28.398C1549.53 46.3385 1532.3 79.8389 1538.05 113.466L1541.99 112.793C1536.55 80.9583 1552.85 48.9966 1580.98 31.8111L1578.89 28.398ZM1632.96 13.4874C1614.24 13.4874 1595.63 18.2543 1578.9 28.3942L1580.97 31.8149C1597.04 22.0767 1614.92 17.4874 1632.96 17.4874V13.4874ZM1666.74 18.6119C1655.7 15.2435 1644.32 13.4874 1632.96 13.4874V17.4874C1643.9 17.4874 1654.9 19.18 1665.57 22.4375L1666.74 18.6119ZM1725.48 134.651C1745.14 87.1301 1714.83 32.4689 1666.71 18.6029L1665.6 22.4466C1711.68 35.7234 1740.44 88.0368 1721.78 133.121L1725.48 134.651ZM1624.05 197.029C1666.11 197.029 1708.92 175.299 1725.48 134.64L1721.78 133.131C1705.98 171.922 1664.91 193.029 1624.05 193.029V197.029ZM1613.29 196.55C1616.86 196.867 1620.45 197.029 1624.05 197.029V193.029C1620.57 193.029 1617.09 192.872 1613.64 192.566L1613.29 196.55ZM1521.05 115.201C1522.39 138.466 1534.79 157.623 1552.11 171.515C1569.42 185.395 1591.73 194.111 1613.24 196.545L1613.69 192.571C1592.88 190.215 1571.29 181.767 1554.61 168.395C1537.96 155.034 1526.3 136.85 1525.04 114.97L1521.05 115.201ZM1520.94 86.6091C1519.42 98.0885 1519.95 108.658 1521.07 115.412L1525.02 114.759C1523.96 108.389 1523.43 98.2178 1524.91 87.1367L1520.94 86.6091ZM205.481 56.1969C227.933 33.3496 264.655 33.0292 287.502 55.4811L290.306 52.6281C265.883 28.6278 226.628 28.9703 202.628 53.3932L205.481 56.1969ZM206.197 138.218C183.349 115.766 183.029 79.0441 205.481 56.1969L202.628 53.3932C178.628 77.8161 178.97 117.071 203.393 141.071L206.197 138.218ZM288.218 137.502C265.766 160.35 229.044 160.67 206.197 138.218L203.393 141.071C227.816 165.071 267.071 164.729 291.071 140.306L288.218 137.502ZM287.502 55.4811C310.349 77.933 310.67 114.655 288.218 137.502L291.071 140.306C315.071 115.883 314.729 76.6284 290.306 52.6281L287.502 55.4811ZM1851.9 1379.13C1774.45 1391.39 1721.61 1464.12 1733.88 1541.57L1737.83 1540.95C1725.9 1465.68 1777.26 1395 1852.53 1383.08L1851.9 1379.13ZM2014.35 1497.15C2002.08 1419.7 1929.35 1366.86 1851.9 1379.13L1852.53 1383.08C1927.79 1371.15 1998.48 1422.51 2010.4 1497.78L2014.35 1497.15ZM1896.32 1659.6C1973.77 1647.33 2026.61 1574.6 2014.35 1497.15L2010.4 1497.78C2022.32 1573.04 1970.97 1643.73 1895.7 1655.65L1896.32 1659.6ZM1733.88 1541.57C1746.14 1619.02 1818.87 1671.86 1896.32 1659.6L1895.7 1655.65C1820.43 1667.57 1749.75 1616.22 1737.83 1540.95L1733.88 1541.57ZM1650 709.052C1646.29 685.663 1662.25 663.7 1685.64 659.996L1685.01 656.045C1659.44 660.095 1642 684.107 1646.05 709.678L1650 709.052ZM1699.05 744.693C1675.66 748.398 1653.7 732.441 1650 709.052L1646.05 709.678C1650.1 735.248 1674.11 752.694 1699.68 748.644L1699.05 744.693ZM1734.69 695.637C1738.4 719.026 1722.44 740.989 1699.05 744.693L1699.68 748.644C1725.25 744.594 1742.69 720.582 1738.64 695.011L1734.69 695.637ZM1685.64 659.996C1709.03 656.291 1730.99 672.248 1734.69 695.637L1738.64 695.011C1734.59 669.441 1710.58 651.995 1685.01 656.045L1685.64 659.996ZM224.012 937.045C198.441 941.095 180.995 965.107 185.045 990.678L188.996 990.052C185.292 966.663 201.249 944.7 224.638 940.996L224.012 937.045ZM277.645 976.011C273.595 950.441 249.582 932.995 224.012 937.045L224.638 940.996C248.026 937.291 269.989 953.248 273.694 976.637L277.645 976.011ZM238.678 1029.64C264.249 1025.59 281.695 1001.58 277.645 976.011L273.694 976.637C277.398 1000.03 261.441 1021.99 238.052 1025.69L238.678 1029.64ZM185.045 990.678C189.095 1016.25 213.108 1033.69 238.678 1029.64L238.052 1025.69C214.664 1029.4 192.7 1013.44 188.996 990.052L185.045 990.678ZM1782.5 197C1772.84 197 1765 204.835 1765 214.5H1769C1769 207.044 1775.04 201 1782.5 201V197ZM1800 214.5C1800 204.835 1792.16 197 1782.5 197V201C1789.96 201 1796 207.044 1796 214.5H1800ZM1800 525.5V214.5H1796V525.5H1800ZM1782.5 543C1792.16 543 1800 535.165 1800 525.5H1796C1796 532.956 1789.96 539 1782.5 539V543ZM1765 525.5C1765 535.165 1772.84 543 1782.5 543V539C1775.04 539 1769 532.956 1769 525.5H1765ZM1765 214.5V525.5H1769V214.5H1765ZM-45.8899 327.048C-46.5302 324.08 -47.2617 321.216 -48.0638 318.444L-51.9061 319.556C-51.1282 322.244 -50.4197 325.019 -49.7999 327.892L-45.8899 327.048ZM-51.8202 319.848C-51.0757 322.38 -50.3507 324.85 -49.8131 327.826L-45.8768 327.114C-46.4573 323.902 -47.2407 321.243 -47.9828 318.72L-51.8202 319.848ZM-51.8269 319.825L-51.8268 319.825L-47.9762 318.742L-47.9763 318.742L-51.8269 319.825ZM-51.9037 319.564L-51.8204 319.848L-47.9828 318.719L-48.0662 318.436L-51.9037 319.564ZM-46.4664 355.762C-44.4044 341.813 -44.7279 333.476 -45.8767 327.105L-49.8132 327.815C-48.762 333.644 -48.4055 341.527 -50.4234 355.178L-46.4664 355.762ZM-46.9765 343.93C-48.2301 347.58 -49.3626 351.25 -50.3739 354.942L-46.516 355.998C-45.5273 352.39 -44.4198 348.8 -43.1934 345.23L-46.9765 343.93ZM-49.7989 327.887C-48.6456 333.17 -47.746 338.781 -47.0726 344.802L-43.0973 344.358C-43.7839 338.219 -44.7043 332.47 -45.8909 327.033L-49.7989 327.887ZM165.621 354.896C175.929 351.62 186.414 350.08 196.785 350.08V346.08C186.016 346.08 175.121 347.68 164.409 351.084L165.621 354.896ZM116.938 427.441C112.136 410.633 116.429 395.017 125.871 382.308C135.34 369.561 149.967 359.788 165.612 354.899L164.419 351.081C148.063 356.192 132.69 366.419 122.66 379.922C112.601 393.463 107.894 410.347 113.092 428.539L116.938 427.441ZM181.015 461.99C168.157 461.99 153.966 460.254 142.069 455.034C130.227 449.838 120.746 441.242 116.943 427.458L113.087 428.522C117.285 443.738 127.803 453.142 140.461 458.696C153.064 464.226 167.873 465.99 181.015 465.99V461.99ZM199.766 477.913C198.877 468.426 189.665 463.056 181.263 462.005L180.767 465.975C188.365 466.924 195.153 471.554 195.784 478.287L199.766 477.913ZM187.054 509.859C197.332 498.905 201.642 487.216 199.736 477.707L195.814 478.493C197.368 486.244 193.939 496.675 184.137 507.121L187.054 509.859ZM118.055 536.05C143.409 536.05 168.786 528.056 187.006 509.907L184.184 507.073C166.884 524.304 142.621 532.05 118.055 532.05V536.05ZM101.75 534.962C107.147 535.684 112.606 536.05 118.055 536.05V532.05C112.784 532.05 107.503 531.696 102.28 530.998L101.75 534.962ZM-35.9556 376.322C-22.8999 451.642 20.4526 525.817 101.792 534.967L102.239 530.993C23.5776 522.143 -19.0699 450.318 -32.0143 375.638L-35.9556 376.322ZM-35.0949 376.78C-35.2075 376.78 -35.3522 376.759 -35.5066 376.695C-35.6621 376.631 -35.7817 376.541 -35.8638 376.457C-36.0115 376.305 -35.983 376.231 -35.9266 376.46L-32.0433 375.5C-32.1969 374.879 -32.4733 374.205 -32.9986 373.666C-33.5757 373.073 -34.3227 372.78 -35.0949 372.78V376.78ZM-40.323 383.093C-39.5442 381.929 -38.3446 380.209 -37.1339 378.797C-36.5246 378.086 -35.9621 377.512 -35.4897 377.132C-34.9224 376.676 -34.8268 376.78 -35.0949 376.78V372.78C-36.3031 372.78 -37.3412 373.489 -37.9951 374.014C-38.744 374.616 -39.4903 375.399 -40.1709 376.193C-41.5402 377.791 -42.8457 379.671 -43.6469 380.867L-40.323 383.093ZM-45.2487 458.394C-49.9746 433.011 -49.7836 406.872 -40.1279 382.723L-43.842 381.237C-53.8663 406.308 -53.9953 433.269 -49.1812 459.126L-45.2487 458.394ZM51.4206 579.348C4.24002 554.036 -30.5949 509.105 -45.2935 458.205L-49.1364 459.315C-34.155 511.195 1.35007 557.024 49.5295 582.872L51.4206 579.348ZM118.227 600.001C94.0932 597.43 71.6215 590.19 51.4209 579.348L49.5292 582.872C70.1686 593.95 93.137 601.35 117.803 603.979L118.227 600.001ZM139.435 601.25C132.303 601.25 125.222 600.834 118.252 600.004L117.778 603.976C124.909 604.825 132.148 605.25 139.435 605.25V601.25ZM187.764 595.131C171.898 599.152 155.553 601.25 139.435 601.25V605.25C155.897 605.25 172.572 603.108 188.746 599.009L187.764 595.131ZM251.238 566.239C232.514 579.516 210.653 589.327 187.764 595.131L188.747 599.009C212.077 593.093 234.396 583.084 253.552 569.501L251.238 566.239ZM309.023 449.166C313.447 499.311 288.67 539.677 251.238 566.239L253.552 569.501C291.88 542.303 317.583 500.669 313.007 448.814L309.023 449.166ZM196.785 350.08C251.641 350.08 303.248 393.114 309.026 449.195L313.005 448.785C307.002 390.526 253.549 346.08 196.785 346.08V350.08ZM-46.8678 452.462C-54.8775 421.275 -55.3276 388.11 -46.5163 356.009L-50.3736 354.951C-59.3822 387.77 -58.9124 421.645 -50.7421 453.457L-46.8678 452.462ZM-45.06 459.457C-45.7125 457.144 -46.3149 454.823 -46.8576 452.504L-50.7523 453.416C-50.195 455.797 -49.5774 458.176 -48.9098 460.543L-45.06 459.457ZM-48.9817 460.211L-48.9478 460.384L-45.0221 459.616L-45.056 459.443L-48.9817 460.211ZM-49.1864 459.117C-49.1216 459.496 -49.0494 459.865 -48.9816 460.211L-45.0561 459.442C-45.1254 459.089 -45.1881 458.768 -45.2435 458.443L-49.1864 459.117ZM-50.7417 453.459C-50.2368 455.418 -49.7018 457.376 -49.1365 459.335L-45.2934 458.225C-45.8481 456.304 -46.3731 454.382 -46.8682 452.461L-50.7417 453.459ZM-51.7482 363.144C-56.604 392.52 -57.8425 423.295 -50.7517 453.418L-46.8582 452.502C-53.7874 423.065 -52.6059 392.86 -47.8017 363.796L-51.7482 363.144ZM-50.424 355.192C-50.7801 357.634 -51.2158 360.269 -51.7415 363.106L-47.8084 363.834C-47.2741 360.951 -46.8298 358.266 -46.4658 355.768L-50.424 355.192Z" fill="black" mask="url(#path-1-inside-1_178_139)"/>
</svg>
