<svg width="1920" height="495" viewBox="0 0 1920 495" fill="none" xmlns="http://www.w3.org/2000/svg">
<mask id="mask0_824_4" style="mask-type:alpha" maskUnits="userSpaceOnUse" x="0" y="0" width="1920" height="496">
<rect width="1920" height="496" fill="#FFABAB"/>
</mask>
<g mask="url(#mask0_824_4)">
<mask id="path-2-inside-1_824_4" fill="white">
<path fill-rule="evenodd" clip-rule="evenodd" d="M279.297 88.5472C287.058 84.9258 294.787 81.3188 302.517 79C278.653 88.9073 257.252 101.723 238.272 116.876C247.637 106.955 255.054 100.763 260.592 96.6161C266.857 94.3523 273.087 91.4451 279.297 88.5472ZM174.501 559.059C93.573 417.727 113.318 216.617 238.272 116.876C224.789 131.125 207.257 153.082 185.396 187.66C104.927 328.074 121.625 552.101 277.47 631.415C295.351 640.349 314.428 644.523 333.491 644.523C364.869 644.523 396.219 633.238 422.184 613.326C484.8 564.625 509.847 488.094 512.63 412.954C515.413 322.508 477.843 207.016 374.874 190.318C368.862 189.233 362.976 188.718 357.244 188.718C311.255 188.718 274.687 221.849 252.424 262.675C202.331 351.729 206.505 502.008 320.606 528.446C326.868 529.852 332.976 530.52 338.904 530.52C397.36 530.52 437.74 465.635 440.273 408.78C439.535 410.316 438.797 411.859 438.058 413.405C422.062 446.848 405.279 481.935 370.699 499.225C361.78 503.247 352.429 505.111 343.106 505.111C323.347 505.111 303.727 496.707 288.602 482.528C231.552 425.477 232.943 333.64 280.253 268.241C299.303 242.039 326.52 225.007 357.522 225.007C362.74 225.007 368.069 225.494 373.482 226.496C443.056 240.411 472.277 311.376 480.626 373.993C492.537 466.651 441.483 592.065 338.236 592.065C332.962 592.065 327.549 591.745 321.998 591.063C249.641 582.714 205.114 515.923 188.416 450.524C161.978 340.597 189.807 209.799 292.777 154.14C312.814 143.328 333.449 138.472 353.765 138.472C422.281 138.472 487.193 193.658 514.021 261.283C554.374 362.861 552.982 476.962 495.932 571.582C464.735 624.486 412.388 676.054 350.495 676.054C348.881 676.054 347.281 676.012 345.653 675.943C273.296 671.768 212.071 624.458 174.501 559.059Z"/>
</mask>
<path fill-rule="evenodd" clip-rule="evenodd" d="M279.297 88.5472C287.058 84.9258 294.787 81.3188 302.517 79C278.653 88.9073 257.252 101.723 238.272 116.876C247.637 106.955 255.054 100.763 260.592 96.6161C266.857 94.3523 273.087 91.4451 279.297 88.5472ZM174.501 559.059C93.573 417.727 113.318 216.617 238.272 116.876C224.789 131.125 207.257 153.082 185.396 187.66C104.927 328.074 121.625 552.101 277.47 631.415C295.351 640.349 314.428 644.523 333.491 644.523C364.869 644.523 396.219 633.238 422.184 613.326C484.8 564.625 509.847 488.094 512.63 412.954C515.413 322.508 477.843 207.016 374.874 190.318C368.862 189.233 362.976 188.718 357.244 188.718C311.255 188.718 274.687 221.849 252.424 262.675C202.331 351.729 206.505 502.008 320.606 528.446C326.868 529.852 332.976 530.52 338.904 530.52C397.36 530.52 437.74 465.635 440.273 408.78C439.535 410.316 438.797 411.859 438.058 413.405C422.062 446.848 405.279 481.935 370.699 499.225C361.78 503.247 352.429 505.111 343.106 505.111C323.347 505.111 303.727 496.707 288.602 482.528C231.552 425.477 232.943 333.64 280.253 268.241C299.303 242.039 326.52 225.007 357.522 225.007C362.74 225.007 368.069 225.494 373.482 226.496C443.056 240.411 472.277 311.376 480.626 373.993C492.537 466.651 441.483 592.065 338.236 592.065C332.962 592.065 327.549 591.745 321.998 591.063C249.641 582.714 205.114 515.923 188.416 450.524C161.978 340.597 189.807 209.799 292.777 154.14C312.814 143.328 333.449 138.472 353.765 138.472C422.281 138.472 487.193 193.658 514.021 261.283C554.374 362.861 552.982 476.962 495.932 571.582C464.735 624.486 412.388 676.054 350.495 676.054C348.881 676.054 347.281 676.012 345.653 675.943C273.296 671.768 212.071 624.458 174.501 559.059Z" fill="#FFABAB"/>
<path d="M302.517 79L303.284 80.8471L301.942 77.0843L302.517 79ZM279.297 88.5472L278.452 86.7348V86.7348L279.297 88.5472ZM260.592 96.6161L259.912 94.7351L259.632 94.8364L259.393 95.0151L260.592 96.6161ZM174.501 559.059L172.766 560.053L172.767 560.055L174.501 559.059ZM185.396 187.66L183.706 186.592L183.683 186.628L183.661 186.666L185.396 187.66ZM277.47 631.415L276.563 633.198L276.57 633.201L276.576 633.205L277.47 631.415ZM422.184 613.326L423.401 614.913L423.412 614.905L422.184 613.326ZM512.63 412.954L514.628 413.028L514.629 413.015L512.63 412.954ZM374.874 190.318L374.518 192.286L374.536 192.289L374.553 192.292L374.874 190.318ZM252.424 262.675L254.167 263.655L254.173 263.644L254.18 263.632L252.424 262.675ZM320.606 528.446L320.155 530.395L320.168 530.398L320.606 528.446ZM440.273 408.78L442.271 408.869L438.47 407.914L440.273 408.78ZM438.058 413.405L436.254 412.542L438.058 413.405ZM370.699 499.225L371.521 501.049L371.558 501.032L371.594 501.014L370.699 499.225ZM288.602 482.528L287.188 483.942L287.211 483.965L287.234 483.987L288.602 482.528ZM280.253 268.241L278.636 267.064L278.633 267.068L280.253 268.241ZM373.482 226.496L373.874 224.535L373.86 224.532L373.846 224.53L373.482 226.496ZM480.626 373.993L482.609 373.738L482.608 373.728L480.626 373.993ZM321.998 591.063L322.241 589.078L322.234 589.077L322.227 589.076L321.998 591.063ZM188.416 450.524L186.471 450.991L186.475 451.005L186.478 451.019L188.416 450.524ZM292.777 154.14L291.827 152.38L291.826 152.38L292.777 154.14ZM514.021 261.283L512.162 262.021L512.162 262.022L514.021 261.283ZM495.932 571.582L494.219 570.549L494.214 570.558L494.209 570.566L495.932 571.582ZM345.653 675.943L345.537 677.939L345.552 677.94L345.567 677.941L345.653 675.943ZM301.942 77.0843C294.048 79.4525 286.184 83.1264 278.452 86.7348L280.143 90.3595C287.932 86.7251 295.527 83.1852 303.092 80.9157L301.942 77.0843ZM239.52 118.439C258.356 103.401 279.595 90.6819 303.284 80.8471L301.75 77.1529C277.711 87.1327 256.149 100.044 237.025 115.313L239.52 118.439ZM259.393 95.0151C253.766 99.2279 246.264 105.496 236.818 115.503L239.727 118.249C249.01 108.414 256.341 102.297 261.79 98.217L259.393 95.0151ZM278.452 86.7348C272.226 89.6399 266.078 92.5072 259.912 94.7351L261.271 98.4971C267.636 96.1974 273.949 93.2502 280.143 90.3595L278.452 86.7348ZM237.025 115.313C111.142 215.795 91.4545 418.052 172.766 560.053L176.237 558.065C95.6915 417.401 115.494 217.439 239.52 118.439L237.025 115.313ZM187.087 188.729C208.895 154.233 226.351 132.384 239.725 118.251L236.82 115.501C223.228 129.865 205.618 151.931 183.706 186.592L187.087 188.729ZM278.377 629.633C201.165 590.337 158.312 515.148 144.79 432.129C131.264 349.089 147.135 258.446 187.132 188.655L183.661 186.666C143.189 257.288 127.175 348.866 140.842 432.772C154.512 516.698 197.93 593.179 276.563 633.198L278.377 629.633ZM333.491 642.523C314.723 642.523 295.954 638.414 278.364 629.626L276.576 633.205C294.748 642.283 314.133 646.523 333.491 646.523V642.523ZM420.967 611.739C395.321 631.406 364.393 642.523 333.491 642.523V646.523C365.345 646.523 397.116 635.07 423.401 614.913L420.967 611.739ZM510.631 412.88C507.861 487.678 482.939 563.538 420.956 611.748L423.412 614.905C486.661 565.711 511.833 488.509 514.628 413.028L510.631 412.88ZM374.553 192.292C425.259 200.515 459.928 233.041 481.633 274.901C503.359 316.801 512.014 367.932 510.631 412.892L514.629 413.015C516.028 367.531 507.29 315.692 485.184 273.06C463.058 230.388 427.457 196.819 375.194 188.344L374.553 192.292ZM357.244 190.718C362.856 190.718 368.623 191.222 374.518 192.286L375.229 188.35C369.102 187.243 363.097 186.718 357.244 186.718V190.718ZM254.18 263.632C276.275 223.114 312.302 190.718 357.244 190.718V186.718C310.208 186.718 273.1 220.583 250.668 261.717L254.18 263.632ZM321.057 526.498C265.006 513.51 235.862 470.158 226.913 418.699C217.951 367.169 229.335 307.801 254.167 263.655L250.681 261.694C225.42 306.603 213.844 366.901 222.972 419.384C232.111 471.938 262.105 516.944 320.155 530.395L321.057 526.498ZM338.904 528.52C333.127 528.52 327.166 527.869 321.044 526.495L320.168 530.398C326.57 531.835 332.825 532.52 338.904 532.52V528.52ZM438.275 408.691C437.026 436.719 426.436 466.762 408.967 489.761C391.504 512.752 367.328 528.52 338.904 528.52V532.52C368.935 532.52 394.178 515.845 412.152 492.18C430.121 468.523 440.987 437.696 442.271 408.869L438.275 408.691ZM439.862 414.267C440.602 412.721 441.339 411.18 442.076 409.645L438.47 407.914C437.731 409.452 436.993 410.996 436.254 412.542L439.862 414.267ZM371.594 501.014C406.89 483.366 423.929 447.58 439.862 414.267L436.254 412.542C420.195 446.116 403.668 480.505 369.805 497.437L371.594 501.014ZM343.106 507.111C352.699 507.111 362.331 505.192 371.521 501.049L369.877 497.402C361.228 501.301 352.159 503.111 343.106 503.111V507.111ZM287.234 483.987C302.689 498.474 322.785 507.111 343.106 507.111V503.111C323.91 503.111 304.766 494.939 289.97 481.069L287.234 483.987ZM278.633 267.068C230.868 333.097 229.307 426.061 287.188 483.942L290.016 481.113C233.796 424.894 235.019 334.183 281.874 269.413L278.633 267.068ZM357.522 223.007C325.732 223.007 297.965 240.478 278.636 267.064L281.871 269.417C300.64 243.6 327.308 227.007 357.522 227.007V223.007ZM373.846 224.53C368.316 223.506 362.865 223.007 357.522 223.007V227.007C362.615 227.007 367.823 227.483 373.118 228.463L373.846 224.53ZM482.608 373.728C478.41 342.245 468.954 308.549 451.71 280.922C434.442 253.259 409.319 231.624 373.874 224.535L373.09 228.458C407.219 235.283 431.493 256.088 448.317 283.04C465.163 310.029 474.492 343.124 478.643 374.257L482.608 373.728ZM338.236 594.065C390.8 594.065 429.945 562.106 454.358 518.757C478.755 475.436 488.618 420.482 482.609 373.738L478.642 374.248C484.544 420.161 474.836 474.244 450.873 516.794C426.925 559.317 388.92 590.065 338.236 590.065V594.065ZM321.754 593.048C327.387 593.74 332.881 594.065 338.236 594.065V590.065C333.044 590.065 327.712 589.749 322.241 589.078L321.754 593.048ZM186.478 451.019C203.255 516.727 248.177 584.558 321.768 593.049L322.227 589.076C251.105 580.87 206.973 515.119 190.354 450.029L186.478 451.019ZM291.826 152.38C187.733 208.646 159.922 340.603 186.471 450.991L190.36 450.056C164.033 340.591 191.882 210.951 293.728 155.899L291.826 152.38ZM353.765 136.472C333.121 136.472 312.158 141.409 291.827 152.38L293.726 155.9C313.469 145.247 333.778 140.472 353.765 140.472V136.472ZM515.88 260.546C488.841 192.386 423.322 136.472 353.765 136.472V140.472C421.241 140.472 485.546 194.929 512.162 262.021L515.88 260.546ZM497.645 572.615C555.072 477.37 556.422 362.599 515.88 260.545L512.162 262.022C552.326 363.123 550.893 476.553 494.219 570.549L497.645 572.615ZM350.495 678.054C413.492 678.054 466.36 625.668 497.655 572.598L494.209 570.566C463.11 623.304 411.283 674.054 350.495 674.054V678.054ZM345.567 677.941C347.217 678.011 348.846 678.054 350.495 678.054V674.054C348.915 674.054 347.344 674.013 345.738 673.945L345.567 677.941ZM172.767 560.055C210.575 625.868 272.331 673.716 345.537 677.939L345.768 673.946C274.261 669.821 213.567 623.048 176.235 558.063L172.767 560.055Z" fill="black" mask="url(#path-2-inside-1_824_4)"/>
<mask id="path-4-inside-2_824_4" fill="white">
<path fill-rule="evenodd" clip-rule="evenodd" d="M1763.16 66.3334C1764.02 64.3373 1764.62 63 1764.62 63C1765.89 65.067 1767 67.3307 1768.1 69.5941C1768.26 69.9162 1768.42 70.2384 1768.58 70.56C1769.21 71.8528 1769.85 73.1383 1770.53 74.3769C1772.18 77.7325 1774.89 80.4466 1778.59 81.1868C1781.64 81.8456 1784.65 81.9542 1787.63 81.9542C1788.38 81.9542 1789.12 81.9473 1789.87 81.9405C1790.6 81.9338 1791.34 81.927 1792.07 81.927C1793.54 81.927 1795 81.9566 1796.45 82.0652C1797.9 82.1738 1799.34 82.3662 1800.76 82.6944C1802.28 82.914 1803.76 83.4074 1805 84.1476C1803.64 85.1963 1802.4 86.3337 1801.29 87.5452C1800.17 88.7567 1799.17 90.0421 1798.3 91.3868C1792.52 100.383 1793.1 110.956 1793.68 121.442C1793.94 126.101 1794.19 130.743 1793.89 135.222C1793.74 135.994 1792.43 136.379 1790.98 136.379C1790.12 136.379 1789.2 136.238 1788.46 135.962C1786.2 134.993 1784.07 133.364 1781.94 131.731C1778.57 129.152 1775.19 126.564 1771.26 126.564C1770.08 126.564 1768.85 126.798 1767.55 127.339C1765.75 128.007 1764 128.883 1762.31 130.033C1761.36 130.668 1760.42 131.328 1759.47 131.989C1759.19 132.186 1758.91 132.383 1758.63 132.579C1756.17 134.292 1753.67 135.964 1750.96 137.198C1749.9 137.622 1748.47 138 1747.23 138C1747.03 138 1746.83 137.99 1746.64 137.968C1745.28 137.815 1744.3 137.075 1744.54 135.224C1744.79 132.867 1745.31 130.447 1745.82 128.016C1747.36 120.778 1748.91 113.438 1743.56 107.343C1741.8 105.326 1739.8 103.62 1737.82 101.938C1734.24 98.8885 1730.75 95.9168 1729 91.3054C1730.58 91.6311 1732.15 91.7816 1733.7 91.7816C1741.57 91.7816 1748.97 87.8659 1755.15 82.9164C1757.67 80.871 1758.68 77.8223 1759.7 74.7684C1760.27 73.0332 1760.85 71.2963 1761.7 69.7408C1762.23 68.4948 1762.73 67.3327 1763.16 66.3334Z"/>
</mask>
<path fill-rule="evenodd" clip-rule="evenodd" d="M1763.16 66.3334C1764.02 64.3373 1764.62 63 1764.62 63C1765.89 65.067 1767 67.3307 1768.1 69.5941C1768.26 69.9162 1768.42 70.2384 1768.58 70.56C1769.21 71.8528 1769.85 73.1383 1770.53 74.3769C1772.18 77.7325 1774.89 80.4466 1778.59 81.1868C1781.64 81.8456 1784.65 81.9542 1787.63 81.9542C1788.38 81.9542 1789.12 81.9473 1789.87 81.9405C1790.6 81.9338 1791.34 81.927 1792.07 81.927C1793.54 81.927 1795 81.9566 1796.45 82.0652C1797.9 82.1738 1799.34 82.3662 1800.76 82.6944C1802.28 82.914 1803.76 83.4074 1805 84.1476C1803.64 85.1963 1802.4 86.3337 1801.29 87.5452C1800.17 88.7567 1799.17 90.0421 1798.3 91.3868C1792.52 100.383 1793.1 110.956 1793.68 121.442C1793.94 126.101 1794.19 130.743 1793.89 135.222C1793.74 135.994 1792.43 136.379 1790.98 136.379C1790.12 136.379 1789.2 136.238 1788.46 135.962C1786.2 134.993 1784.07 133.364 1781.94 131.731C1778.57 129.152 1775.19 126.564 1771.26 126.564C1770.08 126.564 1768.85 126.798 1767.55 127.339C1765.75 128.007 1764 128.883 1762.31 130.033C1761.36 130.668 1760.42 131.328 1759.47 131.989C1759.19 132.186 1758.91 132.383 1758.63 132.579C1756.17 134.292 1753.67 135.964 1750.96 137.198C1749.9 137.622 1748.47 138 1747.23 138C1747.03 138 1746.83 137.99 1746.64 137.968C1745.28 137.815 1744.3 137.075 1744.54 135.224C1744.79 132.867 1745.31 130.447 1745.82 128.016C1747.36 120.778 1748.91 113.438 1743.56 107.343C1741.8 105.326 1739.8 103.62 1737.82 101.938C1734.24 98.8885 1730.75 95.9168 1729 91.3054C1730.58 91.6311 1732.15 91.7816 1733.7 91.7816C1741.57 91.7816 1748.97 87.8659 1755.15 82.9164C1757.67 80.871 1758.68 77.8223 1759.7 74.7684C1760.27 73.0332 1760.85 71.2963 1761.7 69.7408C1762.23 68.4948 1762.73 67.3327 1763.16 66.3334Z" fill="#FFF4CE"/>
<path d="M1764.62 63L1765.47 62.4765L1764.47 60.8554L1763.7 62.5951L1764.62 63ZM1763.16 66.3334L1762.24 65.9363L1762.24 65.9367L1763.16 66.3334ZM1768.1 69.5941L1767.21 70.0341V70.0341L1768.1 69.5941ZM1768.58 70.56L1769.48 70.121L1769.48 70.1182L1768.58 70.56ZM1770.53 74.3769L1771.43 73.9355L1771.42 73.9158L1771.4 73.8965L1770.53 74.3769ZM1778.59 81.1868L1778.81 80.2095L1778.8 80.2078L1778.79 80.2062L1778.59 81.1868ZM1789.87 81.9405L1789.88 82.9405L1789.87 81.9405ZM1796.45 82.0652L1796.38 83.0624L1796.45 82.0652ZM1800.76 82.6944L1800.54 83.6688L1800.58 83.6782L1800.62 83.6841L1800.76 82.6944ZM1805 84.1476L1805.61 84.9389L1806.77 84.0436L1805.51 83.2902L1805 84.1476ZM1801.29 87.5452L1802.02 88.2233L1802.02 88.2225L1801.29 87.5452ZM1798.3 91.3868L1797.46 90.8432L1797.46 90.8458L1798.3 91.3868ZM1793.68 121.442L1792.68 121.498L1793.68 121.442ZM1793.89 135.222L1794.87 135.419L1794.88 135.355L1794.89 135.289L1793.89 135.222ZM1788.46 135.962L1788.07 136.881L1788.09 136.89L1788.11 136.899L1788.46 135.962ZM1781.94 131.731L1781.33 132.525H1781.33L1781.94 131.731ZM1767.55 127.339L1767.9 128.276L1767.92 128.269L1767.94 128.261L1767.55 127.339ZM1762.31 130.033L1762.87 130.865L1762.88 130.859L1762.31 130.033ZM1759.47 131.989L1758.9 131.17L1758.9 131.17L1759.47 131.989ZM1758.63 132.579L1759.2 133.4L1759.2 133.4L1758.63 132.579ZM1750.96 137.198L1751.33 138.126L1751.35 138.118L1751.37 138.108L1750.96 137.198ZM1746.64 137.968L1746.76 136.975L1746.75 136.974L1746.64 137.968ZM1744.54 135.224L1745.54 135.356L1745.54 135.343L1745.54 135.329L1744.54 135.224ZM1745.82 128.016L1744.84 127.809L1745.82 128.016ZM1743.56 107.343L1742.8 107.999L1742.81 108.003L1743.56 107.343ZM1737.82 101.938L1738.47 101.176L1737.82 101.938ZM1729 91.3054L1729.2 90.326L1727.42 89.9584L1728.07 91.6601L1729 91.3054ZM1755.15 82.9164L1755.78 83.6973L1755.78 83.6926L1755.15 82.9164ZM1759.7 74.7684L1758.75 74.4532L1759.7 74.7684ZM1761.7 69.7408L1762.58 70.2219L1762.61 70.1768L1762.63 70.1294L1761.7 69.7408ZM1764.62 63C1763.7 62.5951 1763.7 62.5951 1763.7 62.5951C1763.7 62.5951 1763.7 62.5952 1763.7 62.5952C1763.7 62.5952 1763.7 62.5953 1763.7 62.5954C1763.7 62.5956 1763.7 62.5958 1763.7 62.5962C1763.7 62.5969 1763.7 62.5979 1763.7 62.5992C1763.7 62.6018 1763.7 62.6058 1763.69 62.611C1763.69 62.6214 1763.68 62.6369 1763.67 62.6572C1763.66 62.6979 1763.63 62.7582 1763.6 62.8368C1763.53 62.9939 1763.42 63.2241 1763.3 63.5166C1763.04 64.1017 1762.68 64.9366 1762.24 65.9363L1764.08 66.7305C1764.51 65.7341 1764.87 64.9023 1765.13 64.3197C1765.26 64.0284 1765.36 63.7995 1765.43 63.6435C1765.46 63.5655 1765.49 63.5057 1765.5 63.4655C1765.51 63.4454 1765.52 63.4302 1765.52 63.42C1765.53 63.4149 1765.53 63.4111 1765.53 63.4086C1765.53 63.4073 1765.53 63.4064 1765.53 63.4058C1765.53 63.4055 1765.53 63.4052 1765.53 63.4051C1765.53 63.405 1765.53 63.405 1765.53 63.4049C1765.53 63.4049 1765.53 63.4049 1765.53 63.4049C1765.53 63.4049 1765.53 63.4049 1764.62 63ZM1769 69.154C1767.9 66.8991 1766.77 64.5913 1765.47 62.4765L1763.76 63.5235C1765 65.5428 1766.09 67.7624 1767.21 70.0341L1769 69.154ZM1769.48 70.1182C1769.32 69.7976 1769.16 69.4763 1769 69.154L1767.21 70.0341C1767.36 70.3561 1767.52 70.6791 1767.68 71.0017L1769.48 70.1182ZM1771.4 73.8965C1770.74 72.6796 1770.11 71.4117 1769.48 70.121L1767.68 70.9989C1768.31 72.294 1768.96 73.5971 1769.65 74.8574L1771.4 73.8965ZM1778.79 80.2062C1775.49 79.5455 1772.99 77.1092 1771.43 73.9355L1769.63 74.8183C1771.37 78.3558 1774.3 81.3478 1778.4 82.1674L1778.79 80.2062ZM1787.63 80.9542C1784.67 80.9542 1781.74 80.8451 1778.81 80.2095L1778.38 82.1642C1781.53 82.8461 1784.64 82.9542 1787.63 82.9542V80.9542ZM1789.86 80.9406C1789.11 80.9474 1788.37 80.9542 1787.63 80.9542V82.9542C1788.38 82.9542 1789.13 82.9473 1789.88 82.9405L1789.86 80.9406ZM1792.07 80.927C1791.33 80.927 1790.59 80.9338 1789.86 80.9406L1789.88 82.9405C1790.61 82.9337 1791.35 82.927 1792.07 82.927V80.927ZM1796.53 81.068C1795.04 80.9568 1793.56 80.927 1792.07 80.927V82.927C1793.53 82.927 1794.96 82.9565 1796.38 83.0624L1796.53 81.068ZM1800.99 81.7199C1799.5 81.3779 1798.01 81.1794 1796.53 81.068L1796.38 83.0624C1797.79 83.1681 1799.17 83.3545 1800.54 83.6688L1800.99 81.7199ZM1805.51 83.2902C1804.15 82.4724 1802.54 81.9405 1800.91 81.7047L1800.62 83.6841C1802.03 83.8874 1803.38 84.3424 1804.48 85.0051L1805.51 83.2902ZM1802.02 88.2225C1803.1 87.053 1804.3 85.9536 1805.61 84.9389L1804.39 83.3564C1802.98 84.4389 1801.7 85.6144 1800.55 86.8679L1802.02 88.2225ZM1799.14 91.9305C1799.98 90.6333 1800.94 89.3928 1802.02 88.2233L1800.55 86.8671C1799.39 88.1205 1798.37 89.451 1797.46 90.8432L1799.14 91.9305ZM1794.68 121.387C1794.1 110.835 1793.56 100.606 1799.14 91.9279L1797.46 90.8458C1791.47 100.16 1792.11 111.078 1792.68 121.498L1794.68 121.387ZM1794.89 135.289C1795.2 130.739 1794.94 126.034 1794.68 121.387L1792.68 121.498C1792.94 126.169 1793.19 130.748 1792.89 135.154L1794.89 135.289ZM1790.98 137.379C1791.78 137.379 1792.59 137.275 1793.26 137.029C1793.88 136.805 1794.69 136.338 1794.87 135.419L1792.91 135.024C1792.94 134.877 1793.02 134.99 1792.58 135.151C1792.19 135.291 1791.63 135.379 1790.98 135.379V137.379ZM1788.11 136.899C1788.99 137.225 1790.02 137.379 1790.98 137.379V135.379C1790.21 135.379 1789.42 135.252 1788.81 135.025L1788.11 136.899ZM1781.33 132.525C1783.44 134.14 1785.67 135.854 1788.07 136.881L1788.86 135.043C1786.73 134.133 1784.71 132.588 1782.55 130.937L1781.33 132.525ZM1771.26 127.564C1773 127.564 1774.66 128.135 1776.33 129.056C1778.01 129.983 1779.64 131.226 1781.33 132.525L1782.55 130.937C1780.88 129.657 1779.13 128.317 1777.29 127.305C1775.45 126.287 1773.45 125.564 1771.26 125.564V127.564ZM1767.94 128.261C1769.12 127.77 1770.22 127.564 1771.26 127.564V125.564C1769.94 125.564 1768.58 125.827 1767.17 126.416L1767.94 128.261ZM1762.88 130.859C1764.49 129.759 1766.17 128.919 1767.9 128.276L1767.21 126.401C1765.33 127.095 1763.51 128.007 1761.75 129.207L1762.88 130.859ZM1760.05 132.809C1760.99 132.146 1761.93 131.493 1762.87 130.864L1761.76 129.201C1760.79 129.844 1759.84 130.51 1758.9 131.17L1760.05 132.809ZM1759.2 133.4C1759.48 133.203 1759.76 133.005 1760.05 132.809L1758.9 131.17C1758.62 131.367 1758.34 131.563 1758.06 131.759L1759.2 133.4ZM1751.37 138.108C1754.18 136.833 1756.74 135.113 1759.2 133.4L1758.06 131.758C1755.6 133.47 1753.17 135.095 1750.55 136.288L1751.37 138.108ZM1747.23 139C1748.64 139 1750.2 138.579 1751.33 138.126L1750.59 136.27C1749.6 136.666 1748.3 137 1747.23 137V139ZM1746.53 138.961C1746.76 138.989 1747 139 1747.23 139V137C1747.06 137 1746.9 136.992 1746.76 136.975L1746.53 138.961ZM1743.55 135.092C1743.4 136.208 1743.61 137.179 1744.24 137.895C1744.86 138.588 1745.72 138.87 1746.53 138.962L1746.75 136.974C1746.21 136.912 1745.9 136.748 1745.74 136.57C1745.6 136.415 1745.44 136.091 1745.54 135.356L1743.55 135.092ZM1744.84 127.809C1744.33 130.23 1743.8 132.701 1743.55 135.12L1745.54 135.329C1745.78 133.033 1746.28 130.665 1746.8 128.224L1744.84 127.809ZM1742.81 108.003C1747.78 113.664 1746.4 120.468 1744.84 127.809L1746.8 128.224C1748.31 121.087 1750.05 113.212 1744.31 106.683L1742.81 108.003ZM1737.17 102.699C1739.16 104.389 1741.11 106.048 1742.8 107.999L1744.31 106.687C1742.5 104.604 1740.44 102.851 1738.47 101.176L1737.17 102.699ZM1728.07 91.6601C1729.92 96.5482 1733.62 99.6746 1737.17 102.699L1738.47 101.176C1734.86 98.1024 1731.58 95.2854 1729.93 90.9508L1728.07 91.6601ZM1733.7 90.7816C1732.21 90.7816 1730.71 90.6375 1729.2 90.326L1728.8 92.2848C1730.45 92.6247 1732.08 92.7816 1733.7 92.7816V90.7816ZM1754.53 82.1356C1748.42 87.0214 1741.25 90.7816 1733.7 90.7816V92.7816C1741.9 92.7816 1749.51 88.7105 1755.78 83.6972L1754.53 82.1356ZM1758.75 74.4532C1757.72 77.5621 1756.78 80.3097 1754.52 82.1403L1755.78 83.6926C1758.57 81.4324 1759.65 78.0826 1760.65 75.0836L1758.75 74.4532ZM1760.83 69.2597C1759.92 70.9088 1759.32 72.7347 1758.75 74.4532L1760.65 75.0836C1761.23 73.3317 1761.78 71.6838 1762.58 70.2219L1760.83 69.2597ZM1762.24 65.9367C1761.81 66.9379 1761.31 68.1028 1760.78 69.3522L1762.63 70.1294C1763.15 68.8868 1763.65 67.7274 1764.08 66.73L1762.24 65.9367Z" fill="black" mask="url(#path-4-inside-2_824_4)"/>
<mask id="path-6-inside-3_824_4" fill="white">
<path fill-rule="evenodd" clip-rule="evenodd" d="M1056.46 60.6628C1055.56 61.871 1054.95 62.6783 1054.95 62.6783C1054.42 61.0805 1054.04 59.3758 1053.65 57.6713C1053.6 57.4287 1053.54 57.1862 1053.48 56.9439C1053.27 55.9706 1053.04 55.0011 1052.78 54.0569C1052.21 51.5289 1050.81 49.2634 1048.43 48.1714C1046.48 47.2398 1044.47 46.6833 1042.46 46.2064C1041.95 46.0867 1041.45 45.972 1040.95 45.8576C1040.45 45.744 1039.95 45.6308 1039.46 45.5135C1038.46 45.278 1037.48 45.0241 1036.52 44.7189C1035.56 44.4138 1034.63 44.0536 1033.72 43.6042C1032.73 43.2127 1031.81 42.6428 1031.09 41.9459C1032.18 41.4558 1033.19 40.8868 1034.14 40.2482C1035.09 39.6099 1035.97 38.902 1036.77 38.1344C1042.11 32.9927 1043.41 25.7662 1044.7 18.5996C1045.27 15.4153 1045.84 12.2428 1046.76 9.2704C1046.99 8.77432 1047.94 8.72448 1048.91 8.95562C1049.5 9.09431 1050.09 9.33537 1050.54 9.64032C1051.91 10.6557 1053.09 12.0958 1054.27 13.5386C1056.13 15.8186 1057.99 18.1056 1060.64 18.7346C1061.44 18.9238 1062.31 18.9629 1063.27 18.8058C1064.59 18.6436 1065.92 18.3336 1067.24 17.8278C1067.98 17.5516 1068.72 17.2575 1069.47 16.9628C1069.69 16.8751 1069.91 16.7874 1070.13 16.7001C1072.06 15.9389 1074.01 15.2098 1076.04 14.8122C1076.82 14.6955 1077.85 14.6692 1078.68 14.8679C1078.82 14.9007 1078.95 14.939 1079.08 14.9844C1079.97 15.3049 1080.52 15.9623 1080.05 17.1711C1079.51 18.7215 1078.77 20.2716 1078.04 21.829C1075.84 26.466 1073.62 31.1678 1076.25 36.1373C1077.11 37.7793 1078.19 39.2509 1079.26 40.7021C1081.19 43.3328 1083.06 45.8965 1083.51 49.2874C1082.49 48.8148 1081.46 48.462 1080.42 48.2142C1075.1 46.9526 1069.49 48.4099 1064.52 50.7582C1062.49 51.7349 1061.32 53.6294 1060.15 55.5271C1059.48 56.6054 1058.82 57.6847 1057.99 58.5973C1057.44 59.3537 1056.91 60.0578 1056.46 60.6628Z"/>
</mask>
<path fill-rule="evenodd" clip-rule="evenodd" d="M1056.46 60.6628C1055.56 61.871 1054.95 62.6783 1054.95 62.6783C1054.42 61.0805 1054.04 59.3758 1053.65 57.6713C1053.6 57.4287 1053.54 57.1862 1053.48 56.9439C1053.27 55.9706 1053.04 55.0011 1052.78 54.0569C1052.21 51.5289 1050.81 49.2634 1048.43 48.1714C1046.48 47.2398 1044.47 46.6833 1042.46 46.2064C1041.95 46.0867 1041.45 45.972 1040.95 45.8576C1040.45 45.744 1039.95 45.6308 1039.46 45.5135C1038.46 45.278 1037.48 45.0241 1036.52 44.7189C1035.56 44.4138 1034.63 44.0536 1033.72 43.6042C1032.73 43.2127 1031.81 42.6428 1031.09 41.9459C1032.18 41.4558 1033.19 40.8868 1034.14 40.2482C1035.09 39.6099 1035.97 38.902 1036.77 38.1344C1042.11 32.9927 1043.41 25.7662 1044.7 18.5996C1045.27 15.4153 1045.84 12.2428 1046.76 9.2704C1046.99 8.77432 1047.94 8.72448 1048.91 8.95562C1049.5 9.09431 1050.09 9.33537 1050.54 9.64032C1051.91 10.6557 1053.09 12.0958 1054.27 13.5386C1056.13 15.8186 1057.99 18.1056 1060.64 18.7346C1061.44 18.9238 1062.31 18.9629 1063.27 18.8058C1064.59 18.6436 1065.92 18.3336 1067.24 17.8278C1067.98 17.5516 1068.72 17.2575 1069.47 16.9628C1069.69 16.8751 1069.91 16.7874 1070.13 16.7001C1072.06 15.9389 1074.01 15.2098 1076.04 14.8122C1076.82 14.6955 1077.85 14.6692 1078.68 14.8679C1078.82 14.9007 1078.95 14.939 1079.08 14.9844C1079.97 15.3049 1080.52 15.9623 1080.05 17.1711C1079.51 18.7215 1078.77 20.2716 1078.04 21.829C1075.84 26.466 1073.62 31.1678 1076.25 36.1373C1077.11 37.7793 1078.19 39.2509 1079.26 40.7021C1081.19 43.3328 1083.06 45.8965 1083.51 49.2874C1082.49 48.8148 1081.46 48.462 1080.42 48.2142C1075.1 46.9526 1069.49 48.4099 1064.52 50.7582C1062.49 51.7349 1061.32 53.6294 1060.15 55.5271C1059.48 56.6054 1058.82 57.6847 1057.99 58.5973C1057.44 59.3537 1056.91 60.0578 1056.46 60.6628Z" fill="#FFF4CE"/>
<path d="M1054.95 62.6783L1054 62.9908L1054.59 64.7982L1055.74 63.2834L1054.95 62.6783ZM1056.46 60.6628L1057.26 61.2611L1057.26 61.2607L1056.46 60.6628ZM1053.65 57.6713L1054.63 57.4506L1054.63 57.4506L1053.65 57.6713ZM1053.48 56.9439L1052.51 57.1635L1052.51 57.1664L1053.48 56.9439ZM1052.78 54.0569L1051.81 54.2791L1051.81 54.3005L1051.82 54.3217L1052.78 54.0569ZM1048.43 48.1714L1048 49.0734L1048.01 49.0768L1048.01 49.0801L1048.43 48.1714ZM1040.95 45.8576L1041.17 44.8826L1040.95 45.8576ZM1033.72 43.6042L1034.16 42.708L1034.12 42.6896L1034.08 42.6743L1033.72 43.6042ZM1031.09 41.9459L1030.68 41.0347L1029.35 41.6383L1030.4 42.6613L1031.09 41.9459ZM1034.14 40.2482L1033.58 39.4187L1033.58 39.4193L1034.14 40.2482ZM1036.77 38.1344L1037.46 38.8572L1037.46 38.855L1036.77 38.1344ZM1044.7 18.5996L1045.68 18.7765L1044.7 18.5996ZM1046.76 9.2704L1045.86 8.85198L1045.83 8.91153L1045.81 8.97414L1046.76 9.2704ZM1050.54 9.64032L1051.14 8.83698L1051.12 8.82283L1051.1 8.8096L1050.54 9.64032ZM1054.27 13.5386L1055.04 12.9064L1054.27 13.5386ZM1063.27 18.8058L1063.15 17.8132L1063.13 17.8156L1063.11 17.8189L1063.27 18.8058ZM1067.24 17.8278L1066.89 16.8904L1066.88 16.894L1067.24 17.8278ZM1069.47 16.9628L1069.83 17.8924L1069.83 17.8924L1069.47 16.9628ZM1070.13 16.7001L1069.76 15.7696L1069.76 15.7697L1070.13 16.7001ZM1076.04 14.8122L1075.89 13.8232L1075.87 13.8266L1075.85 13.8309L1076.04 14.8122ZM1079.08 14.9844L1078.74 15.924L1078.74 15.9254L1079.08 14.9844ZM1080.05 17.1711L1079.12 16.8136L1079.11 16.8265L1079.11 16.8396L1080.05 17.1711ZM1078.04 21.829L1078.94 22.2568L1078.04 21.829ZM1076.25 36.1373L1077.14 35.6732L1077.14 35.6686L1076.25 36.1373ZM1079.26 40.7021L1078.45 41.2933L1079.26 40.7021ZM1083.51 49.2874L1083.08 50.1936L1084.73 50.963L1084.5 49.1583L1083.51 49.2874ZM1064.52 50.7582L1064.09 49.8542L1064.09 49.8574L1064.52 50.7582ZM1060.15 55.5271L1059.3 55.0012L1059.3 55.0012L1060.15 55.5271ZM1057.99 58.5973L1057.25 57.9267L1057.21 57.9648L1057.18 58.0063L1057.99 58.5973ZM1054.95 62.6783C1055.74 63.2834 1055.74 63.2834 1055.74 63.2834C1055.74 63.2834 1055.74 63.2834 1055.74 63.2834C1055.74 63.2833 1055.74 63.2833 1055.74 63.2832C1055.74 63.2831 1055.74 63.283 1055.74 63.2828C1055.74 63.2823 1055.74 63.2817 1055.75 63.2809C1055.75 63.2793 1055.75 63.2769 1055.75 63.2737C1055.76 63.2674 1055.76 63.2581 1055.77 63.2457C1055.79 63.2211 1055.82 63.1846 1055.85 63.1371C1055.93 63.042 1056.03 62.9028 1056.17 62.7258C1056.43 62.3719 1056.81 61.8667 1057.26 61.2611L1055.66 60.0644C1055.21 60.6671 1054.83 61.1696 1054.57 61.5214C1054.44 61.6973 1054.33 61.8354 1054.26 61.9295C1054.22 61.9765 1054.2 62.0126 1054.18 62.0368C1054.17 62.0489 1054.16 62.058 1054.16 62.0641C1054.16 62.0672 1054.15 62.0695 1054.15 62.071C1054.15 62.0717 1054.15 62.0723 1054.15 62.0726C1054.15 62.0728 1054.15 62.073 1054.15 62.0731C1054.15 62.0731 1054.15 62.0731 1054.15 62.0731C1054.15 62.0732 1054.15 62.0732 1054.15 62.0732C1054.15 62.0732 1054.15 62.0732 1054.95 62.6783ZM1052.67 57.8921C1053.06 59.5874 1053.45 61.3398 1054 62.9908L1055.9 62.3657C1055.39 60.8212 1055.01 59.1642 1054.63 57.4506L1052.67 57.8921ZM1052.51 57.1664C1052.57 57.4077 1052.62 57.6493 1052.67 57.8921L1054.63 57.4506C1054.57 57.2081 1054.52 56.9647 1054.46 56.7213L1052.51 57.1664ZM1051.82 54.3217C1052.07 55.2421 1052.29 56.1925 1052.51 57.1635L1054.46 56.7243C1054.24 55.7486 1054.01 54.76 1053.75 53.792L1051.82 54.3217ZM1048.01 49.0801C1050.02 50.0031 1051.28 51.9487 1051.81 54.2791L1053.76 53.8346C1053.14 51.109 1051.59 48.5236 1048.85 47.2626L1048.01 49.0801ZM1042.23 47.1794C1044.22 47.6521 1046.15 48.1891 1048 49.0734L1048.86 47.2693C1046.82 46.2904 1044.71 45.7145 1042.69 45.2334L1042.23 47.1794ZM1040.72 46.8327C1041.23 46.9472 1041.73 47.0609 1042.23 47.1794L1042.69 45.2334C1042.18 45.1125 1041.67 44.9967 1041.17 44.8826L1040.72 46.8327ZM1039.23 46.4865C1039.73 46.605 1040.23 46.7193 1040.72 46.8327L1041.17 44.8826C1040.67 44.7688 1040.18 44.6566 1039.69 44.5405L1039.23 46.4865ZM1036.22 45.6719C1037.21 45.9878 1038.22 46.2482 1039.23 46.4865L1039.69 44.5405C1038.71 44.3078 1037.75 44.0605 1036.83 43.766L1036.22 45.6719ZM1033.27 44.5005C1034.24 44.9771 1035.23 45.3552 1036.22 45.6719L1036.83 43.766C1035.9 43.4724 1035.01 43.13 1034.16 42.708L1033.27 44.5005ZM1030.4 42.6613C1031.22 43.4635 1032.25 44.1009 1033.35 44.5342L1034.08 42.6743C1033.2 42.3246 1032.4 41.822 1031.79 41.2304L1030.4 42.6613ZM1033.58 39.4193C1032.68 40.026 1031.71 40.5676 1030.68 41.0347L1031.51 42.857C1032.64 42.344 1033.71 41.7477 1034.7 41.0771L1033.58 39.4193ZM1036.08 37.4116C1035.32 38.1401 1034.48 38.8123 1033.58 39.4187L1034.7 41.0777C1035.7 40.4076 1036.62 39.6639 1037.46 38.8571L1036.08 37.4116ZM1043.72 18.4228C1042.42 25.6543 1041.15 32.5342 1036.08 37.4137L1037.46 38.855C1043.08 33.4512 1044.41 25.878 1045.68 18.7765L1043.72 18.4228ZM1045.81 8.97414C1044.87 12.0157 1044.29 15.2503 1043.72 18.4228L1045.68 18.7765C1046.26 15.5803 1046.82 12.47 1047.72 9.56665L1045.81 8.97414ZM1049.14 7.98266C1048.58 7.85005 1047.98 7.7836 1047.44 7.84718C1046.96 7.90362 1046.2 8.10998 1045.86 8.85198L1047.67 9.68881C1047.62 9.81073 1047.53 9.86006 1047.52 9.86635C1047.52 9.86858 1047.56 9.84709 1047.68 9.83342C1047.91 9.80585 1048.27 9.83005 1048.68 9.92858L1049.14 7.98266ZM1051.1 8.8096C1050.53 8.42555 1049.82 8.14316 1049.14 7.98266L1048.68 9.92858C1049.17 10.0455 1049.65 10.2452 1049.99 10.471L1051.1 8.8096ZM1055.04 12.9064C1053.88 11.4866 1052.63 9.94075 1051.14 8.83698L1049.95 10.4437C1051.2 11.3707 1052.3 12.7049 1053.49 14.1708L1055.04 12.9064ZM1060.87 17.7616C1059.77 17.4994 1058.79 16.8832 1057.83 16.0154C1056.87 15.1393 1055.98 14.0587 1055.04 12.9064L1053.49 14.1708C1054.41 15.2985 1055.39 16.5014 1056.49 17.4961C1057.59 18.499 1058.87 19.3408 1060.41 19.7075L1060.87 17.7616ZM1063.11 17.8189C1062.27 17.9555 1061.54 17.9191 1060.87 17.7616L1060.41 19.7075C1061.34 19.9285 1062.34 19.9702 1063.43 19.7927L1063.11 17.8189ZM1066.88 16.894C1065.64 17.3682 1064.4 17.66 1063.15 17.8132L1063.39 19.7984C1064.79 19.6271 1066.19 19.299 1067.59 18.7617L1066.88 16.894ZM1069.1 16.0331C1068.35 16.3285 1067.62 16.6187 1066.89 16.8905L1067.59 18.7652C1068.34 18.4846 1069.09 18.1864 1069.83 17.8924L1069.1 16.0331ZM1069.76 15.7697C1069.54 15.8574 1069.32 15.9455 1069.1 16.0331L1069.83 17.8924C1070.06 17.8047 1070.28 17.7173 1070.5 17.6304L1069.76 15.7697ZM1075.85 13.8309C1073.72 14.2477 1071.7 15.008 1069.76 15.7696L1070.5 17.6306C1072.43 16.8697 1074.3 16.1719 1076.23 15.7936L1075.85 13.8309ZM1078.91 13.895C1077.91 13.657 1076.75 13.6951 1075.89 13.8232L1076.19 15.8013C1076.9 15.6958 1077.78 15.6814 1078.45 15.8409L1078.91 13.895ZM1079.42 14.0448C1079.25 13.9839 1079.08 13.9351 1078.91 13.895L1078.45 15.8409C1078.56 15.8664 1078.65 15.8941 1078.74 15.924L1079.42 14.0448ZM1080.99 17.5286C1081.29 16.7444 1081.32 15.959 1080.96 15.2727C1080.6 14.6146 1079.99 14.2481 1079.42 14.0434L1078.74 15.9254C1079.06 16.0412 1079.16 16.1636 1079.19 16.2166C1079.21 16.2413 1079.28 16.3891 1079.12 16.8136L1080.99 17.5286ZM1078.94 22.2568C1079.67 20.7089 1080.43 19.111 1081 17.5027L1079.11 16.8396C1078.59 18.3321 1077.88 19.8343 1077.13 21.4011L1078.94 22.2568ZM1077.14 35.6686C1074.77 31.2097 1076.7 26.9881 1078.94 22.2568L1077.13 21.4011C1074.98 25.944 1072.46 31.126 1075.37 36.6061L1077.14 35.6686ZM1080.06 40.111C1078.99 38.6504 1077.96 37.2379 1077.14 35.6732L1075.37 36.6015C1076.27 38.3207 1077.39 39.8514 1078.45 41.2933L1080.06 40.111ZM1084.5 49.1583C1084.02 45.4739 1081.97 42.711 1080.06 40.111L1078.45 41.2933C1080.4 43.9546 1082.11 46.3192 1082.51 49.4165L1084.5 49.1583ZM1080.18 49.1872C1081.16 49.4199 1082.13 49.7509 1083.08 50.1936L1083.93 48.3811C1082.85 47.8788 1081.75 47.5041 1080.65 47.2413L1080.18 49.1872ZM1064.95 51.6622C1069.82 49.3575 1075.19 48.001 1080.18 49.1872L1080.65 47.2413C1075.01 45.9042 1069.15 47.4623 1064.09 49.8542L1064.95 51.6622ZM1061 56.0529C1062.2 54.106 1063.24 52.4878 1064.95 51.659L1064.09 49.8574C1061.75 50.982 1060.44 53.1527 1059.3 55.0012L1061 56.0529ZM1058.73 59.2679C1059.63 58.2761 1060.34 57.1162 1061 56.0529L1059.3 55.0012C1058.62 56.0945 1058 57.0933 1057.25 57.9267L1058.73 59.2679ZM1057.26 61.2607C1057.72 60.6541 1058.24 59.9475 1058.8 59.1882L1057.18 58.0063C1056.63 58.7598 1056.11 59.4615 1055.66 60.0648L1057.26 61.2607Z" fill="black" mask="url(#path-6-inside-3_824_4)"/>
<mask id="path-8-inside-4_824_4" fill="white">
<path fill-rule="evenodd" clip-rule="evenodd" d="M121.417 326.967C123.163 325.67 124.345 324.808 124.345 324.808C124.411 327.233 124.24 329.748 124.069 332.263C124.044 332.621 124.02 332.979 123.996 333.336C123.897 334.772 123.807 336.205 123.776 337.617C123.528 341.348 124.521 345.056 127.356 347.547C129.661 349.639 132.22 351.242 134.799 352.731C135.447 353.104 136.096 353.471 136.742 353.836C137.384 354.2 138.025 354.561 138.659 354.928C139.933 355.663 141.183 356.419 142.383 357.237C143.583 358.055 144.732 358.941 145.801 359.937C147.008 360.887 148.043 362.055 148.741 363.313C147.042 363.542 145.4 363.908 143.829 364.4C142.255 364.89 140.751 365.506 139.325 366.235C129.814 371.132 125.034 380.582 120.294 389.953C118.187 394.117 116.089 398.265 113.587 401.992C113.066 402.583 111.739 402.261 110.489 401.539C109.739 401.106 109.018 400.528 108.516 399.918C107.042 397.949 106.014 395.474 104.983 392.994C103.354 389.074 101.72 385.143 98.3191 383.179C97.2956 382.589 96.1121 382.176 94.7201 381.996C92.8238 381.673 90.8666 381.555 88.8323 381.708C87.6913 381.783 86.5442 381.883 85.395 381.983C85.0531 382.012 84.711 382.042 84.3689 382.071C81.3824 382.324 78.3857 382.526 75.4183 382.237C74.2895 382.075 72.8657 381.689 71.7909 381.069C71.6135 380.966 71.4475 380.859 71.2941 380.745C70.1953 379.934 69.7107 378.799 70.8496 377.32C72.2432 375.403 73.8975 373.564 75.5596 371.716C80.5085 366.216 85.5266 360.638 83.9354 352.681C83.4249 350.056 82.5423 347.577 81.6718 345.132C80.0941 340.701 78.5564 336.381 79.3473 331.513C80.552 332.585 81.8357 333.5 83.1755 334.273C89.9983 338.212 98.36 338.519 106.192 337.325C109.395 336.812 111.796 334.678 114.201 332.541C115.568 331.326 116.936 330.11 118.453 329.19C119.531 328.374 120.544 327.617 121.417 326.967Z"/>
</mask>
<path fill-rule="evenodd" clip-rule="evenodd" d="M121.417 326.967C123.163 325.67 124.345 324.808 124.345 324.808C124.411 327.233 124.24 329.748 124.069 332.263C124.044 332.621 124.02 332.979 123.996 333.336C123.897 334.772 123.807 336.205 123.776 337.617C123.528 341.348 124.521 345.056 127.356 347.547C129.661 349.639 132.22 351.242 134.799 352.731C135.447 353.104 136.096 353.471 136.742 353.836C137.384 354.2 138.025 354.561 138.659 354.928C139.933 355.663 141.183 356.419 142.383 357.237C143.583 358.055 144.732 358.941 145.801 359.937C147.008 360.887 148.043 362.055 148.741 363.313C147.042 363.542 145.4 363.908 143.829 364.4C142.255 364.89 140.751 365.506 139.325 366.235C129.814 371.132 125.034 380.582 120.294 389.953C118.187 394.117 116.089 398.265 113.587 401.992C113.066 402.583 111.739 402.261 110.489 401.539C109.739 401.106 109.018 400.528 108.516 399.918C107.042 397.949 106.014 395.474 104.983 392.994C103.354 389.074 101.72 385.143 98.3191 383.179C97.2956 382.589 96.1121 382.176 94.7201 381.996C92.8238 381.673 90.8666 381.555 88.8323 381.708C87.6913 381.783 86.5442 381.883 85.395 381.983C85.0531 382.012 84.711 382.042 84.3689 382.071C81.3824 382.324 78.3857 382.526 75.4183 382.237C74.2895 382.075 72.8657 381.689 71.7909 381.069C71.6135 380.966 71.4475 380.859 71.2941 380.745C70.1953 379.934 69.7107 378.799 70.8496 377.32C72.2432 375.403 73.8975 373.564 75.5596 371.716C80.5085 366.216 85.5266 360.638 83.9354 352.681C83.4249 350.056 82.5423 347.577 81.6718 345.132C80.0941 340.701 78.5564 336.381 79.3473 331.513C80.552 332.585 81.8357 333.5 83.1755 334.273C89.9983 338.212 98.36 338.519 106.192 337.325C109.395 336.812 111.796 334.678 114.201 332.541C115.568 331.326 116.936 330.11 118.453 329.19C119.531 328.374 120.544 327.617 121.417 326.967Z" fill="#FFF4CE"/>
<path d="M124.345 324.808L125.344 324.781L125.292 322.879L123.755 324L124.345 324.808ZM121.417 326.967L120.821 326.164L120.82 326.165L121.417 326.967ZM124.069 332.263L123.071 332.195L123.071 332.195L124.069 332.263ZM123.996 333.336L124.994 333.406L124.994 333.403L123.996 333.336ZM123.776 337.617L124.774 337.683L124.775 337.661L124.776 337.639L123.776 337.617ZM127.356 347.547L128.028 346.807L128.022 346.801L128.016 346.796L127.356 347.547ZM136.742 353.836L136.25 354.707L136.25 354.707L136.742 353.836ZM142.383 357.237L141.82 358.063L141.82 358.063L142.383 357.237ZM145.801 359.937L145.12 360.669L145.15 360.697L145.183 360.723L145.801 359.937ZM148.741 363.313L148.875 364.304L150.326 364.108L149.616 362.827L148.741 363.313ZM143.829 364.4L144.126 365.354L144.127 365.354L143.829 364.4ZM139.325 366.235L138.87 365.345L138.867 365.346L139.325 366.235ZM120.294 389.953L119.401 389.501L119.401 389.501L120.294 389.953ZM113.587 401.992L114.337 402.653L114.38 402.603L114.417 402.549L113.587 401.992ZM108.516 399.918L107.715 400.518L107.729 400.537L107.744 400.555L108.516 399.918ZM104.983 392.994L104.059 393.378L104.059 393.378L104.983 392.994ZM94.7201 381.996L94.5524 382.982L94.5722 382.985L94.5921 382.988L94.7201 381.996ZM88.8323 381.708L88.8976 382.706L88.9074 382.705L88.8323 381.708ZM85.395 381.983L85.3082 380.986L85.3082 380.986L85.395 381.983ZM84.3689 382.071L84.4533 383.068L84.4538 383.068L84.3689 382.071ZM75.4183 382.237L75.2765 383.227L75.299 383.23L75.3215 383.232L75.4183 382.237ZM71.2941 380.745L71.8912 379.943L71.8879 379.94L71.2941 380.745ZM70.8496 377.32L71.642 377.93L71.6504 377.919L71.6586 377.908L70.8496 377.32ZM75.5596 371.716L74.8162 371.048L74.8162 371.048L75.5596 371.716ZM83.9354 352.681L82.9538 352.872L82.9549 352.877L83.9354 352.681ZM81.6718 345.132L82.6139 344.797L82.6139 344.797L81.6718 345.132ZM79.3473 331.513L80.0119 330.766L78.6521 329.556L78.3602 331.353L79.3473 331.513ZM106.192 337.325L106.342 338.314L106.35 338.313L106.192 337.325ZM114.201 332.541L113.537 331.793L113.537 331.793L114.201 332.541ZM118.453 329.19L118.971 330.045L119.015 330.018L119.056 329.987L118.453 329.19ZM124.345 324.808C123.755 324 123.755 324 123.755 324C123.755 324 123.755 324 123.755 324C123.755 324 123.755 324 123.755 324C123.755 324.001 123.754 324.001 123.754 324.001C123.754 324.001 123.753 324.002 123.751 324.003C123.749 324.005 123.746 324.007 123.741 324.01C123.732 324.017 123.718 324.027 123.7 324.04C123.664 324.067 123.611 324.106 123.542 324.156C123.403 324.258 123.201 324.406 122.943 324.596C122.428 324.974 121.695 325.515 120.821 326.164L122.013 327.77C122.885 327.122 123.615 326.584 124.128 326.207C124.384 326.019 124.586 325.871 124.723 325.77C124.792 325.72 124.845 325.681 124.88 325.655C124.898 325.642 124.912 325.632 124.921 325.626C124.925 325.622 124.928 325.62 124.931 325.618C124.932 325.617 124.933 325.617 124.933 325.616C124.933 325.616 124.934 325.616 124.934 325.616C124.934 325.616 124.934 325.616 124.934 325.616C124.934 325.616 124.934 325.616 124.934 325.616C124.934 325.616 124.934 325.616 124.345 324.808ZM125.066 332.331C125.237 329.826 125.412 327.262 125.344 324.781L123.345 324.835C123.41 327.205 123.243 329.671 123.071 332.195L125.066 332.331ZM124.994 333.403C125.018 333.046 125.042 332.689 125.066 332.331L123.071 332.195C123.047 332.553 123.022 332.912 122.998 333.27L124.994 333.403ZM124.776 337.639C124.807 336.252 124.895 334.839 124.994 333.406L122.999 333.267C122.899 334.705 122.808 336.158 122.776 337.594L124.776 337.639ZM128.016 346.796C125.485 344.572 124.539 341.212 124.774 337.683L122.778 337.55C122.516 341.484 123.557 345.539 126.696 348.298L128.016 346.796ZM135.299 351.865C132.736 350.385 130.252 348.825 128.028 346.807L126.684 348.288C129.07 350.453 131.705 352.099 134.299 353.597L135.299 351.865ZM137.234 352.966C136.587 352.6 135.942 352.236 135.299 351.865L134.299 353.597C134.951 353.973 135.604 354.342 136.25 354.707L137.234 352.966ZM139.159 354.062C138.52 353.693 137.876 353.329 137.234 352.966L136.25 354.707C136.893 355.07 137.529 355.43 138.159 355.794L139.159 354.062ZM142.946 356.411C141.717 355.573 140.443 354.803 139.159 354.062L138.159 355.794C139.422 356.523 140.649 357.265 141.82 358.063L142.946 356.411ZM146.483 359.206C145.369 358.168 144.178 357.251 142.946 356.411L141.82 358.063C142.988 358.86 144.096 359.715 145.12 360.669L146.483 359.206ZM149.616 362.827C148.844 361.438 147.716 360.172 146.42 359.152L145.183 360.723C146.3 361.603 147.242 362.672 147.867 363.798L149.616 362.827ZM144.127 365.354C145.644 364.88 147.231 364.526 148.875 364.304L148.607 362.322C146.853 362.559 145.156 362.937 143.53 363.445L144.127 365.354ZM139.78 367.126C141.156 366.422 142.607 365.828 144.126 365.354L143.531 363.445C141.903 363.952 140.347 364.59 138.87 365.345L139.78 367.126ZM121.186 390.404C125.956 380.974 130.608 371.848 139.782 367.124L138.867 365.346C129.02 370.416 124.112 380.189 119.401 389.501L121.186 390.404ZM114.417 402.549C116.959 398.762 119.085 394.557 121.186 390.404L119.401 389.501C117.29 393.676 115.218 397.768 112.756 401.434L114.417 402.549ZM109.989 402.405C110.678 402.803 111.434 403.119 112.139 403.243C112.783 403.355 113.717 403.356 114.337 402.653L112.836 401.33C112.935 401.218 112.945 401.353 112.483 401.273C112.082 401.202 111.55 400.997 110.989 400.673L109.989 402.405ZM107.744 400.555C108.338 401.274 109.157 401.925 109.989 402.405L110.989 400.673C110.321 400.287 109.699 399.782 109.287 399.282L107.744 400.555ZM104.059 393.378C105.079 395.83 106.153 398.43 107.715 400.518L109.316 399.319C107.932 397.469 106.948 395.118 105.906 392.61L104.059 393.378ZM97.8191 384.046C99.3238 384.914 100.474 386.238 101.46 387.87C102.451 389.513 103.239 391.403 104.059 393.378L105.906 392.61C105.098 390.665 104.255 388.63 103.172 386.837C102.083 385.032 100.716 383.408 98.8191 382.313L97.8191 384.046ZM94.5921 382.988C95.8583 383.151 96.9146 383.523 97.8191 384.046L98.8191 382.313C97.6766 381.654 96.3659 381.2 94.8482 381.004L94.5921 382.988ZM88.9074 382.705C90.8539 382.559 92.7293 382.672 94.5524 382.982L94.8879 381.01C92.9183 380.675 90.8793 380.551 88.7572 380.711L88.9074 382.705ZM85.4817 382.979C86.6328 382.879 87.7691 382.78 88.8976 382.706L88.767 380.71C87.6134 380.786 86.4556 380.887 85.3082 380.986L85.4817 382.979ZM84.4538 383.068C84.797 383.038 85.14 383.009 85.4817 382.979L85.3082 380.986C84.9662 381.016 84.6251 381.046 84.2841 381.075L84.4538 383.068ZM75.3215 383.232C78.3883 383.531 81.4658 383.321 84.4533 383.068L84.2845 381.075C81.299 381.328 78.383 381.521 75.5152 381.242L75.3215 383.232ZM71.2909 381.935C72.5129 382.64 74.0718 383.054 75.2765 383.227L75.5602 381.247C74.5071 381.096 73.2184 380.738 72.2909 380.203L71.2909 381.935ZM70.6969 381.547C70.8867 381.688 71.0861 381.817 71.2909 381.935L72.2909 380.203C72.1409 380.116 72.0083 380.03 71.8912 379.943L70.6969 381.547ZM70.0573 376.71C69.3703 377.602 69.0618 378.545 69.2529 379.483C69.4375 380.389 70.0452 381.066 70.7002 381.549L71.8879 379.94C71.4442 379.613 71.2602 379.317 71.2126 379.083C71.1714 378.881 71.19 378.517 71.642 377.93L70.0573 376.71ZM74.8162 371.048C73.1611 372.887 71.4703 374.765 70.0407 376.732L71.6586 377.908C73.016 376.04 74.6339 374.241 76.303 372.385L74.8162 371.048ZM82.9549 352.877C84.4327 360.267 79.8348 365.469 74.8162 371.048L76.303 372.385C81.1822 366.962 86.6205 361.008 84.916 352.485L82.9549 352.877ZM80.7298 345.468C81.604 347.924 82.4599 350.333 82.9539 352.872L84.917 352.49C84.3898 349.78 83.4805 347.231 82.6139 344.797L80.7298 345.468ZM78.3602 331.353C77.5219 336.513 79.1647 341.072 80.7298 345.468L82.6139 344.797C81.0234 340.329 79.5909 336.25 80.3343 331.674L78.3602 331.353ZM83.6755 333.407C82.3922 332.666 81.1639 331.791 80.0119 330.766L78.6827 332.26C79.94 333.379 81.2793 334.333 82.6755 335.139L83.6755 333.407ZM106.041 336.337C98.3103 337.515 90.2153 337.183 83.6755 333.407L82.6755 335.139C89.7812 339.242 98.4098 339.523 106.342 338.314L106.041 336.337ZM113.537 331.793C111.088 333.969 108.9 335.879 106.034 336.338L106.35 338.313C109.889 337.746 112.503 335.387 114.865 333.288L113.537 331.793ZM117.934 328.335C116.326 329.311 114.89 330.59 113.537 331.793L114.865 333.288C116.245 332.062 117.546 330.91 118.971 330.045L117.934 328.335ZM120.82 326.165C119.945 326.815 118.93 327.574 117.849 328.393L119.056 329.987C120.132 329.173 121.142 328.418 122.014 327.77L120.82 326.165Z" fill="black" mask="url(#path-8-inside-4_824_4)"/>
<mask id="path-10-inside-5_824_4" fill="white">
<path fill-rule="evenodd" clip-rule="evenodd" d="M1792.89 263C1767.85 263 1743.69 268.625 1721.68 284.137C1718.19 286.232 1721.7 290.077 1725.36 294.092C1729.01 298.085 1732.81 302.247 1730.03 305.024C1715.93 321.14 1693.81 321.955 1672.11 322.754C1663.82 323.059 1655.58 323.362 1647.88 324.518C1655.39 327.02 1664.33 327.724 1673.42 328.439C1689.63 329.713 1706.3 331.024 1716.11 342.619C1690.98 357.693 1662.34 358.665 1633.57 359.641C1614.51 360.287 1595.4 360.936 1577.23 365.692C1570.86 368.635 1564.34 371.274 1557.84 373.907C1551.36 376.531 1544.9 379.148 1538.61 382.053C1526.04 387.873 1514.2 394.836 1504.46 405.279C1497.5 413.633 1498.89 426.165 1507.24 430.343C1566.26 467.352 1630.3 467.716 1694.73 468.083C1719.99 468.226 1745.31 468.37 1770.41 470.723C1774.59 470.723 1780.16 476.293 1780.16 476.293C1750.97 505.478 1711.31 507.201 1671.33 508.937C1655.66 509.617 1639.95 510.3 1624.81 512.635C1614.04 514.292 1603.56 516.799 1593.57 520.712C1587.03 523.854 1579.38 526.711 1571.48 529.659C1544.07 539.891 1513.75 551.212 1516.99 579.319C1520.6 603.714 1546.48 612.863 1573.72 612.863C1588.46 612.863 1603.61 610.175 1615.85 605.775C1604.71 591.851 1604.71 572.357 1625.6 567.4C1625.6 567.4 1627.94 565.311 1634.66 561.468C1681.05 539.631 1730.96 535.716 1780.84 531.802C1811.05 529.431 1841.26 527.061 1870.67 520.712C1879.02 511.73 1889.47 505.492 1900.44 499.769C1903.18 498.338 1905.96 496.937 1908.74 495.533C1917.09 491.325 1925.5 487.083 1933.33 481.863C1944.47 473.508 1954.21 458.191 1941.68 447.052C1895.3 411.525 1841.22 408.171 1786.4 404.77C1763.86 403.373 1741.2 401.967 1718.89 398.317C1718.09 398.049 1717.23 397.78 1716.34 397.502C1712.62 396.336 1708.34 394.995 1704.97 392.747C1712.63 386.829 1721.06 382.735 1729.99 379.825C1738.92 376.915 1748.3 375.16 1757.87 373.949C1769 373.123 1780.25 372.557 1791.55 371.99C1846.68 369.222 1902.89 366.399 1951.43 332.886C1969.53 320.354 1944.47 296.683 1927.76 292.506C1918.18 289.909 1908.38 286.997 1898.42 284.042C1863.88 273.785 1827.55 263 1792.89 263Z"/>
</mask>
<path fill-rule="evenodd" clip-rule="evenodd" d="M1792.89 263C1767.85 263 1743.69 268.625 1721.68 284.137C1718.19 286.232 1721.7 290.077 1725.36 294.092C1729.01 298.085 1732.81 302.247 1730.03 305.024C1715.93 321.14 1693.81 321.955 1672.11 322.754C1663.82 323.059 1655.58 323.362 1647.88 324.518C1655.39 327.02 1664.33 327.724 1673.42 328.439C1689.63 329.713 1706.3 331.024 1716.11 342.619C1690.98 357.693 1662.34 358.665 1633.57 359.641C1614.51 360.287 1595.4 360.936 1577.23 365.692C1570.86 368.635 1564.34 371.274 1557.84 373.907C1551.36 376.531 1544.9 379.148 1538.61 382.053C1526.04 387.873 1514.2 394.836 1504.46 405.279C1497.5 413.633 1498.89 426.165 1507.24 430.343C1566.26 467.352 1630.3 467.716 1694.73 468.083C1719.99 468.226 1745.31 468.37 1770.41 470.723C1774.59 470.723 1780.16 476.293 1780.16 476.293C1750.97 505.478 1711.31 507.201 1671.33 508.937C1655.66 509.617 1639.95 510.3 1624.81 512.635C1614.04 514.292 1603.56 516.799 1593.57 520.712C1587.03 523.854 1579.38 526.711 1571.48 529.659C1544.07 539.891 1513.75 551.212 1516.99 579.319C1520.6 603.714 1546.48 612.863 1573.72 612.863C1588.46 612.863 1603.61 610.175 1615.85 605.775C1604.71 591.851 1604.71 572.357 1625.6 567.4C1625.6 567.4 1627.94 565.311 1634.66 561.468C1681.05 539.631 1730.96 535.716 1780.84 531.802C1811.05 529.431 1841.26 527.061 1870.67 520.712C1879.02 511.73 1889.47 505.492 1900.44 499.769C1903.18 498.338 1905.96 496.937 1908.74 495.533C1917.09 491.325 1925.5 487.083 1933.33 481.863C1944.47 473.508 1954.21 458.191 1941.68 447.052C1895.3 411.525 1841.22 408.171 1786.4 404.77C1763.86 403.373 1741.2 401.967 1718.89 398.317C1718.09 398.049 1717.23 397.78 1716.34 397.502C1712.62 396.336 1708.34 394.995 1704.97 392.747C1712.63 386.829 1721.06 382.735 1729.99 379.825C1738.92 376.915 1748.3 375.16 1757.87 373.949C1769 373.123 1780.25 372.557 1791.55 371.99C1846.68 369.222 1902.89 366.399 1951.43 332.886C1969.53 320.354 1944.47 296.683 1927.76 292.506C1918.18 289.909 1908.38 286.997 1898.42 284.042C1863.88 273.785 1827.55 263 1792.89 263Z" fill="#FFF4CE"/>
<path d="M1721.68 284.137L1722.71 285.852L1722.77 285.814L1722.83 285.772L1721.68 284.137ZM1725.36 294.092L1726.84 292.744V292.744L1725.36 294.092ZM1730.03 305.024L1728.62 303.609L1728.57 303.657L1728.53 303.707L1730.03 305.024ZM1672.11 322.754L1672.19 324.752L1672.11 322.754ZM1647.88 324.518L1647.58 322.54L1647.25 326.415L1647.88 324.518ZM1673.42 328.439L1673.27 330.432L1673.42 328.439ZM1716.11 342.619L1717.14 344.334L1719.15 343.124L1717.63 341.327L1716.11 342.619ZM1633.57 359.641L1633.64 361.639L1633.57 359.641ZM1577.23 365.692L1576.72 363.757L1576.55 363.802L1576.39 363.876L1577.23 365.692ZM1557.84 373.907L1557.09 372.053L1557.84 373.907ZM1538.61 382.053L1537.77 380.238L1537.77 380.238L1538.61 382.053ZM1504.46 405.279L1503 403.914L1502.96 403.955L1502.92 403.998L1504.46 405.279ZM1507.24 430.343L1508.31 428.648L1508.22 428.597L1508.14 428.554L1507.24 430.343ZM1694.73 468.083L1694.74 466.083L1694.73 468.083ZM1770.41 470.723L1770.23 472.714L1770.32 472.723H1770.41V470.723ZM1780.16 476.293L1781.57 477.707L1782.99 476.293L1781.57 474.879L1780.16 476.293ZM1671.33 508.937L1671.41 510.935L1671.33 508.937ZM1624.81 512.635L1625.11 514.612L1625.11 514.612L1624.81 512.635ZM1593.57 520.712L1592.84 518.849L1592.77 518.877L1592.71 518.909L1593.57 520.712ZM1571.48 529.659L1572.18 531.532L1571.48 529.659ZM1516.99 579.319L1515 579.548L1515.01 579.58L1515.01 579.612L1516.99 579.319ZM1615.85 605.775L1616.53 607.657L1619.16 606.711L1617.41 604.526L1615.85 605.775ZM1625.6 567.4L1626.06 569.346L1626.55 569.229L1626.93 568.892L1625.6 567.4ZM1634.66 561.468L1633.81 559.659L1633.74 559.692L1633.67 559.732L1634.66 561.468ZM1780.84 531.802L1780.68 529.808L1780.84 531.802ZM1870.67 520.712L1871.09 522.667L1871.7 522.534L1872.13 522.074L1870.67 520.712ZM1900.44 499.769L1901.36 501.543L1900.44 499.769ZM1908.74 495.533L1907.84 493.748L1907.84 493.748L1908.74 495.533ZM1933.33 481.863L1934.44 483.527L1934.48 483.496L1934.53 483.463L1933.33 481.863ZM1941.68 447.052L1943.01 445.557L1942.96 445.508L1942.9 445.464L1941.68 447.052ZM1786.4 404.77L1786.52 402.774L1786.4 404.77ZM1718.89 398.317L1718.26 400.214L1718.41 400.265L1718.57 400.29L1718.89 398.317ZM1716.34 397.502L1715.75 399.411H1715.75L1716.34 397.502ZM1704.97 392.747L1703.75 391.164L1701.54 392.867L1703.86 394.411L1704.97 392.747ZM1729.99 379.825L1730.61 381.727L1729.99 379.825ZM1757.87 373.949L1757.72 371.955L1757.67 371.958L1757.62 371.965L1757.87 373.949ZM1791.55 371.99L1791.65 373.988L1791.55 371.99ZM1951.43 332.886L1952.57 334.532L1952.57 334.531L1951.43 332.886ZM1927.76 292.506L1927.23 294.436L1927.25 294.441L1927.27 294.446L1927.76 292.506ZM1898.42 284.042L1897.86 285.96L1898.42 284.042ZM1792.89 261C1767.54 261 1742.95 266.702 1720.53 282.502L1722.83 285.772C1744.43 270.549 1768.16 265 1792.89 265V261ZM1720.65 282.422C1719.39 283.179 1718.5 284.28 1718.29 285.723C1718.09 287.046 1718.53 288.299 1719.06 289.319C1720.11 291.329 1722.12 293.511 1723.89 295.441L1726.84 292.744C1724.94 290.658 1723.36 288.909 1722.61 287.469C1722.24 286.765 1722.23 286.413 1722.24 286.3C1722.25 286.265 1722.26 286.236 1722.29 286.188C1722.34 286.13 1722.45 286.008 1722.71 285.852L1720.65 282.422ZM1723.89 295.441C1725.76 297.496 1727.44 299.35 1728.36 300.992C1728.81 301.8 1728.98 302.375 1728.99 302.759C1729 303.051 1728.93 303.302 1728.62 303.609L1731.45 306.438C1732.53 305.357 1733.02 304.046 1732.99 302.652C1732.95 301.35 1732.46 300.115 1731.85 299.035C1730.65 296.905 1728.61 294.682 1726.84 292.744L1723.89 295.441ZM1728.53 303.707C1721.83 311.356 1713.21 315.429 1703.47 317.684C1693.69 319.951 1682.93 320.354 1672.04 320.755L1672.19 324.752C1682.99 324.354 1694.15 323.95 1704.37 321.581C1714.65 319.201 1724.13 314.808 1731.54 306.341L1728.53 303.707ZM1672.04 320.755C1663.77 321.06 1655.42 321.365 1647.58 322.54L1648.18 326.496C1655.75 325.36 1663.87 325.059 1672.19 324.752L1672.04 320.755ZM1647.25 326.415C1655.03 329.01 1664.24 329.723 1673.27 330.432L1673.58 326.445C1664.42 325.725 1655.74 325.03 1648.51 322.62L1647.25 326.415ZM1673.27 330.432C1681.41 331.073 1689.44 331.71 1696.66 333.594C1703.84 335.469 1710.03 338.536 1714.58 343.911L1717.63 341.327C1712.37 335.107 1705.32 331.721 1697.67 329.723C1690.05 327.734 1681.64 327.079 1673.58 326.445L1673.27 330.432ZM1715.08 340.904C1690.47 355.668 1662.36 356.663 1633.51 357.642L1633.64 361.639C1662.31 360.667 1691.5 359.718 1717.14 344.334L1715.08 340.904ZM1633.51 357.642C1614.48 358.287 1595.14 358.935 1576.72 363.757L1577.73 367.627C1595.65 362.936 1614.54 362.287 1633.64 361.639L1633.51 357.642ZM1576.39 363.876C1570.07 366.796 1563.6 369.417 1557.09 372.053L1558.59 375.761C1565.08 373.131 1571.65 370.474 1578.07 367.507L1576.39 363.876ZM1557.09 372.053C1550.62 374.674 1544.11 377.309 1537.77 380.238L1539.45 383.868C1545.69 380.987 1552.1 378.387 1558.59 375.761L1557.09 372.053ZM1537.77 380.238C1525.09 386.109 1512.99 393.202 1503 403.914L1505.92 406.643C1515.42 396.469 1526.99 389.638 1539.45 383.868L1537.77 380.238ZM1502.92 403.998C1499.09 408.601 1497.54 414.367 1498.12 419.598C1498.7 424.83 1501.45 429.681 1506.35 432.131L1508.14 428.554C1504.68 426.827 1502.56 423.323 1502.09 419.156C1501.63 414.989 1502.87 410.312 1505.99 406.559L1502.92 403.998ZM1506.18 432.037C1565.75 469.393 1630.37 469.717 1694.72 470.083L1694.74 466.083C1630.23 465.716 1566.77 465.311 1508.31 428.648L1506.18 432.037ZM1694.72 470.083C1720 470.226 1745.23 470.371 1770.23 472.714L1770.6 468.732C1745.4 466.369 1719.99 466.226 1694.74 466.083L1694.72 470.083ZM1770.41 472.723C1771.04 472.723 1771.87 472.943 1772.85 473.403C1773.8 473.854 1774.78 474.474 1775.68 475.126C1776.57 475.773 1777.34 476.426 1777.9 476.917C1778.17 477.162 1778.39 477.365 1778.54 477.504C1778.61 477.574 1778.66 477.627 1778.7 477.662C1778.72 477.679 1778.73 477.692 1778.74 477.7C1778.74 477.703 1778.74 477.706 1778.75 477.707C1778.75 477.708 1778.75 477.708 1778.75 477.708C1778.75 477.708 1778.75 477.708 1778.75 477.708C1778.75 477.708 1778.75 477.708 1778.75 477.708C1778.75 477.707 1778.75 477.707 1780.16 476.293C1781.57 474.879 1781.57 474.878 1781.57 474.878C1781.57 474.878 1781.57 474.878 1781.57 474.877C1781.57 474.877 1781.57 474.876 1781.57 474.876C1781.57 474.874 1781.57 474.873 1781.57 474.87C1781.56 474.866 1781.56 474.861 1781.55 474.854C1781.54 474.841 1781.52 474.822 1781.49 474.799C1781.44 474.752 1781.38 474.686 1781.29 474.603C1781.11 474.438 1780.86 474.205 1780.55 473.928C1779.93 473.375 1779.05 472.635 1778.03 471.891C1777.01 471.15 1775.81 470.378 1774.55 469.784C1773.31 469.2 1771.87 468.723 1770.41 468.723V472.723ZM1778.75 474.879C1750.2 503.424 1711.38 505.196 1671.24 506.939L1671.41 510.935C1711.23 509.206 1751.75 507.532 1781.57 477.707L1778.75 474.879ZM1671.24 506.939C1655.6 507.618 1639.78 508.303 1624.5 510.659L1625.11 514.612C1640.13 512.296 1655.73 511.616 1671.41 510.935L1671.24 506.939ZM1624.5 510.659C1613.63 512.332 1603 514.87 1592.84 518.849L1594.3 522.574C1604.12 518.728 1614.45 516.253 1625.11 514.612L1624.5 510.659ZM1592.71 518.909C1586.27 522.004 1578.7 524.829 1570.78 527.785L1572.18 531.532C1580.06 528.593 1587.8 525.703 1594.44 522.514L1592.71 518.909ZM1570.78 527.785C1557.15 532.875 1542.44 538.352 1531.57 546.162C1520.6 554.05 1513.27 564.54 1515 579.548L1518.98 579.09C1517.47 565.991 1523.68 556.768 1533.91 549.41C1544.25 541.975 1558.41 536.675 1572.18 531.532L1570.78 527.785ZM1515.01 579.612C1516.93 592.571 1524.8 601.448 1535.57 607.016C1546.28 612.55 1559.91 614.863 1573.72 614.863V610.863C1560.28 610.863 1547.35 608.601 1537.41 603.462C1527.53 598.358 1520.66 590.462 1518.97 579.027L1515.01 579.612ZM1573.72 614.863C1588.68 614.863 1604.06 612.139 1616.53 607.657L1615.18 603.893C1603.16 608.212 1588.24 610.863 1573.72 610.863V614.863ZM1617.41 604.526C1612.09 597.871 1609.59 590.076 1610.69 583.557C1611.75 577.229 1616.28 571.667 1626.06 569.346L1625.14 565.454C1614.03 568.09 1608.11 574.753 1606.74 582.893C1605.41 590.841 1608.48 599.755 1614.29 607.025L1617.41 604.526ZM1625.6 567.4C1626.93 568.892 1626.93 568.892 1626.93 568.892C1626.93 568.892 1626.93 568.893 1626.93 568.893C1626.93 568.893 1626.93 568.894 1626.93 568.894C1626.93 568.895 1626.93 568.895 1626.93 568.895C1626.93 568.896 1626.93 568.896 1626.93 568.896C1626.93 568.896 1626.93 568.893 1626.94 568.888C1626.95 568.879 1626.97 568.861 1627 568.835C1627.06 568.784 1627.16 568.7 1627.31 568.584C1627.6 568.352 1628.08 567.992 1628.76 567.511C1630.13 566.548 1632.34 565.098 1635.66 563.205L1633.67 559.732C1630.26 561.681 1627.94 563.197 1626.46 564.239C1625.72 564.76 1625.19 565.163 1624.83 565.443C1624.65 565.583 1624.52 565.692 1624.43 565.77C1624.38 565.809 1624.35 565.84 1624.32 565.863C1624.31 565.874 1624.29 565.884 1624.29 565.891C1624.28 565.895 1624.28 565.898 1624.28 565.901C1624.27 565.902 1624.27 565.904 1624.27 565.905C1624.27 565.905 1624.27 565.906 1624.27 565.906C1624.27 565.907 1624.27 565.907 1624.27 565.907C1624.27 565.908 1624.27 565.908 1625.6 567.4ZM1635.52 563.278C1681.52 541.622 1731.05 537.714 1781 533.796L1780.68 529.808C1730.86 533.717 1680.58 537.641 1633.81 559.659L1635.52 563.278ZM1781 533.796C1811.19 531.427 1841.52 529.049 1871.09 522.667L1870.25 518.757C1840.99 525.073 1810.92 527.436 1780.68 529.808L1781 533.796ZM1872.13 522.074C1880.24 513.353 1890.43 507.243 1901.36 501.543L1899.51 497.996C1888.5 503.742 1877.8 510.108 1869.2 519.349L1872.13 522.074ZM1901.36 501.543C1904.09 500.118 1906.86 498.724 1909.64 497.319L1907.84 493.748C1905.06 495.151 1902.27 496.557 1899.51 497.996L1901.36 501.543ZM1909.64 497.319C1917.97 493.12 1926.49 488.825 1934.44 483.527L1932.22 480.199C1924.5 485.341 1916.2 489.53 1907.84 493.748L1909.64 497.319ZM1934.53 483.463C1940.29 479.142 1945.82 472.934 1948.26 466.181C1949.49 462.778 1949.95 459.171 1949.19 455.595C1948.41 452 1946.42 448.591 1943.01 445.557L1940.35 448.547C1943.21 451.082 1944.7 453.765 1945.27 456.437C1945.85 459.126 1945.53 461.959 1944.5 464.822C1942.41 470.601 1937.51 476.229 1932.13 480.263L1934.53 483.463ZM1942.9 445.464C1895.96 409.511 1841.25 406.169 1786.52 402.774L1786.27 406.766C1841.19 410.173 1894.64 413.54 1940.47 448.64L1942.9 445.464ZM1786.52 402.774C1763.97 401.375 1741.41 399.974 1719.22 396.343L1718.57 400.29C1740.99 403.96 1763.75 405.37 1786.27 406.766L1786.52 402.774ZM1719.52 396.419C1718.7 396.144 1717.83 395.871 1716.94 395.594L1715.75 399.411C1716.64 399.69 1717.48 399.953 1718.26 400.214L1719.52 396.419ZM1716.94 395.594C1713.16 394.409 1709.17 393.144 1706.08 391.083L1703.86 394.411C1707.51 396.847 1712.08 398.264 1715.75 399.411L1716.94 395.594ZM1706.19 394.329C1713.64 388.577 1721.86 384.58 1730.61 381.727L1729.37 377.924C1720.27 380.891 1711.62 385.081 1703.75 391.164L1706.19 394.329ZM1730.61 381.727C1739.37 378.869 1748.62 377.136 1758.12 375.933L1757.62 371.965C1747.98 373.185 1738.46 374.96 1729.37 377.924L1730.61 381.727ZM1758.01 375.944C1769.12 375.119 1780.35 374.555 1791.65 373.988L1791.45 369.993C1780.16 370.56 1768.88 371.126 1757.72 371.955L1758.01 375.944ZM1791.65 373.988C1846.69 371.224 1903.49 368.418 1952.57 334.532L1950.29 331.24C1902.3 364.38 1846.68 367.219 1791.45 369.993L1791.65 373.988ZM1952.57 334.531C1957.58 331.063 1959.79 326.636 1959.72 321.845C1959.64 317.202 1957.42 312.528 1954.24 308.352C1947.9 300.017 1937.08 292.774 1928.24 290.565L1927.27 294.446C1935.15 296.415 1945.21 303.096 1951.06 310.774C1953.97 314.604 1955.66 318.459 1955.72 321.91C1955.77 325.212 1954.33 328.443 1950.29 331.242L1952.57 334.531ZM1928.28 290.575C1918.73 287.986 1908.95 285.081 1898.99 282.125L1897.86 285.96C1907.8 288.913 1917.63 291.831 1927.23 294.436L1928.28 290.575ZM1898.99 282.125C1864.51 271.886 1827.9 261 1792.89 261V265C1827.21 265 1863.24 275.683 1897.86 285.96L1898.99 282.125Z" fill="black" mask="url(#path-10-inside-5_824_4)"/>
<mask id="path-12-outside-6_824_4" maskUnits="userSpaceOnUse" x="65" y="31" width="87" height="108" fill="black">
<rect fill="white" x="65" y="31" width="87" height="108"/>
<path fill-rule="evenodd" clip-rule="evenodd" d="M79.4436 37.0039C80.9641 35.0472 84.0446 32 86.6708 32C87.7067 32 88.6699 32.4725 89.4393 33.675C90.7404 35.4641 91.1682 37.4277 91.6137 39.4723C91.9979 41.2355 92.3951 43.0589 93.377 44.8824C94.0213 46.171 93.9803 47.7166 93.9374 49.337C93.8996 50.7637 93.8602 52.2483 94.2857 53.6665C94.4129 53.9209 94.7037 54.0148 95.0429 54.0148C95.5033 54.0148 96.0576 53.8421 96.406 53.6665C98.1628 51.9097 99.7413 49.9491 101.311 47.9989C105.155 43.2243 108.949 38.5124 115.186 37.0069C116.646 36.6768 118.036 36.5223 119.36 36.5223C132.323 36.5223 139.014 51.3853 143.84 62.1053C143.942 62.3314 144.043 62.5556 144.143 62.7777C145.658 65.4008 146.869 67.6211 147.857 69.9595C149.835 74.6332 150.928 79.7735 150.928 85.1681C150.928 90.5628 149.835 95.703 147.857 100.377C146.866 102.715 145.658 104.935 144.276 106.907C144.216 106.913 144.158 106.916 144.098 106.916C143.546 106.916 143.053 106.641 143.053 106.368C142.51 102.693 142.136 98.9216 141.76 95.1356C140.246 79.8882 138.708 64.4003 126.09 53.9663C124.424 52.6336 122.483 51.943 120.571 51.943C119.005 51.943 117.458 52.4064 116.094 53.3605C96.1031 67.5969 103.373 94.555 109.734 113.941C110.339 116.061 110.642 118.787 108.825 120.604C107.619 121.81 106.214 122.331 104.781 122.331C103.697 122.331 102.597 122.034 101.555 121.513C92.5796 115.76 89.8991 105.809 87.2692 96.0465C86.4378 92.9602 85.6114 89.8927 84.5929 86.9825C84.4599 86.5835 84.3415 86.1699 84.2216 85.7513C83.7957 84.2633 83.3517 82.7123 82.1697 81.5303C79.7465 98.7956 89.4393 119.09 103.373 130.6C105.52 132.478 108.204 133.347 110.924 133.347C114.344 133.347 117.827 131.975 120.384 129.516C122.252 128.038 123.788 126.341 124.976 124.603C136.086 107.883 140.327 79.7129 123.061 65.4766C122.416 64.9586 121.686 64.7314 120.941 64.7314C118.185 64.7314 115.186 67.8301 115.186 70.9288C115.646 70.8924 116.101 70.8742 116.549 70.8742C119.947 70.8742 122.97 71.9586 124.576 75.1694C127.302 80.9245 128.211 87.5883 126.09 93.6463C124.8 97.2962 121.074 100.795 117.506 100.795C116.043 100.795 114.604 100.207 113.368 98.7956C104.584 89.7086 105.796 75.1694 111.551 64.5679C113.408 61.3177 116.513 58.6007 120.041 58.6007C121.117 58.6007 122.231 58.8521 123.364 59.4185C129.422 62.7505 132.148 69.4143 133.663 75.7752C138.812 96.9782 138.206 123.936 118.215 135.447C115.11 137.219 111.875 138 108.622 138C96.3212 138 83.7902 126.841 77.3233 116.061C62.4811 91.8289 61.2695 59.7214 79.4436 37.0039Z"/>
</mask>
<path fill-rule="evenodd" clip-rule="evenodd" d="M79.4436 37.0039C80.9641 35.0472 84.0446 32 86.6708 32C87.7067 32 88.6699 32.4725 89.4393 33.675C90.7404 35.4641 91.1682 37.4277 91.6137 39.4723C91.9979 41.2355 92.3951 43.0589 93.377 44.8824C94.0213 46.171 93.9803 47.7166 93.9374 49.337C93.8996 50.7637 93.8602 52.2483 94.2857 53.6665C94.4129 53.9209 94.7037 54.0148 95.0429 54.0148C95.5033 54.0148 96.0576 53.8421 96.406 53.6665C98.1628 51.9097 99.7413 49.9491 101.311 47.9989C105.155 43.2243 108.949 38.5124 115.186 37.0069C116.646 36.6768 118.036 36.5223 119.36 36.5223C132.323 36.5223 139.014 51.3853 143.84 62.1053C143.942 62.3314 144.043 62.5556 144.143 62.7777C145.658 65.4008 146.869 67.6211 147.857 69.9595C149.835 74.6332 150.928 79.7735 150.928 85.1681C150.928 90.5628 149.835 95.703 147.857 100.377C146.866 102.715 145.658 104.935 144.276 106.907C144.216 106.913 144.158 106.916 144.098 106.916C143.546 106.916 143.053 106.641 143.053 106.368C142.51 102.693 142.136 98.9216 141.76 95.1356C140.246 79.8882 138.708 64.4003 126.09 53.9663C124.424 52.6336 122.483 51.943 120.571 51.943C119.005 51.943 117.458 52.4064 116.094 53.3605C96.1031 67.5969 103.373 94.555 109.734 113.941C110.339 116.061 110.642 118.787 108.825 120.604C107.619 121.81 106.214 122.331 104.781 122.331C103.697 122.331 102.597 122.034 101.555 121.513C92.5796 115.76 89.8991 105.809 87.2692 96.0465C86.4378 92.9602 85.6114 89.8927 84.5929 86.9825C84.4599 86.5835 84.3415 86.1699 84.2216 85.7513C83.7957 84.2633 83.3517 82.7123 82.1697 81.5303C79.7465 98.7956 89.4393 119.09 103.373 130.6C105.52 132.478 108.204 133.347 110.924 133.347C114.344 133.347 117.827 131.975 120.384 129.516C122.252 128.038 123.788 126.341 124.976 124.603C136.086 107.883 140.327 79.7129 123.061 65.4766C122.416 64.9586 121.686 64.7314 120.941 64.7314C118.185 64.7314 115.186 67.8301 115.186 70.9288C115.646 70.8924 116.101 70.8742 116.549 70.8742C119.947 70.8742 122.97 71.9586 124.576 75.1694C127.302 80.9245 128.211 87.5883 126.09 93.6463C124.8 97.2962 121.074 100.795 117.506 100.795C116.043 100.795 114.604 100.207 113.368 98.7956C104.584 89.7086 105.796 75.1694 111.551 64.5679C113.408 61.3177 116.513 58.6007 120.041 58.6007C121.117 58.6007 122.231 58.8521 123.364 59.4185C129.422 62.7505 132.148 69.4143 133.663 75.7752C138.812 96.9782 138.206 123.936 118.215 135.447C115.11 137.219 111.875 138 108.622 138C96.3212 138 83.7902 126.841 77.3233 116.061C62.4811 91.8289 61.2695 59.7214 79.4436 37.0039Z" fill="#FFF4CE"/>
<path d="M79.4436 37.0039L80.2245 37.6287L80.2332 37.6175L79.4436 37.0039ZM89.4393 33.675L88.5969 34.214L88.613 34.2391L88.6305 34.2632L89.4393 33.675ZM91.6137 39.4723L92.5908 39.2594L92.5908 39.2594L91.6137 39.4723ZM93.377 44.8824L94.2714 44.4351L94.2646 44.4216L94.2574 44.4083L93.377 44.8824ZM93.9374 49.337L92.9377 49.3105L92.9377 49.3105L93.9374 49.337ZM94.2857 53.6665L93.3278 53.9538L93.3526 54.0365L93.3912 54.1137L94.2857 53.6665ZM96.406 53.6665L96.8563 54.5593L96.9996 54.4871L97.1131 54.3736L96.406 53.6665ZM101.311 47.9989L102.09 48.626L102.09 48.626L101.311 47.9989ZM115.186 37.0069L114.965 36.0316L114.958 36.0332L114.951 36.0349L115.186 37.0069ZM143.84 62.1053L142.928 62.5158L142.928 62.5159L143.84 62.1053ZM144.143 62.7777L143.231 63.1886L143.252 63.2343L143.277 63.2777L144.143 62.7777ZM147.857 69.9595L146.935 70.3485L146.936 70.3492L147.857 69.9595ZM147.857 100.377L148.777 100.767L148.778 100.766L147.857 100.377ZM144.276 106.907L144.376 107.902L144.832 107.857L145.095 107.481L144.276 106.907ZM143.053 106.368H144.053V106.295L144.042 106.222L143.053 106.368ZM141.76 95.1356L140.765 95.2344L140.765 95.2344L141.76 95.1356ZM126.09 53.9663L126.727 53.1957L126.721 53.1905L126.715 53.1855L126.09 53.9663ZM116.094 53.3605L115.521 52.5413L115.514 52.546L116.094 53.3605ZM109.734 113.941L110.695 113.666L110.69 113.647L110.684 113.629L109.734 113.941ZM108.825 120.604L109.532 121.312L109.532 121.312L108.825 120.604ZM101.555 121.513L101.016 122.355L101.06 122.384L101.108 122.408L101.555 121.513ZM87.2692 96.0465L86.3036 96.3066L86.3036 96.3066L87.2692 96.0465ZM84.5929 86.9825L83.6442 87.2987L83.6465 87.3058L83.649 87.3128L84.5929 86.9825ZM84.2216 85.7513L83.2603 86.0265L83.2603 86.0265L84.2216 85.7513ZM82.1697 81.5303L82.8768 80.8232L81.4582 79.4046L81.1794 81.3913L82.1697 81.5303ZM103.373 130.6L104.031 129.847L104.02 129.838L104.01 129.829L103.373 130.6ZM120.384 129.516L119.763 128.731L119.725 128.762L119.69 128.795L120.384 129.516ZM124.976 124.603L125.801 125.167L125.808 125.156L124.976 124.603ZM123.061 65.4766L123.697 64.705L123.687 64.6968L123.061 65.4766ZM115.186 70.9288H114.186V72.0108L115.264 71.9257L115.186 70.9288ZM124.576 75.1694L125.479 74.7413L125.475 74.7317L125.47 74.7222L124.576 75.1694ZM126.09 93.6463L127.033 93.9796L127.034 93.9766L126.09 93.6463ZM113.368 98.7956L114.121 98.1369L114.105 98.1183L114.087 98.1006L113.368 98.7956ZM111.551 64.5679L110.683 64.0718L110.677 64.0812L110.672 64.0908L111.551 64.5679ZM123.364 59.4185L123.846 58.5423L123.829 58.5329L123.811 58.5241L123.364 59.4185ZM133.663 75.7752L132.69 76.0068L132.691 76.0112L133.663 75.7752ZM118.215 135.447L118.71 136.315L118.714 136.313L118.215 135.447ZM77.3233 116.061L78.1808 115.546L78.176 115.539L77.3233 116.061ZM86.6708 31C85.0116 31 83.3603 31.9387 82.027 32.9801C80.6593 34.0484 79.4523 35.3629 78.6539 36.3903L80.2332 37.6175C80.9553 36.6882 82.0489 35.5007 83.2581 34.5563C84.5017 33.5849 85.7038 33 86.6708 33V31ZM90.2816 33.1361C89.3463 31.6742 88.0796 31 86.6708 31V33C87.3338 33 87.9935 33.2708 88.5969 34.214L90.2816 33.1361ZM92.5908 39.2594C92.1509 37.2404 91.6908 35.0707 90.248 33.0869L88.6305 34.2632C89.79 35.8574 90.1856 37.6151 90.6366 39.6852L92.5908 39.2594ZM94.2574 44.4083C93.3514 42.7255 92.9776 41.0348 92.5908 39.2594L90.6366 39.6852C91.0181 41.4363 91.4389 43.3924 92.4965 45.3565L94.2574 44.4083ZM94.937 49.3635C94.9783 47.808 95.0487 45.9898 94.2714 44.4351L92.4825 45.3296C92.9938 46.3522 92.9824 47.6252 92.9377 49.3105L94.937 49.3635ZM95.2435 53.3791C94.8717 52.1398 94.8985 50.8176 94.937 49.3635L92.9377 49.3105C92.9006 50.7098 92.8487 52.3567 93.3278 53.9538L95.2435 53.3791ZM95.0429 53.0148C95.0031 53.0148 94.9771 53.012 94.9632 53.0097C94.949 53.0073 94.9545 53.0067 94.9736 53.0147C94.9936 53.0232 95.0305 53.0421 95.0721 53.0789C95.1154 53.1171 95.1532 53.1655 95.1801 53.2193L93.3912 54.1137C93.7821 54.8954 94.5959 55.0148 95.0429 55.0148V53.0148ZM95.9557 52.7736C95.7055 52.8997 95.3063 53.0148 95.0429 53.0148V55.0148C95.7004 55.0148 96.4097 54.7846 96.8563 54.5593L95.9557 52.7736ZM100.532 47.3718C98.9564 49.3293 97.4112 51.2471 95.6989 52.9594L97.1131 54.3736C98.9144 52.5722 100.526 50.5688 102.09 48.626L100.532 47.3718ZM114.951 36.0349C108.332 37.6326 104.339 42.644 100.532 47.3718L102.09 48.626C105.972 43.8047 109.566 39.3921 115.42 37.979L114.951 36.0349ZM119.36 35.5223C117.958 35.5223 116.493 35.686 114.965 36.0316L115.406 37.9823C116.798 37.6676 118.114 37.5223 119.36 37.5223V35.5223ZM144.752 61.6948C142.349 56.3565 139.424 49.8485 135.444 44.6834C131.454 39.5065 126.281 35.5223 119.36 35.5223V37.5223C125.402 37.5223 130.056 40.9697 133.859 45.9043C137.672 50.8507 140.506 57.1342 142.928 62.5158L144.752 61.6948ZM145.055 62.3668C144.955 62.1449 144.854 61.9209 144.752 61.6948L142.928 62.5159C143.03 62.7418 143.131 62.9662 143.231 63.1886L145.055 62.3668ZM148.778 69.5705C147.765 67.1725 146.528 64.9083 145.009 62.2777L143.277 63.2777C144.787 65.8933 145.973 68.0696 146.935 70.3485L148.778 69.5705ZM151.928 85.1681C151.928 79.6372 150.807 74.3647 148.778 69.5697L146.936 70.3492C148.862 74.9018 149.928 79.9097 149.928 85.1681H151.928ZM148.778 100.766C150.807 95.9716 151.928 90.699 151.928 85.1681H149.928C149.928 90.4266 148.862 95.4344 146.936 99.987L148.778 100.766ZM145.095 107.481C146.521 105.446 147.762 103.163 148.777 100.767L146.936 99.9867C145.97 102.267 144.794 104.425 143.457 106.334L145.095 107.481ZM144.098 107.916C144.193 107.916 144.284 107.911 144.376 107.902L144.177 105.912C144.147 105.915 144.123 105.916 144.098 105.916V107.916ZM142.053 106.368C142.053 106.747 142.223 107.038 142.379 107.219C142.535 107.402 142.724 107.534 142.896 107.626C143.243 107.811 143.668 107.916 144.098 107.916V105.916C143.977 105.916 143.879 105.883 143.84 105.863C143.821 105.852 143.851 105.864 143.898 105.919C143.944 105.972 144.053 106.125 144.053 106.368H142.053ZM140.765 95.2344C141.14 99.0161 141.517 102.811 142.063 106.514L144.042 106.222C143.504 102.574 143.131 98.8271 142.755 95.0368L140.765 95.2344ZM125.453 54.737C137.704 64.8674 139.243 79.9062 140.765 95.2344L142.755 95.0368C141.249 79.8701 139.712 63.9332 126.727 53.1957L125.453 54.737ZM120.571 52.943C122.24 52.943 123.964 53.546 125.466 54.7472L126.715 53.1855C124.885 51.7212 122.726 50.943 120.571 50.943V52.943ZM116.668 54.1798C117.86 53.3455 119.207 52.943 120.571 52.943V50.943C118.804 50.943 117.055 51.4673 115.521 52.5413L116.668 54.1798ZM110.684 113.629C107.503 103.936 104.144 92.4814 104.032 81.7092C103.92 70.9766 107.028 61.0443 116.675 54.1751L115.514 52.546C105.169 59.9131 101.916 70.578 102.032 81.73C102.147 92.8424 105.603 104.56 108.783 114.252L110.684 113.629ZM109.532 121.312C111.779 119.065 111.308 115.811 110.695 113.666L108.772 114.215C109.371 116.311 109.506 118.509 108.118 119.897L109.532 121.312ZM104.781 123.331C106.477 123.331 108.137 122.706 109.532 121.312L108.118 119.897C107.101 120.914 105.951 121.331 104.781 121.331V123.331ZM101.108 122.408C102.263 122.985 103.515 123.331 104.781 123.331V121.331C103.879 121.331 102.932 121.083 102.002 120.619L101.108 122.408ZM86.3036 96.3066C88.9133 105.994 91.6622 116.359 101.016 122.355L102.095 120.671C93.497 115.16 90.8849 105.624 88.2348 95.7863L86.3036 96.3066ZM83.649 87.3128C84.6533 90.1823 85.4704 93.2135 86.3036 96.3066L88.2348 95.7863C87.4052 92.7069 86.5696 89.6031 85.5367 86.6521L83.649 87.3128ZM83.2603 86.0265C83.379 86.4412 83.5032 86.8758 83.6442 87.2987L85.5415 86.6663C85.4165 86.2912 85.3039 85.8985 85.183 85.4761L83.2603 86.0265ZM81.4626 82.2374C82.433 83.2078 82.8229 84.4987 83.2603 86.0265L85.183 85.4761C84.7684 84.0278 84.2704 82.2168 82.8768 80.8232L81.4626 82.2374ZM104.01 129.829C90.2844 118.491 80.7949 98.5202 83.16 81.6693L81.1794 81.3913C78.698 99.071 88.5942 119.689 102.736 131.371L104.01 129.829ZM110.924 132.347C108.417 132.347 105.976 131.548 104.031 129.847L102.714 131.353C105.065 133.408 107.99 134.347 110.924 134.347V132.347ZM119.69 128.795C117.321 131.075 114.086 132.347 110.924 132.347V134.347C114.601 134.347 118.333 132.876 121.077 130.236L119.69 128.795ZM124.15 124.039C123.017 125.697 121.55 127.318 119.763 128.731L121.004 130.3C122.955 128.757 124.559 126.986 125.801 125.167L124.15 124.039ZM122.425 66.2481C130.75 73.1128 133.945 83.3741 133.66 94.0816C133.374 104.796 129.599 115.838 124.143 124.049L125.808 125.156C131.462 116.648 135.363 105.244 135.659 94.1349C135.955 83.0184 132.637 72.0766 123.697 64.705L122.425 66.2481ZM120.941 65.7314C121.472 65.7314 121.978 65.8892 122.435 66.2564L123.687 64.6968C122.854 64.028 121.9 63.7314 120.941 63.7314V65.7314ZM116.186 70.9288C116.186 69.6915 116.795 68.3765 117.758 67.3536C118.728 66.3229 119.921 65.7314 120.941 65.7314V63.7314C119.204 63.7314 117.519 64.6893 116.302 65.9825C115.076 67.2837 114.186 69.0673 114.186 70.9288H116.186ZM116.549 69.8742C116.074 69.8742 115.593 69.8935 115.107 69.9319L115.264 71.9257C115.7 71.8913 116.128 71.8742 116.549 71.8742V69.8742ZM125.47 74.7222C123.631 71.0434 120.156 69.8742 116.549 69.8742V71.8742C119.739 71.8742 122.31 72.8738 123.681 75.6166L125.47 74.7222ZM127.034 93.9766C129.261 87.6147 128.29 80.6748 125.479 74.7413L123.672 75.5975C126.314 81.1741 127.16 87.5619 125.146 93.3159L127.034 93.9766ZM117.506 101.795C119.608 101.795 121.655 100.774 123.306 99.3456C124.966 97.9104 126.325 95.9811 127.033 93.9796L125.147 93.313C124.565 94.9615 123.416 96.6064 121.998 97.8329C120.572 99.0665 118.972 99.7947 117.506 99.7947V101.795ZM112.616 99.4543C114.033 101.073 115.742 101.795 117.506 101.795V99.7947C116.344 99.7947 115.175 99.341 114.121 98.1369L112.616 99.4543ZM110.672 64.0908C104.814 74.8825 103.433 89.9559 112.649 99.4906L114.087 98.1006C105.736 89.4612 106.778 75.4562 112.43 65.0449L110.672 64.0908ZM120.041 57.6007C115.992 57.6007 112.619 60.682 110.683 64.0718L112.419 65.0639C114.196 61.9535 117.033 59.6007 120.041 59.6007V57.6007ZM123.811 58.5241C122.545 57.8911 121.278 57.6007 120.041 57.6007V59.6007C120.955 59.6007 121.917 59.8131 122.917 60.313L123.811 58.5241ZM134.636 75.5436C133.108 69.13 130.298 62.0908 123.846 58.5423L122.882 60.2948C128.546 63.4101 131.188 69.6985 132.69 76.0068L134.636 75.5436ZM118.714 136.313C129.034 130.371 134.306 120.454 136.35 109.428C138.39 98.4177 137.23 86.2279 134.634 75.5392L132.691 76.0112C135.244 86.5255 136.356 98.4163 134.383 109.063C132.413 119.695 127.387 129.011 117.716 134.58L118.714 136.313ZM108.622 139C112.042 139 115.449 138.177 118.71 136.315L117.719 134.578C114.771 136.26 111.708 137 108.622 137V139ZM76.4657 116.575C79.7611 122.069 84.595 127.652 90.1823 131.871C95.7604 136.083 102.177 139 108.622 139V137C102.767 137 96.7668 134.337 91.3875 130.275C86.0173 126.22 81.3523 120.833 78.1808 115.547L76.4657 116.575ZM78.6627 36.3792C60.1722 59.4923 61.4564 92.0704 76.4705 116.583L78.176 115.539C63.5059 91.5874 62.3668 59.9506 80.2244 37.6286L78.6627 36.3792Z" fill="black" mask="url(#path-12-outside-6_824_4)"/>
<mask id="path-14-inside-7_824_4" fill="white">
<path fill-rule="evenodd" clip-rule="evenodd" d="M910.626 471.523C915.015 464.032 923.15 459 932.46 459C941.77 459 949.904 464.03 954.291 471.521C955.389 473.394 956.252 475.421 956.23 477.32C949.269 476.405 942.097 475.561 934.959 475.561C924.258 475.561 913.628 477.46 903.886 483.874C900.391 486.341 897.719 490.658 899.158 494.769C900.802 500.114 906.147 503.197 911.286 504.842C916.45 506.381 921.813 507.362 927.129 507.362C933.878 507.362 940.551 505.783 946.644 501.758C948.7 500.319 950.55 497.852 949.727 495.18C948.083 488.807 941.094 487.574 935.543 486.957C933.87 486.809 931.783 486.674 929.594 486.674C922.634 486.674 914.616 488.045 915.398 494.769C916.048 499.324 921.719 499.759 926.808 500.15C928.15 500.253 929.451 500.353 930.61 500.525C928.428 501.294 926.124 501.664 923.816 501.664C918.726 501.664 913.601 499.871 909.642 496.619C906.969 494.152 907.175 489.835 910.053 487.574C917.628 482.163 927.222 479.283 936.662 479.283C948.743 479.283 960.573 483.997 967.612 494.152C969.668 497.03 969.051 500.936 966.79 503.814C960.818 511.712 951.053 516 941.39 516C940.742 516 940.095 515.981 939.449 515.942C940.224 515.245 941.175 514.752 942.113 514.265C943.664 513.461 945.181 512.674 945.822 511.009C942.993 511.074 940.165 511.287 937.337 511.5C933.939 511.756 930.54 512.012 927.14 512.012C924.525 512.012 921.91 511.862 919.293 511.443C916.894 511.171 914.349 510.764 911.812 510.252C902.652 507.925 889.496 502.58 891.14 491.069C892.36 483.75 899.046 479.976 905.213 476.495C906.322 475.869 907.413 475.253 908.453 474.627C909.436 473.595 909.934 472.727 910.406 471.904C910.48 471.776 910.552 471.649 910.626 471.523Z"/>
</mask>
<path fill-rule="evenodd" clip-rule="evenodd" d="M910.626 471.523C915.015 464.032 923.15 459 932.46 459C941.77 459 949.904 464.03 954.291 471.521C955.389 473.394 956.252 475.421 956.23 477.32C949.269 476.405 942.097 475.561 934.959 475.561C924.258 475.561 913.628 477.46 903.886 483.874C900.391 486.341 897.719 490.658 899.158 494.769C900.802 500.114 906.147 503.197 911.286 504.842C916.45 506.381 921.813 507.362 927.129 507.362C933.878 507.362 940.551 505.783 946.644 501.758C948.7 500.319 950.55 497.852 949.727 495.18C948.083 488.807 941.094 487.574 935.543 486.957C933.87 486.809 931.783 486.674 929.594 486.674C922.634 486.674 914.616 488.045 915.398 494.769C916.048 499.324 921.719 499.759 926.808 500.15C928.15 500.253 929.451 500.353 930.61 500.525C928.428 501.294 926.124 501.664 923.816 501.664C918.726 501.664 913.601 499.871 909.642 496.619C906.969 494.152 907.175 489.835 910.053 487.574C917.628 482.163 927.222 479.283 936.662 479.283C948.743 479.283 960.573 483.997 967.612 494.152C969.668 497.03 969.051 500.936 966.79 503.814C960.818 511.712 951.053 516 941.39 516C940.742 516 940.095 515.981 939.449 515.942C940.224 515.245 941.175 514.752 942.113 514.265C943.664 513.461 945.181 512.674 945.822 511.009C942.993 511.074 940.165 511.287 937.337 511.5C933.939 511.756 930.54 512.012 927.14 512.012C924.525 512.012 921.91 511.862 919.293 511.443C916.894 511.171 914.349 510.764 911.812 510.252C902.652 507.925 889.496 502.58 891.14 491.069C892.36 483.75 899.046 479.976 905.213 476.495C906.322 475.869 907.413 475.253 908.453 474.627C909.436 473.595 909.934 472.727 910.406 471.904C910.48 471.776 910.552 471.649 910.626 471.523Z" fill="#FFF4CE"/>
<path d="M910.626 471.523L909.763 471.018L909.763 471.018L910.626 471.523ZM954.291 471.521L953.428 472.027L953.428 472.027L954.291 471.521ZM956.23 477.32L956.099 478.312L957.216 478.459L957.229 477.332L956.23 477.32ZM903.886 483.874L903.336 483.039L903.322 483.047L903.309 483.057L903.886 483.874ZM899.158 494.769L900.113 494.475L900.108 494.457L900.101 494.439L899.158 494.769ZM911.286 504.842L910.981 505.794L910.991 505.797L911 505.8L911.286 504.842ZM946.644 501.758L947.195 502.593L947.206 502.585L947.217 502.577L946.644 501.758ZM949.727 495.18L948.759 495.43L948.765 495.452L948.772 495.474L949.727 495.18ZM935.543 486.957L935.654 485.963L935.643 485.962L935.631 485.961L935.543 486.957ZM915.398 494.769L914.404 494.884L914.406 494.897L914.408 494.91L915.398 494.769ZM926.808 500.15L926.884 499.153L926.884 499.153L926.808 500.15ZM930.61 500.525L930.942 501.468L930.756 499.536L930.61 500.525ZM909.642 496.619L908.963 497.354L908.985 497.373L909.007 497.392L909.642 496.619ZM910.053 487.574L909.472 486.76L909.453 486.774L909.435 486.788L910.053 487.574ZM967.612 494.152L966.79 494.722L966.794 494.728L966.798 494.733L967.612 494.152ZM966.79 503.814L966.003 503.196L965.998 503.203L965.992 503.211L966.79 503.814ZM939.449 515.942L938.78 515.199L937.005 516.796L939.389 516.941L939.449 515.942ZM942.113 514.265L941.653 513.377L941.653 513.377L942.113 514.265ZM945.822 511.009L946.755 511.368L947.291 509.975L945.799 510.009L945.822 511.009ZM937.337 511.5L937.262 510.503L937.262 510.503L937.337 511.5ZM919.293 511.443L919.451 510.455L919.428 510.451L919.405 510.449L919.293 511.443ZM911.812 510.252L911.566 511.222L911.59 511.228L911.615 511.233L911.812 510.252ZM891.14 491.069L890.154 490.904L890.152 490.916L890.151 490.927L891.14 491.069ZM905.213 476.495L904.722 475.624L904.722 475.624L905.213 476.495ZM908.453 474.627L908.969 475.484L909.085 475.415L909.178 475.317L908.453 474.627ZM910.406 471.904L909.539 471.406L909.539 471.406L910.406 471.904ZM932.46 458C922.78 458 914.324 463.233 909.763 471.018L911.489 472.029C915.706 464.831 923.519 460 932.46 460V458ZM955.154 471.016C950.595 463.231 942.139 458 932.46 458V460C941.401 460 949.213 464.829 953.428 472.027L955.154 471.016ZM957.229 477.332C957.255 475.152 956.275 472.929 955.154 471.015L953.428 472.027C954.502 473.859 955.249 475.69 955.23 477.308L957.229 477.332ZM934.959 476.561C942.025 476.561 949.141 477.397 956.099 478.312L956.36 476.329C949.397 475.414 942.168 474.561 934.959 474.561V476.561ZM904.436 484.709C913.96 478.438 924.376 476.561 934.959 476.561V474.561C924.139 474.561 913.295 476.482 903.336 483.039L904.436 484.709ZM900.101 494.439C898.881 490.952 901.12 487.05 904.462 484.691L903.309 483.057C899.662 485.631 896.556 490.363 898.214 495.099L900.101 494.439ZM911.591 503.889C906.526 502.269 901.606 499.327 900.113 494.475L898.202 495.063C899.998 500.9 905.767 504.126 910.981 505.794L911.591 503.889ZM927.129 506.362C921.934 506.362 916.669 505.403 911.572 503.883L911 505.8C916.231 507.36 921.693 508.362 927.129 508.362V506.362ZM946.093 500.924C940.19 504.823 933.717 506.362 927.129 506.362V508.362C934.039 508.362 940.912 506.743 947.195 502.593L946.093 500.924ZM948.772 495.474C949.394 497.498 948.024 499.572 946.07 500.939L947.217 502.577C949.376 501.067 951.705 498.207 950.683 494.886L948.772 495.474ZM935.433 487.951C938.204 488.259 941.201 488.711 943.692 489.823C946.146 490.919 948.034 492.619 948.759 495.43L950.696 494.93C949.777 491.369 947.347 489.265 944.508 487.997C941.706 486.746 938.433 486.272 935.654 485.963L935.433 487.951ZM929.594 487.674C931.744 487.674 933.799 487.807 935.455 487.953L935.631 485.961C933.94 485.812 931.823 485.674 929.594 485.674V487.674ZM916.391 494.653C916.221 493.188 916.532 492.092 917.127 491.24C917.737 490.368 918.705 489.665 919.985 489.12C922.568 488.019 926.144 487.674 929.594 487.674V485.674C926.084 485.674 922.171 486.014 919.201 487.28C917.704 487.918 916.379 488.819 915.488 490.094C914.582 491.391 914.184 492.988 914.404 494.884L916.391 494.653ZM926.884 499.153C924.303 498.955 921.752 498.752 919.761 498.074C917.815 497.412 916.639 496.385 916.387 494.627L914.408 494.91C914.807 497.708 916.791 499.176 919.116 499.968C921.395 500.744 924.224 500.955 926.731 501.147L926.884 499.153ZM930.756 499.536C929.556 499.358 928.217 499.255 926.884 499.153L926.731 501.147C928.082 501.251 929.346 501.349 930.463 501.514L930.756 499.536ZM923.816 502.664C926.23 502.664 928.648 502.277 930.942 501.468L930.277 499.582C928.209 500.311 926.018 500.664 923.816 500.664V502.664ZM909.007 497.392C913.149 500.794 918.499 502.664 923.816 502.664V500.664C918.952 500.664 914.053 498.948 910.276 495.846L909.007 497.392ZM909.435 486.788C906.083 489.421 905.829 494.461 908.963 497.354L910.32 495.884C908.109 493.844 908.266 490.249 910.671 488.36L909.435 486.788ZM936.662 478.283C927.029 478.283 917.228 481.22 909.472 486.76L910.634 488.388C918.027 483.107 927.415 480.283 936.662 480.283V478.283ZM968.434 493.583C961.165 483.096 948.987 478.283 936.662 478.283V480.283C948.499 480.283 959.981 484.899 966.79 494.722L968.434 493.583ZM967.576 504.432C970.022 501.319 970.815 496.916 968.426 493.571L966.798 494.733C968.52 497.144 968.08 500.553 966.003 503.196L967.576 504.432ZM941.39 517C951.331 517 961.406 512.592 967.587 504.417L965.992 503.211C960.23 510.831 950.776 515 941.39 515V517ZM939.389 516.941C940.055 516.981 940.723 517 941.39 517V515C940.761 515 940.134 514.982 939.509 514.944L939.389 516.941ZM941.653 513.377C940.736 513.853 939.667 514.401 938.78 515.199L940.118 516.686C940.782 516.088 941.613 515.651 942.574 515.153L941.653 513.377ZM944.888 510.65C944.406 511.903 943.272 512.538 941.653 513.377L942.574 515.153C944.056 514.384 945.956 513.444 946.755 511.368L944.888 510.65ZM937.412 512.497C940.245 512.284 943.047 512.073 945.845 512.009L945.799 510.009C942.94 510.075 940.086 510.29 937.262 510.503L937.412 512.497ZM927.14 513.012C930.584 513.012 934.02 512.753 937.412 512.497L937.262 510.503C933.857 510.759 930.496 511.012 927.14 511.012V513.012ZM919.135 512.43C921.817 512.86 924.487 513.012 927.14 513.012V511.012C924.562 511.012 922.003 510.864 919.451 510.455L919.135 512.43ZM911.615 511.233C914.177 511.75 916.75 512.161 919.181 512.436L919.405 510.449C917.038 510.181 914.521 509.779 912.01 509.272L911.615 511.233ZM890.151 490.927C889.258 497.175 892.427 501.716 896.838 504.914C901.22 508.092 906.945 510.047 911.566 511.222L912.059 509.283C907.52 508.13 902.087 506.25 898.012 503.295C893.965 500.361 891.378 496.474 892.13 491.21L890.151 490.927ZM904.722 475.624C901.657 477.354 898.347 479.218 895.659 481.593C892.95 483.988 890.813 486.953 890.154 490.904L892.127 491.233C892.688 487.866 894.503 485.284 896.984 483.092C899.485 480.881 902.602 479.117 905.705 477.365L904.722 475.624ZM907.938 473.77C906.912 474.388 905.833 474.997 904.722 475.624L905.705 477.365C906.811 476.741 907.915 476.118 908.969 475.484L907.938 473.77ZM909.539 471.406C909.074 472.217 908.624 472.998 907.729 473.938L909.178 475.317C910.247 474.193 910.795 473.236 911.274 472.402L909.539 471.406ZM909.763 471.018C909.687 471.148 909.612 471.279 909.539 471.406L911.274 472.402C911.347 472.273 911.418 472.15 911.489 472.029L909.763 471.018Z" fill="black" mask="url(#path-14-inside-7_824_4)"/>
</g>
</svg>
