<svg width="42" height="29" viewBox="0 0 42 29" fill="none" xmlns="http://www.w3.org/2000/svg">
<path fill-rule="evenodd" clip-rule="evenodd" d="M12.604 0.0979668C11.605 0.45294 10.9927 1.30372 10.9892 2.34145C10.9857 3.36383 11.4664 4.14716 12.365 4.58363L12.8339 4.8114H21H29.1661L29.635 4.58363C30.1962 4.31113 30.7053 3.76727 30.8834 3.25011C30.9545 3.04376 31.0127 2.63156 31.0127 2.33414C31.0127 1.41038 30.5284 0.66107 29.6175 0.175326C29.3421 0.0284823 28.9917 0.0214198 21.1231 0.00461679C14.3591 -0.00983214 12.8611 0.00656508 12.604 0.0979668ZM18.5379 8.70775V10.1283H21H23.4622V8.70775V7.2872H21H18.5379V8.70775ZM15.6654 13.6097V14.656L15.0503 14.9449C14.3004 15.2971 13.3891 15.8706 12.8209 16.3477L12.3974 16.7034H9.88685H7.37621V21.3709V26.0383H9.88685H12.3974L12.8219 26.3971C13.9008 27.3087 15.7167 28.2034 17.2673 28.5874C18.7635 28.9579 19.1601 29.0013 21.0411 29C22.5874 28.9989 22.9792 28.9723 23.7703 28.8147C25.92 28.3867 27.8175 27.5375 29.1791 26.394L29.6026 26.0383H32.1132H34.6238V21.3709V16.7034H32.1132H29.6026L29.1791 16.3506C28.5451 15.8224 27.8038 15.351 27.0286 14.9831L26.3346 14.6538V13.6086V12.5635H21H15.6654V13.6097ZM0.562507 15.0162C-0.0412084 15.4152 -0.014207 15.1004 0.00959359 21.4664C0.0306859 27.1142 0.0323273 27.1649 0.20361 27.3921C0.562343 27.868 0.815286 27.9429 2.17241 27.9744C3.98742 28.0167 4.47139 27.8753 4.822 27.2004C4.88749 27.0744 4.91408 25.3902 4.91408 21.3722C4.91408 15.2503 4.93288 15.5135 4.46409 15.0799C4.24668 14.8788 4.22887 14.8767 2.54633 14.8523C0.88521 14.8281 0.841713 14.8317 0.562507 15.0162ZM37.6802 14.9983C37.5331 15.087 37.3394 15.2786 37.2497 15.4241C37.091 15.6815 37.0865 15.8441 37.0863 21.3791L37.086 27.0696L37.2709 27.341C37.6467 27.8925 37.8478 27.9459 39.5481 27.9459C41.2196 27.9459 41.4153 27.8977 41.7964 27.3921C41.9677 27.1649 41.9694 27.1142 41.9904 21.4664C42.0142 15.1076 42.0403 15.4145 41.4441 15.0206C41.1779 14.8446 41.0927 14.8364 39.5565 14.8367C38.0959 14.8369 37.9231 14.8519 37.6802 14.9983Z" fill="url(#paint0_linear_0_1085)"/>
<defs>
<linearGradient id="paint0_linear_0_1085" x1="9.82979" y1="22.8298" x2="38.5529" y2="-10.6302" gradientUnits="userSpaceOnUse">
<stop stop-color="#63AFCD"/>
<stop offset="1" stop-color="#FF374F"/>
</linearGradient>
</defs>
</svg>
