<svg width="17" height="34" viewBox="0 0 17 34" fill="none" xmlns="http://www.w3.org/2000/svg">
<path fill-rule="evenodd" clip-rule="evenodd" d="M0.463617 0.112797C-0.0270407 0.325797 0.000274161 -0.0116706 0.000274161 5.83793V11.1278L1.97322 14.081L3.94624 17.0342H8.49998H13.0537L15.0267 14.081L16.9997 11.1278V5.83793C16.9997 -0.0307971 17.0292 0.321739 16.5203 0.109681C16.1646 -0.0385493 0.805494 -0.0355788 0.463617 0.112797ZM3.37117 2.42805C3.68362 2.55824 3.85057 2.80058 3.85057 3.12399C3.85057 3.63584 3.34654 4.00541 2.86475 3.84682C2.17954 3.62128 2.13072 2.71661 2.78832 2.43116C3.07484 2.30684 3.08015 2.30677 3.37117 2.42805ZM14.4752 2.60178C14.8796 2.98047 14.6428 3.76437 14.0907 3.87449C13.6379 3.96476 13.1494 3.57535 13.1494 3.12399C13.1494 2.86477 13.3659 2.53817 13.6082 2.43225C13.9048 2.30242 14.2216 2.36437 14.4752 2.60178ZM3.37117 9.38315C3.68362 9.51334 3.85057 9.75568 3.85057 10.0791C3.85057 10.5909 3.34654 10.9605 2.86475 10.8019C2.17954 10.5764 2.13072 9.67171 2.78832 9.38626C3.07484 9.26194 3.08015 9.26187 3.37117 9.38315ZM14.1956 9.38315C14.6909 9.58956 14.8362 10.1667 14.4948 10.5713C14.1408 10.9909 13.4822 10.9038 13.2442 10.4061C13.132 10.1714 13.1301 10.116 13.2253 9.84805C13.3001 9.63759 13.405 9.51138 13.5841 9.4164C13.8874 9.25557 13.8892 9.25549 14.1956 9.38315ZM6.17527 19.5256V20.4957L5.43064 20.8613C3.58766 21.7662 2.21783 23.4472 1.73051 25.402C1.49629 26.3414 1.49629 27.8972 1.73044 28.7709C2.42669 31.369 4.4717 33.3472 7.01071 33.8788C7.78215 34.0403 9.21664 34.0404 9.98924 33.8791C11.5265 33.5581 13.0626 32.5999 13.439 31.7274C13.8993 30.6604 13.2399 29.3821 12.0977 29.1272C11.5646 29.0083 11.0836 29.1165 10.4201 29.5048C9.52401 30.0292 9.27832 30.1036 8.42733 30.1076C7.72062 30.1109 7.62981 30.0947 7.19233 29.8869C6.53095 29.5725 6.01327 29.0832 5.72552 28.5003C5.51898 28.0819 5.48571 27.9333 5.46101 27.3195C5.4273 26.4835 5.55458 25.95 5.9205 25.3932C6.46027 24.572 7.28191 24.1269 8.51538 23.9876C9.54784 23.8709 10.1173 23.521 10.5401 22.7432L10.7884 22.2867L10.812 20.4212L10.8355 18.5556H8.50543H6.17527V19.5256Z" fill="url(#paint0_linear_0_1059)"/>
<defs>
<linearGradient id="paint0_linear_0_1059" x1="3.97872" y1="26.766" x2="27.5664" y2="17.2796" gradientUnits="userSpaceOnUse">
<stop stop-color="#63AFCD"/>
<stop offset="1" stop-color="#FF374F"/>
</linearGradient>
</defs>
</svg>
