<svg width="13" height="13" viewBox="0 0 13 13" fill="none" xmlns="http://www.w3.org/2000/svg">
<path d="M0.394925 12.6051C-0.131642 12.0785 -0.131642 11.2248 0.394926 10.6982L10.6981 0.394928C11.2247 -0.131643 12.0784 -0.131642 12.605 0.394928C13.1316 0.921499 13.1316 1.77524 12.605 2.30181L2.30179 12.6051C1.77523 13.1316 0.921493 13.1316 0.394925 12.6051Z" fill="#4899B9"/>
<path d="M12.6051 12.6051C13.1316 12.0785 13.1316 11.2248 12.6051 10.6982L2.30188 0.394928C1.77531 -0.131643 0.921579 -0.131642 0.395012 0.394928C-0.131555 0.921499 -0.131555 1.77524 0.395012 2.30181L10.6982 12.6051C11.2248 13.1316 12.0785 13.1316 12.6051 12.6051Z" fill="#4899B9"/>
</svg>
