<svg width="32" height="32" viewBox="0 0 32 32" fill="none" xmlns="http://www.w3.org/2000/svg">
<path fill-rule="evenodd" clip-rule="evenodd" d="M9.37574 3.40319C9.37574 5.65544 9.3523 6.91838 9.30636 7.13756C9.13973 7.93344 8.56174 8.68544 7.83662 9.04975C7.21082 9.36425 7.06412 9.375 3.40346 9.375H0V20.315C0 31.156 0.00112509 31.2572 0.125822 31.5016C0.206829 31.6604 0.339589 31.7932 0.498415 31.8742C0.741746 31.9983 0.851005 32 8.56068 32H16.3763L16.3774 30.7031C16.3787 29.1748 16.4457 28.7673 16.8223 28C17.0267 27.5833 17.1921 27.3596 17.5891 26.9627C18.4304 26.1214 19.3578 25.7534 20.6423 25.7511C21.2179 25.7501 21.2517 25.7427 21.2517 25.6197C21.2517 25.5481 21.0665 23.6567 20.8403 21.4166C20.3888 16.9478 20.3715 16.4798 20.6266 15.6562C21.1409 13.9967 22.4658 12.795 24.205 12.4106L24.3769 12.3726V6.55881C24.3769 0.855438 24.3746 0.740313 24.2511 0.498375C24.1701 0.339563 24.0373 0.206813 23.8785 0.125813C23.6356 0.001875 23.5244 0 16.5038 0H9.37574V3.40319ZM4.0005 4.031L0.53173 7.5H3.6436C6.63909 7.5 6.76472 7.49531 7.00218 7.37419C7.16138 7.29294 7.29377 7.16038 7.37534 7.0005C7.49791 6.76025 7.50128 6.65788 7.48553 3.65738L7.46934 0.562063L4.0005 4.031ZM20.1282 3.87581C20.4056 4.01731 20.6266 4.37738 20.6266 4.6875C20.6266 4.99762 20.4056 5.35769 20.1282 5.49919C19.8887 5.62138 19.767 5.625 15.9341 5.625H11.9867L11.7374 5.48488C11.1083 5.13138 11.1019 4.27588 11.7255 3.89844L11.9697 3.75062L15.9256 3.75031C19.7674 3.75 19.8887 3.75362 20.1282 3.87581ZM20.1282 7.62581C20.4056 7.76731 20.6266 8.12737 20.6266 8.4375C20.6266 8.74763 20.4056 9.10769 20.1282 9.24919C19.8887 9.37131 19.767 9.375 15.9388 9.375C12.1105 9.375 11.9888 9.37131 11.7493 9.24919C11.1121 8.92412 11.0988 8.02775 11.7255 7.64844L11.9697 7.50063L15.9256 7.50031C19.7674 7.5 19.8887 7.50362 20.1282 7.62581ZM18.2531 11.3758C18.5304 11.5173 18.7515 11.8774 18.7515 12.1875C18.7515 12.4976 18.5304 12.8577 18.2531 12.9992C18.0104 13.123 17.8981 13.125 11.2509 13.125C4.60368 13.125 4.49142 13.123 4.24871 12.9992C3.61154 12.6741 3.59822 11.7778 4.2249 11.3984L4.4691 11.2506L11.2378 11.2503C17.8985 11.25 18.0104 11.252 18.2531 11.3758ZM24.4681 14.2747C23.261 14.5679 22.32 15.7121 22.3121 16.8962C22.311 17.0736 22.5004 19.1383 22.7332 21.4844L23.1563 25.75H25.127H27.0977L27.5208 21.4844C27.7536 19.1383 27.943 17.0736 27.9418 16.8962C27.9407 16.7188 27.8864 16.4024 27.8213 16.1932C27.378 14.7692 25.9041 13.9259 24.4681 14.2747ZM18.2531 15.1258C18.5304 15.2673 18.7515 15.6274 18.7515 15.9375C18.7515 16.2476 18.5304 16.6077 18.2531 16.7492C18.0104 16.873 17.8981 16.875 11.2463 16.875H4.48611L4.23677 16.7349C3.60772 16.3814 3.60135 15.5259 4.2249 15.1484L4.4691 15.0006L11.2378 15.0003C17.8985 15 18.0104 15.002 18.2531 15.1258ZM9.35574 18.9731C10.2922 19.1665 11.0757 19.592 11.746 20.2713C12.3595 20.8929 12.7542 21.5724 12.9828 22.4001C13.1272 22.923 13.1272 24.202 12.9828 24.7249C12.5172 26.4108 11.1864 27.7129 9.50075 28.132C9.31011 28.1794 8.83683 28.2174 8.43817 28.2174C8.03951 28.2174 7.56623 28.1794 7.37559 28.132C5.60019 27.6906 4.21596 26.2596 3.84981 24.4869C3.18056 21.2472 6.11905 18.3046 9.35574 18.9731ZM7.7793 20.8372C7.26151 20.9629 6.8663 21.1893 6.46476 21.59C5.35524 22.6973 5.35524 24.4296 6.46476 25.534C7.57991 26.644 9.30243 26.6447 10.4116 25.5357C11.521 24.4264 11.521 22.6986 10.4116 21.5893C9.69814 20.8759 8.74313 20.6031 7.7793 20.8372ZM19.8319 27.7149C19.1936 27.9162 18.7329 28.3214 18.4453 28.9346C18.2883 29.2694 18.282 29.3278 18.2627 30.6406L18.2427 32H24.7501C31.1486 32 31.2616 31.9979 31.5041 31.8742C31.6664 31.7914 31.7958 31.6603 31.882 31.4912C32.002 31.2561 32.0114 31.1499 31.9923 30.256C31.9717 29.2976 31.9672 29.2697 31.7675 28.8645C31.5304 28.3832 31.1913 28.0525 30.6974 27.8209L30.3462 27.6562L25.2208 27.6441C21.106 27.6343 20.0434 27.6483 19.8319 27.7149Z" fill="#63AFCD"/>
</svg>
