<svg width="29" height="35" viewBox="0 0 29 35" fill="none" xmlns="http://www.w3.org/2000/svg">
<path fill-rule="evenodd" clip-rule="evenodd" d="M14.2387 0.13782C14.2057 0.226645 13.971 0.892933 13.717 1.61851C13.463 2.34415 13.2335 2.91341 13.207 2.88352C13.1805 2.85371 12.8009 2.34709 12.3635 1.75773L11.5684 0.686222L11.0798 0.646289C10.5681 0.604509 6.93436 0.483135 6.90098 0.506726C6.89037 0.514248 7.57101 1.86542 8.41358 3.5094C9.25608 5.15345 9.94542 6.50831 9.94542 6.52035C9.94542 6.53232 9.31747 6.52527 8.55002 6.50462L7.15462 6.46708L7.17338 7.55431L7.19214 8.64155L8.4838 8.67573C9.74956 8.70924 9.77118 8.71225 9.56275 8.82706C9.19857 9.02761 8.03485 9.92879 7.43008 10.4785C4.69258 12.967 2.09185 17.1648 0.815419 21.155C-0.53525 25.3771 -0.225728 28.1432 1.87669 30.6403C2.52 31.4045 3.9118 32.4417 5.10441 33.0457C8.9558 34.9966 14.9397 35.5496 19.9737 34.4199C21.9745 33.9708 24.1615 33.0457 25.5098 32.078C27.1282 30.9165 28.2513 29.38 28.741 27.6576C29.4422 25.1912 28.7102 21.6186 26.6592 17.4967C24.9356 14.0329 22.7878 11.3057 20.3215 9.44931C19.9524 9.17148 19.5547 8.89154 19.4377 8.82706C19.2309 8.71321 19.2713 8.70897 20.8905 8.67573C22.4214 8.64428 22.5556 8.63183 22.5505 8.52188C22.5473 8.45603 22.5397 7.98743 22.5335 7.48046L22.5221 6.55864L21.0705 6.54025L19.6189 6.52179L20.9666 3.72199C21.7078 2.18209 22.3053 0.913173 22.2944 0.902096C22.2834 0.891087 21.7259 0.836178 21.0556 0.780107C20.3853 0.724036 19.7092 0.66311 19.5532 0.644648C19.2753 0.611757 19.2432 0.63145 17.9556 1.62562C17.233 2.18359 16.6333 2.61896 16.623 2.59312C16.6128 2.56727 16.7905 2.06031 17.0179 1.46664C17.2454 0.872898 17.422 0.377489 17.4103 0.365728C17.3986 0.354035 16.8232 0.280391 16.1316 0.202096C15.44 0.123802 14.7446 0.0409946 14.5864 0.0180875C14.3278 -0.0193844 14.2926 -0.00728124 14.2387 0.13782ZM15.7919 14.8916V15.7738L16.2168 15.8191C17.2571 15.9301 18.7151 16.3268 18.7151 16.4989C18.7151 16.6131 18.1859 18.6672 18.1462 18.7071C18.1278 18.7256 17.9099 18.6591 17.6619 18.5593C16.5713 18.1204 15.1666 17.9527 14.4169 18.1718C13.4983 18.4402 13.2316 19.3192 13.8877 19.9154C14.2278 20.2244 14.7114 20.4695 15.9377 20.9542C16.4744 21.1663 17.0818 21.4349 17.2875 21.551C18.7173 22.358 19.296 23.2948 19.282 24.7791C19.2745 25.5534 19.1527 25.9996 18.7762 26.6302C18.2994 27.429 17.267 28.1366 16.1828 28.4076L15.7239 28.5224V29.5398V30.5571H14.7382H13.7524V29.6136V28.6702L13.0556 28.5905C11.8249 28.4498 10.2428 27.9329 10.3148 27.695C10.3335 27.6332 10.4709 27.1096 10.62 26.5314C10.7692 25.9532 10.903 25.4683 10.9174 25.4539C10.9318 25.4394 11.1819 25.5383 11.4732 25.6737C12.8712 26.3234 14.6592 26.4858 15.5247 26.0416C16.2574 25.6657 16.409 24.8753 15.8671 24.2569C15.562 23.9087 15.0616 23.6431 13.9042 23.215C11.517 22.3319 10.5509 21.366 10.4419 19.7532C10.3736 18.7429 10.7028 17.8799 11.4335 17.1533C11.9442 16.6457 12.5332 16.3053 13.2765 16.0883L13.7864 15.9394L13.8052 14.9744L13.8241 14.0093H14.808H15.7919V14.8916Z" fill="#63AFCD"/>
</svg>
