<svg width="156" height="39" viewBox="0 0 156 39" fill="none" xmlns="http://www.w3.org/2000/svg">
<g clip-path="url(#clip0_0_2357)">
<path fill-rule="evenodd" clip-rule="evenodd" d="M154.568 30.7983L154.368 30.1054L154.168 30.7857L154.037 31.1952H154.718L154.568 30.7983ZM155.193 32.5622L154.931 31.8503H153.774L153.517 32.5622H152.711L154.055 29.0786H154.681L156.019 32.5622H155.193ZM149.79 31.4976C149.799 31.4497 149.799 31.4006 149.79 31.3527C149.774 31.3065 149.746 31.2653 149.709 31.233C149.672 31.1916 149.624 31.1611 149.571 31.1448C149.505 31.1207 149.435 31.11 149.365 31.1133H148.74V31.8818H149.365C149.427 31.8883 149.49 31.8816 149.549 31.862C149.608 31.8425 149.663 31.8106 149.709 31.7685C149.77 31.6922 149.799 31.5951 149.79 31.4976ZM149.709 30.1117C149.711 30.0674 149.704 30.0232 149.688 29.9819C149.671 29.9407 149.647 29.9033 149.615 29.8723C149.518 29.8003 149.398 29.7667 149.278 29.7778H148.69V30.4771H149.278C149.339 30.483 149.4 30.476 149.458 30.4565C149.517 30.437 149.57 30.4053 149.615 30.3637C149.68 30.2912 149.713 30.1963 149.709 30.0991V30.1117ZM150.578 31.4976C150.58 31.645 150.55 31.791 150.491 31.9259C150.436 32.0491 150.355 32.1587 150.253 32.2472C150.154 32.3386 150.04 32.4112 149.915 32.4614C149.782 32.5125 149.64 32.5381 149.496 32.537H147.921V29.0786H149.378C149.543 29.0741 149.708 29.0975 149.865 29.1479C149.997 29.1932 150.12 29.2614 150.228 29.3495C150.322 29.4377 150.397 29.5451 150.447 29.6644C150.498 29.7903 150.524 29.9253 150.522 30.0613C150.521 30.1938 150.487 30.324 150.422 30.4393C150.352 30.5778 150.234 30.6854 150.091 30.7416C150.169 30.7658 150.24 30.8091 150.297 30.8676C150.357 30.9231 150.41 30.9867 150.453 31.0566C150.491 31.1261 150.521 31.2002 150.541 31.2771C150.565 31.3481 150.578 31.4225 150.578 31.4976ZM144.575 29.74V32.537H143.831V29.7652H142.886V29.0786H145.538V29.7652L144.575 29.74ZM140.704 31.7118C140.629 31.9705 140.465 32.1938 140.241 32.3417C140 32.5047 139.713 32.5863 139.422 32.5748C139.221 32.5811 139.021 32.5469 138.834 32.474C138.675 32.4157 138.532 32.3208 138.415 32.1968C138.303 32.072 138.22 31.9235 138.171 31.7622C138.112 31.5857 138.082 31.4004 138.084 31.2141V30.3952C138.084 30.2192 138.114 30.0446 138.171 29.8786C138.221 29.7198 138.304 29.5737 138.415 29.4502C138.533 29.3212 138.675 29.2183 138.834 29.1479C139.021 29.0727 139.221 29.0363 139.422 29.0408C139.715 29.0307 140.004 29.1145 140.248 29.2802C140.462 29.4362 140.622 29.6568 140.704 29.9101L139.979 30.1747C139.956 30.0554 139.892 29.9481 139.797 29.8723C139.691 29.7823 139.554 29.7371 139.416 29.7463C139.33 29.7416 139.243 29.759 139.166 29.7967C139.099 29.8254 139.039 29.8684 138.991 29.9227C138.944 29.9753 138.91 30.0377 138.891 30.1054C138.866 30.1721 138.854 30.2423 138.853 30.3133V31.2582C138.852 31.3334 138.865 31.408 138.891 31.4787C138.91 31.5463 138.944 31.6087 138.991 31.6614C139.039 31.7175 139.099 31.7626 139.166 31.7937C139.245 31.8276 139.33 31.8447 139.416 31.844C139.554 31.849 139.689 31.8043 139.797 31.7181C139.892 31.6403 139.957 31.5308 139.979 31.4094L140.704 31.7118ZM135.026 31.4976C135.027 31.4495 135.017 31.4018 134.999 31.3574C134.981 31.313 134.954 31.2728 134.92 31.2393C134.875 31.1946 134.821 31.1606 134.761 31.1399C134.702 31.1192 134.638 31.1122 134.576 31.1196H133.894V31.8881H134.576C134.638 31.8955 134.702 31.8886 134.761 31.8679C134.821 31.8472 134.875 31.8132 134.92 31.7685C134.954 31.7326 134.981 31.6902 135 31.6437C135.018 31.5972 135.027 31.5476 135.026 31.4976ZM135.801 31.4976C135.81 31.6491 135.785 31.8007 135.73 31.942C135.675 32.0833 135.591 32.211 135.482 32.3165C135.232 32.5259 134.913 32.6317 134.588 32.6126H133.137V29.0786H133.9V30.4141H134.601C134.78 30.4089 134.958 30.4388 135.126 30.5023C135.265 30.5521 135.392 30.6292 135.501 30.729C135.598 30.8234 135.675 30.9371 135.726 31.0629C135.776 31.1849 135.801 31.3154 135.801 31.4472V31.4976ZM130.404 29.129V32.6126H129.648V29.7715H128.822V30.6031C128.823 30.8576 128.81 31.112 128.785 31.3653C128.758 31.5822 128.701 31.7942 128.616 31.9952C128.532 32.173 128.402 32.3252 128.241 32.4362C128.043 32.5571 127.816 32.6204 127.584 32.6189L127.478 31.9889C127.606 31.9676 127.727 31.9134 127.828 31.8314C127.914 31.7578 127.979 31.662 128.016 31.5543C128.061 31.4266 128.089 31.2929 128.097 31.1574C128.097 31.0062 128.097 30.8298 128.097 30.6346V29.0786L130.404 29.129ZM122.844 32.6126V29.0786H125.289V29.7652H123.607V30.4708H125.07V31.1385H123.638V31.8692H125.32V32.5622L122.844 32.6126ZM119.498 29.8156V32.6126H118.729V29.7652H117.791V29.0786H120.443V29.7652L119.498 29.8156ZM112.563 32.5622V29.0786H113.326V31.2582L114.033 30.1432L114.758 29.0786H115.384V32.5622H114.621V30.4519L114.114 31.2771L113.232 32.537L112.563 32.5622ZM108.655 29.7715C108.569 29.7668 108.482 29.7842 108.405 29.8219C108.338 29.8506 108.278 29.8936 108.23 29.9479C108.183 30.0017 108.147 30.0636 108.123 30.1306C108.104 30.1982 108.093 30.2681 108.092 30.3385V31.2834C108.093 31.358 108.103 31.4321 108.123 31.5039C108.147 31.5708 108.183 31.6328 108.23 31.6866C108.278 31.7427 108.338 31.7878 108.405 31.8188C108.484 31.8528 108.569 31.8699 108.655 31.8692C108.735 31.8746 108.815 31.8622 108.889 31.8328C108.964 31.8034 109.031 31.7578 109.086 31.6992C109.188 31.5853 109.242 31.4363 109.236 31.2834V30.3385C109.238 30.2656 109.226 30.1931 109.201 30.125C109.175 30.0569 109.136 29.9946 109.086 29.9416C109.034 29.8863 108.971 29.8426 108.901 29.8133C108.831 29.784 108.756 29.7698 108.68 29.7715H108.655ZM108.655 29.0534C108.847 29.0485 109.039 29.0828 109.218 29.1542C109.378 29.2151 109.524 29.3103 109.645 29.4331C109.766 29.556 109.859 29.7036 109.918 29.866C109.981 30.0394 110.013 30.223 110.012 30.4078V31.2267C110.014 31.4198 109.983 31.6118 109.918 31.7937C109.855 31.9531 109.761 32.0986 109.643 32.222C109.522 32.3415 109.377 32.4339 109.218 32.4929C109.037 32.558 108.846 32.59 108.655 32.5874C108.454 32.5937 108.253 32.5572 108.067 32.4803C107.909 32.4107 107.767 32.31 107.648 32.1842C107.537 32.0561 107.454 31.9059 107.404 31.7433C107.346 31.5773 107.317 31.4026 107.317 31.2267V30.4078C107.317 30.2318 107.346 30.0572 107.404 29.8912C107.454 29.7324 107.537 29.5863 107.648 29.4628C107.765 29.3338 107.908 29.2309 108.067 29.1605C108.264 29.0823 108.475 29.0458 108.686 29.0534H108.655ZM104.315 30.181C104.318 30.1224 104.309 30.0638 104.287 30.0094C104.266 29.9549 104.232 29.9059 104.19 29.866C104.085 29.7938 103.96 29.7583 103.833 29.7652H103.208V30.5968H103.833C103.952 30.5989 104.067 30.5587 104.159 30.4834C104.212 30.4524 104.257 30.4086 104.29 30.3559C104.323 30.3031 104.342 30.243 104.346 30.181H104.315ZM105.09 30.181C105.091 30.331 105.059 30.4793 104.996 30.6157C104.933 30.7463 104.846 30.8638 104.74 30.9621C104.627 31.06 104.498 31.1368 104.359 31.1889C104.208 31.2426 104.049 31.2703 103.89 31.2708H103.246V32.5307H102.483V29.0786H103.908C104.076 29.0761 104.243 29.1017 104.402 29.1542C104.545 29.2008 104.677 29.2758 104.79 29.3747C104.897 29.4717 104.981 29.5924 105.034 29.7274C105.093 29.8778 105.123 30.0382 105.122 30.1999L105.09 30.181ZM99.0994 29.7463V32.5433H98.3678V29.7652H97.4235V29.0786H100.056V29.7652L99.0994 29.7463ZM95.2285 31.6929C95.1511 31.9504 94.9876 32.1729 94.7658 32.3228C94.5214 32.4851 94.2328 32.5666 93.9403 32.5559C93.7397 32.5611 93.54 32.5268 93.3525 32.4551C93.1941 32.3952 93.051 32.3005 92.9335 32.1779C92.8234 32.0515 92.7403 31.9035 92.6896 31.7433C92.6324 31.5664 92.6049 31.3812 92.6083 31.1952V30.3763C92.6063 30.2007 92.6338 30.026 92.6896 29.8597C92.742 29.7021 92.8249 29.5565 92.9335 29.4314C93.0508 29.3023 93.1935 29.1994 93.3525 29.129C93.5396 29.0549 93.7393 29.0185 93.9403 29.0219C94.2336 29.0118 94.5226 29.0956 94.7658 29.2613C94.9826 29.4164 95.1447 29.637 95.2285 29.8912L94.5031 30.1558C94.4753 30.0369 94.4094 29.9306 94.3155 29.8534C94.2096 29.7628 94.0727 29.7176 93.934 29.7274C93.8498 29.7233 93.7659 29.7406 93.6902 29.7778C93.6216 29.8032 93.5611 29.8467 93.515 29.9038C93.4667 29.9561 93.4304 30.0185 93.4087 30.0865C93.3847 30.1532 93.372 30.2234 93.3712 30.2944V31.2393C93.3706 31.3145 93.3833 31.3891 93.4087 31.4598C93.4304 31.5278 93.4667 31.5902 93.515 31.6425C93.5607 31.7014 93.6212 31.7471 93.6902 31.7748C93.7669 31.8091 93.8501 31.8263 93.934 31.8251C94.0722 31.8312 94.2078 31.7864 94.3155 31.6992C94.4121 31.6217 94.4785 31.5124 94.5031 31.3905L95.2285 31.6929ZM85.4855 30.1495C85.4799 30.2025 85.4893 30.2561 85.5125 30.304C85.5357 30.3519 85.5719 30.3922 85.6169 30.4204C85.7255 30.4747 85.8459 30.5006 85.9671 30.496H86.5361V29.7652H85.9421C85.8222 29.7583 85.7035 29.7916 85.6044 29.8597C85.5645 29.8961 85.5331 29.941 85.5125 29.9911C85.492 30.0412 85.4828 30.0953 85.4855 30.1495ZM87.2991 29.0786V32.5622H86.5361V31.1511H86.1859C86.1278 31.1446 86.069 31.1446 86.0108 31.1511C85.9529 31.1717 85.8998 31.2038 85.8545 31.2456C85.8034 31.2984 85.7592 31.3577 85.7232 31.422C85.6742 31.5122 85.6344 31.6072 85.6044 31.7055L85.3667 32.537H84.56L84.8289 31.5669C84.8611 31.4474 84.9095 31.3329 84.9728 31.2267C85.0445 31.1164 85.1533 31.0359 85.2792 30.9999C85.194 30.9719 85.1154 30.9269 85.0478 30.8676C84.974 30.8071 84.9106 30.7348 84.8602 30.6534C84.8094 30.5723 84.7734 30.4827 84.7539 30.3889C84.6903 30.1443 84.7079 29.8854 84.8039 29.6518C84.8647 29.5238 84.9519 29.4104 85.0598 29.3191C85.1676 29.2279 85.2936 29.1609 85.4293 29.1227C85.5677 29.0732 85.7139 29.0497 85.8608 29.0534L87.2991 29.0786ZM79.2258 32.5622V29.0786H79.9887V31.2582L80.6954 30.1432L81.427 29.0786H82.0524V32.5622H81.2957V30.4519L80.7892 31.2771L79.9074 32.537L79.2258 32.5622ZM76.1491 32.5622H73.6477V29.0786H74.4168V31.8629H75.5487V29.0786H76.3054V31.8755H76.7556V33.3874H76.1303L76.1491 32.5622ZM69.833 29.7715C69.7488 29.7673 69.6649 29.7847 69.5891 29.8219C69.5261 29.8509 69.4705 29.894 69.4265 29.9479C69.3863 30.0028 69.3566 30.0647 69.339 30.1306C69.3298 30.1996 69.3298 30.2695 69.339 30.3385V31.2834C69.3294 31.3566 69.3294 31.4307 69.339 31.5039C69.3539 31.5707 69.3839 31.6332 69.4265 31.6866C69.465 31.7448 69.5193 31.7907 69.5829 31.8188C69.6592 31.8544 69.7427 31.8717 69.8268 31.8692C69.9031 31.876 69.98 31.8641 70.0507 31.8345C70.1215 31.8048 70.1841 31.7584 70.2332 31.6992C70.3226 31.5799 70.3669 31.4325 70.3583 31.2834V30.3385C70.3625 30.1957 70.3184 30.0558 70.2332 29.9416C70.1858 29.882 70.1244 29.8352 70.0545 29.8055C69.9846 29.7758 69.9085 29.7642 69.833 29.7715ZM69.833 29.0534C70.0296 29.047 70.2254 29.0813 70.4083 29.1542C70.563 29.2172 70.7019 29.314 70.8148 29.4376C70.9211 29.5634 71.0019 29.7089 71.0525 29.866C71.1034 30.042 71.1287 30.2245 71.1275 30.4078V31.2267C71.1289 31.4192 71.0993 31.6107 71.0399 31.7937C70.981 31.9509 70.8941 32.0961 70.7836 32.222C70.6681 32.3426 70.5269 32.4352 70.3708 32.4929C70.1948 32.5585 70.0082 32.5905 69.8205 32.5874C69.6213 32.5944 69.4229 32.5578 69.2389 32.4803C69.0866 32.4106 68.9503 32.3098 68.8387 32.1842C68.7314 32.0554 68.6525 31.9051 68.6073 31.7433C68.5567 31.5759 68.5313 31.4017 68.5323 31.2267V31.1385H68.1633V32.5622H67.4004V29.0786H68.1633V30.4708H68.5198V30.4078C68.5178 30.2322 68.5452 30.0575 68.6011 29.8912C68.6464 29.7332 68.7254 29.587 68.8325 29.4628C68.9445 29.3334 69.0832 29.2302 69.2389 29.1605C69.4315 29.0826 69.6381 29.0461 69.8455 29.0534H69.833ZM64.7114 29.0534V32.537H63.9547V29.7715H63.1605V30.6031C63.1611 30.8576 63.1486 31.112 63.123 31.3653C63.097 31.5831 63.038 31.7955 62.9479 31.9952C62.864 32.1713 62.737 32.3231 62.5789 32.4362C62.3793 32.5582 62.1496 32.6215 61.9161 32.6189L61.816 31.9889C61.9442 31.9676 62.0648 31.9134 62.1662 31.8314C62.2507 31.7563 62.3152 31.661 62.3538 31.5543C62.3966 31.4257 62.4239 31.2925 62.4351 31.1574C62.4351 31.0062 62.4351 30.8298 62.4351 30.6346V29.0786L64.7114 29.0534ZM58.1577 29.7715C58.0735 29.7673 57.9896 29.7847 57.9138 29.8219C57.8443 29.8488 57.7821 29.892 57.7325 29.9479C57.6882 30.002 57.6543 30.064 57.6324 30.1306C57.6084 30.1973 57.5957 30.2675 57.5949 30.3385V31.2834C57.5943 31.3586 57.607 31.4332 57.6324 31.5039C57.6543 31.5705 57.6882 31.6324 57.7325 31.6866C57.7819 31.7442 57.844 31.7895 57.9138 31.8188C57.9906 31.8532 58.0738 31.8704 58.1577 31.8692C58.2385 31.8739 58.3193 31.8611 58.3948 31.8318C58.4703 31.8024 58.5387 31.7572 58.5955 31.6992C58.6969 31.5853 58.7507 31.4363 58.7456 31.2834V30.3385C58.7477 30.2656 58.7355 30.1931 58.7097 30.125C58.684 30.0569 58.6451 29.9946 58.5955 29.9416C58.5387 29.8835 58.4703 29.8383 58.3948 29.809C58.3193 29.7797 58.2385 29.7669 58.1577 29.7715ZM58.1577 29.0534C58.3501 29.0497 58.5412 29.0839 58.7205 29.1542C58.8792 29.2201 59.0236 29.3163 59.1458 29.4376C59.2642 29.5611 59.3577 29.7066 59.4209 29.866C59.4794 30.0406 59.5089 30.2236 59.5085 30.4078V31.2267C59.511 31.4198 59.4793 31.6118 59.4147 31.7937C59.3529 31.9538 59.2593 32.0996 59.1395 32.222C59.0204 32.3442 58.8749 32.4369 58.7143 32.4929C58.5358 32.5573 58.3473 32.5893 58.1577 32.5874C57.944 32.5982 57.7305 32.5616 57.5324 32.4803C57.3773 32.4091 57.2371 32.3086 57.1196 32.1842C57.0065 32.0565 56.9213 31.9063 56.8695 31.7433C56.8137 31.5769 56.7862 31.4023 56.7882 31.2267V30.4078C56.7862 30.2322 56.8137 30.0575 56.8695 29.8912C56.9215 29.732 57.0068 29.586 57.1196 29.4628C57.2351 29.3346 57.3756 29.2316 57.5324 29.1605C57.7315 29.0824 57.9442 29.046 58.1577 29.0534ZM53.6927 31.4976C53.6982 31.4494 53.6982 31.4008 53.6927 31.3527C53.6737 31.3078 53.6461 31.2671 53.6114 31.233C53.5732 31.1929 53.5261 31.1627 53.4738 31.1448C53.4077 31.1211 53.3376 31.1104 53.2675 31.1133H52.6421V31.8818H53.2675C53.3295 31.8883 53.3922 31.8816 53.4514 31.862C53.5107 31.8425 53.5652 31.8106 53.6114 31.7685C53.6696 31.6908 53.6984 31.5947 53.6927 31.4976ZM53.6114 30.1117C53.6134 30.0668 53.6055 30.022 53.5882 29.9806C53.5709 29.9392 53.5446 29.9022 53.5114 29.8723C53.4149 29.7986 53.2941 29.7648 53.1737 29.7778H52.5858V30.4771H53.1549C53.216 30.4843 53.2779 30.4779 53.3363 30.4583C53.3947 30.4387 53.448 30.4064 53.4926 30.3637C53.5302 30.3309 53.5603 30.2902 53.5809 30.2445C53.6014 30.1988 53.6118 30.1492 53.6114 30.0991V30.1117ZM54.4744 31.4976C54.4777 31.6445 54.45 31.7906 54.3931 31.9259C54.3357 32.0478 54.255 32.157 54.1555 32.2472C54.0555 32.3401 53.9387 32.4128 53.8115 32.4614C53.6797 32.5119 53.5398 32.5375 53.3988 32.537H51.8229V29.0786H53.28C53.4453 29.0741 53.6101 29.0975 53.7678 29.1479C53.8982 29.1916 54.0192 29.2601 54.1242 29.3495C54.2222 29.4357 54.2992 29.5435 54.3493 29.6644C54.4005 29.7903 54.426 29.9253 54.4244 30.0613C54.4206 30.1934 54.3864 30.3228 54.3243 30.4393C54.2546 30.5778 54.1366 30.6854 53.9929 30.7416C54.0696 30.7688 54.1398 30.8117 54.1992 30.8676C54.2578 30.9233 54.3083 30.9869 54.3493 31.0566C54.3921 31.1246 54.4238 31.199 54.4431 31.2771C54.4653 31.3484 54.4759 31.4229 54.4744 31.4976ZM47.2829 31.3968C47.313 31.5182 47.3783 31.6279 47.4705 31.7118C47.5713 31.7978 47.7014 31.8407 47.8332 31.8314C47.9208 31.835 48.0081 31.82 48.0896 31.7873C48.154 31.752 48.213 31.7075 48.2647 31.6551C48.3145 31.5999 48.3529 31.5352 48.3775 31.4649C48.4022 31.3946 48.4128 31.3201 48.4085 31.2456V31.1196H47.4642V30.4519H48.4085V30.3259C48.4147 30.2588 48.4147 30.1913 48.4085 30.1243C48.3936 30.0574 48.3636 29.9949 48.3209 29.9416C48.2755 29.885 48.2178 29.8397 48.1521 29.8093C48.0643 29.7759 47.9707 29.7609 47.877 29.7652C47.744 29.7614 47.6138 29.8037 47.508 29.8849C47.4082 29.9578 47.339 30.0657 47.3141 30.1873L46.5887 29.929C46.6742 29.6739 46.8386 29.4532 47.0577 29.2991C47.3066 29.1358 47.5988 29.0523 47.8957 29.0597C48.1093 29.0516 48.3222 29.0881 48.5211 29.1668C48.6769 29.2332 48.8143 29.337 48.9213 29.4691C49.0253 29.5945 49.102 29.7404 49.1464 29.8975C49.1916 30.0659 49.2147 30.2396 49.2152 30.4141V31.2393C49.2161 31.4256 49.1865 31.6108 49.1277 31.7873C49.0756 31.9465 48.9903 32.0926 48.8775 32.2157C48.7599 32.3396 48.6169 32.4364 48.4585 32.4992C48.27 32.5674 48.071 32.6015 47.8707 32.6C47.5804 32.6085 47.2945 32.5272 47.0515 32.3669C46.837 32.2108 46.6772 31.9903 46.595 31.737L47.2829 31.3968ZM146.332 10.1424L149.459 6.14852H155.05L149.14 13.7079L146.332 10.1424ZM89.2502 6.14852V18.8986C89.2493 19.6343 89.1042 20.3625 88.823 21.0414C88.5418 21.7204 88.1302 22.3366 87.6117 22.8547C87.0957 23.376 86.4827 23.7896 85.8077 24.0717C85.1327 24.3539 84.4091 24.499 83.6783 24.4989H73.6101C72.1356 24.4956 70.7221 23.9049 69.6783 22.8557C68.6344 21.8065 68.0449 20.384 68.0383 18.8986V6.14852H72.4157V18.8986C72.4156 19.0529 72.4466 19.2056 72.5068 19.3474C72.567 19.4893 72.6552 19.6173 72.7659 19.7239C72.8725 19.8343 72.9998 19.9223 73.1405 19.9829C73.2811 20.0434 73.4322 20.0753 73.5851 20.0766H83.6533C83.8062 20.0757 83.9575 20.0439 84.0981 19.9834C84.2388 19.9228 84.3661 19.8346 84.4725 19.7239C84.692 19.5035 84.8157 19.2045 84.8164 18.8923V6.14852H89.2502ZM65.5619 24.4989H51.5353C50.0642 24.4842 48.6573 23.8898 47.6159 22.8431C46.5745 21.7964 45.9813 20.3805 45.9634 18.8986V11.7676C45.9683 10.2811 46.5572 8.85705 47.6012 7.80652C48.6452 6.75599 50.0596 6.16444 51.5353 6.16112H65.5619V10.5707H51.5353C51.2254 10.5715 50.9285 10.6961 50.7098 10.9172C50.4935 11.1366 50.3722 11.4333 50.3721 11.7424V18.8986C50.3713 19.0536 50.401 19.2071 50.4594 19.3504C50.5179 19.4937 50.604 19.6239 50.7128 19.7335C50.8215 19.843 50.9508 19.9298 51.093 19.9887C51.2353 20.0476 51.3877 20.0775 51.5415 20.0766H65.5681L65.5619 24.4989ZM112.501 15.2513C112.755 15.7841 112.887 16.3674 112.888 16.9584V20.568C112.887 21.0835 112.785 21.5938 112.587 22.0694C112.39 22.545 112.101 22.9767 111.738 23.3398C111.377 23.705 110.948 23.9948 110.476 24.1926C110.004 24.3905 109.498 24.4924 108.986 24.4926H91.664C91.7078 18.3821 91.664 12.2905 91.664 6.16742H108.986C109.499 6.16712 110.006 6.26881 110.479 6.46664C110.953 6.66448 111.382 6.95456 111.744 7.32022C112.458 8.05876 112.857 9.04871 112.857 10.0794V13.5C112.871 14.1034 112.749 14.7021 112.501 15.2513ZM108.48 20.0703V17.4561H98.4053V13.0464H108.492V10.6274H96.6105C96.6105 13.7772 96.6418 16.9269 96.6418 20.0766L108.48 20.0703ZM112.97 24.48C114.327 21.7712 115.559 19.2703 116.784 16.7694C118.398 13.4811 120.011 10.1865 121.412 7.42731L121.468 7.32652C121.795 6.79856 122.252 6.36491 122.794 6.0679C123.337 5.7709 123.946 5.6207 124.564 5.63196C125.193 5.60565 125.818 5.74952 126.373 6.04861C126.928 6.34771 127.394 6.79113 127.722 7.33282L127.791 7.45251L135.732 23.6925L142.392 15.1505L135.376 6.14852H140.967L155.262 24.48H149.672L145.194 18.7349L140.704 24.48H127.284L122.031 21.9602L124.007 18.0041L129.298 20.5239L124.589 10.8857C123.207 13.6386 121.969 16.171 120.724 18.7034C119.761 20.6562 118.804 22.6153 117.891 24.4548L112.97 24.48Z" fill="#828282"/>
<path d="M39.8849 0H0V39H39.8849V0Z" fill="#87D4F2"/>
<path d="M33.5188 6.25537H6.35986V32.8139H33.5188V6.25537Z" fill="#9EDAF0"/>
<path d="M29.1852 10.457H10.6936V28.5428H29.1852V10.457Z" fill="#B8E4F4"/>
<path d="M26.2398 13.3677H13.6453V25.6831H26.2398V13.3677Z" fill="#D1E8EF"/>
<path fill-rule="evenodd" clip-rule="evenodd" d="M21.1932 22.048L38.259 37.4187L22.5627 20.7314C22.7492 20.3492 22.8462 19.9289 22.8462 19.503C22.8462 19.0771 22.7492 18.6568 22.5627 18.2746L38.2715 1.57471L21.1994 16.9328C20.8068 16.7524 20.3803 16.6591 19.9487 16.6591C19.5172 16.6591 19.0907 16.7524 18.698 16.9328L1.61968 1.58731L17.316 18.2683C17.131 18.6487 17.0348 19.0668 17.0348 19.4904C17.0348 19.914 17.131 20.3321 17.316 20.7125L1.60718 37.425L18.6855 22.048C19.0792 22.2285 19.5068 22.3219 19.9393 22.3219C20.3719 22.3219 20.7995 22.2285 21.1932 22.048Z" fill="#EDF4F4"/>
</g>
<defs>
<clipPath id="clip0_0_2357">
<rect width="156" height="39" fill="white"/>
</clipPath>
</defs>
</svg>
