<svg width="60" height="60" viewBox="0 0 60 60" fill="none" xmlns="http://www.w3.org/2000/svg">
<path fill-rule="evenodd" clip-rule="evenodd" d="M20.2016 51.61L20.2023 51.6107L20.2023 51.6107L20.2774 52.3915C25.0385 57.1554 32.7876 57.1551 37.5484 52.3908L46.7623 43.1804C48.6607 44.331 51.1796 44.0881 52.8161 42.4516L55.7247 39.5431L47.8446 31.663L58.4011 21.1066C59.9757 19.5319 59.9765 16.9515 58.4011 15.3796C57.6133 14.5918 56.576 14.1965 55.5376 14.1965C54.5001 14.1965 53.4583 14.5916 52.6732 15.3804L42.1143 25.936L33.6446 17.4631L44.2011 6.90658C45.7757 5.33193 45.7765 2.75152 44.2011 1.17955C43.4124 0.390889 42.3747 0 41.3376 0C40.3014 0 39.2592 0.390678 38.4732 1.18044L27.9143 11.736L20.0377 3.8559L17.129 6.76456C15.4906 8.40294 15.3278 10.8747 16.4626 12.7561L7.18962 22.0324C2.42514 26.7935 2.42521 34.5429 7.18982 39.3039L7.86919 39.9856L7.27353 40.579L7.27237 40.5802C5.89562 41.961 5.89562 44.2251 7.27237 45.6059L7.42427 45.7568L0.422662 52.7584C0.0630846 53.105 -0.0828366 53.6223 0.0462961 54.1058C0.171843 54.5923 0.550772 54.9712 1.03722 55.0968C1.52077 55.226 2.03807 55.0801 2.38474 54.7205L9.38758 47.7177L11.863 50.1931L4.86006 57.196C4.50056 57.5426 4.35468 58.0598 4.48379 58.5433C4.60937 59.0299 4.98849 59.4089 5.47514 59.5344C5.95857 59.6634 6.47567 59.5175 6.82224 59.158L13.8239 52.1564L13.973 52.3065L13.9747 52.3083C15.3555 53.685 17.6196 53.685 19.0004 52.3083L19.5951 51.7115L20.2767 52.3908L20.2016 51.61ZM19.9346 48.8356L19.9353 48.8363L19.8599 48.0531L22.2353 50.4322C25.9298 54.1229 31.892 54.1231 35.5864 50.4322L46.6626 39.356L47.7962 40.4896C48.6479 41.3413 50.0023 41.3413 50.854 40.4896L51.8006 39.543L45.0703 32.8094C44.9383 32.7166 44.832 32.6058 44.7464 32.4924L41.1537 28.8963L41.1512 28.8938C41.1343 28.8769 41.108 28.8507 41.0798 28.8189L30.8704 18.6095C30.7383 18.5167 30.632 18.4058 30.5464 18.2924L26.9537 14.6963C26.937 14.6796 26.9095 14.6523 26.8799 14.619L20.0377 7.78007L19.0911 8.72665C18.24 9.57772 18.2388 10.9287 19.0875 11.7844L19.0888 11.7857L20.2298 12.9166L16.8072 16.337L16.7452 15.6921L16.7451 15.6921L16.7451 15.6922L16.8072 16.337L9.14847 23.9908C5.45724 27.6853 5.45724 33.6473 9.14847 37.3419L9.29475 37.4883V37.4914L11.7934 39.9863L9.23724 42.5465C8.92449 42.8571 8.92449 43.3325 9.23724 43.6431L9.23845 43.6443L10.238 44.6439C10.3376 44.7196 10.4294 44.8106 10.5066 44.9159L14.6758 49.0817C14.7669 49.1536 14.853 49.2378 14.9289 49.337C14.933 49.3414 14.9371 49.3459 14.9412 49.3505L15.9375 50.3434C16.2481 50.6561 16.7236 50.6561 17.0342 50.3434L17.0357 50.3419L19.5944 47.7872L19.8592 48.0525L19.9346 48.8356L19.9346 48.8356ZM14.567 49.6834C14.567 49.68 14.5635 49.68 14.56 49.68C14.5621 49.68 14.5642 49.68 14.5655 49.6807C14.5664 49.6812 14.5669 49.6821 14.567 49.6834ZM6.60872 26.9279C7.09451 25.7316 7.82318 24.6098 8.79475 23.6374H8.79473C7.82316 24.6098 7.09451 25.7316 6.60872 26.9279ZM18.4846 33.7684L19.8592 48.0525L19.8599 48.0531L18.485 33.7683C20.152 33.4531 21.4251 31.9787 21.4251 30.2243C21.4251 28.2425 19.8006 26.6181 17.8188 26.6181C17.8115 26.6181 17.8041 26.6181 17.7968 26.6181L16.8072 16.337L16.8072 16.337L17.7966 26.6181C15.8249 26.6302 14.2126 28.2499 14.2126 30.2243C14.2126 32.2061 15.837 33.8306 17.8188 33.8306C18.0461 33.8306 18.2687 33.8092 18.4846 33.7684ZM18.4365 33.2682L18.4846 33.7684C18.4848 33.7684 18.4849 33.7683 18.485 33.7683L18.4368 33.2681C18.4367 33.2681 18.4366 33.2682 18.4365 33.2682ZM18.2646 31.4816C18.2647 31.4815 18.2648 31.4815 18.2649 31.4815L18.2147 30.9599C18.4768 30.8222 18.6501 30.5489 18.6501 30.2243C18.6501 29.8422 18.4099 29.5311 18.0673 29.4288L18.0171 28.9072C18.017 28.9072 18.0169 28.9071 18.0168 28.9071L18.067 29.4287C17.9891 29.4055 17.9058 29.3931 17.8188 29.3931C17.3496 29.3931 16.9876 29.7551 16.9876 30.2243C16.9876 30.6935 17.3496 31.0556 17.8188 31.0556C17.9633 31.0556 18.0977 31.0212 18.2144 30.96L18.2646 31.4816ZM18.2144 30.96C18.2145 30.96 18.2146 30.9599 18.2147 30.9599L18.0673 29.4288C18.0672 29.4288 18.0671 29.4288 18.067 29.4287L18.2144 30.96ZM17.5476 31.5289C17.635 31.5464 17.7256 31.5556 17.8188 31.5556C17.8188 31.5556 17.8188 31.5556 17.8188 31.5556C17.7257 31.5556 17.635 31.5464 17.5476 31.5289ZM17.8447 27.1182L17.7966 26.6181C17.7966 26.6181 17.7967 26.6181 17.7968 26.6181L17.8449 27.1182C17.8448 27.1182 17.8448 27.1182 17.8447 27.1182ZM16.7452 15.6921L19.521 12.9181L19.521 12.9181L18.9517 12.3538L18.7341 12.138C17.6906 11.0876 17.6906 9.42007 18.7375 8.37309L20.0376 7.07305M6.46507 58.8081L13.8251 51.4481L13.825 51.448L6.46507 58.8081ZM16.5247 13.4012L16.5247 13.4012L16.5247 13.4012ZM16.5247 13.4012L17.1046 12.821L16.5247 13.4012ZM45.3799 32.4154C45.3819 32.4173 45.3827 32.4182 45.3837 32.4185L45.3799 32.4154ZM45.3837 32.4185C45.384 32.4186 45.3843 32.4187 45.3846 32.4187L45.3837 32.4185ZM41.3376 2.76113C41.6572 2.76113 41.9837 2.88633 42.239 3.14164C42.744 3.64667 42.744 4.43946 42.239 4.94449L31.6825 15.5009L29.8797 13.6981L40.4361 3.14164C40.6915 2.88633 41.018 2.76113 41.3376 2.76113ZM20.0376 14.1931C19.2726 14.1931 18.6501 14.8156 18.6501 15.5806C18.6501 16.3455 19.2726 16.9681 20.0376 16.9681C20.8025 16.9681 21.4251 16.3455 21.4251 15.5806C21.4251 14.8156 20.8025 14.1931 20.0376 14.1931ZM55.5376 16.9646C55.8597 16.9646 56.1854 17.0881 56.439 17.3416C56.944 17.8467 56.944 18.6395 56.439 19.1445L45.8825 29.701L44.0797 27.8981L54.6362 17.3416C54.8897 17.0881 55.2155 16.9646 55.5376 16.9646ZM22.7001 16.8556C21.9351 16.8556 21.3126 17.4781 21.3126 18.2431C21.3126 19.008 21.9351 19.6306 22.7001 19.6306C23.465 19.6306 24.0876 19.008 24.0876 18.2431C24.0876 17.4781 23.465 16.8556 22.7001 16.8556ZM25.3626 19.5181C24.5976 19.5181 23.9751 20.1406 23.9751 20.9056C23.9751 21.6705 24.5976 22.2931 25.3626 22.2931C26.1275 22.2931 26.7501 21.6705 26.7501 20.9056C26.7501 20.1406 26.1275 19.5181 25.3626 19.5181ZM28.0251 22.1806C27.2601 22.1806 26.6376 22.8031 26.6376 23.5681C26.6376 24.333 27.2601 24.9556 28.0251 24.9556C28.79 24.9556 29.4126 24.333 29.4126 23.5681C29.4126 22.8031 28.79 22.1806 28.0251 22.1806ZM30.6876 24.8431C29.9226 24.8431 29.3001 25.4656 29.3001 26.2306C29.3001 26.9955 29.9226 27.6181 30.6876 27.6181C31.4525 27.6181 32.0751 26.9955 32.0751 26.2306C32.0751 25.4656 31.4525 24.8431 30.6876 24.8431ZM33.3501 27.5056C32.5851 27.5056 31.9626 28.1281 31.9626 28.8931C31.9626 29.658 32.5851 30.2806 33.3501 30.2806C34.115 30.2806 34.7376 29.658 34.7376 28.8931C34.7376 28.1281 34.115 27.5056 33.3501 27.5056ZM36.0126 30.1681C35.2476 30.1681 34.6251 30.7906 34.6251 31.5556C34.6251 32.3205 35.2476 32.9431 36.0126 32.9431C36.7775 32.9431 37.4001 32.3205 37.4001 31.5556C37.4001 30.7906 36.7775 30.1681 36.0126 30.1681ZM38.6751 32.8306C37.9101 32.8306 37.2876 33.4531 37.2876 34.2181C37.2876 34.983 37.9101 35.6056 38.6751 35.6056C39.44 35.6056 40.0626 34.983 40.0626 34.2181C40.0626 33.4531 39.44 32.8306 38.6751 32.8306ZM41.3376 35.4931C40.5726 35.4931 39.9501 36.1156 39.9501 36.8806C39.9501 37.6455 40.5726 38.2681 41.3376 38.2681C42.1025 38.2681 42.7251 37.6455 42.7251 36.8806C42.7251 36.1156 42.1025 35.4931 41.3376 35.4931ZM29.3563 38.1556C27.3745 38.1556 25.7501 39.78 25.7501 41.7618C25.7501 43.7436 27.3745 45.3681 29.3563 45.3681C31.3381 45.3681 32.9626 43.7436 32.9626 41.7618C32.9626 39.78 31.3381 38.1556 29.3563 38.1556ZM44.0001 38.1556C43.2351 38.1556 42.6126 38.7781 42.6126 39.5431C42.6126 40.308 43.2351 40.9306 44.0001 40.9306C44.765 40.9306 45.3876 40.308 45.3876 39.5431C45.3876 38.7781 44.765 38.1556 44.0001 38.1556ZM29.3563 40.9306C29.8255 40.9306 30.1876 41.2926 30.1876 41.7618C30.1876 42.231 29.8255 42.5931 29.3563 42.5931C28.8871 42.5931 28.5251 42.231 28.5251 41.7618C28.5251 41.2926 28.8871 40.9306 29.3563 40.9306ZM20.4733 16.3533C20.7426 16.2006 20.925 15.9112 20.925 15.5806C20.925 15.214 20.7008 14.898 20.3825 14.763C20.7008 14.898 20.9251 15.214 20.9251 15.5806C20.9251 15.9112 20.7426 16.2006 20.4733 16.3533ZM23.1437 19.0113C23.4087 18.8574 23.5876 18.5705 23.5876 18.2431C23.5876 17.8765 23.3633 17.5605 23.045 17.4255C23.3633 17.5605 23.5875 17.8765 23.5875 18.2431C23.5875 18.5705 23.4087 18.8574 23.1437 19.0113ZM25.8062 21.6738C26.0712 21.5199 26.2501 21.233 26.2501 20.9056C26.2501 20.539 26.0258 20.223 25.7075 20.088C26.0258 20.223 26.25 20.539 26.25 20.9056C26.25 21.233 26.0712 21.5199 25.8062 21.6738ZM31.5051 25.8857C31.5502 25.9918 31.5751 26.1084 31.5751 26.2306C31.5751 26.348 31.5521 26.4603 31.5103 26.5631C31.5521 26.4603 31.5751 26.348 31.5751 26.2306C31.5751 26.1084 31.5502 25.9918 31.5051 25.8857ZM20.9251 30.2243C20.9251 30.0111 20.9032 29.8027 20.8616 29.6011C20.9032 29.8027 20.925 30.0111 20.925 30.2243C20.925 30.2893 20.923 30.3539 20.919 30.418C20.923 30.3539 20.9251 30.2893 20.9251 30.2243ZM32.3991 42.385C32.4407 42.1835 32.4626 41.975 32.4626 41.7618C32.4626 41.5486 32.4407 41.3402 32.3991 41.1386C32.4407 41.3402 32.4625 41.5486 32.4625 41.7618C32.4625 41.975 32.4407 42.1835 32.3991 42.385ZM29.3563 43.0931C29.3097 43.0931 29.2638 43.0908 29.2185 43.0863C29.2638 43.0908 29.3097 43.0931 29.3563 43.0931C29.3563 43.0931 29.3563 43.0931 29.3563 43.0931ZM28.0509 42.0289C28.0339 41.9428 28.0251 41.8535 28.0251 41.7618C28.0251 41.5755 28.0617 41.3991 28.1283 41.2394C28.0617 41.3991 28.025 41.5755 28.025 41.7618C28.025 41.8535 28.0339 41.9428 28.0509 42.0289Z" fill="#B71A1B"/>
</svg>
