<svg width="70" height="59" viewBox="0 0 70 59" fill="none" xmlns="http://www.w3.org/2000/svg">
<path d="M31.9565 0C29.9197 0 28.2399 1.3912 27.6409 3.24134L24.003 3.93865C24.002 3.93865 24.001 3.93865 24 3.93865C21.8206 4.35709 20.0711 5.80327 19.099 7.71479C11.9077 10.1719 7.48781 15.5787 4.97823 21.6493C2.52274 27.589 1.82333 34.1622 1.78019 39.744C0.729144 40.7507 0.059154 42.0108 0.00580894 43.2986C-0.0593568 44.8717 0.431527 46.382 1.08767 47.7809C2.39997 50.5788 4.3904 52.9182 5.36461 53.8765C6.38989 54.8854 7.27273 56.0662 8.45566 57.106C9.63858 58.1458 11.2462 59 13.2735 59H56.7265C58.7538 59 60.3614 58.1458 61.5443 57.106C62.7273 56.0662 63.6101 54.8854 64.6354 53.8765C65.6098 52.918 67.6001 50.5789 68.9123 47.7809C69.5685 46.3819 70.0594 44.8687 69.9942 43.2956C69.9409 42.0081 69.2706 40.7504 68.2198 39.744C68.1768 34.1275 67.4768 27.553 65.0366 21.6227C62.5256 15.5201 58.0973 10.0985 50.8773 7.66456C49.9 5.77758 48.1607 4.35349 46 3.93865C45.999 3.93865 45.998 3.93865 45.997 3.93865L42.3591 3.24134C41.7601 1.3912 40.0803 0 38.0435 0H31.9565ZM31.9565 3.02564H38.0435C38.8343 3.02564 39.5091 3.68172 39.5504 4.61528C39.553 4.66375 39.5579 4.71207 39.5652 4.76007V30.2564C39.5624 30.4569 39.5996 30.6559 39.6748 30.8419C39.75 31.028 39.8617 31.1973 40.0033 31.34C40.1448 31.4828 40.3136 31.5962 40.4996 31.6736C40.6857 31.7509 40.8853 31.7908 41.087 31.7908C41.2887 31.7908 41.4883 31.7509 41.6744 31.6736C41.8604 31.5962 42.0291 31.4828 42.1707 31.34C42.3123 31.1973 42.4239 31.028 42.4991 30.8419C42.5743 30.6559 42.6116 30.4569 42.6087 30.2564V6.37039L45.4204 6.91111C47.2684 7.26589 48.6957 9.0186 48.6957 11.1689V18.1538C48.6929 18.3543 48.7301 18.5533 48.8053 18.7394C48.8805 18.9254 48.9921 19.0947 49.1337 19.2375C49.2753 19.3802 49.444 19.4936 49.6301 19.571C49.8161 19.6484 50.0158 19.6882 50.2175 19.6882C50.4191 19.6882 50.6188 19.6484 50.8048 19.571C50.9909 19.4936 51.1596 19.3802 51.3012 19.2375C51.4428 19.0947 51.5544 18.9254 51.6296 18.7394C51.7048 18.5533 51.7421 18.3543 51.7392 18.1538V11.2664C56.9302 13.6062 60.1723 17.785 62.222 22.7662C64.4368 28.1488 65.1638 34.4048 65.209 39.7647C62.1759 40.6407 50.0737 43.8718 35 43.8718C19.9263 43.8718 7.82408 40.6407 4.79098 39.7647C4.83655 34.4414 5.56464 28.1887 7.79286 22.7987C9.84262 17.8404 13.078 13.6633 18.2608 11.3107V18.1538C18.258 18.3543 18.2952 18.5533 18.3704 18.7394C18.4456 18.9254 18.5572 19.0947 18.6988 19.2375C18.8404 19.3802 19.0091 19.4936 19.1952 19.571C19.3812 19.6484 19.5809 19.6882 19.7826 19.6882C19.9842 19.6882 20.1839 19.6484 20.3699 19.571C20.556 19.4936 20.7247 19.3802 20.8663 19.2375C21.0079 19.0947 21.1195 18.9254 21.1947 18.7394C21.2699 18.5533 21.3071 18.3543 21.3043 18.1538V11.1689C21.3043 9.0186 22.7316 7.26589 24.5796 6.91111L27.3913 6.37039V30.2564C27.3884 30.4569 27.4257 30.6559 27.5009 30.8419C27.5761 31.028 27.6877 31.1973 27.8293 31.34C27.9709 31.4828 28.1396 31.5962 28.3256 31.6736C28.5117 31.7509 28.7114 31.7908 28.913 31.7908C29.1147 31.7908 29.3143 31.7509 29.5004 31.6736C29.6864 31.5962 29.8552 31.4828 29.9967 31.34C30.1383 31.1973 30.25 31.028 30.3252 30.8419C30.4004 30.6559 30.4376 30.4569 30.4348 30.2564V4.79257C30.4469 4.72126 30.4538 4.64917 30.4556 4.57687C30.5147 3.66515 31.1772 3.02564 31.9565 3.02564ZM66.7516 42.4742C66.8792 42.7469 66.9382 43.0467 66.9537 43.4197C66.9876 44.2378 66.6882 45.3628 66.1542 46.5015C65.086 48.779 63.1082 51.1227 62.4954 51.7255C61.2761 52.9253 60.3802 54.0891 59.5263 54.8397C58.6723 55.5904 57.9846 55.9744 56.7265 55.9744H13.2735C12.0154 55.9744 11.3277 55.5904 10.4738 54.8397C9.61982 54.0891 8.72386 52.9253 7.50456 51.7255C6.8916 51.1225 4.91393 48.7787 3.84584 46.5015C3.31179 45.3629 3.01244 44.2408 3.04633 43.4227C3.06174 43.0505 3.12157 42.7499 3.24843 42.4772C4.97926 43.0021 18.3226 46.8974 35 46.8974C51.6788 46.8974 65.0226 42.9986 66.7516 42.4742Z" fill="#B71A1B"/>
</svg>
