<svg width="66" height="66" viewBox="0 0 66 66" fill="none" xmlns="http://www.w3.org/2000/svg">
<path d="M32.0136 0C30.7344 0 29.5995 0.882015 29.2897 2.12695L28.6732 4.59299C26.5427 4.91656 24.494 5.46599 22.5418 6.22953L20.7791 4.40803C19.8895 3.48634 18.468 3.28935 17.3603 3.92604H17.3575L15.6481 4.91245C14.5362 5.55323 13.9964 6.8857 14.3506 8.11829L15.0568 10.5787C13.4036 11.9045 11.9069 13.4018 10.5815 15.054L8.11829 14.3506C6.88661 13.9975 5.55508 14.5351 4.91525 15.6453L3.92884 17.3547C3.29052 18.4623 3.48765 19.8854 4.40803 20.7763L6.23234 22.5418C5.46846 24.4944 4.91619 26.5437 4.59299 28.6732L2.12695 29.2897C0.886635 29.601 0 30.7352 0 32.0136V33.9864C0 35.2648 0.880476 36.3996 2.12415 36.7103L4.59018 37.324C4.91356 39.4546 5.46614 41.503 6.22953 43.4554L4.40803 45.2209C3.48521 46.1116 3.28705 47.5338 3.92604 48.6425L4.91245 50.3519C5.55323 51.4638 6.8857 52.0036 8.11829 51.6494L10.5759 50.9432C11.9028 52.598 13.4002 54.095 15.054 55.4213L14.3478 57.8817C13.9947 59.1134 14.5351 60.4449 15.6453 61.0848L17.3547 62.0712C18.4634 62.7101 19.8856 62.512 20.7763 61.5892L22.5418 59.7677C24.4945 60.5309 26.5428 61.0836 28.6732 61.407L29.2897 63.873V63.8759C29.6024 65.1149 30.7344 66 32.0136 66H33.9864C35.2656 66 36.4011 65.1157 36.7103 63.8702L37.3268 61.407C39.4575 61.0832 41.5065 60.5332 43.4582 59.7705L45.2209 61.592C46.1105 62.5137 47.532 62.7107 48.6397 62.074H48.6425L50.3519 61.0876L50.3547 61.0848C51.4633 60.4437 52.0016 59.115 51.6494 57.8845L50.9432 55.4213C52.5965 54.0955 54.0931 52.5982 55.4185 50.946L57.8817 51.6494C59.1134 52.0025 60.4449 51.4649 61.0848 50.3547L62.0712 48.6453C62.7095 47.5377 62.5124 46.1146 61.592 45.2237L61.5892 45.2209L59.7677 43.4582C60.5307 41.5061 61.0836 39.4565 61.407 37.3268L63.8702 36.7103C65.1119 36.3999 66 35.2656 66 33.9864V32.0136C66 30.7345 65.1163 29.6013 63.8759 29.2897L61.4098 28.6732C61.0864 26.5433 60.5336 24.4935 59.7705 22.5418L61.592 20.7791C62.5137 19.8895 62.7135 18.4652 62.0768 17.3575H62.074L61.0876 15.6453C60.4473 14.5343 59.1163 13.998 57.8845 14.3506H57.8817L55.4213 15.054C54.0955 13.4008 52.5983 11.904 50.946 10.5787L51.6522 8.11829V8.11549C52.0033 6.88593 51.4644 5.5554 50.3575 4.91525L48.6453 3.92604C47.5366 3.28705 46.1144 3.48521 45.2237 4.40803L43.461 6.23234C41.5075 5.46855 39.4581 4.91651 37.3268 4.59299L36.7103 2.12695V2.12415C36.3976 0.885032 35.2656 0 33.9864 0H32.0136ZM32.064 2.86957H33.9388L34.9868 7.05902L35.9761 7.17111C38.5706 7.46635 41.043 8.13825 43.3461 9.13833L44.2597 9.53346L47.2525 6.43691L48.8779 7.37568L47.6897 11.5399L48.4856 12.1312C50.5346 13.655 52.3455 15.4676 53.8688 17.5172L54.4601 18.3131L58.6271 17.1221L59.5631 18.7475L56.4693 21.7431L56.8645 22.6539C57.8643 24.9552 58.5364 27.4322 58.8317 30.0268L58.9438 31.0132L63.1304 32.0612V33.9388L58.941 34.9868L58.8289 35.9733C58.5337 38.5678 57.8617 41.043 56.8617 43.3461L56.4665 44.2569L59.5603 47.2525L58.6243 48.8779L54.4601 47.6869L53.866 48.4828C52.3422 50.5318 50.5324 52.3455 48.4828 53.8688L47.6869 54.4601L48.8751 58.6243L47.2497 59.5631L44.2569 56.4665L43.3461 56.8617C41.044 57.8605 38.5674 58.5365 35.9733 58.8317L34.984 58.9438L33.936 63.1304H32.0612L31.0132 58.941L30.0239 58.8289C27.4294 58.5337 24.957 57.8617 22.6539 56.8617L21.7403 56.4665L18.7475 59.5603L17.1221 58.6243L18.3103 54.4601L17.5144 53.866C15.4654 52.3422 13.6545 50.5324 12.1312 48.4828L11.5399 47.6869L7.37288 48.8751L6.43691 47.2497L9.53066 44.2569L9.13553 43.3433C8.13567 41.042 7.46355 38.5678 7.16831 35.9733L7.05622 34.984L2.86957 33.936V32.0612L7.05902 31.0132L7.17111 30.0268C7.4664 27.4317 8.13725 24.9562 9.13833 22.6539L9.53346 21.7431L6.43971 18.7475L7.37568 17.1221L11.5399 18.3131L12.134 17.5172C13.6578 15.4682 15.4676 13.6545 17.5172 12.1312L18.3131 11.5399L17.1249 7.37568L18.7503 6.43691L21.7431 9.53346L22.6567 9.13833C24.958 8.13847 27.4322 7.46355 30.0268 7.16831L31.016 7.05622L32.064 2.86957ZM31.5652 12.9186L29.9119 13.1737C24.8664 13.9551 20.435 16.599 17.3659 20.4036L16.3122 21.7095L27.5747 28.2109L28.3454 27.5495C29.0037 26.9852 29.7687 26.5411 30.6096 26.2436L31.5652 25.9074V24.8929V12.9186ZM34.4348 12.9186V25.9046L35.3904 26.2436C36.23 26.5411 36.9942 26.9844 37.6546 27.5495L38.4281 28.2109L39.3052 27.7036L49.6878 21.7095L48.6341 20.4036C45.5652 16.5992 41.135 13.9551 36.0881 13.1737L34.4348 12.9186ZM28.6957 16.5953V24.0915C28.2562 24.304 27.8388 24.5447 27.4374 24.8173L20.9305 21.0622C23.0561 18.9186 25.6851 17.388 28.6957 16.5953ZM37.3043 16.5953C40.3155 17.3878 42.944 18.9186 45.0695 21.0622L38.5654 24.8173C38.1633 24.5442 37.7443 24.3044 37.3043 24.0915V16.5953ZM14.8831 24.1979L14.2778 25.7616C13.4104 28.0033 12.913 30.4412 12.913 33C12.913 35.5588 13.4104 37.9967 14.2778 40.2384L14.8831 41.8021L26.1343 35.3063L25.9522 34.3115C25.872 33.8735 25.8261 33.4369 25.8261 33C25.8261 32.5631 25.872 32.1265 25.9522 31.6885L26.1343 30.6937L14.8831 24.1979ZM51.1169 24.1979L39.8657 30.6937L40.0478 31.6885C40.128 32.1265 40.1739 32.5631 40.1739 33C40.1739 33.4369 40.128 33.8735 40.0478 34.3115L39.8657 35.3063L51.1169 41.8021L51.7222 40.2384C52.5896 37.9967 53.087 35.5588 53.087 33C53.087 30.4412 52.5896 28.0033 51.7222 25.7616L51.1169 24.1979ZM16.6289 28.5191L23.0322 32.2154C23.0098 32.4789 22.9565 32.7267 22.9565 33C22.9565 33.2733 23.0098 33.5211 23.0322 33.7846L16.6289 37.4809C16.2243 36.0269 15.7826 34.5799 15.7826 33C15.7826 31.4201 16.2243 29.9731 16.6289 28.5191ZM49.3711 28.5191C49.7757 29.9731 50.2174 31.4201 50.2174 33C50.2174 34.5799 49.7757 36.0269 49.3711 37.4809L42.9678 33.7846C42.9902 33.5211 43.0435 33.2733 43.0435 33C43.0435 32.7267 42.9902 32.4789 42.9678 32.2154L49.3711 28.5191ZM27.5719 37.7891L26.6948 38.2964L16.3122 44.2905L17.3659 45.5964C20.4348 49.4008 24.865 52.0449 29.9119 52.8263L31.5652 53.0814V40.0954L30.6096 39.7564C29.77 39.4589 29.0058 39.0156 28.3454 38.4505L27.5719 37.7891ZM38.4253 37.7891L37.6546 38.4505C36.9963 39.0148 36.2313 39.4589 35.3904 39.7564L34.4348 40.0926V41.1071V53.0814L36.0881 52.8263C41.1336 52.0449 45.565 49.401 48.6341 45.5964L49.6878 44.2905L38.4253 37.7891ZM27.4346 41.1827C27.8367 41.4558 28.2557 41.6956 28.6957 41.9085V49.4047C25.6845 48.6122 23.056 47.0814 20.9305 44.9378L27.4346 41.1827ZM38.5626 41.1827L45.0695 44.9378C42.9439 47.0814 40.3149 48.612 37.3043 49.4047V41.9085C37.7438 41.696 38.1612 41.4553 38.5626 41.1827Z" fill="#B71A1B"/>
</svg>
