<svg width="65" height="64" viewBox="0 0 65 64" fill="none" xmlns="http://www.w3.org/2000/svg">
<path fill-rule="evenodd" clip-rule="evenodd" d="M8.55967 44.8674V19.1326C4.88169 18.1895 2.13992 14.821 2.13992 10.7789C2.13992 5.99579 5.95165 2.15579 10.5658 2.15579C15.18 2.15579 18.9918 5.99579 18.9918 10.7789C18.9918 14.821 16.25 18.1895 12.572 19.1326V29.9789H30.4938V19.1326C26.8158 18.1895 24.0741 14.821 24.0741 10.7789C24.0741 5.99579 27.8189 2.15579 32.5 2.15579C37.1142 2.15579 40.9259 5.99579 40.9259 10.7789C40.9259 14.821 38.1842 18.1895 34.5062 19.1326V29.9789H52.428V19.1326C48.75 18.1895 46.0082 14.821 46.0082 10.7789C46.0082 5.99579 49.7531 2.15579 54.4342 2.15579C59.0484 2.15579 62.8601 5.99579 62.8601 10.7789C62.8601 14.821 60.1183 18.1895 56.4403 19.1326V32C56.4403 33.1453 55.571 34.021 54.4342 34.021H34.5062V44.8674C38.1842 45.8105 40.9259 49.1789 40.9259 53.221C40.9259 58.0042 37.1811 61.8442 32.5 61.8442C27.8858 61.8442 24.0741 58.0042 24.0741 53.221C24.0741 49.1789 26.8158 45.8105 30.4938 44.8674V34.021H12.572V44.8674C16.25 45.8105 18.9918 49.1789 18.9918 53.221C18.9918 58.0042 15.18 61.8442 10.5658 61.8442C5.95165 61.8442 2.13992 58.0042 2.13992 53.221C2.13992 49.1789 4.88169 45.8105 8.55967 44.8674ZM14.7119 43.3344C18.4818 44.988 21.1317 48.7803 21.1317 53.221C21.1317 59.1727 16.3838 64 10.5658 64C4.74793 64 0 59.1727 0 53.221C0 48.7803 2.64984 44.988 6.41975 43.3344V20.6656C2.64984 19.012 0 15.2197 0 10.7789C0 4.82733 4.74793 0 10.5658 0C16.3838 0 21.1317 4.82733 21.1317 10.7789C21.1317 15.2197 18.4818 19.012 14.7119 20.6656V27.8232H28.3539V20.6656C24.584 19.012 21.9342 15.2197 21.9342 10.7789C21.9342 4.83854 26.6042 0 32.5 0C38.3179 0 43.0658 4.82733 43.0658 10.7789C43.0658 15.2197 40.416 19.012 36.6461 20.6656V27.8232H50.2881V20.6656C46.5182 19.012 43.8683 15.2197 43.8683 10.7789C43.8683 4.83854 48.5384 0 54.4342 0C60.2521 0 65 4.82733 65 10.7789C65 15.2197 62.3502 19.012 58.5802 20.6656V32C58.5802 34.3359 56.7528 36.1768 54.4342 36.1768H36.6461V43.3344C40.416 44.988 43.0658 48.7803 43.0658 53.221C43.0658 59.1614 38.3958 64 32.5 64C26.6821 64 21.9342 59.1727 21.9342 53.221C21.9342 48.7803 24.584 44.988 28.3539 43.3344V36.1768H14.7119V43.3344ZM32.5 55.6463C33.664 55.6463 34.7737 54.5861 34.7737 53.221C34.7737 51.8344 33.7101 50.7958 32.5 50.7958C31.336 50.7958 30.2263 51.856 30.2263 53.221C30.2263 54.6541 31.2698 55.6463 32.5 55.6463ZM54.3673 8.35368C53.2033 8.35368 52.0936 9.41391 52.0936 10.7789C52.0936 12.144 53.2033 13.2042 54.3673 13.2042C55.5313 13.2042 56.6409 12.144 56.6409 10.7789C56.6409 9.34589 55.5975 8.35368 54.3673 8.35368ZM32.5 8.35368C31.336 8.35368 30.2263 9.41391 30.2263 10.7789C30.2263 12.1656 31.2899 13.2042 32.5 13.2042C33.664 13.2042 34.7737 12.144 34.7737 10.7789C34.7737 9.34589 33.7302 8.35368 32.5 8.35368ZM10.6327 55.6463C11.7967 55.6463 12.9064 54.5861 12.9064 53.221C12.9064 51.856 11.7967 50.7958 10.6327 50.7958C9.46875 50.7958 8.35905 51.856 8.35905 53.221C8.35905 54.6326 9.44853 55.6463 10.6327 55.6463ZM10.5658 8.35368C9.40187 8.35368 8.29218 9.41391 8.29218 10.7789C8.29218 12.144 9.40187 13.2042 10.5658 13.2042C11.7298 13.2042 12.8395 12.144 12.8395 10.7789C12.8395 9.36743 11.75 8.35368 10.5658 8.35368ZM32.5 57.8021C34.9074 57.8021 36.9136 55.7137 36.9136 53.221C36.9136 50.7284 34.9743 48.64 32.5 48.64C30.0926 48.64 28.0864 50.7284 28.0864 53.221C28.0864 55.781 30.0257 57.8021 32.5 57.8021ZM54.3673 6.19789C51.9599 6.19789 49.9537 8.28631 49.9537 10.7789C49.9537 13.2716 51.9599 15.36 54.3673 15.36C56.7747 15.36 58.7809 13.2716 58.7809 10.7789C58.7809 8.21895 56.8416 6.19789 54.3673 6.19789ZM32.5 6.19789C30.0926 6.19789 28.0864 8.28631 28.0864 10.7789C28.0864 13.2716 30.0257 15.36 32.5 15.36C34.9074 15.36 36.9136 13.2716 36.9136 10.7789C36.9136 8.21895 34.9743 6.19789 32.5 6.19789ZM10.6327 57.8021C13.0401 57.8021 15.0463 55.7137 15.0463 53.221C15.0463 50.7284 13.0401 48.64 10.6327 48.64C8.22531 48.64 6.21914 50.7284 6.21914 53.221C6.21914 55.781 8.22531 57.8021 10.6327 57.8021ZM10.5658 6.19789C8.15844 6.19789 6.15226 8.28631 6.15226 10.7789C6.15226 13.2716 8.15844 15.36 10.5658 15.36C12.9733 15.36 14.9794 13.2716 14.9794 10.7789C14.9794 8.21895 12.9733 6.19789 10.5658 6.19789Z" fill="#B71A1B"/>
</svg>
