<svg width="90" height="90" viewBox="0 0 90 90" fill="none" xmlns="http://www.w3.org/2000/svg">
<path fill-rule="evenodd" clip-rule="evenodd" d="M80.3156 33.101C80.4861 32.9906 80.6701 32.9225 80.8586 32.8999L88.2002 32.9L88.2057 32.8999C88.6739 32.8948 89.1106 33.1386 89.3499 33.544C89.5832 33.9512 89.5832 34.4487 89.3499 34.8559C89.1106 35.2613 88.6739 35.5051 88.2057 35.4999H83.4398L58.653 70.9258L58.6495 70.931C58.4108 71.2814 58.0151 71.494 57.5968 71.4999H16.2002C15.485 71.4999 14.9002 70.9152 14.9002 70.1999V49.4908L1.35683 44.4192L1.35347 44.418C0.839946 44.2298 0.500234 43.7421 0.500234 43.1999L0.500298 32.3999L0.50017 32.3919C0.490214 31.7697 0.918671 31.2328 1.51415 31.0999H1.64576L1.66001 31.0991C1.83169 31.0893 2.01699 31.1189 2.1918 31.1825L13.0046 34.787L13.0177 34.791C13.3479 34.891 13.6272 35.128 13.785 35.4376L13.7857 35.439L17.0162 41.8999H36.5002V39.0999H30.6002C29.885 39.0999 29.3002 38.5152 29.3002 37.7999L29.3002 32.3999L29.3002 32.3962C29.2952 31.7286 29.7971 31.1704 30.4565 31.0999H45.0002C45.7155 31.0999 46.3002 31.6847 46.3002 32.3999V37.7999C46.3002 38.5152 45.7155 39.0999 45.0002 39.0999H39.1002V41.8999H57.6002C58.3155 41.8999 58.9002 42.4847 58.9002 43.1999V46.2888L80.3062 33.1071L80.3156 33.101ZM43.7002 33.6999H31.9002V36.4999H37.4574L37.5073 36.4897C37.6799 36.4542 37.8644 36.4542 38.0369 36.4897L38.0868 36.4999H43.7002V33.6999ZM11.6614 37.0542L3.10023 34.1796V42.3089L14.9002 46.7339V43.5319L11.6614 37.0542ZM78.1475 38.5927L77.4755 37.8805L58.2943 49.6929L58.2929 49.6938C57.8904 49.9435 57.3874 49.9587 56.9701 49.7302C56.557 49.5002 56.3002 49.0686 56.3002 48.5999V44.4999H17.5002V48.1123L17.5221 48.1838C17.5984 48.4329 17.5984 48.7107 17.5221 48.9598L17.5002 49.0314V68.8999H56.9608L78.1475 38.5927ZM86.2867 49.9465C86.3261 49.866 86.364 49.789 86.4002 49.7157C86.4364 49.789 86.4743 49.866 86.5138 49.9465C86.8497 50.6316 87.2972 51.5648 87.7442 52.5588C88.1919 53.5542 88.636 54.6039 88.9673 55.5237C89.3075 56.4682 89.5002 57.2017 89.5002 57.5999C89.5002 59.3136 88.1139 60.6999 86.4002 60.6999C84.6865 60.6999 83.3002 59.3136 83.3002 57.5999C83.3002 57.2017 83.4929 56.4682 83.8331 55.5237C84.1644 54.6039 84.6086 53.5542 85.0562 52.5588C85.5033 51.5648 85.9507 50.6316 86.2867 49.9465Z" fill="#B71A1B"/>
</svg>
