<svg width="75" height="69" viewBox="0 0 75 69" fill="none" xmlns="http://www.w3.org/2000/svg">
<path d="M7.71182 12.1104C0.916201 19.0116 1.01348 30.1363 7.92876 36.9181C11.0991 40.0272 12.2629 45.0436 12.6333 47.783C12.8235 49.1801 13.8462 50.2728 15.1444 50.6556L16.0817 57.16C16.2296 58.1569 16.8744 58.9686 17.7327 59.394L17.7626 65.777L20.1449 65.7563L20.0663 59.7354L21.0503 59.7269L21.0771 65.7481L23.4593 65.7274L23.3776 59.3448C24.2121 58.9014 24.8331 58.1013 24.9636 57.1085L25.8384 50.5366C27.1167 50.1249 28.1106 49.0309 28.2733 47.6468C28.5957 44.9078 29.6716 39.8655 32.787 36.7016C39.5827 29.8004 39.4854 18.6757 32.5701 11.8939C25.6548 5.11211 14.5074 5.20919 7.71182 12.1104ZM9.3835 13.7498C15.2904 7.75117 24.9165 7.66733 30.9273 13.5622C36.9382 19.457 37.0222 29.0636 31.1154 35.0622C25.2085 41.0608 15.5824 41.1447 9.57151 35.2498C3.56064 29.355 3.47664 19.7485 9.3835 13.7498ZM10.2271 18.4201C9.77472 18.8795 9.78122 19.6225 10.2416 20.074C10.7019 20.5254 11.4464 20.519 11.8988 20.0595C12.3512 19.6001 12.3447 18.8572 11.8843 18.4057C11.424 17.9542 10.6795 17.9607 10.2271 18.4201ZM14.0773 14.5101C13.6249 14.9695 13.6314 15.7124 14.0918 16.1639C14.5522 16.6154 15.2966 16.6089 15.749 16.1495C16.2014 15.6901 16.1949 14.9471 15.7345 14.4956C15.2742 14.0442 14.5297 14.0506 14.0773 14.5101ZM8.84882 23.6783C8.39642 24.1377 8.40292 24.8807 8.86328 25.3322C9.32365 25.7836 10.0681 25.7772 10.5205 25.3177C10.9729 24.8583 10.9664 24.1154 10.506 23.6639C10.0457 23.2124 9.30122 23.2189 8.84882 23.6783ZM19.3214 13.043C18.869 13.5024 18.8755 14.2454 19.3359 14.6969C19.7962 15.1483 20.5407 15.1419 20.9931 14.6824C21.4455 14.223 21.439 13.4801 20.9786 13.0286C20.5182 12.5771 19.7738 12.5836 19.3214 13.043ZM10.3189 28.9117C9.86646 29.3711 9.87296 30.1141 10.3333 30.5656C10.7937 31.017 11.5381 31.0105 11.9905 30.5511C12.4429 30.0917 12.4364 29.3488 11.9761 28.8973C11.5157 28.4458 10.7713 28.4523 10.3189 28.9117ZM24.5903 14.4185C24.478 14.5326 24.4177 14.6655 24.3607 14.8082L20.8406 20.9379C19.7449 20.7536 18.5729 21.103 17.7419 21.9469C16.3911 23.3187 16.4107 25.5604 17.7853 26.9084C19.1599 28.2565 21.4062 28.2369 22.7569 26.8651C24.0468 25.5553 24.0642 23.4715 22.8707 22.109L26.4412 15.8238C26.7059 15.3724 26.6393 14.7883 26.2475 14.4041C25.7872 13.9526 25.0427 13.9591 24.5903 14.4185ZM19.4136 23.5863C19.8756 23.1171 20.6006 23.1108 21.0708 23.5719C21.541 24.033 21.5473 24.7565 21.0853 25.2257C20.6232 25.6949 19.8982 25.7012 19.428 25.2401C18.9579 24.7791 18.9516 24.0555 19.4136 23.5863ZM28.5083 18.2609C28.0559 18.7203 28.0624 19.4633 28.5228 19.9147C28.9831 20.3662 29.7276 20.3597 30.18 19.9003C30.6324 19.4409 30.6259 18.6979 30.1655 18.2465C29.7052 17.795 28.9607 17.8015 28.5083 18.2609ZM13.0347 40.3883C17.7177 42.4958 23.0972 42.4489 27.7425 40.2602C26.6038 42.9353 26.1222 45.6078 25.9144 47.3831C25.8482 47.9587 25.3792 48.3698 24.7837 48.375L16.1351 48.4503C15.5395 48.4555 15.0634 48.0526 14.9871 47.4783C14.7483 45.7068 14.22 43.0431 13.0347 40.3883ZM29.9784 23.4943C29.526 23.9537 29.5325 24.6967 29.9928 25.1481C30.4532 25.5996 31.1976 25.5931 31.65 25.1337C32.1024 24.6743 32.0959 23.9313 31.6356 23.4799C31.1752 23.0284 30.4308 23.0349 29.9784 23.4943ZM28.6001 28.7525C28.1477 29.2119 28.1542 29.9549 28.6145 30.4063C29.0749 30.8578 29.8193 30.8513 30.2717 30.3919C30.7241 29.9325 30.7176 29.1895 30.2573 28.7381C29.7969 28.2866 29.0525 28.2931 28.6001 28.7525ZM17.5023 50.816L23.4318 50.7385L22.6561 56.7926C22.6137 57.1289 22.3245 57.364 21.9878 57.367L19.0359 57.3927C18.6993 57.3956 18.4316 57.133 18.3834 56.804L17.5023 50.816Z" fill="#B71A1B"/>
<path d="M54.2104 5.27443C54.1601 5.28357 54.1097 5.29728 54.064 5.31098C53.803 5.3658 53.5742 5.50742 53.4048 5.71299C53.4048 5.71299 48.4976 11.6655 43.5903 19.2352C38.6831 26.805 33.666 35.8914 33.666 42.954C33.666 54.32 42.9312 63.5663 54.3203 63.5663C65.7095 63.5663 74.9746 54.32 74.9746 42.954C74.9746 35.8914 69.9575 26.805 65.0503 19.2352C60.1431 11.6655 55.2358 5.71299 55.2358 5.71299C54.9886 5.40235 54.6041 5.23789 54.2104 5.27443ZM54.3203 8.3809C55.4693 9.80165 58.9803 14.1644 63.0728 20.4778C67.8976 27.9196 72.6309 37.0609 72.6309 42.954C72.6309 53.0546 64.4415 61.2273 54.3203 61.2273C44.1992 61.2273 36.0098 53.0546 36.0098 42.954C36.0098 37.0609 40.743 27.9196 45.5679 20.4778C49.6603 14.1644 53.1713 9.80165 54.3203 8.3809ZM53.4414 18.1023C53.1439 18.1617 52.8829 18.3307 52.709 18.5774C52.709 18.5774 49.8342 22.2686 46.9595 27.0928C44.0847 31.9169 41.1367 37.8009 41.1367 42.7347C41.1367 48.9294 44.0573 52.68 46.9595 54.6855C49.8617 56.691 52.7822 57.0975 52.7822 57.0975C53.2125 57.2026 53.6611 57.0564 53.9495 56.7229C54.2379 56.3894 54.3112 55.9189 54.1418 55.5123C53.9724 55.1057 53.5879 54.8271 53.1484 54.7951C53.1484 54.7951 50.7406 54.4616 48.3145 52.785C45.8883 51.1085 43.4805 48.2213 43.4805 42.7347C43.4805 38.7922 46.1813 32.9494 48.9736 28.2623C51.766 23.5752 54.54 20.0027 54.54 20.0027C54.8513 19.6281 54.8971 19.0936 54.6545 18.6688C54.4073 18.2485 53.9266 18.0201 53.4414 18.1023Z" fill="#B71A1B"/>
</svg>
