<svg width="65" height="66" viewBox="0 0 65 66" fill="none" xmlns="http://www.w3.org/2000/svg">
<path d="M6.37823 5.23875C6.32237 5.24906 6.26651 5.26453 6.21573 5.28C5.61143 5.41922 5.18487 5.97094 5.2001 6.6V21.12C5.19502 21.5944 5.43877 22.0378 5.84502 22.2802C6.25127 22.5173 6.74893 22.5173 7.15518 22.2802C7.56143 22.0378 7.80518 21.5944 7.8001 21.12V19.8H27.3001V21.12C27.295 21.5944 27.5388 22.0378 27.945 22.2802C28.3513 22.5173 28.8489 22.5173 29.2552 22.2802C29.6614 22.0378 29.9052 21.5944 29.9001 21.12V19.8H31.2001C39.0712 19.8 45.5001 26.3278 45.5001 34.32V36.96H44.2001C44.1595 36.96 44.1189 36.96 44.0782 36.96C43.3622 36.9961 42.8036 37.6148 42.8392 38.3419C42.8747 39.0689 43.4841 39.6361 44.2001 39.6H45.5001V58.08H44.2001C44.1595 58.08 44.1189 58.08 44.0782 58.08C44.0376 58.08 43.997 58.08 43.9564 58.08C43.2403 58.147 42.7122 58.7967 42.7782 59.5237C42.8442 60.2508 43.4841 60.787 44.2001 60.72H58.5001C58.9673 60.7252 59.404 60.4777 59.6427 60.0652C59.8763 59.6527 59.8763 59.1473 59.6427 58.7348C59.404 58.3223 58.9673 58.0748 58.5001 58.08H57.2001V39.6H58.5001C58.9673 39.6052 59.404 39.3577 59.6427 38.9452C59.8763 38.5327 59.8763 38.0273 59.6427 37.6148C59.404 37.2023 58.9673 36.9548 58.5001 36.96H57.2001V34.32C57.2001 19.7536 45.5458 7.92 31.2001 7.92H29.9001V6.6C29.9103 6.19266 29.7325 5.80594 29.4228 5.54813C29.1181 5.29031 28.7067 5.19234 28.3157 5.28C27.7114 5.41922 27.2849 5.97094 27.3001 6.6V7.92H7.8001V6.6C7.81534 6.21844 7.66299 5.85234 7.39385 5.59453C7.11963 5.33156 6.74893 5.20266 6.37823 5.23875ZM7.8001 10.56H27.3001V17.16H7.8001V10.56ZM29.9001 10.56H31.2001C44.1392 10.56 54.6001 21.1819 54.6001 34.32V36.96H48.1001V34.32C48.1001 24.8892 40.488 17.16 31.2001 17.16H29.9001V10.56ZM6.37823 25.0387C6.32237 25.0491 6.26651 25.0645 6.21573 25.08C5.61143 25.2192 5.18487 25.7709 5.2001 26.4V40.92C5.19502 41.3944 5.43877 41.8378 5.84502 42.0802C6.25127 42.3173 6.74893 42.3173 7.15518 42.0802C7.56143 41.8378 7.80518 41.3944 7.8001 40.92V39.6H24.7001C25.4212 39.6 26.0001 40.1878 26.0001 40.92V58.08H24.7001C24.6595 58.08 24.6189 58.08 24.5782 58.08C24.5376 58.08 24.497 58.08 24.4564 58.08C23.7403 58.147 23.2122 58.7967 23.2782 59.5237C23.3442 60.2508 23.9841 60.787 24.7001 60.72H39.0001C39.4673 60.7252 39.904 60.4777 40.1427 60.0652C40.3763 59.6527 40.3763 59.1473 40.1427 58.7348C39.904 58.3223 39.4673 58.0748 39.0001 58.08H37.7001V40.92C37.7001 33.6445 31.8653 27.72 24.7001 27.72H7.8001V26.4C7.81534 26.0184 7.66299 25.6523 7.39385 25.3945C7.11963 25.1316 6.74893 25.0027 6.37823 25.0387ZM7.8001 30.36H24.7001C30.4587 30.36 35.1001 35.0728 35.1001 40.92V58.08H28.6001V40.92C28.6001 38.7492 26.838 36.96 24.7001 36.96H7.8001V30.36ZM48.1001 39.6H54.6001V58.08H48.1001V39.6Z" fill="#B71A1B"/>
</svg>
