<svg width="78" height="78" viewBox="0 0 78 78" fill="none" xmlns="http://www.w3.org/2000/svg">
<path fill-rule="evenodd" clip-rule="evenodd" d="M44.6548 13.845V8.97003H34.9048V5.65503H57.7198V8.97003H47.9698V13.845H44.6548ZM52.3591 66.9844C52.0483 67.2952 51.6268 67.4699 51.1873 67.47H31.6873C31.3601 67.47 31.0402 67.3731 30.7679 67.1916L16.5557 57.72H12.1874C11.7478 57.72 11.3262 57.5453 11.0153 57.2345C10.7045 56.9237 10.5299 56.5021 10.5298 56.0625V31.6875C10.5299 31.248 10.7045 30.8264 11.0153 30.5156C11.3262 30.2047 11.7478 30.0301 12.1874 30.03H16.5557L30.7679 20.5585C31.0402 20.3769 31.3601 20.2801 31.6873 20.28H56.0623C59.6413 20.28 62.5948 23.2335 62.5948 26.8125V56.0625C62.5947 56.5021 62.42 56.9236 62.1091 57.2344L52.3591 66.9844ZM56.0623 23.595H32.1939L17.9817 33.0666C17.7094 33.2481 17.3895 33.345 17.0622 33.345H13.8448V34.605V54.405H17.0622C17.3895 54.4051 17.7095 54.502 17.9818 54.6835L32.1939 64.155H47.4207H50.5011L59.2798 55.3763V26.8125C59.2798 25.0096 57.8652 23.595 56.0623 23.595ZM39.7798 55.9239V45.8305L35.2639 43.5725L43.0948 31.8262V41.9196L47.6107 44.1775L39.7798 55.9239ZM72.3448 25.155V52.845H69.0298V25.155H72.3448ZM4.09478 34.905V52.845H0.779785V34.905H4.09478Z" fill="#B71A1B"/>
</svg>
