<svg width="229" height="131" viewBox="0 0 229 131" fill="none" xmlns="http://www.w3.org/2000/svg">
<path d="M62.7002 114.625L95.7002 81.875M66.0002 85.15L92.4002 58.95L66.0002 85.15ZM99.0002 114.625L66.0002 81.875L99.0002 114.625ZM95.7002 85.15L69.3002 58.95L95.7002 85.15Z" stroke="#C03637" stroke-linecap="round"/>
<path d="M13.2002 78.5999H16.5002V124.45H13.2002V78.5999Z" fill="#C03637"/>
<path d="M89.1002 45.85L99.0002 114.625M72.6002 42.575L62.7002 114.625L72.6002 42.575Z" stroke="#C03637" stroke-width="2"/>
<path d="M10.1836 33.9421L15.5065 20.5081L126.888 57.6564L122.628 71.5588L10.1836 33.9421Z" fill="white"/>
<path d="M16.4674 22.5582L124.843 58.7011L121.543 69.466L12.3556 32.94L16.4674 22.5582ZM14.5468 18.4612L8.01611 34.9443L123.714 73.6482L128.938 56.6116L14.5468 18.4612Z" fill="#C03637"/>
<path d="M14.1572 76.9627C12.263 73.5272 4.9502 58.7832 4.9502 36.0252C4.9502 7.38204 27.4199 4.91597 34.6502 4.87012V25.9022L15.3551 76.9627H14.1572Z" fill="white"/>
<path d="M32.9998 6.55982V25.6039L14.6122 74.2704C11.9953 68.9289 6.5998 55.5375 6.5998 36.025C6.5998 10.814 24.9181 7.0085 32.9998 6.55982ZM34.8445 3.23242C28.4689 3.2357 3.2998 5.1876 3.2998 36.025C3.2998 62.8833 13.1998 78.6 13.1998 78.6H16.4998L36.2998 26.2V3.275C36.2998 3.275 35.7718 3.23242 34.8445 3.23242Z" fill="#C03637"/>
<path d="M117.714 63.3027L106.544 118.837" stroke="#C03637" stroke-linecap="round"/>
<path d="M47.8501 126.088V121.175C47.8501 116.659 51.5494 112.988 56.1001 112.988H105.6C110.151 112.988 113.85 116.659 113.85 121.175V126.088H47.8501Z" fill="white"/>
<path d="M105.6 114.625C109.24 114.625 112.2 117.563 112.2 121.175V124.45H49.5002V121.175C49.5002 117.563 52.4603 114.625 56.1002 114.625H105.6ZM105.6 111.35H56.1002C50.6321 111.35 46.2002 115.748 46.2002 121.175V127.725H115.5V121.175C115.5 115.748 111.068 111.35 105.6 111.35Z" fill="#C03637"/>
<path d="M14.8502 117.9C15.7577 117.9 16.5002 118.637 16.5002 119.537V126.087C16.5002 126.988 15.7577 127.725 14.8502 127.725C13.9427 127.725 13.2002 126.988 13.2002 126.087V119.537C13.2002 118.637 13.9427 117.9 14.8502 117.9Z" fill="#C03637"/>
<path d="M160.7 43.575H165.3V123.45H160.7V43.575Z" fill="white" stroke="#C03637" stroke-width="2"/>
<path d="M158.05 27.8376H167.95V37.6626H158.05V27.8376Z" fill="white"/>
<path d="M166.3 29.4749V36.0249H159.7V29.4749H166.3ZM169.6 26.2H156.4V39.2999H169.6V26.2Z" fill="#C03637"/>
<path d="M186.1 81.8749L146.5 45.8499M130 121.175L186.1 81.8749L130 121.175ZM196 121.175L139.9 81.8749L196 121.175ZM139.9 81.8749L179.5 45.8499L139.9 81.8749Z" stroke="#C03637"/>
<path d="M125.443 126.087L144.537 37.6624H181.467L200.561 126.087H125.443ZM137.89 116.262H188.113L174.319 47.4874H151.688L137.89 116.262Z" fill="white"/>
<path d="M180.134 39.3001L198.518 124.45H127.482L145.866 39.3001H180.134ZM135.877 117.9H139.9H186.1H190.123L189.337 113.987L176.2 48.4865L175.669 45.8501H172.959H153.034H150.325L149.8 48.4865L136.663 113.987L135.877 117.9ZM182.8 36.0251H143.2L123.4 127.725H202.6L182.8 36.0251ZM139.9 114.625L153.037 49.1251H172.963L186.1 114.625H139.9Z" fill="#C03637"/>
<path d="M159.013 9.00957C158.39 7.9452 157.38 7.14282 156.169 6.7793C156.156 6.77602 156.142 6.76947 156.129 6.7662C155.687 6.63847 155.232 6.55005 154.75 6.55005C154.74 6.55005 154.73 6.55332 154.72 6.55332C154.71 6.55332 154.707 6.55005 154.697 6.55005V6.5566C151.988 6.5828 149.8 8.76722 149.8 11.4625C149.8 14.1579 151.988 16.3423 154.697 16.3685V16.375C159.7 16.375 163 26.2 163 26.2C163 26.2 162.95 14.2659 159.013 9.00957Z" fill="#C03637"/>
<path d="M166.986 5.73467C167.61 4.6703 168.62 3.86792 169.831 3.5044C169.844 3.50112 169.857 3.49457 169.871 3.4913C170.313 3.36357 170.768 3.27515 171.25 3.27515C171.26 3.27515 171.27 3.27842 171.28 3.27842C171.29 3.27842 171.293 3.27515 171.303 3.27515V3.2817C174.012 3.3079 176.2 5.49232 176.2 8.18765C176.2 10.883 174.012 13.0674 171.303 13.0936V13.1001C166.3 13.1001 163 22.9251 163 22.9251C163 22.9251 163.05 10.991 166.986 5.73467Z" fill="#C03637"/>
</svg>
