<svg width="218" height="129" viewBox="0 0 218 129" fill="none" xmlns="http://www.w3.org/2000/svg">
<path d="M119.25 8.16455V43.2081L136.375 33.5591V8.16455H119.25ZM149.219 8.16455V43.2081L166.344 33.5591V8.16455H149.219ZM179.188 8.16455V43.2081L196.313 33.5591V8.16455H179.188ZM140.656 41.936L106.406 61.2339V104.654C105.838 104.645 105.275 104.763 104.749 105.002C104.222 105.24 103.743 105.594 103.339 106.043C102.935 106.492 102.614 107.027 102.395 107.617C102.176 108.206 102.063 108.839 102.063 109.479C102.063 110.118 102.176 110.751 102.395 111.341C102.614 111.931 102.935 112.466 103.339 112.915C103.743 113.364 104.222 113.717 104.749 113.956C105.275 114.194 105.838 114.312 106.406 114.303H200.595C201.162 114.312 201.725 114.194 202.252 113.956C202.778 113.717 203.257 113.364 203.661 112.915C204.065 112.466 204.386 111.931 204.605 111.341C204.824 110.751 204.937 110.118 204.937 109.479C204.937 108.839 204.824 108.206 204.605 107.617C204.386 107.027 204.065 106.492 203.661 106.043C203.257 105.594 202.778 105.24 202.252 105.002C201.725 104.763 201.162 104.645 200.595 104.654V41.936L170.625 58.8217V41.936L140.656 58.8217V41.936ZM114.968 70.8829H123.531V80.5319H114.968V70.8829ZM132.094 70.8829H140.656V80.5319H132.094V70.8829ZM149.219 70.8829H157.781V80.5319H149.219V70.8829ZM166.344 70.8829H174.907V80.5319H166.344V70.8829ZM183.469 70.8829H192.032V80.5319H183.469V70.8829ZM114.968 90.1809H123.531V99.8298H114.968V90.1809ZM132.094 90.1809H140.656V99.8298H132.094V90.1809ZM149.219 90.1809H157.781V99.8298H149.219V90.1809ZM166.344 90.1809H174.907V99.8298H166.344V90.1809ZM183.469 90.1809H192.032V99.8298H183.469V90.1809Z" fill="white"/>
<path fill-rule="evenodd" clip-rule="evenodd" d="M116.25 5.16455H139.375V35.3122L116.25 48.3418V5.16455ZM146.219 5.16455H169.344V35.3122L146.219 48.3418V5.16455ZM176.188 5.16455H199.313V35.3122L176.188 48.3418V5.16455ZM143.656 36.8022V53.688L173.625 36.8022V53.688L203.595 36.8022V102.318C204.472 102.733 205.248 103.322 205.891 104.036C206.559 104.778 207.072 105.643 207.418 106.573C207.763 107.502 207.937 108.489 207.937 109.479C207.937 110.469 207.763 111.456 207.418 112.385C207.072 113.315 206.559 114.18 205.891 114.922C205.223 115.664 204.41 116.272 203.489 116.689C202.575 117.103 201.583 117.315 200.574 117.303H106.427C105.417 117.315 104.425 117.103 103.511 116.689C102.59 116.272 101.778 115.664 101.109 114.922C100.441 114.18 99.9279 113.315 99.5828 112.385C99.2377 111.456 99.0635 110.469 99.0635 109.479C99.0635 108.489 99.2377 107.502 99.5828 106.573C99.9279 105.643 100.441 104.778 101.109 104.036C101.752 103.322 102.528 102.733 103.406 102.318V59.4808L143.656 36.8022ZM106.406 104.654C106.365 104.654 106.325 104.654 106.285 104.654C105.758 104.663 105.238 104.78 104.749 105.002C104.222 105.24 103.743 105.594 103.339 106.043C102.935 106.492 102.614 107.027 102.395 107.617C102.176 108.206 102.063 108.839 102.063 109.479C102.063 110.118 102.176 110.751 102.395 111.341C102.614 111.931 102.935 112.466 103.339 112.915C103.743 113.364 104.222 113.717 104.749 113.956C105.275 114.194 105.838 114.312 106.406 114.303H200.595C201.162 114.312 201.725 114.194 202.252 113.956C202.778 113.717 203.257 113.364 203.661 112.915C204.065 112.466 204.386 111.931 204.605 111.341C204.824 110.751 204.937 110.118 204.937 109.479C204.937 108.839 204.824 108.206 204.605 107.617C204.386 107.027 204.065 106.492 203.661 106.043C203.257 105.594 202.778 105.24 202.252 105.002C201.763 104.78 201.242 104.663 200.716 104.654C200.675 104.654 200.635 104.654 200.595 104.654V41.936L170.625 58.8217V41.936L140.656 58.8217V41.936L106.406 61.2339V104.654ZM119.25 43.2081L136.375 33.5591V8.16455H119.25V43.2081ZM149.219 43.2081L166.344 33.5591V8.16455H149.219V43.2081ZM179.188 43.2081L196.313 33.5591V8.16455H179.188V43.2081ZM120.531 73.8829V77.5319H117.968V73.8829H120.531ZM137.656 73.8829V77.5319H135.094V73.8829H137.656ZM154.781 73.8829H152.219V77.5319H154.781V73.8829ZM171.907 73.8829V77.5319H169.344V73.8829H171.907ZM189.032 73.8829H186.469V77.5319H189.032V73.8829ZM120.531 93.1809V96.8299H117.968V93.1809H120.531ZM137.656 93.1809V96.8299H135.094V93.1809H137.656ZM154.781 93.1809H152.219V96.8299H154.781V93.1809ZM171.907 93.1809V96.8299H169.344V93.1809H171.907ZM189.032 93.1809H186.469V96.8299H189.032V93.1809ZM114.968 70.8829V80.5319H123.531V70.8829H114.968ZM132.094 70.8829V80.5319H140.656V70.8829H132.094ZM149.219 70.8829V80.5319H157.781V70.8829H149.219ZM166.344 70.8829V80.5319H174.907V70.8829H166.344ZM183.469 70.8829V80.5319H192.032V70.8829H183.469ZM114.968 90.1809V99.8299H123.531V90.1809H114.968ZM132.094 90.1809V99.8299H140.656V90.1809H132.094ZM149.219 90.1809V99.8299H157.781V90.1809H149.219ZM166.344 90.1809V99.8299H174.907V90.1809H166.344ZM183.469 90.1809V99.8299H192.032V90.1809H183.469Z" fill="#C03637"/>
<path d="M13.125 26.75V35.5H17.5V66.125H13.125V74.875H17.5V105.5H13.125V114.25H91.875V105.5H87.5V74.875H91.875V66.125H87.5V35.5H91.875V26.75H13.125ZM52.5 49.676L56.0974 54.8884C58.963 59.0403 65.625 69.2838 65.625 74.875C65.625 82.1113 59.7362 88 52.5 88C45.2637 88 39.375 82.1113 39.375 74.875C39.375 69.2838 46.037 59.0359 48.9026 54.8884L52.5 49.676Z" fill="white"/>
<path fill-rule="evenodd" clip-rule="evenodd" d="M10.1079 23.7329H94.8924V38.5174H90.5174V63.1079H94.8924V77.8924H90.5174V102.483H94.8924V117.267H10.1079V102.483H14.4829V77.8924H10.1079V63.1079H14.4829V38.5174H10.1079V23.7329ZM13.1252 26.7502H91.8751V35.5002H87.5001V66.1251H91.8751V74.8751H87.5001V105.5H91.8751V114.25H13.1252V105.5H17.5002V74.8751H13.1252V66.1251H17.5002V35.5002H13.1252V26.7502ZM56.0976 54.8886L52.5001 49.6762L48.9027 54.8886C46.0371 59.0361 39.3751 69.2839 39.3751 74.8751C39.3751 82.1114 45.2639 88.0001 52.5001 88.0001C59.7364 88.0001 65.6251 82.1114 65.6251 74.8751C65.6251 69.2839 58.9632 59.0404 56.0976 54.8886ZM52.5001 54.9881L51.3851 56.6037C49.9809 58.636 47.671 62.1292 45.7242 65.7648C44.7506 67.5831 43.8959 69.3852 43.2911 71.0223C42.6697 72.7044 42.3924 74.0017 42.3924 74.8751C42.3924 80.445 46.9303 84.9829 52.5001 84.9829C58.07 84.9829 62.6079 80.445 62.6079 74.8751C62.6079 74.0018 62.3306 72.7047 61.7092 71.0231C61.1045 69.3864 60.2498 67.5847 59.2761 65.7666C57.3294 62.1314 55.0193 58.6381 53.6144 56.6025L52.5001 54.9881Z" fill="#C03637"/>
</svg>
