<svg width="323" height="174" viewBox="0 0 323 174" fill="none" xmlns="http://www.w3.org/2000/svg">
<path d="M320.851 118.11C320.851 146.171 307.421 171.604 281.947 190.054C256.455 208.518 218.874 220 170.632 220C146.554 220 129.824 215.797 117.234 209.194C104.646 202.591 96.1114 193.546 88.4783 183.706C85.9318 180.423 83.4841 177.047 81.0179 173.644C68.7213 156.68 55.9645 139.081 28.2122 129.343C12.0492 123.672 3.77309 112.919 1.5944 100.003C-0.596913 87.0125 3.36008 71.6903 12.0171 56.9748C29.3341 27.5387 65.1774 1 106.515 1C115.1 1 121.857 6.26306 128.773 13.6675C131.045 16.1002 133.299 18.7222 135.629 21.4333C136.844 22.8474 138.08 24.2857 139.35 25.7339C143.037 29.9372 146.976 34.1789 151.401 37.9731C160.27 45.5782 171.105 51.3946 185.842 51.5984C200.542 51.8018 218.997 46.4184 243.127 31.9069C267.109 17.4847 283.788 13.8562 295.329 16.6914C306.778 19.5043 313.498 28.7771 317.343 41.1019C321.189 53.4317 322.08 68.6016 321.995 82.77C321.952 89.8444 321.667 96.6466 321.392 102.698C321.363 103.34 321.334 103.974 321.305 104.599C321.064 109.853 320.851 114.484 320.851 118.11Z" fill="#FFFBFB" stroke="#EFCECE" stroke-width="2"/>
</svg>
