<svg width="110" height="110" viewBox="0 0 110 110" fill="none" xmlns="http://www.w3.org/2000/svg">
<path d="M17.2252 16.427C16.6898 16.4271 16.1607 16.5435 15.6735 16.7682C15.1864 16.993 14.7525 17.3209 14.4012 17.7299C14.0499 18.1388 13.7893 18.6193 13.637 19.1389C13.4848 19.6585 13.4444 20.2051 13.5185 20.7419V39.2004C13.5115 39.7025 13.6032 40.2011 13.7881 40.667C13.9731 41.133 14.2477 41.5571 14.596 41.9147C14.9443 42.2723 15.3593 42.5563 15.8169 42.7501C16.2745 42.9439 16.7656 43.0437 17.2617 43.0437C17.7578 43.0437 18.2489 42.9439 18.7065 42.7501C19.1642 42.5563 19.5792 42.2723 19.9275 41.9147C20.2757 41.5571 20.5503 41.133 20.7353 40.667C20.9203 40.2011 21.0119 39.7025 21.0049 39.2004V29.4012L44.3705 53.0554C48.5845 57.3213 50.9503 63.1038 50.9503 69.1381V96.0413C50.9433 96.5434 51.035 97.042 51.2199 97.5079C51.4049 97.9739 51.6795 98.398 52.0278 98.7556C52.3761 99.1133 52.7911 99.3972 53.2487 99.591C53.7063 99.7849 54.1975 99.8847 54.6935 99.8847C55.1896 99.8847 55.6807 99.7849 56.1383 99.591C56.596 99.3972 57.011 99.1133 57.3593 98.7556C57.7076 98.398 57.9822 97.9739 58.1671 97.5079C58.3521 97.042 58.4437 96.5434 58.4367 96.0413V69.1381C58.4367 61.0986 55.2793 53.3819 49.6636 47.6969L26.298 24.0428H35.9776C36.4736 24.0499 36.9661 23.9571 37.4264 23.7699C37.8867 23.5826 38.3056 23.3046 38.6589 22.9521C39.0121 22.5995 39.2926 22.1793 39.4841 21.7161C39.6755 21.2528 39.7741 20.7556 39.7741 20.2534C39.7741 19.7512 39.6755 19.254 39.4841 18.7907C39.2926 18.3275 39.0121 17.9073 38.6589 17.5547C38.3056 17.2022 37.8867 16.9242 37.4264 16.7369C36.9661 16.5497 36.4736 16.4569 35.9776 16.464H17.7004C17.5429 16.4415 17.3842 16.4291 17.2252 16.427ZM73.4094 16.464C72.9134 16.4569 72.421 16.5497 71.9607 16.7369C71.5004 16.9242 71.0814 17.2022 70.7282 17.5547C70.3749 17.9073 70.0944 18.3275 69.903 18.7907C69.7115 19.254 69.6129 19.7512 69.6129 20.2534C69.6129 20.7556 69.7115 21.2528 69.903 21.7161C70.0944 22.1793 70.3749 22.5995 70.7282 22.9521C71.0814 23.3046 71.5004 23.5826 71.9607 23.7699C72.421 23.9571 72.9134 24.0499 73.4094 24.0428H83.0891L59.7234 47.6969C59.6486 47.7727 59.5825 47.858 59.5114 47.9338C61.0199 50.1846 62.2701 52.5785 63.2546 55.0833C63.8011 54.3822 64.3839 53.6958 65.0165 53.0554L88.3822 29.4012V39.2004C88.3751 39.7025 88.4668 40.2011 88.6518 40.667C88.8367 41.133 89.1113 41.5571 89.4596 41.9147C89.8079 42.2723 90.2229 42.5563 90.6805 42.7501C91.1382 42.9439 91.6293 43.0437 92.1253 43.0437C92.6214 43.0437 93.1125 42.9439 93.5702 42.7501C94.0278 42.5563 94.4428 42.2723 94.7911 41.9147C95.1394 41.5571 95.414 41.133 95.5989 40.667C95.7839 40.2011 95.8755 39.7025 95.8685 39.2004V20.2534C95.8684 19.2484 95.474 18.2846 94.7721 17.574C94.0701 16.8634 93.1181 16.4641 92.1253 16.464H73.4094Z" fill="#333333"/>
<path fill-rule="evenodd" clip-rule="evenodd" d="M7 7V103H103V7H7ZM5 0C2.23858 0 0 2.23858 0 5V105C0 107.761 2.23858 110 5 110H105C107.761 110 110 107.761 110 105V5C110 2.23858 107.761 0 105 0H5Z" fill="#C03637"/>
</svg>
