<svg width="71" height="72" viewBox="0 0 71 72" fill="none" xmlns="http://www.w3.org/2000/svg">
<path d="M35 1L15.6932 12.2322V19.9982L17.2941 19.0653L17.9677 18.6756V38.2833H52.0323V18.6756L54.3068 19.9982V12.2322L35 1ZM35 3.45459L52.1778 13.4513V16.3039L51.6455 15.9929L51.6414 15.9888C51.5541 15.9183 51.4584 15.8644 51.3545 15.8229L35 6.30723L18.6497 15.8229C18.5416 15.8602 18.4459 15.9183 18.3586 15.9888L17.8222 16.3039V13.4513L35 3.45459ZM35 8.76182L49.9032 17.4358V30.8863C49.3169 30.8863 48.8387 31.3631 48.8387 31.9478C48.8387 32.5324 49.3169 33.0092 49.9032 33.0092V36.1604H41.3871V33.0092C41.9734 33.0092 42.4516 32.5324 42.4516 31.9478C42.4516 31.3631 41.9734 30.8863 41.3871 30.8863V19.2104H28.6129V30.8863C28.0266 30.8863 27.5484 31.3631 27.5484 31.9478C27.5484 32.5324 28.0266 33.0092 28.6129 33.0092V36.1604H20.0968V33.0092C20.6831 33.0092 21.1613 32.5324 21.1613 31.9478C21.1613 31.3631 20.6831 30.8863 20.0968 30.8863V17.4358L35 8.76182ZM6.25806 21.3333C3.91696 21.3333 2 23.2447 2 25.5791V47.4216C2 48.6407 2.41998 49.8223 3.19342 50.7718L16.0757 66.5816C16.3128 66.8925 16.6995 67.046 17.082 66.9879C17.4646 66.934 17.7889 66.6728 17.922 66.3079C18.0592 65.943 17.9844 65.5367 17.7307 65.2465L4.84425 49.4284C4.38269 48.8646 4.12903 48.1555 4.12903 47.4216V25.5791C4.12903 24.3933 5.0688 23.4562 6.25806 23.4562C7.44733 23.4562 8.3871 24.3933 8.3871 25.5791V44.0632L11.8925 47.5585C12.1586 47.8363 12.5578 47.9482 12.9279 47.8487C13.3022 47.7533 13.5932 47.4631 13.6889 47.0899C13.7887 46.7209 13.6764 46.3229 13.3978 46.0575L13.2772 45.9373C13.2564 45.9166 13.2356 45.8958 13.2148 45.8751C12.4456 45.108 12.4456 43.8973 13.2148 43.1303C13.9841 42.3632 15.1983 42.3632 15.9676 43.1303L25.8061 52.9403C27.6024 54.7315 28.6129 57.1612 28.6129 59.6946V65.914C28.6087 66.2955 28.8083 66.6521 29.141 66.8469C29.4737 67.0377 29.8812 67.0377 30.2138 66.8469C30.5465 66.6521 30.7461 66.2955 30.7419 65.914V59.6946C30.7419 56.6015 29.5069 53.6286 27.3114 51.4394L17.4729 41.6293C16.6828 40.8415 15.635 40.4435 14.5912 40.4435C13.5475 40.4435 12.4996 40.8415 11.7096 41.6293L10.5161 42.8193V25.5791C10.5161 23.2447 8.59917 21.3333 6.25806 21.3333ZM30.7419 21.3333H39.2581V36.1604H30.7419V21.3333ZM63.7419 21.3333C61.4008 21.3333 59.4839 23.2447 59.4839 25.5791V42.8193L58.2905 41.6293C57.5004 40.8415 56.4525 40.4435 55.4088 40.4435C54.365 40.4435 53.3172 40.8415 52.5271 41.6293L42.6886 51.4394C40.4931 53.6286 39.2581 56.6015 39.2581 59.6946V65.914C39.2539 66.2955 39.4535 66.6521 39.7862 66.8469C40.1188 67.0377 40.5263 67.0377 40.859 66.8469C41.1917 66.6521 41.3913 66.2955 41.3871 65.914V59.6946C41.3871 57.1612 42.3976 54.7315 44.1939 52.9403L54.0324 43.1303C54.8017 42.3632 56.0159 42.3632 56.7852 43.1303C57.5544 43.8973 57.5544 45.108 56.7852 45.8751L56.6022 46.0575C56.3236 46.3229 56.2113 46.7209 56.3111 47.0899C56.4068 47.4631 56.6978 47.7533 57.0721 47.8487C57.4422 47.9482 57.8414 47.8363 58.1075 47.5585L58.2281 47.4382C58.2489 47.4175 58.2697 47.3968 58.2905 47.376L61.6129 44.0632V25.5791C61.6129 24.3933 62.5527 23.4562 63.7419 23.4562C64.9312 23.4562 65.871 24.3933 65.871 25.5791V47.4216C65.871 48.1555 65.6173 48.8646 65.1558 49.4284L52.2693 65.2465C52.0156 65.5367 51.9408 65.943 52.078 66.3079C52.2111 66.6728 52.5354 66.934 52.918 66.9879C53.3005 67.046 53.6873 66.8925 53.9243 66.5816L66.8066 50.7718C67.58 49.8223 68 48.6407 68 47.4216V25.5791C68 23.2447 66.083 21.3333 63.7419 21.3333ZM24.3548 30.8863C23.7685 30.8863 23.2903 31.3631 23.2903 31.9478C23.2903 32.5324 23.7685 33.0092 24.3548 33.0092C24.9412 33.0092 25.4194 32.5324 25.4194 31.9478C25.4194 31.3631 24.9412 30.8863 24.3548 30.8863ZM45.6452 30.8863C45.0588 30.8863 44.5806 31.3631 44.5806 31.9478C44.5806 32.5324 45.0588 33.0092 45.6452 33.0092C46.2315 33.0092 46.7097 32.5324 46.7097 31.9478C46.7097 31.3631 46.2315 30.8863 45.6452 30.8863ZM14.7742 47.8694C14.1879 47.8694 13.7097 48.3463 13.7097 48.9309C13.7097 49.5155 14.1879 49.9923 14.7742 49.9923C15.3605 49.9923 15.8387 49.5155 15.8387 48.9309C15.8387 48.3463 15.3605 47.8694 14.7742 47.8694ZM55.2258 47.8694C54.6395 47.8694 54.1613 48.3463 54.1613 48.9309C54.1613 49.5155 54.6395 49.9923 55.2258 49.9923C55.8121 49.9923 56.2903 49.5155 56.2903 48.9309C56.2903 48.3463 55.8121 47.8694 55.2258 47.8694ZM16.9032 49.9923C16.3169 49.9923 15.8387 50.4692 15.8387 51.0538C15.8387 51.6384 16.3169 52.1152 16.9032 52.1152C17.4895 52.1152 17.9677 51.6384 17.9677 51.0538C17.9677 50.4692 17.4895 49.9923 16.9032 49.9923ZM53.0968 49.9923C52.5105 49.9923 52.0323 50.4692 52.0323 51.0538C52.0323 51.6384 52.5105 52.1152 53.0968 52.1152C53.6831 52.1152 54.1613 51.6384 54.1613 51.0538C54.1613 50.4692 53.6831 49.9923 53.0968 49.9923ZM19.0323 52.1152C18.4459 52.1152 17.9677 52.592 17.9677 53.1767C17.9677 53.7613 18.4459 54.2381 19.0323 54.2381C19.6186 54.2381 20.0968 53.7613 20.0968 53.1767C20.0968 52.592 19.6186 52.1152 19.0323 52.1152ZM50.9677 52.1152C50.3814 52.1152 49.9032 52.592 49.9032 53.1767C49.9032 53.7613 50.3814 54.2381 50.9677 54.2381C51.5541 54.2381 52.0323 53.7613 52.0323 53.1767C52.0323 52.592 51.5541 52.1152 50.9677 52.1152Z" fill="#333333"/>
</svg>
