<svg width="89" height="89" viewBox="0 0 89 89" fill="none" xmlns="http://www.w3.org/2000/svg">
<path d="M82.0469 50.0625H77.875V18.0781C77.875 14.4528 75.5485 11.3698 72.3125 10.2211V6.95312C72.3125 3.88541 69.8177 1.39062 66.75 1.39062H52.8438C49.776 1.39062 47.2812 3.88541 47.2812 6.95312V9.73438H41.7188V6.95312C41.7188 3.88541 39.224 1.39062 36.1562 1.39062H22.25C19.1823 1.39062 16.6875 3.88541 16.6875 6.95312V10.2211C13.4515 11.3698 11.125 14.4528 11.125 18.0781V50.0625H6.95312C3.88541 50.0625 1.39062 52.5573 1.39062 55.625V77.875C1.39062 80.9427 3.88541 83.4375 6.95312 83.4375H11.3225C11.9441 85.8308 14.1023 87.6094 16.6875 87.6094H72.3125C74.8977 87.6094 77.0559 85.8308 77.6775 83.4375H82.0469C85.1146 83.4375 87.6094 80.9427 87.6094 77.875V55.625C87.6094 52.5573 85.1146 50.0625 82.0469 50.0625ZM6.95312 52.8438H11.125V58.4062H4.17188V55.625C4.17188 54.0911 5.41927 52.8438 6.95312 52.8438ZM4.17188 77.875V61.1875H11.125V80.6562H6.95312C5.41927 80.6562 4.17188 79.4089 4.17188 77.875ZM50.0625 6.95312C50.0625 5.41927 51.3099 4.17188 52.8438 4.17188H66.75C68.2839 4.17188 69.5312 5.41927 69.5312 6.95312V9.73438H61.1875V6.95312H58.4062V9.73438H50.0625V6.95312ZM19.4688 6.95312C19.4688 5.41927 20.7161 4.17188 22.25 4.17188H36.1562C37.6901 4.17188 38.9375 5.41927 38.9375 6.95312V9.73438H30.5938V6.95312H27.8125V9.73438H19.4688V6.95312ZM75.0938 82.0469C75.0938 83.5807 73.8464 84.8281 72.3125 84.8281H16.6875C15.1536 84.8281 13.9062 83.5807 13.9062 82.0469V18.0781C13.9062 15.0104 16.401 12.5156 19.4688 12.5156H69.5312C72.599 12.5156 75.0938 15.0104 75.0938 18.0781V82.0469ZM82.0469 52.8438C83.5807 52.8438 84.8281 54.0911 84.8281 55.625V58.4062H77.875V52.8438H82.0469ZM82.0469 80.6562H77.875V61.1875H84.8281V77.875C84.8281 79.4089 83.5807 80.6562 82.0469 80.6562Z" fill="black"/>
<path d="M23.6406 43.1094H65.3594C66.1284 43.1094 66.75 42.4864 66.75 41.7188V16.6875C66.75 15.9199 66.1284 15.2969 65.3594 15.2969H23.6406C22.8716 15.2969 22.25 15.9199 22.25 16.6875V41.7188C22.25 42.4864 22.8716 43.1094 23.6406 43.1094ZM25.0312 18.0781H63.9688V40.3281H25.0312V18.0781Z" fill="black"/>
<path d="M59.7969 20.8594H29.2031C28.4341 20.8594 27.8125 21.4824 27.8125 22.25V36.1562C27.8125 36.9239 28.4341 37.5469 29.2031 37.5469H59.7969C60.5659 37.5469 61.1875 36.9239 61.1875 36.1562V22.25C61.1875 21.4824 60.5659 20.8594 59.7969 20.8594ZM58.4062 34.7656H30.5938V23.6406H58.4062V34.7656Z" fill="black"/>
<path d="M68.1406 48.6719H20.8594C18.5593 48.6719 16.6875 50.5437 16.6875 52.8438V77.875C16.6875 80.1751 18.5593 82.0469 20.8594 82.0469H68.1406C70.4407 82.0469 72.3125 80.1751 72.3125 77.875V52.8438C72.3125 50.5437 70.4407 48.6719 68.1406 48.6719ZM20.8594 51.4531H68.1406C68.9082 51.4531 69.5312 52.0761 69.5312 52.8438V57.0156H19.4688V52.8438C19.4688 52.0761 20.0917 51.4531 20.8594 51.4531ZM25.0312 59.7969H27.8125V61.1875C27.8125 61.9551 27.1895 62.5781 26.4219 62.5781C25.6543 62.5781 25.0312 61.9551 25.0312 61.1875V59.7969ZM68.1406 79.2656H20.8594C20.0917 79.2656 19.4688 78.6426 19.4688 77.875V59.7969H22.25V61.1875C22.25 63.4876 24.1218 65.3594 26.4219 65.3594C28.722 65.3594 30.5938 63.4876 30.5938 61.1875V59.7969H69.5312V77.875C69.5312 78.6426 68.9082 79.2656 68.1406 79.2656Z" fill="black"/>
<path d="M65.3594 68.1406H54.2344C53.4654 68.1406 52.8438 68.7622 52.8438 69.5312V75.0938C52.8438 75.8628 53.4654 76.4844 54.2344 76.4844H65.3594C66.1284 76.4844 66.75 75.8628 66.75 75.0938V69.5312C66.75 68.7622 66.1284 68.1406 65.3594 68.1406ZM63.9688 73.7031H55.625V70.9219H63.9688V73.7031Z" fill="black"/>
</svg>
