<svg width="94" height="87" viewBox="0 0 94 87" fill="none" xmlns="http://www.w3.org/2000/svg">
<g clip-path="url(#clip0_37_473)">
<path d="M86.6562 48.9375H82.25V32.625C82.25 28.8772 78.9556 25.8281 74.9062 25.8281H55.8125V1.35938C55.8125 0.609 55.156 0 54.3438 0H1.46875C0.656531 0 0 0.609 0 1.35938V61.1719V72.0469C0 75.7947 3.29441 78.8438 7.34375 78.8438H8.93C9.64675 83.448 13.9252 87 19.0938 87C24.2623 87 28.5408 83.448 29.2575 78.8438H54.3438H58.8675C59.5843 83.448 63.8627 87 69.0312 87C74.1998 87 78.4782 83.448 79.195 78.8438H86.6562C90.7056 78.8438 94 75.7947 94 72.0469V63.8906V55.7344C94 51.9866 90.7056 48.9375 86.6562 48.9375ZM2.9375 57.0938H52.875V59.8125H2.9375V57.0938ZM2.9375 12.2344V2.71875H52.875V12.2344H49.9375V14.9531H52.875V27.1875V54.375H2.9375V14.9531H5.875V12.2344H2.9375ZM19.0938 84.2812C15.0444 84.2812 11.75 81.2322 11.75 77.4844C11.75 73.7366 15.0444 70.6875 19.0938 70.6875C23.1431 70.6875 26.4375 73.7366 26.4375 77.4844C26.4375 81.2322 23.1431 84.2812 19.0938 84.2812ZM52.875 76.125H29.2575C28.5408 71.5208 24.2623 67.9688 19.0938 67.9688C13.9252 67.9688 9.64675 71.5208 8.93 76.125H7.34375C4.91444 76.125 2.9375 74.2953 2.9375 72.0469V62.5312H52.875V76.125ZM69.0312 84.2812C64.9819 84.2812 61.6875 81.2322 61.6875 77.4844C61.6875 73.7366 64.9819 70.6875 69.0312 70.6875C73.0806 70.6875 76.375 73.7366 76.375 77.4844C76.375 81.2322 73.0806 84.2812 69.0312 84.2812ZM86.6562 76.125H79.195C78.4782 71.5208 74.1998 67.9688 69.0312 67.9688C63.8627 67.9688 59.5843 71.5208 58.8675 76.125H55.8125V61.1719V28.5469H74.9062C77.3356 28.5469 79.3125 30.3766 79.3125 32.625V50.2969C79.3125 51.0472 79.969 51.6562 80.7812 51.6562H86.6562C89.0856 51.6562 91.0625 53.486 91.0625 55.7344V62.5312H88.125C84.8849 62.5312 82.25 64.97 82.25 67.9688C82.25 70.9675 84.8849 73.4062 88.125 73.4062H90.7923C90.1842 74.9845 88.5686 76.125 86.6562 76.125ZM91.0625 70.6875H88.125C86.505 70.6875 85.1875 69.4681 85.1875 67.9688C85.1875 66.4694 86.505 65.25 88.125 65.25H91.0625V70.6875Z" fill="#282828"/>
<path d="M74.9062 31.2656H60.2188C59.4065 31.2656 58.75 31.8746 58.75 32.625V44.8594C58.75 45.6097 59.4065 46.2188 60.2188 46.2188H74.9062C75.7185 46.2188 76.375 45.6097 76.375 44.8594V32.625C76.375 31.8746 75.7185 31.2656 74.9062 31.2656ZM73.4375 43.5H61.6875V33.9844H73.4375V43.5Z" fill="#282828"/>
<path d="M64.625 48.9375H58.75V51.6562H64.625V48.9375Z" fill="#282828"/>
<path d="M33.7812 65.25H30.8438V67.9688H33.7812V65.25Z" fill="#282828"/>
<path d="M39.6562 65.25H36.7188V67.9688H39.6562V65.25Z" fill="#282828"/>
<path d="M45.5312 65.25H42.5938V67.9688H45.5312V65.25Z" fill="#282828"/>
<path d="M49.9375 9.51562H47V12.2344H49.9375V9.51562Z" fill="#282828"/>
<path d="M47 12.2344H44.0625V14.9531H47V12.2344Z" fill="#282828"/>
<path d="M44.0625 9.51562H41.125V12.2344H44.0625V9.51562Z" fill="#282828"/>
<path d="M41.125 12.2344H38.1875V14.9531H41.125V12.2344Z" fill="#282828"/>
<path d="M38.1875 9.51562H35.25V12.2344H38.1875V9.51562Z" fill="#282828"/>
<path d="M35.25 12.2344H32.3125V14.9531H35.25V12.2344Z" fill="#282828"/>
<path d="M32.3125 9.51562H29.375V12.2344H32.3125V9.51562Z" fill="#282828"/>
<path d="M29.375 12.2344H26.4375V14.9531H29.375V12.2344Z" fill="#282828"/>
<path d="M26.4375 9.51562H23.5V12.2344H26.4375V9.51562Z" fill="#282828"/>
<path d="M23.5 12.2344H20.5625V14.9531H23.5V12.2344Z" fill="#282828"/>
<path d="M20.5625 9.51562H17.625V12.2344H20.5625V9.51562Z" fill="#282828"/>
<path d="M17.625 12.2344H14.6875V14.9531H17.625V12.2344Z" fill="#282828"/>
<path d="M14.6875 9.51562H11.75V12.2344H14.6875V9.51562Z" fill="#282828"/>
<path d="M11.75 12.2344H8.8125V14.9531H11.75V12.2344Z" fill="#282828"/>
<path d="M8.8125 9.51562H5.875V12.2344H8.8125V9.51562Z" fill="#282828"/>
<path d="M9.57037 41.9707C9.79069 42.0835 10.036 42.1406 10.2812 42.1406C10.553 42.1406 10.8218 42.0713 11.0597 41.934L20.5625 36.438V40.7813C20.5625 41.2761 20.8518 41.7301 21.3204 41.9707C21.5407 42.0835 21.786 42.1406 22.0312 42.1406C22.303 42.1406 22.5717 42.0713 22.8097 41.934L32.3125 36.438V40.7813C32.3125 41.2761 32.6018 41.7301 33.0704 41.9707C33.2907 42.0835 33.536 42.1406 33.7812 42.1406C34.053 42.1406 34.3218 42.0713 34.5597 41.934L46.3097 35.1371C46.7386 34.8884 47 34.4534 47 33.9844C47 33.5154 46.7386 33.0804 46.3097 32.8316L34.5597 26.0348C34.1044 25.7724 33.533 25.7588 33.0689 25.9994C32.6018 26.2387 32.3125 26.6927 32.3125 27.1875V31.5307L22.8097 26.0334C22.3544 25.771 21.7845 25.7574 21.3189 25.998C20.8518 26.2387 20.5625 26.6927 20.5625 27.1875V31.5307L11.0597 26.0334C10.6044 25.771 10.033 25.7574 9.56891 25.998C9.10184 26.2387 8.8125 26.6927 8.8125 27.1875V40.7813C8.8125 41.2761 9.10184 41.7301 9.57037 41.9707ZM35.25 29.6398L42.7597 33.9844L35.25 38.3289V29.6398ZM23.5 29.6398L31.0097 33.9844L23.5 38.3289V29.6398ZM11.75 29.6398L19.2597 33.9844L11.75 38.3289V29.6398Z" fill="#282828"/>
</g>
<defs>
<clipPath id="clip0_37_473">
<rect width="94" height="87" fill="white"/>
</clipPath>
</defs>
</svg>
