<svg width="16" height="16" viewBox="0 0 16 16" fill="none" xmlns="http://www.w3.org/2000/svg">
<g clip-path="url(#clip0_33_21)">
<path d="M10.8268 5.17333C10.0468 4.39333 9.02683 4 8.00016 4V8L5.1735 10.8267C6.7335 12.3867 9.26683 12.3867 10.8335 10.8267C12.3935 9.26667 12.3935 6.73333 10.8268 5.17333ZM8.00016 1.33333C4.32016 1.33333 1.3335 4.32 1.3335 8C1.3335 11.68 4.32016 14.6667 8.00016 14.6667C11.6802 14.6667 14.6668 11.68 14.6668 8C14.6668 4.32 11.6802 1.33333 8.00016 1.33333ZM8.00016 13.3333C5.0535 13.3333 2.66683 10.9467 2.66683 8C2.66683 5.05333 5.0535 2.66667 8.00016 2.66667C10.9468 2.66667 13.3335 5.05333 13.3335 8C13.3335 10.9467 10.9468 13.3333 8.00016 13.3333Z" fill="white"/>
</g>
<defs>
<clipPath id="clip0_33_21">
<rect width="16" height="16" fill="white"/>
</clipPath>
</defs>
</svg>
