<svg width="15" height="15" viewBox="0 0 15 15" fill="none" xmlns="http://www.w3.org/2000/svg">
<g clip-path="url(#clip0_33_11)">
<path d="M7.5 1.25C4.05 1.25 1.25 4.05 1.25 7.5C1.25 10.95 4.05 13.75 7.5 13.75C10.95 13.75 13.75 10.95 13.75 7.5C13.75 4.05 10.95 1.25 7.5 1.25ZM7.5 3.125C8.5375 3.125 9.375 3.9625 9.375 5C9.375 6.0375 8.5375 6.875 7.5 6.875C6.4625 6.875 5.625 6.0375 5.625 5C5.625 3.9625 6.4625 3.125 7.5 3.125ZM7.5 12C5.9375 12 4.55625 11.2 3.75 9.9875C3.76875 8.74375 6.25 8.0625 7.5 8.0625C8.74375 8.0625 11.2312 8.74375 11.25 9.9875C10.4438 11.2 9.0625 12 7.5 12Z" fill="white"/>
</g>
<defs>
<clipPath id="clip0_33_11">
<rect width="15" height="15" fill="white"/>
</clipPath>
</defs>
</svg>
