<svg width="54" height="53" viewBox="0 0 54 53" fill="none" xmlns="http://www.w3.org/2000/svg">
<path d="M12.6 5.30005C10.611 5.30005 9 6.88122 9 8.83338V45.9334C9 47.8856 10.611 49.4667 12.6 49.4667H41.4C43.389 49.4667 45 47.8856 45 45.9334V18.55C45 18.0819 44.8111 17.6331 44.4727 17.301L32.7727 5.81763C32.4343 5.48549 31.977 5.30005 31.5 5.30005H12.6ZM30.6 8.66431L41.5723 19.4334H32.4C31.4064 19.4334 30.6 18.6419 30.6 17.6667V8.66431ZM17.223 26.8002C17.7756 26.8002 18.3197 26.8514 18.8543 26.9521C19.3889 27.0528 19.8658 27.2471 20.2852 27.5421C20.7046 27.8371 21.0489 28.2524 21.3117 28.7877C21.5745 29.3248 21.7055 30.0236 21.7055 30.8822C21.7073 31.6595 21.5964 32.317 21.375 32.8594C21.1518 33.4017 20.8563 33.8434 20.4855 34.1844C20.1129 34.5253 19.6813 34.7725 19.1953 34.9262C18.7075 35.0799 18.2089 35.1574 17.6941 35.1574H17.4586C17.3488 35.1574 17.2364 35.1541 17.1176 35.1471C16.9988 35.14 16.8794 35.1353 16.766 35.1229C16.6526 35.1123 16.572 35.0973 16.5234 35.0849V39.3429H14.2559V27.1004C14.6879 27.0068 15.1631 26.9326 15.6797 26.8796C16.1945 26.8266 16.7082 26.8002 17.223 26.8002ZM26.3672 26.8002C27.3626 26.8002 28.1938 26.9519 28.8598 27.2523C29.5258 27.5526 30.0615 27.9744 30.4629 28.5221C30.8661 29.0697 31.148 29.7273 31.3172 30.4923C31.4846 31.2573 31.5703 32.1144 31.5703 33.056C31.5703 33.9164 31.4897 34.7371 31.3277 35.5197C31.1657 36.3023 30.882 36.9912 30.4734 37.5866C30.063 38.1819 29.5107 38.6549 28.8141 39.0082C28.1175 39.3615 27.2445 39.5396 26.1879 39.5396C26.0331 39.5396 25.8197 39.5312 25.5551 39.5189C25.2923 39.5065 25.0169 39.4951 24.7289 39.4775C24.4409 39.4598 24.1638 39.4399 23.8992 39.4223C23.6364 39.4046 23.4315 39.3849 23.2875 39.3601V26.9762C23.5035 26.9409 23.7487 26.9145 24.0187 26.8969C24.2869 26.8792 24.5623 26.8628 24.8449 26.8451C25.1257 26.8274 25.4013 26.8159 25.6641 26.8106C25.9287 26.8053 26.162 26.8002 26.3672 26.8002ZM33.3703 26.9762H39.6703V29.0258H35.6414V32.2417H39.3469V34.2913H35.6414V39.3429H33.3703V26.9762ZM17.441 28.7774C17.0702 28.7774 16.7646 28.8088 16.5234 28.8671V33.0905C16.5954 33.1153 16.7297 33.135 16.9277 33.1527C17.1257 33.1703 17.2635 33.1768 17.3355 33.1768C17.5983 33.1768 17.8502 33.144 18.0914 33.0733C18.3308 33.0026 18.5441 32.8824 18.7277 32.711C18.9149 32.5396 19.0645 32.304 19.1707 32.0036C19.2805 31.7033 19.3324 31.3243 19.3324 30.865C19.3324 30.4763 19.2803 30.145 19.1777 29.8747C19.0751 29.6044 18.9392 29.3884 18.7664 29.2294C18.5918 29.0704 18.3885 28.955 18.1617 28.8844C17.9331 28.8137 17.693 28.7774 17.441 28.7774ZM26.6027 28.8499C26.4119 28.8499 26.2171 28.8531 26.0191 28.8602C25.8229 28.8655 25.6666 28.8786 25.5586 28.9016V37.4175C25.5964 37.4281 25.6584 37.4398 25.7484 37.4451C25.8384 37.4504 25.9359 37.4571 26.0367 37.4624C26.1375 37.4677 26.2315 37.4743 26.3215 37.4796C26.4115 37.4849 26.4753 37.49 26.5113 37.49C27.0513 37.49 27.4945 37.3646 27.8438 37.1173C28.1894 36.87 28.4667 36.5386 28.6629 36.127C28.8609 35.7154 28.9968 35.2407 29.0742 34.7054C29.1516 34.1701 29.1938 33.6064 29.1938 33.0181C29.1938 32.4757 29.1584 31.9551 29.0918 31.4481C29.0306 30.9428 28.9028 30.4961 28.7156 30.1127C28.5284 29.7311 28.2683 29.4246 27.9281 29.1949C27.5861 28.9652 27.1409 28.8499 26.6027 28.8499Z" fill="#B8B8B8"/>
</svg>
