<svg width="16" height="16" viewBox="0 0 16 16" fill="none" xmlns="http://www.w3.org/2000/svg">
<g clip-path="url(#clip0_241_35398)">
<path d="M6.76923 0C5.75 0 4.92308 0.826923 4.92308 1.84615V6.76923H2.92308C2.05529 6.76923 1.8726 6.90865 2.61538 7.65385L6.67308 11.7115C8.02644 13.0649 8.00962 13.0697 9.36539 11.7115L13.4038 7.65385C14.1466 6.90865 13.899 6.76923 13.1154 6.76923H11.0769V1.84615C11.0769 0.826923 10.25 0 9.23077 0H6.76923ZM0 11.6923V14.1538C0 15.1731 0.826923 16 1.84615 16H14.1538C15.1731 16 16 15.1731 16 14.1538V11.6923H14.7692V14.1538C14.7692 14.4928 14.4928 14.7692 14.1538 14.7692H1.84615C1.50721 14.7692 1.23077 14.4928 1.23077 14.1538V11.6923H0Z" fill="#B71A1B"/>
</g>
<defs>
<clipPath id="clip0_241_35398">
<rect width="16" height="16" fill="white"/>
</clipPath>
</defs>
</svg>
