<svg width="56" height="56" viewBox="0 0 56 56" fill="none" xmlns="http://www.w3.org/2000/svg">
<path d="M32.668 2.23999H7.83984V53.76H48.1599V16.8L32.668 2.23999ZM23.8655 37.7081H18.7423V26.3856H23.6642V28.3019H20.943V30.905H23.533V32.7337H20.943V35.7919H23.8655V37.7081ZM29.0236 37.7081L28.3017 35.6256C28.083 34.9694 27.8992 34.3306 27.698 33.6087H27.663C27.4792 34.3306 27.2955 35.0175 27.1248 35.6562L26.5211 37.7081H24.338L26.4555 31.9112L24.4211 26.3856H26.7223L27.3786 28.4812C27.5623 29.0719 27.7155 29.6581 27.8992 30.2969H27.9342C28.118 29.61 28.2536 29.0719 28.4023 28.4506L28.9755 26.3856H31.1761L29.0586 32.0119L31.2942 37.7037H29.0236V37.7081ZM37.323 37.7081H32.1998V26.3856H37.1217V28.3019H34.4005V30.905H36.9861V32.7337H34.4005V35.7919H37.323V37.7081ZM32.4798 17.92V4.47999L45.9199 17.92H32.4798Z" fill="#B8B8B8"/>
</svg>
