<svg width="1454" height="1356" viewBox="0 0 1454 1356" fill="none" xmlns="http://www.w3.org/2000/svg">
<line x1="109" y1="16" x2="109" y2="1353" stroke="#FFE7E7" stroke-width="2"/>
<line x1="1347" y1="16" x2="1347" y2="1353" stroke="#FFE7E7" stroke-width="2"/>
<line x1="806" y1="197" x2="806" y2="672" stroke="#FFE7E7" stroke-width="2"/>
<line x1="1347" y1="673" x2="118" y2="673" stroke="#FFE7E7" stroke-width="2"/>
<line x1="1347" y1="1344" x2="118" y2="1344" stroke="#FFE7E7" stroke-width="2"/>
<line x1="1347" y1="198" x2="118" y2="198" stroke="#FFE7E7" stroke-width="2"/>
<line x1="1347" y1="15" x2="118" y2="15" stroke="#FFE7E7" stroke-width="2"/>
<path d="M106.5 1354.5C99.8726 1354.5 94.5 1349.13 94.5 1342.5C94.5 1335.87 99.8726 1330.5 106.5 1330.5C113.127 1330.5 118.5 1335.87 118.5 1342.5C118.5 1349.13 113.127 1354.5 106.5 1354.5Z" fill="#FFCECF" stroke="white" stroke-width="3"/>
<line x1="15.7396" y1="331.327" x2="106.74" y2="431.327" stroke="url(#paint0_linear_241_35485)" stroke-width="2"/>
<line x1="14.2388" y1="539.352" x2="106.239" y2="431.352" stroke="url(#paint1_linear_241_35485)" stroke-width="2"/>
<line x1="15" y1="13" x2="106" y2="13" stroke="url(#paint2_linear_241_35485)" stroke-width="2"/>
<line x1="14.1846" y1="327.421" x2="107.185" y2="196.421" stroke="url(#paint3_linear_241_35485)" stroke-width="2"/>
<line y1="-1" x2="128.693" y2="-1" transform="matrix(0.707107 -0.707107 -0.707107 -0.707107 15 760)" stroke="url(#paint4_linear_241_35485)" stroke-width="2"/>
<line x1="15.8292" y1="536.441" x2="106.829" y2="671.441" stroke="url(#paint5_linear_241_35485)" stroke-width="2"/>
<path d="M106.5 683.5C99.8726 683.5 94.5 678.127 94.5 671.5C94.5 664.873 99.8726 659.5 106.5 659.5C113.127 659.5 118.5 664.873 118.5 671.5C118.5 678.127 113.127 683.5 106.5 683.5Z" fill="#FFCECF" stroke="white" stroke-width="3"/>
<path d="M13.5 772.5C6.87259 772.5 1.5 767.127 1.5 760.5C1.5 753.873 6.87258 748.5 13.5 748.5C20.1274 748.5 25.5 753.873 25.5 760.5C25.5 767.127 20.1274 772.5 13.5 772.5Z" fill="#FFEBEB" stroke="white" stroke-width="3"/>
<path d="M13.5 25.5C6.87259 25.5 1.5 20.1274 1.5 13.5C1.5 6.87258 6.87258 1.5 13.5 1.5C20.1274 1.5 25.5 6.87258 25.5 13.5C25.5 20.1274 20.1274 25.5 13.5 25.5Z" fill="#FFEBEB" stroke="white" stroke-width="3"/>
<path d="M4 536.5C4 541.747 8.2533 546 13.5 546C18.7467 546 23 541.747 23 536.5C23 531.253 18.7467 527 13.5 527C8.2533 527 4 531.253 4 536.5Z" fill="#FBFBFB" stroke="#FFEBEB" stroke-width="2"/>
<path d="M4 327.909C4 333.155 8.2533 337.409 13.5 337.409C18.7467 337.409 23 333.155 23 327.909C23 322.662 18.7467 318.409 13.5 318.409C8.2533 318.409 4 322.662 4 327.909Z" fill="#FBFBFB" stroke="#FFEBEB" stroke-width="2"/>
<path d="M106.5 25.5C99.8726 25.5 94.5 20.1274 94.5 13.5C94.5 6.87258 99.8726 1.5 106.5 1.5C113.127 1.5 118.5 6.87258 118.5 13.5C118.5 20.1274 113.127 25.5 106.5 25.5Z" fill="#FFCECF" stroke="white" stroke-width="3"/>
<path d="M97 431.5C97 436.747 101.253 441 106.5 441C111.747 441 116 436.747 116 431.5C116 426.253 111.747 422 106.5 422C101.253 422 97 426.253 97 431.5Z" fill="#FBFBFB" stroke="#FFCECF" stroke-width="2"/>
<path d="M97 197.5C97 202.747 101.253 207 106.5 207C111.747 207 116 202.747 116 197.5C116 192.253 111.747 188 106.5 188C101.253 188 97 192.253 97 197.5Z" fill="#FBFBFB" stroke="#FFCECF" stroke-width="2"/>
<line y1="-1" x2="135.207" y2="-1" transform="matrix(-0.673041 0.739605 0.739605 0.673041 1439 332)" stroke="url(#paint6_linear_241_35485)" stroke-width="2"/>
<line y1="-1" x2="141.873" y2="-1" transform="matrix(-0.648466 -0.761243 -0.761243 0.648466 1439 540)" stroke="url(#paint7_linear_241_35485)" stroke-width="2"/>
<line y1="-1" x2="91" y2="-1" transform="matrix(-1 -6.97849e-08 -1.09519e-07 1 1439 14)" stroke="url(#paint8_linear_241_35485)" stroke-width="2"/>
<line y1="-1" x2="160.655" y2="-1" transform="matrix(-0.578881 -0.815412 -0.815412 0.578881 1439 328)" stroke="url(#paint9_linear_241_35485)" stroke-width="2"/>
<line x1="1438.29" y1="760.707" x2="1347.29" y2="669.707" stroke="url(#paint10_linear_241_35485)" stroke-width="2"/>
<line y1="-1" x2="162.807" y2="-1" transform="matrix(-0.558945 0.829205 0.829205 0.558945 1439 537)" stroke="url(#paint11_linear_241_35485)" stroke-width="2"/>
<path d="M1347.5 683.5C1354.13 683.5 1359.5 678.127 1359.5 671.5C1359.5 664.873 1354.13 659.5 1347.5 659.5C1340.87 659.5 1335.5 664.873 1335.5 671.5C1335.5 678.127 1340.87 683.5 1347.5 683.5Z" fill="#FFCECF" stroke="white" stroke-width="3"/>
<path d="M1440.5 772.5C1447.13 772.5 1452.5 767.127 1452.5 760.5C1452.5 753.873 1447.13 748.5 1440.5 748.5C1433.87 748.5 1428.5 753.873 1428.5 760.5C1428.5 767.127 1433.87 772.5 1440.5 772.5Z" fill="#FFEBEB" stroke="white" stroke-width="3"/>
<path d="M1440.5 25.5C1447.13 25.5 1452.5 20.1274 1452.5 13.5C1452.5 6.87258 1447.13 1.5 1440.5 1.5C1433.87 1.5 1428.5 6.87258 1428.5 13.5C1428.5 20.1274 1433.87 25.5 1440.5 25.5Z" fill="#FFEBEB" stroke="white" stroke-width="3"/>
<path d="M1450 536.5C1450 541.747 1445.75 546 1440.5 546C1435.25 546 1431 541.747 1431 536.5C1431 531.253 1435.25 527 1440.5 527C1445.75 527 1450 531.253 1450 536.5Z" fill="#FBFBFB" stroke="#FFEBEB" stroke-width="2"/>
<path d="M1450 327.909C1450 333.155 1445.75 337.409 1440.5 337.409C1435.25 337.409 1431 333.155 1431 327.909C1431 322.662 1435.25 318.409 1440.5 318.409C1445.75 318.409 1450 322.662 1450 327.909Z" fill="#FBFBFB" stroke="#FFEBEB" stroke-width="2"/>
<path d="M1347.5 25.5C1354.13 25.5 1359.5 20.1274 1359.5 13.5C1359.5 6.87258 1354.13 1.5 1347.5 1.5C1340.87 1.5 1335.5 6.87258 1335.5 13.5C1335.5 20.1274 1340.87 25.5 1347.5 25.5Z" fill="#FFCECF" stroke="white" stroke-width="3"/>
<path d="M1357 431.5C1357 436.747 1352.75 441 1347.5 441C1342.25 441 1338 436.747 1338 431.5C1338 426.253 1342.25 422 1347.5 422C1352.75 422 1357 426.253 1357 431.5Z" fill="#FBFBFB" stroke="#FFCECF" stroke-width="2"/>
<path d="M1357 197.5C1357 202.747 1352.75 207 1347.5 207C1342.25 207 1338 202.747 1338 197.5C1338 192.253 1342.25 188 1347.5 188C1352.75 188 1357 192.253 1357 197.5Z" fill="#FBFBFB" stroke="#FFCECF" stroke-width="2"/>
<path d="M796 197.5C796 202.747 800.253 207 805.5 207C810.747 207 815 202.747 815 197.5C815 192.253 810.747 188 805.5 188C800.253 188 796 192.253 796 197.5Z" fill="#FBFBFB" stroke="#FFCECF" stroke-width="2"/>
<path d="M1337 1342.5C1337 1347.75 1341.25 1352 1346.5 1352C1351.75 1352 1356 1347.75 1356 1342.5C1356 1337.25 1351.75 1333 1346.5 1333C1341.25 1333 1337 1337.25 1337 1342.5Z" fill="#FBFBFB" stroke="#FFCECF" stroke-width="2"/>
<path d="M796 671.5C796 676.747 800.253 681 805.5 681C810.747 681 815 676.747 815 671.5C815 666.253 810.747 662 805.5 662C800.253 662 796 666.253 796 671.5Z" fill="#FBFBFB" stroke="#FFCECF" stroke-width="2"/>
<defs>
<linearGradient id="paint0_linear_241_35485" x1="58.4627" y1="378.348" x2="15.9434" y2="331.441" gradientUnits="userSpaceOnUse">
<stop stop-color="#FCBABB"/>
<stop offset="1" stop-color="#FCBABB" stop-opacity="0"/>
</linearGradient>
<linearGradient id="paint1_linear_241_35485" x1="57.5049" y1="488.636" x2="14.3238" y2="539.119" gradientUnits="userSpaceOnUse">
<stop stop-color="#FCBABB"/>
<stop offset="1" stop-color="#FCBABB" stop-opacity="0"/>
</linearGradient>
<linearGradient id="paint2_linear_241_35485" x1="57.7592" y1="13.0488" x2="15.149" y2="12.9932" gradientUnits="userSpaceOnUse">
<stop stop-color="#FCBABB"/>
<stop offset="1" stop-color="#FCBABB" stop-opacity="0"/>
</linearGradient>
<linearGradient id="paint3_linear_241_35485" x1="57.9233" y1="265.895" x2="14.2355" y2="327.134" gradientUnits="userSpaceOnUse">
<stop stop-color="#FCBABB"/>
<stop offset="1" stop-color="#FCBABB" stop-opacity="0"/>
</linearGradient>
<linearGradient id="paint4_linear_241_35485" x1="60.4706" y1="-0.951242" x2="0.210872" y2="-1.06242" gradientUnits="userSpaceOnUse">
<stop stop-color="#FCBABB"/>
<stop offset="1" stop-color="#FCBABB" stop-opacity="0"/>
</linearGradient>
<linearGradient id="paint5_linear_241_35485" x1="58.548" y1="599.902" x2="16.0855" y2="536.59" gradientUnits="userSpaceOnUse">
<stop stop-color="#FCBABB"/>
<stop offset="1" stop-color="#FCBABB" stop-opacity="0"/>
</linearGradient>
<linearGradient id="paint6_linear_241_35485" x1="63.5313" y1="-0.951242" x2="0.221568" y2="-1.07395" gradientUnits="userSpaceOnUse">
<stop stop-color="#FCBABB"/>
<stop offset="1" stop-color="#FCBABB" stop-opacity="0"/>
</linearGradient>
<linearGradient id="paint7_linear_241_35485" x1="66.6635" y1="-0.951242" x2="0.232516" y2="-1.08635" gradientUnits="userSpaceOnUse">
<stop stop-color="#FCBABB"/>
<stop offset="1" stop-color="#FCBABB" stop-opacity="0"/>
</linearGradient>
<linearGradient id="paint8_linear_241_35485" x1="42.7592" y1="-0.951242" x2="0.149036" y2="-1.00683" gradientUnits="userSpaceOnUse">
<stop stop-color="#FCBABB"/>
<stop offset="1" stop-color="#FCBABB" stop-opacity="0"/>
</linearGradient>
<linearGradient id="paint9_linear_241_35485" x1="75.4887" y1="-0.951242" x2="0.263386" y2="-1.12449" gradientUnits="userSpaceOnUse">
<stop stop-color="#FCBABB"/>
<stop offset="1" stop-color="#FCBABB" stop-opacity="0"/>
</linearGradient>
<linearGradient id="paint10_linear_241_35485" x1="1395.57" y1="717.913" x2="1438.1" y2="760.602" gradientUnits="userSpaceOnUse">
<stop stop-color="#FCBABB"/>
<stop offset="1" stop-color="#FCBABB" stop-opacity="0"/>
</linearGradient>
<linearGradient id="paint11_linear_241_35485" x1="76.4998" y1="-0.951242" x2="0.266924" y2="-1.12916" gradientUnits="userSpaceOnUse">
<stop stop-color="#FCBABB"/>
<stop offset="1" stop-color="#FCBABB" stop-opacity="0"/>
</linearGradient>
</defs>
</svg>
