<svg width="505" height="142" viewBox="0 0 505 142" fill="none" xmlns="http://www.w3.org/2000/svg">
<path d="M67.4492 124.25L102.949 88.75M70.9992 92.3L99.3992 63.9L70.9992 92.3ZM106.499 124.25L70.9992 88.75L106.499 124.25ZM102.949 92.3L74.5492 63.9L102.949 92.3Z" stroke="#B71A1B" stroke-linecap="round"/>
<path d="M14.1992 85.2H17.7492V134.9H14.1992V85.2Z" fill="#B71A1B"/>
<path d="M95.8492 49.7L106.499 124.25M78.0992 46.15L67.4492 124.25L78.0992 46.15Z" stroke="#B71A1B" stroke-width="2"/>
<path d="M10.9551 36.7921L16.6812 22.23L136.501 62.4976L131.918 77.5674L10.9551 36.7921Z" fill="white"/>
<path d="M17.7146 24.4523L134.3 63.6301L130.75 75.2989L13.2913 35.7058L17.7146 24.4523ZM15.6485 20.0112L8.62305 37.8784L133.086 79.8323L138.706 61.3652L15.6485 20.0112Z" fill="#B71A1B"/>
<path d="M15.2287 83.4252C13.191 79.7012 5.32422 63.7191 5.32422 39.0502C5.32422 8.0019 29.4962 5.32875 37.2742 5.27905V28.0771L16.5174 83.4252H15.2287Z" fill="white"/>
<path d="M35.5008 7.11071V27.754L15.7202 80.507C12.905 74.7169 7.10078 60.201 7.10078 39.0501C7.10078 11.7222 26.8068 7.59706 35.5008 7.11071ZM37.4852 3.50391C30.6266 3.50746 3.55078 5.62326 3.55078 39.0501C3.55078 68.1636 14.2008 85.2001 14.2008 85.2001H17.7508L39.0508 28.4001V3.55006C39.0508 3.55006 38.4828 3.50391 37.4852 3.50391Z" fill="#B71A1B"/>
<path d="M126.632 68.6182L114.615 128.815" stroke="#B71A1B" stroke-linecap="round"/>
<path d="M51.4746 136.675V131.35C51.4746 126.454 55.4542 122.475 60.3496 122.475H113.6C118.495 122.475 122.475 126.454 122.475 131.35V136.675H51.4746Z" fill="white"/>
<path d="M113.599 124.25C117.515 124.25 120.699 127.434 120.699 131.35V134.9H53.2492V131.35C53.2492 127.434 56.4336 124.25 60.3492 124.25H113.599ZM113.599 120.7H60.3492C54.4669 120.7 49.6992 125.468 49.6992 131.35V138.45H124.249V131.35C124.249 125.468 119.482 120.7 113.599 120.7Z" fill="#B71A1B"/>
<path d="M15.9742 127.8C16.9505 127.8 17.7492 128.599 17.7492 129.575V136.675C17.7492 137.651 16.9505 138.45 15.9742 138.45C14.998 138.45 14.1992 137.651 14.1992 136.675V129.575C14.1992 128.599 14.998 127.8 15.9742 127.8Z" fill="#B71A1B"/>
<path d="M229.917 9.40768C229.159 9.39696 228.406 9.53698 227.703 9.81961C227 10.1022 226.359 10.5218 225.82 11.054C225.28 11.5862 224.851 12.2204 224.559 12.9196C224.266 13.6189 224.115 14.3694 224.115 15.1274C224.115 15.8854 224.266 16.6358 224.559 17.3351C224.851 18.0344 225.28 18.6685 225.82 19.2007C226.359 19.7329 227 20.1525 227.703 20.4351C228.406 20.7178 229.159 20.8578 229.917 20.8471C229.917 20.8471 235.283 51.8887 229.917 70.5369C223.74 91.9989 197.431 117.601 197.431 117.601C197.364 117.704 197.301 117.808 197.241 117.914C192.815 125.294 198.443 135.241 207.049 135.241H287.102C295.708 135.241 301.336 125.294 296.911 117.914C296.851 117.808 296.787 117.704 296.721 117.601C296.721 117.601 270.411 91.9989 264.235 70.5369C258.868 51.8887 264.235 20.8471 264.235 20.8471C264.993 20.8578 265.745 20.7178 266.449 20.4351C267.152 20.1525 267.792 19.7329 268.332 19.2007C268.872 18.6685 269.3 18.0344 269.593 17.3351C269.885 16.6358 270.036 15.8854 270.036 15.1274C270.036 14.3694 269.885 13.6189 269.593 12.9196C269.3 12.2204 268.872 11.5862 268.332 11.054C267.792 10.5218 267.152 10.1022 266.449 9.81961C265.745 9.53698 264.993 9.39696 264.235 9.40768H229.917ZM241.356 20.8471H252.795C252.795 40.9502 252.795 52.2212 252.795 72.3243C252.795 72.3243 253.151 74.6199 253.812 75.5751C254.473 76.5304 263.408 89.4833 263.408 89.4833H230.743L240.339 75.5751C241.001 74.6199 241.355 73.486 241.356 72.3243V20.8471ZM184.159 26.5667C180.996 26.5667 178.439 29.1292 178.439 32.2864V61.0078C171.313 66.3728 167 74.8238 167 83.7636C167 96.8732 175.917 107.837 187.968 111.2C187.986 111.172 188.001 111.14 188.024 111.111L210.836 78.044H179.557C180.901 74.3319 183.426 71.1112 187.041 69.0064C188.803 67.9826 189.879 66.0937 189.879 64.0575V38.0061H201.318V64.0575C201.318 66.0937 202.394 67.9826 204.156 69.0064C207.536 70.974 209.915 73.9367 211.316 77.3513L218.477 66.9732V66.8057C216.859 64.6322 214.96 62.6553 212.758 60.9966V32.2864C212.758 29.1292 210.201 26.5667 207.038 26.5667H184.159ZM281.394 32.2864C278.231 32.2864 275.674 34.8489 275.674 38.0061V66.9732L306.127 111.111C306.333 111.408 306.53 111.707 306.719 112.016C306.788 112.124 306.818 112.248 306.887 112.362H309.992C316.301 112.362 321.432 107.232 321.432 100.923V50.7972L326.548 40.5643C327.435 38.7912 327.343 36.6884 326.302 35.0011C325.256 33.3195 323.416 32.2864 321.432 32.2864H281.394ZM287.114 43.7258H312.182L310.596 46.8873C310.201 47.6766 309.992 48.559 309.992 49.4455V60.8849H287.114V43.7258Z" fill="white"/>
<path fill-rule="evenodd" clip-rule="evenodd" d="M229.891 13.0585L229.865 13.0582C229.591 13.0543 229.319 13.105 229.064 13.2072C228.81 13.3094 228.578 13.4612 228.383 13.6538C228.188 13.8463 228.032 14.0757 227.927 14.3287C227.821 14.5817 227.766 14.8531 227.766 15.1274C227.766 15.4016 227.821 15.6731 227.927 15.926C228.032 16.179 228.188 16.4084 228.383 16.601C228.578 16.7935 228.81 16.9453 229.064 17.0475C229.319 17.1498 229.591 17.2004 229.865 17.1966L232.983 17.1525L233.514 20.2251L229.917 20.8471C229.159 20.8578 228.406 20.7178 227.703 20.4351C227 20.1525 226.359 19.7329 225.82 19.2007C225.28 18.6685 224.851 18.0344 224.559 17.3351C224.266 16.6358 224.115 15.8854 224.115 15.1274C224.115 14.3694 224.266 13.6189 224.559 12.9196C224.851 12.2204 225.28 11.5862 225.82 11.054C226.359 10.5218 227 10.1022 227.703 9.81961C228.406 9.53698 229.159 9.39696 229.917 9.40768H264.235C264.993 9.39696 265.745 9.53698 266.449 9.81961C267.152 10.1022 267.792 10.5218 268.332 11.054C268.872 11.5862 269.3 12.2204 269.593 12.9196C269.885 13.6189 270.036 14.3694 270.036 15.1274C270.036 15.8854 269.885 16.6358 269.593 17.3351C269.3 18.0344 268.872 18.6685 268.332 19.2007C267.792 19.7329 267.152 20.1525 266.449 20.4351C265.745 20.7178 264.993 20.8578 264.235 20.8471L260.637 20.2251L261.168 17.1525L264.286 17.1966C264.561 17.2004 264.833 17.1498 265.087 17.0475C265.342 16.9453 265.573 16.7935 265.769 16.601C265.964 16.4085 266.119 16.179 266.225 15.926C266.331 15.6731 266.385 15.4016 266.385 15.1274C266.385 14.8531 266.331 14.5817 266.225 14.3287C266.119 14.0757 265.964 13.8463 265.769 13.6538C265.573 13.4613 265.342 13.3095 265.087 13.2072C264.833 13.105 264.561 13.0543 264.286 13.0582L264.261 13.0585H229.891ZM296.721 117.601C296.721 117.601 270.411 91.9989 264.235 70.5369C258.868 51.8887 264.235 20.8471 264.235 20.8471C260.637 20.2251 260.637 20.2257 260.637 20.2264L260.637 20.2284L260.632 20.2553L260.619 20.3302C260.609 20.3947 260.593 20.4884 260.573 20.6099C260.533 20.8529 260.476 21.2071 260.406 21.6618C260.266 22.5713 260.074 23.8839 259.86 25.5146C259.433 28.7733 258.921 33.3158 258.579 38.4567C257.904 48.6139 257.857 61.5756 260.726 71.5466C264.03 83.0279 272.562 95.2752 279.956 104.414C283.699 109.04 287.242 112.979 289.849 115.762C291.154 117.155 292.228 118.261 292.978 119.022C293.341 119.391 293.629 119.679 293.831 119.879C296.702 124.821 292.834 131.59 287.102 131.59H207.049C201.317 131.59 197.45 124.821 200.32 119.879C200.522 119.679 200.81 119.391 201.173 119.022C201.924 118.261 202.997 117.155 204.302 115.762C206.91 112.979 210.452 109.04 214.196 104.414C221.59 95.2752 230.121 83.0279 233.425 71.5466C236.295 61.5756 236.247 48.6139 235.572 38.4567C235.23 33.3158 234.718 28.7733 234.291 25.5146C234.078 23.8839 233.885 22.5713 233.745 21.6618C233.675 21.2071 233.618 20.8529 233.578 20.6099C233.558 20.4884 233.543 20.3947 233.532 20.3302L233.519 20.2553L233.514 20.2264C233.514 20.2257 233.514 20.2251 229.917 20.8471C229.917 20.8471 235.283 51.8887 229.917 70.5369C223.74 91.9989 197.431 117.601 197.431 117.601C197.364 117.704 197.301 117.808 197.241 117.914C192.815 125.294 198.443 135.241 207.049 135.241H287.102C295.708 135.241 301.336 125.294 296.911 117.914C296.851 117.808 296.787 117.704 296.721 117.601ZM237.705 17.1962H256.446V72.0074C256.447 72.0107 256.448 72.0141 256.448 72.0175C256.483 72.2007 256.534 72.4495 256.6 72.7148C256.667 72.9869 256.739 73.2326 256.808 73.4236C256.835 73.4985 256.855 73.5473 256.867 73.5741C257.349 74.2717 259.646 77.6005 261.863 80.8143L266.412 87.408L266.413 87.4097C266.413 87.4098 266.413 87.4103 263.408 89.4833C263.408 89.4833 262.327 87.9165 260.89 85.8325C258.194 81.9245 254.243 76.1981 253.812 75.5751C253.151 74.6199 252.795 72.3243 252.795 72.3243V20.8471H241.356V72.3243C241.355 73.486 241.001 74.6199 240.339 75.5751L230.743 89.4833H263.408L266.413 87.4097L270.362 93.1342H223.789L237.337 73.4975C237.577 73.1519 237.705 72.7417 237.705 72.3214V17.1962ZM182.09 62.8291L180.635 63.9245C174.404 68.6153 170.651 75.9961 170.651 83.7636C170.651 94.2653 177.233 103.223 186.516 106.869L203.882 81.6948H174.352L176.124 76.801C177.74 72.3369 180.803 68.4142 185.204 65.8514L185.207 65.8499C185.833 65.4862 186.228 64.8064 186.228 64.0575V34.3553H204.969V64.0575C204.969 64.8064 205.364 65.4862 205.99 65.8499L205.992 65.8511C208.193 67.1319 210.038 68.7541 211.536 70.6052L213.979 67.0643C212.938 65.9041 211.799 64.8457 210.561 63.9127L209.107 62.8173V32.2864C209.107 31.1431 208.182 30.2176 207.038 30.2176H184.159C183.015 30.2176 182.09 31.1431 182.09 32.2864V62.8291ZM218.477 66.9732L211.316 77.3513C211.167 76.9881 211.007 76.6301 210.836 76.2778C210.521 75.6286 210.168 74.999 209.777 74.3931C209.64 74.1817 209.499 73.9731 209.354 73.7676C208.013 71.8767 206.283 70.2445 204.156 69.0064C202.394 67.9826 201.318 66.0937 201.318 64.0575V38.0061H189.879V64.0575C189.879 66.0937 188.803 67.9826 187.041 69.0064C184.677 70.383 182.779 72.2367 181.372 74.3931C180.628 75.534 180.022 76.7595 179.557 78.044H210.836L188.024 111.111C188.008 111.132 187.995 111.155 187.982 111.176C187.978 111.185 187.973 111.193 187.968 111.2C175.917 107.837 167 96.8732 167 83.7636C167 74.8238 171.313 66.3728 178.439 61.0078V32.2864C178.439 29.1292 180.996 26.5667 184.159 26.5667H207.038C210.201 26.5667 212.758 29.1292 212.758 32.2864V60.9966C214.96 62.6553 216.859 64.6322 218.477 66.8057V66.9732ZM184.809 109.371L184.807 109.375L184.809 109.371ZM317.781 49.9354L323.283 38.9316C323.604 38.2884 323.571 37.5315 323.199 36.9242C322.811 36.3059 322.14 35.9373 321.432 35.9373H281.394C280.25 35.9373 279.325 36.8628 279.325 38.0061V65.836L308.907 108.711H309.992C314.285 108.711 317.781 105.215 317.781 100.923V49.9354ZM306.127 111.111L275.674 66.9732V38.0061C275.674 34.8489 278.231 32.2864 281.394 32.2864H321.432C323.416 32.2864 325.256 33.3195 326.302 35.0011C327.343 36.6884 327.435 38.7912 326.548 40.5643L321.432 50.7972V100.923C321.432 107.232 316.301 112.362 309.992 112.362H306.887C306.853 112.306 306.829 112.249 306.805 112.192C306.78 112.131 306.754 112.072 306.719 112.016C306.53 111.707 306.333 111.408 306.127 111.111ZM283.463 40.075H318.098L313.861 48.52C313.861 48.5202 313.861 48.5198 313.861 48.52C313.72 48.8018 313.643 49.1255 313.643 49.4455V64.5358H283.463V40.075ZM312.182 43.7258L310.596 46.8873C310.516 47.0469 310.444 47.2102 310.379 47.3767C310.125 48.0335 309.992 48.7382 309.992 49.4455V60.8849H287.114V43.7258H312.182Z" fill="#B71A1B"/>
<path d="M391.073 9.40698C385.989 9.40698 381.8 13.5955 381.8 18.6802V22.212C376.483 23.5947 372.527 28.391 372.527 34.1355V49.5909H391.073V55.773H372.527V75.4001C365.334 77.9533 360.163 84.8074 360.163 92.8658C360.163 100.924 365.334 107.778 372.527 110.332V126.868H353.98V133.05H496.17H502.352V129.959V126.868H493.078V68.1372H489.788L486.697 21.7712H474.532L471.852 61.9551H480.714V68.1372H421.984V18.6802C421.984 13.5955 417.795 9.40698 412.711 9.40698H391.073ZM391.073 15.5891H412.711C414.457 15.5891 415.802 16.9336 415.802 18.6802V68.1372H403.438V126.868H397.255V34.1355C397.255 28.391 393.299 23.5947 387.982 22.212V18.6802C387.982 16.9336 389.327 15.5891 391.073 15.5891ZM378.709 80.5015C385.528 80.5015 391.073 86.0469 391.073 92.8658C391.073 99.6847 385.528 105.23 378.709 105.23C371.89 105.23 366.345 99.6847 366.345 92.8658C366.345 86.0469 371.89 80.5015 378.709 80.5015ZM412.711 80.5015H425.075V86.6837H412.711V80.5015ZM431.257 80.5015H443.621V86.6837H431.257V80.5015ZM452.895 80.5015H465.259V86.6837H452.895V80.5015ZM471.441 80.5015H483.805V86.6837H471.441V80.5015ZM412.711 95.9568H425.075V102.139H412.711V95.9568ZM431.257 95.9568H443.621V102.139H431.257V95.9568ZM452.895 95.9568H465.259V102.139H452.895V95.9568ZM471.441 95.9568H483.805V102.139H471.441V95.9568Z" fill="white"/>
<path fill-rule="evenodd" clip-rule="evenodd" d="M379.974 18.6803C379.974 12.5874 384.98 7.58167 391.073 7.58167H412.71C418.803 7.58167 423.809 12.5874 423.809 18.6803V66.3119H478.888V63.7807H469.9L472.824 19.9459H488.404L491.495 66.3119H494.903V125.042H504.176V134.875H352.154V125.042H370.701V111.576C363.445 108.463 358.336 101.265 358.336 92.8659C358.336 84.467 363.445 77.269 370.701 74.1556V53.9477H389.247V51.4164H370.701V34.1356C370.701 28.0303 374.584 22.8744 379.974 20.8752V18.6803ZM391.073 11.2325C386.996 11.2325 383.625 14.6037 383.625 18.6803V23.6235L382.259 23.9788C377.713 25.161 374.352 29.2564 374.352 34.1356V47.7655H392.898V57.5985H374.352V76.6892L373.137 77.1204C366.644 79.4251 361.987 85.6094 361.987 92.8659C361.987 100.122 366.644 106.307 373.137 108.611L374.352 109.043V128.693H355.805V131.224H500.525V128.693H491.252V69.9628H488.08L484.989 23.5968H476.239L473.802 60.1298H482.539V69.9628H420.158V18.6803C420.158 14.6037 416.787 11.2325 412.71 11.2325H391.073ZM391.073 17.4147C390.334 17.4147 389.807 17.9419 389.807 18.6803V20.8752C395.197 22.8744 399.08 28.0303 399.08 34.1356V125.042H401.611V66.3119H413.976V18.6803C413.976 17.9419 413.448 17.4147 412.71 17.4147H391.073ZM386.156 18.6803C386.156 15.9256 388.318 13.7638 391.073 13.7638H412.71C415.465 13.7638 417.626 15.9256 417.626 18.6803V69.9628H405.262V128.693H395.429V34.1356C395.429 29.2564 392.068 25.161 387.522 23.9788L386.156 23.6235V18.6803ZM378.708 82.3271C372.898 82.3271 368.169 87.0552 368.169 92.8659C368.169 98.6766 372.898 103.405 378.708 103.405C384.519 103.405 389.247 98.6766 389.247 92.8659C389.247 87.0552 384.519 82.3271 378.708 82.3271ZM364.519 92.8659C364.519 85.0389 370.881 78.6762 378.708 78.6762C386.535 78.6762 392.898 85.0389 392.898 92.8659C392.898 100.693 386.535 107.056 378.708 107.056C370.881 107.056 364.519 100.693 364.519 92.8659ZM410.885 78.6762H426.9V88.5092H410.885V78.6762ZM414.535 82.3271V84.8583H423.249V82.3271H414.535ZM429.431 78.6762H445.446V88.5092H429.431V78.6762ZM433.082 82.3271V84.8583H441.795V82.3271H433.082ZM451.068 78.6762H467.084V88.5092H451.068V78.6762ZM454.719 82.3271V84.8583H463.433V82.3271H454.719ZM469.615 78.6762H485.63V88.5092H469.615V78.6762ZM473.266 82.3271V84.8583H481.979V82.3271H473.266ZM410.885 94.1315H426.9V103.965H410.885V94.1315ZM414.535 97.7824V100.314H423.249V97.7824H414.535ZM429.431 94.1315H445.446V103.965H429.431V94.1315ZM433.082 97.7824V100.314H441.795V97.7824H433.082ZM451.068 94.1315H467.084V103.965H451.068V94.1315ZM454.719 97.7824V100.314H463.433V97.7824H454.719ZM469.615 94.1315H485.63V103.965H469.615V94.1315ZM473.266 97.7824V100.314H481.979V97.7824H473.266Z" fill="#B71A1B"/>
</svg>
