<?xml version="1.0" standalone="no"?>
<!DOCTYPE svg PUBLIC "-//W3C//DTD SVG 20010904//EN"
 "http://www.w3.org/TR/2001/REC-SVG-20010904/DTD/svg10.dtd">
<svg version="1.0" xmlns="http://www.w3.org/2000/svg"
 width="208.000000pt" height="208.000000pt" viewBox="0 0 208.000000 208.000000"
 preserveAspectRatio="xMidYMid meet">
<metadata>
Created by potrace 1.14, written by Peter Selinger 2001-2017
</metadata>
<g transform="translate(0.000000,208.000000) scale(0.100000,-0.100000)"
fill="#000000" stroke="none">
<path d="M675 2041 c-3 -7 -2 -10 4 -9 5 2 16 -6 24 -17 9 -11 18 -17 21 -14
3 3 -5 16 -18 28 -16 15 -26 19 -31 12z"/>
<path d="M713 2037 c3 -7 10 -11 16 -9 7 1 10 -1 7 -6 -2 -4 -1 -14 5 -22 5
-9 9 -10 9 -4 0 7 18 14 40 16 22 2 40 0 40 -5 0 -4 6 -2 14 5 11 11 11 15 -2
24 -13 9 -19 8 -28 -5 -7 -9 -16 -13 -20 -8 -4 4 -2 7 4 7 7 0 12 4 12 8 0 5
-23 9 -51 9 -34 1 -49 -3 -46 -10z"/>
<path d="M679 2016 c-2 -3 -18 -7 -34 -9 -17 -2 -29 -10 -27 -16 1 -8 -2 -9
-9 -5 -9 5 -10 2 -6 -10 4 -10 3 -15 -4 -11 -5 4 -7 16 -3 27 4 14 2 18 -5 14
-6 -4 -11 -16 -11 -27 0 -13 -6 -20 -17 -18 -10 1 -21 0 -25 -1 -13 -4 -28 -7
-39 -9 -5 0 -8 -5 -5 -10 3 -5 16 -7 29 -4 12 3 20 3 17 0 -3 -3 -21 -9 -40
-12 -59 -10 -74 -16 -60 -25 7 -4 9 -13 6 -19 -4 -6 -12 -9 -17 -6 -11 8 -53
-4 -45 -12 11 -11 -16 -33 -40 -33 -12 0 -26 -4 -29 -10 -3 -5 -1 -10 5 -10 6
0 8 -4 5 -10 -3 -5 -17 -10 -31 -10 -22 0 -30 -13 -25 -42 0 -5 -10 -8 -24 -8
-17 0 -23 -4 -19 -15 4 -10 -3 -18 -20 -25 -17 -6 -26 -16 -24 -27 2 -13 -3
-18 -19 -17 -18 0 -23 -5 -23 -23 0 -21 -10 -28 -33 -24 -5 1 -5 -8 -2 -20 5
-15 4 -19 -4 -15 -6 4 -11 4 -10 -1 4 -24 -2 -53 -12 -53 -5 0 -7 6 -3 13 5 8
2 7 -10 -2 -12 -10 -14 -16 -5 -21 8 -5 8 -9 0 -11 -5 -2 -11 -19 -13 -36 -2
-24 -7 -33 -20 -33 -10 0 -18 -1 -18 -2 -6 -36 -6 -472 -1 -448 5 19 9 30 10
23 0 -7 8 -10 18 -6 11 4 12 8 5 11 -7 2 -12 8 -12 13 0 6 5 7 10 4 6 -4 10 6
10 22 0 32 19 70 21 43 1 -8 1 -19 0 -23 -1 -5 3 -6 8 -3 5 3 12 28 16 56 5
40 9 47 20 37 9 -9 10 -14 1 -19 -7 -5 -7 -8 0 -8 18 0 24 13 13 27 -8 9 -8
13 -1 13 6 0 12 10 14 22 2 12 9 23 16 26 8 2 10 -3 7 -15 -3 -10 0 -8 7 5 7
15 18 22 29 19 12 -3 16 0 12 9 -3 8 -9 12 -13 9 -5 -3 -11 -2 -13 2 -3 5 13
9 36 10 22 2 42 4 43 6 2 2 4 51 5 110 2 105 5 115 25 100 5 -5 1 0 -9 9 -13
13 -16 22 -9 35 15 27 15 35 0 45 -10 7 -10 9 2 7 32 -3 37 2 35 36 -1 19 3
35 7 35 5 0 7 4 4 9 -3 5 1 12 10 15 10 4 13 2 8 -7 -5 -8 -4 -9 4 -2 6 6 12
27 14 47 2 33 4 36 22 26 19 -10 20 -10 7 6 -12 14 -12 16 2 10 12 -4 15 0 13
20 -2 15 2 26 8 25 27 -3 36 2 36 21 0 13 7 20 20 20 19 0 24 10 21 38 -2 10
2 11 17 3 15 -8 21 -7 26 4 3 8 14 12 26 10 11 -2 18 0 15 6 -4 5 -12 7 -18 3
-7 -3 -3 2 7 10 11 9 31 16 45 16 19 0 22 3 12 9 -21 13 -4 31 30 31 17 0 28
4 25 8 -3 5 1 9 9 9 8 0 12 -4 9 -9 -3 -4 0 -8 5 -8 16 0 14 35 -2 49 -8 6
-16 9 -18 7z m-545 -432 c3 -8 2 -12 -4 -9 -6 3 -10 10 -10 16 0 14 7 11 14
-7z m-99 -173 c3 -5 2 -12 -3 -15 -5 -3 -9 1 -9 9 0 17 3 19 12 6z"/>
<path d="M1469 1967 c0 -1 -2 -12 -5 -25 -3 -17 0 -21 8 -16 7 4 6 -1 -3 -12
-9 -10 -14 -25 -12 -31 4 -11 -8 -17 -29 -14 -3 0 -9 -18 -13 -40 -5 -28 -11
-39 -23 -37 -10 2 -18 -6 -22 -22 -5 -20 -12 -25 -40 -25 -49 -2 -59 3 -52 27
3 14 1 19 -6 15 -18 -12 -41 3 -37 24 5 23 1 24 -16 2 -12 -14 -12 -16 0 -8
10 5 12 4 7 -3 -12 -20 -28 -13 -21 8 4 11 3 20 -2 19 -32 -6 -53 3 -53 21 0
20 -1 21 -85 24 -19 0 -35 5 -35 9 0 9 -33 5 -40 -5 -3 -4 -11 1 -17 11 -9 14
-8 18 3 18 7 0 11 -4 9 -8 -3 -4 3 -6 12 -5 10 2 16 7 13 12 -7 12 -170 14
-170 2 0 -5 4 -7 8 -4 5 3 9 -1 9 -8 0 -9 -11 -13 -34 -11 -19 1 -36 -2 -40
-8 -3 -5 -9 -3 -14 4 -5 9 -9 10 -9 2 0 -6 -13 -10 -30 -9 -24 2 -30 -2 -28
-15 2 -10 -1 -18 -7 -18 -5 0 -9 7 -7 15 2 8 -2 14 -8 14 -5 0 -10 -9 -10 -20
0 -15 -7 -20 -27 -21 -16 -1 -32 -2 -38 -4 -5 -1 -14 -3 -19 -3 -5 -1 -2 -10
5 -19 10 -11 10 -14 2 -9 -7 4 -13 2 -13 -4 0 -6 -8 -10 -17 -8 -11 2 -22 -6
-28 -19 -5 -13 -18 -23 -29 -23 -13 0 -17 -5 -13 -19 3 -15 -1 -21 -17 -23
-15 -2 -22 -11 -24 -31 -2 -18 -8 -27 -16 -24 -7 3 -13 -1 -13 -9 0 -7 4 -11
9 -8 4 3 8 0 8 -5 0 -6 -9 -11 -20 -11 -16 0 -19 -5 -16 -26 4 -20 2 -24 -11
-20 -13 5 -13 4 -4 -7 9 -11 8 -17 -2 -26 -8 -6 -16 -9 -18 -6 -3 2 -5 -4 -6
-15 -1 -12 3 -17 12 -14 7 3 16 1 19 -4 3 -5 -2 -9 -12 -8 -11 1 -17 -6 -17
-19 0 -11 5 -20 12 -20 6 0 15 -3 19 -7 3 -4 -3 -6 -15 -3 -16 3 -21 -1 -21
-16 0 -14 4 -18 13 -13 9 6 9 4 -1 -8 -7 -9 -12 -20 -11 -24 1 -5 1 -35 0 -66
-1 -50 -3 -57 -18 -52 -17 5 -17 5 -1 -6 26 -16 23 -33 -3 -19 -15 8 -19 8
-15 0 5 -7 -4 -14 -23 -17 -34 -7 -37 -13 -18 -33 6 -7 8 -12 2 -11 -5 2 -21
2 -34 1 -20 -1 -22 -3 -11 -16 7 -9 10 -18 6 -22 -3 -3 -6 -1 -6 6 0 9 -5 7
-16 -3 -8 -9 -13 -22 -9 -28 3 -7 0 -5 -7 5 -11 15 -14 12 -23 -30 -6 -30 -16
-48 -24 -48 -17 0 -24 -32 -9 -42 6 -3 8 -1 5 4 -4 6 0 16 8 23 12 10 16 9 20
-2 3 -8 13 -15 22 -15 14 0 14 1 -1 12 -8 7 -13 15 -9 18 3 4 11 2 18 -3 8 -7
12 -5 13 5 1 8 3 21 4 28 1 8 7 14 15 14 9 0 10 -4 2 -13 -7 -8 -7 -14 1 -19
5 -3 11 -4 11 -1 1 3 3 11 4 16 1 6 3 15 4 21 0 6 10 9 22 6 17 -5 20 -2 16
14 -3 10 -1 17 4 13 5 -3 9 1 9 8 0 9 3 9 10 -2 6 -10 10 -11 10 -2 0 6 6 12
14 12 10 0 13 8 11 21 -3 12 -1 18 3 15 4 -4 7 -13 7 -19 0 -5 6 -12 14 -15 8
-3 11 0 7 7 -4 6 -1 11 6 11 9 0 9 3 -2 10 -11 7 -4 10 25 10 29 0 44 5 53 20
7 11 20 20 30 19 13 0 12 -3 -5 -11 -13 -6 -23 -15 -23 -20 0 -5 11 -1 25 8
14 9 25 20 25 24 0 4 12 7 28 8 59 0 59 0 58 44 -1 23 -7 43 -14 46 -15 5 -16
-10 -1 -25 7 -7 6 -12 -3 -15 -10 -4 -14 14 -16 84 -2 56 1 87 7 84 5 -4 13
-1 17 5 4 7 3 9 -4 5 -16 -10 -26 14 -12 27 10 9 11 9 6 0 -4 -7 -3 -13 3 -13
11 0 34 71 26 79 -10 9 17 30 32 24 12 -5 14 -3 8 7 -6 10 -4 12 8 7 10 -3 17
-2 17 3 0 6 -5 10 -12 10 -29 0 11 20 44 22 23 2 33 7 27 13 -12 12 -12 28 0
20 5 -3 12 -1 16 5 4 6 10 8 15 5 4 -3 19 5 33 17 19 17 38 22 86 24 33 0 58
-3 55 -8 -3 -4 0 -8 5 -8 6 0 11 4 11 9 0 6 10 8 21 6 29 -6 33 -11 14 -19 -9
-3 -13 -2 -10 4 9 15 -1 12 -14 -4 -10 -12 -9 -14 6 -11 10 1 24 -2 31 -8 8
-6 12 -6 12 3 0 9 4 9 17 -1 9 -8 19 -13 22 -11 3 2 8 -5 12 -15 7 -15 8 -15
8 5 1 13 5 21 10 17 6 -3 8 -14 6 -25 -3 -16 2 -20 21 -20 19 0 24 -5 24 -26
0 -21 4 -24 20 -19 16 5 20 2 20 -19 0 -14 5 -27 10 -27 6 -1 14 -2 19 -3 5 0
13 -5 18 -10 5 -6 2 -6 -6 -1 -11 6 -13 4 -7 -11 5 -10 10 -35 13 -54 5 -36
23 -66 23 -39 0 12 2 12 10 -1 9 -13 10 -13 10 0 0 12 2 13 9 1 7 -11 13 -11
32 3 13 9 18 16 11 16 -6 0 -12 4 -12 8 0 4 9 8 19 8 11 0 17 -5 15 -11 -3 -5
1 -2 9 7 10 13 16 15 25 6 9 -9 12 -9 12 1 0 7 4 10 9 7 5 -4 7 3 4 14 -4 15
0 20 15 20 24 0 53 29 31 31 -8 1 0 4 16 8 21 5 29 12 27 24 -3 16 8 21 36 18
7 -1 12 4 11 11 -3 28 2 38 20 38 13 0 21 8 23 23 2 12 9 23 16 23 6 1 16 2
20 3 5 0 8 11 8 23 -1 13 5 23 12 24 6 1 17 2 23 3 13 1 2 21 -12 21 -6 0 -7
-6 -3 -12 4 -7 3 -9 -1 -5 -20 17 -13 34 12 29 22 -4 24 -2 15 14 -5 11 -6 28
-2 39 4 11 6 25 4 30 -1 6 -5 22 -8 36 -4 19 -12 25 -28 25 -17 -1 -22 4 -20
17 3 16 -23 23 -65 18 -7 -1 -13 3 -13 9 0 6 3 9 8 7 4 -3 12 1 19 8 9 10 7
13 -10 13 -12 0 -39 2 -59 5 -21 3 -38 4 -39 4z m-579 -67 c0 -5 -4 -10 -10
-10 -5 0 -10 5 -10 10 0 6 5 10 10 10 6 0 10 -4 10 -10z m33 -3 c3 -8 -1 -14
-8 -14 -7 0 -11 6 -8 14 3 7 6 13 8 13 2 0 5 -6 8 -13z m31 -3 c5 -14 4 -15
-9 -4 -17 14 -19 20 -6 20 5 0 12 -7 15 -16z m488 -56 c-7 -7 -12 -8 -12 -2 0
6 3 14 7 17 3 4 9 5 12 2 2 -3 -1 -11 -7 -17z m-827 -29 c11 -16 1 -19 -13 -3
-7 8 -8 14 -3 14 5 0 13 -5 16 -11z m106 -182 c-10 -9 -11 -8 -5 6 3 10 9 15
12 12 3 -3 0 -11 -7 -18z m-321 -107 c0 -5 -5 -10 -11 -10 -5 0 -7 5 -4 10 3
6 8 10 11 10 2 0 4 -4 4 -10z m998 -65 c-3 -3 -9 2 -12 12 -6 14 -5 15 5 6 7
-7 10 -15 7 -18z m-88 -35 c0 -5 -2 -10 -4 -10 -3 0 -8 5 -11 10 -3 6 -1 10 4
10 6 0 11 -4 11 -10z m-700 -164 c0 -2 -8 -10 -17 -17 -16 -13 -17 -12 -4 4
13 16 21 21 21 13z"/>
<path d="M1640 1916 c0 -2 7 -7 16 -10 8 -3 12 -2 9 4 -6 10 -25 14 -25 6z"/>
<path d="M806 1902 c-2 -4 4 -9 15 -9 11 -1 17 2 14 8 -7 11 -22 12 -29 1z"/>
<path d="M1170 1859 c0 -5 5 -7 10 -4 6 3 10 8 10 11 0 2 -4 4 -10 4 -5 0 -10
-5 -10 -11z"/>
<path d="M1700 1860 c-8 -5 -12 -12 -9 -15 4 -3 12 1 19 10 14 17 11 19 -10 5z"/>
<path d="M360 1849 c0 -5 5 -7 10 -4 6 3 10 8 10 11 0 2 -4 4 -10 4 -5 0 -10
-5 -10 -11z"/>
<path d="M1694 1809 c0 -10 4 -19 8 -19 4 0 8 6 8 14 0 8 -4 17 -8 20 -4 2 -8
-4 -8 -15z"/>
<path d="M1770 1762 c0 -11 3 -12 13 -3 10 8 14 7 14 -4 0 -7 -3 -14 -6 -13
-19 2 -30 -4 -35 -18 -4 -10 -2 -13 7 -8 9 6 9 4 1 -7 -6 -8 -10 -22 -9 -32 2
-9 -1 -15 -6 -11 -5 3 -7 9 -4 14 3 4 -1 10 -8 13 -7 2 -13 -4 -13 -17 -7
-112 -6 -111 -44 -107 -9 1 -6 -5 9 -17 18 -14 21 -21 11 -27 -9 -5 -11 -4 -6
3 4 7 2 12 -3 12 -10 0 -15 -17 -14 -47 1 -7 -7 -13 -18 -13 -24 0 -35 -20
-18 -31 11 -7 11 -9 -3 -9 -11 0 -16 -6 -13 -20 2 -11 1 -19 -3 -19 -20 3 -32
-3 -32 -16 0 -8 -5 -15 -11 -15 -5 0 -7 4 -4 10 4 6 -1 7 -11 3 -11 -4 -13 -8
-6 -11 7 -2 12 -8 12 -13 0 -6 -4 -7 -10 -4 -5 3 -10 1 -10 -5 0 -7 -7 -10
-15 -7 -18 7 -30 -9 -14 -19 8 -5 9 -3 4 6 -5 9 -4 11 4 6 6 -4 9 -12 5 -17
-3 -5 -10 -7 -15 -4 -5 4 -12 0 -15 -8 -3 -9 -13 -13 -25 -10 -11 3 -19 0 -19
-6 0 -7 4 -10 9 -6 5 3 13 0 17 -6 4 -7 3 -9 -4 -5 -6 3 -13 2 -17 -4 -3 -5
-23 -10 -43 -11 -24 0 -31 -3 -20 -7 28 -11 6 -31 -36 -34 -29 -2 -41 -8 -49
-25 -5 -12 -17 -22 -26 -21 -43 3 -102 -3 -97 -10 9 -15 -29 -29 -72 -28 -23
0 -42 -2 -42 -5 0 -4 -8 -6 -17 -5 -10 0 -17 -5 -15 -12 1 -8 -2 -11 -8 -7 -6
3 -8 9 -6 13 2 4 -9 7 -24 7 -16 1 -26 -3 -23 -8 3 -5 -4 -6 -15 -3 -11 4 -23
2 -27 -3 -3 -6 0 -8 8 -5 7 2 14 -1 14 -8 0 -9 -18 -13 -58 -14 -39 0 -56 3
-52 10 5 8 3 8 -8 0 -8 -6 -26 -11 -41 -12 -42 -3 -52 -6 -66 -22 -12 -13 -13
-13 -9 2 5 13 -2 16 -37 15 -43 -2 -62 -23 -20 -23 12 0 21 3 19 6 -2 4 2 7 9
7 7 0 13 -5 13 -12 0 -7 -31 -12 -86 -14 -47 -1 -89 -7 -92 -13 -4 -6 -8 -5
-11 3 -3 8 -9 11 -13 7 -4 -4 -4 -13 1 -21 5 -7 0 -4 -10 8 l-19 20 6 -22 c5
-21 1 -23 -31 -24 -21 -1 -41 -2 -47 -4 -5 -1 -20 -3 -32 -3 -13 -1 -23 -6
-23 -11 0 -6 9 -8 20 -6 11 2 22 0 25 -5 3 -4 -3 -7 -12 -5 -10 1 -22 -1 -28
-5 -5 -5 -26 -9 -45 -11 -43 -4 -52 -8 -44 -20 4 -6 11 -6 20 2 11 9 14 8 14
-5 0 -9 -3 -15 -7 -15 -5 1 -22 1 -40 0 -25 -1 -32 -6 -35 -23 -2 -16 -9 -22
-20 -20 -10 2 -18 -2 -18 -8 0 -6 -4 -9 -9 -6 -5 4 -7 -4 -4 -16 3 -13 2 -20
-2 -16 -11 10 -47 -11 -40 -23 4 -5 -5 -13 -19 -19 -15 -5 -25 -15 -24 -22 2
-7 -7 -17 -19 -23 -19 -8 -23 -18 -24 -55 -1 -25 0 -49 1 -55 1 -5 3 -15 3
-22 0 -7 4 -10 9 -7 12 8 10 -10 -3 -23 -7 -7 -4 -10 13 -9 12 0 23 -5 24 -11
1 -7 2 -20 3 -29 1 -10 7 -14 16 -11 8 4 17 2 20 -3 3 -5 -5 -11 -17 -13 l-23
-4 23 -2 c15 -1 22 -7 22 -20 0 -11 5 -23 10 -26 6 -4 7 -11 4 -17 -4 -7 -2
-8 4 -4 7 4 22 0 34 -10 15 -10 17 -14 6 -11 -12 4 -15 2 -12 -8 3 -7 14 -12
25 -10 15 3 19 -2 19 -21 0 -17 5 -24 20 -24 11 0 21 5 21 10 1 6 2 14 3 19 0
5 5 13 10 18 5 5 6 3 2 -5 -4 -7 -2 -12 5 -12 8 0 8 -4 -1 -15 -11 -13 -10
-14 3 -9 15 5 17 12 18 62 0 19 13 27 40 24 3 -1 6 6 6 13 0 12 -3 12 -16 3
-9 -7 -8 -3 3 10 11 12 26 20 33 18 7 -3 15 -1 18 5 4 5 3 9 -2 8 -18 -3 -33
2 -33 11 0 5 7 7 15 4 8 -4 15 -1 15 6 0 8 8 10 22 7 22 -6 22 -6 4 8 -15 11
-16 15 -5 15 8 0 21 -6 29 -12 8 -7 6 -2 -5 11 -11 14 -15 21 -8 18 6 -4 14
-3 18 2 3 5 14 8 24 6 10 -2 18 3 18 11 0 8 -4 14 -9 14 -4 0 -8 -5 -8 -11 0
-5 -4 -7 -10 -4 -24 15 -9 24 43 26 11 0 15 5 10 12 -5 8 -2 8 9 -1 13 -10 15
-9 14 10 -1 14 5 23 14 24 35 2 41 4 36 12 -2 4 -1 14 3 21 6 9 11 10 15 2 4
-6 2 -11 -4 -11 -6 0 -8 -4 -5 -10 7 -12 26 -14 24 -2 -4 25 4 32 39 33 50 1
88 13 85 27 -2 7 9 12 25 12 15 0 34 6 41 13 11 10 13 10 7 0 -12 -22 19 -14
40 10 16 18 30 23 72 22 29 0 52 2 52 5 0 4 16 5 35 4 25 -2 37 2 45 15 8 15
24 19 92 21 124 3 133 5 131 24 -1 13 4 16 18 13 11 -3 16 -1 13 5 -4 6 1 8
13 4 23 -7 55 2 48 14 -3 4 3 14 12 21 12 10 14 10 9 2 -4 -8 -1 -13 9 -13 9
0 13 5 10 10 -4 6 5 10 19 10 23 0 31 9 27 32 0 4 8 5 19 3 11 -2 20 0 20 5 0
4 8 6 19 3 10 -3 22 1 26 8 6 8 4 10 -4 4 -10 -5 -10 -3 -1 12 7 10 21 20 33
20 11 1 25 7 31 14 8 9 8 10 -1 5 -8 -5 -13 -1 -13 9 0 12 6 15 20 10 12 -4
20 -2 20 5 0 6 4 9 8 6 4 -2 14 0 22 6 12 8 12 9 -2 4 -10 -3 -20 -1 -23 4 -4
6 -1 11 4 11 6 1 17 2 24 3 6 1 12 11 12 23 0 12 4 25 8 29 4 4 7 2 7 -4 0 -7
5 -12 11 -12 5 0 7 5 4 10 -3 6 0 10 8 10 10 0 13 7 10 19 -4 15 1 20 19 23
18 2 23 9 22 31 -1 22 2 26 17 22 20 -7 35 10 18 21 -8 5 -9 3 -4 -6 5 -8 3
-11 -5 -8 -8 2 -16 10 -18 18 -3 7 0 10 5 7 18 -11 34 10 36 49 2 31 6 38 20
36 12 -2 17 4 18 25 4 85 6 103 15 101 5 -2 9 -8 9 -15 0 -29 11 -18 12 12 0
23 -3 33 -11 29 -6 -3 -4 0 4 8 11 10 15 33 14 88 -2 100 -1 98 -24 105 -11 4
-20 15 -20 27 0 14 -5 18 -15 14 -10 -4 -19 2 -24 18 -10 25 -41 31 -41 8z
m115 -103 c-3 -4 -13 -5 -22 -2 -11 4 -13 8 -5 11 7 2 9 9 5 15 -4 7 1 6 10
-2 9 -7 14 -17 12 -22z m-871 -565 c5 -13 4 -14 -7 -6 -8 7 -18 8 -22 4 -5 -4
-5 -1 -1 6 10 17 23 15 30 -4z m260 -250 c5 -14 4 -15 -9 -4 -17 14 -19 20 -6
20 5 0 12 -7 15 -16z m-227 -39 c0 -8 -4 -12 -9 -9 -5 3 -6 10 -3 15 9 13 12
11 12 -6z m-359 -100 c-3 -3 -9 2 -12 12 -6 14 -5 15 5 6 7 -7 10 -15 7 -18z
m47 15 c3 -6 -4 -10 -17 -10 -18 0 -20 2 -8 10 19 12 18 12 25 0z m-635 -124
c0 -2 -8 -10 -17 -17 -16 -13 -17 -12 -4 4 13 16 21 21 21 13z m75 -135 c3 -5
0 -13 -6 -17 -7 -4 -9 -3 -5 4 3 5 0 13 -6 15 -9 4 -10 6 -1 6 6 1 14 -3 18
-8z"/>
<path d="M828 1676 c-23 -17 -23 -25 0 -19 10 2 19 11 19 19 0 8 -1 14 -1 14
-1 0 -9 -7 -18 -14z"/>
<path d="M860 1681 c0 -10 19 -25 25 -20 1 2 -3 10 -11 17 -8 7 -14 8 -14 3z"/>
<path d="M900 1676 c7 -7 13 -7 20 0 6 6 3 10 -10 10 -13 0 -16 -4 -10 -10z"/>
<path d="M895 1553 c3 -12 0 -25 -6 -29 -8 -5 -9 -3 -4 7 7 11 6 12 -6 3 -8
-5 -21 -10 -29 -9 -8 0 -21 -6 -28 -15 -8 -8 -11 -9 -7 -2 4 7 0 12 -9 12 -10
0 -13 -6 -10 -15 4 -10 -3 -18 -21 -25 -14 -5 -23 -15 -20 -20 4 -6 -1 -22
-10 -37 -9 -14 -12 -22 -6 -18 8 5 11 -2 8 -22 -2 -15 0 -34 6 -40 6 -9 6 -13
-2 -13 -7 0 -8 -8 -2 -22 4 -13 6 -28 4 -35 -2 -6 6 -13 18 -15 23 -3 40 -28
19 -28 -6 0 -8 5 -5 10 3 6 1 10 -4 10 -19 0 -12 -19 12 -31 12 -7 23 -12 25
-11 7 5 32 1 31 -5 -1 -5 -1 -15 0 -23 1 -13 2 -13 11 0 5 8 10 10 10 3 0 -7
19 -11 50 -11 28 -1 50 3 50 9 0 5 5 9 11 9 5 0 8 -4 5 -8 -2 -4 4 -8 14 -8
10 0 16 5 13 11 -2 7 4 21 14 31 10 11 14 14 9 7 -6 -10 -5 -12 5 -8 8 3 19
15 24 28 6 12 17 22 25 21 12 -1 15 15 16 88 0 62 -3 87 -11 84 -7 -2 -18 0
-26 5 -10 6 -11 9 -1 10 6 1 17 2 22 3 6 0 10 4 10 9 0 4 0 9 0 12 0 3 -8 1
-18 -4 -14 -7 -19 -6 -20 5 -1 7 -3 20 -4 28 -1 8 -8 12 -16 9 -11 -5 -11 -7
0 -15 10 -8 10 -9 -2 -5 -8 2 -15 10 -15 18 0 10 -12 14 -38 14 -39 -1 -43 3
-27 23 6 6 7 10 4 7 -4 -3 -13 0 -20 6 -10 8 -12 5 -8 -16 4 -22 3 -24 -10
-13 -7 7 -11 17 -8 22 3 5 0 6 -6 2 -5 -3 -13 0 -16 6 -3 7 -3 3 -1 -9z m195
-267 c0 -2 -7 -7 -16 -10 -8 -3 -12 -2 -9 4 6 10 25 14 25 6z m-80 -80 c0 -3
-4 -8 -10 -11 -5 -3 -10 -1 -10 4 0 6 5 11 10 11 6 0 10 -2 10 -4z"/>
<path d="M305 1552 c-14 -10 -18 -49 -6 -56 5 -4 7 3 3 16 -3 12 -1 19 4 15 5
-3 10 3 10 14 0 10 0 19 -1 19 0 0 -4 -4 -10 -8z"/>
<path d="M636 1552 c-3 -6 -1 -14 5 -17 15 -10 25 3 12 16 -7 7 -13 7 -17 1z"/>
<path d="M1199 1497 c6 -8 7 -18 3 -22 -4 -5 -2 -5 5 -1 14 8 6 36 -9 36 -7 0
-6 -5 1 -13z"/>
<path d="M1975 1442 c2 -27 -1 -55 -6 -63 -5 -9 -7 -1 -5 23 2 21 0 36 -4 33
-5 -3 -10 1 -13 7 -2 7 -3 -5 -2 -28 1 -23 6 -47 10 -54 5 -9 4 -11 -3 -6 -11
7 -18 -33 -13 -72 1 -7 -6 -22 -15 -35 -11 -15 -15 -16 -11 -4 4 9 2 17 -3 17
-6 0 -11 -10 -11 -22 -1 -13 -3 -32 -5 -43 -2 -11 -4 -30 -6 -42 -1 -12 -5
-20 -8 -18 -15 9 -29 -14 -32 -51 -2 -23 -8 -41 -15 -41 -8 0 -9 6 -3 18 7 12
6 18 -3 22 -8 3 -13 -8 -14 -31 -3 -48 -9 -62 -30 -62 -12 0 -19 -8 -20 -25
-4 -43 -6 -54 -12 -53 -22 2 -31 -5 -31 -26 0 -19 -4 -23 -19 -19 -12 3 -20
-2 -24 -16 -3 -13 -1 -19 5 -14 7 3 8 1 4 -5 -4 -7 -19 -12 -34 -12 -21 0 -24
-2 -12 -10 13 -9 13 -10 0 -10 -13 0 -13 -1 0 -10 13 -8 12 -10 -5 -11 -11 -1
-23 -1 -28 0 -4 1 -12 -10 -17 -24 -6 -15 -17 -25 -29 -25 -14 0 -19 -5 -16
-20 3 -15 -2 -20 -19 -20 -17 0 -26 -7 -30 -25 -4 -14 -11 -23 -17 -19 -11 6
-40 -26 -33 -37 2 -4 -4 -6 -14 -6 -53 0 -62 -4 -62 -24 0 -14 -5 -19 -15 -16
-8 4 -17 2 -21 -4 -3 -5 -15 -9 -26 -7 -12 2 -23 -3 -25 -12 -4 -12 -2 -12 5
-2 7 10 12 9 23 -4 10 -13 10 -16 1 -10 -7 4 -20 2 -28 -5 -13 -10 -17 -10
-25 2 -6 10 -9 10 -9 2 0 -7 -8 -13 -18 -13 -10 0 -27 -7 -38 -16 -10 -8 -13
-13 -6 -9 6 3 12 1 12 -4 0 -6 -12 -12 -27 -12 -16 -1 -32 -2 -38 -4 -5 -1
-19 -3 -30 -4 -16 -1 -17 -3 -5 -11 9 -6 17 -5 22 3 6 9 8 9 8 0 0 -17 -29
-31 -54 -25 -12 3 -18 1 -14 -3 9 -9 -9 -35 -24 -35 -6 0 -6 6 1 14 8 9 8 16
2 20 -11 7 -18 -2 -17 -24 1 -9 11 -15 26 -15 14 0 28 7 32 15 5 12 7 12 7 -2
1 -10 6 -18 11 -18 9 0 14 15 11 33 -1 5 3 6 9 2 5 -3 10 -3 10 2 0 4 35 9 78
9 116 3 159 8 159 20 0 6 -6 11 -13 11 -7 0 -11 -3 -9 -7 2 -3 -5 -6 -16 -6
-12 0 -15 4 -9 10 5 5 40 11 77 13 37 3 73 9 78 15 7 8 6 9 -2 4 -6 -3 -15 -1
-19 5 -4 7 -3 9 4 5 6 -3 15 2 21 11 6 11 11 13 11 5 0 -7 5 -10 11 -7 6 4 29
9 52 11 23 2 48 5 56 6 8 1 16 9 18 18 3 10 14 18 26 18 44 2 62 10 61 26 -1
9 6 16 16 16 10 0 26 3 35 6 13 5 14 8 3 15 -10 7 -11 9 0 9 7 0 10 5 6 12 -4
6 -3 8 3 5 21 -13 73 5 73 24 0 15 7 19 33 19 18 0 27 4 20 8 -16 10 -3 29 22
34 14 2 19 10 18 28 -1 14 0 20 3 13 8 -17 54 5 54 26 0 14 -2 14 -11 1 -8
-12 -10 -12 -7 -1 2 8 12 15 23 17 20 3 36 23 29 36 -5 7 9 12 27 10 13 -2 16
67 13 263 -2 110 -4 218 -5 240 0 21 -3 34 -7 28 -13 -21 -30 1 -34 42 -3 32
-8 40 -23 40 -11 0 -23 4 -26 8 -3 5 -5 -14 -4 -41z m75 -82 c0 -5 -2 -10 -4
-10 -3 0 -8 5 -11 10 -3 6 -1 10 4 10 6 0 11 -4 11 -10z m-357 -775 c-3 -9 -8
-14 -10 -11 -3 3 -2 9 2 15 9 16 15 13 8 -4z m-73 -43 c0 -5 -7 -9 -15 -9 -8
0 -15 4 -15 9 0 4 7 8 15 8 8 0 15 -4 15 -8z m-392 -56 c-7 -8 -15 -12 -17
-11 -5 6 10 25 20 25 5 0 4 -6 -3 -14z"/>
<path d="M1950 1471 c0 -6 4 -13 10 -16 6 -3 7 1 4 9 -7 18 -14 21 -14 7z"/>
<path d="M1590 1420 c0 -5 5 -10 10 -10 6 0 10 5 10 10 0 6 -4 10 -10 10 -5 0
-10 -4 -10 -10z"/>
<path d="M713 1384 c0 -8 5 -14 10 -14 5 0 4 -7 -3 -15 -10 -12 -10 -15 0 -15
10 0 10 -3 1 -14 -8 -10 -9 -16 -1 -21 12 -8 12 -9 14 42 1 24 -3 44 -9 47 -7
2 -12 -2 -12 -10z"/>
<path d="M1826 1325 c4 -8 11 -15 16 -15 6 0 5 6 -2 15 -7 8 -14 15 -16 15 -2
0 -1 -7 2 -15z"/>
<path d="M1282 1201 c-11 -7 -11 -9 1 -14 16 -6 27 0 27 15 0 10 -11 10 -28
-1z"/>
<path d="M1146 1162 c-3 -5 1 -12 9 -16 15 -5 31 11 21 21 -3 4 -6 0 -6 -8 0
-12 -2 -12 -9 0 -5 8 -11 9 -15 3z"/>
<path d="M1864 1161 c4 -5 1 -12 -4 -14 -6 -3 -5 -4 2 -3 15 3 23 26 8 26 -6
0 -9 -4 -6 -9z"/>
<path d="M455 1020 c-3 -6 1 -7 9 -4 18 7 21 14 7 14 -6 0 -13 -4 -16 -10z"/>
<path d="M1475 929 c-4 -5 -4 -13 -1 -16 3 -4 6 0 6 8 0 11 2 11 10 -1 6 -9
10 -10 10 -3 0 17 -17 25 -25 12z"/>
<path d="M1387 879 c7 -7 15 -10 18 -7 3 3 -2 9 -12 12 -14 6 -15 5 -6 -5z"/>
<path d="M1077 803 c-10 -9 -9 -23 1 -23 5 0 9 7 9 15 0 17 -1 18 -10 8z"/>
<path d="M865 740 c-3 -6 1 -7 9 -4 18 7 21 14 7 14 -6 0 -13 -4 -16 -10z"/>
<path d="M1146 712 c-11 -13 -32 -19 -69 -21 -64 -2 -84 -5 -93 -14 -4 -4 -14
-1 -22 6 -10 7 -13 8 -9 1 10 -17 -21 -39 -57 -40 -62 -3 -63 -3 -46 -14 12
-8 12 -10 -5 -10 -17 0 -17 -2 -5 -10 12 -8 11 -10 -5 -8 -49 4 -105 -3 -105
-13 0 -5 6 -7 13 -3 8 5 8 3 -2 -9 -7 -9 -17 -15 -21 -12 -5 3 -11 2 -14 -3
-3 -5 -23 -7 -45 -5 -36 3 -41 1 -38 -18 2 -22 -6 -26 -60 -31 -12 -1 -20 -5
-17 -9 2 -4 -5 -18 -17 -30 -11 -13 -17 -18 -13 -10 4 9 2 12 -7 9 -8 -3 -15
-10 -15 -16 -1 -7 -2 -17 -3 -23 0 -6 -10 -9 -21 -6 -16 4 -20 0 -20 -18 0
-16 -7 -25 -21 -27 -16 -2 -23 -11 -25 -33 -5 -33 -12 -70 -14 -70 -1 0 -3 -8
-5 -18 -2 -11 -6 -22 -9 -25 -4 -3 -4 5 -2 19 2 13 5 24 6 24 1 0 3 12 5 27 2
16 -1 28 -6 28 -6 0 -7 -4 -4 -10 3 -5 2 -10 -3 -10 -5 0 -9 -22 -9 -50 0 -52
4 -58 26 -37 8 6 11 8 9 2 -3 -5 0 -16 8 -23 8 -7 14 -8 14 -3 0 6 7 8 15 5 8
-4 15 -10 15 -16 0 -5 -6 -6 -12 -2 -10 5 -10 4 -1 -6 12 -13 26 -18 67 -22
10 -2 21 -11 24 -21 3 -10 11 -16 18 -13 7 3 16 1 20 -5 3 -6 17 -9 29 -7 13
2 23 -1 22 -7 -1 -5 -10 -9 -20 -9 -10 1 -15 -1 -12 -5 4 -3 10 -6 13 -6 4 0
12 -4 19 -8 6 -4 14 -3 17 2 4 6 17 4 33 -4 21 -11 29 -12 35 -2 5 8 8 7 8 -5
0 -20 20 -24 37 -7 8 8 13 7 18 -2 5 -8 4 -10 -3 -5 -7 4 -12 1 -12 -8 0 -14
33 -16 283 -16 271 0 283 1 295 20 7 11 18 20 25 20 8 0 7 -4 -3 -10 -12 -8
-12 -10 5 -10 17 0 18 -2 5 -11 -13 -9 -13 -10 0 -6 8 2 15 12 15 23 0 14 6
18 23 16 13 -2 22 2 22 10 0 10 2 10 9 -1 8 -12 12 -12 25 -2 9 7 23 11 31 7
10 -3 14 -2 9 5 -3 6 -18 8 -33 5 -21 -5 -23 -4 -8 4 9 6 27 13 40 16 12 3 29
7 37 9 8 2 19 4 24 4 5 1 3 7 -3 14 -12 15 -6 16 56 17 24 1 31 4 27 15 -9 24
5 38 24 23 12 -10 14 -10 8 0 -7 11 4 16 31 13 6 -1 15 4 19 10 4 8 3 9 -4 5
-7 -4 -20 -2 -29 3 -15 8 -15 11 -3 12 8 1 20 3 25 3 6 1 16 5 23 9 6 5 16 6
21 3 5 -3 11 1 14 9 4 10 1 12 -11 8 -11 -3 -9 0 5 11 14 10 20 23 17 34 -5
14 -4 14 4 2 6 -8 8 -18 6 -22 -3 -4 2 -5 10 -2 8 3 16 15 18 27 2 15 9 21 21
19 13 -2 17 2 15 14 -2 12 5 20 22 24 17 4 26 14 28 30 1 14 3 30 4 37 1 7 5
10 10 6 5 -3 18 4 29 16 11 12 15 21 9 21 -5 0 -10 5 -10 10 0 6 9 10 20 10
17 0 22 9 19 37 0 4 9 10 20 15 27 9 26 20 -1 44 -12 10 -18 13 -14 7 4 -8 2
-13 -6 -14 -7 -1 -20 -2 -28 -3 -9 0 -14 -9 -12 -21 2 -15 -4 -20 -20 -21 -46
-3 -63 -11 -60 -28 2 -11 -4 -16 -23 -16 -18 0 -25 -5 -25 -20 0 -14 -7 -20
-23 -20 -29 0 -40 -10 -27 -25 7 -8 5 -12 -4 -12 -9 0 -13 8 -11 19 3 12 -1
18 -8 15 -7 -2 -11 -11 -9 -21 2 -10 -4 -16 -16 -16 -10 0 -23 -5 -30 -12 -8
-8 -12 -9 -12 -1 0 6 -9 9 -20 6 -11 -3 -20 -14 -20 -24 0 -11 -3 -18 -7 -18
-5 1 -31 1 -60 0 -40 -1 -53 -5 -57 -19 -6 -17 -21 -21 -91 -25 -36 -2 -58
-15 -50 -28 11 -17 -4 -9 -25 13 -11 12 -20 17 -20 10 0 -8 -7 -9 -26 -2 -19
7 -23 7 -18 -2 5 -7 2 -9 -9 -5 -9 3 -21 -1 -29 -11 -11 -13 -11 -14 2 -7 20
12 67 13 82 2 10 -6 8 -7 -4 -4 -9 3 -19 3 -22 0 -10 -11 -60 -10 -73 0 -9 6
-13 6 -13 -2 0 -13 -22 -10 -32 4 -5 7 -8 6 -8 0 0 -13 -348 -14 -368 -1 -7 4
-9 12 -6 18 4 6 7 20 8 32 1 12 8 21 16 21 20 0 42 28 28 36 -5 4 2 9 16 13
18 4 26 13 26 27 0 16 5 20 20 16 19 -5 24 3 21 31 -1 6 7 12 18 12 22 0 45
32 33 45 -4 4 3 2 16 -4 14 -8 22 -8 22 -1 0 5 9 10 20 10 14 0 20 6 18 17 -2
12 7 19 31 24 19 4 40 5 47 2 9 -3 12 2 9 15 -4 23 6 28 51 28 17 -1 37 5 43
12 7 7 8 12 1 12 -5 0 -10 7 -10 15 0 11 5 12 24 5 29 -11 40 -2 23 19 -9 12
-6 12 16 -2 16 -10 31 -16 35 -13 3 3 0 6 -6 6 -7 0 -11 5 -9 12 1 7 -16 13
-47 16 -33 2 -46 0 -42 -7 4 -6 2 -11 -3 -11 -6 0 -11 4 -11 8 0 5 -7 9 -15 9
-8 0 -12 -4 -9 -8 2 -4 1 -9 -3 -12 -5 -2 -3 -2 4 -1 18 4 27 -16 14 -29 -9
-9 -11 -8 -6 4 5 14 0 16 -26 13 -31 -4 -32 -4 -14 16 10 11 16 20 13 20 -3 0
-12 -8 -22 -18z m-177 -63 c-16 -10 -23 -4 -14 10 3 6 11 8 17 5 6 -4 5 -9 -3
-15z m161 -19 c0 -5 -5 -10 -11 -10 -5 0 -7 5 -4 10 3 6 8 10 11 10 2 0 4 -4
4 -10z m880 -51 c0 -5 -8 -9 -17 -8 -11 0 -13 3 -5 6 6 2 9 10 6 15 -4 7 -2 8
4 4 7 -4 12 -11 12 -17z m-1355 -40 c11 -16 1 -19 -13 -3 -7 8 -8 14 -3 14 5
0 13 -5 16 -11z m1235 -13 c-7 -7 -13 -7 -20 0 -6 6 -3 10 10 10 13 0 16 -4
10 -10z m-1310 -49 c0 -7 -4 -6 -10 3 -8 12 -10 12 -10 1 0 -8 -3 -12 -6 -8
-9 9 6 28 17 22 5 -4 9 -12 9 -18z m1084 -75 c3 -5 -1 -9 -9 -9 -8 0 -15 4
-15 9 0 4 4 8 9 8 6 0 12 -4 15 -8z"/>
<path d="M805 630 c-3 -6 1 -7 9 -4 18 7 21 14 7 14 -6 0 -13 -4 -16 -10z"/>
<path d="M1423 623 c0 -9 4 -10 14 -2 7 6 13 12 13 14 0 1 -6 2 -13 2 -8 0
-14 -6 -14 -14z"/>
<path d="M2007 619 c7 -7 15 -10 18 -7 3 3 -2 9 -12 12 -14 6 -15 5 -6 -5z"/>
<path d="M710 591 c0 -6 4 -13 10 -16 6 -3 7 1 4 9 -7 18 -14 21 -14 7z"/>
<path d="M990 531 c0 -5 5 -13 10 -16 6 -3 10 -2 10 4 0 5 -4 13 -10 16 -5 3
-10 2 -10 -4z"/>
<path d="M950 490 c0 -5 5 -10 11 -10 5 0 7 5 4 10 -3 6 -8 10 -11 10 -2 0 -4
-4 -4 -10z"/>
<path d="M1487 485 c3 -8 9 -12 14 -9 12 7 11 11 -5 17 -10 4 -13 1 -9 -8z"/>
<path d="M1920 440 c-13 -8 -12 -10 3 -10 9 0 17 5 17 10 0 12 -1 12 -20 0z"/>
<path d="M1135 406 c-16 -11 -16 -14 -2 -19 8 -3 21 0 27 8 15 19 -3 27 -25
11z"/>
<path d="M1176 394 c-5 -14 -4 -15 9 -4 17 14 19 20 6 20 -5 0 -12 -7 -15 -16z"/>
<path d="M810 361 c0 -10 19 -25 25 -20 1 2 -3 10 -11 17 -8 7 -14 8 -14 3z"/>
<path d="M1350 329 c0 -5 5 -7 10 -4 6 3 10 8 10 11 0 2 -4 4 -10 4 -5 0 -10
-5 -10 -11z"/>
<path d="M1570 140 c0 -5 5 -10 11 -10 5 0 7 5 4 10 -3 6 -8 10 -11 10 -2 0
-4 -4 -4 -10z"/>
<path d="M500 130 c-9 -6 -10 -10 -3 -10 6 0 15 5 18 10 8 12 4 12 -15 0z"/>
</g>
</svg>
