<svg width="868" height="801" viewBox="0 0 868 801" fill="none" xmlns="http://www.w3.org/2000/svg">
<path fill-rule="evenodd" clip-rule="evenodd" d="M750.321 0.50293H286.815L206.139 143.758H366.174L275.815 300.664L436.118 300.552L526.413 143.758H667.921L750.321 0.50293Z" fill="white"/>
<path fill-rule="evenodd" clip-rule="evenodd" d="M346.395 94.1104H28.8781L0.920898 143.759H317.834L346.395 94.1104Z" fill="white"/>
<path fill-rule="evenodd" clip-rule="evenodd" d="M2.03711 218.067L233.792 622.461L397.275 621.219L317.256 481.596L497.323 481.979L417.075 342.177L237.138 341.795L166.386 218.332L2.03711 218.067Z" fill="white"/>
<path fill-rule="evenodd" clip-rule="evenodd" d="M284.467 523.677L443.227 800.697L499.886 800.268L341.427 523.768L284.467 523.677Z" fill="white"/>
<path fill-rule="evenodd" clip-rule="evenodd" d="M568.636 762.881L800.388 358.49L717.581 216.474L637.565 356.1L547.86 198.811L467.805 338.722L557.443 495.902L486.688 619.362L568.636 762.881Z" fill="white"/>
<path fill-rule="evenodd" clip-rule="evenodd" d="M708.827 410.839L867.584 133.822L838.885 84.6016L680.427 361.099L708.827 410.839Z" fill="white"/>
</svg>
