<svg width="40" height="40" viewBox="0 0 40 40" fill="none" xmlns="http://www.w3.org/2000/svg">
<circle cx="20" cy="20" r="20" fill="#43D854"/>
<g clip-path="url(#clip0_5079_11)">
<path d="M25.1356 22.211C24.9146 22.1011 23.4778 21.4419 23.2568 21.3321C23.0358 21.2222 22.8147 21.2222 22.5937 21.4419C22.3727 21.6617 21.9306 22.3208 21.7096 22.5406C21.599 22.7603 21.378 22.7603 21.157 22.6504C20.3833 22.3208 19.6097 21.8814 18.9466 21.3321C18.394 20.7828 17.8414 20.1236 17.3994 19.4644C17.2888 19.2447 17.3994 19.025 17.5099 18.9151C17.6204 18.8052 17.7309 18.5855 17.9519 18.4757C18.0625 18.3658 18.173 18.1461 18.173 18.0362C18.2835 17.9263 18.2835 17.7066 18.173 17.5968C18.0625 17.4869 17.5099 16.1685 17.2888 15.6192C17.1783 14.8502 16.9573 14.8502 16.7362 14.8502H16.1837C15.9626 14.8502 15.6311 15.0699 15.5206 15.1798C14.8574 15.839 14.5259 16.608 14.5259 17.4869C14.6364 18.4757 14.968 19.4644 15.6311 20.3433C16.8468 22.1011 18.394 23.5293 20.2728 24.4082C20.8254 24.628 21.2675 24.8477 21.8201 24.9576C22.3727 25.1773 22.9252 25.1773 23.5884 25.0674C24.362 24.9576 25.0251 24.4082 25.4672 23.7491C25.6882 23.3096 25.6882 22.8702 25.5777 22.4307L25.1356 22.211ZM27.8986 12.2135C23.5884 7.92884 16.6257 7.92884 12.3155 12.2135C8.77896 15.7291 8.11586 21.1124 10.5472 25.397L9 31L14.8574 29.4619C16.5152 30.3408 18.2835 30.7803 20.0518 30.7803C26.1303 30.7803 30.9931 25.9463 30.9931 19.9039C31.1036 17.0474 29.8879 14.3009 27.8986 12.2135ZM24.9146 27.5943C23.4778 28.4732 21.8201 29.0225 20.0518 29.0225C18.394 29.0225 16.8468 28.583 15.41 27.814L15.0785 27.5943L11.6524 28.4732L12.5366 25.1773L12.3155 24.8477C9.66311 20.4532 10.9893 14.9601 15.2995 12.2135C19.6097 9.46692 25.1356 10.8951 27.788 15.0699C30.4405 19.3546 29.2248 24.9576 24.9146 27.5943Z" fill="white"/>
</g>
<defs>
<clipPath id="clip0_5079_11">
<rect width="22" height="22" fill="white" transform="translate(9 9)"/>
</clipPath>
</defs>
</svg>
