<svg width="40" height="40" viewBox="0 0 40 40" fill="none" xmlns="http://www.w3.org/2000/svg">
<circle cx="20" cy="20" r="20" fill="#34AADF"/>
<path fill-rule="evenodd" clip-rule="evenodd" d="M14.81 22.8808L10.1505 20.9533C9.6611 20.7504 9.35002 20.2823 9.36581 19.7715C9.38252 19.2608 9.72145 18.8114 10.2229 18.6378C13.6242 17.4578 23.9119 13.8876 26.8926 12.8527C27.3439 12.697 27.8481 12.7913 28.2047 13.0983C28.5612 13.4062 28.7117 13.877 28.5974 14.3237C27.9345 16.8937 25.8842 24.8474 25.2583 27.275C25.1497 27.6977 24.8182 28.035 24.3855 28.1649C23.9518 28.2957 23.4792 28.1996 23.1384 27.9122L19.9766 25.2505L17.5019 27.5242C17.1463 27.8508 16.63 27.9567 16.1657 27.7992C15.7024 27.6408 15.3718 27.2457 15.3115 26.7776L14.81 22.8808ZM23.7819 26.3228L26.8072 14.5862L11.6733 19.8383L15.668 21.4917C16.0915 21.667 16.3867 22.0443 16.4434 22.483L16.8798 25.877L18.7082 24.1978L18.5466 24.0643C18.2671 23.8356 18.1027 23.5046 18.0925 23.1531C18.0814 22.8016 18.2272 22.4625 18.4918 22.2187C19.4845 21.3066 22.1327 18.8745 22.1327 18.8745C22.4661 18.5684 22.9954 18.5791 23.3148 18.8986C23.6333 19.2171 23.6222 19.7244 23.2897 20.0305L19.945 23.1033L20.4957 23.5553L23.7819 26.3228Z" fill="white"/>
</svg>
