<svg width="54" height="54" viewBox="0 0 54 54" fill="none" xmlns="http://www.w3.org/2000/svg">
<circle cx="27" cy="27" r="27" fill="#34AADF"/>
<path fill-rule="evenodd" clip-rule="evenodd" d="M21.7611 30.1052L15.9366 27.5911C15.3249 27.3265 14.9361 26.7159 14.9558 26.0497C14.9767 25.3834 15.4004 24.7973 16.0271 24.5709C20.2788 23.0318 33.1384 18.375 36.8643 17.0251C37.4284 16.822 38.0586 16.945 38.5044 17.3455C38.9501 17.7471 39.1381 18.3611 38.9953 18.9438C38.1666 22.2959 35.6038 32.6704 34.8214 35.8368C34.6856 36.3882 34.2713 36.8281 33.7304 36.9975C33.1883 37.1681 32.5975 37.0428 32.1715 36.6679L28.2193 33.1962L25.126 36.1618C24.6814 36.5878 24.0361 36.7259 23.4557 36.5205C22.8765 36.3139 22.4633 35.7985 22.3879 35.188L21.7611 30.1052ZM32.9759 34.5948L36.7575 19.2862L17.8402 26.1367L22.8336 28.2933C23.3629 28.522 23.732 29.0141 23.8028 29.5864L24.3483 34.0133L26.6337 31.8231L26.4318 31.649C26.0824 31.3506 25.877 30.9189 25.8642 30.4604C25.8503 30.0019 26.0325 29.5597 26.3633 29.2416C27.6041 28.0519 30.9144 24.8797 30.9144 24.8797C31.3311 24.4804 31.9928 24.4943 32.392 24.911C32.7902 25.3265 32.7762 25.9881 32.3607 26.3874L28.1798 30.3954L28.8681 30.985L32.9759 34.5948Z" fill="white"/>
</svg>
