<?xml version="1.0" standalone="no"?>
<!DOCTYPE svg PUBLIC "-//W3C//DTD SVG 20010904//EN"
 "http://www.w3.org/TR/2001/REC-SVG-20010904/DTD/svg10.dtd">
<svg version="1.0" xmlns="http://www.w3.org/2000/svg"
 width="995.000000pt" height="995.000000pt" viewBox="0 0 995.000000 995.000000"
 preserveAspectRatio="xMidYMid meet">
<metadata>
Created by potrace 1.14, written by Peter Selinger 2001-2017
</metadata>
<g transform="translate(0.000000,995.000000) scale(0.100000,-0.100000)"
fill="#000000" stroke="none">
<path d="M4970 9910 c-1 -14 -3 -34 -5 -45 -2 -11 -11 -69 -20 -130 -9 -60
-18 -121 -20 -135 -5 -28 -35 -233 -40 -265 -1 -11 -6 -44 -10 -74 -3 -30 -8
-62 -10 -72 -2 -10 -11 -69 -20 -131 -9 -62 -18 -126 -21 -143 -3 -16 -12 -77
-20 -135 -8 -58 -16 -116 -19 -130 -2 -14 -11 -76 -20 -138 -9 -62 -18 -121
-20 -130 -1 -9 -6 -39 -9 -67 -8 -59 -14 -98 -26 -180 -11 -72 -20 -131 -25
-165 -2 -14 -6 -44 -10 -66 l-6 -42 -134 3 c-74 2 -139 6 -144 10 -6 3 -22 30
-35 58 -13 29 -54 115 -91 192 -37 77 -86 181 -110 230 -23 50 -68 144 -100
210 -32 66 -82 171 -111 233 -30 61 -78 163 -108 225 -29 61 -76 159 -104 217
-27 58 -75 159 -107 225 -31 66 -68 144 -81 173 -14 28 -27 52 -30 52 -3 0 -3
-17 1 -37 3 -21 15 -99 26 -173 10 -74 22 -148 25 -165 2 -16 9 -59 15 -95 5
-36 12 -78 15 -95 10 -59 31 -201 55 -365 5 -36 11 -72 14 -80 2 -8 7 -35 10
-60 3 -25 7 -56 9 -70 5 -27 25 -159 31 -200 2 -14 6 -38 9 -55 2 -16 8 -50
11 -75 4 -25 9 -52 10 -61 2 -9 6 -40 10 -69 4 -29 8 -60 10 -69 1 -9 6 -36
10 -61 3 -25 9 -57 11 -72 4 -27 3 -28 -43 -29 -53 -2 -67 -3 -133 -13 -25 -4
-56 -9 -70 -11 -47 -7 -83 -26 -116 -60 l-32 -34 -98 106 c-122 130 -129 138
-234 253 -47 51 -96 105 -110 120 -14 15 -68 73 -120 130 -52 57 -106 115
-120 130 -63 68 -201 218 -225 245 -129 139 -228 247 -268 289 l-49 51 21 -40
c11 -22 49 -101 84 -175 36 -74 109 -225 162 -335 54 -110 128 -263 165 -340
37 -77 112 -230 165 -340 54 -110 130 -267 170 -350 40 -82 110 -226 156 -320
45 -93 83 -172 84 -175 1 -3 22 -48 48 -100 26 -52 47 -98 47 -102 0 -3 -89
45 -197 109 -109 63 -254 148 -323 188 -129 75 -331 193 -410 239 -25 15 -53
29 -62 33 -10 3 -18 9 -18 14 0 5 -4 9 -10 9 -5 0 -55 27 -111 60 -55 33 -103
60 -105 60 -2 0 -23 12 -47 27 -41 26 -337 200 -427 251 -25 14 -58 33 -75 43
-16 10 -48 29 -70 41 -22 12 -48 27 -57 33 -9 5 -63 37 -120 69 -57 33 -114
66 -128 75 -24 15 -25 15 -10 -4 8 -11 29 -34 45 -51 17 -16 82 -86 145 -154
63 -68 143 -153 176 -189 34 -36 77 -82 95 -102 107 -115 249 -267 279 -299
38 -40 231 -248 271 -291 13 -14 78 -84 144 -154 66 -71 134 -143 150 -161 17
-17 80 -85 140 -150 61 -64 121 -129 135 -144 14 -15 49 -52 78 -83 30 -32 50
-57 46 -57 -8 0 -591 134 -1456 335 -246 58 -458 107 -470 109 -13 3 -137 31
-276 64 -139 33 -250 56 -245 51 7 -6 148 -89 298 -174 22 -12 127 -72 233
-134 107 -61 198 -111 203 -111 5 0 9 -4 9 -10 0 -5 4 -10 10 -10 5 0 33 -14
62 -31 29 -18 73 -43 98 -57 25 -14 167 -95 315 -180 309 -177 284 -163 475
-272 80 -46 154 -88 165 -95 83 -46 136 -78 139 -84 3 -4 -14 -22 -36 -41 -23
-19 -51 -45 -63 -57 -18 -17 -39 -22 -106 -27 -46 -4 -106 -9 -134 -11 -27 -2
-90 -7 -140 -10 -49 -3 -108 -7 -130 -10 -22 -2 -89 -6 -150 -10 -60 -3 -121
-8 -135 -10 -14 -2 -77 -6 -140 -10 -63 -4 -131 -8 -150 -10 -19 -2 -78 -6
-130 -10 -52 -3 -115 -8 -140 -10 -25 -2 -92 -6 -150 -10 -58 -4 -121 -8 -140
-10 -19 -2 -80 -6 -135 -10 -55 -4 -116 -9 -135 -10 -40 -3 -242 -17 -282 -20
-41 -2 -44 -12 -6 -20 18 -4 150 -33 293 -65 143 -32 332 -75 420 -94 88 -20
250 -56 360 -81 110 -25 210 -47 223 -50 12 -2 30 -6 40 -9 9 -3 28 -7 42 -10
47 -8 214 -47 217 -50 8 -7 -107 -118 -172 -166 -38 -29 -73 -58 -77 -64 -4
-6 -8 -7 -8 -3 0 4 -25 -8 -55 -28 -30 -19 -55 -32 -55 -29 0 3 -13 -4 -30
-16 -17 -12 -30 -18 -30 -13 0 4 -4 3 -8 -3 -4 -6 -59 -30 -122 -53 -63 -23
-124 -45 -135 -50 -20 -9 -241 -89 -260 -95 -5 -2 -32 -13 -60 -26 -27 -13
-52 -24 -55 -25 -11 -4 -62 -26 -103 -44 -74 -33 -122 -54 -132 -57 -5 -1 -28
-10 -50 -20 -22 -10 -43 -18 -47 -18 -3 -1 -10 -4 -14 -8 -4 -5 -18 -8 -31 -8
-12 0 -23 -4 -23 -9 0 -5 -21 -16 -48 -24 -26 -9 -68 -25 -94 -37 l-48 -21 0
-969 c0 -533 3 -971 7 -973 5 -2 57 19 118 48 60 29 113 51 117 48 5 -2 8 0 8
4 0 5 33 24 73 43 39 18 74 36 77 39 3 3 39 23 80 43 80 40 198 105 215 118 6
4 37 22 70 40 33 18 71 40 85 49 50 33 9 -7 -83 -79 -53 -41 -94 -76 -92 -78
3 -3 119 42 180 69 11 4 142 56 290 114 149 58 279 110 290 115 11 5 193 77
405 161 212 83 399 157 415 164 17 7 118 47 225 89 107 42 204 81 215 86 11 5
48 20 83 34 l63 25 -6 -72 c-4 -40 -8 -83 -10 -97 -2 -14 -4 -32 -4 -41 -1
-14 -19 -44 -93 -153 -7 -10 -25 -35 -39 -55 -14 -20 -61 -88 -104 -151 -105
-155 -253 -370 -478 -697 -30 -43 -84 -123 -122 -178 -38 -55 -93 -136 -123
-180 -31 -44 -89 -129 -130 -190 -96 -141 -114 -167 -129 -183 -7 -7 -13 -16
-13 -19 0 -8 62 40 300 232 119 96 101 81 503 404 185 149 340 271 343 271 3
0 3 -12 -1 -27 -4 -16 -9 -37 -11 -48 -2 -18 -47 -202 -60 -250 -3 -11 -8 -35
-10 -52 -5 -27 -2 -33 13 -33 29 0 68 43 82 91 7 24 16 51 19 59 3 8 6 17 7
20 1 3 4 12 8 20 9 23 27 85 31 106 3 10 9 31 15 47 6 15 9 27 8 27 -2 0 9 37
23 82 l26 82 148 120 148 119 141 -2 c78 -1 142 -3 144 -5 1 -1 -67 -225 -151
-497 -85 -272 -177 -568 -206 -659 -28 -91 -71 -228 -95 -305 -24 -77 -66
-212 -94 -300 -27 -88 -61 -198 -76 -243 -15 -46 -25 -85 -23 -87 2 -2 36 44
75 103 40 59 134 197 209 307 74 110 174 259 222 330 48 72 89 132 92 135 3 3
10 13 15 22 11 18 262 389 360 531 33 48 67 98 75 111 8 14 51 78 95 143 45
65 123 180 174 256 51 75 94 137 96 137 2 0 2 -570 0 -1266 -2 -696 -2 -1264
0 -1262 2 1 10 28 18 58 9 30 93 307 187 615 94 308 176 576 182 595 11 40
234 769 248 815 6 17 29 93 51 170 23 77 45 146 49 154 6 12 35 -68 76 -209
12 -45 32 -110 229 -755 59 -192 111 -363 115 -380 5 -16 32 -104 60 -195 29
-91 58 -185 65 -210 7 -25 29 -99 50 -165 20 -66 43 -140 50 -165 7 -25 25
-83 40 -130 14 -47 31 -103 36 -124 5 -22 14 -46 19 -55 4 -9 6 525 4 1232 -3
1071 -2 1247 10 1247 8 0 38 -35 67 -77 29 -43 98 -145 154 -228 56 -82 160
-235 230 -340 71 -104 167 -246 213 -315 47 -69 139 -206 206 -305 66 -99 123
-182 126 -185 3 -3 10 -13 15 -22 6 -10 65 -98 131 -195 67 -98 152 -224 190
-280 37 -56 70 -101 72 -99 3 4 -44 159 -118 391 -17 51 -131 419 -198 635
-11 36 -54 173 -95 305 -42 132 -96 308 -122 390 -25 83 -55 177 -66 209 -10
33 -19 65 -19 72 0 10 28 12 133 8 263 -9 246 -6 318 -66 43 -35 487 -393 563
-453 21 -16 46 -37 56 -45 9 -8 32 -26 51 -40 18 -14 47 -37 63 -51 17 -14 72
-58 121 -98 50 -39 97 -77 105 -84 44 -36 417 -332 430 -341 8 -6 -7 19 -33
56 -26 37 -70 100 -97 140 -27 40 -98 145 -159 233 -60 88 -140 205 -178 260
-37 55 -147 215 -244 355 -385 559 -376 545 -373 587 1 21 6 83 10 138 4 55 7
115 8 133 0 17 5 32 10 32 9 0 658 -253 731 -285 17 -7 271 -108 565 -225 294
-116 573 -226 620 -245 84 -35 85 -32 11 25 -18 14 -38 30 -44 35 -7 6 -32 26
-57 45 -25 19 -50 39 -57 45 -16 13 -28 22 -83 65 -25 19 -47 37 -50 40 -3 3
-48 39 -100 80 -52 41 -102 81 -110 87 -8 7 -55 44 -105 84 -49 39 -99 78
-110 87 -12 9 -50 39 -85 67 -36 27 -67 52 -70 55 -3 3 -25 21 -50 40 -25 19
-52 40 -60 47 -25 20 -192 153 -282 224 -273 216 -548 435 -578 460 -19 16
-38 29 -42 29 -4 0 -5 7 -1 16 5 13 17 15 77 10 39 -3 103 -8 141 -11 39 -3
95 -7 125 -10 30 -3 89 -7 130 -10 41 -4 95 -8 120 -10 56 -5 186 -14 265 -20
33 -2 89 -6 125 -9 81 -7 165 -14 255 -21 39 -3 95 -7 125 -10 30 -3 89 -7
130 -10 41 -3 100 -7 130 -10 30 -3 84 -8 120 -10 165 -12 360 -27 390 -30 14
-2 42 -3 62 -4 l36 -1 1 -61 c0 -33 5 -67 12 -75 6 -8 8 -14 4 -14 -4 0 22
-29 57 -65 36 -36 73 -65 82 -65 9 0 16 -4 16 -9 0 -15 94 -4 153 18 l57 22 0
305 c0 281 -1 304 -16 289 -9 -9 -42 -29 -73 -45 -31 -16 -76 -43 -101 -59
-25 -17 -49 -31 -53 -31 -11 0 -28 -18 -56 -60 -14 -19 -33 -45 -43 -56 l-19
-21 -192 74 c-106 41 -201 79 -212 84 -11 4 -263 102 -560 217 -297 115 -549
213 -560 217 -11 5 -22 9 -25 9 -3 1 -9 4 -15 7 -5 3 -130 52 -277 109 -148
57 -268 106 -268 109 0 4 78 24 173 45 94 21 181 40 192 42 11 3 31 7 44 10
12 3 53 12 90 20 36 9 77 18 91 20 14 3 33 7 42 10 9 3 25 7 35 9 10 2 70 16
133 30 63 15 126 28 140 31 14 3 33 7 42 10 10 3 29 7 42 10 56 10 288 64 296
69 5 3 24 -8 42 -23 92 -81 155 -85 388 -28 8 2 42 12 75 22 33 10 62 18 65
19 3 0 30 13 60 29 75 38 127 56 180 62 25 2 50 10 55 17 9 11 111 51 159 62
10 2 43 11 72 20 l54 16 0 304 c0 167 -3 306 -7 308 -5 3 -55 -18 -113 -45
-175 -84 -271 -128 -276 -128 -3 0 -24 -8 -47 -19 -23 -10 -58 -22 -77 -26
-19 -4 -47 -14 -62 -21 -15 -8 -31 -14 -35 -14 -5 1 -24 -6 -43 -14 -56 -23
-75 -29 -82 -28 -5 1 -8 -3 -8 -8 0 -6 -4 -10 -9 -10 -5 0 -26 -8 -47 -17 -22
-9 -42 -16 -46 -15 -5 1 -8 -3 -8 -8 0 -5 -3 -9 -7 -8 -15 4 -118 -54 -150
-84 l-32 -31 -118 8 c-65 4 -138 9 -163 10 -199 14 -238 17 -260 20 -14 2 -74
6 -135 10 -60 3 -126 8 -145 10 -19 2 -84 6 -145 10 -60 3 -128 8 -150 10 -22
3 -77 7 -122 9 -107 7 -217 17 -222 21 -11 11 32 39 239 153 25 14 50 28 55
32 6 5 37 23 70 40 33 18 67 39 76 46 8 8 18 14 21 14 3 0 77 41 164 91 88 50
177 102 199 114 22 12 130 74 240 137 110 63 387 222 615 353 491 282 501 288
475 281 -23 -6 -282 -66 -305 -71 -8 -2 -67 -15 -130 -30 -155 -36 -152 -35
-180 -41 -14 -3 -43 -10 -65 -16 -38 -9 -51 -13 -100 -23 -11 -3 -175 -41
-365 -85 -190 -44 -434 -100 -542 -125 -109 -25 -244 -56 -300 -70 -57 -14
-106 -25 -109 -25 -3 0 -5 19 -3 43 2 23 7 85 10 137 6 88 10 127 13 141 1 6
32 40 176 194 56 61 117 126 135 145 18 19 81 87 140 150 59 63 122 131 140
150 17 19 84 91 148 159 65 68 128 135 141 150 20 22 99 107 271 291 14 15 54
58 90 96 36 39 74 81 85 94 l20 24 -40 -24 c-22 -12 -107 -62 -190 -110 -646
-375 -817 -475 -972 -566 -51 -30 -94 -54 -96 -54 -3 0 -4 7 -3 16 0 9 -5 19
-11 21 -7 3 -13 -2 -13 -11 0 -9 -7 -16 -16 -16 -14 0 -16 13 -10 108 3 59 7
147 8 196 3 84 2 90 -22 107 -14 11 -49 21 -80 24 -30 2 -84 7 -120 11 -36 3
-76 7 -90 9 -14 1 -32 3 -41 3 -14 2 -5 26 43 125 130 264 373 765 459 944 32
67 70 146 84 175 l26 53 -48 -51 c-48 -51 -203 -218 -304 -328 -30 -33 -65
-71 -79 -86 -14 -15 -68 -73 -120 -130 -52 -57 -106 -115 -119 -129 -31 -35
-190 -207 -221 -241 -14 -15 -64 -69 -111 -121 -178 -193 -159 -177 -209 -174
-25 1 -126 6 -225 10 -99 4 -183 9 -186 11 -3 1 0 36 7 76 11 67 17 108 29
193 3 17 12 75 20 130 9 55 18 114 20 130 2 17 4 30 5 30 1 0 3 12 5 26 2 15
6 42 9 60 3 19 23 153 46 299 22 146 43 281 46 300 3 19 7 49 9 65 4 28 14 91
20 125 5 27 15 94 21 135 3 22 10 67 16 100 11 65 12 73 22 155 l7 55 -37 -75
c-20 -41 -53 -111 -74 -155 -21 -44 -70 -147 -110 -230 -40 -82 -89 -186 -110
-230 -21 -44 -63 -133 -94 -197 -119 -249 -170 -356 -206 -433 -32 -68 -147
-307 -237 -492 l-25 -53 -127 4 c-69 3 -129 5 -132 5 -6 1 -15 46 -25 126 -3
26 -11 77 -19 125 -1 8 -6 42 -10 75 -4 32 -9 68 -11 80 -2 11 -6 38 -9 60 -3
22 -7 50 -9 62 -3 11 -7 43 -11 70 -4 26 -8 59 -11 72 -2 13 -6 45 -10 70 -4
25 -8 53 -10 63 -1 9 -5 38 -9 65 -9 66 -13 88 -24 163 -6 36 -13 85 -16 110
-5 42 -31 215 -40 270 -2 14 -6 43 -9 65 -3 22 -11 74 -17 115 -6 41 -12 85
-14 97 -2 13 -6 40 -9 60 -3 21 -9 55 -12 77 -3 21 -7 48 -10 60 -2 11 -7 46
-10 77 -3 31 -10 71 -14 90 -7 29 -8 30 -10 9z"/>
<path d="M9863 5025 c-40 -25 -73 -41 -73 -37 0 4 -5 -1 -11 -10 -5 -10 -19
-18 -29 -18 -10 0 -22 -5 -25 -10 -4 -6 -11 -8 -16 -4 -5 3 -27 -10 -49 -29
-38 -32 -97 -60 -215 -103 -27 -10 -69 -33 -93 -52 -24 -18 -55 -38 -68 -44
-13 -6 -24 -15 -24 -20 0 -4 -7 -8 -15 -8 -32 0 -155 -151 -181 -222 -23 -63
-22 -146 1 -183 82 -128 178 -163 311 -115 32 12 65 22 72 23 6 0 12 4 12 9 0
4 8 8 18 8 18 1 112 47 339 166 l133 69 0 313 c0 171 -3 312 -7 312 -5 0 -41
-21 -80 -45z"/>
</g>
</svg>
