<?xml version="1.0" standalone="no"?>
<!DOCTYPE svg PUBLIC "-//W3C//DTD SVG 20010904//EN"
 "http://www.w3.org/TR/2001/REC-SVG-20010904/DTD/svg10.dtd">
<svg version="1.0" xmlns="http://www.w3.org/2000/svg"
 width="464.000000pt" height="464.000000pt" viewBox="0 0 464.000000 464.000000"
 preserveAspectRatio="xMidYMid meet">
<metadata>
Created by potrace 1.14, written by Peter Selinger 2001-2017
</metadata>
<g transform="translate(0.000000,464.000000) scale(0.100000,-0.100000)"
fill="#000000" stroke="none">
<path d="M1470 4616 c0 -9 0 -19 -1 -23 0 -4 4 -9 10 -11 14 -5 14 35 1 43 -5
3 -10 -1 -10 -9z"/>
<path d="M1545 4048 c-3 -8 3 -77 15 -152 11 -76 20 -158 20 -183 0 -45 0 -45
31 -39 45 9 96 -34 104 -89 3 -22 9 -53 12 -69 l5 -29 -45 6 c-39 6 -48 3 -61
-14 -9 -13 -16 -16 -21 -10 -10 17 -40 13 -58 -7 -23 -25 -21 -41 6 -51 107
-42 126 -53 127 -73 0 -5 -6 -8 -13 -8 -8 0 -22 -10 -33 -21 -10 -12 -54 -48
-96 -81 -43 -32 -85 -73 -94 -91 -32 -61 -47 -75 -74 -65 -30 11 -109 6 -113
-7 -1 -5 16 -14 38 -20 56 -14 63 -20 76 -68 9 -36 8 -48 -12 -96 -23 -57 -24
-71 -17 -258 2 -57 3 -103 0 -103 -2 0 -19 12 -37 26 l-34 26 14 -29 c8 -17
24 -38 35 -48 11 -10 20 -25 20 -34 0 -9 9 -34 20 -56 11 -21 23 -54 26 -73 9
-48 72 -106 137 -128 29 -10 54 -16 56 -15 2 2 7 -3 12 -11 5 -7 12 -13 16
-13 28 -1 101 -117 127 -202 4 -12 39 -47 78 -79 66 -55 74 -58 127 -60 106
-3 312 -21 319 -28 10 -10 -95 -104 -137 -122 -24 -11 -31 -18 -21 -22 8 -3
17 -8 20 -11 10 -12 61 -31 85 -31 15 0 25 -6 25 -14 0 -18 52 -36 82 -29 22
6 22 5 6 -14 -25 -27 -23 -33 12 -33 19 0 30 -5 30 -14 0 -9 7 -12 18 -9 10 2
26 -5 36 -16 10 -11 24 -17 31 -15 17 7 13 -55 -5 -66 -9 -5 -7 -17 9 -48 12
-23 21 -48 21 -55 0 -43 30 -41 365 28 39 8 171 33 295 55 322 59 744 139 820
156 42 9 72 23 83 37 14 16 17 18 13 5 -4 -13 0 -18 14 -18 22 0 35 16 20 25
-28 17 3 79 50 99 8 3 -4 4 -27 1 -31 -4 -43 -2 -44 7 0 7 -2 24 -4 38 -1 14
5 34 14 44 13 16 13 18 1 14 -8 -3 -42 -13 -75 -23 l-60 -17 53 -26 c28 -14
52 -30 52 -34 0 -4 -28 6 -62 23 l-63 31 -225 -55 c-124 -31 -292 -70 -375
-87 -82 -17 -195 -42 -250 -55 l-101 -24 -90 21 c-85 19 -94 20 -123 5 -17 -9
-29 -12 -26 -7 14 23 -123 21 -153 -3 -9 -7 -11 -6 -6 7 3 9 10 16 15 16 14 0
48 38 41 45 -4 3 0 4 8 1 18 -7 41 37 34 62 -5 15 -4 14 6 -1 6 -9 8 -27 4
-40 -6 -21 -6 -21 14 3 11 13 17 30 15 37 -3 7 1 13 9 13 8 0 25 11 37 24 19
20 21 28 11 46 -6 11 -9 26 -7 33 2 7 10 0 17 -15 14 -29 30 -29 30 0 0 10 9
35 20 57 17 33 18 41 6 54 -27 33 -30 44 -8 32 12 -6 24 -16 27 -21 11 -17 23
-11 29 16 5 18 1 33 -11 47 -12 14 -14 21 -6 24 7 2 9 12 6 21 -11 31 -87 103
-125 119 -37 15 -56 39 -20 26 14 -6 15 -4 4 9 -14 18 -52 31 -52 17 0 -5 -10
-5 -22 0 -13 5 -22 14 -21 19 1 6 -11 15 -27 21 -17 5 -30 6 -30 1 0 -4 4 -10
9 -12 5 -1 11 -37 14 -78 l4 -74 -56 -57 c-32 -31 -81 -69 -110 -84 -53 -26
-54 -26 -97 -10 l-42 16 77 117 c43 64 90 139 106 165 19 34 31 45 38 38 6 -6
18 -11 26 -11 11 0 10 4 -5 15 -10 8 -36 15 -58 15 -36 0 -38 2 -33 26 5 26 3
26 -35 21 -30 -4 -37 -2 -29 6 27 27 -12 46 -43 20 l-21 -18 19 23 c13 14 15
22 6 22 -7 0 -10 7 -6 16 4 11 -1 18 -14 21 -11 3 -20 9 -20 14 0 4 19 2 42
-7 37 -13 43 -13 60 2 12 12 15 21 8 29 -6 7 -8 20 -4 29 3 9 1 22 -5 29 -6 8
-13 35 -16 62 -4 27 -8 52 -11 57 -3 4 -1 8 4 8 10 0 10 42 1 50 -4 3 -11 33
-16 68 l-10 63 34 16 c24 11 36 25 40 44 3 16 9 26 14 23 8 -5 13 9 10 29 -2
12 17 8 22 -5 4 -10 6 -9 6 1 1 11 4 11 16 1 13 -10 19 -10 33 2 9 9 22 13 29
11 6 -2 14 1 18 6 3 6 -2 11 -13 11 -21 0 -49 27 -38 37 3 3 6 1 6 -5 0 -7 6
-12 13 -12 6 0 12 11 12 25 0 15 -3 21 -9 15 -6 -6 -16 -10 -24 -10 -9 0 -6 7
9 21 13 11 18 18 12 14 -7 -3 -13 -1 -13 4 0 6 5 11 11 11 5 0 7 5 4 10 -3 6
3 10 14 10 12 0 21 5 21 11 0 6 7 8 16 5 13 -5 15 -2 11 14 -4 17 -3 19 9 9
11 -9 14 -8 14 2 1 9 5 8 15 -5 20 -27 19 -18 -4 27 -11 21 -31 47 -46 59
l-27 21 31 15 c17 8 31 19 31 25 0 40 -106 137 -178 163 -45 16 -103 17 -157
3 -22 -5 -47 -12 -55 -14 -8 -2 -17 -4 -20 -4 -3 -1 2 -6 10 -11 13 -8 12 -10
-3 -10 -10 0 -15 -4 -12 -10 3 -5 2 -10 -3 -10 -10 0 -29 -41 -34 -74 -2 -16
-14 -9 -63 37 -33 32 -61 57 -63 57 -2 0 -1 -23 3 -51 5 -37 4 -50 -4 -45 -6
4 -11 25 -11 47 0 43 -14 79 -31 79 -5 0 -8 -22 -7 -52 3 -52 2 -53 -25 -56
-30 -4 -30 -3 -9 58 4 11 -1 10 -16 -4 -25 -22 -24 -27 -26 86 -1 73 -3 79
-33 110 -18 18 -33 27 -33 21 0 -7 9 -20 20 -30 22 -21 18 -65 -6 -56 -10 3
-12 0 -9 -10 4 -9 -1 -16 -14 -20 -22 -5 -29 7 -11 18 6 3 10 29 10 56 0 46
-4 56 -47 105 -46 53 -77 69 -143 76 -33 4 -44 38 -69 214 -19 132 -33 176
-46 142z m152 -390 c-3 -8 -6 -5 -6 6 -1 11 2 17 5 13 3 -3 4 -12 1 -19z m33
-233 c-7 -8 -17 -15 -23 -15 -5 0 -2 9 8 20 21 23 35 19 15 -5z m716 -88 c78
-58 89 -71 69 -87 -13 -10 -22 -6 -58 27 -23 21 -57 48 -74 58 -25 14 -30 22
-21 32 15 19 20 17 84 -30z m-171 23 c-3 -5 -12 -10 -18 -10 -7 0 -6 4 3 10
19 12 23 12 15 0z m35 -4 c0 -3 -4 -8 -10 -11 -5 -3 -10 -1 -10 4 0 6 5 11 10
11 6 0 10 -2 10 -4z m80 -56 c0 -5 -4 -10 -10 -10 -5 0 -10 5 -10 10 0 6 5 10
10 10 6 0 10 -4 10 -10z m-130 -40 c8 -5 24 -18 35 -31 11 -12 13 -19 6 -14
-10 6 -8 -2 5 -21 11 -16 26 -41 34 -57 14 -28 30 -31 38 -7 3 9 -1 11 -12 7
-21 -8 -20 -1 4 23 20 20 20 20 26 -4 8 -35 -33 -106 -62 -106 -10 0 -27 31
-27 50 0 3 -26 40 -58 82 -33 42 -59 82 -59 88 0 11 40 5 70 -10z m46 4 c18
-14 18 -14 -6 -3 -31 14 -36 19 -24 19 6 0 19 -7 30 -16z m110 -11 c-10 -10
-19 5 -10 18 6 11 8 11 12 0 2 -7 1 -15 -2 -18z m-51 -33 c10 -11 16 -20 13
-20 -3 0 -13 9 -23 20 -10 11 -16 20 -13 20 3 0 13 -9 23 -20z m120 1 c6 -10
-21 -41 -36 -41 -14 0 -11 17 7 34 18 19 21 19 29 7z m51 -6 c25 -13 26 -15 8
-15 -12 0 -27 7 -34 15 -16 19 -10 19 26 0z m-32 -40 c-4 -8 -13 -15 -21 -15
-13 0 -13 3 -3 15 7 8 16 15 21 15 5 0 6 -7 3 -15z m36 -51 c-39 -35 -41 -40
-35 -78 5 -31 4 -38 -4 -30 -7 6 -14 26 -17 45 -5 32 -2 39 42 79 26 24 49 39
52 32 2 -6 -15 -28 -38 -48z m-10 32 c0 -3 -4 -8 -10 -11 -5 -3 -10 -1 -10 4
0 6 5 11 10 11 6 0 10 -2 10 -4z m-89 -48 c-5 -22 -13 -34 -26 -36 -12 -2 -16
0 -10 5 6 4 16 20 22 36 17 36 22 34 14 -5z m-732 -115 c0 -25 -1 -26 -9 -8
-12 27 -12 35 0 35 6 0 10 -12 9 -27z m-312 -15 c-3 -8 -6 -5 -6 6 -1 11 2 17
5 13 3 -3 4 -12 1 -19z m289 6 c-4 -9 0 -21 9 -28 12 -9 13 -21 3 -78 -6 -38
-14 -68 -18 -68 -4 0 -15 9 -25 20 -17 19 -18 26 -5 88 11 57 22 81 39 82 2 0
0 -7 -3 -16z m778 -28 c-6 -15 -44 -39 -44 -27 0 6 4 12 10 16 5 3 7 12 4 20
-4 10 0 12 15 8 11 -3 18 -10 15 -17z m-137 -38 c-3 -8 -6 -5 -6 6 -1 11 2 17
5 13 3 -3 4 -12 1 -19z m-12 -70 c2 -24 1 -37 -2 -30 -2 6 -9 12 -14 12 -6 0
-7 -5 -4 -10 8 -13 -14 -42 -25 -35 -9 6 10 66 24 76 4 4 5 17 1 30 -6 19 -5
21 5 12 7 -6 14 -31 15 -55z m15 -102 c0 -5 -9 -1 -20 9 -11 10 -17 22 -14 27
6 9 33 -20 34 -36z m-345 25 c3 -5 1 -12 -5 -16 -5 -3 -10 1 -10 9 0 18 6 21
15 7z m-250 -110 c3 -5 1 -12 -5 -16 -5 -3 -10 1 -10 9 0 18 6 21 15 7z m563
-85 c38 -53 42 -68 8 -29 -41 46 -21 -5 25 -66 34 -45 47 -71 35 -71 -10 0
-55 27 -69 42 -21 21 -22 29 -2 21 13 -4 12 1 -4 28 -18 31 -40 119 -29 119 3
0 19 -20 36 -44z m-581 -23 c-13 -21 -27 -47 -30 -57 -10 -25 -21 -13 -12 13
6 20 52 81 61 81 2 0 -6 -17 -19 -37z m30 -45 c-3 -8 -6 -5 -6 6 -1 11 2 17 5
13 3 -3 4 -12 1 -19z m633 12 c0 -5 -4 -10 -10 -10 -5 0 -10 5 -10 10 0 6 5
10 10 10 6 0 10 -4 10 -10z m390 -594 c0 -8 -4 -18 -10 -21 -5 -3 -10 -4 -10
-1 0 2 -3 11 -6 20 -4 11 -1 16 10 16 9 0 16 -6 16 -14z m-452 -99 c7 -7 7
-18 2 -27 -7 -11 -11 -11 -24 -1 -9 8 -16 20 -16 27 0 18 24 18 38 1z m377
-126 c3 -5 1 -12 -5 -16 -5 -3 -10 1 -10 9 0 18 6 21 15 7z m-128 -17 c9 -24
-10 -49 -37 -50 -13 -1 -29 -10 -36 -20 -22 -32 -34 -44 -44 -44 -17 0 -11 19
9 32 16 10 17 14 5 22 -9 7 -11 16 -5 25 8 12 12 12 25 2 11 -9 16 -10 16 -2
0 6 6 11 14 11 7 0 16 9 19 20 6 24 25 26 34 4z m-63 -183 c-6 -6 -34 20 -34
32 0 6 8 2 19 -9 10 -10 17 -21 15 -23z m280 3 c9 -22 -3 -32 -14 -14 -12 19
-12 30 -1 30 5 0 12 -7 15 -16z m73 -10 c-3 -3 -12 -4 -19 -1 -8 3 -5 6 6 6
11 1 17 -2 13 -5z m-315 -126 c-6 -6 -15 -7 -22 -3 -8 5 -6 11 7 20 20 15 32
0 15 -17z m181 -55 c-7 -2 -21 -2 -30 0 -10 3 -4 5 12 5 17 0 24 -2 18 -5z
m-176 -29 c-3 -3 -12 -4 -19 -1 -8 3 -5 6 6 6 11 1 17 -2 13 -5z"/>
<path d="M2450 3313 c0 -12 38 -48 45 -41 3 2 -6 15 -20 28 -14 13 -25 19 -25
13z"/>
<path d="M2240 3252 c0 -5 10 -17 21 -28 22 -19 22 -19 10 3 -12 24 -31 39
-31 25z"/>
<path d="M2336 3085 c4 -8 8 -15 10 -15 2 0 4 7 4 15 0 8 -4 15 -10 15 -5 0
-7 -7 -4 -15z"/>
<path d="M1580 3630 c-13 -8 -13 -10 2 -10 9 0 20 5 23 10 8 13 -5 13 -25 0z"/>
<path d="M1587 3584 c-15 -8 -27 -17 -27 -20 0 -8 53 5 63 16 16 15 -8 18 -36
4z"/>
<path d="M1580 3520 c-11 -7 -4 -10 28 -10 23 0 42 5 42 10 0 13 -50 13 -70 0z"/>
<path d="M1695 3520 c3 -5 8 -10 11 -10 2 0 4 5 4 10 0 6 -5 10 -11 10 -5 0
-7 -4 -4 -10z"/>
<path d="M1935 3359 c-4 -6 -5 -12 -2 -15 2 -3 7 2 10 11 7 17 1 20 -8 4z"/>
<path d="M1050 2760 c0 -5 9 -14 20 -20 22 -12 27 -1 8 18 -14 14 -28 16 -28
2z"/>
<path d="M1200 2627 c0 -2 15 -16 33 -33 l32 -29 -29 33 c-28 30 -36 37 -36
29z"/>
<path d="M2398 2578 c-2 -7 -1 -31 2 -53 4 -31 7 -35 12 -20 8 21 4 72 -4 81
-3 3 -7 -1 -10 -8z"/>
<path d="M811 2407 c-16 -16 -13 -77 5 -107 8 -14 14 -18 13 -10 -2 29 13 59
27 53 16 -6 18 6 5 40 -11 29 -34 40 -50 24z"/>
<path d="M945 2270 c-19 -7 -21 -17 -16 -73 1 -5 6 -5 12 -1 6 3 9 14 6 24 -3
11 2 28 10 39 8 12 13 21 11 20 -2 0 -12 -4 -23 -9z"/>
<path d="M995 2240 c10 -11 20 -20 23 -20 3 0 -3 9 -13 20 -10 11 -20 20 -23
20 -3 0 3 -9 13 -20z"/>
<path d="M938 2163 c-21 -5 -23 -14 -6 -31 18 -18 26 -14 24 13 0 14 -1 24 -1
24 0 -1 -8 -3 -17 -6z"/>
<path d="M1060 2150 c0 -5 -6 -10 -14 -10 -21 0 -30 -18 -17 -34 13 -16 4 -27
-15 -19 -8 3 -14 0 -14 -5 0 -16 18 -24 25 -11 4 6 18 8 34 4 21 -5 24 -4 14
6 -16 16 -17 51 -1 67 9 9 9 12 0 12 -7 0 -12 -4 -12 -10z"/>
<path d="M1106 2102 c-3 -6 1 -15 8 -21 8 -7 17 -8 20 -3 3 6 -1 15 -8 21 -8
7 -17 8 -20 3z"/>
<path d="M1187 2050 c-6 -22 -28 -26 -57 -10 -16 8 -18 8 -14 -5 4 -8 12 -15
20 -15 16 0 19 -31 4 -46 -6 -6 -2 -14 11 -22 19 -12 20 -11 14 7 -11 34 3 24
24 -18 11 -21 39 -54 63 -72 23 -19 54 -45 68 -58 37 -35 360 -302 532 -440
69 -55 76 -71 31 -71 -14 0 -42 -4 -62 -9 -20 -5 -72 -17 -116 -25 -44 -9
-127 -26 -185 -37 -145 -29 -306 -58 -360 -65 -25 -3 -52 -8 -60 -11 -8 -3
-33 -5 -55 -4 -22 1 -53 -2 -68 -8 -29 -11 -38 -41 -12 -41 8 0 15 -9 15 -20
0 -11 5 -20 11 -20 5 0 7 -5 4 -11 -8 -12 25 -40 38 -32 5 3 0 11 -10 19 -16
12 -15 13 17 14 55 0 104 18 130 45 32 35 41 31 34 -12 -5 -34 -2 -41 29 -65
31 -24 39 -26 68 -17 19 5 167 39 329 74 432 96 427 95 447 95 17 0 264 -201
554 -451 295 -254 437 -369 455 -369 26 0 48 -16 40 -28 -3 -5 1 -15 9 -22 19
-15 19 -14 -1 44 -9 26 -15 49 -13 51 2 2 55 -34 117 -81 102 -75 115 -82 137
-72 29 13 19 34 -31 64 -18 10 -110 82 -205 159 -95 77 -186 151 -203 165 -40
32 -273 226 -306 254 -13 11 -34 28 -46 36 -13 9 -40 31 -61 50 -21 20 -58 51
-83 70 -25 19 -54 43 -64 52 -11 10 -26 18 -34 18 -7 0 -12 5 -10 12 2 6 -5
21 -16 32 -34 34 -104 85 -109 80 -3 -3 -15 9 -27 26 -12 16 -26 28 -30 25 -5
-3 -15 3 -22 15 -7 11 -16 20 -21 20 -5 0 -47 33 -94 73 -48 39 -128 106 -179
148 -51 42 -99 83 -108 90 -8 8 -34 31 -58 51 -24 20 -65 57 -92 82 -27 25
-53 46 -58 46 -14 0 -21 4 -43 25 -67 63 -226 185 -249 191 -17 4 -23 9 -16
14 8 5 7 10 -3 19 -12 9 -16 7 -20 -9z m633 -606 c0 -8 -4 -14 -10 -14 -5 0
-10 9 -10 21 0 11 5 17 10 14 6 -3 10 -13 10 -21z m30 -174 c0 -5 -4 -10 -10
-10 -5 0 -10 5 -10 10 0 6 5 10 10 10 6 0 10 -4 10 -10z m-400 -84 c0 -11 -19
-15 -25 -6 -3 5 1 10 9 10 9 0 16 -2 16 -4z m179 -10 c15 -8 20 -16 12 -20 -6
-4 -11 -3 -11 2 0 5 -10 14 -22 20 -13 6 -18 11 -13 11 6 0 21 -6 34 -13z
m121 4 c-8 -5 -19 -10 -25 -10 -5 0 -3 5 5 10 8 5 20 10 25 10 6 0 3 -5 -5
-10z m550 -31 c0 -12 -27 -11 -35 1 -11 17 5 32 21 19 8 -6 14 -15 14 -20z
m-720 6 c0 -8 -4 -15 -10 -15 -5 0 -10 7 -10 15 0 8 5 15 10 15 6 0 10 -7 10
-15z m-295 -15 c3 -6 -1 -7 -9 -4 -18 7 -21 14 -7 14 6 0 13 -4 16 -10z m248
-7 c-7 -2 -19 -2 -25 0 -7 3 -2 5 12 5 14 0 19 -2 13 -5z m-356 -9 c-3 -3 -12
-4 -19 -1 -8 3 -5 6 6 6 11 1 17 -2 13 -5z m310 0 c-3 -3 -12 -4 -19 -1 -8 3
-5 6 6 6 11 1 17 -2 13 -5z m-390 -11 c-20 -2 -52 -2 -70 0 -17 2 0 4 38 4 39
0 53 -2 32 -4z m346 0 c-7 -2 -19 -2 -25 0 -7 3 -2 5 12 5 14 0 19 -2 13 -5z
m-108 -13 c3 -5 1 -10 -4 -10 -6 0 -11 5 -11 10 0 6 2 10 4 10 3 0 8 -4 11
-10z m-260 -28 c-3 -3 -11 0 -18 7 -9 10 -8 11 6 5 10 -3 15 -9 12 -12z m180
8 c-3 -5 -12 -10 -18 -10 -7 0 -6 4 3 10 19 12 23 12 15 0z m1065 -20 c0 -5
-2 -10 -4 -10 -3 0 -8 5 -11 10 -3 6 -1 10 4 10 6 0 11 -4 11 -10z m-1045 -40
c3 -5 1 -10 -4 -10 -6 0 -11 5 -11 10 0 6 2 10 4 10 3 0 8 -4 11 -10z m1890
-620 c3 -5 1 -10 -4 -10 -6 0 -11 5 -11 10 0 6 2 10 4 10 3 0 8 -4 11 -10z"/>
<path d="M1065 2020 c3 -5 10 -10 16 -10 5 0 9 5 9 10 0 6 -7 10 -16 10 -8 0
-12 -4 -9 -10z"/>
<path d="M4483 1915 c-18 -19 -16 -45 2 -45 18 0 20 -21 3 -39 -8 -9 -8 -11
-2 -8 14 8 27 -20 14 -28 -6 -4 -10 -17 -10 -31 0 -22 2 -23 21 -14 45 24 73
112 53 164 -8 20 -64 21 -81 1z"/>
<path d="M4315 1867 c-12 -7 -19 -20 -17 -29 2 -10 -1 -18 -7 -18 -6 0 -11 -9
-11 -20 0 -11 7 -20 15 -20 9 0 15 -9 15 -21 0 -15 5 -19 15 -15 10 4 15 -1
15 -14 0 -11 -4 -20 -10 -20 -5 0 -10 -10 -9 -22 l0 -23 9 23 c13 32 40 28 41
-5 1 -17 3 -21 6 -10 2 9 9 17 14 17 5 0 9 9 9 20 0 11 -7 20 -15 20 -8 0 -15
9 -15 20 0 23 -4 24 -31 10 -16 -9 -19 -7 -19 10 0 11 5 20 10 20 16 0 12 30
-5 36 -22 9 -18 29 8 42 12 6 18 11 12 11 -5 0 -19 -5 -30 -12z"/>
<path d="M4187 1819 c-17 -10 -17 -12 -2 -30 22 -23 13 -64 -16 -80 -20 -10
-19 -11 13 -27 28 -14 33 -22 32 -50 -1 -17 2 -32 7 -32 5 0 9 16 9 35 0 19 5
35 11 35 6 0 8 9 4 20 -5 16 0 24 27 36 33 15 20 14 -39 -2 -17 -5 -23 -2 -23
10 0 9 5 16 10 16 6 0 10 9 10 20 0 12 -7 20 -16 20 -11 0 -15 6 -11 20 3 11
4 20 4 20 -1 0 -10 -5 -20 -11z"/>
<path d="M4411 1813 c-1 -12 -9 -27 -18 -32 -10 -6 -13 -10 -8 -10 23 0 42 24
34 44 -7 19 -8 19 -8 -2z"/>
<path d="M2825 1809 c-11 -17 1 -21 15 -4 8 9 8 15 2 15 -6 0 -14 -5 -17 -11z"/>
<path d="M4451 1811 c-9 -6 -11 -14 -4 -26 9 -15 11 -14 15 9 3 14 5 26 4 26
0 0 -7 -4 -15 -9z"/>
<path d="M4111 1756 c-7 -9 -8 -17 -2 -20 13 -9 43 4 38 17 -5 17 -23 19 -36
3z"/>
<path d="M1927 1722 c-13 -14 -15 -22 -7 -27 16 -10 33 9 28 30 -3 16 -5 15
-21 -3z"/>
<path d="M4125 1630 c-8 -12 20 -24 35 -15 5 3 10 10 10 16 0 12 -37 12 -45
-1z"/>
<path d="M2010 1604 c0 -8 5 -12 10 -9 14 9 13 -8 -2 -23 -9 -9 -9 -12 3 -12
8 0 25 -9 38 -21 l22 -21 6 22 c5 17 11 20 31 15 14 -3 36 -15 50 -25 21 -17
22 -21 8 -26 -15 -6 -15 -8 1 -20 24 -18 38 -17 23 1 -25 31 5 33 73 5 70 -29
89 -27 37 3 -16 10 -30 26 -30 35 0 12 -9 18 -25 20 -27 2 -32 -7 -12 -27 6
-7 -8 -3 -32 7 -24 11 -46 24 -50 29 -14 20 -62 43 -90 43 -16 0 -33 5 -36 10
-9 15 -25 12 -25 -6z"/>
<path d="M1875 1561 c-3 -5 9 -21 27 -35 38 -30 51 -16 17 20 -24 26 -35 29
-44 15z"/>
<path d="M1960 1562 c0 -13 30 -52 41 -52 15 0 10 26 -9 43 -20 18 -32 22 -32
9z"/>
<path d="M2010 1478 c0 -28 187 -196 252 -226 26 -12 36 -22 32 -33 -3 -11 19
-36 68 -78 76 -64 88 -71 88 -46 0 16 12 20 23 8 4 -3 2 -12 -4 -20 -11 -13 4
-35 88 -127 25 -26 27 -27 33 -10 8 23 -8 64 -25 64 -7 0 -18 20 -24 43 -11
44 -56 101 -72 91 -5 -3 -9 -1 -9 4 0 5 -9 12 -21 15 -12 3 -18 10 -15 16 4 5
2 12 -4 16 -5 3 -7 19 -3 35 4 22 2 30 -9 30 -7 0 -33 20 -57 44 -47 48 -81
64 -81 39 0 -14 -141 98 -148 118 -2 5 -13 9 -23 9 -11 0 -17 5 -14 10 8 13
-1 13 -26 -1 -15 -7 -24 -7 -35 2 -11 9 -14 8 -14 -3z m421 -353 c-1 -15 -24
-12 -29 3 -3 9 2 13 12 10 10 -1 17 -7 17 -13z m99 -58 c0 -7 -12 1 -25 16
-14 15 -25 33 -25 40 0 7 12 -1 25 -16 14 -15 25 -33 25 -40z"/>
<path d="M2300 1421 c0 -9 27 -41 35 -41 2 0 2 7 1 16 -3 18 -36 41 -36 25z"/>
<path d="M2396 1295 c4 -8 11 -15 16 -15 6 0 5 6 -2 15 -7 8 -14 15 -16 15 -2
0 -1 -7 2 -15z"/>
<path d="M1070 1006 c0 -18 48 -29 110 -24 42 3 43 4 20 14 -14 6 -49 14 -77
18 -43 5 -53 4 -53 -8z"/>
<path d="M2320 820 c0 -6 7 -10 15 -10 8 0 15 2 15 4 0 2 -7 6 -15 10 -8 3
-15 1 -15 -4z"/>
<path d="M3153 338 c12 -46 25 -76 38 -84 8 -5 11 -2 7 7 -17 44 -20 61 -9 55
5 -4 13 -22 17 -41 3 -18 14 -41 24 -50 18 -16 18 -16 13 6 l-6 23 38 -24 c21
-13 35 -18 31 -12 -8 13 5 16 20 5 5 -5 -7 6 -26 24 -19 18 -39 32 -45 32 -5
0 1 -9 14 -19 13 -11 19 -20 14 -20 -13 0 -42 33 -40 44 1 5 -20 26 -47 45
l-49 35 6 -26z"/>
<path d="M3270 201 c0 -5 7 -12 16 -15 14 -5 15 -4 4 9 -14 17 -20 19 -20 6z"/>
<path d="M2086 181 c-17 -18 -17 -20 4 -31 20 -11 21 -10 11 9 -10 17 -9 20 4
15 8 -4 15 -1 15 4 0 20 -17 21 -34 3z"/>
<path d="M2120 115 c0 -8 2 -15 4 -15 2 0 6 7 10 15 3 8 1 15 -4 15 -6 0 -10
-7 -10 -15z"/>
</g>
</svg>
