<svg width="68" height="58" viewBox="0 0 68 58" fill="none" xmlns="http://www.w3.org/2000/svg">
<path d="M52.7691 0C51.7264 0 50.6874 0.436107 49.903 1.23261L45.6875 5.51302C45.2552 5.95196 44.88 6.73652 44.88 7.45768V8.28571H17.68C7.96218 8.28571 0 16.3706 0 26.2381V41.4286C0 43.7009 1.84218 45.5714 4.08 45.5714H5.44V48.3333C5.44 50.605 7.28284 52.4762 9.52 52.4762H11.1722C12.0664 55.6542 14.9526 58 18.36 58C21.7674 58 24.6536 55.6542 25.5478 52.4762H46.5322C47.4264 55.6542 50.3126 58 53.72 58C57.1274 58 60.0136 55.6542 60.9078 52.4762H63.92C66.1572 52.4762 68 50.605 68 48.3333V41.6686C68 38.6402 65.8268 36.0354 62.8841 35.5379L62.9452 35.5487L52.4795 33.2858L47.6133 26.3676C46.3384 24.5535 44.2743 23.4762 42.0803 23.4762H23.8611C22.1054 23.4762 20.4533 24.3378 19.4331 25.7877L14.1631 33.2831L10.6038 34.0356H10.6011C7.2033 34.7551 5.44 37.666 5.44 40.5547V42.8095H4.08C3.32582 42.8095 2.72 42.1944 2.72 41.4286V26.2381C2.72 17.8771 9.44582 11.0476 17.68 11.0476H44.88V11.8757C44.88 12.5968 45.2552 13.3814 45.6875 13.8203L49.903 18.1007C50.6874 18.8972 51.7264 19.3333 52.7691 19.3333H58.48C59.1902 19.3333 59.9143 19.0691 60.427 18.5485C60.9398 18.0278 61.2 17.2926 61.2 16.5714H68V13.8095H61.2V5.52381H68V2.7619H61.2C61.2 2.04074 60.9398 1.30554 60.427 0.784877C59.9143 0.264216 59.1902 0 58.48 0H52.7691ZM52.7691 2.7619H58.48V16.5714H52.7691C52.4517 16.5714 52.1297 16.4562 51.8261 16.148L47.6106 11.8676C47.6042 11.861 47.6051 11.8639 47.6 11.8595V7.47387C47.6051 7.46947 47.6042 7.47232 47.6106 7.46577L51.8261 3.18536C52.1297 2.8771 52.4517 2.7619 52.7691 2.7619ZM23.8611 26.2381H31.28V33.1429H17.6003L21.6458 27.3952C22.157 26.6686 22.9811 26.2381 23.8611 26.2381ZM34 26.2381H42.0803C43.3978 26.2381 44.6355 26.8837 45.4006 27.9724L49.037 33.1429H34V26.2381ZM15.0955 35.9048H51.5419L62.4086 38.2567L62.4378 38.2621C64.0864 38.5408 65.28 39.9714 65.28 41.6686V48.3333C65.28 49.1136 64.6884 49.7143 63.92 49.7143H61.1655C60.8189 45.8568 57.6056 42.8095 53.72 42.8095C49.8344 42.8095 46.6211 45.8568 46.2745 49.7143H25.8055C25.4589 45.8568 22.2456 42.8095 18.36 42.8095C14.4744 42.8095 11.2611 45.8568 10.9145 49.7143H9.52C8.75156 49.7143 8.16 49.1136 8.16 48.3333V40.5547C8.16 38.6329 8.88241 37.2207 11.1562 36.7382L15.0955 35.9048ZM18.36 45.5714C21.005 45.5714 23.12 47.719 23.12 50.4048C23.12 53.0905 21.005 55.2381 18.36 55.2381C15.715 55.2381 13.6 53.0905 13.6 50.4048C13.6 47.719 15.715 45.5714 18.36 45.5714ZM53.72 45.5714C56.365 45.5714 58.48 47.719 58.48 50.4048C58.48 53.0905 56.365 55.2381 53.72 55.2381C51.075 55.2381 48.96 53.0905 48.96 50.4048C48.96 47.719 51.075 45.5714 53.72 45.5714Z" fill="#B71A1B"/>
</svg>
