<svg width="64" height="64" viewBox="0 0 64 64" fill="none" xmlns="http://www.w3.org/2000/svg">
<path d="M6.29508 0L0 15.7377H6.29508V27.2787L12.5902 12.5902H6.29508V0ZM43.0164 0C36.2295 0 30.2336 3.27049 26.4016 8.27459C26.2828 8.34016 26.1803 8.43443 26.0984 8.54098L3.82787 37.9836C3.7541 38.0779 3.69672 38.1844 3.65984 38.2992C1.41803 41.0164 0 44.4631 0 48.2623C0 56.9426 7.05738 64 15.7377 64C19.5656 64 23.0779 62.627 25.8074 60.3525L25.7705 60.3811L54.6025 38.4754C60.2623 34.7172 64 28.2828 64 20.9836C64 9.40574 54.5943 0 43.0164 0ZM43.0164 2.09836C53.459 2.09836 61.9016 10.541 61.9016 20.9836C61.9016 27.5656 58.5369 33.3443 53.4426 36.7254C53.4221 36.7377 53.4057 36.75 53.3893 36.7664L52.7951 37.2131C52.6762 37.2336 52.5615 37.2746 52.459 37.3361C52.2746 37.4426 52.127 37.5984 52.0328 37.791L49.1844 39.9549C49.0492 39.4795 48.6025 39.1639 48.1107 39.1926C48.041 39.1967 47.9713 39.209 47.9016 39.2295C47.3443 39.377 47.0123 39.9508 47.1639 40.5123C47.1721 40.5451 47.1803 40.5779 47.1967 40.6107C47.2049 40.6434 47.2213 40.6762 47.2336 40.709C47.3238 40.8852 47.4631 41.0328 47.6311 41.1352L24.5 58.709C24.4877 58.7213 24.4754 58.7295 24.4631 58.7418C22.0943 60.7131 19.0615 61.9016 15.7377 61.9016C8.19262 61.9016 2.09836 55.8074 2.09836 48.2623C2.09836 44.8279 3.36885 41.7131 5.46311 39.3115C5.82377 38.8975 5.80328 38.2746 5.41393 37.8852L6.04918 38.5205L22.8402 16.3279C22.9754 16.5779 23.2131 16.7623 23.4918 16.8361C24.0492 16.9877 24.6229 16.6557 24.7746 16.0984C24.9262 15.5369 24.5943 14.9631 24.0328 14.8115C24.0205 14.8074 24.0082 14.8074 23.9959 14.8033L26.1148 12C26.3443 11.918 26.5369 11.7541 26.6598 11.541C26.7418 11.4057 26.7869 11.25 26.7992 11.0943L27.6066 10.0287C27.6803 9.97131 27.75 9.90164 27.8074 9.81967C31.2459 5.14344 36.7623 2.09836 43.0164 2.09836ZM43.0164 10.4918C37.2336 10.4918 32.5246 15.2008 32.5246 20.9836C32.5246 26.7664 37.2336 31.4754 43.0164 31.4754C48.7992 31.4754 53.5082 26.7664 53.5082 20.9836C53.5082 15.2008 48.7992 10.4918 43.0164 10.4918ZM43.0164 12.5902C47.6639 12.5902 51.4098 16.3361 51.4098 20.9836C51.4098 25.6311 47.6639 29.377 43.0164 29.377C38.3689 29.377 34.6229 25.6311 34.6229 20.9836C34.6229 16.3361 38.3689 12.5902 43.0164 12.5902ZM23.082 19.9344C22.5041 19.9344 22.0328 20.4057 22.0328 20.9836C22.0328 21.5615 22.5041 22.0328 23.082 22.0328C23.6598 22.0328 24.1311 21.5615 24.1311 20.9836C24.1311 20.4057 23.6598 19.9344 23.082 19.9344ZM23.7705 25.0943C23.7459 25.0943 23.7213 25.0943 23.6926 25.0984C23.627 25.1025 23.5574 25.1148 23.4918 25.1311C23.2213 25.2008 22.9918 25.377 22.8525 25.6189C22.7131 25.8607 22.6721 26.1475 22.7459 26.4139C22.8197 26.6844 22.9959 26.9139 23.2336 27.0533C23.4754 27.1926 23.7623 27.2295 24.0328 27.1598C24.5943 27.0082 24.9262 26.4344 24.7746 25.8729C24.6516 25.418 24.2418 25.0984 23.7705 25.0943ZM25.7254 29.9016C25.5533 29.9057 25.3811 29.9508 25.2295 30.041C24.7254 30.332 24.5533 30.9713 24.8443 31.4754C25.1352 31.9754 25.7746 32.1475 26.2787 31.8566C26.5164 31.7213 26.6926 31.4918 26.7664 31.2213C26.8361 30.9508 26.7992 30.6639 26.6598 30.4262C26.4672 30.0902 26.1107 29.8893 25.7254 29.9016ZM28.9344 34.0328C28.6516 34.0287 28.377 34.1393 28.1803 34.3402C27.7705 34.7459 27.7705 35.4139 28.1803 35.8197C28.5861 36.2295 29.2541 36.2295 29.6598 35.8197C30.0697 35.4139 30.0697 34.7459 29.6598 34.3402C29.4672 34.1434 29.209 34.0328 28.9344 34.0328ZM33 37.2008C32.6434 37.2172 32.3197 37.4139 32.1393 37.7213C31.8484 38.2254 32.0205 38.8647 32.5246 39.1557C32.7623 39.2951 33.0492 39.332 33.3197 39.2623C33.5902 39.1885 33.8197 39.0123 33.9549 38.7705C34.2459 38.2705 34.0738 37.6311 33.5738 37.3402C33.3975 37.2377 33.1967 37.1926 33 37.2008ZM15.7377 37.7705C15.1598 37.7705 14.6885 38.2418 14.6885 38.8197C14.6885 39.3975 15.1598 39.8689 15.7377 39.8689C16.3156 39.8689 16.7869 39.3975 16.7869 38.8197C16.7869 38.2418 16.3156 37.7705 15.7377 37.7705ZM10.9918 39.0328C10.8156 39.041 10.6434 39.0861 10.4918 39.1762C9.9918 39.4672 9.81557 40.1066 10.1066 40.6066C10.2459 40.8484 10.4754 41.0246 10.7459 41.0984C11.0123 41.168 11.2992 41.1311 11.541 40.9918C12.041 40.7008 12.2131 40.0615 11.9221 39.5574C11.7336 39.2254 11.377 39.0246 10.9918 39.0328ZM20.4098 39.0369C20.0492 39.0533 19.7254 39.25 19.5492 39.5615C19.2582 40.0615 19.4344 40.7049 19.9344 40.9959C20.4344 41.2828 21.0779 41.1107 21.3648 40.6107C21.5082 40.3689 21.5451 40.082 21.4713 39.8156C21.4016 39.5451 21.2254 39.3156 20.9836 39.1762C20.8074 39.0738 20.6107 39.0287 20.4098 39.0369ZM37.8484 39.1926C37.377 39.1967 36.9631 39.5123 36.8402 39.9672C36.6926 40.5287 37.0246 41.1025 37.5861 41.2541C38.1434 41.4057 38.7172 41.0738 38.8689 40.5123C39.0205 39.9508 38.6885 39.377 38.127 39.2295C38.0369 39.2049 37.9426 39.1926 37.8484 39.1926ZM43.0164 39.8689C42.4385 39.8689 41.9672 40.3402 41.9672 40.918C41.9672 41.4959 42.4385 41.9672 43.0164 41.9672C43.5943 41.9672 44.0656 41.4959 44.0656 40.918C44.0656 40.3402 43.5943 39.8689 43.0164 39.8689ZM23.8893 42.4918C23.7131 42.4959 23.541 42.541 23.3893 42.6311C22.8893 42.9221 22.7172 43.5615 23.0041 44.0656C23.2951 44.5656 23.9385 44.7377 24.4385 44.4467C24.6803 44.3115 24.8566 44.082 24.9303 43.8115C25 43.541 24.9631 43.2541 24.8238 43.0164C24.6311 42.6803 24.2746 42.4795 23.8893 42.4918ZM7.5082 42.4918C7.15164 42.5082 6.82787 42.7049 6.65164 43.0164C6.36066 43.5164 6.53279 44.1598 7.03279 44.4467C7.53689 44.7377 8.17623 44.5656 8.46721 44.0656C8.60656 43.8238 8.64344 43.5369 8.57377 43.2705C8.5 43 8.32377 42.7705 8.08197 42.6311C7.90984 42.5287 7.70902 42.4836 7.5082 42.4918ZM6.29508 47.2131C5.71721 47.2131 5.2459 47.6844 5.2459 48.2623C5.2459 48.8402 5.71721 49.3115 6.29508 49.3115C6.87295 49.3115 7.34426 48.8402 7.34426 48.2623C7.34426 47.6844 6.87295 47.2131 6.29508 47.2131ZM25.1803 47.2131C24.6025 47.2131 24.1311 47.6844 24.1311 48.2623C24.1311 48.8402 24.6025 49.3115 25.1803 49.3115C25.7582 49.3115 26.2295 48.8402 26.2295 48.2623C26.2295 47.6844 25.7582 47.2131 25.1803 47.2131ZM7.53688 51.9344C7.36065 51.9385 7.18852 51.9836 7.03279 52.0738C6.53279 52.3647 6.36066 53.0041 6.65164 53.5082C6.94262 54.0082 7.58197 54.1803 8.08197 53.8893C8.32377 53.7541 8.5 53.5246 8.57377 53.2541C8.64754 52.9836 8.61065 52.6967 8.47131 52.459C8.27869 52.1229 7.91803 51.9221 7.53688 51.9344ZM23.8648 51.9344C23.5041 51.9549 23.1803 52.1516 23.0041 52.459C22.7131 52.9631 22.8893 53.6025 23.3893 53.8934C23.8893 54.1844 24.5328 54.0123 24.8197 53.5082C24.9631 53.2705 25 52.9836 24.9262 52.7131C24.8566 52.4426 24.6803 52.2131 24.4385 52.0779C24.2623 51.9754 24.0656 51.9262 23.8648 51.9344ZM20.4303 55.3893C20.2582 55.3934 20.0861 55.4426 19.9344 55.5287C19.6926 55.668 19.5164 55.8975 19.4426 56.168C19.3729 56.4344 19.4098 56.7213 19.5492 56.9631C19.6885 57.2049 19.918 57.3811 20.1885 57.4508C20.4549 57.5246 20.7418 57.4877 20.9836 57.3443C21.4836 57.0574 21.6557 56.4139 21.3648 55.9139C21.1762 55.582 20.8156 55.3811 20.4303 55.3893ZM10.9672 55.3934C10.6107 55.4098 10.2869 55.6066 10.1066 55.918C9.81557 56.418 9.9877 57.0574 10.4918 57.3484C10.7295 57.4877 11.0164 57.5246 11.2869 57.4549C11.5574 57.3811 11.7869 57.2049 11.9221 56.9672C12.2131 56.4631 12.041 55.8238 11.541 55.5328C11.3648 55.4303 11.1639 55.3852 10.9672 55.3934ZM15.7377 56.6557C15.1598 56.6557 14.6885 57.127 14.6885 57.7049C14.6885 58.2828 15.1598 58.7541 15.7377 58.7541C16.3156 58.7541 16.7869 58.2828 16.7869 57.7049C16.7869 57.127 16.3156 56.6557 15.7377 56.6557Z" fill="#B71A1B"/>
</svg>
