<svg width="59" height="60" viewBox="0 0 59 60" fill="none" xmlns="http://www.w3.org/2000/svg">
<path d="M39.8987 1.19995C39.3363 1.30776 38.9307 1.81401 38.9399 2.39995V3.59995H18.8799C18.843 3.59995 18.8062 3.59995 18.7693 3.59995C18.1608 3.6562 17.6953 4.17651 17.6999 4.79995V13.2C17.6999 13.8609 18.23 14.4 18.8799 14.4H22.5305C22.7564 15.7828 23.3787 17.0015 24.2637 18H18.8799C18.843 18 18.8062 18 18.7693 18C18.7324 18 18.6955 18 18.6587 18C18.0963 18.1078 17.6907 18.614 17.6999 19.1999V24C17.6999 24.6609 18.23 25.1999 18.8799 25.1999H19.3224L6.01053 52.2749C5.83077 52.6499 5.85381 53.0906 6.07506 53.4421C6.2917 53.789 6.66967 54.0046 7.07991 53.9999H10.6199C11.0532 53.9953 11.4496 53.7515 11.6524 53.3624L26.0337 26.3624L27.1399 56.4374C27.1583 57.0843 27.6838 57.5999 28.3199 57.5999H30.6799C31.316 57.5999 31.8415 57.0843 31.8599 56.4374L32.9662 26.3249L47.3474 53.3624C47.5502 53.7515 47.9466 53.9953 48.3799 53.9999H51.9199C52.3301 54.0046 52.7081 53.789 52.9247 53.4421C53.146 53.0906 53.169 52.6499 52.9893 52.2749L39.6774 25.1999H40.1199C40.7698 25.1999 41.2999 24.6609 41.2999 24V19.1999C41.2999 18.539 40.7698 18 40.1199 18H34.7362C35.6212 17.0015 36.2434 15.7828 36.4693 14.4H38.9399V15.6C38.9399 16.2609 39.47 16.8 40.1199 16.8H43.6599C44.3098 16.8 44.8399 16.2609 44.8399 15.6V2.39995C44.8399 1.73901 44.3098 1.19995 43.6599 1.19995H40.1199C40.083 1.19995 40.0462 1.19995 40.0093 1.19995C39.9724 1.19995 39.9355 1.19995 39.8987 1.19995ZM41.2999 3.59995H42.4799V14.4H41.2999V13.3875C41.3045 13.3265 41.3045 13.2609 41.2999 13.2V4.79995C41.2999 4.76245 41.2999 4.72495 41.2999 4.68745V3.59995ZM20.0599 5.99995H38.9399V12H23.8212C23.6644 11.9671 23.4985 11.9671 23.3418 12H20.0599V5.99995ZM24.9643 14.4H34.0355C33.5147 16.4765 31.7078 18 29.4999 18C27.292 18 25.4851 16.4765 24.9643 14.4ZM20.0599 20.4H38.9399V22.7999H20.0599V20.4ZM21.9774 25.1999H24.0055L9.91928 51.5999H8.99741L21.9774 25.1999ZM28.3568 25.1999H30.643L29.5368 55.1999H29.463L28.3568 25.1999ZM34.9943 25.1999H37.0224L50.0024 51.5999H49.0805L34.9943 25.1999Z" fill="#B71A1B"/>
</svg>
