<svg width="67" height="67" viewBox="0 0 67 67" fill="none" xmlns="http://www.w3.org/2000/svg">
<path fill-rule="evenodd" clip-rule="evenodd" d="M33.5 65C50.897 65 65 50.897 65 33.5C65 16.103 50.897 2 33.5 2C16.103 2 2 16.103 2 33.5C2 50.897 16.103 65 33.5 65ZM33.5 50.9462C23.8648 50.9462 16.0538 43.1352 16.0538 33.5C16.0538 23.8648 23.8648 16.0538 33.5 16.0538C43.1352 16.0538 50.9462 23.8648 50.9462 33.5C50.9462 43.1352 43.1352 50.9462 33.5 50.9462ZM33.5 67C52.0015 67 67 52.0015 67 33.5C67 14.9985 52.0015 0 33.5 0C14.9985 0 0 14.9985 0 33.5C0 52.0015 14.9985 67 33.5 67ZM33.5 48.9462C24.9693 48.9462 18.0538 42.0307 18.0538 33.5C18.0538 24.9693 24.9693 18.0538 33.5 18.0538C42.0307 18.0538 48.9462 24.9693 48.9462 33.5C48.9462 42.0307 42.0307 48.9462 33.5 48.9462ZM39.1889 9.4814C39.1889 12.6232 36.642 15.1701 33.5002 15.1701C30.3584 15.1701 27.8115 12.6232 27.8115 9.4814C27.8115 6.33963 30.3584 3.79272 33.5002 3.79272C36.642 3.79272 39.1889 6.33963 39.1889 9.4814ZM30.8773 9.4814C30.8773 10.93 32.0516 12.1043 33.5002 12.1043C34.9488 12.1043 36.1231 10.93 36.1231 9.4814C36.1231 8.0328 34.9488 6.85847 33.5002 6.85847C32.0516 6.85847 30.8773 8.0328 30.8773 9.4814ZM15.8015 22.7546C18.9432 22.7546 21.4902 20.2076 21.4902 17.0659C21.4902 13.9241 18.9432 11.3772 15.8015 11.3772C12.6597 11.3772 10.1128 13.9241 10.1128 17.0659C10.1128 20.2076 12.6597 22.7546 15.8015 22.7546ZM15.8015 19.6888C14.3529 19.6888 13.1785 18.5145 13.1785 17.0659C13.1785 15.6173 14.3529 14.4429 15.8015 14.4429C17.2501 14.4429 18.4244 15.6173 18.4244 17.0659C18.4244 18.5145 17.2501 19.6888 15.8015 19.6888ZM15.1694 33.5C15.1694 36.6417 12.6224 39.1886 9.48067 39.1886C6.3389 39.1886 3.79199 36.6417 3.79199 33.5C3.79199 30.3582 6.3389 27.8113 9.48067 27.8113C12.6224 27.8113 15.1694 30.3582 15.1694 33.5ZM6.85774 33.5C6.85774 34.9486 8.03207 36.1229 9.48067 36.1229C10.9293 36.1229 12.1036 34.9486 12.1036 33.5C12.1036 32.0514 10.9293 30.877 9.48067 30.877C8.03207 30.877 6.85774 32.0514 6.85774 33.5ZM15.8015 56.8869C18.9432 56.8869 21.4902 54.34 21.4902 51.1982C21.4902 48.0564 18.9432 45.5095 15.8015 45.5095C12.6597 45.5095 10.1128 48.0564 10.1128 51.1982C10.1128 54.34 12.6597 56.8869 15.8015 56.8869ZM15.8015 53.8211C14.3529 53.8211 13.1785 52.6468 13.1785 51.1982C13.1785 49.7496 14.3529 48.5753 15.8015 48.5753C17.2501 48.5753 18.4244 49.7496 18.4244 51.1982C18.4244 52.6468 17.2501 53.8211 15.8015 53.8211ZM39.1889 57.519C39.1889 60.6608 36.642 63.2077 33.5002 63.2077C30.3584 63.2077 27.8115 60.6608 27.8115 57.519C27.8115 54.3772 30.3584 51.8303 33.5002 51.8303C36.642 51.8303 39.1889 54.3772 39.1889 57.519ZM30.8773 57.519C30.8773 58.9676 32.0516 60.1419 33.5002 60.1419C34.9488 60.1419 36.1231 58.9676 36.1231 57.519C36.1231 56.0704 34.9488 54.8961 33.5002 54.8961C32.0516 54.8961 30.8773 56.0704 30.8773 57.519ZM49.9333 56.8869C53.0751 56.8869 55.622 54.34 55.622 51.1982C55.622 48.0564 53.0751 45.5095 49.9333 45.5095C46.7915 45.5095 44.2446 48.0564 44.2446 51.1982C44.2446 54.34 46.7915 56.8869 49.9333 56.8869ZM49.9333 53.8211C48.4847 53.8211 47.3104 52.6468 47.3104 51.1982C47.3104 49.7496 48.4847 48.5753 49.9333 48.5753C51.3819 48.5753 52.5562 49.7496 52.5562 51.1982C52.5562 52.6468 51.3819 53.8211 49.9333 53.8211ZM63.2079 33.5C63.2079 36.6417 60.661 39.1886 57.5192 39.1886C54.3775 39.1886 51.8306 36.6417 51.8306 33.5C51.8306 30.3582 54.3775 27.8113 57.5192 27.8113C60.661 27.8113 63.2079 30.3582 63.2079 33.5ZM54.8963 33.5C54.8963 34.9486 56.0706 36.1229 57.5192 36.1229C58.9678 36.1229 60.1422 34.9486 60.1422 33.5C60.1422 32.0514 58.9678 30.877 57.5192 30.877C56.0706 30.877 54.8963 32.0514 54.8963 33.5ZM51.1984 22.7546C54.3402 22.7546 56.8871 20.2076 56.8871 17.0659C56.8871 13.9241 54.3402 11.3772 51.1984 11.3772C48.0567 11.3772 45.5098 13.9241 45.5098 17.0659C45.5098 20.2076 48.0567 22.7546 51.1984 22.7546ZM51.1984 19.6888C49.7498 19.6888 48.5755 18.5145 48.5755 17.0659C48.5755 15.6173 49.7498 14.4429 51.1984 14.4429C52.647 14.4429 53.8214 15.6173 53.8214 17.0659C53.8214 18.5145 52.647 19.6888 51.1984 19.6888Z" fill="#B71A1B"/>
</svg>
