<svg width="74" height="74" viewBox="0 0 74 74" fill="none" xmlns="http://www.w3.org/2000/svg">
<path d="M37 7.40002C23.0903 7.40002 11.84 15.9852 11.84 26.64V30.3805C6.67152 32.6294 2.95996 39.353 2.95996 47.36C2.95996 56.8297 8.13996 64.5303 14.8 65.12V26.64C14.8 17.6097 24.7148 10.36 37 10.36C49.2851 10.36 59.1999 17.6097 59.1999 26.64V65.12C65.8599 64.5303 71.0399 56.8297 71.0399 47.36C71.0399 39.353 67.3284 32.6294 62.1599 30.3805V26.64C62.1599 15.9852 50.9096 7.40002 37 7.40002ZM17.76 29.8949V64.8252C18.7948 64.5303 19.8296 64.0852 20.72 63.4955V31.2246C19.8296 30.6349 18.7948 30.1897 17.76 29.8949ZM56.2399 29.8949C55.2051 30.1897 54.1703 30.6349 53.2799 31.2246V63.4955C54.1703 64.0852 55.2051 64.5303 56.2399 64.8252V29.8949ZM36.1154 31.08L33.0051 50.9155L28.7154 35.52L25.6051 48.6955L23.68 43.66V49.7246L26.1948 56.24L29.0045 44.4L33.5948 61.5646L36.4045 42.92L40.5554 60.8246L44.9954 44.5446L47.8051 56.8355L50.32 51.06V45.5852L48.3948 49.7246L45.2845 35.3755L40.8445 51.6555L36.1154 31.08ZM11.84 33.7452V60.9749C8.4348 58.6046 5.91996 53.28 5.91996 47.36C5.91996 41.44 8.4348 36.1155 11.84 33.7452ZM62.1599 33.7452C65.5651 35.9652 68.0799 41.2897 68.0799 47.36C68.0799 53.4303 65.5651 58.6046 62.1599 60.9749V33.7452Z" fill="#B71A1B"/>
</svg>
