<svg width="66" height="77" viewBox="0 0 66 77" fill="none" xmlns="http://www.w3.org/2000/svg">
<path fill-rule="evenodd" clip-rule="evenodd" d="M14.8516 45.4572C14.436 39.7523 16.5828 34.2564 20.8776 30.4299C23.0943 28.4123 24.3412 25.4903 24.3412 22.4292V16.8634C24.3412 12.8978 27.0433 9.4885 30.7839 8.58406V3.92328C30.7839 2.74056 31.6844 1.83613 32.862 1.83613C34.0396 1.83613 34.9401 2.74056 34.9401 3.92328V8.58406C38.6115 9.4885 41.3815 12.8282 41.3815 16.8634V22.2199C41.3815 25.2811 42.7672 28.2732 45.1224 30.4299C49.0015 33.839 51.2187 38.8481 51.2187 43.9965C51.2187 48.8665 49.3473 53.4577 45.9531 57.0059C42.4895 60.4845 37.9179 62.3637 33.069 62.3637C32.8612 62.3637 32.6708 62.3461 32.4805 62.3284C32.2901 62.3107 32.0998 62.2931 31.8919 62.2931C22.8175 61.6669 15.5443 54.5015 14.8516 45.4572ZM46.3413 29.0613C50.615 32.825 53.0469 38.3349 53.0469 43.9965C53.0469 49.3514 50.9854 54.3956 47.2714 58.278L47.2587 58.2912L47.2458 58.3042C43.4372 62.1294 38.3996 64.1998 33.069 64.1998C32.7758 64.1998 32.5137 64.1755 32.3325 64.1586L32.3123 64.1567C32.1131 64.1383 32.0033 64.1292 31.8919 64.1292H31.8292L31.7666 64.1249C21.8016 63.4373 13.7922 55.5656 13.0288 45.598L13.0283 45.5912C12.5725 39.3345 14.9297 33.2792 19.6566 29.0633C21.4701 27.4092 22.513 24.992 22.513 22.4292V16.8634C22.513 12.5609 25.1349 8.78633 28.9557 7.24749V3.92328C28.9557 1.7265 30.6747 0 32.862 0C35.0493 0 36.7683 1.7265 36.7683 3.92328V7.25278C40.5243 8.77904 43.2097 12.4844 43.2097 16.8634V22.2199C43.2097 24.7197 44.3438 27.2259 46.3413 29.0613ZM42.4205 33.4914C39.9961 31.2651 38.3333 28.4118 37.6406 25.3506H28.22C27.5966 28.4814 26.0037 31.4042 23.6485 33.4914C20.3927 36.483 18.6615 40.6567 19.0079 45.1093C19.4928 52.0665 25.1719 57.632 32.0989 58.0494C36.1859 58.3277 40.0659 56.7969 42.9753 53.9444C45.6768 51.3007 47.1315 47.7533 47.1315 43.9965C47.1315 39.9613 45.3992 36.1351 42.4205 33.4914ZM29.6506 27.1868C28.7942 30.1153 27.1618 32.8217 24.8712 34.8565C22.0198 37.4825 20.5303 41.1069 20.8305 44.9663L20.8311 44.9737L20.8316 44.9811C21.2514 51.0045 26.184 55.8536 32.2084 56.2166L32.2155 56.217L32.2226 56.2175C35.7627 56.4586 39.1407 55.138 41.6982 52.6305L41.6994 52.6293C44.041 50.3379 45.3033 47.2678 45.3033 43.9965C45.3033 40.4893 43.7971 37.1635 41.2099 34.8672L41.1984 34.8569L41.187 34.8465C38.8742 32.7228 37.174 30.0738 36.2481 27.1868H29.6506ZM32.0012 14.4841C31.0222 14.8587 30.3256 15.8062 30.3256 16.8634V19.4095H32.6952V16.8634C32.6952 16.0295 32.4436 15.2148 32.0012 14.4841ZM0 43.9965C0 41.7997 1.71902 40.0732 3.9063 40.0732H7.16148C9.34876 40.0732 11.0678 41.7997 11.0678 43.9965C11.0678 46.1932 9.34876 47.9197 7.16148 47.9197H3.9063C1.71902 47.9197 0 46.1932 0 43.9965ZM54.9322 43.9965C54.9322 41.7997 56.6512 40.0732 58.8385 40.0732H62.0937C64.281 40.0732 66 41.7997 66 43.9965C66 46.1932 64.281 47.9197 62.0937 47.9197H58.8385C56.7604 47.9197 54.9322 46.2328 54.9322 43.9965ZM11.9651 59.534C12.7263 58.7695 13.7288 58.3698 14.738 58.3698C15.7247 58.3698 16.7184 58.7543 17.4597 59.533C19.0542 61.0614 18.9541 63.5523 17.4594 65.0535L15.1743 67.3486C14.4395 68.0865 13.4987 68.5128 12.4271 68.5128C11.4707 68.5128 10.4633 68.1211 9.70692 67.3767C8.08271 65.8508 8.17505 63.3405 9.67865 61.8304L11.9651 59.534ZM10.9714 66.0502C10.1401 65.2849 10.1401 63.9636 10.9714 63.1287L13.2578 60.8323C13.6735 60.4149 14.2098 60.2059 14.738 60.2059C15.2662 60.2059 15.7857 60.4149 16.1667 60.8323C16.9979 61.5976 16.9979 62.9203 16.1667 63.7552L13.8816 66.0502C13.4659 66.4677 12.9813 66.6766 12.4271 66.6766C11.9422 66.6766 11.387 66.4677 10.9714 66.0502ZM48.5129 59.5621C49.257 58.7638 50.2631 58.3698 51.262 58.3698C52.2712 58.3698 53.2737 58.7695 54.0349 59.534L56.2976 61.8066C57.9171 63.3328 57.8235 65.8398 56.3213 67.3486C55.5856 68.0875 54.6432 68.5128 53.5729 68.5128C52.6032 68.5128 51.5843 68.1104 50.8257 67.3486L48.5643 65.0773C46.9548 63.5605 47.0373 61.0737 48.5129 59.5621ZM49.8333 60.8323C49.0021 61.6672 49.0021 62.9899 49.8333 63.7552L52.1184 66.0502C52.5341 66.4677 53.088 66.6766 53.5729 66.6766C54.127 66.6766 54.613 66.4677 55.0286 66.0502C55.8599 65.2154 55.8599 63.894 55.0286 63.1287L52.7422 60.8323C52.3265 60.4149 51.7902 60.2059 51.262 60.2059C50.7338 60.2059 50.2143 60.4149 49.8333 60.8323ZM29.0937 69.8767C29.0937 67.6799 30.8127 65.9534 33 65.9534C35.1873 65.9534 36.9063 67.6799 36.9063 69.8767V73.0767C36.9063 75.2735 35.1873 77 33 77C30.8127 77 29.0937 75.2735 29.0937 73.0767V69.8767ZM34.5234 16.8634C34.5234 15.1937 33.8307 13.6625 32.7916 12.4798C30.4364 12.5494 28.4974 14.4979 28.4974 16.8634V21.2456H34.5234V16.8634ZM1.82818 43.9965C1.82818 42.8137 2.7287 41.9093 3.9063 41.9093H7.16148C8.33908 41.9093 9.2396 42.8137 9.2396 43.9965C9.2396 45.1792 8.33908 46.0836 7.16148 46.0836H3.9063C2.7287 46.0836 1.82818 45.1792 1.82818 43.9965ZM56.7604 43.9965C56.7604 42.8137 57.6609 41.9093 58.8385 41.9093H62.0937C63.2713 41.9093 64.1718 42.8137 64.1718 43.9965C64.1718 45.1792 63.2713 46.0836 62.0937 46.0836H58.8385C57.7302 46.0836 56.7604 45.1792 56.7604 43.9965ZM30.9219 69.8767C30.9219 68.694 31.8224 67.7895 33 67.7895C34.1776 67.7895 35.0781 68.694 35.0781 69.8767V73.0767C35.0781 74.2594 34.1776 75.1639 33 75.1639C31.8224 75.1639 30.9219 74.2594 30.9219 73.0767V69.8767Z" fill="#B71A1B"/>
</svg>
