<svg width="66" height="65" viewBox="0 0 66 65" fill="none" xmlns="http://www.w3.org/2000/svg">
<g clip-path="url(#clip0_68_10)">
<path d="M52.9239 -0.000739454C52.532 0.0500418 52.1814 0.27348 51.9752 0.608635L49.8302 4.10239C49.1599 4.0516 48.4741 4.04653 47.8089 4.10239L45.6227 0.64926C45.272 0.105901 44.5708 -0.102302 43.9727 0.161761L40.2602 1.70551C39.6569 1.94926 39.3269 2.58403 39.4764 3.20864L40.3839 7.14926C39.8786 7.5809 39.4197 8.05824 38.9814 8.57113L34.9389 7.67738C34.3099 7.55551 33.6808 7.90082 33.4539 8.48988L31.9277 12.1461C31.6595 12.7352 31.871 13.4258 32.4227 13.7711L35.9289 15.9243C35.8825 16.5895 35.8722 17.2598 35.9289 17.9149L32.4639 20.068C31.9122 20.4133 31.7008 21.1039 31.9689 21.693L33.5364 25.3493C33.7788 25.9231 34.4027 26.2481 35.0214 26.1211L39.0639 25.2274C39.5022 25.725 39.9869 26.177 40.5077 26.6086L39.6002 30.5899C39.4713 31.1993 39.8013 31.8137 40.3839 32.0524L44.1377 33.5555C44.7255 33.7942 45.401 33.5911 45.7464 33.068L47.9739 29.6149C48.6649 29.6606 49.3558 29.6352 50.0364 29.5743L52.2639 33.0274C52.6094 33.5504 53.2849 33.7536 53.8727 33.5149L57.6264 31.9711C58.2091 31.7121 58.5236 31.0825 58.3689 30.468L57.3789 26.4868C57.8739 26.0653 58.3535 25.6032 58.7814 25.1055L62.8652 25.9586C63.5097 26.1008 64.1594 25.7555 64.3914 25.1461L65.9177 21.4899C66.1755 20.8907 65.9486 20.2 65.3814 19.8649L61.8339 17.7118C61.8803 17.0668 61.8442 16.4371 61.7927 15.8024L65.2989 13.5274C65.8455 13.1973 66.0724 12.527 65.8352 11.943L64.2264 8.28676C63.9789 7.69262 63.3344 7.36762 62.7002 7.51488L58.6989 8.48988C58.2555 7.98207 57.7811 7.50473 57.2552 7.06801L58.1214 3.08676C58.271 2.46215 57.941 1.82739 57.3377 1.58364L53.5839 0.0805105C53.3725 -0.000739458 53.1456 -0.0312082 52.9239 -0.000739454ZM53.6252 2.92426L55.3164 3.61489L54.5327 7.23051C54.4296 7.72309 54.6203 8.22582 55.0277 8.53051C55.8785 9.14496 56.6055 9.87621 57.2139 10.6836C57.5336 11.1153 58.0905 11.3082 58.6164 11.1711L62.2464 10.2774L62.9477 11.943L59.7714 13.9743C59.3331 14.2586 59.1063 14.7664 59.1939 15.2743C59.3486 16.2645 59.3435 17.2598 59.1939 18.2805C59.1166 18.7985 59.3589 19.3063 59.8127 19.5805L63.0302 21.5305L62.3289 23.1555L58.6577 22.3836C58.1369 22.2719 57.6006 22.4801 57.2964 22.9118C56.6828 23.7446 55.9661 24.4606 55.1514 25.0649C54.7286 25.3746 54.5378 25.9028 54.6564 26.4055L55.5639 30.0211L53.8727 30.7118L51.8102 27.5836C51.5317 27.1368 51.0161 26.8981 50.4902 26.9743C49.4899 27.1368 48.4792 27.1571 47.4377 27.0149C46.9117 26.9387 46.3961 27.1774 46.1177 27.6243L44.0964 30.7524L42.4052 30.0618L43.2302 26.4868C43.3488 25.984 43.158 25.4559 42.7352 25.1461C41.8844 24.5368 41.1213 23.8411 40.5077 23.0336C40.1983 22.6325 39.6878 22.4446 39.1877 22.5461L35.5577 23.3586L34.8152 21.6524L37.9502 19.743C38.4039 19.4688 38.6463 18.961 38.5689 18.443C38.4039 17.4375 38.3781 16.3864 38.5277 15.3555C38.5895 14.8528 38.3472 14.3602 37.9089 14.0961L34.7739 12.1461L35.4752 10.4805L39.0639 11.2524C39.5744 11.3692 40.1106 11.1813 40.4252 10.7649C41.0542 9.92192 41.7864 9.18051 42.6114 8.57113C43.0188 8.26645 43.2095 7.76371 43.1064 7.27113L42.2814 3.69614L43.9727 3.00551L45.9527 6.09301C46.2414 6.52465 46.757 6.74809 47.2727 6.66176C48.2833 6.50434 49.3249 6.50942 50.3664 6.66176C50.8924 6.73793 51.408 6.49926 51.6864 6.05238L53.6252 2.92426ZM48.7989 10.2368C46.1795 10.2774 43.6942 11.811 42.6527 14.3399C41.2605 17.7118 42.9414 21.6219 46.3652 22.993C49.7889 24.3641 53.718 22.7086 55.1102 19.3368C56.5024 15.9649 54.8627 12.0954 51.4389 10.7243C50.583 10.384 49.6703 10.2215 48.7989 10.2368ZM48.8402 12.7961C49.3713 12.7911 49.923 12.9129 50.4489 13.1211C52.5527 13.9641 53.5324 16.2899 52.6764 18.3618C51.8256 20.4286 49.4589 21.3985 47.3552 20.5555C45.2514 19.7125 44.2717 17.3868 45.1277 15.3149C45.5556 14.2789 46.3549 13.5223 47.3139 13.1211C47.7935 12.9231 48.3091 12.8012 48.8402 12.7961ZM18.9339 22.0993C18.3719 22.2008 17.9439 22.6426 17.8614 23.1961L17.0364 28.4368C16.0877 28.7211 15.1802 29.0868 14.3139 29.5336L9.90017 26.4461C9.37939 26.0754 8.66783 26.1313 8.20892 26.568L4.57892 30.143C4.13549 30.595 4.07877 31.2957 4.45517 31.8086L7.54892 36.1555C7.09517 37.0036 6.73424 37.9075 6.43517 38.8368L1.11392 39.7305C0.479703 39.827 0.0104848 40.3602 0.000172273 40.9899V46.0274C-0.0101402 46.6621 0.44361 47.2106 1.07267 47.3274L6.39392 48.2211C6.69299 49.1809 7.07455 50.0696 7.54892 50.943L4.41392 55.2493C4.03752 55.7621 4.09424 56.4629 4.53767 56.9149L8.16767 60.4899C8.62658 60.9266 9.33814 60.9825 9.85892 60.6118L14.2727 57.5649C15.1338 58.0118 16.0516 58.3723 16.9952 58.6618L17.8614 63.9024C17.9645 64.5422 18.5266 65.0094 19.1814 64.9993H24.2964C24.941 65.0094 25.4978 64.5625 25.6164 63.943L26.5652 58.6211C27.4985 58.3317 28.3956 57.9711 29.2464 57.5243L33.7014 60.6118C34.2222 60.9825 34.9338 60.9266 35.3927 60.4899L39.0227 56.9149C39.4661 56.4629 39.5228 55.7621 39.1464 55.2493L35.9702 50.8618C36.4188 50.0137 36.7952 49.1504 37.0839 48.2211L42.4877 47.3274C43.1167 47.2106 43.5705 46.6621 43.5602 46.0274V40.9899C43.5499 40.3602 43.0806 39.827 42.4464 39.7305L37.0427 38.8368C36.7539 37.9278 36.4136 37.0645 35.9702 36.2368L39.1052 31.8086C39.4816 31.2957 39.4249 30.595 38.9814 30.143L35.3514 26.568C34.8925 26.1313 34.181 26.0754 33.6602 26.4461L29.2464 29.5743C28.3853 29.1274 27.4675 28.7668 26.5239 28.4774L25.6164 23.1961C25.5133 22.5563 24.9513 22.0891 24.2964 22.0993H19.1814C19.1402 22.0993 19.0989 22.0993 19.0577 22.0993C19.0164 22.0993 18.9752 22.0993 18.9339 22.0993ZM20.3364 24.6993H23.1827L24.0489 29.5743C24.1314 30.0922 24.5233 30.5086 25.0389 30.6305C26.3589 30.9555 27.617 31.4582 28.7514 32.1336C29.2 32.4028 29.7672 32.3875 30.1952 32.093L34.2789 29.2086L36.3002 31.1993L33.4127 35.3024C33.0981 35.7188 33.0672 36.2774 33.3302 36.7243C34.0108 37.8414 34.5264 39.045 34.8564 40.3399C34.9802 40.8477 35.403 41.2336 35.9289 41.3149L40.9202 42.1274V44.9305L35.9289 45.7836C35.403 45.8649 34.9802 46.2508 34.8564 46.7586C34.5316 48.0536 34.0108 49.2621 33.3302 50.3743C33.0517 50.8313 33.0827 51.4102 33.4127 51.8368L36.3414 55.8586L34.3202 57.8493L30.1952 55.0055C29.7672 54.711 29.2 54.6957 28.7514 54.9649C27.6274 55.6403 26.3589 56.1379 25.0389 56.468C24.5388 56.6051 24.1675 57.0215 24.0902 57.5243L23.1827 62.3993H20.2952L19.4702 57.5243C19.3722 57.0215 18.9855 56.6254 18.4802 56.5086C17.155 56.1887 15.9072 55.6403 14.7677 54.9649C14.3242 54.7262 13.7777 54.7567 13.3652 55.0461L9.24017 57.8493L7.21892 55.8586L10.1064 51.8774C10.4261 51.4457 10.4416 50.8668 10.1477 50.4149C9.45674 49.2875 8.95142 48.0688 8.62142 46.7586C8.49767 46.2508 8.07486 45.8649 7.54892 45.7836L2.64017 44.9305V42.0868L7.54892 41.2743C8.05939 41.1981 8.4822 40.8325 8.62142 40.3399C8.95658 39.0246 9.45674 37.7704 10.1477 36.643C10.421 36.2012 10.4055 35.6426 10.1064 35.2211L7.26017 31.1993L9.28142 29.168L13.3652 32.0524C13.7931 32.3469 14.3603 32.3621 14.8089 32.093C15.9433 31.4227 17.1963 30.9504 18.5214 30.6305C19.037 30.5086 19.4289 30.0922 19.5114 29.5743L20.3364 24.6993ZM21.7802 35.5461C17.2994 35.5461 13.6539 39.1364 13.6539 43.5493C13.6539 47.9621 17.2994 51.5524 21.7802 51.5524C26.261 51.5524 29.9064 47.9621 29.9064 43.5493C29.9064 39.1364 26.261 35.5461 21.7802 35.5461ZM21.7802 38.1461C24.8327 38.1461 27.2664 40.543 27.2664 43.5493C27.2664 46.5555 24.8327 48.9524 21.7802 48.9524C18.7277 48.9524 16.2939 46.5555 16.2939 43.5493C16.2939 40.543 18.7277 38.1461 21.7802 38.1461Z" fill="#B71A1B"/>
</g>
<defs>
<clipPath id="clip0_68_10">
<rect width="66" height="65" fill="white"/>
</clipPath>
</defs>
</svg>
