<svg width="70" height="70" viewBox="0 0 70 70" fill="none" xmlns="http://www.w3.org/2000/svg">
<path fill-rule="evenodd" clip-rule="evenodd" d="M39.741 42.0786L39.7393 42.0778C30.4128 37.3 24.381 29.4076 24.381 21.5357C24.381 15.3396 28.7962 11.299 33.9698 10.9588C36.6644 10.7817 39.46 11.6085 41.8572 13.4522C45.1638 10.9098 49.2273 10.3068 52.691 11.5792C56.5627 13.0014 59.3333 16.6507 59.3333 21.5357C59.3333 29.409 53.3017 37.3016 43.9746 42.078L43.9697 42.0805C42.6489 42.7538 41.0651 42.7559 39.741 42.0786ZM0 18.2381C0 8.18302 8.18302 0 18.2381 0H51.7619C61.817 0 70 8.18302 70 18.2381V51.7619C70 61.817 61.817 70 51.7619 70H18.2381C8.18302 70 0 61.817 0 51.7619V18.2381ZM51.7619 9.04762H18.2381C13.1435 9.04762 9.04762 13.1435 9.04762 18.2381V51.7619C9.04762 56.8565 13.1435 60.9524 18.2381 60.9524H51.7619C56.8565 60.9524 60.9524 56.8565 60.9524 51.7619V18.2381C60.9524 13.1435 56.8565 9.04762 51.7619 9.04762ZM41.1071 39.4077C32.3559 34.9247 27.381 27.8717 27.381 21.5357C27.381 16.9776 30.5119 14.1927 34.1667 13.9524C36.3595 13.8082 38.7402 14.5809 40.747 16.4375C41.3764 17.0211 42.3379 17.0211 42.9673 16.4375C48.3174 11.4866 56.3333 14.2428 56.3333 21.5357C56.3333 27.8732 51.3584 34.9262 42.6071 39.4077M3 18.2381C3 9.83987 9.83987 3 18.2381 3H51.7619C60.1601 3 67 9.83987 67 18.2381V51.7619C67 60.1601 60.1601 67 51.7619 67H18.2381C9.83987 67 3 60.1601 3 51.7619V18.2381ZM51.7619 6.04762H18.2381C11.4866 6.04762 6.04762 11.4866 6.04762 18.2381V51.7619C6.04762 58.5134 11.4866 63.9524 18.2381 63.9524H51.7619C58.5134 63.9524 63.9524 58.5134 63.9524 51.7619V18.2381C63.9524 11.4866 58.5134 6.04762 51.7619 6.04762Z" fill="#B71A1B"/>
</svg>
