<svg width="76" height="76" viewBox="0 0 76 76" fill="none" xmlns="http://www.w3.org/2000/svg">
<path d="M28.5003 7.125C23.2622 7.125 19.0003 11.3869 19.0003 16.625C19.0003 19.4631 20.2585 22.0079 22.238 23.75H12.4574C8.79991 23.75 5.5097 26.2076 4.47657 29.7107L3.98951 31.3853C1.34139 40.3746 1.34139 49.8754 3.98951 58.8647L4.47657 60.5393C5.5097 64.0424 8.79991 66.5 12.4574 66.5H14.3685C14.9148 69.2075 17.314 71.25 20.1878 71.25C23.0615 71.25 25.4607 69.2075 26.007 66.5H49.9935C50.5398 69.2075 52.939 71.25 55.8127 71.25C58.6865 71.25 61.0857 69.2075 61.632 66.5H63.5431C67.2006 66.5 70.4908 64.0424 71.5239 60.5393L72.011 58.8647C74.6591 49.8754 74.6591 40.3746 72.011 31.3853L71.5239 29.7107C70.4908 26.2076 67.2006 23.75 63.5431 23.75H56.3392C56.7477 23.0482 57.0002 22.2443 57.0002 21.375C57.0002 19.5498 55.9538 17.9807 54.4397 17.1863C54.353 17.0473 54.2425 16.9218 54.0964 16.8245C47.2505 12.2609 39.6967 9.19722 31.636 7.66772C30.6539 7.32216 29.5999 7.125 28.5003 7.125ZM28.426 9.50464L29.8849 9.74585C30.2625 9.80879 30.6333 9.8938 31.0098 9.96387C33.7018 10.9816 35.6253 13.5803 35.6253 16.625C35.6253 20.5544 32.4297 23.75 28.5003 23.75C24.5708 23.75 21.3753 20.5544 21.3753 16.625C21.3753 12.7217 24.5322 9.54501 28.426 9.50464ZM36.277 11.1862C41.1362 12.5625 45.7767 14.5488 50.142 17.1399C48.5828 17.9201 47.5003 19.5166 47.5003 21.375C47.5003 22.2443 47.7528 23.0482 48.1613 23.75H34.7625C36.742 22.0079 38.0003 19.4631 38.0003 16.625C38.0003 14.6027 37.36 12.7287 36.277 11.1862ZM28.5003 14.25C27.8704 14.25 27.2663 14.5002 26.8209 14.9456C26.3755 15.391 26.1253 15.9951 26.1253 16.625C26.1253 17.2549 26.3755 17.859 26.8209 18.3044C27.2663 18.7498 27.8704 19 28.5003 19C29.1301 19 29.7342 18.7498 30.1796 18.3044C30.625 17.859 30.8753 17.2549 30.8753 16.625C30.8753 15.9951 30.625 15.391 30.1796 14.9456C29.7342 14.5002 29.1301 14.25 28.5003 14.25ZM52.2502 19C53.5601 19 54.6252 20.0652 54.6252 21.375C54.6252 22.6848 53.5601 23.75 52.2502 23.75C50.9404 23.75 49.8752 22.6848 49.8752 21.375C49.8752 20.0652 50.9404 19 52.2502 19ZM12.4574 26.125H19.0003V55.8125C19.0003 56.468 19.5311 57 20.1878 57C20.8444 57 21.3753 56.468 21.3753 55.8125V26.125H54.6252V46.3125C54.6252 46.968 55.1561 47.5 55.8127 47.5C56.4694 47.5 57.0002 46.968 57.0002 46.3125V26.125H63.5431C64.8493 26.125 66.0965 26.5644 67.094 27.3125C68.1034 28.0725 68.8759 29.1411 69.244 30.3879L69.7311 32.0625C72.2486 40.6006 72.2486 49.6494 69.7311 58.1875L69.244 59.8621C68.5078 62.3677 66.1556 64.125 63.5431 64.125H61.632C61.0857 61.4175 58.6865 59.375 55.8127 59.375C52.939 59.375 50.5398 61.4175 49.9935 64.125H26.007C25.4607 61.4175 23.0615 59.375 20.1878 59.375C17.314 59.375 14.9148 61.4175 14.3685 64.125H12.4574C9.84491 64.125 7.49273 62.3677 6.75648 59.8621L6.26942 58.1875C3.75192 49.6494 3.75192 40.6006 6.26942 32.0625L6.75648 30.3879C7.49273 27.8823 9.84491 26.125 12.4574 26.125ZM26.1253 30.875C25.4686 30.875 24.9378 31.407 24.9378 32.0625V34.4375C24.9378 35.093 25.4686 35.625 26.1253 35.625C26.7819 35.625 27.3128 35.093 27.3128 34.4375V32.0625C27.3128 31.407 26.7819 30.875 26.1253 30.875ZM32.0628 30.875C31.4061 30.875 30.8753 31.407 30.8753 32.0625V34.4375C30.8753 35.093 31.4061 35.625 32.0628 35.625C32.7194 35.625 33.2503 35.093 33.2503 34.4375V32.0625C33.2503 31.407 32.7194 30.875 32.0628 30.875ZM38.0003 30.875C37.3436 30.875 36.8128 31.407 36.8128 32.0625V34.4375C36.8128 35.093 37.3436 35.625 38.0003 35.625C38.6569 35.625 39.1878 35.093 39.1878 34.4375V32.0625C39.1878 31.407 38.6569 30.875 38.0003 30.875ZM43.9378 30.875C43.2811 30.875 42.7503 31.407 42.7503 32.0625V34.4375C42.7503 35.093 43.2811 35.625 43.9378 35.625C44.5944 35.625 45.1253 35.093 45.1253 34.4375V32.0625C45.1253 31.407 44.5944 30.875 43.9378 30.875ZM49.8752 30.875C49.2186 30.875 48.6878 31.407 48.6878 32.0625V34.4375C48.6878 35.093 49.2186 35.625 49.8752 35.625C50.5319 35.625 51.0627 35.093 51.0627 34.4375V32.0625C51.0627 31.407 50.5319 30.875 49.8752 30.875ZM26.1253 42.75C24.8154 42.75 23.7503 43.8152 23.7503 45.125V52.25C23.7503 53.5598 24.8154 54.625 26.1253 54.625H38.0003C39.3101 54.625 40.3753 53.5598 40.3753 52.25V45.125C40.3753 43.8152 39.3101 42.75 38.0003 42.75H26.1253ZM26.1253 45.125H38.0003L38.0026 52.25H26.1253V45.125ZM43.9378 45.125C43.2811 45.125 42.7503 45.657 42.7503 46.3125C42.7503 46.968 43.2811 47.5 43.9378 47.5H51.0627C51.7194 47.5 52.2502 46.968 52.2502 46.3125C52.2502 45.657 51.7194 45.125 51.0627 45.125H43.9378ZM43.9378 49.875C43.2811 49.875 42.7503 50.407 42.7503 51.0625C42.7503 51.718 43.2811 52.25 43.9378 52.25H48.6878C49.3444 52.25 49.8752 51.718 49.8752 51.0625C49.8752 50.407 49.3444 49.875 48.6878 49.875H43.9378ZM55.8127 49.875C55.1561 49.875 54.6252 50.407 54.6252 51.0625V55.8125C54.6252 56.468 55.1561 57 55.8127 57C56.4694 57 57.0002 56.468 57.0002 55.8125V51.0625C57.0002 50.407 56.4694 49.875 55.8127 49.875ZM20.1878 61.75C21.7315 61.75 23.05 62.7475 23.5369 64.125C23.6794 64.4931 23.7503 64.8969 23.7503 65.3125C23.7503 65.7281 23.6794 66.1319 23.5369 66.5C23.05 67.8775 21.7315 68.875 20.1878 68.875C18.644 68.875 17.3255 67.8775 16.8386 66.5C16.6961 66.1319 16.6253 65.7281 16.6253 65.3125C16.6253 64.8969 16.6961 64.4931 16.8386 64.125C17.3255 62.7475 18.644 61.75 20.1878 61.75ZM55.8127 61.75C57.3565 61.75 58.675 62.7475 59.1619 64.125C59.3044 64.4931 59.3752 64.8969 59.3752 65.3125C59.3752 65.7281 59.3044 66.1319 59.1619 66.5C58.675 67.8775 57.3565 68.875 55.8127 68.875C54.269 68.875 52.9505 67.8775 52.4636 66.5C52.3211 66.1319 52.2502 65.7281 52.2502 65.3125C52.2502 64.8969 52.3211 64.4931 52.4636 64.125C52.9505 62.7475 54.269 61.75 55.8127 61.75Z" fill="#B71A1B"/>
</svg>
