<svg width="23" height="23" viewBox="0 0 23 23" fill="none" xmlns="http://www.w3.org/2000/svg">
<path d="M11.5 20.7C13.94 20.7 16.28 19.7307 18.0054 18.0054C19.7307 16.28 20.7 13.94 20.7 11.5C20.7 9.06001 19.7307 6.71995 18.0054 4.99462C16.28 3.26928 13.94 2.3 11.5 2.3C9.06001 2.3 6.71995 3.26928 4.99462 4.99462C3.26928 6.71995 2.3 9.06001 2.3 11.5C2.3 13.94 3.26928 16.28 4.99462 18.0054C6.71995 19.7307 9.06001 20.7 11.5 20.7ZM11.5 23C5.14855 23 0 17.8514 0 11.5C0 5.14855 5.14855 0 11.5 0C17.8514 0 23 5.14855 23 11.5C23 17.8514 17.8514 23 11.5 23Z" fill="#C50077"/>
<path d="M17.25 7.98909C16.8268 8.17309 16.3725 8.29959 15.8953 8.35479C16.3829 8.06729 16.7555 7.61189 16.9326 7.07024C16.468 7.34102 15.961 7.53153 15.433 7.63374C15.2109 7.40095 14.9437 7.21583 14.6477 7.08969C14.3518 6.96355 14.0332 6.89902 13.7115 6.90004C12.4085 6.90004 11.3528 7.94079 11.3528 9.22304C11.3528 9.40474 11.3735 9.58184 11.4138 9.75204C10.4792 9.70766 9.56411 9.46896 8.72694 9.05116C7.88978 8.63337 7.14889 8.04566 6.55155 7.32554C6.34175 7.6787 6.23129 8.082 6.23185 8.49279C6.23185 9.29779 6.6493 10.0108 7.2818 10.4259C6.90741 10.4142 6.54104 10.3145 6.2123 10.135V10.1637C6.21585 10.7036 6.40642 11.2256 6.75155 11.6407C7.09669 12.0559 7.57505 12.3386 8.1052 12.4407C7.75716 12.5328 7.393 12.5461 7.03915 12.4798C7.1934 12.9443 7.48843 13.3492 7.88328 13.6383C8.27813 13.9274 8.75321 14.0865 9.24255 14.0933C8.40301 14.7402 7.37224 15.0898 6.31235 15.0869C6.1226 15.0869 5.93515 15.0754 5.75 15.0547C6.83154 15.7393 8.08561 16.1018 9.3656 16.1C13.7057 16.1 16.0781 12.5603 16.0781 9.48984L16.0701 9.18854C16.5327 8.86341 16.9325 8.457 17.25 7.98909Z" fill="#C50077"/>
</svg>
