<svg width="18" height="22" viewBox="0 0 18 22" fill="none" xmlns="http://www.w3.org/2000/svg">
<mask id="path-1-outside-1_529_686" maskUnits="userSpaceOnUse" x="0.110352" y="-0.30957" width="17" height="23" fill="black">
<rect fill="white" x="0.110352" y="-0.30957" width="17" height="23"/>
<path fill-rule="evenodd" clip-rule="evenodd" d="M14.2849 0.69043H3.38183C2.12755 0.690998 1.11078 1.70762 1.11035 2.96191V19.044C1.11078 20.2982 2.12755 21.3149 3.38183 21.3154H14.2849C15.5392 21.3149 16.5558 20.2982 16.5564 19.044V2.96191C16.5558 1.70762 15.5392 0.690998 14.2849 0.69043ZM15.6478 19.044C15.6457 19.7957 15.0366 20.4047 14.2849 20.4068H3.38183C2.63011 20.4047 2.02107 19.7957 2.01894 19.044V2.96191C2.02107 2.21019 2.63011 1.60115 3.38183 1.59902H14.2849C15.0366 1.60115 15.6457 2.21019 15.6478 2.96191V19.044ZM11.1819 9.29033C11.1819 10.5873 10.1305 11.639 8.83333 11.639C7.53674 11.6373 6.48618 10.5868 6.48462 9.29033C6.48462 7.99318 7.53603 6.94162 8.83333 6.94162C10.1305 6.94162 11.1819 7.99318 11.1819 9.29033ZM10.2733 9.29487C10.2733 8.49943 9.62863 7.85476 8.83333 7.85476C8.03802 7.85504 7.39335 8.49957 7.39321 9.29487C7.39321 10.0902 8.03788 10.735 8.83333 10.735C9.62863 10.735 10.2733 10.0902 10.2733 9.29487ZM6.28007 13.5742C6.95001 12.8853 7.87223 12.4995 8.83321 12.5066C9.79404 12.4995 10.7164 12.8853 11.3862 13.5742C12.0676 14.2693 12.4402 15.2142 12.4402 16.2409C12.4395 16.4915 12.2366 16.6945 11.9859 16.6952H5.6804C5.42968 16.6945 5.22681 16.4915 5.2261 16.2409C5.2261 15.2142 5.59863 14.2693 6.28007 13.5742ZM6.92971 14.2102C6.51204 14.6398 6.24415 15.1927 6.16649 15.7866H11.4998C11.421 15.1929 11.1534 14.6403 10.7366 14.2102C10.2339 13.7016 9.5483 13.4152 8.83321 13.4152C8.11798 13.4152 7.43242 13.7016 6.92971 14.2102ZM10.5733 3.7388H6.93891C6.68792 3.7388 6.48462 3.53536 6.48462 3.2845C6.48462 3.03365 6.68792 2.83021 6.93891 2.83021H10.5733C10.8241 2.83021 11.0276 3.03365 11.0276 3.2845C11.0276 3.53536 10.8241 3.7388 10.5733 3.7388Z"/>
</mask>
<path fill-rule="evenodd" clip-rule="evenodd" d="M14.2849 0.69043H3.38183C2.12755 0.690998 1.11078 1.70762 1.11035 2.96191V19.044C1.11078 20.2982 2.12755 21.3149 3.38183 21.3154H14.2849C15.5392 21.3149 16.5558 20.2982 16.5564 19.044V2.96191C16.5558 1.70762 15.5392 0.690998 14.2849 0.69043ZM15.6478 19.044C15.6457 19.7957 15.0366 20.4047 14.2849 20.4068H3.38183C2.63011 20.4047 2.02107 19.7957 2.01894 19.044V2.96191C2.02107 2.21019 2.63011 1.60115 3.38183 1.59902H14.2849C15.0366 1.60115 15.6457 2.21019 15.6478 2.96191V19.044ZM11.1819 9.29033C11.1819 10.5873 10.1305 11.639 8.83333 11.639C7.53674 11.6373 6.48618 10.5868 6.48462 9.29033C6.48462 7.99318 7.53603 6.94162 8.83333 6.94162C10.1305 6.94162 11.1819 7.99318 11.1819 9.29033ZM10.2733 9.29487C10.2733 8.49943 9.62863 7.85476 8.83333 7.85476C8.03802 7.85504 7.39335 8.49957 7.39321 9.29487C7.39321 10.0902 8.03788 10.735 8.83333 10.735C9.62863 10.735 10.2733 10.0902 10.2733 9.29487ZM6.28007 13.5742C6.95001 12.8853 7.87223 12.4995 8.83321 12.5066C9.79404 12.4995 10.7164 12.8853 11.3862 13.5742C12.0676 14.2693 12.4402 15.2142 12.4402 16.2409C12.4395 16.4915 12.2366 16.6945 11.9859 16.6952H5.6804C5.42968 16.6945 5.22681 16.4915 5.2261 16.2409C5.2261 15.2142 5.59863 14.2693 6.28007 13.5742ZM6.92971 14.2102C6.51204 14.6398 6.24415 15.1927 6.16649 15.7866H11.4998C11.421 15.1929 11.1534 14.6403 10.7366 14.2102C10.2339 13.7016 9.5483 13.4152 8.83321 13.4152C8.11798 13.4152 7.43242 13.7016 6.92971 14.2102ZM10.5733 3.7388H6.93891C6.68792 3.7388 6.48462 3.53536 6.48462 3.2845C6.48462 3.03365 6.68792 2.83021 6.93891 2.83021H10.5733C10.8241 2.83021 11.0276 3.03365 11.0276 3.2845C11.0276 3.53536 10.8241 3.7388 10.5733 3.7388Z" fill="#C50077"/>
<path d="M3.38183 0.69043V0.19043L3.3816 0.19043L3.38183 0.69043ZM14.2849 0.69043L14.2851 0.19043H14.2849V0.69043ZM1.11035 2.96191L0.610352 2.96174V2.96191H1.11035ZM1.11035 19.044H0.610352L0.610352 19.0441L1.11035 19.044ZM3.38183 21.3154L3.3816 21.8154H3.38183V21.3154ZM14.2849 21.3154V21.8154H14.2851L14.2849 21.3154ZM16.5564 19.044L17.0564 19.0442V19.044H16.5564ZM16.5564 2.96191H17.0564V2.96168L16.5564 2.96191ZM14.2849 20.4068V20.9068L14.2863 20.9068L14.2849 20.4068ZM15.6478 19.044L16.1478 19.0454V19.044H15.6478ZM3.38183 20.4068L3.38041 20.9068H3.38183V20.4068ZM2.01894 19.044H1.51894L1.51894 19.0454L2.01894 19.044ZM2.01894 2.96191L1.51894 2.96049V2.96191H2.01894ZM3.38183 1.59902V1.09902L3.38041 1.09902L3.38183 1.59902ZM14.2849 1.59902L14.2863 1.09902H14.2849V1.59902ZM15.6478 2.96191H16.1478L16.1478 2.96049L15.6478 2.96191ZM8.83333 11.639L8.83267 12.139H8.83333V11.639ZM6.48462 9.29033H5.98462L5.98462 9.29093L6.48462 9.29033ZM8.83333 7.85476V7.35476H8.83315L8.83333 7.85476ZM7.39321 9.29487L6.89321 9.29478V9.29487H7.39321ZM8.83321 12.5066L8.82951 13.0067L8.8369 13.0066L8.83321 12.5066ZM6.28007 13.5742L6.63711 13.9243L6.63854 13.9228L6.28007 13.5742ZM11.3862 13.5742L11.0277 13.9228L11.0292 13.9243L11.3862 13.5742ZM12.4402 16.2409L12.9402 16.2424V16.2409H12.4402ZM11.9859 16.6952V17.1952L11.9873 17.1952L11.9859 16.6952ZM5.6804 16.6952L5.67898 17.1952H5.6804V16.6952ZM5.2261 16.2409H4.7261L4.72611 16.2424L5.2261 16.2409ZM6.16649 15.7866L5.67071 15.7218L5.59687 16.2866H6.16649V15.7866ZM6.92971 14.2102L6.57407 13.8588L6.57122 13.8617L6.92971 14.2102ZM11.4998 15.7866V16.2866H12.0705L11.9954 15.7209L11.4998 15.7866ZM10.7366 14.2102L11.0956 13.8622L11.0922 13.8588L10.7366 14.2102ZM3.38183 1.19043H14.2849V0.19043H3.38183V1.19043ZM1.61035 2.96208C1.61068 1.98386 2.40369 1.19087 3.38205 1.19043L3.3816 0.19043C1.85141 0.191123 0.610872 1.43139 0.610352 2.96174L1.61035 2.96208ZM1.61035 19.044V2.96191H0.610352V19.044H1.61035ZM3.38205 20.8154C2.40369 20.815 1.61068 20.022 1.61035 19.0438L0.610352 19.0441C0.610872 20.5745 1.85141 21.8147 3.3816 21.8154L3.38205 20.8154ZM14.2849 20.8154H3.38183V21.8154H14.2849V20.8154ZM16.0564 19.0437C16.0559 20.022 15.263 20.815 14.2847 20.8154L14.2851 21.8154C15.8154 21.8147 17.0557 20.5744 17.0564 19.0442L16.0564 19.0437ZM16.0564 2.96191V19.044H17.0564V2.96191H16.0564ZM14.2847 1.19043C15.263 1.19087 16.0559 1.98382 16.0564 2.96213L17.0564 2.96168C17.0557 1.43143 15.8154 0.191123 14.2851 0.19043L14.2847 1.19043ZM14.2863 20.9068C15.3131 20.9039 16.1449 20.0721 16.1478 19.0454L15.1478 19.0425C15.1464 19.5192 14.7602 19.9055 14.2835 19.9068L14.2863 20.9068ZM3.38183 20.9068H14.2849V19.9068H3.38183V20.9068ZM1.51894 19.0454C1.52185 20.0721 2.35366 20.9039 3.38041 20.9068L3.38324 19.9068C2.90656 19.9055 2.52029 19.5192 2.51894 19.0425L1.51894 19.0454ZM1.51894 2.96191V19.044H2.51894V2.96191H1.51894ZM3.38041 1.09902C2.35366 1.10193 1.52185 1.93374 1.51894 2.96049L2.51894 2.96332C2.52029 2.48664 2.90656 2.10037 3.38324 2.09902L3.38041 1.09902ZM14.2849 1.09902H3.38183V2.09902H14.2849V1.09902ZM16.1478 2.96049C16.1449 1.93374 15.3131 1.10193 14.2863 1.09902L14.2835 2.09902C14.7602 2.10037 15.1464 2.48664 15.1478 2.96332L16.1478 2.96049ZM16.1478 19.044V2.96191H15.1478V19.044H16.1478ZM8.83333 12.139C10.4067 12.139 11.6819 10.8634 11.6819 9.29033H10.6819C10.6819 10.3113 9.85428 11.139 8.83333 11.139V12.139ZM5.98462 9.29093C5.98651 10.8631 7.26048 12.137 8.83267 12.139L8.83398 11.139C7.81299 11.1377 6.98585 10.3105 6.98462 9.28973L5.98462 9.29093ZM8.83333 6.44162C7.25987 6.44162 5.98462 7.71705 5.98462 9.29033H6.98462C6.98462 8.2693 7.81219 7.44162 8.83333 7.44162V6.44162ZM11.6819 9.29033C11.6819 7.71707 10.4067 6.44162 8.83333 6.44162V7.44162C9.8543 7.44162 10.6819 8.26928 10.6819 9.29033H11.6819ZM8.83333 8.35476C9.35245 8.35476 9.7733 8.77554 9.7733 9.29487H10.7733C10.7733 8.22332 9.9048 7.35476 8.83333 7.35476V8.35476ZM7.89321 9.29496C7.8933 8.77582 8.31412 8.35494 8.8335 8.35476L8.83315 7.35476C7.76193 7.35514 6.8934 8.22333 6.89321 9.29478L7.89321 9.29496ZM8.83333 10.235C8.31406 10.235 7.89321 9.81406 7.89321 9.29487H6.89321C6.89321 10.3663 7.76171 11.235 8.83333 11.235V10.235ZM9.7733 9.29487C9.7733 9.81409 9.35242 10.235 8.83333 10.235V11.235C9.90483 11.235 10.7733 10.3663 10.7733 9.29487H9.7733ZM8.8369 12.0066C7.73956 11.9985 6.68654 12.439 5.9216 13.2257L6.63854 13.9228C7.21348 13.3315 8.0049 13.0005 8.82951 13.0066L8.8369 12.0066ZM11.7447 13.2257C10.9799 12.439 9.92669 11.9985 8.82951 12.0066L8.8369 13.0066C9.66139 13.0005 10.4529 13.3315 11.0277 13.9228L11.7447 13.2257ZM12.9402 16.2409C12.9402 15.0918 12.5221 14.0186 11.7432 13.2242L11.0292 13.9243C11.6132 14.52 11.9402 15.3367 11.9402 16.2409H12.9402ZM11.9873 17.1952C12.5131 17.1937 12.9387 16.7679 12.9402 16.2424L11.9402 16.2395C11.9402 16.2152 11.96 16.1953 11.9845 16.1952L11.9873 17.1952ZM5.6804 17.1952H11.9859V16.1952H5.6804V17.1952ZM4.72611 16.2424C4.72759 16.7679 5.15313 17.1937 5.67898 17.1952L5.68181 16.1952C5.70624 16.1953 5.72603 16.2152 5.7261 16.2395L4.72611 16.2424ZM5.92303 13.2242C5.1442 14.0186 4.7261 15.0918 4.7261 16.2409H5.7261C5.7261 15.3367 6.05306 14.52 6.6371 13.9243L5.92303 13.2242ZM6.66227 15.8515C6.72593 15.3646 6.94554 14.9112 7.2882 14.5588L6.57122 13.8617C6.07855 14.3684 5.76237 15.0207 5.67071 15.7218L6.66227 15.8515ZM11.4998 15.2866H6.16649V16.2866H11.4998V15.2866ZM10.3775 14.5582C10.7197 14.9113 10.9394 15.365 11.0041 15.8524L11.9954 15.7209C11.9025 15.0209 11.587 14.3692 11.0956 13.8622L10.3775 14.5582ZM8.83321 13.9152C9.41465 13.9152 9.97215 14.1481 10.3809 14.5617L11.0922 13.8588C10.4956 13.2551 9.68194 12.9152 8.83321 12.9152V13.9152ZM7.28534 14.5617C7.69411 14.1481 8.2516 13.9152 8.83321 13.9152V12.9152C7.98435 12.9152 7.17072 13.2551 6.57408 13.8588L7.28534 14.5617ZM6.93891 4.2388H10.5733V3.2388H6.93891V4.2388ZM5.98462 3.2845C5.98462 3.8114 6.41167 4.2388 6.93891 4.2388V3.2388C6.96416 3.2388 6.98462 3.25932 6.98462 3.2845H5.98462ZM6.93891 2.33021C6.41167 2.33021 5.98462 2.75761 5.98462 3.2845H6.98462C6.98462 3.30969 6.96416 3.33021 6.93891 3.33021V2.33021ZM10.5733 2.33021H6.93891V3.33021H10.5733V2.33021ZM11.5276 3.2845C11.5276 2.7575 11.1003 2.33021 10.5733 2.33021V3.33021C10.548 3.33021 10.5276 3.30979 10.5276 3.2845H11.5276ZM10.5733 4.2388C11.1003 4.2388 11.5276 3.8115 11.5276 3.2845H10.5276C10.5276 3.25922 10.548 3.2388 10.5733 3.2388V4.2388Z" fill="#C50077" mask="url(#path-1-outside-1_529_686)"/>
</svg>
