<?xml version="1.0" standalone="no"?>
<!DOCTYPE svg PUBLIC "-//W3C//DTD SVG 20010904//EN"
 "http://www.w3.org/TR/2001/REC-SVG-20010904/DTD/svg10.dtd">
<svg version="1.0" xmlns="http://www.w3.org/2000/svg"
 width="494.000000pt" height="494.000000pt" viewBox="0 0 494.000000 494.000000"
 preserveAspectRatio="xMidYMid meet">
<metadata>
Created by potrace 1.14, written by Peter Selinger 2001-2017
</metadata>
<g transform="translate(0.000000,494.000000) scale(0.100000,-0.100000)"
fill="#000000" stroke="none">
<path d="M1505 4458 c-153 -129 -202 -171 -310 -264 -45 -38 -103 -87 -129
-109 -27 -22 -54 -45 -60 -50 -6 -6 -56 -48 -111 -95 -55 -47 -102 -87 -105
-90 -3 -3 -30 -25 -60 -50 -30 -25 -59 -50 -65 -56 -5 -6 -37 -33 -70 -60 -33
-27 -62 -51 -65 -54 -4 -4 -74 -64 -160 -136 -298 -252 -370 -317 -366 -332 3
-10 14 -64 25 -122 24 -120 24 -120 45 -215 8 -39 17 -82 20 -95 2 -14 14 -69
25 -124 12 -54 23 -108 25 -120 2 -11 13 -64 24 -116 12 -52 23 -108 26 -125
3 -16 15 -70 25 -120 47 -220 53 -251 57 -270 2 -11 6 -31 9 -45 3 -14 7 -34
9 -45 7 -34 54 -264 81 -390 14 -65 28 -133 31 -150 3 -16 10 -50 15 -75 6
-25 13 -54 15 -66 2 -11 17 -85 34 -165 17 -79 44 -211 61 -294 46 -225 49
-238 52 -242 7 -7 50 -5 306 12 174 11 238 15 326 20 50 3 119 7 155 10 36 3
112 7 170 10 58 3 132 8 165 10 33 2 103 7 155 10 52 3 127 7 165 10 39 2 120
7 180 10 61 3 130 8 155 10 25 2 99 7 165 11 66 4 136 8 155 9 19 2 91 6 160
10 69 3 141 8 160 9 19 1 60 16 90 33 58 32 86 47 345 187 88 48 167 91 175
96 8 5 44 25 80 43 36 19 81 44 100 56 19 11 42 24 50 28 8 3 49 25 90 48 41
23 111 61 155 85 106 56 187 100 320 173 61 33 135 73 165 90 30 16 69 37 85
47 17 9 71 39 120 65 50 26 106 57 125 68 19 11 36 21 37 22 3 1 -12 58 -97
365 -45 162 -94 342 -110 400 -115 425 -141 519 -149 545 -6 17 -27 91 -46
165 -65 240 -154 567 -179 655 -8 28 -27 95 -41 150 -24 89 -40 145 -76 280
-6 22 -15 51 -19 65 -5 14 -19 64 -31 113 -15 54 -29 89 -39 92 -8 2 -60 7
-115 10 -55 3 -122 8 -150 10 -154 12 -315 23 -440 30 -49 3 -119 8 -155 10
-71 5 -146 11 -285 20 -158 11 -188 13 -290 19 -55 4 -125 9 -155 11 -30 3
-95 7 -145 10 -49 3 -117 7 -150 10 -33 2 -98 7 -145 10 -47 3 -110 8 -140 10
-30 2 -102 7 -160 10 -58 3 -123 7 -145 10 -38 3 -45 -1 -170 -107z"/>
</g>
</svg>
