<?xml version="1.0" standalone="no"?>
<!DOCTYPE svg PUBLIC "-//W3C//DTD SVG 20010904//EN"
 "http://www.w3.org/TR/2001/REC-SVG-20010904/DTD/svg10.dtd">
<svg version="1.0" xmlns="http://www.w3.org/2000/svg"
 width="271.000000pt" height="271.000000pt" viewBox="0 0 271.000000 271.000000"
 preserveAspectRatio="xMidYMid meet">
<metadata>
Created by potrace 1.14, written by Peter Selinger 2001-2017
</metadata>
<g transform="translate(0.000000,271.000000) scale(0.100000,-0.100000)"
fill="#000000" stroke="none">
<path d="M152 2333 c-7 -3 -25 -17 -40 -31 -15 -14 -21 -22 -13 -17 11 6 12 5
5 -6 -11 -17 -13 -1419 -2 -1419 4 0 8 -7 8 -15 0 -8 3 -15 8 -15 4 0 21 -13
39 -28 17 -15 46 -38 63 -52 17 -14 40 -32 50 -40 10 -8 28 -22 40 -30 20 -14
54 -41 100 -80 10 -8 31 -24 46 -35 15 -11 32 -25 38 -30 6 -6 56 -46 111 -90
55 -43 105 -83 110 -87 73 -60 132 -98 154 -99 164 -5 858 -2 854 3 -2 5 4 8
14 8 16 0 44 30 49 53 1 4 2 119 3 255 1 211 3 249 16 249 8 0 12 -4 9 -9 -3
-4 -1 -8 4 -8 5 0 23 -14 41 -30 17 -17 31 -28 31 -25 0 3 8 -3 18 -12 10 -10
35 -31 56 -48 50 -39 77 -61 101 -84 11 -10 24 -19 28 -19 5 0 14 -7 20 -15 7
-8 59 -52 117 -98 58 -46 107 -87 108 -91 2 -4 10 -8 18 -8 9 0 12 -4 9 -10
-3 -5 0 -10 7 -10 8 0 30 -16 50 -34 55 -52 93 -69 139 -61 21 4 38 10 37 13
-1 4 4 18 11 31 11 19 13 144 14 630 0 333 -3 628 -7 654 -6 38 -12 50 -32 57
-13 5 -24 14 -24 20 0 5 -7 10 -15 10 -8 0 -15 4 -15 9 0 5 -9 12 -20 16 -11
3 -19 11 -17 18 1 6 -3 11 -8 12 -6 0 -21 10 -34 22 -13 12 -29 20 -34 16 -6
-3 -7 -1 -3 5 4 6 -4 16 -16 23 -13 7 -27 18 -31 25 -4 8 -12 14 -18 14 -5 0
-23 13 -39 30 -16 16 -33 30 -37 30 -5 0 -16 8 -25 18 -8 9 -30 28 -49 42 -18
14 -37 30 -43 35 -10 9 -125 102 -180 145 -10 8 -29 24 -42 35 -13 11 -37 31
-55 45 -18 14 -38 31 -46 38 -7 7 -13 10 -13 5 0 -4 -7 3 -16 15 -8 12 -19 22
-25 22 -5 0 -18 9 -29 20 -19 19 -33 20 -461 20 -283 0 -447 -4 -460 -10 -38
-21 -46 -57 -45 -227 1 -90 -3 -163 -8 -163 -5 0 -3 -7 4 -15 6 -8 9 -19 5
-25 -6 -10 -75 33 -83 52 -2 4 -10 8 -18 8 -9 0 -12 5 -9 10 3 6 1 10 -6 10
-6 0 -24 13 -40 29 -15 16 -30 27 -33 23 -3 -3 -6 0 -6 6 0 7 -6 12 -13 12 -6
0 -27 16 -44 35 -18 19 -36 35 -40 35 -4 0 -24 15 -44 33 -20 17 -51 43 -69
57 -18 14 -44 35 -57 48 -13 13 -23 20 -23 17 0 -3 -10 3 -22 15 -12 11 -26
20 -30 20 -5 0 -7 4 -4 9 9 14 -64 26 -92 14z m1542 -197 c17 -12 43 -34 58
-49 15 -15 28 -25 28 -22 0 4 14 -7 31 -24 17 -17 35 -31 40 -31 5 0 24 -15
43 -32 19 -18 46 -42 62 -53 32 -23 87 -70 121 -102 13 -13 26 -23 28 -23 15
0 45 -27 45 -39 0 -8 3 -12 6 -8 3 3 15 -2 26 -11 11 -9 29 -25 40 -34 12 -10
25 -18 30 -18 4 0 8 -8 8 -17 0 -15 -2 -16 -10 -3 -9 13 -10 13 -10 0 0 -12
-2 -12 -9 -1 -6 9 -11 10 -15 2 -5 -8 -13 -8 -28 0 -16 8 -19 8 -13 -1 6 -9 2
-9 -14 -1 -12 7 -21 8 -21 2 0 -10 -25 -9 -36 2 -4 4 -13 2 -21 -4 -10 -9 -13
-8 -13 2 0 10 -3 10 -12 1 -8 -8 -17 -8 -31 -1 -15 8 -18 8 -12 -1 6 -9 2 -9
-14 -1 -12 7 -21 8 -21 2 0 -10 -25 -9 -36 1 -3 4 -16 3 -29 -2 -14 -5 -26 -5
-34 3 -8 8 -11 8 -11 -2 0 -10 -3 -11 -13 -2 -8 6 -17 8 -20 5 -10 -10 -50
-11 -69 -2 -12 6 -18 5 -18 -2 0 -11 -59 28 -111 72 -15 13 -41 34 -60 48 -45
34 -102 83 -111 95 -4 5 -8 6 -8 2 0 -4 -13 6 -30 23 -16 16 -33 30 -38 30 -4
0 -23 16 -42 35 -19 19 -39 35 -43 35 -5 0 -14 6 -21 13 -33 32 -100 82 -108
79 -5 -1 -7 1 -4 6 3 5 -6 15 -19 22 -14 7 -25 16 -25 20 0 4 120 7 267 7 256
0 269 -1 297 -21z m-1383 -96 c6 0 8 -4 4 -9 -3 -5 3 -12 12 -15 10 -3 35 -22
56 -41 21 -19 41 -35 45 -35 4 0 15 -8 23 -17 9 -10 31 -29 49 -43 17 -14 45
-37 62 -52 17 -16 33 -28 37 -28 3 0 22 -15 42 -33 20 -17 51 -43 69 -57 81
-62 74 -37 75 -275 0 -125 -4 -211 -9 -208 -5 4 -6 0 -1 -7 13 -21 15 -81 2
-73 -6 4 -7 1 -1 -8 10 -17 12 -589 2 -596 -5 -2 -8 1 -8 6 0 6 -7 11 -15 11
-9 0 -18 7 -21 15 -4 8 -12 15 -20 15 -7 0 -17 6 -21 13 -4 6 -24 24 -43 38
-19 15 -45 35 -57 45 -12 11 -37 30 -55 44 -18 14 -40 33 -50 43 -10 9 -18 14
-18 10 0 -3 -8 4 -19 15 -10 12 -23 22 -30 22 -6 0 -11 5 -11 10 0 6 -8 10
-17 10 -9 0 -14 3 -10 6 3 4 -20 26 -53 50 l-58 44 0 556 c0 488 2 555 15 550
8 -3 19 -6 24 -6z m679 -12 c0 -5 5 -6 10 -3 6 3 10 -1 10 -9 0 -9 4 -16 9
-16 5 0 36 -22 69 -50 33 -27 62 -50 66 -50 3 0 16 -10 29 -22 13 -13 38 -34
56 -48 17 -14 41 -34 51 -44 11 -11 20 -16 20 -12 0 4 10 -3 23 -16 13 -13 39
-34 57 -48 18 -14 39 -31 46 -37 7 -7 17 -13 23 -13 5 0 13 -9 16 -20 4 -11
10 -18 14 -16 4 3 19 -6 34 -20 14 -13 29 -24 33 -24 4 0 18 -12 33 -27 25
-28 26 -30 26 -180 1 -84 -3 -153 -7 -153 -5 0 -16 9 -25 20 -10 11 -21 20
-25 20 -7 0 -33 19 -62 45 -6 6 -70 58 -142 116 -72 58 -137 111 -145 117 -53
44 -78 62 -88 62 -6 0 -10 6 -9 13 2 6 -3 11 -9 9 -7 -1 -13 5 -13 13 0 8 -6
15 -13 15 -8 0 -33 18 -57 40 -23 21 -46 40 -51 42 -14 5 -19 48 -6 48 8 0 8
3 -1 9 -8 4 -14 12 -14 16 0 4 6 12 14 16 7 5 8 9 2 9 -6 0 -11 7 -11 15 0 8
5 15 11 15 6 0 5 4 -2 9 -8 4 -14 12 -14 16 0 4 6 12 14 16 7 5 8 9 2 9 -6 0
-11 7 -11 15 0 8 5 15 11 15 6 0 5 4 -2 9 -8 4 -14 12 -14 16 0 4 6 12 14 16
7 5 8 9 2 9 -6 0 -11 7 -11 15 0 8 4 15 9 15 4 0 8 5 8 11 0 5 -5 7 -12 3 -7
-4 -8 -3 -4 4 8 13 36 5 36 -10z m25 -564 c13 -16 123 -104 130 -104 3 0 19
-13 35 -30 16 -16 32 -30 35 -30 4 0 12 -6 19 -12 7 -7 27 -24 45 -38 18 -14
38 -30 44 -35 7 -6 37 -30 67 -55 30 -25 60 -49 66 -55 7 -5 26 -21 44 -35 18
-14 38 -31 46 -38 8 -7 14 -11 14 -8 0 3 13 -7 28 -23 l28 -30 -1 -263 0 -263
-330 0 -330 0 -1 25 c0 14 4 31 9 37 6 9 5 13 -2 13 -8 0 -9 5 -2 19 6 10 8
21 5 24 -10 10 -11 42 -2 60 6 11 5 17 -2 17 -7 0 -8 6 -1 19 6 10 8 21 5 23
-10 11 -12 48 -3 48 6 0 7 5 3 11 -11 19 -12 79 0 79 6 0 5 4 -2 9 -17 11 -17
21 0 32 10 7 10 9 0 9 -14 0 -12 21 3 32 6 5 6 8 -1 8 -6 0 -11 7 -11 15 0 8
5 15 11 15 6 0 5 4 -2 9 -8 4 -14 12 -14 16 0 4 6 12 14 16 7 5 8 9 2 9 -6 0
-11 7 -11 15 0 8 5 15 11 15 6 0 5 4 -2 9 -8 4 -14 12 -14 16 0 4 6 12 14 16
7 5 8 9 2 9 -6 0 -11 7 -11 15 0 8 4 15 9 15 4 0 8 5 8 11 0 5 -4 8 -8 5 -4
-2 -8 4 -8 15 0 10 4 19 9 19 4 0 5 6 0 13 -10 16 -10 38 -1 58 3 8 3 21 -2
29 -6 9 -5 17 3 22 7 5 8 8 1 8 -10 0 -11 57 0 67 3 3 1 14 -5 24 -7 14 -6 19
3 19 8 0 9 3 3 8 -13 9 -14 52 -1 52 6 0 6 4 -1 11 -6 6 -9 18 -6 25 4 11 10
11 26 2 12 -6 27 -17 32 -24z m1411 17 l21 -1 -2 -467 c-1 -258 -2 -469 -3
-471 -1 -2 -9 4 -18 12 -9 9 -32 29 -52 44 -20 15 -43 34 -52 42 -9 8 -33 29
-54 45 -21 17 -45 36 -52 43 -7 6 -15 12 -18 12 -3 0 -14 8 -25 18 -34 32 -81
70 -81 66 0 -3 -6 1 -14 8 -8 7 -11 17 -8 22 3 5 1 6 -4 3 -5 -3 -25 8 -44 25
-19 17 -51 42 -70 57 -19 14 -44 34 -55 44 -11 10 -39 33 -62 50 l-42 32 -1
207 c0 186 2 207 17 210 14 2 545 2 619 -1z"/>
</g>
</svg>
