<svg width="241" height="52" viewBox="0 0 241 52" fill="none" xmlns="http://www.w3.org/2000/svg">
<path fill-rule="evenodd" clip-rule="evenodd" d="M35.2698 17.0875C34.0913 16.5019 33.3353 15.0992 32.3866 13.7929C32.4767 13.1221 32.3677 12.6615 32.0598 12.411C32.0413 12.6973 31.9509 12.8971 31.7723 13.0075C31.6753 12.8932 31.5762 12.7818 31.4727 12.6744C31.5653 11.9139 31.3268 11.3741 30.7386 11.046C30.8344 11.3622 30.805 11.7638 30.6874 11.9716C30.5111 11.8397 30.3247 11.7194 30.1297 11.6117C30.1682 10.9416 29.8494 10.4287 29.1733 10.0727C29.3563 10.4992 29.3182 10.9068 28.888 11.1405C28.6769 11.0937 28.4625 11.0605 28.2464 11.0411C32.5184 12.6973 32.2091 16.4691 35.2655 17.0865L35.2698 17.0875ZM19.5847 26.1343C20.9223 27.1105 22.3351 26.5319 23.6814 27.205C24.604 27.6653 24.5669 28.1733 24.6922 29.0471C21.8776 28.9656 20.0259 28.5749 19.5586 27.6146C20.2557 27.84 20.9845 27.9739 21.7229 28.0122C21.1746 27.7917 20.6407 27.5424 20.1239 27.2656C19.6316 26.9902 19.3832 26.6791 19.5793 26.1303L19.5847 26.1343ZM34.7045 34.8222C34.4425 34.8327 34.182 34.8636 33.9257 34.9146C34.3614 34.6392 35.003 34.6025 35.589 34.7347C36.4974 34.9385 37.1139 35.6563 37.3394 36.4585C37.5431 37.1783 37.3873 38.083 36.3264 37.8633C36.8514 37.6346 37.0769 37.3433 37.0028 36.9894C36.7487 37.1984 36.4419 37.3466 36.1097 37.4209C36.3515 37.2091 36.6946 36.9238 36.7991 36.6047C36.3496 36.8035 35.9408 36.8734 35.5727 36.8144C35.0803 36.2484 34.6207 35.9688 34.1937 35.9754C33.966 35.3839 33.9486 35.0319 34.7045 34.8222ZM32.4955 36.5927C32.3089 36.545 32.0282 36.545 31.6535 36.5927C32.5892 36.0291 33.8408 36.3154 34.6599 37.0173C35.3428 37.6018 35.7262 38.4737 35.3809 39.3813C35.211 39.8287 34.7938 40.1111 34.015 39.9729C34.5575 39.774 34.8766 39.4864 34.9725 39.1099C34.5188 39.3998 33.9805 39.5591 33.4268 39.5673C33.8527 39.275 34.1207 39.0195 34.2307 38.7978C32.6066 39.448 31.8812 37.0342 32.4944 36.5947L32.4955 36.5927ZM32.0359 42.7346C31.6575 42.8559 31.1855 42.8791 30.6199 42.8042C30.8523 43.4057 30.9396 44.046 30.8758 44.6812C31.3756 44.0939 31.7678 43.4365 32.037 42.7346H32.0359ZM31.6405 41.2374C30.7212 41.2374 29.8214 40.797 29.3912 40.1806C28.9206 39.5076 29.1189 38.7699 29.633 38.4309C30.3955 37.9259 31.3028 38.5304 31.8039 39.1825C32.1611 39.6488 32.4966 40.6867 32.3365 41.4422C32.1905 42.1272 31.574 42.4682 30.8682 42.1381C31.3497 42.0274 31.6401 41.8949 31.7396 41.7405C31.2386 41.8929 30.866 41.8462 30.622 41.6003C31.1129 41.6089 31.4513 41.4886 31.6372 41.2394L31.6405 41.2374ZM10.0081 38.3355C11.374 36.9626 12.1964 36.3601 12.6789 36.3472C12.7421 35.5042 12.379 35.0734 11.5897 35.0548C10.5425 35.3862 10.036 36.2176 10.0702 37.5491C9.85997 37.2824 9.7161 36.9771 9.64862 36.6544C9.49406 37.0834 9.52365 37.5499 9.73141 37.9597C9.42133 37.8762 9.17661 37.6721 8.99725 37.3473C8.9467 37.5651 8.95117 37.7905 9.01032 38.0064C9.16826 38.5492 9.4787 38.8564 10.0037 38.3295L10.0081 38.3355ZM13.0819 39.0612C12.8347 39.0175 12.6647 38.8057 12.5711 38.4956C12.3783 38.8515 12.5482 39.3903 12.9861 39.7074C12.7682 39.8307 12.5064 39.7724 12.2007 39.5325C12.1664 39.7215 12.162 39.914 12.1877 40.1041C12.3184 40.9044 12.8521 40.4272 13.3074 40.128C14.2746 39.4897 15.2768 38.5174 14.7082 37.5432C14.3444 36.9228 13.4882 36.7787 13.1625 37.4984C12.9567 37.9537 13.0166 38.6288 13.0819 39.0582V39.0612ZM15.3693 40.8616C15.6409 41.2474 15.9111 41.426 16.1797 41.3975C15.2223 40.1051 16.5414 38.9777 17.2145 39.7134C17.5565 40.0872 17.6273 40.8348 17.3616 41.3249C17.1808 41.6609 16.866 41.9552 16.464 42.2256C15.8649 42.6282 15.207 42.7227 15.3367 41.8051C15.6714 42.0238 15.9481 42.0801 16.1667 41.9741C15.9392 41.8678 15.7462 41.709 15.6069 41.5135C15.4675 41.318 15.3868 41.0925 15.3726 40.8596L15.3693 40.8616ZM14.047 42.7147C14.35 42.9148 14.7039 43.0411 15.0752 43.0816C14.7434 43.5707 14.5582 44.2116 14.5197 45.0043C14.0935 44.3952 13.9359 43.633 14.047 42.7177V42.7147ZM11.7073 41.0585C11.2806 40.9657 10.8984 40.749 10.618 40.4411C10.4728 41.1397 10.5919 41.9651 10.9753 42.9175C11.0559 42.0062 11.3006 41.3866 11.7095 41.0585H11.7073ZM13.7834 22.777C13.7573 23.0951 13.7453 23.2552 13.7453 23.2552C12.4454 23.6933 11.0875 24.715 9.67149 26.3202C10.1268 24.9125 11.6801 23.626 13.7834 22.777ZM9.56366 31.8347C10.1148 30.5649 11.2491 29.6539 12.9665 29.1018L12.9469 29.6148C11.9723 29.8256 10.8446 30.5655 9.56366 31.8347ZM15.8976 23.8258C15.5708 24.5039 15.6231 25.2634 16.3693 25.8191C16.9158 24.9398 17.5904 24.1322 18.3746 23.4182C17.5467 23.6171 16.8253 24.1006 16.2102 24.8687C16.0091 24.5515 15.9014 24.1923 15.8976 23.8258ZM15.878 29.6357C16.2889 28.7406 16.7938 27.884 17.3855 27.0777C16.5642 27.5649 15.9641 28.1106 15.585 28.7151C15.3972 28.5112 15.2854 28.2581 15.2659 27.9923C15.0734 28.7419 15.2778 29.288 15.8791 29.6307L15.878 29.6357ZM16.1209 32.8398C16.46 32.016 16.9683 31.3791 17.6459 30.9291C17.1275 31.8171 16.7253 32.7578 16.4477 33.7316C15.9321 33.5831 15.6318 32.9654 15.5469 31.8785C15.715 32.2102 15.9071 32.5314 16.122 32.8398H16.1209ZM16.5032 36.8085C16.7494 35.819 17.0922 35.1661 17.5315 34.85C17.2323 35.7359 17.0373 36.6484 16.9498 37.572C16.3529 37.2366 16.0261 36.7879 15.9695 36.2259C16.1283 36.4314 16.3053 36.6246 16.4989 36.8035L16.5032 36.8085ZM19.3157 23.3158C19.0255 23.6152 18.814 23.971 18.6974 24.3562C18.5807 24.7415 18.5619 25.1459 18.6425 25.5388C19.0513 25.1332 19.5197 24.939 20.0476 24.9562C19.4856 24.3597 19.2416 23.8129 19.3157 23.3158ZM18.4356 27.6742C18.1883 28.3592 18.1589 29.0551 18.4062 29.6993C18.525 29.497 18.6898 29.3203 18.8895 29.1807C19.0891 29.0412 19.3191 28.9421 19.564 28.8901C19.29 28.7739 19.0472 28.6045 18.8527 28.3935C18.6581 28.1826 18.5165 27.9354 18.4377 27.6692L18.4356 27.6742ZM18.4639 32.1698C18.1153 32.979 18.1687 33.8598 18.6229 34.7277C18.8008 34.1432 19.1033 33.7568 19.5303 33.5685C18.9689 33.316 18.6135 32.8498 18.4639 32.1698ZM19.9387 38.3236C19.503 38.2692 19.1519 37.9796 18.8854 37.4547C18.7775 38.142 18.8974 38.8432 19.2296 39.4678C19.43 38.927 19.6664 38.5446 19.9387 38.3206V38.3236ZM20.6282 42.9265C20.0727 42.8417 19.7405 42.5659 19.6315 42.0994C19.4941 42.7693 19.6255 43.4621 20.0019 44.0509C20.0064 43.8324 20.0651 43.6178 20.1736 43.423C20.2821 43.2283 20.4375 43.0585 20.6282 42.9265ZM18.8015 19.0549C18.3208 19.3948 17.8778 19.7771 17.4792 20.1962C17.3607 20.0539 17.2864 19.8851 17.2642 19.7075C17.242 19.5299 17.2726 19.3502 17.3529 19.1871C17.3907 19.3539 17.4648 19.5121 17.5707 19.6524C17.8387 19.3992 18.2475 19.2004 18.7972 19.0559L18.8015 19.0549ZM22.6139 31.9123C20.9779 31.628 19.8371 31.2707 19.1915 30.8406C19.1599 29.6675 20.6478 30.0393 21.5007 30.1198C24.2957 30.3853 25.5472 30.9629 25.9851 32.6231C22.4331 33.3021 20.0498 33.147 19.1403 31.8079C20.6035 32.0299 21.7614 32.0647 22.6139 31.9123ZM24.7924 36.0877C23.0463 36.1741 21.295 36.0841 19.5706 35.8193C19.4812 35.2447 19.5491 34.8122 19.7742 34.5219C20.1653 34.0249 20.9408 34.0746 21.5486 34.0587C22.5635 34.0167 23.5803 34.0433 24.5909 34.1382C25.8697 34.2833 26.1648 34.4742 26.948 35.3202C27.7312 36.1663 28.3455 37.2141 28.828 38.5015C28.0293 39.1398 27.7058 40.0723 27.8575 41.2991C26.3994 41.991 24.735 42.3283 22.8644 42.3111C22.0028 42.3022 21.0868 42.3578 20.6435 41.5436C23.567 41.195 25.4187 40.7095 26.1986 40.0872C24.2066 40.3818 22.1994 40.5839 20.1849 40.6926C20.3047 39.0026 21.6009 38.755 23.0943 38.5542C25.6758 38.2082 27.2043 37.7556 27.68 37.1962C26.0489 37.5821 24.3718 37.7825 22.6869 37.7927C21.4419 37.8086 20.0672 37.918 19.5836 36.5937C22.2305 36.6786 23.9671 36.5129 24.7935 36.0967L24.7924 36.0877ZM21.4702 45.6544C21.346 44.6981 21.6085 43.9833 22.2414 43.4961C22.9429 42.9553 23.8001 42.8002 24.8207 42.6799C25.9808 42.5418 27.0286 42.1133 27.8782 41.8061C27.8782 41.8826 27.8859 41.9552 27.8924 42.0268C26.1779 43.5429 24.3698 45.0092 22.4941 46.4458C22.1499 46.1807 21.8086 45.9156 21.4702 45.6505V45.6544ZM38.2489 19.4854C38.3154 19.0708 37.9221 18.7974 37.2686 18.8213C38.372 18.4236 38.8382 19.1195 38.2489 19.4854ZM28.0275 18.9028C27.5219 19.0226 27.083 19.3091 26.7955 19.7071C27.908 19.1179 29.0103 18.8014 30.1025 18.7577C28.9297 18.525 27.9189 18.5502 27.07 18.8332C27.4287 18.8458 27.7479 18.869 28.0275 18.9028ZM26.3043 21.9708C26.6204 21.885 26.9246 21.7659 27.2105 21.6158C26.7974 22.0281 26.277 22.3386 25.6976 22.5185C25.6881 21.8114 26.0094 21.3083 26.6615 21.0094C26.4879 21.3107 26.3673 21.6352 26.3043 21.9708ZM27.3194 22.4837C29.2115 22.1179 30.6678 22.4937 31.7374 23.4849C32.1905 23.9054 32.477 24.4601 32.7744 24.9443C33.1709 25.5905 33.588 26.1124 34.4507 26.0209C33.1992 26.8441 32.5326 25.0656 32.0359 24.3895C31.8575 24.1213 31.6467 23.8722 31.4074 23.6469C30.3617 22.7343 29.011 22.3903 27.3194 22.4837ZM29.0361 21.9867C30.4793 21.9648 31.3159 22.2571 31.9313 22.7591C32.6339 23.3318 33.0478 24.1778 33.7482 25.1451C33.2351 25.1451 32.8332 24.0257 31.8202 23.123C31.1884 22.5673 30.3475 22.1606 29.0405 21.9916L29.0361 21.9867ZM8.86763 10.4545C10.5981 12.7894 13.4094 14.4152 17.3017 15.3318C17.0009 15.667 16.7909 16.062 16.6884 16.485C18.7517 16.5327 20.8072 16.2355 22.7533 15.6082C18.0928 15.3278 14.0524 13.9632 10.6322 11.5143C14.7779 12.8676 18.5104 13.5085 21.8296 13.437C19.2881 12.0133 17.3274 10.4992 15.9477 8.89468L16.2963 8.84795C17.5537 9.90006 18.9994 10.7477 20.5705 11.3542C21.358 11.6525 22.2381 11.7678 23.0823 11.9507C24.4515 12.243 25.8958 12.7142 27.3456 12.4955C27.2127 12.2042 26.5276 12.1436 25.8588 12.0392C24.5517 11.8354 23.9526 11.2657 22.9842 10.4734C22.4752 10.0526 21.9957 9.60306 21.5486 9.12731C19.723 7.36368 18.3186 5.16893 17.3354 2.54304C19.5139 5.48043 22.0489 7.78752 24.9405 9.46433C26.277 10.2388 27.0319 10.4535 28.01 11.7727C27.9468 10.3104 26.4785 9.86199 25.3664 9.14222C24.5851 8.64955 23.8429 8.10705 23.1455 7.51877C21.688 5.66302 20.7175 3.74795 20.2339 1.77357C21.1685 3.61474 22.4618 5.41183 24.1138 7.16485C24.788 7.88064 25.4013 8.57456 26.3359 9.01199C27.4044 9.50906 27.705 9.61941 28.3422 10.702C28.1549 9.34105 27.4708 9.13626 26.3816 8.5338C25.5756 8.08544 24.873 7.2593 24.263 6.59421C22.3162 4.4654 20.7618 2.26733 19.6 0C19.4801 2.20834 19.9354 4.13037 20.9659 5.76608C19.401 4.45844 17.8942 2.71039 16.4455 0.52193C16.8812 4.47203 18.7137 7.92339 21.9429 10.876C19.5989 10.872 17.0108 9.41926 14.1788 6.51766C14.4641 7.37302 14.8725 8.19005 15.3933 8.94737C10.3305 9.55579 5.235 10.8124 0.034945 12.7192C-0.33213 21.2908 2.19274 29.234 7.60846 36.6604C7.39062 37.2668 7.38299 37.9746 7.62807 38.7481C7.92488 38.9725 8.26833 39.1399 8.6378 39.2402C8.23696 39.5875 8.0369 40.2671 8.03763 41.2792C7.76445 40.5862 7.5724 39.8687 7.46469 39.1388L7.4527 39.1666C7.19927 40.0912 7.4291 41.0585 8.1422 42.0685C8.39708 40.7722 8.83278 39.8281 9.44929 39.2362C9.50637 39.2392 9.56364 39.2372 9.6203 39.2302C9.87736 39.5384 10.1391 39.8453 10.4056 40.1508C10.1682 41.9403 10.4325 43.1389 11.1986 43.7467C11.3228 42.8758 11.5406 42.2114 11.8522 41.7534C12.4142 42.3499 12.9973 42.9464 13.6015 43.5429C13.73 44.6033 14.0728 45.3602 14.6297 45.8135C14.6949 45.4649 14.7848 45.1206 14.8988 44.7826C17.2904 46.9945 19.828 49.0709 22.4974 51C25.2761 48.9907 27.9116 46.8217 30.3878 44.5062C30.4274 44.9403 30.4369 45.3763 30.4162 45.8115C31.1953 45.0825 31.7868 44.1307 32.1905 42.9563C32.2976 42.7931 32.393 42.6238 32.4759 42.4493C32.9044 42.0072 33.3226 41.5635 33.7307 41.1181C34.059 41.7849 34.2351 42.848 34.259 44.3074C35.2698 43.2642 35.7084 42.0248 35.5748 40.5892C35.3614 41.4626 35.0356 42.3098 34.6043 43.1134C34.7303 42.383 34.6782 41.6362 34.4518 40.9263C34.8812 40.7692 35.2686 40.5299 35.5879 40.2244C35.7142 39.7347 35.7911 39.2356 35.8177 38.7332C35.8319 38.8037 35.9528 38.8326 36.1815 38.8326C36.623 39.3456 36.9498 40.3904 37.1619 41.9671C37.9461 40.509 38.1879 39.1239 37.8873 37.8116C37.7609 38.8395 37.5663 39.6382 37.3035 40.2075C37.2453 39.6023 37.0724 39.011 36.7926 38.4598C37.2534 38.2746 37.6328 37.9535 37.8699 37.5481C37.9559 36.9606 37.9472 36.4744 37.8296 36.0569C42.9425 28.8066 45.3214 21.0631 44.9652 12.7261C39.3055 10.6374 33.7743 9.33608 28.278 8.79825C33.4926 9.42058 38.6908 10.8863 43.8727 13.1954C44.023 21.2261 41.3435 28.3274 36.7806 34.676C36.5701 34.5428 36.3402 34.437 36.0977 34.3619C39.6737 29.5402 42.1201 24.2553 42.9523 18.3481C41.9338 24.2136 39.2238 29.4468 35.418 34.2247C35.26 34.2083 35.101 34.2017 34.942 34.2048C33.8527 34.2217 32.9639 34.7396 32.8648 35.9813C31.5076 35.8978 30.5861 36.9318 30.7898 37.8573C30.5086 37.8386 30.226 37.8621 29.9532 37.9269C26.814 34.1292 25.227 29.7122 25.2695 24.817C24.3763 24.7302 23.6697 24.4194 23.1498 23.8845C25.4666 25.0467 27.4305 23.2393 30.2364 24.4551C29.9111 24.0343 29.2812 23.7082 28.3466 23.4769C30.3443 23.4491 32.5446 25.0586 31.22 26.9147C31.4417 26.8483 31.6464 26.7417 31.8219 26.6015C31.9975 26.4613 32.1403 26.2902 32.2417 26.0985C32.8386 26.6459 32.6934 27.2908 31.806 28.0331C32.3637 28.1385 32.7893 28.0142 33.0826 27.6603C33.0311 28.2667 32.627 28.7873 31.8703 29.2221C34.3048 29.3593 34.1414 27.1563 36.2621 26.017C35.5454 26.2735 34.8134 26.7165 34.0662 27.3461C34.8933 26.1485 35.7531 25.6279 36.6456 25.7843C36.8885 25.5427 36.9277 25.3867 36.9549 25.0825C37.0102 24.5599 36.966 24.0325 36.8242 23.5236C36.679 24.3574 36.3725 24.8041 35.9049 24.8637C36.0792 24.311 36.045 23.8252 35.8025 23.4063C35.7426 23.7235 35.6148 24.0268 35.4264 24.2989C35.238 24.5709 34.9927 24.8065 34.7045 24.992C33.8063 24.7123 33.4976 24.1238 33.7787 23.2264C33.0162 23.283 32.7319 22.9828 32.8659 22.3813C32.062 22.5311 31.7236 22.3386 31.8507 21.8037C31.1579 22.0085 30.7756 21.8405 30.695 21.2977C29.8759 21.5234 29.523 21.3345 29.6352 20.7668C28.7093 20.9657 27.8644 20.8629 27.1005 20.4587C27.6531 20.006 28.3876 19.7077 29.304 19.5639C29.2267 20.0401 29.6973 20.0908 30.0567 20.2469C31.7029 20.964 33.0275 21.8037 34.0303 22.7661C34.5865 23.2605 34.9311 23.75 35.064 24.2344C35.2506 23.807 35.1188 23.401 34.6686 23.0166L34.6816 22.4201L34.222 22.4261L34.2155 21.9658H33.6469C33.6469 21.9658 33.6316 21.7868 33.6022 21.4299L32.989 21.424V21.0154L32.4084 21.0213C32.4084 21.0213 32.3997 20.8782 32.3833 20.5909L31.6546 20.6257L31.6677 20.2409C30.8943 20.3019 30.3922 20.0726 30.1613 19.553C30.7596 19.4788 31.5472 19.5139 32.5239 19.6584C33.0271 19.7558 33.3121 20.0703 33.3789 20.6018C33.4852 20.382 33.5458 20.146 33.5575 19.9059C34.0528 20.1008 34.2314 20.5475 34.0935 21.246C34.3556 20.9895 34.5517 20.6283 34.6816 20.1624C34.8901 20.57 34.9794 21.1526 34.9496 21.9101C35.3035 21.4767 35.5753 20.9921 35.7535 20.4765C36.0628 20.8225 36.1013 21.4207 35.8689 22.271C36.232 22.0205 36.5257 21.6437 36.7501 21.1406C36.9585 21.4807 37.2936 21.7414 37.6945 21.8753C37.7904 22.5679 37.6451 23.3059 37.2588 24.0893C37.9232 23.7374 38.3789 23.2844 38.6258 22.7303C38.6391 22.9904 38.5588 23.2474 38.3971 23.462C38.8401 23.1 39.1803 22.6452 39.3883 22.1368C39.3791 22.5088 39.3321 22.8792 39.2478 23.2433C40.0575 22.5613 40.5619 21.6299 40.6638 20.6287C40.7302 19.9586 40.5864 19.3154 40.1714 18.7835C39.1802 17.51 36.8569 17.1839 35.3679 17.8013C36.7229 17.6154 39.2717 17.6144 39.4406 19.2925C39.4617 19.4591 39.44 19.628 39.377 19.7856C39.314 19.9432 39.2116 20.0851 39.0778 20.2002C38.3154 20.7967 37.0497 20.1008 37.444 19.1474C37.6793 19.8492 38.2685 20.0421 38.6563 19.8572C38.9962 19.6912 39.1911 19.21 38.7195 18.7258C38.494 18.4962 38.1062 18.355 37.7076 18.3083C36.6913 18.19 36.3231 18.6195 35.4801 18.6304C34.7982 18.6394 34.2819 18.3709 33.5891 18.2636C32.7141 18.1429 31.8289 18.0953 30.9444 18.1214C31.4353 17.9226 32.2141 17.8643 33.2809 17.9464C31.8758 17.332 28.7583 17.4722 27.0885 18.3312C27.3027 18.033 27.4342 17.6919 27.4719 17.337C26.3972 17.3768 25.0945 17.9242 23.5637 18.9794C24.2271 18.4385 26.1779 16.1957 24.1083 16.1957C25.2738 15.2413 25.5527 13.8356 23.5463 14.1796C24.6355 13.7958 25.1675 13.4151 25.142 13.0373C23.9129 12.9085 22.6963 12.6942 21.5029 12.3961C22.0446 12.9806 22.8895 13.309 24.0375 13.3813C23.2199 14.0308 21.4259 14.3105 18.6556 14.2204C20.0259 14.618 21.6216 14.8586 23.4722 14.9799C24.2086 15.0286 24.2347 15.2294 23.6683 15.6987C22.574 16.6106 20.7586 17.1551 18.2221 17.332C19.9226 17.5403 21.6507 17.4566 23.3176 17.0855C23.7892 16.9861 24.1432 16.8966 24.2674 17.0239C24.3763 17.1322 24.3229 17.4056 23.9286 17.8341C22.957 18.8771 21.8156 19.7777 20.5443 20.5044C22.0243 20.1604 23.2587 19.7296 24.2478 19.212C24.9182 18.7272 25.6681 18.3417 26.4698 18.0697C25.9394 18.4278 25.4438 18.8269 24.9885 19.2627C25.4747 19.122 25.9867 19.0706 26.4949 19.1116C25.4478 19.769 24.5963 20.6638 23.9406 21.7958C24.8461 21.2251 25.5955 20.9455 26.1888 20.9567C25.1947 21.3338 24.0709 22.0874 22.8176 23.2174C22.9314 22.1284 23.3783 21.0905 24.1073 20.222C19.7358 21.6404 15.9052 22.0288 12.6157 21.3872C13.2192 21.2828 13.6527 21.1227 13.9174 20.91C13.0293 21.0843 11.9782 21.1542 10.764 21.1198C11.646 21.6762 12.6765 22.0046 13.7464 22.0702C10.6159 23.4772 8.8709 25.3264 8.51145 27.6175C9.41044 27.1576 10.2746 26.8855 11.1039 26.8013C10.5875 27.146 10.2245 27.6706 10.0146 28.3751C10.9426 27.8283 11.8707 27.5602 12.7987 27.5708C12.7987 27.5708 12.7726 27.8542 12.7214 28.4218C10.0433 29.6208 8.62727 31.0789 8.47333 32.7961C5.2448 28.4089 2.95521 23.636 2.03807 18.354C2.90075 24.483 5.50187 29.9419 9.30115 34.9087C9.06902 35.0119 8.84988 35.1379 8.6476 35.2844C3.8168 28.7837 0.958625 21.4876 1.11439 13.2013C5.86204 11.0812 10.6286 9.67111 15.414 8.97123C16.3987 10.3988 17.8089 11.6992 19.6446 12.8723C17.1031 12.6396 13.5107 11.8354 8.86763 10.4595V10.4545ZM15.9423 8.8738C15.6208 8.4987 15.3244 8.1063 15.0545 7.69871C15.447 8.09875 15.8614 8.48033 16.2963 8.84199L15.9477 8.87877L15.9423 8.8738ZM10.1889 15.9373C12.8859 17.8679 19.0913 18.8591 23.4428 17.5806C21.1641 19.8671 18.0848 21.1019 14.3454 20.9836C14.5816 20.1999 14.9 19.4388 15.2964 18.7109C12.6313 18.1535 10.4056 17.0427 8.61928 15.3785C11.0744 15.6118 13.5939 15.9147 16.1776 16.2872C14.1727 16.443 12.1535 16.3251 10.1867 15.9373H10.1889ZM29.7506 42.6203C29.5791 42.392 29.3525 42.2026 29.0884 42.0666C27.0417 43.9644 24.8305 45.7916 22.4974 47.5612C20.4278 45.9915 18.4541 44.3799 16.6067 42.7058C16.3811 42.9069 16.1085 43.0588 15.8094 43.1502C17.9305 45.1061 20.1629 46.9588 22.4974 48.7005C25.0418 46.8034 27.4637 44.7733 29.7506 42.6203ZM9.94054 34.6671C10.8174 34.4126 12.0428 34.2903 12.6865 34.8927C12.587 34.3658 12.57 33.9463 12.6353 33.6342C11.777 33.6951 10.8108 33.9556 9.73685 34.4156C9.90823 33.8191 10.2786 33.2673 10.8479 32.7603C10.0861 32.8531 9.45946 33.0784 8.96784 33.4363C9.28372 33.8499 9.60796 34.2601 9.94054 34.6671ZM28.0808 17.2694C28.4185 17.001 29.6831 16.9483 30.1112 16.7972C29.4108 16.7863 28.9609 16.7157 28.6843 16.5765C28.3303 16.3985 28.0078 15.7871 27.2127 16.0337C27.9414 16.146 28.2878 16.6302 28.0841 17.2694H28.0808ZM29.7027 14.5136C28.9867 14.0086 27.912 13.8552 26.4785 14.0533C27 13.8031 27.5742 13.6579 28.1624 13.6278C28.7506 13.5976 29.339 13.683 29.8879 13.8784C30.4608 14.1203 30.9779 14.5474 31.439 15.1598C31.7788 15.4693 32.0537 15.7013 32.2635 15.8557C31.6495 16.0444 31.0483 16.2662 30.463 16.5198C30.5762 16.3907 30.6723 16.2499 30.7495 16.1003C28.8978 16.7763 28.8553 15.7533 27.7519 15.3527C27.3499 15.2065 26.9012 15.1539 26.3511 15.1439C26.6049 14.8457 27.0286 14.6836 27.6212 14.6608C27.5526 14.5711 27.4623 14.497 27.3573 14.4444C27.2522 14.3918 27.1353 14.3621 27.0155 14.3575C27.914 14.2621 28.824 14.3136 29.7027 14.5096V14.5136ZM30.0556 15.129C30.0231 15.3575 29.913 15.5709 29.7408 15.7394C30.1366 15.758 30.4271 15.6311 30.6122 15.3587C30.6634 15.3966 30.701 15.4476 30.7204 15.5051C30.7398 15.5626 30.74 15.6241 30.7212 15.6818C30.6307 15.988 30.1199 16.0466 29.7561 15.973C29.3923 15.8995 29.1679 15.6748 28.9424 15.4362C28.8248 15.299 28.6878 15.1767 28.535 15.0723C28.966 15.0255 29.4019 15.0312 29.8312 15.0892C29.9053 15.1002 29.9794 15.1131 30.0491 15.129H30.0556Z" fill="#C50077"/>
<path d="M58.1191 44H62.7266C63.6836 43.9909 64.5723 43.877 65.3926 43.6582C66.222 43.4395 66.9648 43.125 67.6211 42.7148C68.2409 42.3229 68.8014 41.849 69.3027 41.293C69.804 40.737 70.2188 40.1172 70.5469 39.4336C70.8659 38.7773 71.1074 38.0573 71.2715 37.2734C71.4447 36.4896 71.5312 35.6602 71.5312 34.7852V33.3223C71.5221 32.4108 71.4264 31.554 71.2441 30.752C71.071 29.9499 70.8158 29.2116 70.4785 28.5371C70.1048 27.7441 69.6035 27.0469 68.9746 26.4453C68.3548 25.8346 67.6393 25.3424 66.8281 24.9688C66.2448 24.6953 65.6068 24.4857 64.9141 24.3398C64.2305 24.1849 63.5013 24.1029 62.7266 24.0938H58.1191V44ZM60.6895 26.1719H62.7266C63.3555 26.181 63.9342 26.2539 64.4629 26.3906C64.9915 26.5182 65.4701 26.7005 65.8984 26.9375C66.5 27.2565 67.0059 27.6758 67.416 28.1953C67.8353 28.7057 68.168 29.2799 68.4141 29.918C68.6055 30.4102 68.7467 30.9434 68.8379 31.5176C68.9382 32.0827 68.9928 32.6751 69.002 33.2949V34.7852C68.9928 35.3958 68.9427 35.9837 68.8516 36.5488C68.7604 37.1048 68.6237 37.6243 68.4414 38.1074C68.2318 38.6999 67.9447 39.2376 67.5801 39.7207C67.2246 40.1947 66.8008 40.5957 66.3086 40.9238C65.8438 41.2428 65.3105 41.4889 64.709 41.6621C64.1165 41.8353 63.4557 41.9264 62.7266 41.9355H60.6895V26.1719ZM84.8887 28.9336C83.8132 28.9336 82.8516 29.1706 82.0039 29.6445C81.1654 30.1094 80.4453 30.7474 79.8438 31.5586L79.8301 31.1895L79.7207 29.207H77.3145V44H79.8574V34.5117C80.0215 34.056 80.2266 33.6458 80.4727 33.2812C80.7279 32.9076 81.0241 32.5931 81.3613 32.3379C81.735 32.0462 82.1725 31.8275 82.6738 31.6816C83.1751 31.5267 83.7357 31.4492 84.3555 31.4492C84.8385 31.4492 85.2988 31.4766 85.7363 31.5312C86.1829 31.5768 86.6523 31.6543 87.1445 31.7637L87.4863 29.2891C87.2311 29.1797 86.8483 29.0931 86.3379 29.0293C85.8366 28.9655 85.3535 28.9336 84.8887 28.9336ZM101.732 44H104.371V43.7812C104.207 43.3711 104.079 42.8926 103.988 42.3457C103.897 41.7897 103.852 41.2656 103.852 40.7734V33.8965C103.852 33.0671 103.701 32.3424 103.4 31.7227C103.1 31.1029 102.689 30.5833 102.17 30.1641C101.641 29.7539 101.017 29.4486 100.297 29.248C99.5768 29.0384 98.7975 28.9336 97.959 28.9336C97.0384 28.9336 96.2135 29.0612 95.4844 29.3164C94.7643 29.5716 94.1536 29.9043 93.6523 30.3145C93.1419 30.7337 92.75 31.2031 92.4766 31.7227C92.2122 32.2422 92.0755 32.7708 92.0664 33.3086H94.6094C94.6094 32.9987 94.6823 32.7025 94.8281 32.4199C94.9831 32.1283 95.1973 31.8776 95.4707 31.668C95.7441 31.4583 96.0768 31.2897 96.4688 31.1621C96.8698 31.0345 97.321 30.9707 97.8223 30.9707C98.36 30.9707 98.8431 31.0391 99.2715 31.1758C99.709 31.3125 100.078 31.5039 100.379 31.75C100.68 32.0052 100.912 32.3105 101.076 32.666C101.24 33.0215 101.322 33.4225 101.322 33.8691V35.0312H98.5605C97.5306 35.0312 96.5964 35.1315 95.7578 35.332C94.9284 35.5326 94.2174 35.8333 93.625 36.2344C93.0326 36.6445 92.5723 37.1549 92.2441 37.7656C91.9251 38.3763 91.7656 39.0872 91.7656 39.8984C91.7656 40.5182 91.8841 41.097 92.1211 41.6348C92.3672 42.1634 92.7135 42.6191 93.1602 43.002C93.5977 43.3939 94.1309 43.7038 94.7598 43.9316C95.3978 44.1595 96.1087 44.2734 96.8926 44.2734C97.3757 44.2734 97.8314 44.2233 98.2598 44.123C98.6882 44.0228 99.0938 43.8861 99.4766 43.7129C99.8503 43.5397 100.192 43.3392 100.502 43.1113C100.821 42.8835 101.108 42.6419 101.363 42.3867C101.391 42.6966 101.432 42.9974 101.486 43.2891C101.55 43.5716 101.632 43.8086 101.732 44ZM97.2617 42.0723C96.7695 42.0723 96.3366 42.0085 95.9629 41.8809C95.5892 41.7533 95.2793 41.5755 95.0332 41.3477C94.7871 41.1289 94.6003 40.8646 94.4727 40.5547C94.3542 40.2448 94.2949 39.9076 94.2949 39.543C94.2949 39.1602 94.3633 38.8184 94.5 38.5176C94.6458 38.2168 94.8555 37.957 95.1289 37.7383C95.5117 37.4284 96.0267 37.2005 96.6738 37.0547C97.3301 36.8997 98.0957 36.8223 98.9707 36.8223H101.322V39.8164C101.176 40.1081 100.976 40.3906 100.721 40.6641C100.465 40.9284 100.165 41.1654 99.8184 41.375C99.4629 41.5846 99.071 41.7533 98.6426 41.8809C98.2142 42.0085 97.7539 42.0723 97.2617 42.0723ZM108.363 36.4805V36.7676C108.363 37.8249 108.5 38.8138 108.773 39.7344C109.047 40.6458 109.439 41.4388 109.949 42.1133C110.451 42.7878 111.066 43.3164 111.795 43.6992C112.524 44.082 113.34 44.2734 114.242 44.2734C114.78 44.2734 115.281 44.2142 115.746 44.0957C116.211 43.9863 116.635 43.8268 117.018 43.6172C117.264 43.4805 117.492 43.321 117.701 43.1387C117.92 42.9564 118.125 42.7559 118.316 42.5371V43.8086C118.316 44.4466 118.225 45.0117 118.043 45.5039C117.861 45.9961 117.601 46.4062 117.264 46.7344C116.917 47.0716 116.503 47.3268 116.02 47.5C115.536 47.6732 114.994 47.7598 114.393 47.7598C114.055 47.7598 113.718 47.7233 113.381 47.6504C113.044 47.5866 112.706 47.4772 112.369 47.3223C112.032 47.1673 111.699 46.9577 111.371 46.6934C111.043 46.4382 110.724 46.1237 110.414 45.75L109.102 47.2676C109.439 47.7507 109.84 48.1562 110.305 48.4844C110.779 48.8125 111.271 49.0723 111.781 49.2637C112.283 49.4642 112.779 49.6055 113.271 49.6875C113.764 49.7786 114.201 49.8242 114.584 49.8242C115.514 49.8242 116.361 49.6875 117.127 49.4141C117.893 49.1406 118.553 48.7396 119.109 48.2109C119.656 47.6823 120.08 47.0397 120.381 46.2832C120.691 45.5267 120.846 44.6608 120.846 43.6855V29.207H118.549L118.426 30.8203C118.253 30.6016 118.066 30.401 117.865 30.2188C117.674 30.0365 117.469 29.877 117.25 29.7402C116.849 29.4759 116.398 29.2754 115.896 29.1387C115.404 29.002 114.862 28.9336 114.27 28.9336C113.349 28.9336 112.524 29.1204 111.795 29.4941C111.066 29.8678 110.446 30.3874 109.936 31.0527C109.425 31.7181 109.033 32.5156 108.76 33.4453C108.495 34.3659 108.363 35.3776 108.363 36.4805ZM110.893 36.7676V36.4805C110.893 35.7604 110.965 35.0768 111.111 34.4297C111.266 33.7734 111.508 33.1947 111.836 32.6934C112.155 32.2012 112.565 31.8092 113.066 31.5176C113.577 31.2259 114.188 31.0801 114.898 31.0801C115.318 31.0801 115.701 31.1348 116.047 31.2441C116.393 31.3444 116.708 31.4857 116.99 31.668C117.273 31.8594 117.523 32.0827 117.742 32.3379C117.961 32.5931 118.152 32.8757 118.316 33.1855V39.9668C118.152 40.2858 117.961 40.5775 117.742 40.8418C117.523 41.1061 117.277 41.334 117.004 41.5254C116.721 41.7168 116.402 41.8672 116.047 41.9766C115.701 42.0768 115.309 42.127 114.871 42.127C114.169 42.127 113.568 41.9857 113.066 41.7031C112.565 41.4115 112.155 41.0195 111.836 40.5273C111.508 40.0352 111.266 39.4655 111.111 38.8184C110.965 38.1712 110.893 37.4876 110.893 36.7676ZM124.934 36.4668V36.7676C124.934 37.834 125.089 38.8229 125.398 39.7344C125.708 40.6458 126.155 41.4388 126.738 42.1133C127.312 42.7878 128.014 43.3164 128.844 43.6992C129.682 44.082 130.626 44.2734 131.674 44.2734C132.713 44.2734 133.647 44.082 134.477 43.6992C135.306 43.3164 136.012 42.7878 136.596 42.1133C137.17 41.4388 137.612 40.6458 137.922 39.7344C138.232 38.8229 138.387 37.834 138.387 36.7676V36.4668C138.387 35.4004 138.232 34.4115 137.922 33.5C137.612 32.5794 137.17 31.7819 136.596 31.1074C136.012 30.4329 135.301 29.9043 134.463 29.5215C133.633 29.1296 132.695 28.9336 131.646 28.9336C130.607 28.9336 129.673 29.1296 128.844 29.5215C128.014 29.9043 127.312 30.4329 126.738 31.1074C126.155 31.7819 125.708 32.5794 125.398 33.5C125.089 34.4115 124.934 35.4004 124.934 36.4668ZM127.463 36.7676V36.4668C127.463 35.7467 127.549 35.0586 127.723 34.4023C127.896 33.737 128.16 33.1536 128.516 32.6523C128.862 32.151 129.295 31.7546 129.814 31.4629C130.334 31.1621 130.945 31.0117 131.646 31.0117C132.348 31.0117 132.959 31.1621 133.479 31.4629C134.007 31.7546 134.449 32.151 134.805 32.6523C135.151 33.1536 135.411 33.737 135.584 34.4023C135.766 35.0586 135.857 35.7467 135.857 36.4668V36.7676C135.857 37.4967 135.771 38.194 135.598 38.8594C135.424 39.5156 135.165 40.0944 134.818 40.5957C134.463 41.097 134.021 41.4935 133.492 41.7852C132.973 42.0768 132.367 42.2227 131.674 42.2227C130.972 42.2227 130.357 42.0768 129.828 41.7852C129.299 41.4935 128.862 41.097 128.516 40.5957C128.16 40.0944 127.896 39.5156 127.723 38.8594C127.549 38.194 127.463 37.4967 127.463 36.7676ZM142.461 44H144.99V33.3906C145.163 33.0716 145.364 32.7799 145.592 32.5156C145.829 32.2513 146.084 32.0189 146.357 31.8184C146.695 31.5905 147.064 31.4128 147.465 31.2852C147.866 31.1484 148.299 31.0801 148.764 31.0801C149.301 31.0801 149.775 31.1439 150.186 31.2715C150.605 31.3991 150.96 31.6042 151.252 31.8867C151.535 32.1693 151.749 32.5384 151.895 32.9941C152.04 33.4499 152.113 34.0059 152.113 34.6621V44H154.643V34.6074C154.643 33.623 154.52 32.7754 154.273 32.0645C154.036 31.3444 153.695 30.752 153.248 30.2871C152.801 29.8223 152.259 29.4805 151.621 29.2617C150.992 29.043 150.29 28.9336 149.516 28.9336C148.941 28.9427 148.395 29.0293 147.875 29.1934C147.365 29.3483 146.891 29.5716 146.453 29.8633C146.161 30.0547 145.883 30.2826 145.619 30.5469C145.364 30.8021 145.127 31.0846 144.908 31.3945L144.73 29.207H142.461V44ZM186.512 38.9688C186.512 39.5156 186.393 39.9896 186.156 40.3906C185.919 40.7826 185.614 41.1061 185.24 41.3613C184.867 41.6257 184.438 41.8216 183.955 41.9492C183.481 42.0677 182.998 42.127 182.506 42.127C181.886 42.127 181.312 42.0449 180.783 41.8809C180.264 41.7077 179.803 41.4525 179.402 41.1152C179.001 40.7871 178.673 40.3861 178.418 39.9121C178.163 39.429 177.994 38.8776 177.912 38.2578H175.328C175.355 39.1146 175.542 39.8939 175.889 40.5957C176.244 41.2884 176.723 41.8945 177.324 42.4141C177.999 43.0156 178.792 43.4759 179.703 43.7949C180.624 44.1139 181.558 44.2734 182.506 44.2734C183.299 44.2734 184.092 44.1641 184.885 43.9453C185.678 43.7174 186.389 43.3802 187.018 42.9336C187.646 42.4961 188.157 41.9447 188.549 41.2793C188.95 40.6139 189.15 39.8346 189.15 38.9414C189.15 38.0573 188.964 37.278 188.59 36.6035C188.225 35.929 187.742 35.3594 187.141 34.8945C186.53 34.3932 185.855 33.9831 185.117 33.6641C184.379 33.3359 183.641 33.0579 182.902 32.8301C182.456 32.6934 181.977 32.5339 181.467 32.3516C180.965 32.1693 180.501 31.9414 180.072 31.668C179.635 31.3945 179.275 31.0618 178.992 30.6699C178.71 30.2689 178.564 29.7812 178.555 29.207C178.555 28.6784 178.66 28.2135 178.869 27.8125C179.088 27.4115 179.38 27.0742 179.744 26.8008C180.1 26.5273 180.505 26.3223 180.961 26.1855C181.426 26.0488 181.9 25.9805 182.383 25.9805C182.984 25.9805 183.522 26.0762 183.996 26.2676C184.479 26.4499 184.894 26.7096 185.24 27.0469C185.587 27.3841 185.865 27.7897 186.074 28.2637C186.284 28.7285 186.425 29.248 186.498 29.8223H189.096C189.077 28.9108 188.882 28.0859 188.508 27.3477C188.134 26.6094 187.637 25.9805 187.018 25.4609C186.398 24.9414 185.687 24.5404 184.885 24.2578C184.083 23.9661 183.249 23.8203 182.383 23.8203C181.599 23.8203 180.82 23.9434 180.045 24.1895C179.27 24.4264 178.577 24.7773 177.967 25.2422C177.356 25.707 176.859 26.2767 176.477 26.9512C176.103 27.6257 175.916 28.3913 175.916 29.248C175.916 30.1048 176.103 30.8522 176.477 31.4902C176.859 32.1191 177.352 32.666 177.953 33.1309C178.546 33.5866 179.202 33.9785 179.922 34.3066C180.651 34.6257 181.367 34.8991 182.068 35.127C182.551 35.2819 183.053 35.4551 183.572 35.6465C184.101 35.8379 184.584 36.0749 185.021 36.3574C185.459 36.6491 185.814 37.0046 186.088 37.4238C186.37 37.8431 186.512 38.3581 186.512 38.9688ZM194.332 44H196.328L198.611 34.9355L198.98 32.6387L199.363 34.9355L201.674 44H203.67L206.814 29.207H204.572L202.932 38.6406L202.562 40.9648L202.166 38.6406L199.814 29.207H198.188L195.822 38.6406L195.453 40.7598L195.152 38.6406L193.43 29.207H191.188L194.332 44ZM219.447 44H222.086V43.7812C221.922 43.3711 221.794 42.8926 221.703 42.3457C221.612 41.7897 221.566 41.2656 221.566 40.7734V33.8965C221.566 33.0671 221.416 32.3424 221.115 31.7227C220.814 31.1029 220.404 30.5833 219.885 30.1641C219.356 29.7539 218.732 29.4486 218.012 29.248C217.292 29.0384 216.512 28.9336 215.674 28.9336C214.753 28.9336 213.928 29.0612 213.199 29.3164C212.479 29.5716 211.868 29.9043 211.367 30.3145C210.857 30.7337 210.465 31.2031 210.191 31.7227C209.927 32.2422 209.79 32.7708 209.781 33.3086H212.324C212.324 32.9987 212.397 32.7025 212.543 32.4199C212.698 32.1283 212.912 31.8776 213.186 31.668C213.459 31.4583 213.792 31.2897 214.184 31.1621C214.585 31.0345 215.036 30.9707 215.537 30.9707C216.075 30.9707 216.558 31.0391 216.986 31.1758C217.424 31.3125 217.793 31.5039 218.094 31.75C218.395 32.0052 218.627 32.3105 218.791 32.666C218.955 33.0215 219.037 33.4225 219.037 33.8691V35.0312H216.275C215.245 35.0312 214.311 35.1315 213.473 35.332C212.643 35.5326 211.932 35.8333 211.34 36.2344C210.747 36.6445 210.287 37.1549 209.959 37.7656C209.64 38.3763 209.48 39.0872 209.48 39.8984C209.48 40.5182 209.599 41.097 209.836 41.6348C210.082 42.1634 210.428 42.6191 210.875 43.002C211.312 43.3939 211.846 43.7038 212.475 43.9316C213.113 44.1595 213.824 44.2734 214.607 44.2734C215.09 44.2734 215.546 44.2233 215.975 44.123C216.403 44.0228 216.809 43.8861 217.191 43.7129C217.565 43.5397 217.907 43.3392 218.217 43.1113C218.536 42.8835 218.823 42.6419 219.078 42.3867C219.105 42.6966 219.146 42.9974 219.201 43.2891C219.265 43.5716 219.347 43.8086 219.447 44ZM214.977 42.0723C214.484 42.0723 214.051 42.0085 213.678 41.8809C213.304 41.7533 212.994 41.5755 212.748 41.3477C212.502 41.1289 212.315 40.8646 212.188 40.5547C212.069 40.2448 212.01 39.9076 212.01 39.543C212.01 39.1602 212.078 38.8184 212.215 38.5176C212.361 38.2168 212.57 37.957 212.844 37.7383C213.227 37.4284 213.742 37.2005 214.389 37.0547C215.045 36.8997 215.811 36.8223 216.686 36.8223H219.037V39.8164C218.891 40.1081 218.691 40.3906 218.436 40.6641C218.18 40.9284 217.88 41.1654 217.533 41.375C217.178 41.5846 216.786 41.7533 216.357 41.8809C215.929 42.0085 215.469 42.0723 214.977 42.0723ZM226.529 49.6875H229.059V42.5781C229.241 42.7786 229.437 42.9655 229.646 43.1387C229.856 43.3027 230.079 43.4531 230.316 43.5898C230.708 43.8086 231.146 43.9772 231.629 44.0957C232.121 44.2142 232.65 44.2734 233.215 44.2734C234.145 44.2734 234.969 44.082 235.689 43.6992C236.419 43.3164 237.029 42.7878 237.521 42.1133C238.014 41.4388 238.387 40.6458 238.643 39.7344C238.898 38.8138 239.025 37.8249 239.025 36.7676V36.4805C239.025 35.3776 238.898 34.3659 238.643 33.4453C238.387 32.5156 238.014 31.7181 237.521 31.0527C237.029 30.3874 236.419 29.8678 235.689 29.4941C234.96 29.1204 234.122 28.9336 233.174 28.9336C232.636 28.9336 232.13 28.9928 231.656 29.1113C231.191 29.2207 230.768 29.3848 230.385 29.6035C230.111 29.7493 229.856 29.9271 229.619 30.1367C229.382 30.3372 229.163 30.5651 228.963 30.8203L228.84 29.207H226.529V49.6875ZM236.496 36.4805V36.7676C236.496 37.4876 236.414 38.1758 236.25 38.832C236.095 39.4883 235.854 40.0671 235.525 40.5684C235.197 41.0697 234.778 41.4707 234.268 41.7715C233.757 42.0632 233.151 42.209 232.449 42.209C232.012 42.209 231.611 42.1543 231.246 42.0449C230.891 41.9355 230.567 41.7852 230.275 41.5938C230.02 41.4297 229.792 41.2292 229.592 40.9922C229.391 40.7552 229.214 40.5 229.059 40.2266V33.1035C229.232 32.7936 229.432 32.5111 229.66 32.2559C229.888 32.0007 230.148 31.7865 230.439 31.6133C230.704 31.4401 231 31.3079 231.328 31.2168C231.665 31.1257 232.03 31.0801 232.422 31.0801C233.133 31.0801 233.743 31.2259 234.254 31.5176C234.764 31.8092 235.188 32.2012 235.525 32.6934C235.854 33.1947 236.095 33.7734 236.25 34.4297C236.414 35.0768 236.496 35.7604 236.496 36.4805Z" fill="#C50077"/>
</svg>
