<svg width="92" height="92" viewBox="0 0 92 92" fill="none" xmlns="http://www.w3.org/2000/svg">
<path d="M46 91C70.8528 91 91 70.8528 91 46C91 21.1472 70.8528 1 46 1C21.1472 1 1 21.1472 1 46C1 70.8528 21.1472 91 46 91Z" fill="url(#paint0_radial_593_2468)" fill-opacity="0.05" stroke="url(#paint1_linear_593_2468)" stroke-width="0.5"/>
<path d="M33.8365 28.2134L68.5502 52.6031L59.9014 65.5583L25.1875 41.1686L33.8365 28.2134Z" fill="url(#paint2_linear_593_2468)"/>
<path d="M68.5571 52.5927C65.5875 57.0408 55.4092 55.187 45.8233 48.4519C36.2373 41.7169 30.8737 32.6511 33.8433 28.203C36.8129 23.7548 46.9912 25.6087 56.5772 32.3437C66.1631 39.0788 71.5268 48.1445 68.5571 52.5927Z" fill="url(#paint3_linear_593_2468)"/>
<path d="M59.9081 65.5483C56.9384 69.9966 46.7602 68.1426 37.1743 61.4076C27.5883 54.6725 22.2248 45.6068 25.1943 41.1585C28.1639 36.7104 38.3422 38.5643 47.9281 45.2994C57.5141 52.0344 62.8777 61.1002 59.9081 65.5483Z" fill="url(#paint4_linear_593_2468)"/>
<path d="M68.5573 52.5929C68.555 52.5963 68.5528 52.5997 68.5505 52.603L59.9045 65.554L59.9015 65.5584C56.9232 69.9936 46.7531 68.1375 37.1744 61.4076C35.2774 60.0746 33.5457 58.6505 32.0112 57.1888C33.2707 56.9315 35.0919 56.142 36.7918 54.2207C39.7401 50.8883 41.3304 50.2836 42.6477 50.348C43.9649 50.4124 45.4662 51.6751 47.8245 54.9056C50.1828 58.1362 53.6489 59.0572 55.6566 57.3503C55.8313 57.2019 55.9936 57.0666 56.1467 56.9389C57.7556 55.5981 58.3617 55.0928 61.6536 48.9745C62.443 47.5338 64.9771 44.9546 68.6651 46.1794C69.6146 48.7098 69.6463 50.9618 68.5573 52.5929Z" fill="#0E0F23"/>
<path fill-rule="evenodd" clip-rule="evenodd" d="M67.2224 51.8177C64.6813 55.624 55.4148 53.6464 46.5253 47.4006C37.6357 41.1549 32.4893 33.006 35.0304 29.1997C37.5715 25.3934 46.8379 27.3709 55.7274 33.6167C64.617 39.8624 69.7635 48.0112 67.2224 51.8177ZM59.1121 46.1046C57.8565 47.9854 53.275 47.0065 48.8793 43.9179C44.4835 40.8295 41.9379 36.801 43.1935 34.9202C44.4491 33.0393 49.0306 34.0183 53.4264 37.1069C57.8222 40.1953 60.3678 44.2238 59.1121 46.1046Z" fill="white"/>
<path d="M33.0344 32.7714C32.9852 32.5748 32.79 32.4564 32.5984 32.5067C32.4068 32.557 32.2913 32.7573 32.3404 32.9539C32.448 33.3842 32.5743 33.818 32.7188 34.2547C32.7824 34.4468 32.9859 34.5497 33.1732 34.4845C33.3605 34.4192 33.4607 34.2105 33.397 34.0183C33.2582 33.5987 33.1372 33.1827 33.0344 32.7714Z" fill="white"/>
<path d="M34.0268 35.6669C33.9466 35.4814 33.7351 35.3976 33.5543 35.4799C33.3734 35.562 33.2917 35.7791 33.3719 35.9646C35.4606 40.8011 39.6615 45.8439 45.3621 49.8491C45.5252 49.9638 45.7483 49.9209 45.8601 49.7536C45.9717 49.5861 45.9301 49.3574 45.7668 49.2427C40.1531 45.2986 36.0515 40.3552 34.0268 35.6669Z" fill="white"/>
<path d="M56.6405 54.5729C56.4501 54.518 56.2522 54.6318 56.1988 54.8271C56.1452 55.0226 56.2562 55.2255 56.4466 55.2803C57.0978 55.4682 57.743 55.6311 58.3802 55.7686C58.5737 55.8104 58.7636 55.6832 58.8044 55.4847C58.8451 55.2861 58.7212 55.0912 58.5275 55.0494C57.9067 54.9154 57.277 54.7565 56.6405 54.5729Z" fill="white"/>
<defs>
<radialGradient id="paint0_radial_593_2468" cx="0" cy="0" r="1" gradientUnits="userSpaceOnUse" gradientTransform="translate(46 46) rotate(90) scale(45.3543)">
<stop stop-opacity="0"/>
<stop offset="1" stop-color="white"/>
</radialGradient>
<linearGradient id="paint1_linear_593_2468" x1="46" y1="0.645669" x2="46" y2="91.3543" gradientUnits="userSpaceOnUse">
<stop stop-color="#4B4C4D"/>
<stop offset="1" stop-opacity="0"/>
</linearGradient>
<linearGradient id="paint2_linear_593_2468" x1="36.5804" y1="26.0044" x2="43.7885" y2="50.2066" gradientUnits="userSpaceOnUse">
<stop stop-color="#03B8FF"/>
<stop offset="1" stop-color="#FA52A0"/>
</linearGradient>
<linearGradient id="paint3_linear_593_2468" x1="36.5804" y1="26.0042" x2="43.7885" y2="50.2063" gradientUnits="userSpaceOnUse">
<stop stop-color="#03B8FF"/>
<stop offset="1" stop-color="#FA52A0"/>
</linearGradient>
<linearGradient id="paint4_linear_593_2468" x1="36.5804" y1="26.0044" x2="43.7887" y2="50.2066" gradientUnits="userSpaceOnUse">
<stop stop-color="#03B8FF"/>
<stop offset="1" stop-color="#FA52A0"/>
</linearGradient>
</defs>
</svg>
