<svg width="92" height="92" viewBox="0 0 92 92" fill="none" xmlns="http://www.w3.org/2000/svg">
<path d="M46 91C70.8528 91 91 70.8528 91 46C91 21.1472 70.8528 1 46 1C21.1472 1 1 21.1472 1 46C1 70.8528 21.1472 91 46 91Z" fill="url(#paint0_radial_593_2457)" fill-opacity="0.05" stroke="url(#paint1_linear_593_2457)" stroke-width="0.5"/>
<path d="M24.6445 18.9297C27.295 21.8139 29.9455 24.6983 32.596 27.5974C34.8872 30.1099 37.1783 32.6225 39.4695 35.135C40.2033 35.9528 40.2182 36.949 39.5144 37.7964C38.8256 38.6289 37.8821 38.9709 36.849 39.1493C35.037 39.4615 34.8273 39.7886 34.5877 41.6024C34.423 42.7918 34.0188 43.9366 33.6742 45.0962C33.5246 45.5868 33.24 46.0477 33.0453 46.5235C32.4314 48.0845 32.7309 49.2888 34.0187 50.3741C34.5877 50.8499 35.2316 51.2514 35.7857 51.7419C37.0287 52.8123 37.1035 54.3734 35.9504 55.5182C34.438 57.0347 32.4764 57.555 30.3948 58.0011C29.6462 56.5292 28.7775 55.1169 28.2085 53.6153C27.4897 51.6825 27.8042 49.8091 29.1969 48.1887C29.5412 47.7872 29.8408 47.356 30.1703 46.9695C31.7875 45.1111 32.656 42.9702 32.9705 40.5319C33.0753 39.744 33.5845 38.9858 34.0187 38.287C34.3332 37.7665 34.4979 37.3652 34.1685 36.8002C32.9705 34.6296 31.7725 32.4589 30.5746 30.2884C30.4996 30.1396 30.4098 29.991 30.4548 29.7679C31.0987 30.7641 31.7575 31.7602 32.4014 32.7415C33.2699 34.0498 34.1086 35.3581 35.0071 36.6366C35.7708 37.7518 37.0287 37.9301 38.1368 37.1422C38.7058 36.7408 38.7506 36.265 38.2265 35.6257C37.0436 34.1539 35.8456 32.6969 34.6476 31.2399C31.2784 27.181 27.909 23.0926 24.5547 19.0041C24.5846 18.9743 24.6146 18.9594 24.6445 18.9297ZM31.0687 52.1433C31.0987 51.3107 30.5446 50.7755 29.9905 50.9094C29.8257 50.9539 29.5862 51.1621 29.5862 51.3107C29.5563 51.6676 29.6162 52.0244 29.676 52.3813C29.7509 52.8718 30.1403 53.0057 30.4996 52.7975C30.7842 52.6489 30.9638 52.292 31.0687 52.1433Z" fill="#EA347A"/>
<path d="M49.3529 37.6177C51.4345 39.2086 53.8903 39.1788 56.2264 39.6099C57.9483 39.937 59.6107 40.3831 61.0931 41.394C64.4624 43.6837 64.4624 48.1885 62.995 50.4185C62.5905 47.6978 60.4941 46.7314 58.3976 45.78C56.6456 44.9919 54.8487 44.3081 53.1415 43.4308C52.1982 42.9551 51.3146 42.3009 50.5509 41.5725C49.4727 40.5466 49.1732 39.1937 49.3529 37.6177Z" fill="#EA347A"/>
<path d="M58.9216 35.3286C60.0447 36.6071 60.9282 38.0642 61.2577 39.8779C59.8649 37.9303 57.7536 38.0492 55.7469 37.8709C54.8335 37.7965 53.9051 37.7371 52.9916 37.6033C50.7155 37.2613 48.8736 36.176 47.4659 34.3771C46.6722 33.366 45.8636 32.3551 45.055 31.3441C43.4976 29.4114 41.6557 27.8503 39.1101 27.3596C41.2065 27.33 42.9586 28.1774 44.4859 29.5154C44.8753 29.8574 45.3096 30.1993 45.594 30.6157C46.0733 31.3441 46.7022 31.3738 47.4659 31.255C50.4159 30.8386 53.2162 31.3292 55.8518 32.7713C56.4658 33.1133 56.855 33.5296 56.7952 34.2136C56.7203 35.0312 56.5406 35.8489 56.4807 36.6815C56.4658 37.0234 56.5556 37.4844 56.7802 37.6776C56.9449 37.8115 57.5888 37.7222 57.7236 37.514C58.1728 36.8451 58.5023 36.1017 58.9216 35.3286Z" fill="#EA347A"/>
<path d="M58.2629 60.4246C59.5208 58.0756 58.8469 56.0684 57.6039 54.1506C56.8402 52.9612 56.0466 51.7867 55.2978 50.5973C54.5041 49.3335 53.9651 47.9954 54.1149 46.4642C54.1448 46.1222 54.2496 45.7951 54.3394 45.3193C56.8852 46.9845 59.8801 47.8171 61.5422 50.4783C63.5788 53.764 61.9765 58.8486 58.2629 60.4246Z" fill="#EA347A"/>
<path d="M43.1082 58.2538C43.9469 57.3915 44.9951 57.4064 45.699 58.1199C46.3578 58.789 46.253 60.1865 45.4893 60.8853C44.6956 61.6137 43.3629 61.6732 42.3595 61.0339C42.09 60.8556 41.8205 60.6623 41.6109 60.4245C40.1433 58.7741 38.4512 57.5401 36.0403 57.4955C36.1301 57.3171 36.145 57.213 36.205 57.1684C38.5111 55.2655 41.0417 53.9571 44.1415 54.0463C47.3162 54.1503 49.2928 55.9195 49.7421 59.0417C49.8468 59.8298 49.9667 60.6177 50.1914 61.361C50.7155 63.0262 51.7786 63.6209 53.5307 63.3087C53.8151 63.2641 54.0998 63.1897 54.4741 63.1155C52.5124 64.5576 50.2662 64.0371 49.0833 61.9261C48.6639 61.1678 48.3344 60.365 47.9601 59.5769C47.451 58.5214 46.8071 57.6145 45.7139 57.0793C44.5758 56.5292 43.258 56.6927 42.5242 57.4806C42.0001 58.0606 41.8953 58.9229 42.2697 59.6216C42.6291 60.2757 43.6773 60.8109 44.3512 60.6772C44.9951 60.5433 45.4443 60.1716 45.5941 59.5323C45.7139 59.012 45.6839 58.4917 45.1749 58.1348C44.5908 57.7335 44.0667 57.7186 43.1082 58.2538Z" fill="#EA347A"/>
<path d="M43.2432 36.1902C42.7191 36.0416 42.1651 35.997 41.7308 35.7591C39.7242 34.6887 38.8407 32.8303 38.4064 30.734C38.2567 30.0203 38.2716 29.277 38.2117 28.4443C39.6344 28.6526 40.6975 29.1283 41.2516 30.3474C41.5211 30.9272 41.641 31.5665 41.8506 32.1761C42.2849 33.4399 42.734 34.7036 43.2432 36.1902Z" fill="#EA347A"/>
<path d="M52.258 44.4868C54.085 46.8507 53.2314 50.0027 50.5059 51.1326C49.6973 51.4745 48.7838 51.638 47.9003 51.7421C46.1782 51.9503 44.4412 52.0692 42.6443 52.1436C43.5576 51.8314 44.4562 51.4745 45.3846 51.2367C46.4029 50.984 47.4361 50.8501 48.4694 50.6569C51.674 50.0324 53.0217 47.9659 52.2879 44.8139C52.2879 44.7544 52.2879 44.6802 52.258 44.4868Z" fill="#EA347A"/>
<path d="M40.9222 42.7622C40.0088 42.7177 39.6494 42.465 39.5744 41.781C39.4696 40.8146 40.0537 39.7887 40.8773 39.6401C41.3265 39.5658 41.8206 39.5955 42.2699 39.7145C42.9438 39.8929 43.4828 40.6659 43.453 41.2607C43.423 41.9892 42.8539 42.2419 42.285 42.4501C41.8656 42.5987 41.3864 42.6582 40.9222 42.7622ZM41.7159 39.6104C41.1019 39.7887 40.5329 39.8929 40.5778 40.4578C40.6077 40.7254 41.1469 41.0674 41.5062 41.1566C42.0602 41.2905 42.7192 40.7849 42.5544 40.4429C42.4046 40.1011 42.0003 39.878 41.7159 39.6104Z" fill="#EA347A"/>
<path d="M54.8185 30.675C55.3277 30.8533 55.8518 31.0169 56.3459 31.2251C56.87 31.448 57.1396 31.344 57.1545 30.7345C57.1696 30.1695 57.2593 29.6193 57.439 29.0396C57.0797 31.1804 58.3825 32.5185 59.805 33.7823C59.7602 33.8268 59.7152 33.8714 59.6703 33.916C59.2361 33.6187 58.8018 33.3065 58.1728 32.8754C58.023 34.0202 57.9032 34.9866 57.7834 35.953C57.7086 35.9677 57.6487 35.9826 57.5739 35.9975C57.9782 33.5296 57.3791 31.6116 54.6687 30.8533C54.6987 30.7791 54.7586 30.7196 54.8185 30.675Z" fill="#EA347A"/>
<defs>
<radialGradient id="paint0_radial_593_2457" cx="0" cy="0" r="1" gradientUnits="userSpaceOnUse" gradientTransform="translate(46 46) rotate(90) scale(45.3543)">
<stop stop-opacity="0"/>
<stop offset="1" stop-color="white"/>
</radialGradient>
<linearGradient id="paint1_linear_593_2457" x1="46" y1="0.645669" x2="46" y2="91.3543" gradientUnits="userSpaceOnUse">
<stop stop-color="#4B4C4D"/>
<stop offset="1" stop-opacity="0"/>
</linearGradient>
</defs>
</svg>
