<svg width="92" height="92" viewBox="0 0 92 92" fill="none" xmlns="http://www.w3.org/2000/svg">
<path d="M46 91C70.8528 91 91 70.8528 91 46C91 21.1472 70.8528 1 46 1C21.1472 1 1 21.1472 1 46C1 70.8528 21.1472 91 46 91Z" fill="url(#paint0_radial_593_924)" fill-opacity="0.05" stroke="url(#paint1_linear_593_924)" stroke-width="0.5"/>
<path d="M73.4091 56.4598C73.4091 61.339 61.2286 65.3033 46.1821 65.3033C31.1805 65.3468 19 61.3825 19 56.4598C19 52.9748 25.1799 49.9689 34.1361 48.5312C37.7186 49.3154 41.8384 49.751 46.227 49.751C50.6154 49.751 54.7801 49.3154 58.3179 48.5312C67.2741 49.9689 73.4091 53.0183 73.4091 56.4598Z" fill="white"/>
<path d="M46.2268 33.6332C55.3281 33.6332 62.7063 31.2732 62.7063 28.3621C62.7063 25.4509 55.3281 23.0908 46.2268 23.0908C37.1254 23.0908 29.7473 25.4509 29.7473 28.3621C29.7473 31.2732 37.1254 33.6332 46.2268 33.6332Z" fill="white"/>
<path d="M68.0358 40.6465C68.0358 44.5238 58.2735 47.6167 46.2273 47.6167C34.1813 47.6167 24.4189 44.4801 24.4189 40.6465C24.4189 37.9457 29.2105 35.5931 36.2412 34.417C39.1072 35.114 42.5554 35.5061 46.2273 35.5061C49.8994 35.5061 53.3029 35.114 56.1689 34.417C63.1994 35.5931 68.0358 37.902 68.0358 40.6465Z" fill="white"/>
<defs>
<radialGradient id="paint0_radial_593_924" cx="0" cy="0" r="1" gradientUnits="userSpaceOnUse" gradientTransform="translate(46 46) rotate(90) scale(45.3543)">
<stop stop-opacity="0"/>
<stop offset="1" stop-color="white"/>
</radialGradient>
<linearGradient id="paint1_linear_593_924" x1="46" y1="0.645669" x2="46" y2="91.3543" gradientUnits="userSpaceOnUse">
<stop stop-color="#4B4C4D"/>
<stop offset="1" stop-opacity="0"/>
</linearGradient>
</defs>
</svg>
