<svg width="92" height="92" viewBox="0 0 92 92" fill="none" xmlns="http://www.w3.org/2000/svg">
<path d="M46 91C70.8528 91 91 70.8528 91 46C91 21.1472 70.8528 1 46 1C21.1472 1 1 21.1472 1 46C1 70.8528 21.1472 91 46 91Z" fill="url(#paint0_radial_593_2478)" fill-opacity="0.05" stroke="url(#paint1_linear_593_2478)" stroke-width="0.5"/>
<path d="M29.3025 34.6011C29.3553 34.4924 29.4214 34.3837 29.4479 34.2629C29.686 33.3206 30.1489 32.4631 30.5456 31.5691C30.6117 31.4362 30.691 31.3275 30.7705 31.2067C31.1143 30.6993 31.392 30.1316 31.8152 29.6846C32.3574 29.1048 32.86 28.4887 33.4285 27.9331C35.1214 26.2902 37.1184 25.034 39.4327 24.2245C40.5965 23.8139 41.8 23.5239 43.0431 23.3307C44.1144 23.1495 45.1855 23.1615 46.2568 23.1495C47.8834 23.1253 49.4308 23.536 50.9649 23.9468C52.8296 24.43 54.4826 25.3117 56.0167 26.3627C57.088 27.0996 58.027 27.9813 58.8602 28.9477C59.5743 29.7692 60.1826 30.651 60.7116 31.5812C61.201 32.451 61.5448 33.3811 61.8622 34.3232C62.4177 35.9902 62.4706 37.6815 62.4706 39.3967C62.4573 45.7749 62.4706 52.1529 62.4706 58.5311C62.4706 58.7364 62.4441 58.9298 62.5234 59.1351C62.4441 59.3525 62.4838 59.5699 62.4838 59.7994C62.4838 61.8047 62.4838 63.822 62.4838 65.8273C62.4838 66.0084 62.4838 66.1897 62.4838 66.3708C62.4441 67.3735 61.9415 67.9051 60.8438 68.0983C60.7777 68.1104 60.7645 68.1225 60.6984 68.1346C60.5529 68.1587 60.381 68.1466 60.2619 68.1346C59.1247 67.8809 58.6882 66.9869 58.7014 66.1655C58.7278 64.5952 58.7014 63.0248 58.6882 61.4544C58.6882 60.8505 58.4237 60.3794 57.8551 60.041C56.7177 59.3646 55.1439 60.0049 54.9985 61.2491C54.9324 61.7926 54.972 62.3363 54.9588 62.8798C54.9588 63.218 54.9588 63.5683 54.9456 63.9067C54.9059 64.716 54.2976 65.3562 53.4247 65.4891C52.5122 65.622 51.8112 65.2354 51.3616 64.4865C51.2559 64.3052 51.2691 64.0999 51.2691 63.8946C51.2691 63.2059 51.2691 62.5295 51.2559 61.841C51.2559 61.4786 51.2161 61.1162 51.0707 60.7779C50.7268 60.041 49.9201 59.6786 48.9415 59.8236C48.1215 59.9444 47.566 60.5363 47.5263 61.3336C47.5131 61.539 47.4999 61.7323 47.5131 61.9376C47.5924 62.7106 47.1296 63.218 46.4949 63.5804C45.5956 64.0878 43.9954 63.5804 43.8234 62.5295C43.7441 62.0463 43.7838 61.5752 43.6514 61.0921C43.4267 60.2344 42.8448 59.7994 41.866 59.8115C40.8874 59.8236 40.213 60.3068 40.0542 61.1524C39.9485 61.696 40.0146 62.2396 40.0014 62.7832C39.9881 63.2906 40.0278 63.7859 39.9088 64.2811C39.6443 65.3683 38.0441 65.9118 37.0655 65.2475C36.5101 64.873 36.2323 64.3778 36.2323 63.7496C36.2323 62.9403 36.2191 62.1429 36.2059 61.3336C36.1927 60.7418 35.8753 60.3068 35.3198 60.0049C34.1428 59.3525 32.5558 60.1257 32.5292 61.3699C32.516 63.0248 32.4896 64.6918 32.4896 66.3587C32.4896 66.9266 32.2649 67.3493 31.8019 67.7238C31.22 68.2191 29.8976 68.1708 29.3553 67.7117C29.0512 67.4459 28.8263 67.1803 28.8131 66.7816C28.7999 66.54 28.7867 66.2984 28.7867 66.0568C28.7867 56.9245 28.7867 47.7801 28.7734 38.6479C28.7734 37.3191 28.9056 36.0023 29.2893 34.7219C29.3157 34.6856 29.3025 34.6374 29.3025 34.6011ZM48.8357 37.4881C48.8225 38.2008 49.0736 38.8532 49.4573 39.4451C50.0126 40.2907 50.9251 40.7135 51.9567 40.6772C53.4247 40.6168 54.3505 39.7712 54.7604 38.5511C55.1174 37.476 54.8795 36.4855 54.2844 35.5433C53.5833 34.4561 51.8642 34.0213 50.6475 34.6011C49.3514 35.2172 48.9415 36.2681 48.8357 37.4881ZM42.5142 37.4881C42.3686 36.9446 42.3554 36.3165 41.9852 35.797C41.8132 35.5675 41.7074 35.3017 41.4693 35.1085C40.094 33.985 38.3483 34.0213 37.1316 35.3862C36.3249 36.2923 36.2455 37.3673 36.5365 38.4787C36.7083 39.1311 37.1184 39.6383 37.6605 40.0733C38.5069 40.7255 39.7766 40.8705 40.7949 40.3148C41.9455 39.6746 42.3422 38.6719 42.5142 37.4881ZM45.8469 45.1225C46.389 45.1104 46.9444 44.9776 47.4602 44.724C48.0289 44.434 48.3992 44.0112 48.5448 43.4314C48.6505 42.9966 48.3992 42.6824 47.8966 42.6463C47.6322 42.6342 47.3677 42.6463 47.1032 42.6824C46.2039 42.8032 45.3046 42.8153 44.4053 42.6703C44.1011 42.6221 43.797 42.6221 43.4928 42.6824C43.1886 42.7429 43.0431 42.9 43.0299 43.1777C43.0034 43.673 43.2283 44.0837 43.6382 44.3978C44.2598 44.8688 44.9872 45.1346 45.8469 45.1225Z" fill="url(#paint2_linear_593_2478)"/>
<defs>
<radialGradient id="paint0_radial_593_2478" cx="0" cy="0" r="1" gradientUnits="userSpaceOnUse" gradientTransform="translate(46 46) rotate(90) scale(45.3543)">
<stop stop-opacity="0"/>
<stop offset="1" stop-color="white"/>
</radialGradient>
<linearGradient id="paint1_linear_593_2478" x1="46" y1="0.645669" x2="46" y2="91.3543" gradientUnits="userSpaceOnUse">
<stop stop-color="#4B4C4D"/>
<stop offset="1" stop-opacity="0"/>
</linearGradient>
<linearGradient id="paint2_linear_593_2478" x1="28.7867" y1="68.1344" x2="55.3935" y2="27.3471" gradientUnits="userSpaceOnUse">
<stop stop-color="#5DB3C2"/>
<stop offset="1" stop-color="#9F619E"/>
</linearGradient>
</defs>
</svg>
