<svg width="92" height="92" viewBox="0 0 92 92" fill="none" xmlns="http://www.w3.org/2000/svg">
<path d="M46 91C70.8528 91 91 70.8528 91 46C91 21.1472 70.8528 1 46 1C21.1472 1 1 21.1472 1 46C1 70.8528 21.1472 91 46 91Z" fill="url(#paint0_radial_593_919)" fill-opacity="0.05" stroke="url(#paint1_linear_593_919)" stroke-width="0.5"/>
<path fill-rule="evenodd" clip-rule="evenodd" d="M51.6242 34.8626C51.9039 34.5967 52.0437 34.3307 52.1835 33.9318C52.463 33.267 52.6028 32.7353 52.6028 32.0705C52.7428 30.8738 52.463 29.9432 51.7639 29.5443C51.0648 29.2784 50.0862 29.6773 49.3871 30.608V30.4751C49.3871 27.9489 48.1288 25.9546 46.7306 25.9546C45.3324 25.9546 44.074 27.9489 44.074 30.4751C44.074 30.608 44.074 30.8738 44.074 31.0069C43.2351 29.8103 41.9767 29.2784 41.1378 29.6773C40.0193 30.2091 40.0193 32.0705 40.8582 33.7989C40.998 34.0648 41.2776 34.5967 41.5573 34.8626C30.0923 36.591 23.5208 45.366 22.6819 59.858H29.1134C29.8125 47.892 35.6849 41.1114 46.1713 41.3774C55.8188 41.5103 63.229 47.6262 63.0892 59.858H69.5209C69.6607 45.4989 62.2503 37.1228 51.6242 34.8626Z" fill="#FEF653"/>
<path fill-rule="evenodd" clip-rule="evenodd" d="M40.8582 48.4238C40.0193 48.4238 39.46 49.0886 39.46 49.8862V53.609C39.46 54.4067 40.0193 55.0715 40.8582 55.0715C41.6971 55.0715 42.2564 54.4067 42.2564 53.609V49.8862C42.2564 49.0886 41.5573 48.4238 40.8582 48.4238Z" fill="#FEF653"/>
<path fill-rule="evenodd" clip-rule="evenodd" d="M52.0437 48.4238C51.2048 48.4238 50.6455 49.0886 50.6455 49.8862V53.609C50.6455 54.4067 51.2048 55.0715 52.0437 55.0715C52.8826 55.0715 53.4419 54.4067 53.4419 53.609V49.8862C53.4419 49.0886 52.7428 48.4238 52.0437 48.4238Z" fill="#FEF653"/>
<defs>
<radialGradient id="paint0_radial_593_919" cx="0" cy="0" r="1" gradientUnits="userSpaceOnUse" gradientTransform="translate(46 46) rotate(90) scale(45.3543)">
<stop stop-opacity="0"/>
<stop offset="1" stop-color="white"/>
</radialGradient>
<linearGradient id="paint1_linear_593_919" x1="46" y1="0.645669" x2="46" y2="91.3543" gradientUnits="userSpaceOnUse">
<stop stop-color="#4B4C4D"/>
<stop offset="1" stop-opacity="0"/>
</linearGradient>
</defs>
</svg>
