<svg width="92" height="92" viewBox="0 0 92 92" fill="none" xmlns="http://www.w3.org/2000/svg">
<path d="M46 91C70.8528 91 91 70.8528 91 46C91 21.1472 70.8528 1 46 1C21.1472 1 1 21.1472 1 46C1 70.8528 21.1472 91 46 91Z" fill="url(#paint0_radial_593_2452)" fill-opacity="0.05" stroke="url(#paint1_linear_593_2452)" stroke-width="0.5"/>
<path d="M65.0098 53.295C65.0098 59.7549 56.3594 65.0285 45.7127 65.0285C35.0661 65.0285 26.4155 59.7549 26.4155 53.295V50.2627H65.1429V53.295H65.0098Z" fill="#FEDC90"/>
<path fill-rule="evenodd" clip-rule="evenodd" d="M33.8682 30.8827C33.336 28.5097 35.1991 26.2686 37.5947 26.2686C39.724 26.2686 41.454 27.9824 41.454 30.0917V38.7929C42.7848 38.6611 44.1157 38.5292 45.5796 38.5292C46.9105 38.5292 48.2412 38.6611 49.5721 38.7929V30.0917C49.5721 27.9824 51.3022 26.2686 53.4316 26.2686C55.8271 26.2686 57.6902 28.5097 57.291 30.8827L55.5609 40.3749C61.1505 42.4843 65.0098 46.1757 65.0098 50.3945C65.0098 56.8545 56.3594 62.1279 45.7127 62.1279C35.0661 62.1279 26.4155 56.8545 26.4155 50.3945C26.4155 46.1757 30.1419 42.4843 35.7314 40.3749L33.8682 30.8827Z" fill="#D1884F"/>
<path fill-rule="evenodd" clip-rule="evenodd" d="M32.1379 31.1465C31.4724 27.7188 34.134 24.5547 37.5943 24.5547C40.6553 24.5547 43.1838 27.0595 43.1838 30.0918V36.9473C43.5831 36.9473 43.9823 36.9144 44.3815 36.8813C44.7808 36.8484 45.18 36.8155 45.5792 36.8155C46.3778 36.8155 47.0431 36.8155 47.8418 36.9473V30.0918C47.8418 27.0595 50.3703 24.5547 53.4312 24.5547C56.8914 24.5547 59.553 27.7188 59.0207 31.1465L57.5568 39.1884C62.747 41.4297 66.7395 45.3848 66.7395 50.2626V53.2949C66.7395 57.3819 64.0779 60.8095 60.2184 63.0508C56.359 65.4238 51.3018 66.7422 45.5792 66.7422C39.8566 66.7422 34.7995 65.4238 30.94 63.0508C27.2138 60.8095 24.552 57.3819 24.552 53.2949V50.2626C24.552 45.3848 28.4115 41.4297 33.6018 39.1884L32.1379 31.1465ZM55.5605 40.2431L57.2906 30.7509C57.6899 28.3779 55.9598 26.1367 53.4312 26.1367C51.3018 26.1367 49.5717 27.8507 49.5717 29.96V38.6611C49.0395 38.5293 48.374 38.5293 47.8418 38.5293C47.4424 38.5293 47.0765 38.4964 46.7104 38.4633C46.3445 38.4304 45.9785 38.3975 45.5792 38.3975C44.7808 38.3975 43.9823 38.3975 43.1838 38.5293C42.9176 38.5293 42.6181 38.5622 42.3187 38.5953C42.0193 38.6282 41.7198 38.6611 41.4537 38.6611V30.0918C41.4537 27.9824 39.7236 26.2686 37.5943 26.2686C35.1987 26.2686 33.3356 28.5098 33.868 30.8828L35.598 40.375C30.0085 42.4844 26.2821 46.1758 26.2821 50.3945V53.4267C26.2821 59.8867 34.9327 65.1602 45.5792 65.1602C56.226 65.1602 64.8764 59.8867 64.8764 53.4267V50.3945C65.0095 46.0439 61.2831 42.3525 55.5605 40.2431ZM40.2559 49.4718C40.2559 51.1855 39.3242 52.6357 38.1265 52.6357C36.9287 52.6357 35.9972 51.1855 35.9972 49.4718C35.9972 47.7578 36.9287 46.3077 38.1265 46.3077C39.3242 46.3077 40.2559 47.7578 40.2559 49.4718ZM52.8988 52.6357C54.0966 52.6357 55.0281 51.1855 55.0281 49.4718C55.0281 47.7578 54.0966 46.3077 52.8988 46.3077C51.7011 46.3077 50.7694 47.7578 50.7694 49.4718C50.7694 51.1855 51.7011 52.6357 52.8988 52.6357Z" fill="#633001"/>
<defs>
<radialGradient id="paint0_radial_593_2452" cx="0" cy="0" r="1" gradientUnits="userSpaceOnUse" gradientTransform="translate(46 46) rotate(90) scale(45.3543)">
<stop stop-opacity="0"/>
<stop offset="1" stop-color="white"/>
</radialGradient>
<linearGradient id="paint1_linear_593_2452" x1="46" y1="0.645669" x2="46" y2="91.3543" gradientUnits="userSpaceOnUse">
<stop stop-color="#4B4C4D"/>
<stop offset="1" stop-opacity="0"/>
</linearGradient>
</defs>
</svg>
