<svg width="213" height="117" viewBox="0 0 213 117" fill="none" xmlns="http://www.w3.org/2000/svg">
<path d="M179.774 3.94436C178.688 3.96133 177.654 4.40848 176.897 5.18766C176.14 5.96684 175.724 7.01439 175.738 8.10041C175.738 10.6527 174.502 12.3344 172.103 13.866C169.704 15.3977 166.208 16.3004 163.438 16.3004C162.895 16.2927 162.356 16.3931 161.852 16.5957C161.347 16.7983 160.889 17.0991 160.502 17.4806C160.115 17.862 159.807 18.3166 159.598 18.8179C159.388 19.3191 159.28 19.8571 159.28 20.4004C159.28 20.9438 159.388 21.4817 159.598 21.983C159.807 22.4842 160.115 22.9388 160.502 23.3203C160.889 23.7017 161.347 24.0025 161.852 24.2051C162.356 24.4077 162.895 24.5081 163.438 24.5004C167.783 24.5004 172.493 23.3531 176.515 20.7848C180.538 18.2164 183.938 13.7482 183.938 8.10041C183.946 7.55187 183.843 7.00741 183.637 6.49925C183.43 5.9911 183.123 5.52959 182.735 5.14205C182.347 4.75451 181.885 4.44883 181.376 4.2431C180.868 4.03738 180.323 3.93579 179.774 3.94436ZM152.338 3.00041C145.505 3.00041 140.93 4.76431 138.093 6.89221C137.034 7.68634 136.448 8.46703 135.85 9.22248C134.54 9.09661 133.953 8.82739 131.678 9.20646C127.802 9.85256 122.693 12.122 119.971 17.5666C117.249 23.0112 119.586 18.5727 119.548 19.1098L119.748 20.6974C119.748 20.6974 120.187 21.6807 120.54 22.0875C120.893 22.4944 121.323 22.8278 121.804 23.0686C122.286 23.3095 122.81 23.4531 123.348 23.4912C123.885 23.5294 124.424 23.4613 124.935 23.291C125.446 23.1206 125.918 22.8513 126.325 22.4984C126.732 22.1455 127.065 21.7159 127.306 21.2342C128.684 18.4788 130.75 17.6733 133.024 17.2944C135.297 16.9154 137.188 17.2703 137.188 17.2703C138.167 17.466 139.185 17.2973 140.049 16.796C140.913 16.2947 141.564 15.4952 141.88 14.5477C141.88 14.5477 141.9 14.5577 141.912 14.5637C142.462 14.8238 143.009 13.4586 143.009 13.4586C143.009 13.4586 146.872 11.2004 152.338 11.2004C152.882 11.2081 153.421 11.1077 153.925 10.9051C154.43 10.7025 154.888 10.4017 155.275 10.0203C155.662 9.63878 155.969 9.18421 156.179 8.68295C156.389 8.1817 156.497 7.64376 156.497 7.10041C156.497 6.55706 156.389 6.01912 156.179 5.51787C155.969 5.01661 155.662 4.56204 155.275 4.18055C154.888 3.79907 154.43 3.49829 153.925 3.2957C153.421 3.0931 152.882 2.99273 152.338 3.00041ZM185.138 27.6004L164.638 44.0004V56.3004H131.838L129.788 31.7004H117.488L115.438 56.3004H107.238V105.5C106.695 105.493 106.156 105.593 105.652 105.796C105.147 105.998 104.689 106.299 104.302 106.681C103.915 107.062 103.607 107.517 103.398 108.018C103.188 108.519 103.08 109.057 103.08 109.6C103.08 110.144 103.188 110.682 103.398 111.183C103.607 111.684 103.915 112.139 104.302 112.52C104.689 112.902 105.147 113.203 105.652 113.405C106.156 113.608 106.695 113.708 107.238 113.7H205.638C206.182 113.708 206.721 113.608 207.225 113.405C207.73 113.203 208.188 112.902 208.575 112.52C208.962 112.139 209.269 111.684 209.479 111.183C209.689 110.682 209.797 110.144 209.797 109.6C209.797 109.057 209.689 108.519 209.479 108.018C209.269 107.517 208.962 107.062 208.575 106.681C208.188 106.299 207.73 105.998 207.225 105.796C206.721 105.593 206.182 105.493 205.638 105.5V44.0004L185.138 27.6004ZM172.838 48.1004H181.038V56.3004H172.838V48.1004ZM189.238 48.1004H197.438V56.3004H189.238V48.1004ZM115.438 64.5004H123.638V72.7004H115.438V64.5004ZM131.838 64.5004H140.038V72.7004H131.838V64.5004ZM172.838 64.5004H181.038V72.7004H172.838V64.5004ZM189.238 64.5004H197.438V72.7004H189.238V64.5004ZM115.438 80.9004H123.638V89.1004H115.438V80.9004ZM131.838 80.9004H140.038V89.1004H131.838V80.9004ZM172.838 80.9004H181.038V89.1004H172.838V80.9004ZM189.238 80.9004H197.438V89.1004H189.238V80.9004ZM115.438 97.3004H123.638V105.5H115.438V97.3004ZM131.838 97.3004H140.038V105.5H131.838V97.3004ZM172.838 97.3004H181.038V105.5H172.838V97.3004ZM189.238 97.3004H197.438V105.5H189.238V97.3004Z" fill="white"/>
<path fill-rule="evenodd" clip-rule="evenodd" d="M179.728 0.944721C180.677 0.929886 181.621 1.1058 182.501 1.46204C183.382 1.81829 184.182 2.34762 184.854 3.01869C185.527 3.68975 186.058 4.48891 186.416 5.36887C186.771 6.24187 186.948 7.17676 186.938 8.11901C186.931 15.0469 182.761 20.3562 178.13 23.3134C173.572 26.2232 168.295 27.4971 163.457 27.5004C162.525 27.5105 161.599 27.3367 160.733 26.9888C159.86 26.638 159.065 26.1171 158.395 25.4565C157.725 24.7959 157.193 24.0088 156.83 23.1408C156.467 22.2728 156.28 21.3413 156.28 20.4004C156.28 19.4595 156.467 18.528 156.83 17.66C157.193 16.792 157.725 16.0049 158.395 15.3443C159.065 14.6837 159.86 14.1629 160.733 13.812C161.598 13.4644 162.523 13.2906 163.455 13.3004C165.72 13.2966 168.632 12.5228 170.489 11.3375C171.485 10.7014 172.016 10.172 172.31 9.72355C172.568 9.32831 172.736 8.85551 172.738 8.11564C172.72 6.24428 173.44 4.44074 174.745 3.09767C176.055 1.74841 177.847 0.974117 179.728 0.944721ZM175.738 8.10041C175.724 7.01439 176.14 5.96684 176.897 5.18766C177.654 4.40848 178.688 3.96118 179.774 3.94421C180.323 3.93564 180.868 4.03738 181.376 4.2431C181.885 4.44883 182.347 4.75451 182.735 5.14205C183.123 5.52958 183.43 5.9911 183.637 6.49925C183.843 7.00741 183.946 7.55187 183.938 8.10041C183.938 13.7482 180.538 18.2164 176.515 20.7848C172.493 23.3531 167.783 24.5004 163.438 24.5004C162.895 24.5081 162.356 24.4077 161.852 24.2051C161.347 24.0025 160.889 23.7017 160.502 23.3203C160.115 22.9388 159.807 22.4842 159.598 21.983C159.388 21.4817 159.28 20.9438 159.28 20.4004C159.28 19.8571 159.388 19.3191 159.598 18.8179C159.807 18.3166 160.115 17.862 160.502 17.4806C160.889 17.0991 161.347 16.7983 161.852 16.5957C162.356 16.3931 162.895 16.2927 163.438 16.3004C166.208 16.3004 169.704 15.3977 172.103 13.866C174.502 12.3344 175.738 10.6527 175.738 8.10041ZM120.685 16.2931C123.521 11.7615 128.119 9.7997 131.678 9.20646C133.462 8.90921 134.208 9.0106 135.079 9.12891C135.319 9.16147 135.568 9.19531 135.85 9.22248C135.889 9.17377 135.927 9.12496 135.966 9.07605C136.526 8.36631 137.102 7.63514 138.093 6.89221C140.93 4.76431 145.505 3.00041 152.338 3.00041C152.882 2.99273 153.421 3.0931 153.925 3.2957C154.43 3.49829 154.888 3.79907 155.275 4.18055C155.662 4.56204 155.969 5.01661 156.179 5.51787C156.389 6.01912 156.497 6.55706 156.497 7.10041C156.497 7.64376 156.389 8.1817 156.179 8.68295C155.969 9.18421 155.662 9.63878 155.275 10.0203C154.888 10.4017 154.43 10.7025 153.925 10.9051C153.421 11.1077 152.882 11.2081 152.338 11.2004C146.872 11.2004 143.009 13.4586 143.009 13.4586C143.009 13.4586 142.532 14.6484 142.022 14.5949C141.985 14.5911 141.949 14.581 141.912 14.5637C141.9 14.5577 141.88 14.5477 141.88 14.5477C141.744 14.9545 141.547 15.334 141.297 15.6744C140.965 16.1268 140.542 16.5099 140.049 16.796C139.185 17.2973 138.167 17.466 137.188 17.2703C137.188 17.2703 135.297 16.9154 133.024 17.2944C130.75 17.6733 128.684 18.4788 127.306 21.2342C127.065 21.7159 126.732 22.1455 126.325 22.4984C125.918 22.8513 125.446 23.1206 124.935 23.291C124.424 23.4613 123.885 23.5294 123.348 23.4912C122.81 23.4531 122.286 23.3095 121.804 23.0686C121.445 22.889 121.115 22.6578 120.824 22.3831C120.725 22.2896 120.63 22.1909 120.54 22.0875C120.5 22.0413 120.459 21.9876 120.417 21.9288C120.093 21.4699 119.748 20.6974 119.748 20.6974L119.548 19.1098C119.553 19.0459 119.523 19.0525 119.473 19.1045C119.468 19.1096 119.463 19.1152 119.458 19.1212C119.338 19.2554 119.121 19.599 118.942 19.8822C118.614 20.403 118.414 20.7197 119.182 19.156C119.193 19.1331 119.204 19.1099 119.216 19.0862C119.403 18.7062 119.644 18.2212 119.949 17.6095C119.957 17.5953 119.964 17.581 119.971 17.5666C120.194 17.1211 120.432 16.6969 120.685 16.2931ZM117.85 21.5456C118.256 21.3643 118.857 21.0956 119.748 20.6974L117.85 21.5456C117.85 21.5456 117.85 21.5456 117.85 21.5456ZM117.627 23.1282C117.296 23.0083 116.963 22.8217 116.656 22.5476C116.008 21.9706 115.796 21.2904 115.722 20.9558C115.643 20.6 115.647 20.3088 115.654 20.1614C115.662 19.9959 115.682 19.8618 115.697 19.7769C115.726 19.6102 115.763 19.4799 115.783 19.4161C115.823 19.2819 115.866 19.1724 115.887 19.1198C115.934 19.0016 115.988 18.8801 116.035 18.7778C116.225 18.3652 116.613 17.5734 117.288 16.225C120.574 9.65194 126.705 6.99395 131.185 6.24728C132.746 5.98716 133.785 5.98431 134.583 6.04957C135.032 5.55647 135.587 5.02133 136.293 4.49221C139.742 1.90494 144.979 0.00363834 152.32 0.000414202C153.253 -0.00966113 154.178 0.164163 155.044 0.512037C155.917 0.862861 156.712 1.3837 157.382 2.04429C158.052 2.70488 158.584 3.49204 158.947 4.36003C159.31 5.228 159.497 6.15951 159.497 7.10041C159.497 8.04131 159.31 8.97282 158.947 9.84079C158.584 10.7088 158.052 11.4959 157.382 12.1565C156.712 12.8171 155.917 13.338 155.044 13.6888C154.179 14.0365 153.253 14.2103 152.321 14.2004C150.002 14.2028 148.01 14.6835 146.596 15.1678C146.021 15.3646 145.549 15.5592 145.2 15.7166C145.188 15.7347 145.176 15.7529 145.164 15.7711C144.989 16.0342 144.627 16.5387 144.054 16.9461C144.053 16.9463 144.053 16.9465 144.053 16.9467C143.441 17.9498 142.585 18.7929 141.554 19.3909C140.07 20.252 138.325 20.5463 136.641 20.2203L136.629 20.2183C136.601 20.2139 136.549 20.2059 136.474 20.1963C136.325 20.1771 136.091 20.152 135.795 20.1358C135.193 20.1029 134.381 20.1095 133.517 20.2535C132.554 20.414 131.897 20.6261 131.391 20.9346C130.932 21.2142 130.444 21.6658 129.99 22.5754C129.573 23.4096 128.996 24.1534 128.291 24.7645C127.587 25.3756 126.769 25.842 125.884 26.1369C124.999 26.4319 124.065 26.5497 123.135 26.4837C122.205 26.4176 121.297 26.1689 120.463 25.7519C119.629 25.3348 118.885 24.7576 118.274 24.0531C118.019 23.7594 117.797 23.4184 117.627 23.1282ZM185.138 23.7585L208.638 42.5585V103.138C209.396 103.483 210.088 103.959 210.682 104.544C211.352 105.205 211.884 105.992 212.247 106.86C212.61 107.728 212.797 108.66 212.797 109.6C212.797 110.541 212.61 111.473 212.247 112.341C211.884 113.209 211.352 113.996 210.682 114.657C210.012 115.317 209.217 115.838 208.344 116.189C207.478 116.537 206.553 116.71 205.62 116.7H107.257C106.324 116.71 105.399 116.537 104.533 116.189C103.66 115.838 102.865 115.317 102.195 114.657C101.525 113.996 100.993 113.209 100.63 112.341C100.267 111.473 100.08 110.541 100.08 109.6C100.08 108.66 100.267 107.728 100.63 106.86C100.993 105.992 101.525 105.205 102.195 104.544C102.789 103.959 103.481 103.483 104.238 103.138V53.3004H112.678L114.728 28.7004H132.549L134.599 53.3004H161.638V42.5585L185.138 23.7585ZM131.838 56.3004L129.788 31.7004H117.488L115.438 56.3004H107.238V105.5C107.2 105.5 107.161 105.5 107.123 105.5C106.619 105.508 106.12 105.608 105.652 105.796C105.147 105.998 104.689 106.299 104.302 106.681C103.915 107.062 103.607 107.517 103.398 108.018C103.188 108.519 103.08 109.057 103.08 109.6C103.08 110.144 103.188 110.682 103.398 111.183C103.607 111.684 103.915 112.139 104.302 112.52C104.689 112.902 105.147 113.203 105.652 113.405C106.156 113.608 106.695 113.708 107.238 113.7H205.638C206.182 113.708 206.721 113.608 207.225 113.405C207.73 113.203 208.188 112.902 208.575 112.52C208.962 112.139 209.269 111.684 209.479 111.183C209.689 110.682 209.797 110.144 209.797 109.6C209.797 109.057 209.689 108.519 209.479 108.018C209.269 107.517 208.962 107.062 208.575 106.681C208.188 106.299 207.73 105.998 207.225 105.796C206.757 105.608 206.258 105.508 205.754 105.5C205.716 105.5 205.677 105.5 205.638 105.5V44.0004L185.138 27.6004L164.638 44.0004V56.3004H131.838ZM178.038 51.1004H175.838V53.3004H178.038V51.1004ZM194.438 51.1004H192.238V53.3004H194.438V51.1004ZM120.638 67.5004V69.7004H118.438V67.5004H120.638ZM137.038 67.5004H134.838V69.7004H137.038V67.5004ZM178.038 67.5004H175.838V69.7004H178.038V67.5004ZM194.438 67.5004H192.238V69.7004H194.438V67.5004ZM120.638 83.9004V86.1004H118.438V83.9004H120.638ZM137.038 83.9004H134.838V86.1004H137.038V83.9004ZM178.038 83.9004H175.838V86.1004H178.038V83.9004ZM194.438 83.9004H192.238V86.1004H194.438V83.9004ZM120.638 100.3V102.5H118.438V100.3H120.638ZM137.038 100.3H134.838V102.5H137.038V100.3ZM178.038 100.3H175.838V102.5H178.038V100.3ZM194.438 100.3H192.238V102.5H194.438V100.3ZM172.838 48.1004V56.3004H181.038V48.1004H172.838ZM189.238 48.1004V56.3004H197.438V48.1004H189.238ZM115.438 64.5004V72.7004H123.638V64.5004H115.438ZM131.838 64.5004V72.7004H140.038V64.5004H131.838ZM172.838 64.5004V72.7004H181.038V64.5004H172.838ZM189.238 64.5004V72.7004H197.438V64.5004H189.238ZM115.438 80.9004V89.1004H123.638V80.9004H115.438ZM131.838 80.9004V89.1004H140.038V80.9004H131.838ZM172.838 80.9004V89.1004H181.038V80.9004H172.838ZM189.238 80.9004V89.1004H197.438V80.9004H189.238ZM115.438 97.3004V105.5H123.638V97.3004H115.438ZM131.838 97.3004V105.5H140.038V97.3004H131.838ZM172.838 97.3004V105.5H181.038V97.3004H172.838ZM189.238 97.3004V105.5H197.438V97.3004H189.238Z" fill="#C03637"/>
<path d="M15.68 4C14.4462 4 13.44 5.00625 13.44 6.24V80.16H73.92C77.6212 80.16 80.64 83.1787 80.64 86.88C80.64 90.5375 77.6912 93.5212 74.06 93.6C73.3425 94.0025 71.68 96.47 71.68 100.32C71.68 104.564 74.4887 110.908 78.96 111.38C82.67 111.38 85.3125 111.38 86.73 111.38C91.21 107.679 94.08 102.088 94.08 95.84V6.24C94.08 5.00625 93.0825 4 91.84 4H15.68ZM11.2 84.64C5.0225 84.64 0 91.675 0 100.32C0 108.965 5.0225 116 11.2 116H73.92C75.1625 116 76.7637 115.799 77.91 115.58C70.98 115.58 67.2 106.287 67.2 100.32C67.2 94.3525 70.3412 89.12 73.92 89.12C75.1625 89.12 76.16 88.1225 76.16 86.88C76.16 85.6375 75.1625 84.64 73.92 84.64H11.2Z" fill="white"/>
<path fill-rule="evenodd" clip-rule="evenodd" d="M72.1035 113C68.8977 109.812 67.2 104.319 67.2 100.32C67.2 94.3525 70.3412 89.12 73.92 89.12C75.1625 89.12 76.16 88.1225 76.16 86.88C76.16 85.6375 75.1625 84.64 73.92 84.64H11.2C5.0225 84.64 0 91.675 0 100.32C0 108.965 5.0225 116 11.2 116H73.92C75.1625 116 76.7637 115.799 77.91 115.58C76.4353 115.58 75.1033 115.159 73.92 114.439C73.2692 114.043 72.6633 113.557 72.1035 113ZM68.205 113C67.9059 112.577 67.6285 112.146 67.3726 111.713C65.2837 108.173 64.2 103.83 64.2 100.32C64.2 96.8459 65.1068 93.5026 66.6456 90.9385C67.3731 89.7263 68.3472 88.5349 69.5478 87.64H11.2C9.33453 87.64 7.35561 88.6981 5.72477 90.9817C4.09903 93.258 3 96.5526 3 100.32C3 104.087 4.09903 107.382 5.72477 109.658C7.35561 111.942 9.33453 113 11.2 113H68.205ZM16.44 7V77.16H73.92C79.2781 77.16 83.64 81.5219 83.64 86.88C83.64 91.691 80.1262 95.6842 75.5478 96.4638C75.4838 96.5816 75.4158 96.7187 75.3469 96.8754C75.0024 97.6582 74.68 98.8272 74.68 100.32C74.68 101.879 75.2249 104.011 76.2387 105.76C77.2413 107.489 78.3199 108.237 79.1556 108.38H85.6022C88.9741 105.237 91.08 100.776 91.08 95.84V7H16.44ZM86.73 111.38H78.96C74.4887 110.908 71.68 104.564 71.68 100.32C71.68 96.47 73.3425 94.0025 74.06 93.6C77.6912 93.5212 80.64 90.5375 80.64 86.88C80.64 83.1787 77.6212 80.16 73.92 80.16H13.44V6.24C13.44 5.00625 14.4462 4 15.68 4H91.84C93.0825 4 94.08 5.00625 94.08 6.24V95.84C94.08 102.088 91.21 107.679 86.73 111.38ZM75.8873 95.9519C75.8876 95.9523 75.8805 95.9605 75.8658 95.9749C75.8797 95.9586 75.887 95.9515 75.8873 95.9519Z" fill="#C03637"/>
</svg>
