<svg width="241" height="137" viewBox="0 0 241 137" fill="none" xmlns="http://www.w3.org/2000/svg">
<path d="M24.3278 7.50684C24.3278 7.50684 36.8561 15.1051 50.2805 27.8367L12.5071 65.7167C12.088 66.1202 11.7534 66.6035 11.5229 67.1383C11.2925 67.6731 11.1707 68.2486 11.1648 68.8312C11.1589 69.4138 11.2689 69.9917 11.4885 70.5311C11.7081 71.0705 12.0328 71.5605 12.4436 71.9725C12.8545 72.3845 13.3431 72.7101 13.881 72.9303C14.4189 73.1505 14.9951 73.2609 15.5761 73.255C16.157 73.2491 16.731 73.127 17.2642 72.8958C17.7975 72.6647 18.2795 72.3291 18.6819 71.9089L56.4552 34.0288C69.1509 47.4911 76.7278 60.0548 76.7278 60.0548C76.7278 60.0548 76.7065 41.0793 64.3698 26.0919L66.7152 23.7399C67.3462 23.1248 67.7772 22.3329 67.9517 21.468C68.1261 20.603 68.036 19.7054 67.693 18.8927C67.3501 18.0801 66.7703 17.3902 66.0297 16.9137C65.289 16.4371 64.4221 16.1961 63.5425 16.2221C62.4081 16.256 61.3313 16.7314 60.5404 17.5477L58.1951 19.8997C43.2499 7.52823 24.3278 7.50684 24.3278 7.50684ZM96.0659 62.5571C94.948 62.5571 93.83 62.9839 92.9785 63.84C92.127 64.6961 79.8785 76.977 79.8785 76.977C79.0576 77.7958 78.5992 78.9126 78.5992 80.073V119.484H82.9659C85.3763 119.484 87.3326 117.522 87.3326 115.105V82.6389L96.0659 73.8809V115.105C96.0659 117.522 98.0222 119.484 100.433 119.484H113.533C113.533 119.484 113.533 81.2335 113.533 80.073C113.533 78.9126 113.074 77.7958 112.253 76.977C111.432 76.1581 100.005 64.6961 99.1533 63.84C98.3018 62.9839 97.1838 62.5571 96.0659 62.5571ZM43.5721 84.358C41.1617 84.358 39.2054 86.3197 39.2054 88.737V107.322C39.2054 108.482 39.6638 109.599 40.4847 110.418L49.5336 119.484H69.8659V115.105L48.0326 93.21H56.7659L69.8659 106.347V90.3363L65.1922 85.6409C64.3713 84.8176 63.262 84.358 62.1048 84.358H43.5721Z" fill="white"/>
<path fill-rule="evenodd" clip-rule="evenodd" d="M24.3312 4.37913L24.3277 7.50698C24.3277 7.50698 26.4105 8.77019 29.7877 11.1295C34.2205 14.2263 40.8832 19.2116 47.9927 25.7075C48.7509 26.4002 49.5142 27.1102 50.2804 27.8368L12.507 65.7168C12.0879 66.1203 11.7534 66.6036 11.5229 67.1384C11.2924 67.6732 11.1706 68.2488 11.1647 68.8314C11.1588 69.4139 11.2688 69.9919 11.4884 70.5312C11.708 71.0706 12.0327 71.5607 12.4436 71.9726C12.8544 72.3846 13.343 72.7103 13.8809 72.9305C14.4188 73.1507 14.995 73.2611 15.576 73.2551C16.1569 73.2492 16.7309 73.1271 17.2642 72.8959C17.7974 72.6648 18.2794 72.3293 18.6818 71.909L56.4551 34.029C57.1797 34.7973 57.8877 35.5628 58.5785 36.3231C65.056 43.4527 70.0273 50.1343 73.1154 54.5795C75.4681 57.9662 76.7277 60.0549 76.7277 60.0549L79.8468 60.0514L79.8594 71.2918L74.0593 61.6744L74.0588 61.6736L74.0435 61.6485C74.0311 61.6281 74.0114 61.5958 73.9845 61.5521C73.9307 61.4646 73.8481 61.331 73.7372 61.1542C73.5154 60.8006 73.1807 60.2743 72.738 59.598C71.8524 58.2451 70.5354 56.2934 68.8256 53.9241C65.8123 49.7488 61.5903 44.2925 56.3705 38.5373L20.9068 74.1011C20.2221 74.8095 19.4048 75.3756 18.5016 75.7671C17.5874 76.1633 16.6036 76.3727 15.6077 76.3828C14.6119 76.393 13.624 76.2038 12.702 75.8263C11.7799 75.4488 10.9423 74.8905 10.2381 74.1844C9.53384 73.4782 8.97721 72.6382 8.60078 71.7135C8.22434 70.7889 8.03567 69.7982 8.0458 68.7995C8.05593 67.8009 8.26467 66.8143 8.65978 65.8975C9.05015 64.9917 9.61469 64.1722 10.321 63.4856L45.7848 27.9216C40.0458 22.6871 34.6048 18.4533 30.4412 15.4315C28.0787 13.7168 26.1325 12.3961 24.7834 11.5079C24.109 11.064 23.5841 10.7284 23.2315 10.5059C23.0553 10.3947 22.9221 10.3119 22.8348 10.2579C22.7911 10.2309 22.759 10.2112 22.7387 10.1987L22.7171 10.1856L22.7136 10.1834L22.7131 10.1831L13.1224 4.36646L24.3312 4.37913ZM76.0915 53.3946C76.7248 57.4442 76.7277 60.0549 76.7277 60.0549C79.8468 60.0514 79.8468 60.0492 79.8468 60.0492L79.8468 60.0465L79.8467 60.0399L79.8466 60.0215L79.8461 59.9641C79.8456 59.9167 79.8446 59.8513 79.8427 59.7685C79.8391 59.603 79.832 59.368 79.8186 59.0692C79.7917 58.4718 79.7391 57.6182 79.6361 56.5538C79.4304 54.4272 79.0224 51.4466 78.2116 47.9796C76.7459 41.7116 73.9361 33.7363 68.5229 26.3506L68.9071 25.9653C69.9789 24.9135 70.7112 23.5628 71.0087 22.0883C71.3078 20.6057 71.1533 19.0669 70.5653 17.6738C69.9774 16.2807 68.9836 15.0982 67.714 14.2813C66.4444 13.4644 64.9583 13.0511 63.4505 13.0957L63.4495 13.0957C61.5134 13.1536 59.6753 13.9618 58.3212 15.3499L57.9371 15.735C50.5722 10.3065 42.6194 7.48875 36.369 6.01887C32.9118 5.20585 29.9396 4.79671 27.819 4.59039C26.7576 4.48713 25.9064 4.43436 25.3106 4.40739C25.0127 4.3939 24.7784 4.38685 24.6133 4.38316C24.5308 4.38132 24.4656 4.38032 24.4183 4.37977L24.361 4.37925L24.3427 4.37916L24.3334 4.37913C24.3334 4.37913 24.3312 4.37913 24.3277 7.50698C24.3277 7.50698 26.9311 7.50992 30.9693 8.14499C37.8179 9.22205 48.7933 12.1173 58.195 19.8999L60.5403 17.5479C61.3312 16.7316 62.408 16.2561 63.5424 16.2222C64.422 16.1962 65.2889 16.4373 66.0296 16.9138C66.7702 17.3904 67.35 18.0802 67.6929 18.8929C68.0359 19.7056 68.126 20.6032 67.9516 21.4681C67.7771 22.3331 67.3461 23.125 66.7151 23.7401L64.3697 26.0921C72.1304 35.5202 75.0175 46.5267 76.0915 53.3946ZM79.8784 76.9771C79.8784 76.9771 92.1269 64.6962 92.9784 63.8401C93.8299 62.984 94.9479 62.5572 96.0658 62.5572C97.1837 62.5572 98.3017 62.984 99.1532 63.8401C100.005 64.6962 111.432 76.1582 112.253 76.9771C113.074 77.796 113.532 78.9128 113.532 80.0732V119.484H100.432C98.0221 119.484 96.0658 117.522 96.0658 115.105V73.881L87.3325 82.639V115.105C87.3325 117.522 85.3762 119.484 82.9658 119.484H78.5991V80.0732C78.5991 78.9128 79.0575 77.796 79.8784 76.9771ZM90.4515 83.9346V115.105C90.4515 119.25 87.0988 122.612 82.9658 122.612H75.4801V80.0732C75.4801 78.0896 76.2627 76.1732 77.6767 74.7616L77.6788 74.7595L77.682 74.7563L83.9037 68.5178C87.0738 65.3391 90.3463 62.0573 90.7701 61.6312C92.2325 60.1609 94.1565 59.4293 96.0658 59.4293C97.9751 59.4293 99.8991 60.1609 101.362 61.6312C102.213 62.487 113.637 73.9453 114.453 74.7595C115.868 76.1712 116.652 78.0886 116.652 80.0732V119.484C116.652 119.484 116.652 119.484 113.532 119.484L116.652 119.484V122.612H100.432C96.2995 122.612 92.9468 119.25 92.9468 115.105V81.4323L90.4515 83.9346ZM49.5335 119.484L40.4846 110.418C39.6637 109.599 39.2053 108.483 39.2053 107.322V88.7371C39.2053 86.3199 41.1616 84.3581 43.572 84.3581H62.1047C63.2619 84.3581 64.3712 84.8177 65.1921 85.641L69.8658 90.3364V106.347L56.7658 93.2102H48.0325L69.8658 115.105V119.484H49.5335ZM72.9849 122.612H48.2424L38.285 112.636C38.2839 112.635 38.2829 112.634 38.2818 112.633C36.8685 111.221 36.0863 109.305 36.0863 107.322V88.7371C36.0863 84.5924 39.439 81.2302 43.572 81.2302H62.1047C64.0885 81.2302 65.9913 82.019 67.3976 83.4293L72.9849 89.0425V122.612Z" fill="#C03637"/>
<path d="M212.773 15.125C212.773 15.125 211.35 15.3363 210.743 15.7256C210.135 16.1149 184.234 32.7322 184.234 32.7322C181.611 29.7359 177.819 27.9375 173.764 27.9375H164.496C159.629 27.9375 155.6 31.9992 155.6 36.9063V51H137.809C132.194 51 127.642 55.5895 127.642 61.25V71.5C127.642 77.1606 132.194 81.75 137.809 81.75H186.1C191.715 81.75 196.267 77.1606 196.267 71.5V62.5313C196.267 62.5313 196.267 60.1886 196.267 58.6875C196.267 57.1865 196.267 55.4972 196.267 54.8438C196.266 54.1904 196.101 53.5479 195.785 52.977C195.47 52.4061 188.24 39.2736 188.24 39.2736C188.24 39.2736 201.203 21.8173 211.949 24.0638C221.782 26.1195 229.315 34.2692 228.013 44.3085C226.912 52.7995 213.724 58.7143 212.634 59.8136C211.543 60.9129 211.805 64.0027 211.805 64.0027C212.395 65.4403 215.329 66.375 215.329 66.375H228.038C232.943 66.375 236.934 62.3519 236.934 57.4063V44.5938C236.934 44.5904 236.934 44.5871 236.934 44.5838C236.932 44.2054 236.875 43.8293 236.765 43.4677V43.4627C236.656 43.1078 236.498 42.7707 236.293 42.4617C236.291 42.4578 236.286 42.4556 236.283 42.4517C236.226 42.3624 236.164 42.2756 236.1 42.1914L215.766 16.5664C215.407 16.1144 214.952 15.7499 214.433 15.5003C213.915 15.2507 213.347 15.1224 212.773 15.125ZM164.496 35.625H173.764C176.079 35.625 178.197 36.8821 179.319 38.9182L188.642 55.8398V58.6875C182.927 58.6875 179.723 58.6875 174.007 58.6875C171.984 58.6875 170.047 57.8755 168.616 56.4353C167.185 54.9952 165.459 53.2522 165.459 53.2522C165.459 53.2522 164.008 52.4302 163.225 51.7157C158.972 47.8348 163.225 36.9063 163.225 36.9063C163.225 36.1502 163.746 35.625 164.496 35.625ZM137.809 89.4375C129.398 89.4375 122.559 96.3332 122.559 104.813C122.559 113.292 129.398 120.188 137.809 120.188H188.642C197.052 120.188 203.892 113.292 203.892 104.813C203.892 96.3332 197.052 89.4375 188.642 89.4375H137.809ZM142.892 99.6875C145.7 99.6875 147.975 101.981 147.975 104.813C147.975 107.644 145.7 109.938 142.892 109.938C140.083 109.938 137.809 107.644 137.809 104.813C137.809 101.981 140.083 99.6875 142.892 99.6875ZM163.225 99.6875C166.034 99.6875 168.309 101.981 168.309 104.813C168.309 107.644 166.034 109.938 163.225 109.938C160.417 109.938 158.142 107.644 158.142 104.813C158.142 101.981 160.417 99.6875 163.225 99.6875ZM183.559 99.6875C186.367 99.6875 188.642 101.981 188.642 104.813C188.642 107.644 186.367 109.938 183.559 109.938C180.75 109.938 178.475 107.644 178.475 104.813C178.475 101.981 180.75 99.6875 183.559 99.6875Z" fill="white"/>
<path fill-rule="evenodd" clip-rule="evenodd" d="M212.537 11.9723L212.759 11.9713C213.804 11.9665 214.838 12.2001 215.781 12.6545C216.725 13.1088 217.554 13.7723 218.208 14.5952L238.557 40.2395L238.571 40.2579C238.656 40.3691 238.739 40.4829 238.817 40.5991C238.843 40.6343 238.869 40.6714 238.895 40.7103L238.896 40.7122C239.268 41.2746 239.557 41.8882 239.754 42.5341L239.893 42.9879V43.065C240.003 43.5589 240.06 44.064 240.062 44.5713L240.062 44.5766V57.4063C240.062 64.0938 234.671 69.5289 228.038 69.5289H214.847L214.387 69.3824L215.329 66.3751H228.038C232.943 66.3751 236.933 62.352 236.933 57.4063V44.5838C236.932 44.2054 236.875 43.8294 236.765 43.4677V43.4627C236.656 43.1079 236.497 42.7707 236.293 42.4617C236.292 42.4598 236.29 42.4583 236.288 42.4567C236.286 42.4552 236.284 42.4537 236.283 42.4517C236.225 42.3625 236.164 42.2756 236.099 42.1915L215.766 16.5665C215.407 16.1144 214.951 15.75 214.433 15.5004C213.915 15.2508 213.347 15.1225 212.773 15.1251L212.317 12.0049L212.537 11.9723ZM184.234 32.7323C184.234 32.7323 210.135 16.115 210.742 15.7257C211.349 15.3364 212.773 15.1251 212.773 15.1251C212.317 12.0049 212.317 12.0049 212.316 12.005L212.314 12.0053L212.303 12.007L212.28 12.0105C212.262 12.0133 212.239 12.0169 212.211 12.0215C212.155 12.0306 212.079 12.0435 211.988 12.06C211.807 12.0927 211.556 12.1419 211.275 12.2079C210.858 12.3059 209.867 12.5493 209.063 13.0646L184.628 28.7412C181.623 26.2389 177.807 24.7837 173.764 24.7837H164.496C157.901 24.7837 152.472 30.2574 152.472 36.9063V47.8462H137.808C130.466 47.8462 124.514 53.8477 124.514 61.2501V71.5001C124.514 78.9025 130.466 84.9039 137.808 84.9039H186.1C193.442 84.9039 199.395 78.9025 199.395 71.5001V58.6876C199.395 58.1614 199.395 57.6113 199.395 57.0905C199.395 56.1283 199.395 55.2663 199.395 54.8412C199.394 53.6517 199.092 52.4821 198.518 51.4428C198.362 51.1597 196.477 47.7369 194.629 44.3805L191.994 39.5947C192.231 39.3096 192.498 38.9934 192.792 38.6524C194.117 37.119 195.976 35.1137 198.136 33.1898C200.311 31.2521 202.696 29.4833 205.065 28.3354C207.452 27.1792 209.55 26.7832 211.313 27.152C220.003 28.9686 225.944 35.9283 224.911 43.8998C224.541 46.7519 221.966 49.6674 218.452 52.3023C216.797 53.5439 215.12 54.5866 213.745 55.4091C213.466 55.5765 213.177 55.747 212.903 55.9095C212.546 56.1208 212.212 56.3185 211.949 56.4781C211.702 56.6277 211.454 56.7825 211.234 56.9307C211.062 57.0467 210.724 57.2792 210.422 57.5836C209.621 58.3906 209.24 59.3637 209.042 60.047C208.831 60.7724 208.737 61.4945 208.692 62.0732C208.645 62.6656 208.644 63.1993 208.654 63.5801C208.658 63.7733 208.666 63.9341 208.673 64.0517C208.676 64.1106 208.679 64.1592 208.682 64.196L208.685 64.2425L208.687 64.259L208.688 64.2695C208.688 64.2701 208.688 64.2708 211.805 64.0028L208.688 64.2708L208.729 64.757L208.914 65.208C209.347 66.2647 210.095 66.9932 210.646 67.4394C211.231 67.9131 211.858 68.277 212.372 68.5401C212.898 68.8093 213.387 69.0141 213.74 69.1508C213.919 69.2201 214.069 69.2744 214.18 69.3129C214.235 69.3322 214.281 69.3477 214.316 69.3593L214.36 69.3738L214.376 69.3788L214.385 69.3817L214.386 69.3821C214.386 69.3822 214.387 69.3824 215.329 66.3751C215.329 66.3751 212.394 65.4403 211.805 64.0028C211.805 64.0028 211.543 60.913 212.634 59.8137C212.845 59.6004 213.512 59.2059 214.458 58.6464C218.386 56.3223 227.125 51.1522 228.013 44.3085C228.42 41.1693 227.963 38.2149 226.842 35.5737C225.595 32.6354 223.527 30.0849 220.911 28.0991C218.359 26.1615 215.286 24.7616 211.949 24.0638C201.203 21.8173 188.24 39.2736 188.24 39.2736C188.24 39.2736 195.47 52.4061 195.785 52.977C196.1 53.5479 196.266 54.1904 196.267 54.8438C196.267 55.2676 196.267 56.1272 196.267 57.0885C196.267 57.6093 196.267 58.1601 196.267 58.6876V71.5001C196.267 77.1606 191.715 81.7501 186.1 81.7501H137.808C132.194 81.7501 127.642 77.1606 127.642 71.5001V61.2501C127.642 55.5895 132.194 51.0001 137.808 51.0001H155.6V36.9063C155.6 31.9993 159.629 27.9376 164.496 27.9376H173.764C177.819 27.9376 181.611 29.7359 184.234 32.7323ZM167.673 51.0238L165.459 53.2523C165.459 53.2523 164.008 52.4303 163.225 51.7158C158.972 47.8348 163.225 36.9063 163.225 36.9063C163.225 36.1503 163.746 35.6251 164.496 35.6251H173.764C176.079 35.6251 178.197 36.8821 179.319 38.9183L188.642 55.8398V58.6876H174.007C171.984 58.6876 170.047 57.8755 168.616 56.4354C167.185 54.9953 165.459 53.2523 165.459 53.2523L167.673 51.0238L168.713 52.0743C169.324 52.6897 170.112 53.4845 170.826 54.2033C171.674 55.0561 172.817 55.5337 174.007 55.5337H184.895L176.584 40.4499C176.584 40.4499 176.584 40.45 176.584 40.4499C176.014 39.4158 174.943 38.7789 173.764 38.7789H165.881C165.804 39.0091 165.713 39.2874 165.616 39.6048C165.31 40.6031 164.952 41.9469 164.716 43.374C164.476 44.8252 164.388 46.2179 164.534 47.3641C164.681 48.5235 165.02 49.0998 165.324 49.3775C165.508 49.5454 165.879 49.8117 166.312 50.0894C166.508 50.2145 166.684 50.3215 166.81 50.3967C166.873 50.434 166.922 50.4627 166.954 50.4811L166.987 50.5005L166.991 50.5028L166.992 50.5032L166.993 50.5035L167.368 50.716L167.673 51.0238ZM119.43 104.813C119.43 94.5914 127.67 86.2837 137.808 86.2837H188.642C198.78 86.2837 207.02 94.5914 207.02 104.813C207.02 115.034 198.78 123.341 188.642 123.341H137.808C127.67 123.341 119.43 115.034 119.43 104.813ZM144.847 104.813C144.847 103.723 143.973 102.841 142.892 102.841C141.811 102.841 140.937 103.723 140.937 104.813C140.937 105.902 141.811 106.784 142.892 106.784C143.973 106.784 144.847 105.902 144.847 104.813ZM165.18 104.813C165.18 103.723 164.306 102.841 163.225 102.841C162.144 102.841 161.27 103.723 161.27 104.813C161.27 105.902 162.144 106.784 163.225 106.784C164.306 106.784 165.18 105.902 165.18 104.813ZM185.514 104.813C185.514 103.723 184.639 102.841 183.558 102.841C182.477 102.841 181.603 103.723 181.603 104.813C181.603 105.902 182.477 106.784 183.558 106.784C184.639 106.784 185.514 105.902 185.514 104.813ZM122.558 104.813C122.558 96.3333 129.398 89.4376 137.808 89.4376H188.642C197.052 89.4376 203.892 96.3333 203.892 104.813C203.892 113.292 197.052 120.188 188.642 120.188H137.808C129.398 120.188 122.558 113.292 122.558 104.813ZM147.975 104.813C147.975 101.981 145.7 99.6876 142.892 99.6876C140.083 99.6876 137.808 101.981 137.808 104.813C137.808 107.644 140.083 109.938 142.892 109.938C145.7 109.938 147.975 107.644 147.975 104.813ZM168.308 104.813C168.308 101.981 166.034 99.6876 163.225 99.6876C160.417 99.6876 158.142 101.981 158.142 104.813C158.142 107.644 160.417 109.938 163.225 109.938C166.034 109.938 168.308 107.644 168.308 104.813ZM188.642 104.813C188.642 101.981 186.367 99.6876 183.558 99.6876C180.75 99.6876 178.475 101.981 178.475 104.813C178.475 107.644 180.75 109.938 183.558 109.938C186.367 109.938 188.642 107.644 188.642 104.813Z" fill="#C03637"/>
</svg>
