<svg width="258" height="106" viewBox="0 0 258 106" fill="none" xmlns="http://www.w3.org/2000/svg">
<path d="M51.7 2.00047C51.0772 1.99166 50.4589 2.10672 49.8809 2.33897C49.303 2.57121 48.7769 2.91601 48.3334 3.35332C47.8898 3.79063 47.5376 4.31173 47.2973 4.88634C47.0569 5.46095 46.9331 6.0776 46.9331 6.70047C46.9331 7.32334 47.0569 7.93999 47.2973 8.5146C47.5376 9.08921 47.8898 9.61031 48.3334 10.0476C48.7769 10.4849 49.303 10.8297 49.8809 11.062C50.4589 11.2942 51.0772 11.4093 51.7 11.4005C51.7 11.4005 56.11 36.9081 51.7 52.2317C46.6246 69.8676 25.0055 90.9057 25.0055 90.9057C24.9507 90.9897 24.8987 91.0754 24.8494 91.1628C21.2128 97.2268 25.8373 105.4 32.9092 105.4H98.6908C105.762 105.4 110.387 97.2268 106.751 91.1628C106.701 91.0754 106.649 90.9897 106.595 90.9057C106.595 90.9057 84.9754 69.8676 79.9 52.2317C75.49 36.9081 79.9 11.4005 79.9 11.4005C80.5228 11.4093 81.1412 11.2942 81.7191 11.062C82.2971 10.8297 82.8231 10.4849 83.2666 10.0476C83.7102 9.61031 84.0624 9.08921 84.3028 8.5146C84.5432 7.93999 84.6669 7.32334 84.6669 6.70047C84.6669 6.0776 84.5432 5.46095 84.3028 4.88634C84.0624 4.31173 83.7102 3.79063 83.2666 3.35332C82.8231 2.91601 82.2971 2.57121 81.7191 2.33897C81.1412 2.10672 80.5228 1.99166 79.9 2.00047H51.7ZM61.1 11.4005H70.5C70.5 27.9196 70.5 37.1813 70.5 53.7005C70.5 53.7005 70.7921 55.5868 71.3354 56.3718C71.8786 57.1567 79.2207 67.8005 79.2207 67.8005H52.3793L60.2647 56.3718C60.8079 55.5868 61.0993 54.6551 61.1 53.7005V11.4005ZM14.1 16.1005C11.5009 16.1005 9.4 18.2061 9.4 20.8005V44.4014C3.5438 48.81 0 55.7544 0 63.1005C0 73.8729 7.32737 82.8822 17.2303 85.6458C17.2444 85.6223 17.2574 85.5958 17.2762 85.5723L36.0211 58.4005H10.318C11.4225 55.3502 13.498 52.7037 16.4684 50.9741C17.916 50.1328 18.8 48.5807 18.8 46.9075V25.5005H28.2V46.9075C28.2 48.5807 29.084 50.1328 30.5316 50.9741C33.3093 52.5909 35.2643 55.0254 36.4158 57.8313L42.3 49.3034V49.1657C40.9699 47.3797 39.4095 45.7553 37.6 44.3923V20.8005C37.6 18.2061 35.4991 16.1005 32.9 16.1005H14.1ZM94 20.8005C91.4009 20.8005 89.3 22.9061 89.3 25.5005V49.3034L114.324 85.5723C114.493 85.8167 114.655 86.0621 114.81 86.3159C114.867 86.4052 114.892 86.5065 114.948 86.6005H117.5C122.684 86.6005 126.9 82.3846 126.9 77.2005V36.0112L131.104 27.6026C131.833 26.1456 131.758 24.4176 130.902 23.0311C130.042 21.6493 128.531 20.8005 126.9 20.8005H94ZM98.7 30.2005H119.299L117.996 32.7983C117.671 33.4469 117.5 34.172 117.5 34.9005V44.3005H98.7V30.2005Z" fill="white"/>
<path fill-rule="evenodd" clip-rule="evenodd" d="M51.6788 5.00047L51.6576 5.00017C51.4323 4.99698 51.2086 5.03861 50.9995 5.12263C50.7904 5.20665 50.6001 5.33138 50.4397 5.48958C50.2792 5.64779 50.1518 5.83631 50.0648 6.04418C49.9778 6.25205 49.9331 6.47514 49.9331 6.70047C49.9331 6.9258 49.9778 7.14889 50.0648 7.35676C50.1518 7.56463 50.2792 7.75315 50.4397 7.91136C50.6001 8.06956 50.7904 8.19429 50.9995 8.27831C51.2086 8.36233 51.4323 8.40396 51.6576 8.40077L54.2196 8.36453L54.6562 10.8894L51.7 11.4005C51.0772 11.4093 50.4589 11.2942 49.8809 11.062C49.303 10.8297 48.7769 10.4849 48.3334 10.0476C47.8898 9.61031 47.5376 9.08921 47.2973 8.5146C47.0569 7.93999 46.9331 7.32334 46.9331 6.70047C46.9331 6.0776 47.0569 5.46095 47.2973 4.88634C47.5376 4.31173 47.8898 3.79063 48.3334 3.35332C48.7769 2.91601 49.303 2.57121 49.8809 2.33897C50.4589 2.10672 51.0772 1.99166 51.7 2.00047H79.9C80.5228 1.99166 81.1412 2.10672 81.7191 2.33897C82.2971 2.57121 82.8231 2.91601 83.2666 3.35332C83.7102 3.79063 84.0624 4.31173 84.3028 4.88634C84.5432 5.46095 84.6669 6.0776 84.6669 6.70047C84.6669 7.32334 84.5432 7.93999 84.3028 8.5146C84.0624 9.08921 83.7102 9.61031 83.2666 10.0476C82.8231 10.4849 82.2971 10.8297 81.7191 11.062C81.1412 11.2942 80.5228 11.4093 79.9 11.4005L76.9439 10.8894L77.3804 8.36453L79.9424 8.40077C80.1677 8.40396 80.3914 8.36233 80.6005 8.27831C80.8096 8.19429 80.9999 8.06955 81.1604 7.91136C81.3208 7.75317 81.4482 7.56465 81.5352 7.35676C81.6222 7.14889 81.6669 6.9258 81.6669 6.70047C81.6669 6.47514 81.6222 6.25205 81.5352 6.04418C81.4482 5.83629 81.3208 5.64777 81.1604 5.48958C80.9999 5.33139 80.8096 5.20665 80.6005 5.12263C80.3914 5.03861 80.1677 4.99698 79.9424 5.00017L79.9212 5.00047H51.6788ZM106.595 90.9057C106.595 90.9057 84.9754 69.8676 79.9 52.2317C75.49 36.9081 79.9 11.4005 79.9 11.4005C76.9439 10.8894 76.9438 10.8899 76.9437 10.8905L76.9434 10.8921L76.9396 10.9142L76.9292 10.9757C76.9202 11.0288 76.9074 11.1058 76.891 11.2056C76.8583 11.4052 76.8116 11.6963 76.754 12.07C76.639 12.8173 76.4807 13.8959 76.3052 15.2359C75.9546 17.9136 75.5337 21.6463 75.2529 25.8707C74.698 34.2171 74.659 44.868 77.017 53.0614C79.7322 62.4959 86.7424 72.5598 92.8183 80.0692C95.8942 83.8708 98.8054 87.1072 100.948 89.3941C102.02 90.5385 102.902 91.4476 103.519 92.0734C103.818 92.376 104.054 92.6125 104.22 92.7776C106.579 96.838 103.401 102.4 98.6908 102.4H32.9092C28.199 102.4 25.0212 96.8381 27.3798 92.7776C27.546 92.6125 27.7825 92.376 28.0807 92.0734C28.6977 91.4476 29.5798 90.5385 30.652 89.3941C32.7946 87.1072 35.7058 83.8708 38.7817 80.0692C44.8576 72.5598 51.8679 62.4959 54.583 53.0614C56.941 44.868 56.902 34.2171 56.3471 25.8707C56.0663 21.6463 55.6454 17.9136 55.2948 15.2359C55.1193 13.8959 54.961 12.8173 54.846 12.07C54.7884 11.6963 54.7417 11.4052 54.709 11.2056C54.6926 11.1058 54.6798 11.0288 54.6708 10.9757L54.6604 10.9142L54.6563 10.8905C54.6562 10.8899 54.6562 10.8894 51.7 11.4005C51.7 11.4005 56.11 36.9081 51.7 52.2317C46.6246 69.8676 25.0055 90.9057 25.0055 90.9057C24.9507 90.9897 24.8987 91.0754 24.8494 91.1628C21.2128 97.2268 25.8373 105.4 32.9092 105.4H98.6908C105.762 105.4 110.387 97.2268 106.751 91.1628C106.701 91.0754 106.649 90.9897 106.595 90.9057ZM58.1 8.40047H73.5V53.4401C73.5005 53.4428 73.501 53.4456 73.5016 53.4484C73.5301 53.599 73.5723 53.8034 73.6262 54.0213C73.6815 54.245 73.7404 54.4469 73.7971 54.6038C73.8194 54.6654 73.8361 54.7054 73.8458 54.7275C74.242 55.3007 76.1292 58.036 77.9511 60.6769L81.6888 66.0951L81.6898 66.0965C81.6899 66.0966 81.6902 66.097 79.2207 67.8005C79.2207 67.8005 78.3326 66.5129 77.1512 64.8005C74.936 61.5892 71.6897 56.8837 71.3354 56.3718C70.7921 55.5868 70.5 53.7005 70.5 53.7005V11.4005H61.1V53.7005C61.0993 54.6551 60.8079 55.5868 60.2647 56.3718L52.3793 67.8005H79.2207L81.6898 66.0965L84.9346 70.8005H46.6646L57.7978 54.6645C57.9943 54.3806 58.0997 54.0435 58.1 53.6981V8.40047ZM12.4 45.8981L11.2043 46.7982C6.08413 50.6527 3 56.7177 3 63.1005C3 71.7299 8.4089 79.0905 16.0365 82.0863L30.3069 61.4005H6.04107L7.4972 57.3791C8.82545 53.7108 11.3421 50.4875 14.9588 48.3816L14.9609 48.3803C15.4752 48.0815 15.8 47.5229 15.8 46.9075V22.5005H31.2V46.9075C31.2 47.5228 31.5249 48.0815 32.0391 48.3803L32.0408 48.3813C33.849 49.4338 35.3653 50.7668 36.5959 52.2879L38.6036 49.3782C37.7481 48.4249 36.8128 47.5551 35.795 46.7885L34.6 45.8884V20.8005C34.6 19.861 33.8403 19.1005 32.9 19.1005H14.1C13.1597 19.1005 12.4 19.861 12.4 20.8005V45.8981ZM42.3 49.3034L36.4158 57.8313C36.2933 57.5329 36.1618 57.2386 36.0211 56.9491C35.7619 56.4157 35.4717 55.8984 35.1505 55.4005C35.0384 55.2267 34.9225 55.0554 34.8029 54.8865C33.7017 53.3327 32.2796 51.9915 30.5316 50.9741C29.084 50.1328 28.2 48.5807 28.2 46.9075V25.5005H18.8V46.9075C18.8 48.5807 17.916 50.1328 16.4684 50.9741C14.5257 52.1052 12.9659 53.6285 11.8101 55.4005C11.1986 56.338 10.7001 57.345 10.318 58.4005H36.0211L17.2762 85.5723C17.2625 85.5895 17.2518 85.6082 17.2416 85.6262C17.2378 85.6328 17.2341 85.6394 17.2303 85.6458C7.32737 82.8822 0 73.8729 0 63.1005C0 55.7544 3.5438 48.81 9.4 44.4014V20.8005C9.4 18.2061 11.5009 16.1005 14.1 16.1005H32.9C35.4991 16.1005 37.6 18.2061 37.6 20.8005V44.3923C39.4095 45.7553 40.9699 47.3797 42.3 49.1657V49.3034ZM14.6339 84.143L14.6325 84.1455L14.6339 84.143ZM123.9 35.303L128.421 26.261C128.685 25.7324 128.658 25.1104 128.352 24.6114C128.034 24.1033 127.482 23.8005 126.9 23.8005H94C93.0597 23.8005 92.3 24.561 92.3 25.5005V48.3689L116.608 83.6005H117.5C121.027 83.6005 123.9 80.7277 123.9 77.2005V35.303ZM114.324 85.5723L89.3 49.3034V25.5005C89.3 22.9061 91.4009 20.8005 94 20.8005H126.9C128.531 20.8005 130.042 21.6493 130.902 23.0311C131.758 24.4176 131.833 26.1456 131.104 27.6026L126.9 36.0112V77.2005C126.9 82.3846 122.684 86.6005 117.5 86.6005H114.948C114.921 86.5548 114.901 86.5074 114.881 86.4604C114.86 86.4108 114.839 86.3618 114.81 86.3159C114.655 86.0621 114.493 85.8167 114.324 85.5723ZM95.7 27.2005H124.161L120.679 34.14C120.679 34.1401 120.679 34.1398 120.679 34.14C120.563 34.3715 120.5 34.6375 120.5 34.9005V47.3005H95.7V27.2005ZM119.299 30.2005L117.996 32.7983C117.93 32.9294 117.871 33.0637 117.818 33.2005C117.609 33.7402 117.5 34.3192 117.5 34.9005V44.3005H98.7V30.2005H119.299Z" fill="#C03637"/>
<path d="M164.48 2C160.302 2 156.86 5.44178 156.86 9.62V12.5221C152.491 13.6584 149.24 17.5996 149.24 22.32V35.02H164.48V40.1H149.24V56.228C143.329 58.326 139.08 63.9582 139.08 70.58C139.08 77.2018 143.329 82.834 149.24 84.932V98.52H134V103.6H250.84H255.92V101.06V98.52H248.3V50.26H245.596L243.056 12.16H233.06L230.857 45.18H238.14V50.26H189.88V9.62C189.88 5.44178 186.438 2 182.26 2H164.48ZM164.48 7.08H182.26C183.695 7.08 184.8 8.18482 184.8 9.62V50.26H174.64V98.52H169.56V22.32C169.56 17.5996 166.309 13.6584 161.94 12.5221V9.62C161.94 8.18482 163.045 7.08 164.48 7.08ZM154.32 60.42C159.923 60.42 164.48 64.9768 164.48 70.58C164.48 76.1832 159.923 80.74 154.32 80.74C148.717 80.74 144.16 76.1832 144.16 70.58C144.16 64.9768 148.717 60.42 154.32 60.42ZM182.26 60.42H192.42V65.5H182.26V60.42ZM197.5 60.42H207.66V65.5H197.5V60.42ZM215.28 60.42H225.44V65.5H215.28V60.42ZM230.52 60.42H240.68V65.5H230.52V60.42ZM182.26 73.12H192.42V78.2H182.26V73.12ZM197.5 73.12H207.66V78.2H197.5V73.12ZM215.28 73.12H225.44V78.2H215.28V73.12ZM230.52 73.12H240.68V78.2H230.52V73.12Z" fill="white"/>
<path fill-rule="evenodd" clip-rule="evenodd" d="M155.36 9.62C155.36 4.61335 159.473 0.5 164.48 0.5H182.26C187.267 0.5 191.38 4.61335 191.38 9.62V48.76H236.64V46.68H229.254L231.657 10.66H244.46L247 48.76H249.8V97.02H257.42V105.1H132.5V97.02H147.74V85.9547C141.778 83.3963 137.58 77.4815 137.58 70.58C137.58 63.6785 141.778 57.7637 147.74 55.2053V38.6H162.98V36.52H147.74V22.32C147.74 17.3031 150.931 13.0664 155.36 11.4236V9.62ZM164.48 3.5C161.13 3.5 158.36 6.2702 158.36 9.62V13.682L157.238 13.9739C153.502 14.9454 150.74 18.3107 150.74 22.32V33.52H165.98V41.6H150.74V57.2873L149.742 57.6416C144.407 59.5354 140.58 64.6172 140.58 70.58C140.58 76.5428 144.407 81.6246 149.742 83.5184L150.74 83.8727V100.02H135.5V102.1H254.42V100.02H246.8V51.76H244.193L241.653 13.66H234.463L232.461 43.68H239.64V51.76H188.38V9.62C188.38 6.2702 185.61 3.5 182.26 3.5H164.48ZM164.48 8.58C163.873 8.58 163.44 9.01325 163.44 9.62V11.4236C167.869 13.0664 171.06 17.3031 171.06 22.32V97.02H173.14V48.76H183.3V9.62C183.3 9.01325 182.867 8.58 182.26 8.58H164.48ZM160.44 9.62C160.44 7.3564 162.216 5.58 164.48 5.58H182.26C184.524 5.58 186.3 7.3564 186.3 9.62V51.76H176.14V100.02H168.06V22.32C168.06 18.3107 165.298 14.9454 161.562 13.9739L160.44 13.682V9.62ZM154.32 61.92C149.545 61.92 145.66 65.8052 145.66 70.58C145.66 75.3548 149.545 79.24 154.32 79.24C159.095 79.24 162.98 75.3548 162.98 70.58C162.98 65.8052 159.095 61.92 154.32 61.92ZM142.66 70.58C142.66 64.1483 147.888 58.92 154.32 58.92C160.752 58.92 165.98 64.1483 165.98 70.58C165.98 77.0117 160.752 82.24 154.32 82.24C147.888 82.24 142.66 77.0117 142.66 70.58ZM180.76 58.92H193.92V67H180.76V58.92ZM183.76 61.92V64H190.92V61.92H183.76ZM196 58.92H209.16V67H196V58.92ZM199 61.92V64H206.16V61.92H199ZM213.78 58.92H226.94V67H213.78V58.92ZM216.78 61.92V64H223.94V61.92H216.78ZM229.02 58.92H242.18V67H229.02V58.92ZM232.02 61.92V64H239.18V61.92H232.02ZM180.76 71.62H193.92V79.7H180.76V71.62ZM183.76 74.62V76.7H190.92V74.62H183.76ZM196 71.62H209.16V79.7H196V71.62ZM199 74.62V76.7H206.16V74.62H199ZM213.78 71.62H226.94V79.7H213.78V71.62ZM216.78 74.62V76.7H223.94V74.62H216.78ZM229.02 71.62H242.18V79.7H229.02V71.62ZM232.02 74.62V76.7H239.18V74.62H232.02Z" fill="#C03637"/>
</svg>
