<svg width="37" height="37" viewBox="0 0 37 37" fill="none" xmlns="http://www.w3.org/2000/svg">
<path d="M18.5 3C9.95358 3 3 9.95358 3 18.5C3 27.0464 9.95358 34 18.5 34C27.0464 34 34 27.0464 34 18.5C34 9.95358 27.0464 3 18.5 3ZM18.5 5.38462C25.7563 5.38462 31.6154 11.2437 31.6154 18.5C31.6154 25.7563 25.7563 31.6154 18.5 31.6154C11.2437 31.6154 5.38462 25.7563 5.38462 18.5C5.38462 11.2437 11.2437 5.38462 18.5 5.38462ZM16.3762 10.4892L14.6623 12.2031L20.9591 18.5L14.6623 24.7969L16.3762 26.5108L23.53 19.357L24.3498 18.5L23.53 17.643L16.3762 10.4892Z" fill="#E6D2D2"/>
</svg>
