<svg width="110" height="110" viewBox="0 0 110 110" fill="none" xmlns="http://www.w3.org/2000/svg">
<path d="M28.7297 16.5134C25.1011 16.5134 22.1621 19.4821 22.1621 23.1473V69.5847C22.1621 73.2499 25.1011 76.2186 28.7297 76.2186V36.4151C28.7297 29.0979 34.6208 23.1473 41.8648 23.1473H74.7026C74.7026 19.4821 71.7637 16.5134 68.1351 16.5134H28.7297ZM41.8648 29.7812C38.2362 29.7812 35.2972 32.7499 35.2972 36.4151V82.8525C35.2972 86.5177 38.2362 89.4864 41.8648 89.4864H81.2702C84.8988 89.4864 87.8378 86.5177 87.8378 82.8525V36.4151C87.8378 32.7499 84.8988 29.7812 81.2702 29.7812H41.8648ZM48.4324 43.0491H74.7026C76.5153 43.0491 77.9864 44.535 77.9864 46.366C77.9864 48.197 76.5153 49.683 74.7026 49.683H48.4324C46.6197 49.683 45.1486 48.197 45.1486 46.366C45.1486 44.535 46.6197 43.0491 48.4324 43.0491ZM48.4324 56.3169H74.7026C76.5153 56.3169 77.9864 57.8029 77.9864 59.6338C77.9864 61.4648 76.5153 62.9508 74.7026 62.9508H48.4324C46.6197 62.9508 45.1486 61.4648 45.1486 59.6338C45.1486 57.8029 46.6197 56.3169 48.4324 56.3169ZM48.4324 69.5847H74.7026C76.5153 69.5847 77.9864 71.0707 77.9864 72.9016C77.9864 74.7326 76.5153 76.2186 74.7026 76.2186H48.4324C46.6197 76.2186 45.1486 74.7326 45.1486 72.9016C45.1486 71.0707 46.6197 69.5847 48.4324 69.5847Z" fill="#333333"/>
<path fill-rule="evenodd" clip-rule="evenodd" d="M7 7V103H103V7H7ZM5 0C2.23858 0 0 2.23858 0 5V105C0 107.761 2.23858 110 5 110H105C107.761 110 110 107.761 110 105V5C110 2.23858 107.761 0 105 0H5Z" fill="#C03637"/>
</svg>
