<svg width="49" height="63" viewBox="0 0 49 63" fill="none" xmlns="http://www.w3.org/2000/svg">
<path fill-rule="evenodd" clip-rule="evenodd" d="M12.4935 8.7782L3.28874 16.6543L3.28623 16.6564C2.82655 17.0587 2.54355 17.682 2.54355 18.3088C2.54355 19.5081 3.51497 20.4795 4.71425 20.4795H13.6717C15.7569 20.4795 17.417 18.8194 17.417 16.7342V6.89043C17.417 3.51237 20.1374 0.791992 23.5154 0.791992H42.7107C46.0888 0.791992 48.8092 3.51237 48.8092 6.89043V56.1092C48.8092 59.4872 46.0888 62.2076 42.7107 62.2076H6.28887C2.9108 62.2076 0.19043 59.4872 0.19043 56.1092V29.0389C0.19043 28.3678 0.695959 27.8623 1.36699 27.8623C2.03803 27.8623 2.54355 28.3678 2.54355 29.0389V56.1092C2.54355 58.1944 4.20365 59.8545 6.28887 59.8545H42.7107C44.796 59.8545 46.4561 58.1944 46.4561 56.1092V6.89043C46.4561 4.80521 44.796 3.14512 42.7107 3.14512H23.5154C21.4302 3.14512 19.7701 4.80521 19.7701 6.89043V16.7342C19.7701 20.1122 17.0497 22.8326 13.6717 22.8326H4.71425C2.22212 22.8326 0.19043 20.8009 0.19043 18.3088C0.19043 16.9666 0.74483 15.7217 1.75931 14.8452L1.76015 14.8444L10.962 7.02109L10.9703 7.01352C11.4346 6.58792 12.1741 6.62281 12.6061 7.13339L12.6142 7.14217C13.0396 7.60619 13.0044 8.34594 12.4935 8.7782ZM10.0342 31.4998C10.0342 30.8288 10.5397 30.3232 11.2107 30.3232H13.6717C14.3427 30.3232 14.8482 30.8288 14.8482 31.4998C14.8482 32.1708 14.3427 32.6764 13.6717 32.6764H11.2107C10.5397 32.6764 10.0342 32.1708 10.0342 31.4998ZM19.8779 31.4998C19.8779 30.8288 20.3835 30.3232 21.0545 30.3232H37.7889C38.4599 30.3232 38.9654 30.8288 38.9654 31.4998C38.9654 32.1708 38.4599 32.6764 37.7889 32.6764H21.0545C20.3835 32.6764 19.8779 32.1708 19.8779 31.4998ZM10.0342 38.8826C10.0342 38.2116 10.5397 37.7061 11.2107 37.7061H13.6717C14.3427 37.7061 14.8482 38.2116 14.8482 38.8826C14.8482 39.5536 14.3427 40.0592 13.6717 40.0592H11.2107C10.5397 40.0592 10.0342 39.5536 10.0342 38.8826ZM19.8779 38.8826C19.8779 38.2116 20.3835 37.7061 21.0545 37.7061H37.7889C38.4599 37.7061 38.9654 38.2116 38.9654 38.8826C38.9654 39.5536 38.4599 40.0592 37.7889 40.0592H21.0545C20.3835 40.0592 19.8779 39.5536 19.8779 38.8826ZM10.0342 46.2654C10.0342 45.5944 10.5397 45.0889 11.2107 45.0889H13.6717C14.3427 45.0889 14.8482 45.5944 14.8482 46.2654C14.8482 46.9365 14.3427 47.442 13.6717 47.442H11.2107C10.5397 47.442 10.0342 46.9365 10.0342 46.2654ZM19.8779 46.2654C19.8779 45.5944 20.3835 45.0889 21.0545 45.0889H37.7889C38.4599 45.0889 38.9654 45.5944 38.9654 46.2654C38.9654 46.9365 38.4599 47.442 37.7889 47.442H21.0545C20.3835 47.442 19.8779 46.9365 19.8779 46.2654Z" fill="#333333"/>
</svg>
