<svg width="99" height="100" viewBox="0 0 99 100" fill="none" xmlns="http://www.w3.org/2000/svg">
<path d="M72.7031 32.2121L88.8958 16.0194C89.1681 16.0566 89.4372 16.103 89.7188 16.103C93.1312 16.103 95.9063 13.3279 95.9063 9.91547C95.9063 6.50306 93.1312 3.72797 89.7188 3.72797C86.3064 3.72797 83.5313 6.50306 83.5313 9.91547C83.5313 11.8522 84.4439 13.563 85.8423 14.6984L72.0534 28.4872C70.8577 25.7555 68.1368 23.8373 64.9688 23.8373H61.3506L70.2653 16.0365C73.3667 15.7039 75.7969 13.102 75.7969 9.91547C75.7969 6.50306 73.0218 3.72797 69.6094 3.72797C66.197 3.72797 63.4219 6.50306 63.4219 9.91547C63.4219 12.1863 64.664 14.1524 66.4909 15.229L56.6543 23.8373H51.0469V15.8833C53.709 15.1919 55.6875 12.7896 55.6875 9.91547C55.6875 6.50306 52.9124 3.72797 49.5 3.72797C46.0876 3.72797 43.3125 6.50306 43.3125 9.91547C43.3125 12.7896 45.291 15.1919 47.9531 15.8833V23.8373H42.3457L32.5076 15.229C34.336 14.1524 35.5781 12.1863 35.5781 9.91547C35.5781 6.50306 32.803 3.72797 29.3906 3.72797C25.9782 3.72797 23.2031 6.50306 23.2031 9.91547C23.2031 13.102 25.6333 15.7039 28.7348 16.0365L37.6494 23.8373H34.0313C30.8633 23.8373 28.1423 25.7555 26.9466 28.4872L13.1577 14.6984C14.5561 13.563 15.4688 11.8522 15.4688 9.91547C15.4688 6.50306 12.6937 3.72797 9.28125 3.72797C5.86884 3.72797 3.09375 6.50306 3.09375 9.91547C3.09375 13.3279 5.86884 16.103 9.28125 16.103C9.56278 16.103 9.83194 16.0566 10.1042 16.0194L26.2969 32.2121V38.924L15.3357 36.4877C14.7479 33.6847 12.2574 31.5717 9.28125 31.5717C5.86884 31.5717 3.09375 34.3468 3.09375 37.7592C3.09375 41.1716 5.86884 43.9467 9.28125 43.9467C12.0424 43.9467 14.3581 42.1183 15.1516 39.617L26.2969 42.0936V54.7748H15.2491C14.5576 52.1142 12.1569 50.1342 9.28125 50.1342C5.86884 50.1342 3.09375 52.9093 3.09375 56.3217C3.09375 59.7341 5.86884 62.5092 9.28125 62.5092C12.1569 62.5092 14.5576 60.5292 15.2491 57.8686H26.2969V81.0717C26.2969 85.3365 29.7665 88.8061 34.0313 88.8061H41.7656V96.5405H44.8594V88.8061H63.4219C64.0468 88.8061 64.613 88.4287 64.8512 87.8517C65.091 87.2731 64.9579 86.608 64.5155 86.1656L60.3281 81.9782V73.3373C60.3281 72.9274 60.1657 72.533 59.8749 72.2437L54.6434 67.0137C54.6403 67.0106 54.6372 67.006 54.6341 67.0013L53.4213 65.7917C52.8877 65.2565 52.5938 64.5465 52.5938 63.7916C52.5938 62.2308 53.8622 60.9623 55.4214 60.9623C56.1655 60.9623 56.8941 61.264 57.4215 61.7915L70.0626 74.431C70.505 74.8749 71.1702 75.0064 71.7487 74.7667C72.3272 74.5269 72.7031 73.9623 72.7031 73.3373V64.6965L77.3438 69.3371V96.5405H80.4375V68.6967C80.4375 68.2868 80.2751 67.8923 79.9843 67.6031L72.7031 60.3219V57.8686H83.7509C84.4424 60.5292 86.8431 62.5092 89.7188 62.5092C93.1312 62.5092 95.9063 59.7341 95.9063 56.3217C95.9063 52.9093 93.1312 50.1342 89.7188 50.1342C86.8431 50.1342 84.4424 52.1142 83.7509 54.7748H72.7031V42.0936L83.8484 39.617C84.6419 42.1183 86.9576 43.9467 89.7188 43.9467C93.1312 43.9467 95.9063 41.1716 95.9063 37.7592C95.9063 34.3468 93.1312 31.5717 89.7188 31.5717C86.7426 31.5717 84.2521 33.6848 83.6643 36.4892L72.7031 38.9256V32.2121ZM89.7188 6.82172C91.425 6.82172 92.8125 8.20926 92.8125 9.91547C92.8125 11.6217 91.425 13.0092 89.7188 13.0092C88.0126 13.0092 86.625 11.6217 86.625 9.91547C86.625 8.20926 88.0126 6.82172 89.7188 6.82172ZM69.6094 6.82172C71.3156 6.82172 72.7031 8.20926 72.7031 9.91547C72.7031 11.6217 71.3156 13.0092 69.6094 13.0092C67.9032 13.0092 66.5156 11.6217 66.5156 9.91547C66.5156 8.20926 67.9032 6.82172 69.6094 6.82172ZM46.4063 9.91547C46.4063 8.20926 47.7938 6.82172 49.5 6.82172C51.2062 6.82172 52.5938 8.20926 52.5938 9.91547C52.5938 11.6217 51.2062 13.0092 49.5 13.0092C47.7938 13.0092 46.4063 11.6217 46.4063 9.91547ZM26.2969 9.91547C26.2969 8.20926 27.6844 6.82172 29.3906 6.82172C31.0968 6.82172 32.4844 8.20926 32.4844 9.91547C32.4844 11.6217 31.0968 13.0092 29.3906 13.0092C27.6844 13.0092 26.2969 11.6217 26.2969 9.91547ZM6.1875 9.91547C6.1875 8.20926 7.57505 6.82172 9.28125 6.82172C10.9875 6.82172 12.375 8.20926 12.375 9.91547C12.375 11.6217 10.9875 13.0092 9.28125 13.0092C7.57505 13.0092 6.1875 11.6217 6.1875 9.91547ZM9.28125 40.853C7.57505 40.853 6.1875 39.4654 6.1875 37.7592C6.1875 36.053 7.57505 34.6655 9.28125 34.6655C10.9875 34.6655 12.375 36.053 12.375 37.7592C12.375 39.4654 10.9875 40.853 9.28125 40.853ZM9.28125 59.4155C7.57505 59.4155 6.1875 58.0279 6.1875 56.3217C6.1875 54.6155 7.57505 53.228 9.28125 53.228C10.9875 53.228 12.375 54.6155 12.375 56.3217C12.375 58.0279 10.9875 59.4155 9.28125 59.4155ZM89.7188 53.228C91.425 53.228 92.8125 54.6155 92.8125 56.3217C92.8125 58.0279 91.425 59.4155 89.7188 59.4155C88.0126 59.4155 86.625 58.0279 86.625 56.3217C86.625 54.6155 88.0126 53.228 89.7188 53.228ZM89.7188 34.6655C91.425 34.6655 92.8125 36.053 92.8125 37.7592C92.8125 39.4654 91.425 40.853 89.7188 40.853C88.0126 40.853 86.625 39.4654 86.625 37.7592C86.625 36.053 88.0126 34.6655 89.7188 34.6655ZM34.0313 26.9311H64.9688C67.5273 26.9311 69.6094 29.0132 69.6094 31.5717V33.1186H29.3906V31.5717C29.3906 29.0132 31.4727 26.9311 34.0313 26.9311ZM43.3125 85.7123H34.0313C31.4727 85.7123 29.3906 83.6303 29.3906 81.0717V79.5248H57.2344V82.6186C57.2344 83.0285 57.3968 83.423 57.6876 83.7122L59.6877 85.7123H43.3125ZM55.4214 57.8686C52.1575 57.8686 49.5 60.5246 49.5 63.7916C49.5 64.1489 49.5418 64.4985 49.6021 64.8419C49.6207 64.9455 49.647 65.0446 49.6717 65.1466C49.7305 65.3957 49.8032 65.637 49.8929 65.8752C49.93 65.9742 49.9656 66.0732 50.0074 66.1691C50.1358 66.4615 50.2843 66.743 50.4591 67.0122C50.4745 67.0354 50.4854 67.0601 50.5008 67.0833C50.5055 67.0911 50.5101 67.1003 50.5148 67.1081C50.1775 67.1359 49.8388 67.1498 49.5 67.1498C42.6767 67.1498 37.125 61.5981 37.125 54.7748C37.125 47.9516 42.6767 42.3998 49.5 42.3998C56.3233 42.3998 61.875 47.9516 61.875 54.7748C61.875 56.7765 61.3955 58.7147 60.4766 60.4704L59.6088 59.6042C58.4904 58.4843 57.0054 57.8686 55.4214 57.8686ZM69.6094 69.6032L62.7428 62.7382C64.2015 60.3297 64.9688 57.6041 64.9688 54.7748C64.9688 46.2454 58.0295 39.3061 49.5 39.3061C40.9705 39.3061 34.0313 46.2454 34.0313 54.7748C34.0313 63.3043 40.9705 70.2436 49.5 70.2436C50.6957 70.2436 51.8791 70.0642 53.0454 69.7888L57.2344 73.9778V76.4311H29.3906V36.2123H69.6094V60.9623V69.6032Z" fill="#282828"/>
<path d="M46.4061 56.4548L42.8592 52.9078L40.6719 55.0951L45.3125 59.7357C45.6141 60.0373 46.0101 60.1889 46.4061 60.1889C46.8021 60.1889 47.1981 60.0373 47.4998 59.7357L57.5545 49.681L55.3672 47.4937L46.4061 56.4548Z" fill="#282828"/>
<path d="M35.5781 70.2436H32.4844V73.3373H35.5781V70.2436Z" fill="#282828"/>
<path d="M35.5781 64.0561H32.4844V67.1498H35.5781V64.0561Z" fill="#282828"/>
<path d="M41.7656 70.2436H38.6719V73.3373H41.7656V70.2436Z" fill="#282828"/>
</svg>
