<svg width="94" height="93" viewBox="0 0 94 93" fill="none" xmlns="http://www.w3.org/2000/svg">
<path d="M76.5474 20.8374H89.9117C91.1647 20.8374 91.9999 21.6727 91.9999 22.9256V74.7123C91.9999 75.9652 91.1647 76.8004 89.9117 76.8004H4.29667C3.04377 76.8004 2.2085 75.9652 2.2085 74.7123V22.9256C2.2085 21.6727 3.04377 20.8374 4.29667 20.8374H14.9464" stroke="#282828" stroke-width="3" stroke-miterlimit="10"/>
<path d="M2 64.6891H91.7914" stroke="#282828" stroke-width="3" stroke-miterlimit="10"/>
<path d="M24.5527 75.7563V91" stroke="#282828" stroke-width="3" stroke-miterlimit="10"/>
<path d="M68.4038 75.7563V91" stroke="#282828" stroke-width="3" stroke-miterlimit="10"/>
<path d="M16.6172 91H76.5477" stroke="#282828" stroke-width="3" stroke-miterlimit="10"/>
<path d="M19.749 37.9604C19.749 37.9604 19.9578 37.9604 19.749 37.9604H51.2804L64.0183 47.9836C64.2271 48.1925 64.4359 47.9837 64.4359 47.7748V37.9604H71.1181V2.46149H20.3755C20.1667 2.46149 19.9578 2.6703 19.9578 2.87912V37.9604H19.749Z" stroke="#282828" stroke-width="3" stroke-miterlimit="10"/>
<path d="M27.8936 11.023H64.2278" stroke="#282828" stroke-width="3" stroke-miterlimit="10"/>
<path d="M27.8936 18.958H64.2278" stroke="#282828" stroke-width="3" stroke-miterlimit="10"/>
<path d="M27.8936 27.102H47.5224" stroke="#282828" stroke-width="3" stroke-miterlimit="10"/>
</svg>
