<svg width="15" height="15" viewBox="0 0 15 15" fill="none" xmlns="http://www.w3.org/2000/svg">
<path d="M3.04688 1.64062V13.8281L7.06329 11.7142C7.33657 11.5703 7.66343 11.5703 7.93671 11.7142L11.9531 13.8281V10.1642L11.0815 9.81674L9.18045 10.5743L8.47595 10.063L8.55011 7.93991L7.26562 6.45676L7.53754 5.61905L9.4986 5.05234L10.6425 3.28125H11.5201L11.9531 3.95142V1.64062H3.04688ZM10.9222 3.75L9.90967 5.625L7.89871 6.02509C7.85324 6.16454 7.84553 6.18867 7.80029 6.32812L9.20654 7.73438L8.97217 9.84375C9.09076 9.92977 9.1113 9.94473 9.22989 10.031L11.0815 9.14062L12.9332 10.031C13.0518 9.94496 13.0723 9.93 13.1909 9.84375L12.9565 7.73438L14.3628 6.32812C14.3173 6.18867 14.3096 6.16454 14.2644 6.02509L12.2534 5.625L11.2408 3.75H10.9222Z" fill="white"/>
</svg>
