<?xml version="1.0" standalone="no"?>
<!DOCTYPE svg PUBLIC "-//W3C//DTD SVG 20010904//EN"
 "http://www.w3.org/TR/2001/REC-SVG-20010904/DTD/svg10.dtd">
<svg version="1.0" xmlns="http://www.w3.org/2000/svg"
 width="999.000000pt" height="999.000000pt" viewBox="0 0 999.000000 999.000000"
 preserveAspectRatio="xMidYMid meet">
<metadata>
Created by potrace 1.14, written by Peter Selinger 2001-2017
</metadata>
<g transform="translate(0.000000,999.000000) scale(0.100000,-0.100000)"
fill="#000000" stroke="none">
<path d="M3958 9206 c-82 -29 -92 -43 -355 -471 -264 -429 -483 -785 -539
-875 -187 -302 -389 -629 -401 -650 -8 -14 -22 -37 -31 -52 -66 -106 -330
-533 -343 -556 -9 -15 -91 -147 -182 -294 -145 -234 -178 -290 -218 -370 -28
-55 6 -130 74 -164 30 -16 128 -52 157 -59 8 -1 89 -26 180 -55 91 -28 235
-74 320 -100 85 -27 187 -59 225 -71 39 -12 75 -23 80 -25 16 -3 337 -104 365
-115 14 -5 34 -11 45 -13 18 -4 178 -56 182 -60 1 0 -62 0 -140 1 -114 2 -157
-2 -217 -18 -290 -76 -675 -418 -740 -659 -16 -57 -20 -94 -23 -197 -1 -46 -5
-83 -10 -83 -10 0 -26 42 -20 53 2 4 0 7 -5 7 -5 0 -13 10 -17 23 -4 12 -8 24
-9 27 -3 5 -14 31 -39 92 -8 20 -13 39 -9 42 3 3 0 6 -6 6 -6 0 -14 10 -17 23
-4 12 -13 36 -20 52 -7 17 -23 57 -36 90 -13 33 -28 63 -32 66 -5 3 -8 9 -7
13 2 10 -24 66 -31 66 -3 0 -12 19 -19 43 -8 23 -18 48 -23 55 -6 7 -7 15 -3
19 3 3 0 13 -7 22 -11 13 -41 92 -42 111 -1 3 -6 15 -13 28 -7 12 -10 27 -7
32 3 6 1 10 -4 10 -6 0 -11 7 -11 15 0 8 -5 15 -12 15 -6 0 -9 3 -5 6 3 3 -7
34 -23 69 -16 35 -26 66 -23 69 4 3 1 6 -5 6 -7 0 -12 6 -12 13 0 8 -7 28 -16
45 -8 18 -12 37 -8 43 4 8 3 9 -4 5 -7 -4 -12 -1 -12 9 0 9 -8 28 -17 43 -17
27 -17 27 2 12 16 -11 15 -9 -3 12 -13 14 -24 35 -25 46 0 11 -5 18 -9 16 -4
-3 -8 -2 -9 3 -2 26 -10 48 -28 84 -12 22 -19 44 -16 49 3 4 1 10 -4 12 -5 1
-11 10 -13 18 -2 8 -6 19 -11 25 -4 5 -21 29 -37 52 -37 53 -68 74 -114 76
-20 1 -36 5 -36 8 0 8 -45 3 -61 -7 -7 -4 -10 -3 -6 3 4 6 -28 0 -71 -14 -42
-13 -85 -26 -95 -28 -9 -2 -21 -6 -25 -9 -5 -3 -19 -7 -33 -10 -13 -3 -58 -17
-99 -31 -41 -15 -84 -28 -95 -31 -11 -3 -24 -6 -30 -8 -5 -2 -23 -6 -40 -11
-16 -4 -35 -11 -40 -16 -6 -4 -24 -10 -40 -13 -17 -2 -30 -5 -30 -6 0 -1 -7
-3 -16 -5 -8 -1 -44 -15 -80 -30 -35 -15 -93 -33 -128 -41 -35 -8 -67 -17 -72
-20 -5 -3 -19 -7 -31 -10 -105 -24 -196 -81 -217 -137 -34 -89 -29 -148 23
-269 9 -21 16 -40 16 -43 -1 -3 6 -18 13 -33 32 -61 87 -198 87 -217 0 -13 48
-111 78 -160 4 -5 8 -21 10 -34 2 -13 11 -35 20 -49 9 -14 16 -26 14 -27 -6 0
11 -40 28 -65 9 -14 20 -38 24 -55 4 -16 14 -46 23 -65 58 -131 66 -152 68
-175 2 -21 43 -106 55 -115 6 -4 44 -96 45 -110 1 -3 11 -27 23 -54 12 -27 22
-54 22 -62 0 -7 7 -19 15 -28 9 -8 16 -19 17 -23 2 -20 14 -52 66 -173 11 -25
25 -62 33 -83 7 -20 17 -37 23 -37 5 0 7 -3 3 -6 -3 -3 8 -36 25 -72 16 -37
29 -68 29 -69 -1 -3 16 -43 45 -108 10 -22 19 -43 20 -47 1 -5 3 -11 4 -15 1
-5 2 -11 1 -15 0 -5 3 -8 8 -8 5 0 12 -12 16 -27 3 -15 17 -52 31 -81 13 -29
24 -55 24 -57 0 -3 9 -25 21 -49 11 -25 22 -51 23 -59 1 -8 7 -21 13 -28 6 -8
14 -29 18 -47 3 -17 11 -32 16 -32 5 0 9 -9 9 -19 0 -11 5 -23 10 -26 6 -4 8
-10 5 -15 -3 -5 -1 -11 5 -15 6 -4 8 -11 5 -16 -4 -5 -2 -9 2 -9 5 0 15 -17
23 -37 7 -21 20 -54 28 -73 9 -19 17 -41 18 -49 1 -7 7 -18 13 -24 6 -6 11
-19 11 -29 0 -10 4 -18 8 -18 5 0 9 -7 10 -15 1 -8 3 -22 4 -30 1 -8 5 -15 9
-15 7 0 22 -39 20 -52 -1 -5 3 -8 9 -8 6 0 9 -3 8 -7 -1 -9 7 -33 30 -83 9
-19 17 -37 17 -40 3 -24 55 -90 70 -90 3 0 17 -11 31 -25 14 -14 30 -23 35
-20 5 4 9 2 9 -3 0 -5 11 -8 25 -6 14 1 40 -2 58 -7 28 -8 43 -4 114 31 45 22
85 45 88 50 3 6 27 19 53 30 26 12 54 25 62 30 8 5 44 24 80 41 36 18 68 37
72 43 4 6 8 7 8 2 0 -5 7 -3 15 4 8 7 15 10 15 8 0 -3 28 10 63 28 88 48 131
68 140 66 4 -1 7 3 7 9 0 6 7 8 16 5 8 -3 12 -2 9 4 -3 6 1 10 9 10 9 0 16 6
16 13 0 8 4 7 10 -3 5 -8 10 -10 10 -5 0 6 17 19 38 30 20 10 44 24 52 31 8 6
35 22 60 35 25 13 48 29 52 34 4 6 8 6 8 2 0 -5 7 -2 15 5 33 30 45 38 55 38
6 0 8 5 5 10 -3 5 -1 10 4 10 6 0 11 6 11 14 0 8 7 17 16 20 9 3 14 12 11 20
-3 7 0 19 6 25 6 6 8 11 4 11 -4 0 -3 9 3 19 7 14 7 22 0 26 -6 4 -8 10 -6 14
3 4 0 25 -6 47 -6 21 -11 43 -10 47 1 4 -4 15 -13 23 -8 9 -15 22 -15 30 0 8
-4 22 -9 32 -23 44 -48 111 -49 126 0 5 -5 12 -10 15 -5 3 -24 44 -42 91 -19
47 -40 95 -48 107 -8 13 -11 23 -8 23 3 0 -5 22 -19 50 -14 27 -25 51 -25 52
0 2 -5 19 -12 38 -7 19 -11 38 -10 43 1 4 -3 7 -9 7 -5 0 -8 4 -4 9 3 5 1 12
-5 16 -5 3 -10 13 -10 21 0 23 88 -27 136 -78 148 -157 438 -390 610 -489 279
-161 500 -193 706 -102 68 31 154 92 233 167 l70 66 30 -33 c44 -48 105 -120
113 -132 4 -6 22 -22 39 -37 35 -28 57 -28 103 1 76 48 93 121 41 172 -9 8
-32 35 -51 58 -19 24 -47 57 -62 73 -16 16 -28 33 -28 38 0 6 -4 10 -10 10 -5
0 -14 9 -20 21 -9 16 -8 24 3 37 24 27 104 194 112 232 5 26 23 63 51 103 18
27 36 63 40 81 10 56 -4 137 -35 191 -23 41 -29 62 -27 107 1 31 9 66 18 80
21 32 33 91 30 143 -6 79 -32 109 -469 549 -74 75 -132 136 -129 136 3 0 25
-6 48 -14 24 -8 104 -33 178 -56 74 -23 146 -45 160 -50 14 -5 84 -27 155 -49
72 -22 173 -53 225 -69 52 -17 192 -60 310 -96 118 -37 224 -70 235 -75 11 -5
124 -40 250 -79 127 -39 256 -79 288 -89 l58 -17 -7 -36 c-3 -19 -7 -48 -10
-65 -9 -63 -12 -84 -18 -112 -3 -15 -8 -44 -11 -63 -3 -19 -8 -48 -12 -65 -3
-16 -7 -41 -8 -55 -3 -25 -11 -73 -20 -120 -11 -53 -13 -69 -20 -121 -4 -30
-8 -56 -10 -59 -2 -3 -6 -26 -10 -50 -3 -25 -13 -85 -21 -135 -8 -49 -17 -103
-20 -120 -3 -16 -7 -37 -9 -45 -3 -8 -7 -37 -9 -64 -3 -27 -7 -50 -8 -51 -3
-3 -76 -8 -94 -6 -6 1 -11 28 -11 64 -1 34 -4 94 -7 132 -4 39 -9 101 -11 139
-3 38 -10 87 -16 108 -12 47 -60 103 -108 127 -95 47 -278 -14 -389 -129 -21
-22 -33 -25 -96 -26 -75 -1 -107 -13 -166 -64 -22 -19 -25 -31 -26 -87 -1 -69
10 -152 27 -194 23 -60 185 -103 243 -65 19 12 31 14 51 6 34 -13 106 -15 171
-6 57 8 61 6 69 -47 l6 -35 -68 -20 c-37 -12 -95 -28 -128 -37 -136 -38 -202
-56 -450 -128 -143 -41 -286 -80 -318 -87 -102 -21 -282 -90 -325 -124 -50
-41 -102 -106 -118 -146 -3 -8 -11 -26 -17 -39 -7 -13 -12 -65 -12 -115 0 -80
4 -98 28 -146 30 -59 97 -140 115 -140 7 0 12 -3 12 -7 0 -5 24 -19 53 -33 28
-14 55 -29 59 -35 4 -5 8 -6 8 -2 0 4 9 3 21 -4 28 -14 17 -23 -61 -44 -94
-25 -143 -52 -135 -73 4 -9 13 -39 20 -67 8 -27 40 -142 73 -255 76 -263 117
-354 205 -446 20 -22 37 -42 37 -46 0 -5 7 -8 15 -8 8 0 15 -4 15 -9 0 -12 96
-65 135 -76 17 -4 37 -10 45 -12 37 -11 191 -12 250 -2 36 6 119 27 185 46 66
19 127 36 135 38 8 2 125 35 260 75 135 39 254 73 265 75 11 3 90 25 175 51
218 64 312 113 409 214 43 44 96 140 105 190 2 14 7 41 10 60 21 117 4 250
-59 455 -7 22 -32 110 -55 195 -24 85 -45 157 -47 159 -7 9 -80 0 -149 -19
-41 -11 -82 -20 -92 -20 -15 0 -14 3 4 18 31 25 75 88 67 95 -3 4 -1 7 5 7 7
0 12 9 12 19 0 11 5 23 10 26 6 3 10 15 10 26 0 17 5 20 28 15 24 -5 167 -29
247 -42 17 -2 57 -9 90 -15 33 -6 71 -12 85 -14 14 -2 95 -16 180 -30 179 -31
199 -33 259 -16 68 19 125 62 165 123 25 38 62 162 71 238 2 14 6 41 9 60 4
19 9 49 12 65 2 17 9 53 14 80 5 28 12 68 15 90 3 22 7 51 10 65 3 14 7 39 10
55 2 17 6 39 8 50 3 11 8 42 11 68 4 26 11 71 17 100 10 56 19 107 23 141 2
11 6 37 10 56 8 45 13 73 32 189 8 51 23 110 34 130 25 50 85 177 140 301 26
58 61 134 78 170 16 36 78 171 137 300 59 129 121 264 137 300 16 36 38 83 48
105 10 22 39 84 64 138 25 54 46 100 46 102 0 2 23 52 51 112 47 99 70 150 74
163 1 3 13 31 28 63 15 31 38 81 51 110 13 28 42 92 65 140 23 49 41 90 41 92
0 3 22 51 49 107 26 57 58 126 70 153 29 64 39 87 129 280 41 88 79 175 85
193 6 17 14 32 18 32 4 0 10 11 13 25 3 13 25 64 47 112 23 48 54 115 69 148
15 33 38 85 53 115 25 55 44 96 120 265 22 50 43 92 47 95 4 3 25 41 45 85 46
99 52 166 21 228 -26 53 -80 80 -203 102 -162 29 -248 45 -273 50 -14 3 -38 8
-55 10 -16 3 -75 14 -130 25 -55 10 -113 21 -130 24 -36 6 -190 34 -225 41
-14 3 -41 8 -60 11 -415 76 -526 96 -530 99 -3 1 -27 6 -55 9 -27 4 -57 9 -65
11 -8 2 -26 6 -40 9 -26 4 -176 32 -220 41 -13 2 -42 7 -65 10 -22 4 -56 10
-75 15 -19 5 -55 12 -80 16 -71 10 -83 13 -110 18 -23 5 -111 22 -170 32 -32
6 -189 35 -215 40 -11 2 -45 8 -75 14 -30 6 -66 12 -80 15 -27 5 -129 24 -170
31 -14 3 -86 16 -160 30 -74 14 -157 29 -185 34 -27 5 -88 16 -135 25 -47 9
-94 18 -105 20 -11 2 -45 8 -75 14 -30 5 -129 23 -220 40 -91 17 -178 33 -195
36 -16 3 -39 8 -50 10 -11 2 -46 8 -77 14 -32 6 -82 15 -110 20 -29 5 -75 14
-102 21 -27 6 -51 8 -54 6 -2 -3 -12 -1 -21 3 -9 5 -34 11 -56 14 -22 3 -47 8
-55 11 -8 3 -33 7 -55 10 -22 3 -85 14 -140 25 -55 11 -120 22 -145 26 -24 4
-47 8 -50 10 -12 7 -193 35 -228 35 -20 -1 -54 -7 -74 -14z m-956 -4387 c52
-12 118 -51 137 -81 6 -10 16 -50 20 -88 9 -71 26 -105 85 -168 23 -25 31 -42
32 -77 4 -87 82 -169 161 -170 44 0 44 0 249 -207 112 -113 204 -211 204 -217
0 -15 33 -85 43 -89 4 -2 7 -9 7 -16 0 -14 55 -66 70 -66 5 0 10 -4 10 -10 0
-5 9 -10 20 -10 11 0 20 -4 20 -8 0 -4 15 -14 34 -20 20 -7 54 -36 82 -70 27
-31 54 -63 61 -70 7 -7 13 -20 13 -29 0 -13 -11 -15 -69 -10 -162 15 -383 107
-424 177 -24 41 -38 53 -203 186 -78 62 -161 137 -185 166 -24 29 -47 55 -51
56 -5 2 -8 8 -8 12 0 5 -13 28 -29 52 -15 24 -43 83 -62 132 -40 103 -78 151
-177 221 -76 53 -79 58 -112 175 -12 41 -33 90 -47 108 -24 31 -35 105 -19
130 6 11 68 6 138 -9z m68 -623 c0 -12 -5 -7 -19 24 -11 24 -11 24 3 6 9 -11
16 -24 16 -30z m-481 -298 c10 -30 9 -31 -4 -14 -8 11 -15 26 -15 33 0 22 8
14 19 -19z"/>
</g>
</svg>
