<svg width="88" height="74" viewBox="0 0 88 74" fill="none" xmlns="http://www.w3.org/2000/svg">
<circle cx="44" cy="36.9999" r="37" transform="rotate(180 44 36.9999)" fill="white"/>
<g filter="url(#filter0_dd_71_21)">
<path d="M63.0607 38.0605C63.6464 37.4748 63.6464 36.525 63.0607 35.9392L53.5147 26.3933C52.9289 25.8075 51.9792 25.8075 51.3934 26.3933C50.8076 26.9791 50.8076 27.9288 51.3934 28.5146L59.8787 36.9999L51.3934 45.4852C50.8076 46.0709 50.8076 47.0207 51.3934 47.6065C51.9792 48.1923 52.9289 48.1923 53.5147 47.6065L63.0607 38.0605ZM24 38.4999L62 38.4999V35.4999L24 35.4999L24 38.4999Z" fill="#407B9F"/>
</g>
<defs>
<filter id="filter0_dd_71_21" x="0" y="1.95392" width="87.5" height="70.0919" filterUnits="userSpaceOnUse" color-interpolation-filters="sRGB">
<feFlood flood-opacity="0" result="BackgroundImageFix"/>
<feColorMatrix in="SourceAlpha" type="matrix" values="0 0 0 0 0 0 0 0 0 0 0 0 0 0 0 0 0 0 127 0" result="hardAlpha"/>
<feOffset/>
<feGaussianBlur stdDeviation="12"/>
<feColorMatrix type="matrix" values="0 0 0 0 1 0 0 0 0 1 0 0 0 0 1 0 0 0 1 0"/>
<feBlend mode="normal" in2="BackgroundImageFix" result="effect1_dropShadow_71_21"/>
<feColorMatrix in="SourceAlpha" type="matrix" values="0 0 0 0 0 0 0 0 0 0 0 0 0 0 0 0 0 0 127 0" result="hardAlpha"/>
<feOffset/>
<feGaussianBlur stdDeviation="12"/>
<feColorMatrix type="matrix" values="0 0 0 0 1 0 0 0 0 1 0 0 0 0 1 0 0 0 1 0"/>
<feBlend mode="normal" in2="effect1_dropShadow_71_21" result="effect2_dropShadow_71_21"/>
<feBlend mode="normal" in="SourceGraphic" in2="effect2_dropShadow_71_21" result="shape"/>
</filter>
</defs>
</svg>
