<svg width="18" height="19" viewBox="0 0 18 19" fill="none" xmlns="http://www.w3.org/2000/svg">
<path d="M7.23078 10.9591C5.84895 9.29262 5.64715 7.74265 5.62654 7.1276C5.62061 6.95752 5.69453 6.79483 5.82653 6.68745L7.1751 5.58299C7.37348 5.42056 7.43207 5.14266 7.31638 4.9129L5.63732 1.6859C5.50935 1.4315 5.20854 1.31454 4.94271 1.41583L1.65135 2.58132C1.43654 2.66162 1.29536 2.86672 1.29741 3.09553C1.31604 4.67274 1.63993 8.57737 5.077 12.7228C8.51407 16.8683 12.3074 17.9294 13.8622 18.2488C14.0877 18.2945 14.3172 18.1959 14.4375 18.0016L16.2167 15.0124C16.367 14.7729 16.3094 14.4579 16.0836 14.2843L13.2176 12.0304C13.0129 11.8735 12.7273 11.8774 12.5289 12.0398L11.1809 13.1448C11.0496 13.2531 10.8749 13.2942 10.708 13.256C10.1046 13.1184 8.61261 12.6256 7.23078 10.9591Z" fill="#59B3EA"/>
<path d="M13.3593 10.7276C13.0552 10.6976 12.8317 10.428 12.8601 10.1255C13.0705 7.85757 11.3957 5.83746 9.11643 5.60978C8.81235 5.57976 8.58887 5.31019 8.61727 5.00769C8.64568 4.70519 8.91521 4.4843 9.21929 4.51433C12.1064 4.80264 14.2278 7.3615 13.9613 10.2343C13.9329 10.5368 13.6633 10.7576 13.3593 10.7276Z" fill="#59B3EA"/>
<path d="M16.1122 10.9923C15.8081 10.9622 15.5846 10.6927 15.613 10.3901C15.9636 6.61011 13.1724 3.24314 9.37351 2.86372C9.06943 2.83369 8.84595 2.56412 8.87435 2.26161C8.90276 1.9591 9.17229 1.73821 9.47637 1.76824C13.8831 2.20829 17.121 6.11403 16.7142 10.4989C16.7006 10.6442 16.6295 10.7778 16.5166 10.8703C16.4037 10.9628 16.2582 11.0067 16.1122 10.9923Z" fill="#59B3EA"/>
</svg>
