<svg width="32" height="31" viewBox="0 0 32 31" fill="none" xmlns="http://www.w3.org/2000/svg">
<g clip-path="url(#clip0_30_61)">
<path d="M3.33331 0H28.6666C30.5076 0 32 1.44574 32 3.22915V27.7708C32 29.5543 30.5076 31 28.6667 31H3.33331C1.49238 31 0 29.5543 0 27.7709V3.22915C0 1.44574 1.49238 0 3.33331 0Z" fill="#59B3EA"/>
<path d="M24.6667 9.04165H27.3334C27.7016 9.04165 28.0001 8.75247 28.0001 8.39579V4.52079C28.0001 4.16417 27.7016 3.875 27.3334 3.875H24.6667C20.6166 3.875 17.3334 7.05565 17.3334 10.9791V14.2083H14.0001C13.6319 14.2083 13.3334 14.4975 13.3334 14.8541V18.7291C13.3334 19.0858 13.6319 19.375 14.0001 19.375H17.3334V31H22.6667V19.375H26.0001C26.2869 19.3748 26.5414 19.1969 26.6321 18.9333L27.9654 15.0582C28.0817 14.7199 27.8929 14.3541 27.5436 14.2414C27.4758 14.2196 27.4048 14.2084 27.3334 14.2083H22.6667V10.9791C22.6667 9.9091 23.5622 9.04165 24.6667 9.04165Z" fill="#FAFAFA"/>
</g>
<defs>
<clipPath id="clip0_30_61">
<rect width="32" height="31" fill="white"/>
</clipPath>
</defs>
</svg>
