<svg width="31" height="31" viewBox="0 0 31 31" fill="none" xmlns="http://www.w3.org/2000/svg">
<g clip-path="url(#clip0_30_64)">
<path d="M1.93749 2.1093C-0.49859 4.63967 -7.1153e-06 7.32763 -7.1153e-06 15.4935C-7.1153e-06 22.2748 -1.18317 29.0728 5.00908 30.6732C6.9427 31.1705 24.0754 31.1705 26.0064 30.6706C28.5846 30.0054 30.6822 27.9142 30.969 24.2678C31.009 23.7589 31.009 7.23722 30.9677 6.71797C30.6629 2.83393 28.272 0.595467 25.1216 0.142092C24.3996 0.0374674 24.2549 0.00646738 20.5504 9.04873e-06C7.41028 0.00646738 4.52987 -0.578658 1.93749 2.1093Z" fill="#59B3EA"/>
<path d="M15.4974 4.0545C10.8073 4.0545 6.35367 3.6373 4.65255 8.00313C3.94988 9.8063 4.05192 12.1481 4.05192 15.5013C4.05192 18.4437 3.95763 21.2091 4.65255 22.9981C6.3498 27.3665 10.8396 26.948 15.4948 26.948C19.9859 26.948 24.6165 27.4156 26.3383 22.9981C27.0423 21.1768 26.939 18.8699 26.939 15.5013C26.939 11.0295 27.1857 8.14263 25.017 5.97521C22.8211 3.77938 19.8516 4.0545 15.4922 4.0545H15.4974ZM14.4718 6.1173C24.2549 6.1018 25.5 5.01421 24.8129 20.1228C24.5688 25.4665 20.5 24.88 15.4987 24.88C6.3795 24.88 6.1173 24.6191 6.1173 15.4961C6.1173 6.26713 6.84063 6.12246 14.4718 6.11471V6.1173ZM21.607 8.01734C20.8488 8.01734 20.2339 8.63217 20.2339 9.39038C20.2339 10.1486 20.8488 10.7634 21.607 10.7634C22.3652 10.7634 22.98 10.1486 22.98 9.39038C22.98 8.63217 22.3652 8.01734 21.607 8.01734ZM15.4974 9.62288C12.2514 9.62288 9.6203 12.2553 9.6203 15.5013C9.6203 18.7472 12.2514 21.3783 15.4974 21.3783C18.7433 21.3783 21.3732 18.7472 21.3732 15.5013C21.3732 12.2553 18.7433 9.62288 15.4974 9.62288ZM15.4974 11.6857C20.5413 11.6857 20.5478 19.3168 15.4974 19.3168C10.4547 19.3168 10.447 11.6857 15.4974 11.6857Z" fill="white"/>
</g>
<defs>
<clipPath id="clip0_30_64">
<rect width="31" height="31" fill="white"/>
</clipPath>
</defs>
</svg>
