<svg width="31" height="31" viewBox="0 0 31 31" fill="none" xmlns="http://www.w3.org/2000/svg">
<g clip-path="url(#clip0_30_58)">
<path d="M29.0246 0H1.97975C0.885964 0 0 0.885964 0 1.97756V29.0224C0 30.114 0.885964 31 1.97975 31H29.0224C30.114 31 31 30.114 31 29.0224V1.97756C31.0022 0.883777 30.1162 0 29.0246 0ZM25.7148 18.8896C26.2814 19.4672 27.5108 20.4362 27.2877 21.4228C27.0821 22.3285 25.7302 21.9982 24.4176 22.0507C22.9191 22.1141 22.031 22.1469 21.1297 21.4228C20.7053 21.0794 20.4559 20.6725 20.049 20.2175C19.6793 19.8062 19.2134 19.069 18.579 19.0975C17.4393 19.1543 17.7959 20.7425 17.3912 21.8253C11.056 22.8229 8.51182 18.9093 6.26738 15.1117C5.18016 13.272 3.60948 9.32122 3.60948 9.32122L8.08962 9.30591C8.08962 9.30591 9.52685 11.92 9.90749 12.5938C10.2312 13.167 10.5878 13.622 10.9553 14.1339C11.2638 14.5583 11.7516 15.3895 12.2854 15.3217C13.1538 15.2101 13.3113 11.8413 12.7732 10.7125C12.5588 10.2553 12.0447 10.0956 11.5132 9.9403C11.6925 8.80714 16.538 8.57088 17.3211 9.45029C18.4587 10.7278 16.5336 14.2848 18.0912 15.3217C20.2787 14.1754 22.1469 9.37591 22.1469 9.37591L27.3927 9.40872C27.3927 9.40872 26.5724 12.0032 25.7127 13.1538C25.2117 13.8276 23.5492 15.3283 23.6148 16.4417C23.6673 17.3233 25.0192 18.1809 25.7148 18.8896Z" fill="#59B3EA"/>
</g>
<defs>
<clipPath id="clip0_30_58">
<rect width="31" height="31" fill="white"/>
</clipPath>
</defs>
</svg>
