<svg width="18" height="20" viewBox="0 0 18 20" fill="none" xmlns="http://www.w3.org/2000/svg">
<mask id="path-1-outside-1_5_97" maskUnits="userSpaceOnUse" x="0.125" y="0" width="18" height="20" fill="black">
<rect fill="white" x="0.125" width="18" height="20"/>
<path fill-rule="evenodd" clip-rule="evenodd" d="M3.93751 1H16.3125C16.6234 1 16.875 1.25158 16.875 1.56251V18.4375C16.875 18.7484 16.6234 19 16.3125 19H3.93751C3.62658 19 3.375 18.7484 3.375 18.4375V16.75H4.50001V17.875H15.75V2.12501H4.50001V3.24999H3.375V1.56251C3.375 1.25158 3.62658 1 3.93751 1ZM7.47727 13.773L6.68187 12.9775L9.09669 10.5628H1.125V9.43774H9.09666L6.68187 7.02294L7.47727 6.22754L11.25 10.0002L7.47727 13.773Z"/>
</mask>
<path fill-rule="evenodd" clip-rule="evenodd" d="M3.93751 1H16.3125C16.6234 1 16.875 1.25158 16.875 1.56251V18.4375C16.875 18.7484 16.6234 19 16.3125 19H3.93751C3.62658 19 3.375 18.7484 3.375 18.4375V16.75H4.50001V17.875H15.75V2.12501H4.50001V3.24999H3.375V1.56251C3.375 1.25158 3.62658 1 3.93751 1ZM7.47727 13.773L6.68187 12.9775L9.09669 10.5628H1.125V9.43774H9.09666L6.68187 7.02294L7.47727 6.22754L11.25 10.0002L7.47727 13.773Z" fill="#407B9F"/>
<path d="M3.375 16.75V16.25H2.875V16.75H3.375ZM4.50001 16.75H5.00001V16.25H4.50001V16.75ZM4.50001 17.875H4.00001V18.375H4.50001V17.875ZM15.75 17.875V18.375H16.25V17.875H15.75ZM15.75 2.12501H16.25V1.62501H15.75V2.12501ZM4.50001 2.12501V1.62501H4.00001V2.12501H4.50001ZM4.50001 3.24999V3.74999H5.00001V3.24999H4.50001ZM3.375 3.24999H2.875V3.74999H3.375V3.24999ZM6.68187 12.9775L6.32832 12.624L5.97476 12.9775L6.32831 13.3311L6.68187 12.9775ZM7.47727 13.773L7.12372 14.1265L7.47727 14.4801L7.83083 14.1265L7.47727 13.773ZM9.09669 10.5628L9.45025 10.9163L10.3038 10.0628H9.09669V10.5628ZM1.125 10.5628H0.625V11.0628H1.125V10.5628ZM1.125 9.43774V8.93774H0.625V9.43774H1.125ZM9.09666 9.43774V9.93774H10.3038L9.45022 9.08419L9.09666 9.43774ZM6.68187 7.02294L6.32831 6.66939L5.97476 7.02294L6.32831 7.3765L6.68187 7.02294ZM7.47727 6.22754L7.83083 5.87399L7.47727 5.52043L7.12372 5.87399L7.47727 6.22754ZM11.25 10.0002L11.6035 10.3538L11.9571 10.0002L11.6035 9.64669L11.25 10.0002ZM16.3125 0.5H3.93751V1.5H16.3125V0.5ZM17.375 1.56251C17.375 0.97542 16.8995 0.5 16.3125 0.5V1.5C16.3473 1.5 16.375 1.52774 16.375 1.56251H17.375ZM17.375 18.4375V1.56251H16.375V18.4375H17.375ZM16.3125 19.5C16.8996 19.5 17.375 19.0246 17.375 18.4375H16.375C16.375 18.4723 16.3473 18.5 16.3125 18.5V19.5ZM3.93751 19.5H16.3125V18.5H3.93751V19.5ZM2.875 18.4375C2.875 19.0246 3.35044 19.5 3.93751 19.5V18.5C3.90272 18.5 3.875 18.4723 3.875 18.4375H2.875ZM2.875 16.75V18.4375H3.875V16.75H2.875ZM4.50001 16.25H3.375V17.25H4.50001V16.25ZM5.00001 17.875V16.75H4.00001V17.875H5.00001ZM15.75 17.375H4.50001V18.375H15.75V17.375ZM15.25 2.12501V17.875H16.25V2.12501H15.25ZM4.50001 2.62501H15.75V1.62501H4.50001V2.62501ZM5.00001 3.24999V2.12501H4.00001V3.24999H5.00001ZM3.375 3.74999H4.50001V2.74999H3.375V3.74999ZM2.875 1.56251V3.24999H3.875V1.56251H2.875ZM3.93751 0.5C3.35044 0.5 2.875 0.975439 2.875 1.56251H3.875C3.875 1.52772 3.90272 1.5 3.93751 1.5V0.5ZM6.32831 13.3311L7.12372 14.1265L7.83083 13.4194L7.03542 12.624L6.32831 13.3311ZM8.74314 10.2092L6.32832 12.624L7.03542 13.3311L9.45025 10.9163L8.74314 10.2092ZM1.125 11.0628H9.09669V10.0628H1.125V11.0628ZM0.625 9.43774V10.5628H1.625V9.43774H0.625ZM9.09666 8.93774H1.125V9.93774H9.09666V8.93774ZM6.32831 7.3765L8.74311 9.79129L9.45022 9.08419L7.03542 6.66939L6.32831 7.3765ZM7.12372 5.87399L6.32831 6.66939L7.03542 7.3765L7.83083 6.58109L7.12372 5.87399ZM11.6035 9.64669L7.83083 5.87399L7.12372 6.58109L10.8964 10.3538L11.6035 9.64669ZM7.83083 14.1265L11.6035 10.3538L10.8964 9.64669L7.12372 13.4194L7.83083 14.1265Z" fill="#407B9F" mask="url(#path-1-outside-1_5_97)"/>
</svg>
