<svg width="16" height="16" viewBox="0 0 16 16" fill="none" xmlns="http://www.w3.org/2000/svg">
<g clip-path="url(#clip0_5_69)">
<path d="M6.62534 9.37459C5.09817 7.84742 4.75334 6.32025 4.67555 5.70838C4.65381 5.5392 4.71203 5.36954 4.83306 5.24935L6.06893 4.01404C6.25072 3.83235 6.28298 3.54921 6.14672 3.33128L4.17899 0.275833C4.02824 0.0345219 3.7187 -0.0525695 3.46424 0.0747292L0.305339 1.56245C0.0995625 1.66378 -0.0214727 1.88241 0.00189102 2.11059C0.167408 3.683 0.852925 7.54838 4.65155 11.3473C8.45017 15.1462 12.315 15.8314 13.8882 15.9969C14.1164 16.0203 14.335 15.8993 14.4364 15.6935L15.9241 12.5346C16.0509 12.2807 15.9644 11.972 15.7241 11.8209L12.6686 9.85376C12.4508 9.71736 12.1677 9.74939 11.9859 9.931L10.7506 11.1669C10.6304 11.2879 10.4607 11.3461 10.2915 11.3244C9.67968 11.2466 8.15251 10.9018 6.62534 9.37459Z" fill="white"/>
<path d="M12.6896 8.55171C12.3849 8.55171 12.1379 8.30469 12.1379 7.99998C12.1353 5.71574 10.2842 3.86464 7.99997 3.86205C7.69526 3.86205 7.44824 3.61504 7.44824 3.31033C7.44824 3.00562 7.69526 2.75861 7.99997 2.75861C10.8934 2.7618 13.2381 5.10657 13.2413 7.99998C13.2413 8.30469 12.9943 8.55171 12.6896 8.55171Z" fill="white"/>
<path d="M15.4482 8.55172C15.1435 8.55172 14.8965 8.30471 14.8965 8C14.8923 4.1929 11.8071 1.10771 7.99997 1.10345C7.69526 1.10345 7.44824 0.856433 7.44824 0.551724C7.44824 0.247015 7.69526 0 7.99997 0C12.4162 0.00486507 15.9951 3.58374 16 8C16 8.14633 15.9418 8.28666 15.8384 8.39013C15.7349 8.4936 15.5946 8.55172 15.4482 8.55172Z" fill="white"/>
</g>
<defs>
<clipPath id="clip0_5_69">
<rect width="16" height="16" fill="white"/>
</clipPath>
</defs>
</svg>
