<svg width="31" height="31" viewBox="0 0 31 31" fill="none" xmlns="http://www.w3.org/2000/svg">
<path d="M16.7918 25.8333C17.1344 25.8333 17.4629 25.9694 17.7051 26.2116C17.9474 26.4539 18.0835 26.7824 18.0835 27.125C18.0835 27.4676 17.9474 27.7961 17.7051 28.0383C17.4629 28.2806 17.1344 28.4167 16.7918 28.4167C16.4492 28.4167 16.1207 28.2806 15.8784 28.0383C15.6362 27.7961 15.5001 27.4676 15.5001 27.125C15.5001 26.7824 15.6362 26.4539 15.8784 26.2116C16.1207 25.9694 16.4492 25.8333 16.7918 25.8333ZM12.271 24.5417C12.6135 24.5417 12.9421 24.6777 13.1843 24.92C13.4265 25.1622 13.5626 25.4908 13.5626 25.8333C13.5626 26.1759 13.4265 26.5044 13.1843 26.7467C12.9421 26.9889 12.6135 27.125 12.271 27.125C11.9284 27.125 11.5998 26.9889 11.3576 26.7467C11.1154 26.5044 10.9793 26.1759 10.9793 25.8333C10.9793 25.4908 11.1154 25.1622 11.3576 24.92C11.5998 24.6777 11.9284 24.5417 12.271 24.5417ZM21.3126 24.5417C21.6552 24.5417 21.9837 24.6777 22.226 24.92C22.4682 25.1622 22.6043 25.4908 22.6043 25.8333C22.6043 26.1759 22.4682 26.5044 22.226 26.7467C21.9837 26.9889 21.6552 27.125 21.3126 27.125C20.9701 27.125 20.6415 26.9889 20.3993 26.7467C20.157 26.5044 20.021 26.1759 20.021 25.8333C20.021 25.4908 20.157 25.1622 20.3993 24.92C20.6415 24.6777 20.9701 24.5417 21.3126 24.5417ZM16.7944 7.76162C20.8864 7.76162 23.2088 10.4702 23.5459 13.742H23.6492C24.2748 13.7412 24.8943 13.8636 25.4725 14.1022C26.0507 14.3408 26.5763 14.691 27.0191 15.1328C27.4619 15.5746 27.8134 16.0992 28.0535 16.6769C28.2935 17.2545 28.4174 17.8737 28.4181 18.4992C28.4172 19.1246 28.2932 19.7438 28.0531 20.3212C27.813 20.8987 27.4615 21.4232 27.0186 21.8649C26.5758 22.3065 26.0503 22.6566 25.4722 22.8951C24.8941 23.1337 24.2747 23.256 23.6492 23.2552H9.93821C9.3128 23.256 8.69336 23.1337 8.11523 22.8951C7.53711 22.6566 7.01164 22.3065 6.56881 21.8649C6.12598 21.4232 5.77448 20.8987 5.53436 20.3212C5.29425 19.7438 5.17022 19.1246 5.16938 18.4992C5.17005 17.8737 5.29395 17.2545 5.53399 16.6769C5.77403 16.0992 6.12551 15.5746 6.56835 15.1328C7.0112 14.691 7.53673 14.3408 8.11494 14.1022C8.69314 13.8636 9.3127 13.7412 9.93821 13.742H10.0415C10.3813 10.4483 12.7024 7.76162 16.7944 7.76162ZM16.7944 9.69524C14.118 9.69524 11.7866 11.8058 11.7866 14.7198C11.7866 15.1809 11.3745 15.5439 10.9031 15.5439H10.0118C8.38175 15.5439 7.06167 16.8356 7.06167 18.4321C7.06167 20.0273 8.38175 21.3202 10.0105 21.3202H23.5769C25.2057 21.3202 26.5258 20.0286 26.5258 18.4321C26.5258 16.8369 25.2057 15.5439 23.5769 15.5439H22.6857C22.2129 15.5439 21.8009 15.1822 21.8009 14.7198C21.8009 11.7684 19.4694 9.69524 16.7944 9.69524ZM5.64083 13.1285C5.73066 13.3448 5.73906 13.5864 5.66449 13.8084C5.58992 14.0304 5.43743 14.2179 5.23525 14.3362L5.11642 14.3943L3.92033 14.8903C3.69383 14.9826 3.44079 14.9859 3.21201 14.8993C2.98324 14.8128 2.79565 14.643 2.68692 14.4239C2.57819 14.2048 2.55636 13.9527 2.62582 13.7181C2.69527 13.4836 2.85087 13.284 3.06138 13.1595L3.17892 13.1001L4.375 12.6041C4.49255 12.5554 4.61854 12.5303 4.74577 12.5303C4.87301 12.5303 4.999 12.5554 5.11654 12.6041C5.23409 12.6528 5.34089 12.7242 5.43085 12.8141C5.52081 12.9041 5.59216 13.0109 5.64083 13.1285ZM14.0199 6.88587L13.799 6.96078C13.1272 7.19624 12.4923 7.52589 11.9132 7.93987C11.2913 7.73785 10.6219 7.73412 9.99782 7.92916C9.3737 8.12421 8.82562 8.50841 8.42942 9.0286C8.03321 9.54879 7.80847 10.1793 7.78627 10.8328C7.76408 11.4863 7.94554 12.1305 8.30554 12.6764C7.67556 12.8531 7.079 13.1324 6.53983 13.5031C5.94782 12.4855 5.72669 11.2943 5.91406 10.1321C6.10144 8.96985 6.68574 7.90847 7.56754 7.12854C8.44934 6.34861 9.57415 5.89832 10.7506 5.85431C11.927 5.8103 13.0823 6.17529 14.0199 6.88716V6.88587ZM3.79892 6.92591L3.93454 6.97112L5.13063 7.46712C5.35494 7.56167 5.53543 7.73722 5.63619 7.95882C5.73695 8.18042 5.75059 8.43183 5.67439 8.66303C5.59819 8.89422 5.43775 9.08826 5.22498 9.20653C5.0122 9.3248 4.76271 9.35862 4.52613 9.30128L4.38921 9.25737L3.19313 8.76137C2.96822 8.66709 2.78714 8.49145 2.68604 8.26951C2.58495 8.04758 2.57128 7.79569 2.64777 7.56412C2.72425 7.33255 2.88526 7.13835 3.09864 7.02028C3.31203 6.90222 3.5621 6.86898 3.79892 6.9272V6.92591ZM8.72663 3.06899L8.78475 3.18653L9.28075 4.38262C9.37441 4.60932 9.37858 4.86311 9.29243 5.09277C9.20628 5.32243 9.03622 5.51085 8.81657 5.62002C8.59691 5.7292 8.34403 5.75098 8.10894 5.68098C7.87385 5.61098 7.67407 5.45441 7.54992 5.24287L7.4905 5.12403L6.9945 3.92795C6.90218 3.70145 6.89896 3.44841 6.98548 3.21963C7.072 2.99085 7.24185 2.80327 7.46095 2.69454C7.68005 2.5858 7.93216 2.56398 8.16669 2.63343C8.40121 2.70289 8.60078 2.85849 8.72533 3.06899H8.72663ZM14.3492 2.65695C14.5637 2.74596 14.7391 2.90903 14.8434 3.11648C14.9477 3.32392 14.974 3.56193 14.9176 3.78716L14.8737 3.92278L14.3777 5.11887C14.2831 5.34318 14.1076 5.52367 13.886 5.62443C13.6644 5.72519 13.413 5.73883 13.1818 5.66263C12.9506 5.58643 12.7565 5.42599 12.6383 5.21321C12.52 5.00044 12.4862 4.75095 12.5435 4.51437L12.5887 4.37745L13.0834 3.18137C13.1321 3.06381 13.2034 2.95699 13.2934 2.86701C13.3834 2.77703 13.4902 2.70565 13.6077 2.65696C13.7253 2.60826 13.8512 2.58319 13.9785 2.58319C14.1057 2.58319 14.2317 2.60825 14.3492 2.65695Z" fill="black"/>
</svg>
