<svg width="2278" height="364" viewBox="0 0 2278 364" fill="none" xmlns="http://www.w3.org/2000/svg">
<rect x="107.557" width="305.177" height="2.39919" rx="1.19959" transform="rotate(45 107.557 0)" fill="#DEDEDE"/>
<rect x="89.9135" y="17.6434" width="305.177" height="2.39919" rx="1.19959" transform="rotate(45 89.9135 17.6434)" fill="#DEDEDE"/>
<rect x="72.27" y="35.2868" width="305.177" height="2.39919" rx="1.19959" transform="rotate(45 72.27 35.2868)" fill="#DEDEDE"/>
<rect x="77.0203" y="110.611" width="305.177" height="2.39919" rx="1.19959" transform="rotate(45 77.0203 110.611)" fill="#DEDEDE"/>
<rect x="59.3768" y="128.254" width="305.177" height="2.39919" rx="1.19959" transform="rotate(45 59.3768 128.254)" fill="#DEDEDE"/>
<rect x="41.7334" y="145.897" width="305.177" height="2.39919" rx="1.19959" transform="rotate(45 41.7334 145.897)" fill="#DEDEDE"/>
<rect x="426.557" width="305.177" height="2.39919" rx="1.19959" transform="rotate(45 426.557 0)" fill="#DEDEDE"/>
<rect x="408.913" y="17.6434" width="305.177" height="2.39919" rx="1.19959" transform="rotate(45 408.913 17.6434)" fill="#DEDEDE"/>
<rect x="391.27" y="35.2868" width="305.177" height="2.39919" rx="1.19959" transform="rotate(45 391.27 35.2868)" fill="#DEDEDE"/>
<rect x="396.02" y="110.611" width="305.177" height="2.39919" rx="1.19959" transform="rotate(45 396.02 110.611)" fill="#DEDEDE"/>
<rect x="378.377" y="128.254" width="305.177" height="2.39919" rx="1.19959" transform="rotate(45 378.377 128.254)" fill="#DEDEDE"/>
<rect x="360.733" y="145.897" width="305.177" height="2.39919" rx="1.19959" transform="rotate(45 360.733 145.897)" fill="#DEDEDE"/>
<rect x="745.557" width="305.177" height="2.39919" rx="1.19959" transform="rotate(45 745.557 0)" fill="#DEDEDE"/>
<rect x="727.913" y="17.6434" width="305.177" height="2.39919" rx="1.19959" transform="rotate(45 727.913 17.6434)" fill="#DEDEDE"/>
<rect x="710.27" y="35.2868" width="305.177" height="2.39919" rx="1.19959" transform="rotate(45 710.27 35.2868)" fill="#DEDEDE"/>
<rect x="715.02" y="110.611" width="305.177" height="2.39919" rx="1.19959" transform="rotate(45 715.02 110.611)" fill="#DEDEDE"/>
<rect x="697.377" y="128.254" width="305.177" height="2.39919" rx="1.19959" transform="rotate(45 697.377 128.254)" fill="#DEDEDE"/>
<rect x="679.733" y="145.897" width="305.177" height="2.39919" rx="1.19959" transform="rotate(45 679.733 145.897)" fill="#DEDEDE"/>
<rect x="1064.56" width="305.177" height="2.39919" rx="1.19959" transform="rotate(45 1064.56 0)" fill="#DEDEDE"/>
<rect x="1046.91" y="17.6434" width="305.177" height="2.39919" rx="1.19959" transform="rotate(45 1046.91 17.6434)" fill="#DEDEDE"/>
<rect x="1029.27" y="35.2868" width="305.177" height="2.39919" rx="1.19959" transform="rotate(45 1029.27 35.2868)" fill="#DEDEDE"/>
<rect x="1034.02" y="110.611" width="305.177" height="2.39919" rx="1.19959" transform="rotate(45 1034.02 110.611)" fill="#DEDEDE"/>
<rect x="1016.38" y="128.254" width="305.177" height="2.39919" rx="1.19959" transform="rotate(45 1016.38 128.254)" fill="#DEDEDE"/>
<rect x="998.733" y="145.897" width="305.177" height="2.39919" rx="1.19959" transform="rotate(45 998.733 145.897)" fill="#DEDEDE"/>
<rect x="1383.56" width="305.177" height="2.39919" rx="1.19959" transform="rotate(45 1383.56 0)" fill="#DEDEDE"/>
<rect x="1365.91" y="17.6434" width="305.177" height="2.39919" rx="1.19959" transform="rotate(45 1365.91 17.6434)" fill="#DEDEDE"/>
<rect x="1348.27" y="35.2868" width="305.177" height="2.39919" rx="1.19959" transform="rotate(45 1348.27 35.2868)" fill="#DEDEDE"/>
<rect x="1353.02" y="110.611" width="305.177" height="2.39919" rx="1.19959" transform="rotate(45 1353.02 110.611)" fill="#DEDEDE"/>
<rect x="1335.38" y="128.254" width="305.177" height="2.39919" rx="1.19959" transform="rotate(45 1335.38 128.254)" fill="#DEDEDE"/>
<rect x="1317.73" y="145.897" width="305.177" height="2.39919" rx="1.19959" transform="rotate(45 1317.73 145.897)" fill="#DEDEDE"/>
<rect x="1702.56" width="305.177" height="2.39919" rx="1.19959" transform="rotate(45 1702.56 0)" fill="#DEDEDE"/>
<rect x="1684.91" y="17.6434" width="305.177" height="2.39919" rx="1.19959" transform="rotate(45 1684.91 17.6434)" fill="#DEDEDE"/>
<rect x="1667.27" y="35.2868" width="305.177" height="2.39919" rx="1.19959" transform="rotate(45 1667.27 35.2868)" fill="#DEDEDE"/>
<rect x="1672.02" y="110.611" width="305.177" height="2.39919" rx="1.19959" transform="rotate(45 1672.02 110.611)" fill="#DEDEDE"/>
<rect x="1654.38" y="128.254" width="305.177" height="2.39919" rx="1.19959" transform="rotate(45 1654.38 128.254)" fill="#DEDEDE"/>
<rect x="1636.73" y="145.897" width="305.177" height="2.39919" rx="1.19959" transform="rotate(45 1636.73 145.897)" fill="#DEDEDE"/>
<rect x="2021.56" width="305.177" height="2.39919" rx="1.19959" transform="rotate(45 2021.56 0)" fill="#DEDEDE"/>
<rect x="2003.91" y="17.6434" width="305.177" height="2.39919" rx="1.19959" transform="rotate(45 2003.91 17.6434)" fill="#DEDEDE"/>
<rect x="1986.27" y="35.2868" width="305.177" height="2.39919" rx="1.19959" transform="rotate(45 1986.27 35.2868)" fill="#DEDEDE"/>
<rect x="1991.02" y="110.611" width="305.177" height="2.39919" rx="1.19959" transform="rotate(45 1991.02 110.611)" fill="#DEDEDE"/>
<rect x="1973.38" y="128.254" width="305.177" height="2.39919" rx="1.19959" transform="rotate(45 1973.38 128.254)" fill="#DEDEDE"/>
<rect x="1955.73" y="145.897" width="305.177" height="2.39919" rx="1.19959" transform="rotate(45 1955.73 145.897)" fill="#DEDEDE"/>
</svg>
