<svg width="82" height="68" viewBox="0 0 82 68" fill="none" xmlns="http://www.w3.org/2000/svg">
<path d="M71.1735 36.9086C71.1895 35.607 71.5259 33.8141 73.0153 33.1766C72.679 33.0305 72.2306 32.8844 72.0704 32.8047C71.4938 32.5258 71.0134 32.1805 70.581 31.7555C69.6681 30.8656 69.3958 29.8031 69.4759 28.6742C69.556 27.7312 69.8122 26.1109 70.661 25.1547C68.4829 24.132 66.561 22.6578 66.0165 20.5461C65.7923 19.7227 65.472 18.1555 65.8563 17.0531C64.8634 16.907 63.8704 16.9203 62.9255 16.5219C61.8524 16.0703 60.8755 15.4594 60.0106 14.7687C58.7134 13.7062 58.345 12.2055 58.6173 10.7711C58.5212 10.8242 58.4251 10.8773 58.345 10.9305C58.0888 11.0766 57.8485 11.2359 57.6083 11.3953C57.1599 11.6875 56.6954 11.993 56.1669 12.1922C54.4692 12.8297 52.6915 13.0422 50.8978 12.4578C48.9759 11.8336 47.086 10.6914 46.1251 9.16406C45.7888 9.60234 45.3403 9.93438 44.7638 10.2C43.4825 10.7977 42.1212 11.2094 40.6478 11.2625C38.2935 11.3422 35.9231 10.9703 33.9692 9.93438C33.761 11.3688 33.1845 12.8164 31.695 13.6266C29.9333 14.5828 28.1075 14.0383 26.2978 13.5734V14.4766H26.3778C26.3138 14.9016 26.2497 15.3133 25.9614 15.6852C25.3368 16.4953 24.0716 16.8406 22.9825 17.0398C20.8685 17.425 18.7063 17.093 16.6884 16.4953C16.8485 17.4117 17.1368 18.3148 17.0888 19.2312C17.0247 20.5062 16.5282 21.6484 15.3751 22.525C13.8216 23.707 11.7235 24.1586 9.6415 24.3578C11.0188 25.832 11.9798 27.4656 11.7876 29.4711C11.5794 31.5695 9.83369 32.8445 7.86377 33.9203C8.4083 34.4781 9.01689 34.9828 9.56143 35.5539C10.3142 36.3641 10.6185 37.2008 10.8427 38.1836C11.0669 39.1398 11.2591 40.282 10.9228 41.2383C10.6825 41.9289 10.138 42.3539 9.54541 42.7656C10.3942 43.1773 11.2431 43.5891 11.9798 44.1203C13.0688 44.9039 13.8856 45.8867 14.3821 47.0156C14.9106 48.2242 15.2149 49.8844 14.4782 51.0398C15.247 51.2125 15.9677 51.4648 16.6724 51.7836C17.7294 52.275 18.8665 52.8195 19.6032 53.6297C20.3399 54.4266 21.1087 55.6086 21.0286 56.6578C22.7103 56.618 24.4399 56.4586 25.9134 57.2422C27.4829 58.0789 28.1396 59.3539 29.1966 60.5625C30.686 60.1773 32.0153 59.4336 33.5368 59.1547C35.3306 58.8227 37.2364 58.7695 39.0462 59.0352C40.5677 59.2609 41.897 59.6328 43.1462 60.4031C43.931 60.8945 44.6677 61.4391 45.4845 61.8773C46.3653 61.4125 46.8938 60.6023 47.6306 60.018C48.4954 59.3273 49.4884 58.743 50.5774 58.318C51.6665 57.893 52.8997 57.5609 54.1169 57.5476C55.1579 57.5344 56.295 57.6672 57.32 57.4281C57.6724 52.8195 63.1017 50.2961 68.2267 50.0437C68.2427 49.9906 68.2587 49.9375 68.2907 49.8977C68.7712 48.968 68.3067 47.7859 68.3868 46.8164C68.4669 45.8336 68.8993 44.9305 69.588 44.1336C70.6771 42.8852 72.2306 41.6234 74.0884 41.2383C72.8392 39.8305 71.1415 38.7945 71.1735 36.9086ZM26.0415 28.1562C26.1696 26.0844 26.2017 23.9727 26.7142 21.9273C26.7782 21.6883 26.9384 21.5289 27.1306 21.4359C28.4118 19.643 31.2626 19.3641 33.5528 19.6164C35.0103 19.7758 36.5958 20.1609 37.6048 21.0906C38.7099 22.1266 38.7899 23.5078 38.6458 24.8094C38.5817 25.5133 38.4376 26.2039 38.3896 26.8945C38.3415 27.5586 38.4216 28.2227 38.2774 28.8867C38.0372 30.0422 37.3485 31.1844 36.0673 31.7687C34.6099 32.4328 33.0083 32.5125 31.3747 32.4461C29.9974 32.393 28.3958 32.2336 27.3388 31.4102C26.2497 30.5867 25.9774 29.3648 26.0415 28.1562ZM55.1259 44.3328C55.0618 45.0367 54.9177 45.7273 54.8696 46.418C54.8216 47.082 54.9017 47.7461 54.7575 48.4102C54.5173 49.5656 53.8286 50.7078 52.5474 51.2922C51.0899 51.9562 49.4884 52.0359 47.8548 51.9695C46.4774 51.9164 44.8759 51.757 43.8188 50.9336C42.7138 50.0836 42.4255 48.8617 42.5056 47.6531C42.6337 45.5812 42.6657 43.4695 43.1782 41.4242C43.2423 41.1852 43.4024 41.0258 43.5946 40.9328C44.8759 39.1398 47.7267 38.8609 50.0169 39.1133C51.4743 39.2727 53.0599 39.6578 54.0688 40.5875C55.1899 41.6367 55.27 43.0312 55.1259 44.3328ZM56.9196 20.4664C56.7114 22.2461 55.3021 23.7203 54.0849 25.1281C53.4282 25.8852 52.8356 26.682 52.0989 27.3992C51.3942 28.0898 50.6415 28.7539 49.9849 29.4844C48.4794 31.1445 47.2622 32.9641 45.7247 34.6109C44.2192 36.218 42.7938 37.8648 41.5446 39.6047C40.3435 41.2914 39.3825 43.0844 38.1013 44.7312C37.4927 45.5148 36.772 46.2586 36.2114 47.0687C35.731 47.7461 35.2985 48.45 34.754 49.1008C34.2735 49.6852 33.729 50.2297 32.9122 50.4953C32.2075 50.7211 31.4388 50.8008 30.686 50.8273C29.0364 50.8672 27.4028 50.6812 25.7692 50.5484C25.0646 50.4953 24.9364 49.9109 25.2087 49.4992C25.2247 49.3531 25.2888 49.207 25.4329 49.0742C31.7271 43.2703 36.6599 36.6031 42.0892 30.2547C43.4024 28.7141 44.9239 27.2531 46.0931 25.6461C47.1181 24.225 47.9349 22.6977 49.104 21.3562C49.5364 20.8516 49.9208 20.4531 50.6575 20.2805C51.2661 20.1477 51.8907 20.0414 52.5153 19.9617C53.188 19.8687 53.8446 19.7891 54.5173 19.6961C54.7735 19.6562 55.0298 19.6297 55.286 19.5898C55.286 19.5898 55.4462 19.5633 55.4782 19.55C55.4782 19.55 55.4782 19.55 55.4942 19.55C55.5423 19.5234 55.5583 19.5367 55.4942 19.55C55.4142 19.5898 55.238 19.6828 55.0938 19.8687C55.5423 19.2711 56.5353 19.4836 56.7595 19.9617C56.8716 20.0945 56.9356 20.2672 56.9196 20.4664Z" fill="#30C060"/>
<path d="M71.1735 36.9086C71.1895 35.607 71.5259 33.8141 73.0153 33.1766C72.679 33.0305 72.2306 32.8844 72.0704 32.8047C71.4938 32.5258 71.0134 32.1805 70.581 31.7555C69.6681 30.8656 69.3958 29.8031 69.4759 28.6742C69.556 27.7312 69.8122 26.1109 70.661 25.1547C68.4829 24.132 66.561 22.6578 66.0165 20.5461C65.7923 19.7227 65.472 18.1555 65.8563 17.0531C64.8634 16.907 63.8704 16.9203 62.9255 16.5219C61.8524 16.0703 60.8755 15.4594 60.0106 14.7687C58.7134 13.7062 58.345 12.2055 58.6173 10.7711C58.5212 10.8242 58.4251 10.8773 58.345 10.9305C58.0888 11.0766 57.8485 11.2359 57.6083 11.3953C57.1599 11.6875 56.6954 11.993 56.1669 12.1922C54.4692 12.8297 52.6915 13.0422 50.8978 12.4578C48.9759 11.8336 47.086 10.6914 46.1251 9.16406C45.7888 9.60234 45.3403 9.93438 44.7638 10.2C43.4825 10.7977 42.1212 11.2094 40.6478 11.2625C38.2935 11.3422 35.9231 10.9703 33.9692 9.93438C33.761 11.3688 33.1845 12.8164 31.695 13.6266C29.9333 14.5828 28.1075 14.0383 26.2978 13.5734V14.4766H26.3778C26.3138 14.9016 26.2497 15.3133 25.9614 15.6852C25.3368 16.4953 24.0716 16.8406 22.9825 17.0398C20.8685 17.425 18.7063 17.093 16.6884 16.4953C16.8485 17.4117 17.1368 18.3148 17.0888 19.2312C17.0247 20.5062 16.5282 21.6484 15.3751 22.525C13.8216 23.707 11.7235 24.1586 9.6415 24.3578C11.0188 25.832 11.9798 27.4656 11.7876 29.4711C11.5794 31.5695 9.83369 32.8445 7.86377 33.9203C8.4083 34.4781 9.01689 34.9828 9.56143 35.5539C10.3142 36.3641 10.6185 37.2008 10.8427 38.1836C11.0669 39.1398 11.2591 40.282 10.9228 41.2383C10.6825 41.9289 10.138 42.3539 9.54541 42.7656C10.3942 43.1773 11.2431 43.5891 11.9798 44.1203C13.0688 44.9039 13.8856 45.8867 14.3821 47.0156C14.9106 48.2242 15.2149 49.8844 14.4782 51.0398C15.247 51.2125 15.9677 51.4648 16.6724 51.7836C17.7294 52.275 18.8665 52.8195 19.6032 53.6297C20.3399 54.4266 21.1087 55.6086 21.0286 56.6578C22.7103 56.618 24.4399 56.4586 25.9134 57.2422C27.4829 58.0789 28.1396 59.3539 29.1966 60.5625C30.686 60.1773 32.0153 59.4336 33.5368 59.1547C35.3306 58.8227 37.2364 58.7695 39.0462 59.0352C40.5677 59.2609 41.897 59.6328 43.1462 60.4031C43.931 60.8945 44.6677 61.4391 45.4845 61.8773C46.3653 61.4125 46.8938 60.6023 47.6306 60.018C48.4954 59.3273 49.4884 58.743 50.5774 58.318C51.6665 57.893 52.8997 57.5609 54.1169 57.5476C55.1579 57.5344 56.295 57.6672 57.32 57.4281C57.6724 52.8195 63.1017 50.2961 68.2267 50.0437C68.2427 49.9906 68.2587 49.9375 68.2907 49.8977C68.7712 48.968 68.3067 47.7859 68.3868 46.8164C68.4669 45.8336 68.8993 44.9305 69.588 44.1336C70.6771 42.8852 72.2306 41.6234 74.0884 41.2383C72.8392 39.8305 71.1415 38.7945 71.1735 36.9086ZM26.0415 28.1562C26.1696 26.0844 26.2017 23.9727 26.7142 21.9273C26.7782 21.6883 26.9384 21.5289 27.1306 21.4359C28.4118 19.643 31.2626 19.3641 33.5528 19.6164C35.0103 19.7758 36.5958 20.1609 37.6048 21.0906C38.7099 22.1266 38.7899 23.5078 38.6458 24.8094C38.5817 25.5133 38.4376 26.2039 38.3896 26.8945C38.3415 27.5586 38.4216 28.2227 38.2774 28.8867C38.0372 30.0422 37.3485 31.1844 36.0673 31.7687C34.6099 32.4328 33.0083 32.5125 31.3747 32.4461C29.9974 32.393 28.3958 32.2336 27.3388 31.4102C26.2497 30.5867 25.9774 29.3648 26.0415 28.1562ZM55.1259 44.3328C55.0618 45.0367 54.9177 45.7273 54.8696 46.418C54.8216 47.082 54.9017 47.7461 54.7575 48.4102C54.5173 49.5656 53.8286 50.7078 52.5474 51.2922C51.0899 51.9562 49.4884 52.0359 47.8548 51.9695C46.4774 51.9164 44.8759 51.757 43.8188 50.9336C42.7138 50.0836 42.4255 48.8617 42.5056 47.6531C42.6337 45.5812 42.6657 43.4695 43.1782 41.4242C43.2423 41.1852 43.4024 41.0258 43.5946 40.9328C44.8759 39.1398 47.7267 38.8609 50.0169 39.1133C51.4743 39.2727 53.0599 39.6578 54.0688 40.5875C55.1899 41.6367 55.27 43.0312 55.1259 44.3328ZM56.9196 20.4664C56.7114 22.2461 55.3021 23.7203 54.0849 25.1281C53.4282 25.8852 52.8356 26.682 52.0989 27.3992C51.3942 28.0898 50.6415 28.7539 49.9849 29.4844C48.4794 31.1445 47.2622 32.9641 45.7247 34.6109C44.2192 36.218 42.7938 37.8648 41.5446 39.6047C40.3435 41.2914 39.3825 43.0844 38.1013 44.7312C37.4927 45.5148 36.772 46.2586 36.2114 47.0687C35.731 47.7461 35.2985 48.45 34.754 49.1008C34.2735 49.6852 33.729 50.2297 32.9122 50.4953C32.2075 50.7211 31.4388 50.8008 30.686 50.8273C29.0364 50.8672 27.4028 50.6812 25.7692 50.5484C25.0646 50.4953 24.9364 49.9109 25.2087 49.4992C25.2247 49.3531 25.2888 49.207 25.4329 49.0742C31.7271 43.2703 36.6599 36.6031 42.0892 30.2547C43.4024 28.7141 44.9239 27.2531 46.0931 25.6461C47.1181 24.225 47.9349 22.6977 49.104 21.3562C49.5364 20.8516 49.9208 20.4531 50.6575 20.2805C51.2661 20.1477 51.8907 20.0414 52.5153 19.9617C53.188 19.8687 53.8446 19.7891 54.5173 19.6961C54.7735 19.6562 55.0298 19.6297 55.286 19.5898C55.286 19.5898 55.4462 19.5633 55.4782 19.55C55.4782 19.55 55.4782 19.55 55.4942 19.55C55.5423 19.5234 55.5583 19.5367 55.4942 19.55C55.4142 19.5898 55.238 19.6828 55.0938 19.8687C55.5423 19.2711 56.5353 19.4836 56.7595 19.9617C56.8716 20.0945 56.9356 20.2672 56.9196 20.4664Z" fill="url(#paint0_linear_89_943)" fill-opacity="0.2"/>
<path d="M53.7003 21.2634C53.0116 21.3563 52.3069 21.436 51.6343 21.5688C51.4101 21.6087 51.1698 21.6618 50.9456 21.7282C50.9296 21.7548 50.9136 21.7946 50.8335 21.861C50.6894 22.0071 50.5612 22.1532 50.4331 22.2993C49.248 23.7204 48.4472 25.354 47.278 26.7884C46.0608 28.3024 44.6835 29.7103 43.4183 31.1978C38.2452 37.2673 33.5046 43.6157 27.6108 49.2204C28.6519 49.3134 29.7089 49.3931 30.7499 49.3399C31.2944 49.3134 32.2073 49.3134 32.6237 48.9548C33.2163 48.4634 33.6167 47.8657 34.0331 47.2681C35.0581 45.7673 36.3394 44.4126 37.3804 42.9118C38.4694 41.3313 39.3823 39.6845 40.5675 38.1438C41.8007 36.5235 43.146 34.9563 44.5874 33.4423C46.0128 31.9282 47.1179 30.2282 48.5112 28.7009C49.1679 27.9704 49.9046 27.3063 50.6093 26.6157C51.298 25.9517 51.8585 25.2212 52.4671 24.5173C53.364 23.4681 54.437 22.4056 54.9335 21.1704C54.4851 21.197 54.0366 21.2235 53.7003 21.2634ZM52.6753 41.4907C51.6663 40.747 50.1128 40.5212 48.7995 40.5212C47.5663 40.5212 45.8526 40.6407 45.164 41.6368C45.0839 41.7431 44.9878 41.836 44.8757 41.8892C44.4112 43.8415 44.2511 45.9267 44.2511 47.9056C44.2511 48.9282 44.5394 49.8313 45.7726 50.2165C47.0858 50.6282 48.8315 50.6415 50.2089 50.4423C51.4101 50.2696 52.5312 49.7384 52.8675 48.7024C53.0917 48.0517 53.0757 47.4407 53.0917 46.7767C53.1237 46.1259 53.2038 45.4884 53.2839 44.8509C53.444 43.8282 53.7483 42.2743 52.6753 41.4907ZM51.0417 47.0821C50.8015 47.7462 50.4651 48.4767 49.5683 48.6892C48.7194 48.8884 47.6624 48.9149 46.9577 48.3837C45.3562 47.1485 46.0288 44.9438 46.0608 43.3634C46.0608 43.0579 46.253 42.8321 46.5093 42.7126C46.5413 42.6196 46.6214 42.5134 46.7495 42.4204C48.0948 41.4509 50.5933 41.3712 51.346 42.9649C51.9386 44.2001 51.4901 45.8603 51.0417 47.0821Z" fill="#D6E5E5"/>
<path d="M49.8405 44.1336C49.8245 43.8547 49.8085 43.3898 49.4401 43.2437C49.0397 43.0977 48.4151 43.1375 48.0628 43.3766C47.9827 43.443 47.8866 43.4828 47.7905 43.5227C47.7425 44.625 47.5183 45.7273 47.8065 46.8297C47.9186 47.2547 48.271 47.4273 48.7835 47.3477C49.2319 47.2812 49.2479 46.9625 49.3601 46.6438C49.6643 45.9 49.8886 44.9172 49.8405 44.1336Z" fill="#30C060"/>
<path d="M36.1952 21.9805C35.1862 21.2368 33.6327 21.011 32.3194 21.011C31.0862 21.011 29.3726 21.1305 28.6839 22.1266C28.6038 22.2329 28.5077 22.3258 28.3956 22.379C27.9312 24.3313 27.771 26.4165 27.771 28.3954C27.771 29.418 28.0593 30.3211 29.2925 30.7063C30.6058 31.118 32.3515 31.1313 33.7288 30.9321C34.93 30.7594 36.0511 30.2282 36.3874 29.1922C36.6116 28.5415 36.5956 27.9305 36.6116 27.2665C36.6437 26.6157 36.7237 25.9782 36.8038 25.3407C36.964 24.318 37.2683 22.7641 36.1952 21.9805ZM34.5616 27.5719C34.3214 28.236 33.9851 28.9665 33.0882 29.179C32.2394 29.3782 31.1823 29.4047 30.4776 28.8735C28.8761 27.6383 29.5487 25.4336 29.5808 23.8532C29.5808 23.5477 29.773 23.3219 30.0292 23.2024C30.0612 23.1094 30.1413 23.0032 30.2694 22.9102C31.6147 21.9407 34.1132 21.861 34.8659 23.4547C35.4585 24.6899 35.0101 26.35 34.5616 27.5719Z" fill="#D6E5E5"/>
<path d="M33.3605 24.6233C33.3445 24.3444 33.3285 23.8796 32.9601 23.7335C32.5598 23.5874 31.9351 23.6272 31.5828 23.8663C31.5027 23.9327 31.4066 23.9726 31.3105 24.0124C31.2625 25.1147 31.0383 26.2171 31.3266 27.3194C31.4387 27.7444 31.791 27.9171 32.3035 27.8374C32.7519 27.771 32.768 27.4522 32.8801 27.1335C33.1844 26.3897 33.4086 25.4069 33.3605 24.6233Z" fill="#30C060"/>
<path d="M76.1383 41.4508C76.1543 41.3047 76.1223 41.1586 76.0102 40.9992C75.1453 39.7508 73.1434 38.7812 72.9352 37.2672C72.8551 36.6961 72.9512 36.125 73.0953 35.5672C73.1754 35.2351 73.3996 34.4914 73.9121 34.425C74.1844 34.3851 74.3926 34.2789 74.5047 34.1195C74.9051 34.0531 75.2414 33.8008 75.1934 33.3758C75.0813 32.4328 74.0723 32.0078 73.1594 31.6359C72.0543 31.1844 71.3016 30.3609 71.2055 29.3383C71.1414 28.6476 71.3176 27.9039 71.5098 27.2398C71.6379 26.775 71.8942 25.7789 72.6309 25.8055C73.7199 25.832 73.6238 24.4906 72.6149 24.3578C72.5668 24.3312 72.5188 24.3047 72.4707 24.2914C70.3406 23.4547 68.4988 22.3258 67.7621 20.3867C67.5539 19.8289 67.4899 19.2047 67.4418 18.6203C67.4258 18.2883 67.4258 17.9695 67.5059 17.6375C67.5379 17.518 67.5699 17.425 67.634 17.3187V17.3055C67.65 17.3055 67.65 17.3055 67.666 17.3055C68.8031 17.2523 68.659 15.7914 67.5379 15.8445C67.4578 15.8445 67.3938 15.8578 67.3137 15.8711C66.4488 15.6453 65.568 15.5922 64.6711 15.4992C63.6781 15.393 62.7012 14.7555 61.9484 14.2508C61.2117 13.7594 60.6832 13.268 60.3949 12.5109C60.1387 11.7937 60.2348 10.957 60.5391 10.2664C60.8754 9.53593 59.8184 8.95155 59.2418 9.29686C59.1617 9.25702 59.0656 9.23046 58.9535 9.21718C57.9926 9.09765 57.1277 9.82811 56.4391 10.2664C55.366 10.957 54.2129 11.4219 52.8035 11.3156C50.0488 11.1164 47.086 9.09765 47.166 6.69374C47.1981 6.02968 46.3332 5.89686 45.8047 6.20233V6.24218C45.7406 6.28202 45.6766 6.33514 45.6285 6.40155C45.0199 7.11874 45.0199 8.24764 44.1551 8.76561C43.1781 9.34999 41.9289 9.70858 40.7438 9.77499C38.1973 9.93436 35.6188 9.41639 33.7449 7.92889C33.1363 7.45077 32.2875 7.94218 32.2875 8.53983C32.2875 9.97421 32.0633 11.6476 30.4777 12.5109C29.4047 13.0953 27.7231 12.4976 26.4258 12.0992C26.2496 11.9531 25.9934 11.8734 25.7211 11.8734H25.4008C24.536 11.8734 24.4078 12.7234 24.9203 13.1351C24.7121 13.6398 24.6641 14.1312 24.552 14.6492C24.4238 15.2734 23.2547 15.4594 22.6301 15.5922C20.484 16.057 18.0656 15.4328 16.0957 14.7289C15.4231 14.4898 14.8625 14.875 14.8305 15.4461C14.7184 17.5047 16.2399 19.7359 14.1899 21.4359C12.6043 22.7508 9.89767 22.9101 7.79962 23.0164C6.96681 23.0562 6.80666 23.8531 7.28712 24.2914C8.85666 25.7125 10.0738 27.1601 10.0418 29.1656C10.0098 31.1312 7.8797 32.1937 6.08595 33.0969C5.66955 33.3094 5.60548 33.7875 5.84572 34.1062C6.83869 35.4078 8.47228 36.3109 8.96876 37.8516C9.24103 38.6883 9.35314 39.6976 9.25705 40.5609C9.16095 41.4109 8.00783 41.8625 7.35119 42.3805C6.90275 42.7258 7.17501 43.2969 7.62345 43.5226C9.49728 44.4523 11.4512 45.2492 12.4281 46.9758C12.9567 47.9187 13.9016 50.3094 12.2039 50.8141C11.211 51.1062 11.6113 52.2086 12.5563 52.2351C14.5102 52.275 16.352 53.2047 17.8254 54.1742C18.3219 54.493 19.5871 56.0734 19.1867 56.7242C18.7063 56.9367 18.5141 57.4945 18.7863 57.8265C19.0106 58.1851 19.5231 58.3976 20.0195 58.0922C20.0195 58.0922 20.0195 58.0922 20.0356 58.0789C21.541 58.0656 23.1586 57.8531 24.568 58.318C26.2016 58.8625 26.7942 60.3898 27.7711 61.4656C27.9313 61.6383 28.1395 61.7312 28.3477 61.7578C28.5559 61.9703 28.8922 62.0898 29.2766 62.0101C30.766 61.7047 32.0953 61.0672 33.5207 60.6156C35.1703 60.0976 37.2684 60.2172 38.95 60.4695C40.2953 60.6687 41.3524 61.0805 42.4414 61.7844C43.4504 62.4351 44.3953 63.1258 45.5805 63.5641C46.3012 63.8297 46.8938 63.2851 46.8457 62.807C47.4703 62.382 47.9828 61.8242 48.4953 61.3328C49.2641 60.5891 50.2891 59.9914 51.3461 59.5664C52.4031 59.1547 53.5082 58.9555 54.6774 58.9555C55.8305 58.9555 57.0156 59.0351 58.1047 58.6898C58.5211 58.557 58.6813 58.2648 58.6652 57.9859C58.8574 57.8531 59.0016 57.6672 59.0176 57.4148C59.2258 53.3109 64.8313 51.4516 69.0914 51.425C69.7801 51.425 69.9883 50.8937 69.8121 50.482C70.6289 48.875 69.5879 47.1219 70.5008 45.5281C71.3656 44.0406 73.3836 42.4469 75.4817 42.5266C76.2824 42.5664 76.4586 41.8891 76.1383 41.4508ZM69.5559 44.0672C68.8512 44.8641 68.4348 45.7672 68.3547 46.75C68.2746 47.7328 68.7391 48.9148 68.2586 49.8312C68.2266 49.8844 68.2106 49.9375 68.1945 49.9773C63.0695 50.243 57.6403 52.7531 57.2879 57.3617C56.2789 57.6008 55.1258 57.468 54.0848 57.4812C52.8676 57.4945 51.6344 57.8266 50.5453 58.2516C49.4563 58.6766 48.4793 59.2742 47.5985 59.9515C46.8457 60.5359 46.3332 61.3461 45.4524 61.8109C44.6356 61.3726 43.8988 60.8281 43.1141 60.3367C41.8649 59.5664 40.5356 59.1812 39.0141 58.9687C37.1883 58.7031 35.2985 58.7562 33.5047 59.0883C31.9832 59.3672 30.6539 60.1109 29.1645 60.4961C28.1074 59.3008 27.4668 58.0125 25.8813 57.1758C24.4078 56.3922 22.6781 56.5516 20.9965 56.5914C21.0766 55.5422 20.3078 54.3601 19.5711 53.5633C18.8344 52.7531 17.6973 52.2086 16.6403 51.7172C15.9356 51.3984 15.2149 51.1461 14.4461 50.9734C15.1668 49.818 14.8785 48.1578 14.35 46.9492C13.8535 45.8203 13.0527 44.8375 11.9477 44.0539C11.211 43.5226 10.3621 43.1109 9.5133 42.6992C10.1059 42.2875 10.6344 41.8625 10.8906 41.1719C11.227 40.2156 11.0348 39.0734 10.8106 38.1172C10.5863 37.1344 10.266 36.2976 9.52931 35.4875C9.0008 34.9164 8.37619 34.4117 7.83166 33.8539C9.80158 32.7914 11.5473 31.5031 11.7555 29.4047C11.9477 27.3992 11.0027 25.7656 9.60939 24.2914C11.6914 24.0922 13.7895 23.6406 15.343 22.4586C16.4961 21.582 16.9926 20.4398 17.0567 19.1648C17.1047 18.2351 16.8164 17.332 16.6563 16.4289C18.6742 17.0266 20.8363 17.3586 22.9504 16.9734C24.0235 16.7742 25.2887 16.4289 25.9293 15.6187C26.2176 15.2469 26.2817 14.8351 26.3457 14.4101H26.2656V13.507C28.0754 13.9851 29.8852 14.5297 31.6629 13.5601C33.1524 12.75 33.7289 11.3023 33.9371 9.86796C35.891 10.9172 38.2613 11.2758 40.6156 11.1961C42.0891 11.143 43.4664 10.7312 44.7317 10.1336C45.3082 9.86796 45.7406 9.53593 46.093 9.09764C47.0539 10.625 48.9438 11.7805 50.8656 12.3914C52.6594 12.9625 54.4371 12.75 56.1348 12.1258C56.6633 11.9266 57.1117 11.6211 57.5762 11.3289C57.8164 11.1695 58.0727 11.0101 58.3129 10.8641C58.409 10.8109 58.5051 10.7578 58.5852 10.7047C58.3129 12.1391 58.6813 13.6398 59.9785 14.7023C60.8274 15.4062 61.8203 16.0039 62.8934 16.4555C63.8383 16.8539 64.8473 16.8539 65.8242 16.9867C65.4238 18.0891 65.7602 19.6562 65.9844 20.4797C66.5449 22.5914 68.4508 24.0789 70.6289 25.0883C69.7801 26.0578 69.5238 27.6648 69.4438 28.6078C69.3477 29.75 69.636 30.8125 70.5488 31.6891C70.9813 32.1008 71.4617 32.4594 72.0383 32.7383C72.2145 32.818 72.6469 32.9641 72.9832 33.1101C71.4938 33.7476 71.1574 35.5406 71.1414 36.8422C71.1094 38.7414 72.807 39.7641 74.0242 41.1187C72.1985 41.557 70.6449 42.8187 69.5559 44.0672Z" fill="#010101"/>
<path d="M55.5103 19.5368C55.5583 19.5235 55.5743 19.5235 55.5103 19.5368V19.5368Z" fill="#010101"/>
<path d="M56.7754 19.9618C56.5512 19.4836 55.5582 19.2711 55.1098 19.8688C55.2539 19.6696 55.4301 19.5766 55.5102 19.55C55.5102 19.55 55.5102 19.55 55.4942 19.55C55.4622 19.55 55.318 19.5766 55.302 19.5899C55.0457 19.6297 54.7895 19.6563 54.5332 19.6961C53.8606 19.7891 53.2039 19.8688 52.5313 19.9618C51.9067 20.0547 51.2821 20.1477 50.6735 20.2805C49.9368 20.4399 49.5524 20.8516 49.12 21.3563C47.9508 22.6977 47.134 24.225 46.109 25.6461C44.9399 27.2532 43.4184 28.7274 42.1051 30.2547C36.6758 36.6032 31.743 43.2703 25.4489 49.0743C25.3047 49.2071 25.2407 49.3532 25.2246 49.4993C24.9524 49.911 25.0805 50.4821 25.7852 50.5485C27.4188 50.6813 29.0524 50.8672 30.702 50.8274C31.4547 50.8141 32.2235 50.7211 32.9282 50.4953C33.745 50.243 34.2895 49.6852 34.77 49.1008C35.2985 48.45 35.7469 47.7461 36.2274 47.0688C36.8039 46.2586 37.5086 45.5282 38.1172 44.7313C39.3985 43.0844 40.3594 41.2914 41.5606 39.6047C42.8098 37.8516 44.2352 36.2047 45.7407 34.611C47.2782 32.9641 48.4954 31.1578 50.0008 29.4844C50.6575 28.7539 51.4102 28.0899 52.1149 27.3993C52.8516 26.6821 53.4282 25.8852 54.1008 25.1282C55.318 23.7203 56.7274 22.2594 56.9356 20.4664C56.9356 20.2672 56.8715 20.0946 56.7754 19.9618ZM52.4512 24.5039C51.8426 25.2078 51.2821 25.9383 50.5934 26.6024C49.8887 27.293 49.152 27.9571 48.4954 28.6875C47.118 30.2282 46.0129 31.9282 44.5715 33.4289C43.1461 34.943 41.7848 36.4969 40.5516 38.1305C39.3825 39.6711 38.4536 41.318 37.3645 42.8985C36.3395 44.3993 35.0422 45.7539 34.0172 47.2547C33.6008 47.8524 33.2004 48.45 32.6079 48.9414C32.1914 49.3 31.2786 49.3 30.734 49.3266C29.677 49.3797 28.636 49.3 27.595 49.2071C33.4887 43.6024 38.2293 37.2539 43.4024 31.1844C44.6676 29.6969 46.045 28.2891 47.2622 26.775C48.4313 25.3407 49.2161 23.7071 50.4172 22.286C50.5454 22.1399 50.6735 21.9938 50.8176 21.8477C50.8817 21.7813 50.9137 21.7282 50.9297 21.7149C51.1539 21.6485 51.3942 21.5953 51.6184 21.5555C52.2911 21.4227 52.9957 21.343 53.6844 21.25C54.0207 21.2102 54.4532 21.1836 54.9016 21.1438C54.4371 22.3922 53.3641 23.4547 52.4512 24.5039ZM54.0848 40.6141C53.0758 39.6711 51.4903 39.2993 50.0329 39.1399C47.7426 38.8875 44.8918 39.1664 43.6106 40.9594C43.4024 41.0524 43.2422 41.1985 43.1942 41.4508C42.6977 43.4828 42.6497 45.6078 42.5215 47.6797C42.4575 48.8883 42.7297 50.1102 43.8348 50.9602C44.8918 51.7703 46.4934 51.943 47.8707 51.9961C49.5043 52.0625 51.1059 51.9828 52.5633 51.3188C53.8446 50.7344 54.5332 49.5922 54.7735 48.4368C54.9176 47.7727 54.8375 47.1086 54.8856 46.4446C54.9336 45.7407 55.0778 45.05 55.1418 44.3594C55.27 43.0313 55.1899 41.6368 54.0848 40.6141ZM53.3 44.8641C53.22 45.5016 53.1239 46.1524 53.1079 46.7899C53.0758 47.4539 53.0918 48.0649 52.8836 48.7157C52.5473 49.7516 51.4262 50.2828 50.225 50.4555C48.8477 50.6547 47.118 50.6414 45.7887 50.2297C44.5395 49.8446 44.2672 48.9282 44.2672 47.9188C44.2512 45.9399 44.4274 43.8414 44.8918 41.9024C45.0039 41.836 45.1 41.7563 45.1801 41.65C45.8688 40.6539 47.5825 40.5344 48.8157 40.5344C50.1129 40.5344 51.6825 40.7735 52.6914 41.5039C53.7485 42.2743 53.4442 43.8282 53.3 44.8641Z" fill="#010101"/>
<path d="M51.3462 42.9648C50.5934 41.371 48.095 41.4507 46.7497 42.4202C46.6216 42.5132 46.5415 42.6062 46.5094 42.7124C46.2532 42.8319 46.061 43.0577 46.061 43.3632C46.029 44.9569 45.3563 47.1616 46.9579 48.3835C47.6626 48.9148 48.7196 48.9015 49.5684 48.689C50.4653 48.4765 50.8016 47.7593 51.0419 47.0819C51.4903 45.8601 51.9387 44.1999 51.3462 42.9648ZM49.3762 46.6569C49.2481 46.9757 49.2481 47.2944 48.7997 47.3608C48.2872 47.4405 47.9348 47.2679 47.8227 46.8429C47.5505 45.7538 47.7587 44.6382 47.8067 43.5358C47.9028 43.5093 47.9989 43.4562 48.079 43.3898C48.4313 43.1374 49.0559 43.0976 49.4563 43.2569C49.8247 43.3898 49.8407 43.8679 49.8567 44.1468C49.8887 44.9171 49.6645 45.8999 49.3762 46.6569ZM37.6048 21.1038C36.5958 20.1608 35.0102 19.789 33.5528 19.6296C31.2626 19.3773 28.4118 19.6562 27.1305 21.4491C26.9223 21.5421 26.7622 21.6882 26.7141 21.9405C26.2176 23.9726 26.1696 26.0976 26.0415 28.1694C25.9774 29.378 26.2497 30.5999 27.3548 31.4499C28.4118 32.2601 30.0134 32.4327 31.3907 32.4858C33.0243 32.5523 34.6259 32.4726 36.0833 31.8085C37.3645 31.2241 38.0532 30.0819 38.2934 28.9265C38.4376 28.2624 38.3575 27.5983 38.4055 26.9343C38.4536 26.2304 38.5977 25.5398 38.6618 24.8491C38.7899 23.521 38.7098 22.1265 37.6048 21.1038ZM36.82 25.3538C36.7399 25.9913 36.6438 26.6421 36.6278 27.2796C36.5958 27.9437 36.6118 28.5546 36.4036 29.2054C36.0673 30.2413 34.9462 30.7726 33.745 30.9452C32.3676 31.1444 30.638 31.1312 29.3087 30.7194C28.0594 30.3343 27.7872 29.4179 27.7872 28.4085C27.7712 26.4296 27.9473 24.3312 28.4118 22.3921C28.5239 22.3257 28.62 22.246 28.7001 22.1398C29.3887 21.1437 31.1024 21.0241 32.3356 21.0241C33.6329 21.0241 35.2024 21.2632 36.2114 21.9937C37.2684 22.764 36.9641 24.3179 36.82 25.3538Z" fill="#010101"/>
<path d="M34.8659 23.4546C34.1132 21.8609 31.6147 21.9405 30.2694 22.9101C30.1413 23.003 30.0612 23.096 30.0292 23.2023C29.7729 23.3218 29.5807 23.5476 29.5807 23.853C29.5487 25.4468 28.8761 27.6515 30.4776 28.8734C31.1823 29.4046 32.2393 29.3913 33.0882 29.1788C33.985 28.9663 34.3214 28.2491 34.5616 27.5718C35.01 26.3499 35.4585 24.6898 34.8659 23.4546ZM32.896 27.1468C32.7679 27.4655 32.7679 27.7843 32.3194 27.8507C31.8069 27.9304 31.4546 27.7577 31.3425 27.3327C31.0702 26.2437 31.2784 25.128 31.3265 24.0257C31.4225 23.9991 31.5186 23.946 31.5987 23.8796C31.9511 23.6273 32.5757 23.5874 32.9761 23.7468C33.3444 23.8796 33.3604 24.3577 33.3765 24.6366C33.4085 25.407 33.1843 26.3898 32.896 27.1468Z" fill="#010101"/>
<defs>
<linearGradient id="paint0_linear_89_943" x1="40.9761" y1="9.16406" x2="40.9761" y2="61.8773" gradientUnits="userSpaceOnUse">
<stop stop-color="white"/>
<stop offset="0.182292"/>
<stop offset="0.380208" stop-color="white"/>
<stop offset="0.567708"/>
<stop offset="0.791667" stop-color="white"/>
<stop offset="1"/>
</linearGradient>
</defs>
</svg>
