<svg width="1870" height="118" viewBox="0 0 1870 118" fill="none" xmlns="http://www.w3.org/2000/svg">
<path d="M0.230835 16.8193L8.44236 13.9533L129.892 109.726C133.663 112.7 133.044 116.394 128.509 117.977L0.230835 16.8193Z" fill="#2D2D2D"/>
<path d="M3.94971 15.5214L7.85067 14.1598L136.129 115.318L132.228 116.679L3.94971 15.5214Z" fill="#212121"/>
<path d="M31.5939 4.81238L35.7207 3.37204L164.514 104.936L160.387 106.376L31.5939 4.81238Z" fill="#2F2F2F"/>
<path d="M0 9.09131L26.048 1.73744e-05L160.557 106.071C158.038 106.951 152.293 101.249 150.186 101.984C145.157 102.961 137.998 107.305 133.186 108.984C131.427 109.598 136.559 114.447 134.509 115.163L0 9.09131Z" fill="#353535"/>
<path d="M155.231 16.8193L163.442 13.9533L284.892 109.726C288.663 112.7 288.044 116.394 283.509 117.977L155.231 16.8193Z" fill="#2D2D2D"/>
<path d="M158.95 15.5214L162.851 14.1598L291.129 115.318L287.228 116.679L158.95 15.5214Z" fill="#212121"/>
<path d="M186.594 4.81238L190.721 3.37204L319.514 104.936L315.387 106.376L186.594 4.81238Z" fill="#2F2F2F"/>
<path d="M155 9.09131L181.048 1.73744e-05L315.557 106.071C313.038 106.951 307.293 101.249 305.186 101.984C300.157 102.961 292.998 107.305 288.186 108.984C286.427 109.598 291.559 114.447 289.509 115.163L155 9.09131Z" fill="#353535"/>
<path d="M310.231 16.8193L318.442 13.9533L439.892 109.726C443.663 112.7 443.044 116.394 438.509 117.977L310.231 16.8193Z" fill="#2D2D2D"/>
<path d="M313.95 15.5214L317.851 14.1598L446.129 115.318L442.228 116.679L313.95 15.5214Z" fill="#212121"/>
<path d="M341.594 4.81238L345.721 3.37204L474.514 104.936L470.387 106.376L341.594 4.81238Z" fill="#2F2F2F"/>
<path d="M310 9.09131L336.048 1.73744e-05L470.557 106.071C468.038 106.951 462.293 101.249 460.186 101.984C455.157 102.961 447.998 107.305 443.186 108.984C441.427 109.598 446.559 114.447 444.509 115.163L310 9.09131Z" fill="#353535"/>
<path d="M465.231 16.8193L473.442 13.9533L594.892 109.726C598.663 112.7 598.044 116.394 593.509 117.977L465.231 16.8193Z" fill="#2D2D2D"/>
<path d="M468.95 15.5214L472.851 14.1598L601.129 115.318L597.228 116.679L468.95 15.5214Z" fill="#212121"/>
<path d="M496.594 4.81238L500.721 3.37204L629.514 104.936L625.387 106.376L496.594 4.81238Z" fill="#2F2F2F"/>
<path d="M465 9.09131L491.048 1.73744e-05L625.557 106.071C623.038 106.951 617.293 101.249 615.186 101.984C610.157 102.961 602.998 107.305 598.186 108.984C596.427 109.598 601.559 114.447 599.509 115.163L465 9.09131Z" fill="#353535"/>
<path d="M620.231 16.8193L628.442 13.9533L749.892 109.726C753.663 112.7 753.044 116.394 748.509 117.977L620.231 16.8193Z" fill="#2D2D2D"/>
<path d="M623.95 15.5214L627.851 14.1598L756.129 115.318L752.228 116.679L623.95 15.5214Z" fill="#212121"/>
<path d="M651.594 4.81238L655.721 3.37204L784.514 104.936L780.387 106.376L651.594 4.81238Z" fill="#2F2F2F"/>
<path d="M620 9.09131L646.048 1.73744e-05L780.557 106.071C778.038 106.951 772.293 101.249 770.186 101.984C765.157 102.961 757.998 107.305 753.186 108.984C751.427 109.598 756.559 114.447 754.509 115.163L620 9.09131Z" fill="#353535"/>
<path d="M775.231 16.8193L783.442 13.9533L904.892 109.726C908.663 112.7 908.044 116.394 903.509 117.977L775.231 16.8193Z" fill="#2D2D2D"/>
<path d="M778.95 15.5214L782.851 14.1598L911.129 115.318L907.228 116.679L778.95 15.5214Z" fill="#212121"/>
<path d="M806.594 4.81238L810.721 3.37204L939.514 104.936L935.387 106.376L806.594 4.81238Z" fill="#2F2F2F"/>
<path d="M775 9.09131L801.048 1.73744e-05L935.557 106.071C933.038 106.951 927.293 101.249 925.186 101.984C920.157 102.961 912.998 107.305 908.186 108.984C906.427 109.598 911.559 114.447 909.509 115.163L775 9.09131Z" fill="#353535"/>
<path d="M930.231 16.8193L938.442 13.9533L1059.89 109.726C1063.66 112.7 1063.04 116.394 1058.51 117.977L930.231 16.8193Z" fill="#2D2D2D"/>
<path d="M933.95 15.5214L937.851 14.1598L1066.13 115.318L1062.23 116.679L933.95 15.5214Z" fill="#212121"/>
<path d="M961.594 4.81238L965.721 3.37204L1094.51 104.936L1090.39 106.376L961.594 4.81238Z" fill="#2F2F2F"/>
<path d="M930 9.09131L956.048 1.73744e-05L1090.56 106.071C1088.04 106.951 1082.29 101.249 1080.19 101.984C1075.16 102.961 1068 107.305 1063.19 108.984C1061.43 109.598 1066.56 114.447 1064.51 115.163L930 9.09131Z" fill="#353535"/>
<path d="M1085.23 16.8193L1093.44 13.9533L1214.89 109.726C1218.66 112.7 1218.04 116.394 1213.51 117.977L1085.23 16.8193Z" fill="#2D2D2D"/>
<path d="M1088.95 15.5214L1092.85 14.1598L1221.13 115.318L1217.23 116.679L1088.95 15.5214Z" fill="#212121"/>
<path d="M1116.59 4.81238L1120.72 3.37204L1249.51 104.936L1245.39 106.376L1116.59 4.81238Z" fill="#2F2F2F"/>
<path d="M1085 9.09131L1111.05 1.73744e-05L1245.56 106.071C1243.04 106.951 1237.29 101.249 1235.19 101.984C1230.16 102.961 1223 107.305 1218.19 108.984C1216.43 109.598 1221.56 114.447 1219.51 115.163L1085 9.09131Z" fill="#353535"/>
<path d="M1240.23 16.8193L1248.44 13.9533L1369.89 109.726C1373.66 112.7 1373.04 116.394 1368.51 117.977L1240.23 16.8193Z" fill="#2D2D2D"/>
<path d="M1243.95 15.5214L1247.85 14.1598L1376.13 115.318L1372.23 116.679L1243.95 15.5214Z" fill="#212121"/>
<path d="M1271.59 4.81238L1275.72 3.37204L1404.51 104.936L1400.39 106.376L1271.59 4.81238Z" fill="#2F2F2F"/>
<path d="M1240 9.09131L1266.05 1.73744e-05L1400.56 106.071C1398.04 106.951 1392.29 101.249 1390.19 101.984C1385.16 102.961 1378 107.305 1373.19 108.984C1371.43 109.598 1376.56 114.447 1374.51 115.163L1240 9.09131Z" fill="#353535"/>
<path d="M1395.23 16.8193L1403.44 13.9533L1524.89 109.726C1528.66 112.7 1528.04 116.394 1523.51 117.977L1395.23 16.8193Z" fill="#2D2D2D"/>
<path d="M1398.95 15.5214L1402.85 14.1598L1531.13 115.318L1527.23 116.679L1398.95 15.5214Z" fill="#212121"/>
<path d="M1426.59 4.81238L1430.72 3.37204L1559.51 104.936L1555.39 106.376L1426.59 4.81238Z" fill="#2F2F2F"/>
<path d="M1395 9.09131L1421.05 1.73744e-05L1555.56 106.071C1553.04 106.951 1547.29 101.249 1545.19 101.984C1540.16 102.961 1533 107.305 1528.19 108.984C1526.43 109.598 1531.56 114.447 1529.51 115.163L1395 9.09131Z" fill="#353535"/>
<path d="M1550.23 16.8193L1558.44 13.9533L1679.89 109.726C1683.66 112.7 1683.04 116.394 1678.51 117.977L1550.23 16.8193Z" fill="#2D2D2D"/>
<path d="M1553.95 15.5214L1557.85 14.1598L1686.13 115.318L1682.23 116.679L1553.95 15.5214Z" fill="#212121"/>
<path d="M1581.59 4.81238L1585.72 3.37204L1714.51 104.936L1710.39 106.376L1581.59 4.81238Z" fill="#2F2F2F"/>
<path d="M1550 9.09131L1576.05 1.73744e-05L1710.56 106.071C1708.04 106.951 1702.29 101.249 1700.19 101.984C1695.16 102.961 1688 107.305 1683.19 108.984C1681.43 109.598 1686.56 114.447 1684.51 115.163L1550 9.09131Z" fill="#353535"/>
<path d="M1705.23 16.8193L1713.44 13.9533L1834.89 109.726C1838.66 112.7 1838.04 116.394 1833.51 117.977L1705.23 16.8193Z" fill="#2D2D2D"/>
<path d="M1708.95 15.5214L1712.85 14.1598L1841.13 115.318L1837.23 116.679L1708.95 15.5214Z" fill="#212121"/>
<path d="M1736.59 4.81238L1740.72 3.37204L1869.51 104.936L1865.39 106.376L1736.59 4.81238Z" fill="#2F2F2F"/>
<path d="M1705 9.09131L1731.05 1.73744e-05L1865.56 106.071C1863.04 106.951 1857.29 101.249 1855.19 101.984C1850.16 102.961 1843 107.305 1838.19 108.984C1836.43 109.598 1841.56 114.447 1839.51 115.163L1705 9.09131Z" fill="#353535"/>
</svg>
