<svg width="33" height="33" viewBox="0 0 33 33" fill="none" xmlns="http://www.w3.org/2000/svg">
<g clip-path="url(#clip0_695_822)">
<path d="M3.43748 0H29.5625C31.461 0 33 1.53901 33 3.43748V29.5625C33 31.461 31.461 33 29.5625 33H3.43748C1.53901 33 0 31.461 0 29.5625V3.43748C0 1.53901 1.53901 0 3.43748 0Z" fill="#2196F3"/>
<path d="M25.4375 9.62498H28.1876C28.5673 9.62498 28.8751 9.31715 28.8751 8.93746V4.81246C28.875 4.43283 28.5672 4.125 28.1875 4.125H25.4375C21.2608 4.125 17.875 7.51085 17.875 11.6875V15.125H14.4375C14.0578 15.125 13.75 15.4328 13.75 15.8125V19.9375C13.75 20.3172 14.0578 20.625 14.4375 20.625H17.875V33H23.375V20.625H26.8125C27.1083 20.6248 27.3708 20.4354 27.4643 20.1548L28.8392 16.0297C28.9593 15.6695 28.7645 15.2802 28.4043 15.1602C28.3344 15.1369 28.2612 15.125 28.1875 15.125H23.375V11.6875C23.375 10.5484 24.2985 9.62498 25.4375 9.62498Z" fill="#FAFAFA"/>
</g>
<defs>
<clipPath id="clip0_695_822">
<rect width="33" height="33" fill="white"/>
</clipPath>
</defs>
</svg>
