<svg width="751" height="1312" viewBox="0 0 751 1312" fill="none" xmlns="http://www.w3.org/2000/svg">
<g opacity="0.1">
<path fill-rule="evenodd" clip-rule="evenodd" d="M656 1245.74C981.703 1245.74 1245.74 981.703 1245.74 656C1245.74 330.297 981.703 66.2626 656 66.2626C330.297 66.2626 66.2626 330.297 66.2626 656C66.2626 981.703 330.297 1245.74 656 1245.74ZM656 1312C1018.3 1312 1312 1018.3 1312 656C1312 293.701 1018.3 0 656 0C293.701 0 0 293.701 0 656C0 1018.3 293.701 1312 656 1312Z" fill="#737373"/>
<path fill-rule="evenodd" clip-rule="evenodd" d="M656 1245.74C981.703 1245.74 1245.74 981.703 1245.74 656C1245.74 330.297 981.703 66.2626 656 66.2626C330.297 66.2626 66.2626 330.297 66.2626 656C66.2626 981.703 330.297 1245.74 656 1245.74ZM656 1312C1018.3 1312 1312 1018.3 1312 656C1312 293.701 1018.3 0 656 0C293.701 0 0 293.701 0 656C0 1018.3 293.701 1312 656 1312Z" fill="url(#paint0_radial_332_428)"/>
<path fill-rule="evenodd" clip-rule="evenodd" d="M656 1245.74C981.703 1245.74 1245.74 981.703 1245.74 656C1245.74 330.297 981.703 66.2626 656 66.2626C330.297 66.2626 66.2626 330.297 66.2626 656C66.2626 981.703 330.297 1245.74 656 1245.74ZM656 1312C1018.3 1312 1312 1018.3 1312 656C1312 293.701 1018.3 0 656 0C293.701 0 0 293.701 0 656C0 1018.3 293.701 1312 656 1312Z" fill="url(#paint1_radial_332_428)"/>
<path fill-rule="evenodd" clip-rule="evenodd" d="M656 1245.74C981.703 1245.74 1245.74 981.703 1245.74 656C1245.74 330.297 981.703 66.2626 656 66.2626C330.297 66.2626 66.2626 330.297 66.2626 656C66.2626 981.703 330.297 1245.74 656 1245.74ZM656 1312C1018.3 1312 1312 1018.3 1312 656C1312 293.701 1018.3 0 656 0C293.701 0 0 293.701 0 656C0 1018.3 293.701 1312 656 1312Z" fill="url(#paint2_radial_332_428)"/>
<path fill-rule="evenodd" clip-rule="evenodd" d="M656 1245.74C981.703 1245.74 1245.74 981.703 1245.74 656C1245.74 330.297 981.703 66.2626 656 66.2626C330.297 66.2626 66.2626 330.297 66.2626 656C66.2626 981.703 330.297 1245.74 656 1245.74ZM656 1312C1018.3 1312 1312 1018.3 1312 656C1312 293.701 1018.3 0 656 0C293.701 0 0 293.701 0 656C0 1018.3 293.701 1312 656 1312Z" fill="url(#paint3_radial_332_428)"/>
<path fill-rule="evenodd" clip-rule="evenodd" d="M656 1245.74C981.703 1245.74 1245.74 981.703 1245.74 656C1245.74 330.297 981.703 66.2626 656 66.2626C330.297 66.2626 66.2626 330.297 66.2626 656C66.2626 981.703 330.297 1245.74 656 1245.74ZM656 1312C1018.3 1312 1312 1018.3 1312 656C1312 293.701 1018.3 0 656 0C293.701 0 0 293.701 0 656C0 1018.3 293.701 1312 656 1312Z" fill="url(#paint4_radial_332_428)"/>
<path fill-rule="evenodd" clip-rule="evenodd" d="M656 1245.74C981.703 1245.74 1245.74 981.703 1245.74 656C1245.74 330.297 981.703 66.2626 656 66.2626C330.297 66.2626 66.2626 330.297 66.2626 656C66.2626 981.703 330.297 1245.74 656 1245.74ZM656 1312C1018.3 1312 1312 1018.3 1312 656C1312 293.701 1018.3 0 656 0C293.701 0 0 293.701 0 656C0 1018.3 293.701 1312 656 1312Z" fill="url(#paint5_radial_332_428)"/>
</g>
<g opacity="0.1">
<path fill-rule="evenodd" clip-rule="evenodd" d="M656.5 1161.23C935.284 1161.23 1161.28 935.032 1161.28 656C1161.28 376.968 935.284 150.768 656.5 150.768C377.716 150.768 151.717 376.968 151.717 656C151.717 935.032 377.716 1161.23 656.5 1161.23ZM656.5 1218C966.608 1218 1218 966.384 1218 656C1218 345.616 966.608 94 656.5 94C346.392 94 95 345.616 95 656C95 966.384 346.392 1218 656.5 1218Z" fill="#737373"/>
<path fill-rule="evenodd" clip-rule="evenodd" d="M656.5 1161.23C935.284 1161.23 1161.28 935.032 1161.28 656C1161.28 376.968 935.284 150.768 656.5 150.768C377.716 150.768 151.717 376.968 151.717 656C151.717 935.032 377.716 1161.23 656.5 1161.23ZM656.5 1218C966.608 1218 1218 966.384 1218 656C1218 345.616 966.608 94 656.5 94C346.392 94 95 345.616 95 656C95 966.384 346.392 1218 656.5 1218Z" fill="url(#paint6_radial_332_428)"/>
<path fill-rule="evenodd" clip-rule="evenodd" d="M656.5 1161.23C935.284 1161.23 1161.28 935.032 1161.28 656C1161.28 376.968 935.284 150.768 656.5 150.768C377.716 150.768 151.717 376.968 151.717 656C151.717 935.032 377.716 1161.23 656.5 1161.23ZM656.5 1218C966.608 1218 1218 966.384 1218 656C1218 345.616 966.608 94 656.5 94C346.392 94 95 345.616 95 656C95 966.384 346.392 1218 656.5 1218Z" fill="url(#paint7_radial_332_428)"/>
<path fill-rule="evenodd" clip-rule="evenodd" d="M656.5 1161.23C935.284 1161.23 1161.28 935.032 1161.28 656C1161.28 376.968 935.284 150.768 656.5 150.768C377.716 150.768 151.717 376.968 151.717 656C151.717 935.032 377.716 1161.23 656.5 1161.23ZM656.5 1218C966.608 1218 1218 966.384 1218 656C1218 345.616 966.608 94 656.5 94C346.392 94 95 345.616 95 656C95 966.384 346.392 1218 656.5 1218Z" fill="url(#paint8_radial_332_428)"/>
<path fill-rule="evenodd" clip-rule="evenodd" d="M656.5 1161.23C935.284 1161.23 1161.28 935.032 1161.28 656C1161.28 376.968 935.284 150.768 656.5 150.768C377.716 150.768 151.717 376.968 151.717 656C151.717 935.032 377.716 1161.23 656.5 1161.23ZM656.5 1218C966.608 1218 1218 966.384 1218 656C1218 345.616 966.608 94 656.5 94C346.392 94 95 345.616 95 656C95 966.384 346.392 1218 656.5 1218Z" fill="url(#paint9_radial_332_428)"/>
<path fill-rule="evenodd" clip-rule="evenodd" d="M656.5 1161.23C935.284 1161.23 1161.28 935.032 1161.28 656C1161.28 376.968 935.284 150.768 656.5 150.768C377.716 150.768 151.717 376.968 151.717 656C151.717 935.032 377.716 1161.23 656.5 1161.23ZM656.5 1218C966.608 1218 1218 966.384 1218 656C1218 345.616 966.608 94 656.5 94C346.392 94 95 345.616 95 656C95 966.384 346.392 1218 656.5 1218Z" fill="url(#paint10_radial_332_428)"/>
<path fill-rule="evenodd" clip-rule="evenodd" d="M656.5 1161.23C935.284 1161.23 1161.28 935.032 1161.28 656C1161.28 376.968 935.284 150.768 656.5 150.768C377.716 150.768 151.717 376.968 151.717 656C151.717 935.032 377.716 1161.23 656.5 1161.23ZM656.5 1218C966.608 1218 1218 966.384 1218 656C1218 345.616 966.608 94 656.5 94C346.392 94 95 345.616 95 656C95 966.384 346.392 1218 656.5 1218Z" fill="url(#paint11_radial_332_428)"/>
</g>
<g opacity="0.1">
<path fill-rule="evenodd" clip-rule="evenodd" d="M656.5 1085.72C894.074 1085.72 1086.67 893.326 1086.67 656C1086.67 418.674 894.074 226.283 656.5 226.283C418.926 226.283 226.333 418.674 226.333 656C226.333 893.326 418.926 1085.72 656.5 1085.72ZM656.5 1134C920.768 1134 1135 919.992 1135 656C1135 392.008 920.768 178 656.5 178C392.232 178 178 392.008 178 656C178 919.992 392.232 1134 656.5 1134Z" fill="#737373"/>
<path fill-rule="evenodd" clip-rule="evenodd" d="M656.5 1085.72C894.074 1085.72 1086.67 893.326 1086.67 656C1086.67 418.674 894.074 226.283 656.5 226.283C418.926 226.283 226.333 418.674 226.333 656C226.333 893.326 418.926 1085.72 656.5 1085.72ZM656.5 1134C920.768 1134 1135 919.992 1135 656C1135 392.008 920.768 178 656.5 178C392.232 178 178 392.008 178 656C178 919.992 392.232 1134 656.5 1134Z" fill="url(#paint12_radial_332_428)"/>
<path fill-rule="evenodd" clip-rule="evenodd" d="M656.5 1085.72C894.074 1085.72 1086.67 893.326 1086.67 656C1086.67 418.674 894.074 226.283 656.5 226.283C418.926 226.283 226.333 418.674 226.333 656C226.333 893.326 418.926 1085.72 656.5 1085.72ZM656.5 1134C920.768 1134 1135 919.992 1135 656C1135 392.008 920.768 178 656.5 178C392.232 178 178 392.008 178 656C178 919.992 392.232 1134 656.5 1134Z" fill="url(#paint13_radial_332_428)"/>
<path fill-rule="evenodd" clip-rule="evenodd" d="M656.5 1085.72C894.074 1085.72 1086.67 893.326 1086.67 656C1086.67 418.674 894.074 226.283 656.5 226.283C418.926 226.283 226.333 418.674 226.333 656C226.333 893.326 418.926 1085.72 656.5 1085.72ZM656.5 1134C920.768 1134 1135 919.992 1135 656C1135 392.008 920.768 178 656.5 178C392.232 178 178 392.008 178 656C178 919.992 392.232 1134 656.5 1134Z" fill="url(#paint14_radial_332_428)"/>
<path fill-rule="evenodd" clip-rule="evenodd" d="M656.5 1085.72C894.074 1085.72 1086.67 893.326 1086.67 656C1086.67 418.674 894.074 226.283 656.5 226.283C418.926 226.283 226.333 418.674 226.333 656C226.333 893.326 418.926 1085.72 656.5 1085.72ZM656.5 1134C920.768 1134 1135 919.992 1135 656C1135 392.008 920.768 178 656.5 178C392.232 178 178 392.008 178 656C178 919.992 392.232 1134 656.5 1134Z" fill="url(#paint15_radial_332_428)"/>
<path fill-rule="evenodd" clip-rule="evenodd" d="M656.5 1085.72C894.074 1085.72 1086.67 893.326 1086.67 656C1086.67 418.674 894.074 226.283 656.5 226.283C418.926 226.283 226.333 418.674 226.333 656C226.333 893.326 418.926 1085.72 656.5 1085.72ZM656.5 1134C920.768 1134 1135 919.992 1135 656C1135 392.008 920.768 178 656.5 178C392.232 178 178 392.008 178 656C178 919.992 392.232 1134 656.5 1134Z" fill="url(#paint16_radial_332_428)"/>
<path fill-rule="evenodd" clip-rule="evenodd" d="M656.5 1085.72C894.074 1085.72 1086.67 893.326 1086.67 656C1086.67 418.674 894.074 226.283 656.5 226.283C418.926 226.283 226.333 418.674 226.333 656C226.333 893.326 418.926 1085.72 656.5 1085.72ZM656.5 1134C920.768 1134 1135 919.992 1135 656C1135 392.008 920.768 178 656.5 178C392.232 178 178 392.008 178 656C178 919.992 392.232 1134 656.5 1134Z" fill="url(#paint17_radial_332_428)"/>
</g>
<g opacity="0.1">
<path fill-rule="evenodd" clip-rule="evenodd" d="M656.5 1020.99C858.327 1020.99 1021.94 857.578 1021.94 656C1021.94 454.422 858.327 291.01 656.5 291.01C454.673 291.01 291.061 454.422 291.061 656C291.061 857.578 454.673 1020.99 656.5 1020.99ZM656.5 1062C881.004 1062 1063 880.228 1063 656C1063 431.772 881.004 250 656.5 250C431.996 250 250 431.772 250 656C250 880.228 431.996 1062 656.5 1062Z" fill="#737373"/>
<path fill-rule="evenodd" clip-rule="evenodd" d="M656.5 1020.99C858.327 1020.99 1021.94 857.578 1021.94 656C1021.94 454.422 858.327 291.01 656.5 291.01C454.673 291.01 291.061 454.422 291.061 656C291.061 857.578 454.673 1020.99 656.5 1020.99ZM656.5 1062C881.004 1062 1063 880.228 1063 656C1063 431.772 881.004 250 656.5 250C431.996 250 250 431.772 250 656C250 880.228 431.996 1062 656.5 1062Z" fill="url(#paint18_radial_332_428)"/>
<path fill-rule="evenodd" clip-rule="evenodd" d="M656.5 1020.99C858.327 1020.99 1021.94 857.578 1021.94 656C1021.94 454.422 858.327 291.01 656.5 291.01C454.673 291.01 291.061 454.422 291.061 656C291.061 857.578 454.673 1020.99 656.5 1020.99ZM656.5 1062C881.004 1062 1063 880.228 1063 656C1063 431.772 881.004 250 656.5 250C431.996 250 250 431.772 250 656C250 880.228 431.996 1062 656.5 1062Z" fill="url(#paint19_radial_332_428)"/>
<path fill-rule="evenodd" clip-rule="evenodd" d="M656.5 1020.99C858.327 1020.99 1021.94 857.578 1021.94 656C1021.94 454.422 858.327 291.01 656.5 291.01C454.673 291.01 291.061 454.422 291.061 656C291.061 857.578 454.673 1020.99 656.5 1020.99ZM656.5 1062C881.004 1062 1063 880.228 1063 656C1063 431.772 881.004 250 656.5 250C431.996 250 250 431.772 250 656C250 880.228 431.996 1062 656.5 1062Z" fill="url(#paint20_radial_332_428)"/>
<path fill-rule="evenodd" clip-rule="evenodd" d="M656.5 1020.99C858.327 1020.99 1021.94 857.578 1021.94 656C1021.94 454.422 858.327 291.01 656.5 291.01C454.673 291.01 291.061 454.422 291.061 656C291.061 857.578 454.673 1020.99 656.5 1020.99ZM656.5 1062C881.004 1062 1063 880.228 1063 656C1063 431.772 881.004 250 656.5 250C431.996 250 250 431.772 250 656C250 880.228 431.996 1062 656.5 1062Z" fill="url(#paint21_radial_332_428)"/>
<path fill-rule="evenodd" clip-rule="evenodd" d="M656.5 1020.99C858.327 1020.99 1021.94 857.578 1021.94 656C1021.94 454.422 858.327 291.01 656.5 291.01C454.673 291.01 291.061 454.422 291.061 656C291.061 857.578 454.673 1020.99 656.5 1020.99ZM656.5 1062C881.004 1062 1063 880.228 1063 656C1063 431.772 881.004 250 656.5 250C431.996 250 250 431.772 250 656C250 880.228 431.996 1062 656.5 1062Z" fill="url(#paint22_radial_332_428)"/>
<path fill-rule="evenodd" clip-rule="evenodd" d="M656.5 1020.99C858.327 1020.99 1021.94 857.578 1021.94 656C1021.94 454.422 858.327 291.01 656.5 291.01C454.673 291.01 291.061 454.422 291.061 656C291.061 857.578 454.673 1020.99 656.5 1020.99ZM656.5 1062C881.004 1062 1063 880.228 1063 656C1063 431.772 881.004 250 656.5 250C431.996 250 250 431.772 250 656C250 880.228 431.996 1062 656.5 1062Z" fill="url(#paint23_radial_332_428)"/>
</g>
<g opacity="0.1">
<path fill-rule="evenodd" clip-rule="evenodd" d="M656.5 971.545C831.019 971.545 972.495 830.271 972.495 656C972.495 481.729 831.019 340.455 656.5 340.455C481.981 340.455 340.505 481.729 340.505 656C340.505 830.271 481.981 971.545 656.5 971.545ZM656.5 1007C850.628 1007 1008 849.852 1008 656C1008 462.148 850.628 305 656.5 305C462.372 305 305 462.148 305 656C305 849.852 462.372 1007 656.5 1007Z" fill="#737373"/>
<path fill-rule="evenodd" clip-rule="evenodd" d="M656.5 971.545C831.019 971.545 972.495 830.271 972.495 656C972.495 481.729 831.019 340.455 656.5 340.455C481.981 340.455 340.505 481.729 340.505 656C340.505 830.271 481.981 971.545 656.5 971.545ZM656.5 1007C850.628 1007 1008 849.852 1008 656C1008 462.148 850.628 305 656.5 305C462.372 305 305 462.148 305 656C305 849.852 462.372 1007 656.5 1007Z" fill="url(#paint24_radial_332_428)"/>
<path fill-rule="evenodd" clip-rule="evenodd" d="M656.5 971.545C831.019 971.545 972.495 830.271 972.495 656C972.495 481.729 831.019 340.455 656.5 340.455C481.981 340.455 340.505 481.729 340.505 656C340.505 830.271 481.981 971.545 656.5 971.545ZM656.5 1007C850.628 1007 1008 849.852 1008 656C1008 462.148 850.628 305 656.5 305C462.372 305 305 462.148 305 656C305 849.852 462.372 1007 656.5 1007Z" fill="url(#paint25_radial_332_428)"/>
<path fill-rule="evenodd" clip-rule="evenodd" d="M656.5 971.545C831.019 971.545 972.495 830.271 972.495 656C972.495 481.729 831.019 340.455 656.5 340.455C481.981 340.455 340.505 481.729 340.505 656C340.505 830.271 481.981 971.545 656.5 971.545ZM656.5 1007C850.628 1007 1008 849.852 1008 656C1008 462.148 850.628 305 656.5 305C462.372 305 305 462.148 305 656C305 849.852 462.372 1007 656.5 1007Z" fill="url(#paint26_radial_332_428)"/>
<path fill-rule="evenodd" clip-rule="evenodd" d="M656.5 971.545C831.019 971.545 972.495 830.271 972.495 656C972.495 481.729 831.019 340.455 656.5 340.455C481.981 340.455 340.505 481.729 340.505 656C340.505 830.271 481.981 971.545 656.5 971.545ZM656.5 1007C850.628 1007 1008 849.852 1008 656C1008 462.148 850.628 305 656.5 305C462.372 305 305 462.148 305 656C305 849.852 462.372 1007 656.5 1007Z" fill="url(#paint27_radial_332_428)"/>
<path fill-rule="evenodd" clip-rule="evenodd" d="M656.5 971.545C831.019 971.545 972.495 830.271 972.495 656C972.495 481.729 831.019 340.455 656.5 340.455C481.981 340.455 340.505 481.729 340.505 656C340.505 830.271 481.981 971.545 656.5 971.545ZM656.5 1007C850.628 1007 1008 849.852 1008 656C1008 462.148 850.628 305 656.5 305C462.372 305 305 462.148 305 656C305 849.852 462.372 1007 656.5 1007Z" fill="url(#paint28_radial_332_428)"/>
<path fill-rule="evenodd" clip-rule="evenodd" d="M656.5 971.545C831.019 971.545 972.495 830.271 972.495 656C972.495 481.729 831.019 340.455 656.5 340.455C481.981 340.455 340.505 481.729 340.505 656C340.505 830.271 481.981 971.545 656.5 971.545ZM656.5 1007C850.628 1007 1008 849.852 1008 656C1008 462.148 850.628 305 656.5 305C462.372 305 305 462.148 305 656C305 849.852 462.372 1007 656.5 1007Z" fill="url(#paint29_radial_332_428)"/>
</g>
<g opacity="0.1">
<path fill-rule="evenodd" clip-rule="evenodd" d="M656.5 929.293C807.684 929.293 930.242 806.935 930.242 656C930.242 505.064 807.684 382.707 656.5 382.707C505.316 382.707 382.758 505.064 382.758 656C382.758 806.935 505.316 929.293 656.5 929.293ZM656.5 960C824.671 960 961 823.895 961 656C961 488.105 824.671 352 656.5 352C488.329 352 352 488.105 352 656C352 823.895 488.329 960 656.5 960Z" fill="#737373"/>
<path fill-rule="evenodd" clip-rule="evenodd" d="M656.5 929.293C807.684 929.293 930.242 806.935 930.242 656C930.242 505.064 807.684 382.707 656.5 382.707C505.316 382.707 382.758 505.064 382.758 656C382.758 806.935 505.316 929.293 656.5 929.293ZM656.5 960C824.671 960 961 823.895 961 656C961 488.105 824.671 352 656.5 352C488.329 352 352 488.105 352 656C352 823.895 488.329 960 656.5 960Z" fill="url(#paint30_radial_332_428)"/>
<path fill-rule="evenodd" clip-rule="evenodd" d="M656.5 929.293C807.684 929.293 930.242 806.935 930.242 656C930.242 505.064 807.684 382.707 656.5 382.707C505.316 382.707 382.758 505.064 382.758 656C382.758 806.935 505.316 929.293 656.5 929.293ZM656.5 960C824.671 960 961 823.895 961 656C961 488.105 824.671 352 656.5 352C488.329 352 352 488.105 352 656C352 823.895 488.329 960 656.5 960Z" fill="url(#paint31_radial_332_428)"/>
<path fill-rule="evenodd" clip-rule="evenodd" d="M656.5 929.293C807.684 929.293 930.242 806.935 930.242 656C930.242 505.064 807.684 382.707 656.5 382.707C505.316 382.707 382.758 505.064 382.758 656C382.758 806.935 505.316 929.293 656.5 929.293ZM656.5 960C824.671 960 961 823.895 961 656C961 488.105 824.671 352 656.5 352C488.329 352 352 488.105 352 656C352 823.895 488.329 960 656.5 960Z" fill="url(#paint32_radial_332_428)"/>
<path fill-rule="evenodd" clip-rule="evenodd" d="M656.5 929.293C807.684 929.293 930.242 806.935 930.242 656C930.242 505.064 807.684 382.707 656.5 382.707C505.316 382.707 382.758 505.064 382.758 656C382.758 806.935 505.316 929.293 656.5 929.293ZM656.5 960C824.671 960 961 823.895 961 656C961 488.105 824.671 352 656.5 352C488.329 352 352 488.105 352 656C352 823.895 488.329 960 656.5 960Z" fill="url(#paint33_radial_332_428)"/>
<path fill-rule="evenodd" clip-rule="evenodd" d="M656.5 929.293C807.684 929.293 930.242 806.935 930.242 656C930.242 505.064 807.684 382.707 656.5 382.707C505.316 382.707 382.758 505.064 382.758 656C382.758 806.935 505.316 929.293 656.5 929.293ZM656.5 960C824.671 960 961 823.895 961 656C961 488.105 824.671 352 656.5 352C488.329 352 352 488.105 352 656C352 823.895 488.329 960 656.5 960Z" fill="url(#paint34_radial_332_428)"/>
<path fill-rule="evenodd" clip-rule="evenodd" d="M656.5 929.293C807.684 929.293 930.242 806.935 930.242 656C930.242 505.064 807.684 382.707 656.5 382.707C505.316 382.707 382.758 505.064 382.758 656C382.758 806.935 505.316 929.293 656.5 929.293ZM656.5 960C824.671 960 961 823.895 961 656C961 488.105 824.671 352 656.5 352C488.329 352 352 488.105 352 656C352 823.895 488.329 960 656.5 960Z" fill="url(#paint35_radial_332_428)"/>
</g>
<g opacity="0.1">
<path fill-rule="evenodd" clip-rule="evenodd" d="M656 894.232C787.572 894.232 894.232 787.572 894.232 656C894.232 524.428 787.572 417.768 656 417.768C524.428 417.768 417.768 524.428 417.768 656C417.768 787.572 524.428 894.232 656 894.232ZM656 921C802.355 921 921 802.355 921 656C921 509.645 802.355 391 656 391C509.645 391 391 509.645 391 656C391 802.355 509.645 921 656 921Z" fill="#737373"/>
<path fill-rule="evenodd" clip-rule="evenodd" d="M656 894.232C787.572 894.232 894.232 787.572 894.232 656C894.232 524.428 787.572 417.768 656 417.768C524.428 417.768 417.768 524.428 417.768 656C417.768 787.572 524.428 894.232 656 894.232ZM656 921C802.355 921 921 802.355 921 656C921 509.645 802.355 391 656 391C509.645 391 391 509.645 391 656C391 802.355 509.645 921 656 921Z" fill="url(#paint36_radial_332_428)"/>
<path fill-rule="evenodd" clip-rule="evenodd" d="M656 894.232C787.572 894.232 894.232 787.572 894.232 656C894.232 524.428 787.572 417.768 656 417.768C524.428 417.768 417.768 524.428 417.768 656C417.768 787.572 524.428 894.232 656 894.232ZM656 921C802.355 921 921 802.355 921 656C921 509.645 802.355 391 656 391C509.645 391 391 509.645 391 656C391 802.355 509.645 921 656 921Z" fill="url(#paint37_radial_332_428)"/>
<path fill-rule="evenodd" clip-rule="evenodd" d="M656 894.232C787.572 894.232 894.232 787.572 894.232 656C894.232 524.428 787.572 417.768 656 417.768C524.428 417.768 417.768 524.428 417.768 656C417.768 787.572 524.428 894.232 656 894.232ZM656 921C802.355 921 921 802.355 921 656C921 509.645 802.355 391 656 391C509.645 391 391 509.645 391 656C391 802.355 509.645 921 656 921Z" fill="url(#paint38_radial_332_428)"/>
<path fill-rule="evenodd" clip-rule="evenodd" d="M656 894.232C787.572 894.232 894.232 787.572 894.232 656C894.232 524.428 787.572 417.768 656 417.768C524.428 417.768 417.768 524.428 417.768 656C417.768 787.572 524.428 894.232 656 894.232ZM656 921C802.355 921 921 802.355 921 656C921 509.645 802.355 391 656 391C509.645 391 391 509.645 391 656C391 802.355 509.645 921 656 921Z" fill="url(#paint39_radial_332_428)"/>
<path fill-rule="evenodd" clip-rule="evenodd" d="M656 894.232C787.572 894.232 894.232 787.572 894.232 656C894.232 524.428 787.572 417.768 656 417.768C524.428 417.768 417.768 524.428 417.768 656C417.768 787.572 524.428 894.232 656 894.232ZM656 921C802.355 921 921 802.355 921 656C921 509.645 802.355 391 656 391C509.645 391 391 509.645 391 656C391 802.355 509.645 921 656 921Z" fill="url(#paint40_radial_332_428)"/>
<path fill-rule="evenodd" clip-rule="evenodd" d="M656 894.232C787.572 894.232 894.232 787.572 894.232 656C894.232 524.428 787.572 417.768 656 417.768C524.428 417.768 417.768 524.428 417.768 656C417.768 787.572 524.428 894.232 656 894.232ZM656 921C802.355 921 921 802.355 921 656C921 509.645 802.355 391 656 391C509.645 391 391 509.645 391 656C391 802.355 509.645 921 656 921Z" fill="url(#paint41_radial_332_428)"/>
</g>
<g opacity="0.1">
<path fill-rule="evenodd" clip-rule="evenodd" d="M656 835.798C755.3 835.798 835.798 755.3 835.798 656C835.798 556.7 755.3 476.202 656 476.202C556.7 476.202 476.202 556.7 476.202 656C476.202 755.3 556.7 835.798 656 835.798ZM656 856C766.457 856 856 766.457 856 656C856 545.543 766.457 456 656 456C545.543 456 456 545.543 456 656C456 766.457 545.543 856 656 856Z" fill="#737373"/>
<path fill-rule="evenodd" clip-rule="evenodd" d="M656 835.798C755.3 835.798 835.798 755.3 835.798 656C835.798 556.7 755.3 476.202 656 476.202C556.7 476.202 476.202 556.7 476.202 656C476.202 755.3 556.7 835.798 656 835.798ZM656 856C766.457 856 856 766.457 856 656C856 545.543 766.457 456 656 456C545.543 456 456 545.543 456 656C456 766.457 545.543 856 656 856Z" fill="url(#paint42_radial_332_428)"/>
<path fill-rule="evenodd" clip-rule="evenodd" d="M656 835.798C755.3 835.798 835.798 755.3 835.798 656C835.798 556.7 755.3 476.202 656 476.202C556.7 476.202 476.202 556.7 476.202 656C476.202 755.3 556.7 835.798 656 835.798ZM656 856C766.457 856 856 766.457 856 656C856 545.543 766.457 456 656 456C545.543 456 456 545.543 456 656C456 766.457 545.543 856 656 856Z" fill="url(#paint43_radial_332_428)"/>
<path fill-rule="evenodd" clip-rule="evenodd" d="M656 835.798C755.3 835.798 835.798 755.3 835.798 656C835.798 556.7 755.3 476.202 656 476.202C556.7 476.202 476.202 556.7 476.202 656C476.202 755.3 556.7 835.798 656 835.798ZM656 856C766.457 856 856 766.457 856 656C856 545.543 766.457 456 656 456C545.543 456 456 545.543 456 656C456 766.457 545.543 856 656 856Z" fill="url(#paint44_radial_332_428)"/>
<path fill-rule="evenodd" clip-rule="evenodd" d="M656 835.798C755.3 835.798 835.798 755.3 835.798 656C835.798 556.7 755.3 476.202 656 476.202C556.7 476.202 476.202 556.7 476.202 656C476.202 755.3 556.7 835.798 656 835.798ZM656 856C766.457 856 856 766.457 856 656C856 545.543 766.457 456 656 456C545.543 456 456 545.543 456 656C456 766.457 545.543 856 656 856Z" fill="url(#paint45_radial_332_428)"/>
<path fill-rule="evenodd" clip-rule="evenodd" d="M656 835.798C755.3 835.798 835.798 755.3 835.798 656C835.798 556.7 755.3 476.202 656 476.202C556.7 476.202 476.202 556.7 476.202 656C476.202 755.3 556.7 835.798 656 835.798ZM656 856C766.457 856 856 766.457 856 656C856 545.543 766.457 456 656 456C545.543 456 456 545.543 456 656C456 766.457 545.543 856 656 856Z" fill="url(#paint46_radial_332_428)"/>
<path fill-rule="evenodd" clip-rule="evenodd" d="M656 835.798C755.3 835.798 835.798 755.3 835.798 656C835.798 556.7 755.3 476.202 656 476.202C556.7 476.202 476.202 556.7 476.202 656C476.202 755.3 556.7 835.798 656 835.798ZM656 856C766.457 856 856 766.457 856 656C856 545.543 766.457 456 656 456C545.543 456 456 545.543 456 656C456 766.457 545.543 856 656 856Z" fill="url(#paint47_radial_332_428)"/>
</g>
<g opacity="0.1">
<path fill-rule="evenodd" clip-rule="evenodd" d="M656.5 764.778C716.825 764.778 765.727 716.076 765.727 656C765.727 595.924 716.825 547.222 656.5 547.222C596.175 547.222 547.273 595.924 547.273 656C547.273 716.076 596.175 764.778 656.5 764.778ZM656.5 777C723.603 777 778 722.826 778 656C778 589.174 723.603 535 656.5 535C589.397 535 535 589.174 535 656C535 722.826 589.397 777 656.5 777Z" fill="#737373"/>
<path fill-rule="evenodd" clip-rule="evenodd" d="M656.5 764.778C716.825 764.778 765.727 716.076 765.727 656C765.727 595.924 716.825 547.222 656.5 547.222C596.175 547.222 547.273 595.924 547.273 656C547.273 716.076 596.175 764.778 656.5 764.778ZM656.5 777C723.603 777 778 722.826 778 656C778 589.174 723.603 535 656.5 535C589.397 535 535 589.174 535 656C535 722.826 589.397 777 656.5 777Z" fill="url(#paint48_radial_332_428)"/>
<path fill-rule="evenodd" clip-rule="evenodd" d="M656.5 764.778C716.825 764.778 765.727 716.076 765.727 656C765.727 595.924 716.825 547.222 656.5 547.222C596.175 547.222 547.273 595.924 547.273 656C547.273 716.076 596.175 764.778 656.5 764.778ZM656.5 777C723.603 777 778 722.826 778 656C778 589.174 723.603 535 656.5 535C589.397 535 535 589.174 535 656C535 722.826 589.397 777 656.5 777Z" fill="url(#paint49_radial_332_428)"/>
<path fill-rule="evenodd" clip-rule="evenodd" d="M656.5 764.778C716.825 764.778 765.727 716.076 765.727 656C765.727 595.924 716.825 547.222 656.5 547.222C596.175 547.222 547.273 595.924 547.273 656C547.273 716.076 596.175 764.778 656.5 764.778ZM656.5 777C723.603 777 778 722.826 778 656C778 589.174 723.603 535 656.5 535C589.397 535 535 589.174 535 656C535 722.826 589.397 777 656.5 777Z" fill="url(#paint50_radial_332_428)"/>
<path fill-rule="evenodd" clip-rule="evenodd" d="M656.5 764.778C716.825 764.778 765.727 716.076 765.727 656C765.727 595.924 716.825 547.222 656.5 547.222C596.175 547.222 547.273 595.924 547.273 656C547.273 716.076 596.175 764.778 656.5 764.778ZM656.5 777C723.603 777 778 722.826 778 656C778 589.174 723.603 535 656.5 535C589.397 535 535 589.174 535 656C535 722.826 589.397 777 656.5 777Z" fill="url(#paint51_radial_332_428)"/>
<path fill-rule="evenodd" clip-rule="evenodd" d="M656.5 764.778C716.825 764.778 765.727 716.076 765.727 656C765.727 595.924 716.825 547.222 656.5 547.222C596.175 547.222 547.273 595.924 547.273 656C547.273 716.076 596.175 764.778 656.5 764.778ZM656.5 777C723.603 777 778 722.826 778 656C778 589.174 723.603 535 656.5 535C589.397 535 535 589.174 535 656C535 722.826 589.397 777 656.5 777Z" fill="url(#paint52_radial_332_428)"/>
<path fill-rule="evenodd" clip-rule="evenodd" d="M656.5 764.778C716.825 764.778 765.727 716.076 765.727 656C765.727 595.924 716.825 547.222 656.5 547.222C596.175 547.222 547.273 595.924 547.273 656C547.273 716.076 596.175 764.778 656.5 764.778ZM656.5 777C723.603 777 778 722.826 778 656C778 589.174 723.603 535 656.5 535C589.397 535 535 589.174 535 656C535 722.826 589.397 777 656.5 777Z" fill="url(#paint53_radial_332_428)"/>
</g>
<defs>
<radialGradient id="paint0_radial_332_428" cx="0" cy="0" r="1" gradientUnits="userSpaceOnUse" gradientTransform="translate(1119.01 102.49) rotate(162.004) scale(757.857 1915.74)">
<stop stop-color="#24FF00"/>
<stop offset="0.0001" stop-color="#24FF00"/>
<stop offset="0.0885417" stop-color="#24FF00" stop-opacity="0.890787"/>
<stop offset="0.317708" stop-color="#24FF00" stop-opacity="0.369829"/>
<stop offset="0.619792" stop-color="#24FF00" stop-opacity="0.197724"/>
<stop offset="1" stop-color="#24FF00" stop-opacity="0"/>
</radialGradient>
<radialGradient id="paint1_radial_332_428" cx="0" cy="0" r="1" gradientUnits="userSpaceOnUse" gradientTransform="translate(911.867 439.606) rotate(-122.748) scale(349.211 799.09)">
<stop stop-color="#00F0FF"/>
<stop offset="1" stop-color="#00F0FF" stop-opacity="0"/>
</radialGradient>
<radialGradient id="paint2_radial_332_428" cx="0" cy="0" r="1" gradientUnits="userSpaceOnUse" gradientTransform="translate(15.2431 262.43) rotate(-4.17055) scale(1077.5 2547.03)">
<stop stop-color="#0057FF"/>
<stop offset="1" stop-color="#0029FF" stop-opacity="0"/>
</radialGradient>
<radialGradient id="paint3_radial_332_428" cx="0" cy="0" r="1" gradientUnits="userSpaceOnUse" gradientTransform="translate(-122.762 930.916) rotate(-46.5972) scale(684.139 2019.65)">
<stop stop-color="#24FF00"/>
<stop offset="0.0001" stop-color="#24FF00"/>
<stop offset="0.374062" stop-color="#24FF00" stop-opacity="0.369829"/>
<stop offset="0.621741" stop-color="#24FF00" stop-opacity="0.197724"/>
<stop offset="1" stop-color="#24FF00" stop-opacity="0"/>
</radialGradient>
<radialGradient id="paint4_radial_332_428" cx="0" cy="0" r="1" gradientUnits="userSpaceOnUse" gradientTransform="translate(888.458 643.207) rotate(128.763) scale(183.9 245.816)">
<stop stop-color="#13D3F7"/>
<stop offset="0.71666" stop-color="white" stop-opacity="0"/>
<stop offset="1" stop-color="#13D3F7" stop-opacity="0"/>
</radialGradient>
<radialGradient id="paint5_radial_332_428" cx="0" cy="0" r="1" gradientUnits="userSpaceOnUse" gradientTransform="translate(783.934 910.693) rotate(-169.086) scale(423.582 405.255)">
<stop stop-color="#2EA6A0"/>
<stop offset="1" stop-color="#302EA6" stop-opacity="0"/>
</radialGradient>
<radialGradient id="paint6_radial_332_428" cx="0" cy="0" r="1" gradientUnits="userSpaceOnUse" gradientTransform="translate(1052.81 181.804) rotate(161.989) scale(648.739 1641.09)">
<stop stop-color="#24FF00"/>
<stop offset="0.0001" stop-color="#24FF00"/>
<stop offset="0.0885417" stop-color="#24FF00" stop-opacity="0.890787"/>
<stop offset="0.317708" stop-color="#24FF00" stop-opacity="0.369829"/>
<stop offset="0.619792" stop-color="#24FF00" stop-opacity="0.197724"/>
<stop offset="1" stop-color="#24FF00" stop-opacity="0"/>
</radialGradient>
<radialGradient id="paint7_radial_332_428" cx="0" cy="0" r="1" gradientUnits="userSpaceOnUse" gradientTransform="translate(875.508 470.613) rotate(-122.725) scale(299.094 684.155)">
<stop stop-color="#00F0FF"/>
<stop offset="1" stop-color="#00F0FF" stop-opacity="0"/>
</radialGradient>
<radialGradient id="paint8_radial_332_428" cx="0" cy="0" r="1" gradientUnits="userSpaceOnUse" gradientTransform="translate(108.047 318.826) rotate(-4.17425) scale(922.281 2182.05)">
<stop stop-color="#0057FF"/>
<stop offset="1" stop-color="#0029FF" stop-opacity="0"/>
</radialGradient>
<radialGradient id="paint9_radial_332_428" cx="0" cy="0" r="1" gradientUnits="userSpaceOnUse" gradientTransform="translate(-10.0774 891.522) rotate(-46.6227) scale(585.861 1729.44)">
<stop stop-color="#24FF00"/>
<stop offset="0.0001" stop-color="#24FF00"/>
<stop offset="0.374062" stop-color="#24FF00" stop-opacity="0.369829"/>
<stop offset="0.621741" stop-color="#24FF00" stop-opacity="0.197724"/>
<stop offset="1" stop-color="#24FF00" stop-opacity="0"/>
</radialGradient>
<radialGradient id="paint10_radial_332_428" cx="0" cy="0" r="1" gradientUnits="userSpaceOnUse" gradientTransform="translate(855.471 645.041) rotate(128.738) scale(157.494 210.478)">
<stop stop-color="#13D3F7"/>
<stop offset="0.71666" stop-color="white" stop-opacity="0"/>
<stop offset="1" stop-color="#13D3F7" stop-opacity="0"/>
</radialGradient>
<radialGradient id="paint11_radial_332_428" cx="0" cy="0" r="1" gradientUnits="userSpaceOnUse" gradientTransform="translate(766.004 874.198) rotate(-169.076) scale(362.575 347.174)">
<stop stop-color="#2EA6A0"/>
<stop offset="1" stop-color="#302EA6" stop-opacity="0"/>
</radialGradient>
<radialGradient id="paint12_radial_332_428" cx="0" cy="0" r="1" gradientUnits="userSpaceOnUse" gradientTransform="translate(994.23 252.681) rotate(162.022) scale(552.742 1396.06)">
<stop stop-color="#24FF00"/>
<stop offset="0.0001" stop-color="#24FF00"/>
<stop offset="0.0885417" stop-color="#24FF00" stop-opacity="0.890787"/>
<stop offset="0.317708" stop-color="#24FF00" stop-opacity="0.369829"/>
<stop offset="0.619792" stop-color="#24FF00" stop-opacity="0.197724"/>
<stop offset="1" stop-color="#24FF00" stop-opacity="0"/>
</radialGradient>
<radialGradient id="paint13_radial_332_428" cx="0" cy="0" r="1" gradientUnits="userSpaceOnUse" gradientTransform="translate(843.135 498.322) rotate(-122.776) scale(254.534 582.694)">
<stop stop-color="#00F0FF"/>
<stop offset="1" stop-color="#00F0FF" stop-opacity="0"/>
</radialGradient>
<radialGradient id="paint14_radial_332_428" cx="0" cy="0" r="1" gradientUnits="userSpaceOnUse" gradientTransform="translate(189.119 369.222) rotate(-4.1662) scale(785.943 1855.92)">
<stop stop-color="#0057FF"/>
<stop offset="1" stop-color="#0029FF" stop-opacity="0"/>
</radialGradient>
<radialGradient id="paint15_radial_332_428" cx="0" cy="0" r="1" gradientUnits="userSpaceOnUse" gradientTransform="translate(88.4549 856.32) rotate(-46.5673) scale(498.75 1472.45)">
<stop stop-color="#24FF00"/>
<stop offset="0.0001" stop-color="#24FF00"/>
<stop offset="0.374062" stop-color="#24FF00" stop-opacity="0.369829"/>
<stop offset="0.621741" stop-color="#24FF00" stop-opacity="0.197724"/>
<stop offset="1" stop-color="#24FF00" stop-opacity="0"/>
</radialGradient>
<radialGradient id="paint16_radial_332_428" cx="0" cy="0" r="1" gradientUnits="userSpaceOnUse" gradientTransform="translate(826.06 646.679) rotate(128.792) scale(134.055 179.23)">
<stop stop-color="#13D3F7"/>
<stop offset="0.71666" stop-color="white" stop-opacity="0"/>
<stop offset="1" stop-color="#13D3F7" stop-opacity="0"/>
</radialGradient>
<radialGradient id="paint17_radial_332_428" cx="0" cy="0" r="1" gradientUnits="userSpaceOnUse" gradientTransform="translate(749.817 841.585) rotate(-169.097) scale(308.958 295.304)">
<stop stop-color="#2EA6A0"/>
<stop offset="1" stop-color="#302EA6" stop-opacity="0"/>
</radialGradient>
<radialGradient id="paint18_radial_332_428" cx="0" cy="0" r="1" gradientUnits="userSpaceOnUse" gradientTransform="translate(943.411 313.432) rotate(162.025) scale(469.562 1185.8)">
<stop stop-color="#24FF00"/>
<stop offset="0.0001" stop-color="#24FF00"/>
<stop offset="0.0885417" stop-color="#24FF00" stop-opacity="0.890787"/>
<stop offset="0.317708" stop-color="#24FF00" stop-opacity="0.369829"/>
<stop offset="0.619792" stop-color="#24FF00" stop-opacity="0.197724"/>
<stop offset="1" stop-color="#24FF00" stop-opacity="0"/>
</radialGradient>
<radialGradient id="paint19_radial_332_428" cx="0" cy="0" r="1" gradientUnits="userSpaceOnUse" gradientTransform="translate(815.052 522.073) rotate(-122.78) scale(216.206 494.989)">
<stop stop-color="#00F0FF"/>
<stop offset="1" stop-color="#00F0FF" stop-opacity="0"/>
</radialGradient>
<radialGradient id="paint20_radial_332_428" cx="0" cy="0" r="1" gradientUnits="userSpaceOnUse" gradientTransform="translate(259.446 412.419) rotate(-4.16543) scale(667.682 1576.37)">
<stop stop-color="#0057FF"/>
<stop offset="1" stop-color="#0029FF" stop-opacity="0"/>
</radialGradient>
<radialGradient id="paint21_radial_332_428" cx="0" cy="0" r="1" gradientUnits="userSpaceOnUse" gradientTransform="translate(173.929 826.146) rotate(-46.562) scale(423.662 1250.78)">
<stop stop-color="#24FF00"/>
<stop offset="0.0001" stop-color="#24FF00"/>
<stop offset="0.374062" stop-color="#24FF00" stop-opacity="0.369829"/>
<stop offset="0.621741" stop-color="#24FF00" stop-opacity="0.197724"/>
<stop offset="1" stop-color="#24FF00" stop-opacity="0"/>
</radialGradient>
<radialGradient id="paint22_radial_332_428" cx="0" cy="0" r="1" gradientUnits="userSpaceOnUse" gradientTransform="translate(800.546 648.083) rotate(128.798) scale(113.871 152.25)">
<stop stop-color="#13D3F7"/>
<stop offset="0.71666" stop-color="white" stop-opacity="0"/>
<stop offset="1" stop-color="#13D3F7" stop-opacity="0"/>
</radialGradient>
<radialGradient id="paint23_radial_332_428" cx="0" cy="0" r="1" gradientUnits="userSpaceOnUse" gradientTransform="translate(735.776 813.63) rotate(-169.099) scale(262.467 250.825)">
<stop stop-color="#2EA6A0"/>
<stop offset="1" stop-color="#302EA6" stop-opacity="0"/>
</radialGradient>
<radialGradient id="paint24_radial_332_428" cx="0" cy="0" r="1" gradientUnits="userSpaceOnUse" gradientTransform="translate(904.592 359.839) rotate(162.028) scale(406.022 1025.18)">
<stop stop-color="#24FF00"/>
<stop offset="0.0001" stop-color="#24FF00"/>
<stop offset="0.0885417" stop-color="#24FF00" stop-opacity="0.890787"/>
<stop offset="0.317708" stop-color="#24FF00" stop-opacity="0.369829"/>
<stop offset="0.619792" stop-color="#24FF00" stop-opacity="0.197724"/>
<stop offset="1" stop-color="#24FF00" stop-opacity="0"/>
</radialGradient>
<radialGradient id="paint25_radial_332_428" cx="0" cy="0" r="1" gradientUnits="userSpaceOnUse" gradientTransform="translate(793.6 540.216) rotate(-122.786) scale(186.927 427.992)">
<stop stop-color="#00F0FF"/>
<stop offset="1" stop-color="#00F0FF" stop-opacity="0"/>
</radialGradient>
<radialGradient id="paint26_radial_332_428" cx="0" cy="0" r="1" gradientUnits="userSpaceOnUse" gradientTransform="translate(313.168 445.416) rotate(-4.16463) scale(577.343 1362.82)">
<stop stop-color="#0057FF"/>
<stop offset="1" stop-color="#0029FF" stop-opacity="0"/>
</radialGradient>
<radialGradient id="paint27_radial_332_428" cx="0" cy="0" r="1" gradientUnits="userSpaceOnUse" gradientTransform="translate(239.221 803.097) rotate(-46.5565) scale(366.303 1081.45)">
<stop stop-color="#24FF00"/>
<stop offset="0.0001" stop-color="#24FF00"/>
<stop offset="0.374062" stop-color="#24FF00" stop-opacity="0.369829"/>
<stop offset="0.621741" stop-color="#24FF00" stop-opacity="0.197724"/>
<stop offset="1" stop-color="#24FF00" stop-opacity="0"/>
</radialGradient>
<radialGradient id="paint28_radial_332_428" cx="0" cy="0" r="1" gradientUnits="userSpaceOnUse" gradientTransform="translate(781.056 649.155) rotate(128.803) scale(98.4528 131.64)">
<stop stop-color="#13D3F7"/>
<stop offset="0.71666" stop-color="white" stop-opacity="0"/>
<stop offset="1" stop-color="#13D3F7" stop-opacity="0"/>
</radialGradient>
<radialGradient id="paint29_radial_332_428" cx="0" cy="0" r="1" gradientUnits="userSpaceOnUse" gradientTransform="translate(725.05 792.277) rotate(-169.101) scale(226.954 216.847)">
<stop stop-color="#2EA6A0"/>
<stop offset="1" stop-color="#302EA6" stop-opacity="0"/>
</radialGradient>
<radialGradient id="paint30_radial_332_428" cx="0" cy="0" r="1" gradientUnits="userSpaceOnUse" gradientTransform="translate(871.419 399.496) rotate(162.032) scale(351.725 887.923)">
<stop stop-color="#24FF00"/>
<stop offset="0.0001" stop-color="#24FF00"/>
<stop offset="0.0885417" stop-color="#24FF00" stop-opacity="0.890787"/>
<stop offset="0.317708" stop-color="#24FF00" stop-opacity="0.369829"/>
<stop offset="0.619792" stop-color="#24FF00" stop-opacity="0.197724"/>
<stop offset="1" stop-color="#24FF00" stop-opacity="0"/>
</radialGradient>
<radialGradient id="paint31_radial_332_428" cx="0" cy="0" r="1" gradientUnits="userSpaceOnUse" gradientTransform="translate(775.268 555.72) rotate(-122.791) scale(161.908 370.741)">
<stop stop-color="#00F0FF"/>
<stop offset="1" stop-color="#00F0FF" stop-opacity="0"/>
</radialGradient>
<radialGradient id="paint32_radial_332_428" cx="0" cy="0" r="1" gradientUnits="userSpaceOnUse" gradientTransform="translate(359.075 473.614) rotate(-4.16372) scale(500.144 1180.34)">
<stop stop-color="#0057FF"/>
<stop offset="1" stop-color="#0029FF" stop-opacity="0"/>
</radialGradient>
<radialGradient id="paint33_radial_332_428" cx="0" cy="0" r="1" gradientUnits="userSpaceOnUse" gradientTransform="translate(295.017 783.4) rotate(-46.5502) scale(317.287 936.747)">
<stop stop-color="#24FF00"/>
<stop offset="0.0001" stop-color="#24FF00"/>
<stop offset="0.374062" stop-color="#24FF00" stop-opacity="0.369829"/>
<stop offset="0.621741" stop-color="#24FF00" stop-opacity="0.197724"/>
<stop offset="1" stop-color="#24FF00" stop-opacity="0"/>
</radialGradient>
<radialGradient id="paint34_radial_332_428" cx="0" cy="0" r="1" gradientUnits="userSpaceOnUse" gradientTransform="translate(764.402 650.072) rotate(128.809) scale(85.277 114.028)">
<stop stop-color="#13D3F7"/>
<stop offset="0.71666" stop-color="white" stop-opacity="0"/>
<stop offset="1" stop-color="#13D3F7" stop-opacity="0"/>
</radialGradient>
<radialGradient id="paint35_radial_332_428" cx="0" cy="0" r="1" gradientUnits="userSpaceOnUse" gradientTransform="translate(715.884 774.029) rotate(-169.103) scale(196.605 187.812)">
<stop stop-color="#2EA6A0"/>
<stop offset="1" stop-color="#302EA6" stop-opacity="0"/>
</radialGradient>
<radialGradient id="paint36_radial_332_428" cx="0" cy="0" r="1" gradientUnits="userSpaceOnUse" gradientTransform="translate(843.039 432.402) rotate(162.004) scale(306.147 773.891)">
<stop stop-color="#24FF00"/>
<stop offset="0.0001" stop-color="#24FF00"/>
<stop offset="0.0885417" stop-color="#24FF00" stop-opacity="0.890787"/>
<stop offset="0.317708" stop-color="#24FF00" stop-opacity="0.369829"/>
<stop offset="0.619792" stop-color="#24FF00" stop-opacity="0.197724"/>
<stop offset="1" stop-color="#24FF00" stop-opacity="0"/>
</radialGradient>
<radialGradient id="paint37_radial_332_428" cx="0" cy="0" r="1" gradientUnits="userSpaceOnUse" gradientTransform="translate(759.361 568.585) rotate(-122.748) scale(141.069 322.803)">
<stop stop-color="#00F0FF"/>
<stop offset="1" stop-color="#00F0FF" stop-opacity="0"/>
</radialGradient>
<radialGradient id="paint38_radial_332_428" cx="0" cy="0" r="1" gradientUnits="userSpaceOnUse" gradientTransform="translate(397.158 497.012) rotate(-4.17055) scale(435.269 1028.91)">
<stop stop-color="#0057FF"/>
<stop offset="1" stop-color="#0029FF" stop-opacity="0"/>
</radialGradient>
<radialGradient id="paint39_radial_332_428" cx="0" cy="0" r="1" gradientUnits="userSpaceOnUse" gradientTransform="translate(341.409 767.056) rotate(-46.5972) scale(276.367 815.864)">
<stop stop-color="#24FF00"/>
<stop offset="0.0001" stop-color="#24FF00"/>
<stop offset="0.374062" stop-color="#24FF00" stop-opacity="0.369829"/>
<stop offset="0.621741" stop-color="#24FF00" stop-opacity="0.197724"/>
<stop offset="1" stop-color="#24FF00" stop-opacity="0"/>
</radialGradient>
<radialGradient id="paint40_radial_332_428" cx="0" cy="0" r="1" gradientUnits="userSpaceOnUse" gradientTransform="translate(749.905 650.832) rotate(128.763) scale(74.2889 99.3005)">
<stop stop-color="#13D3F7"/>
<stop offset="0.71666" stop-color="white" stop-opacity="0"/>
<stop offset="1" stop-color="#13D3F7" stop-opacity="0"/>
</radialGradient>
<radialGradient id="paint41_radial_332_428" cx="0" cy="0" r="1" gradientUnits="userSpaceOnUse" gradientTransform="translate(707.681 758.887) rotate(-169.086) scale(171.112 163.708)">
<stop stop-color="#2EA6A0"/>
<stop offset="1" stop-color="#302EA6" stop-opacity="0"/>
</radialGradient>
<radialGradient id="paint42_radial_332_428" cx="0" cy="0" r="1" gradientUnits="userSpaceOnUse" gradientTransform="translate(797.162 487.247) rotate(162.004) scale(231.054 584.068)">
<stop stop-color="#24FF00"/>
<stop offset="0.0001" stop-color="#24FF00"/>
<stop offset="0.0885417" stop-color="#24FF00" stop-opacity="0.890787"/>
<stop offset="0.317708" stop-color="#24FF00" stop-opacity="0.369829"/>
<stop offset="0.619792" stop-color="#24FF00" stop-opacity="0.197724"/>
<stop offset="1" stop-color="#24FF00" stop-opacity="0"/>
</radialGradient>
<radialGradient id="paint43_radial_332_428" cx="0" cy="0" r="1" gradientUnits="userSpaceOnUse" gradientTransform="translate(734.008 590.026) rotate(-122.748) scale(106.467 243.625)">
<stop stop-color="#00F0FF"/>
<stop offset="1" stop-color="#00F0FF" stop-opacity="0"/>
</radialGradient>
<radialGradient id="paint44_radial_332_428" cx="0" cy="0" r="1" gradientUnits="userSpaceOnUse" gradientTransform="translate(460.647 536.009) rotate(-4.17055) scale(328.505 776.532)">
<stop stop-color="#0057FF"/>
<stop offset="1" stop-color="#0029FF" stop-opacity="0"/>
</radialGradient>
<radialGradient id="paint45_radial_332_428" cx="0" cy="0" r="1" gradientUnits="userSpaceOnUse" gradientTransform="translate(418.573 739.816) rotate(-46.5972) scale(208.579 615.747)">
<stop stop-color="#24FF00"/>
<stop offset="0.0001" stop-color="#24FF00"/>
<stop offset="0.374062" stop-color="#24FF00" stop-opacity="0.369829"/>
<stop offset="0.621741" stop-color="#24FF00" stop-opacity="0.197724"/>
<stop offset="1" stop-color="#24FF00" stop-opacity="0"/>
</radialGradient>
<radialGradient id="paint46_radial_332_428" cx="0" cy="0" r="1" gradientUnits="userSpaceOnUse" gradientTransform="translate(726.871 652.1) rotate(128.763) scale(56.0671 74.9438)">
<stop stop-color="#13D3F7"/>
<stop offset="0.71666" stop-color="white" stop-opacity="0"/>
<stop offset="1" stop-color="#13D3F7" stop-opacity="0"/>
</radialGradient>
<radialGradient id="paint47_radial_332_428" cx="0" cy="0" r="1" gradientUnits="userSpaceOnUse" gradientTransform="translate(695.004 733.65) rotate(-169.086) scale(129.141 123.553)">
<stop stop-color="#2EA6A0"/>
<stop offset="1" stop-color="#302EA6" stop-opacity="0"/>
</radialGradient>
<radialGradient id="paint48_radial_332_428" cx="0" cy="0" r="1" gradientUnits="userSpaceOnUse" gradientTransform="translate(742.256 553.904) rotate(162.074) scale(140.31 353.5)">
<stop stop-color="#24FF00"/>
<stop offset="0.0001" stop-color="#24FF00"/>
<stop offset="0.0885417" stop-color="#24FF00" stop-opacity="0.890787"/>
<stop offset="0.317708" stop-color="#24FF00" stop-opacity="0.369829"/>
<stop offset="0.619792" stop-color="#24FF00" stop-opacity="0.197724"/>
<stop offset="1" stop-color="#24FF00" stop-opacity="0"/>
</radialGradient>
<radialGradient id="paint49_radial_332_428" cx="0" cy="0" r="1" gradientUnits="userSpaceOnUse" gradientTransform="translate(703.89 616.086) rotate(-122.856) scale(64.4904 147.823)">
<stop stop-color="#00F0FF"/>
<stop offset="1" stop-color="#00F0FF" stop-opacity="0"/>
</radialGradient>
<radialGradient id="paint50_radial_332_428" cx="0" cy="0" r="1" gradientUnits="userSpaceOnUse" gradientTransform="translate(537.823 583.406) rotate(-4.15344) scale(199.562 469.812)">
<stop stop-color="#0057FF"/>
<stop offset="1" stop-color="#0029FF" stop-opacity="0"/>
</radialGradient>
<radialGradient id="paint51_radial_332_428" cx="0" cy="0" r="1" gradientUnits="userSpaceOnUse" gradientTransform="translate(512.263 706.709) rotate(-46.4792) scale(126.437 373.337)">
<stop stop-color="#24FF00"/>
<stop offset="0.0001" stop-color="#24FF00"/>
<stop offset="0.374062" stop-color="#24FF00" stop-opacity="0.369829"/>
<stop offset="0.621741" stop-color="#24FF00" stop-opacity="0.197724"/>
<stop offset="1" stop-color="#24FF00" stop-opacity="0"/>
</radialGradient>
<radialGradient id="paint52_radial_332_428" cx="0" cy="0" r="1" gradientUnits="userSpaceOnUse" gradientTransform="translate(699.554 653.64) rotate(128.878) scale(33.9756 45.4546)">
<stop stop-color="#13D3F7"/>
<stop offset="0.71666" stop-color="white" stop-opacity="0"/>
<stop offset="1" stop-color="#13D3F7" stop-opacity="0"/>
</radialGradient>
<radialGradient id="paint53_radial_332_428" cx="0" cy="0" r="1" gradientUnits="userSpaceOnUse" gradientTransform="translate(680.195 702.979) rotate(-169.13) scale(78.4415 74.7609)">
<stop stop-color="#2EA6A0"/>
<stop offset="1" stop-color="#302EA6" stop-opacity="0"/>
</radialGradient>
</defs>
</svg>
