<svg width="34" height="23" viewBox="0 0 34 23" fill="none" xmlns="http://www.w3.org/2000/svg">
<g clip-path="url(#clip0_603_1931)">
<path d="M7.66667 19.1667C11.9009 19.1667 15.3333 15.7342 15.3333 11.5C15.3333 7.26585 11.9009 3.83337 7.66667 3.83337C3.43248 3.83337 0 7.26585 0 11.5C0 15.7342 3.43248 19.1667 7.66667 19.1667Z" fill="#24A980"/>
<path d="M8.61876 12.2643C8.56945 12.2643 8.28596 12.2889 7.682 12.2889C7.18896 12.2889 6.85616 12.2766 6.7329 12.2643C4.87171 12.1903 3.46657 11.8575 3.46657 11.4754C3.46657 11.081 4.85938 10.7605 6.7329 10.6743V11.9438C6.85616 11.9561 7.20129 11.9685 7.69432 11.9685C8.27363 11.9685 8.56945 11.9438 8.61876 11.9438V10.6743C10.4923 10.7605 11.8851 11.081 11.8851 11.4754C11.8851 11.8575 10.4923 12.1903 8.61876 12.2643ZM8.61876 10.5387V9.40469H11.2318V7.66675H4.13216V9.40469H6.74523V10.5387C4.62519 10.6373 3.03516 11.0564 3.03516 11.5617C3.03516 12.0671 4.62519 12.4861 6.74523 12.5848V16.2332H8.63109V12.5848C10.7511 12.4861 12.3412 12.0671 12.3412 11.5617C12.3288 11.0564 10.7388 10.6373 8.61876 10.5387Z" fill="#FFFDFA"/>
</g>
<g clip-path="url(#clip1_603_1931)">
<path d="M22.2344 23C28.5856 23 33.7344 17.8513 33.7344 11.5C33.7344 5.14873 28.5856 0 22.2344 0C15.8831 0 10.7344 5.14873 10.7344 11.5C10.7344 17.8513 15.8831 23 22.2344 23Z" fill="#F5F3F3"/>
<path d="M22.2344 15.5668V19.5722L27.1641 12.65L22.2344 15.5668Z" fill="#2F3030"/>
<path d="M22.2344 9.38611V14.5418L27.1641 11.625L22.2344 9.38611Z" fill="#08060B"/>
<path d="M22.2344 3.44995V9.38616L27.1641 11.6251L22.2344 3.44995Z" fill="#2F3030"/>
<path d="M22.2344 15.5668V19.5722L17.3047 12.65L22.2344 15.5668Z" fill="#828384"/>
<path d="M22.2344 9.38611V14.5418L17.3047 11.625L22.2344 9.38611Z" fill="#343535"/>
<path d="M22.2344 3.44995V9.38616L17.3047 11.6251L22.2344 3.44995Z" fill="#828384"/>
</g>
<defs>
<clipPath id="clip0_603_1931">
<rect width="15.3333" height="15.3333" fill="white" transform="translate(0 3.83337)"/>
</clipPath>
<clipPath id="clip1_603_1931">
<rect width="23" height="23" fill="white" transform="translate(10.7344)"/>
</clipPath>
</defs>
</svg>
