<svg width="34" height="23" viewBox="0 0 34 23" fill="none" xmlns="http://www.w3.org/2000/svg">
<g clip-path="url(#clip0_603_1882)">
<path d="M7.66667 19.1667C11.9009 19.1667 15.3333 15.7342 15.3333 11.5C15.3333 7.26586 11.9009 3.83337 7.66667 3.83337C3.43248 3.83337 0 7.26586 0 11.5C0 15.7342 3.43248 19.1667 7.66667 19.1667Z" fill="white"/>
<path fill-rule="evenodd" clip-rule="evenodd" d="M13.4324 13.2149L11.1391 16.4115C10.7784 16.9191 10.0786 17.1635 9.16887 17.0887C7.99532 16.9918 6.43953 16.3716 4.94837 15.302C3.45722 14.2318 2.36983 12.957 1.89611 11.8777C1.53543 11.0411 1.54077 10.3026 1.90682 9.7944L4.19472 6.5978C4.56077 6.09016 5.26058 5.84577 6.16497 5.9206C7.33851 6.01748 8.89965 6.63818 10.3908 7.70784C11.882 8.77748 12.9694 10.0522 13.4377 11.1316C13.8038 11.9681 13.793 12.7073 13.4324 13.2149ZM4.80843 7.03709C5.04529 6.70871 5.51899 6.62366 6.10578 6.67212C7.17703 6.7604 8.58748 7.34393 9.94944 8.32044C11.3114 9.29642 12.3181 10.4469 12.7487 11.432C12.9802 11.9719 13.0555 12.4478 12.8186 12.7762L13.1256 12.9953L12.8186 12.7762L10.5254 15.9727C10.2939 16.3006 9.8202 16.3862 9.23343 16.3372C8.16215 16.2494 6.74636 15.6654 5.38439 14.6894C4.02242 13.7129 3.01574 12.5625 2.59047 11.5779C2.3536 11.0374 2.28367 10.5615 2.52054 10.2337L4.80843 7.03709Z" fill="white"/>
<path fill-rule="evenodd" clip-rule="evenodd" d="M4.5062 6.88858C5.25448 5.84422 7.78994 6.38041 10.1694 8.08474C12.5488 9.78962 13.873 12.022 13.1248 13.0664L10.8369 16.263C10.0886 17.3073 7.54767 16.7712 5.16828 15.0663C2.78888 13.3614 1.46468 11.1295 2.21295 10.0851L4.5062 6.88858Z" fill="white"/>
<path fill-rule="evenodd" clip-rule="evenodd" d="M4.34009 6.69739C4.67296 6.23136 5.31648 6.02612 6.14867 6.09269C7.29707 6.18701 8.81718 6.8028 10.2818 7.8458C11.7409 8.89435 12.8117 10.1426 13.2666 11.1967C13.5995 11.9623 13.6105 12.6391 13.2777 13.1052L10.992 16.3007C10.6591 16.7668 10.01 16.972 9.18341 16.9054C8.035 16.8056 6.50934 16.1953 5.05026 15.1468C3.58562 14.1038 2.5204 12.8555 2.05994 11.8014C1.72706 11.0358 1.71601 10.359 2.04889 9.89298L4.34009 6.69739ZM12.9615 12.8777V12.8722C13.2278 12.506 13.1723 11.9623 12.9115 11.3521C12.4732 10.3479 11.4469 9.16618 10.0488 8.16757C8.65634 7.16895 7.20833 6.57534 6.1154 6.48657C5.44966 6.4311 4.92267 6.55317 4.65638 6.92488L4.64522 6.94703C4.39556 7.31874 4.45111 7.84579 4.71186 8.44495C5.15013 9.45467 6.17649 10.6364 7.569 11.635C8.96152 12.6336 10.4094 13.2272 11.5024 13.316C12.157 13.3659 12.673 13.2494 12.9448 12.8999L12.9615 12.8722V12.8777ZM9.3998 9.07191C10.0988 9.57122 10.6147 10.1648 10.8311 10.6697C10.9587 10.9526 10.9919 11.2023 10.8643 11.3743C10.7423 11.5462 10.4927 11.5962 10.1875 11.5685C9.63831 11.5241 8.91709 11.2245 8.21806 10.7252C7.51904 10.2259 7.00304 9.63778 6.78666 9.13291C6.66462 8.84998 6.63135 8.60032 6.75341 8.42833C6.87545 8.25634 7.12516 8.20643 7.43584 8.22863C7.97952 8.27856 8.70632 8.5726 9.3998 9.07191Z" fill="#0E0F23"/>
<mask id="mask0_603_1882" style="mask-type:alpha" maskUnits="userSpaceOnUse" x="1" y="6" width="13" height="11">
<path fill-rule="evenodd" clip-rule="evenodd" d="M4.34009 6.69739C4.67296 6.23136 5.31648 6.02612 6.14867 6.09269C7.29707 6.18701 8.81718 6.8028 10.2818 7.8458C11.7409 8.89435 12.8117 10.1426 13.2666 11.1967C13.5995 11.9623 13.6105 12.6391 13.2777 13.1052L10.992 16.3007C10.6591 16.7668 10.01 16.972 9.18341 16.9054C8.035 16.8056 6.50934 16.1953 5.05026 15.1468C3.58562 14.1038 2.5204 12.8555 2.05994 11.8014C1.72706 11.0358 1.71601 10.359 2.04889 9.89298L4.34009 6.69739ZM12.9615 12.8777V12.8722C13.2278 12.506 13.1723 11.9623 12.9115 11.3521C12.4732 10.3479 11.4469 9.16618 10.0488 8.16757C8.65634 7.16895 7.20833 6.57534 6.1154 6.48657C5.44966 6.4311 4.92267 6.55317 4.65638 6.92488L4.64522 6.94703C4.39556 7.31874 4.45111 7.84579 4.71186 8.44495C5.15013 9.45467 6.17649 10.6364 7.569 11.635C8.96152 12.6336 10.4094 13.2272 11.5024 13.316C12.157 13.3659 12.673 13.2494 12.9448 12.8999L12.9615 12.8722V12.8777ZM9.3998 9.07191C10.0988 9.57122 10.6147 10.1648 10.8311 10.6697C10.9587 10.9526 10.9919 11.2023 10.8643 11.3743C10.7423 11.5462 10.4927 11.5962 10.1875 11.5685C9.63831 11.5241 8.91709 11.2245 8.21806 10.7252C7.51904 10.2259 7.00304 9.63778 6.78666 9.13291C6.66462 8.84998 6.63135 8.60032 6.75341 8.42833C6.87545 8.25634 7.12516 8.20643 7.43584 8.22863C7.97952 8.27856 8.70632 8.5726 9.3998 9.07191Z" fill="#0E0F23"/>
</mask>
<g mask="url(#mask0_603_1882)">
<path fill-rule="evenodd" clip-rule="evenodd" d="M1.31641 12.9747C1.37743 12.9747 1.47732 13.1193 1.53279 13.1588C1.72697 13.3036 1.92112 13.4484 2.12085 13.5668C2.70337 13.9221 3.30805 14.1194 3.90721 13.9878C4.85034 13.7773 5.70471 12.1325 6.6534 12.3562C7.18599 12.4746 7.56329 13.2247 8.02931 13.7379C8.47315 14.2511 8.9613 14.4748 9.45507 14.3695C10.9252 14.08 11.4801 11.185 12.9724 11.3429C14.2096 11.4745 13.7269 12.9614 14.9142 13.4878C14.9253 13.501 17.7824 10.9876 17.8046 10.5534C17.8878 8.88219 16.3012 -10.8036 16.3734 -10.8036L2.22076 -5.6058L1.31641 12.9747Z" fill="url(#paint0_linear_603_1882)"/>
<path fill-rule="evenodd" clip-rule="evenodd" d="M4.10317 7.74751C4.14909 7.74558 4.18788 7.78126 4.1898 7.82718C4.19097 7.85524 4.19267 7.88331 4.19489 7.91135C4.19852 7.95718 4.16432 7.99725 4.1185 8.00088C4.07269 8.0045 4.0326 7.97031 4.02897 7.9245C4.02659 7.89441 4.02477 7.86428 4.02351 7.83413C4.02158 7.78821 4.05725 7.74943 4.10317 7.74751ZM4.14682 8.12688C4.19226 8.12002 4.23468 8.15127 4.24155 8.19671C4.34083 8.85252 4.68339 9.37859 5.16316 9.97244C5.19204 10.0082 5.18648 10.0606 5.15072 10.0895C5.11497 10.1184 5.06259 10.1128 5.03369 10.077C4.54577 9.4731 4.18266 8.91954 4.07699 8.22163C4.07012 8.17619 4.10138 8.13377 4.14682 8.12688ZM6.57942 11.5144C6.6094 11.4795 6.66195 11.4756 6.69678 11.5056C6.71884 11.5246 6.74077 11.5434 6.76259 11.562C6.78982 11.5852 6.81737 11.6083 6.84521 11.6313C6.88064 11.6606 6.88562 11.7131 6.85635 11.7485C6.82707 11.7839 6.7746 11.7889 6.73917 11.7596C6.71071 11.7361 6.68254 11.7125 6.65465 11.6887C6.63267 11.6699 6.61045 11.6509 6.58822 11.6317C6.55339 11.6018 6.54944 11.5492 6.57942 11.5144ZM6.89733 11.7813C6.92559 11.7451 6.97788 11.7386 7.01414 11.7669C7.69994 12.3016 8.53498 12.7703 9.36453 13.1057C9.40714 13.1229 9.42771 13.1714 9.4105 13.214C9.39326 13.2566 9.34476 13.2772 9.30216 13.26C8.45978 12.9194 7.611 12.4433 6.9118 11.8981C6.87555 11.8699 6.86908 11.8176 6.89733 11.7813ZM12.1834 13.6815C12.1907 13.7269 12.1598 13.7696 12.1144 13.7769C12.0777 13.7828 12.0404 13.7879 12.0024 13.7921C11.9567 13.7972 11.9156 13.7644 11.9104 13.7187C11.9053 13.673 11.9382 13.6318 11.9839 13.6267C12.0193 13.6227 12.054 13.618 12.088 13.6126C12.1334 13.6053 12.1761 13.6362 12.1834 13.6815Z" fill="white"/>
</g>
</g>
<g clip-path="url(#clip1_603_1882)">
<path d="M22.2344 23C28.5856 23 33.7344 17.8513 33.7344 11.5C33.7344 5.14873 28.5856 0 22.2344 0C15.8831 0 10.7344 5.14873 10.7344 11.5C10.7344 17.8513 15.8831 23 22.2344 23Z" fill="#F5F3F3"/>
<path d="M22.2344 15.5668V19.5722L27.1641 12.65L22.2344 15.5668Z" fill="#2F3030"/>
<path d="M22.2344 9.38611V14.5417L27.1641 11.625L22.2344 9.38611Z" fill="#08060B"/>
<path d="M22.2344 3.44995V9.38616L27.1641 11.6251L22.2344 3.44995Z" fill="#2F3030"/>
<path d="M22.2344 15.5668V19.5722L17.3047 12.65L22.2344 15.5668Z" fill="#828384"/>
<path d="M22.2344 9.38611V14.5417L17.3047 11.625L22.2344 9.38611Z" fill="#343535"/>
<path d="M22.2344 3.44995V9.38616L17.3047 11.6251L22.2344 3.44995Z" fill="#828384"/>
</g>
<defs>
<linearGradient id="paint0_linear_603_1882" x1="6.37602" y1="6.06613" x2="7.92437" y2="13.8609" gradientUnits="userSpaceOnUse">
<stop stop-color="#27B0E6"/>
<stop offset="0.52" stop-color="#C26BB3"/>
<stop offset="1" stop-color="#FA52A0"/>
</linearGradient>
<clipPath id="clip0_603_1882">
<rect width="15.3333" height="15.3333" fill="white" transform="translate(0 3.83337)"/>
</clipPath>
<clipPath id="clip1_603_1882">
<rect width="23" height="23" fill="white" transform="translate(10.7344)"/>
</clipPath>
</defs>
</svg>
