<svg width="34" height="23" viewBox="0 0 34 23" fill="none" xmlns="http://www.w3.org/2000/svg">
<g clip-path="url(#clip0_600_1295)">
<path d="M7.66667 19.1499C11.9009 19.1499 15.3333 15.7528 15.3333 11.5622C15.3333 7.37171 11.9009 3.97461 7.66667 3.97461C3.43248 3.97461 0 7.37171 0 11.5622C0 15.7528 3.43248 19.1499 7.66667 19.1499Z" fill="#FFE804"/>
<path fill-rule="evenodd" clip-rule="evenodd" d="M7.7911 6.40259C8.12844 6.40259 8.4351 6.91855 8.4351 7.52556C8.4351 7.55591 8.4351 7.55591 8.4351 7.55591C8.6191 7.34345 8.83377 7.22205 9.01777 7.28275C9.20177 7.34345 9.2631 7.58626 9.23244 7.88976C9.23244 8.04152 9.20177 8.19327 9.14044 8.34502C9.10977 8.43607 9.04844 8.52712 9.01777 8.58782C11.4711 9.19484 13.2191 11.289 13.1884 14.9007H11.6858C11.7164 11.8353 9.96844 10.3178 7.6991 10.2875C5.2151 10.2268 3.8351 11.9264 3.68177 14.9007H2.14844C2.33244 11.2587 3.86577 9.07343 6.56444 8.61818C6.53377 8.55747 6.44177 8.43607 6.4111 8.34502C6.19644 7.88976 6.2271 7.43451 6.47244 7.3131C6.65644 7.22205 6.9631 7.3738 7.1471 7.64696C7.1471 7.61661 7.1471 7.55591 7.1471 7.52556C7.17777 6.91855 7.45377 6.40259 7.7911 6.40259ZM6.4111 12.0478C6.5951 12.0478 6.74844 12.2299 6.74844 12.412V13.3225C6.74844 13.535 6.5951 13.6867 6.4111 13.6867C6.2271 13.6867 6.07377 13.5046 6.07377 13.3225V12.412C6.10444 12.1995 6.2271 12.0478 6.4111 12.0478ZM9.04844 12.0478C9.23244 12.0478 9.38577 12.2299 9.38577 12.412V13.3225C9.38577 13.535 9.23244 13.6867 9.04844 13.6867C8.86444 13.6867 8.7111 13.5046 8.7111 13.3225V12.412C8.74177 12.1995 8.86444 12.0478 9.04844 12.0478Z" fill="black"/>
</g>
<g clip-path="url(#clip1_600_1295)">
<path d="M22.2344 23C28.5856 23 33.7344 17.8513 33.7344 11.5C33.7344 5.14873 28.5856 0 22.2344 0C15.8831 0 10.7344 5.14873 10.7344 11.5C10.7344 17.8513 15.8831 23 22.2344 23Z" fill="#FFFDFA"/>
<path d="M22.2352 4.6947C19.4211 4.6947 17.1211 6.98117 17.1211 9.8088C17.1211 10.377 17.2158 10.9318 17.3917 11.4729C17.5134 11.8382 17.9193 12.0412 18.2981 11.9194C18.6634 11.7976 18.8664 11.3918 18.7446 11.0129C18.5958 10.5935 18.5281 10.147 18.5417 9.70058C18.5958 7.79292 20.1381 6.22351 22.0458 6.1288C24.1699 6.02058 25.9287 7.71175 25.9287 9.8088C25.9287 11.7706 24.3864 13.3806 22.4517 13.4888C22.4517 13.4888 21.7346 13.5294 21.3828 13.5835C21.207 13.6106 21.0717 13.6376 20.977 13.6512C20.9364 13.6647 20.8958 13.6241 20.9093 13.5835L21.0311 12.9882L21.694 9.93058C21.7752 9.55175 21.5317 9.17292 21.1528 9.09175C20.774 9.01058 20.3952 9.25409 20.314 9.63292C20.314 9.63292 18.7176 17.0741 18.704 17.1553C18.6228 17.5341 18.8664 17.9129 19.2452 17.9941C19.624 18.0753 20.0028 17.8318 20.084 17.4529C20.0976 17.3718 20.314 16.3841 20.314 16.3841C20.4764 15.6265 21.0987 15.0718 21.8293 14.977C21.9917 14.95 22.6276 14.9094 22.6276 14.9094C25.2658 14.7065 27.3493 12.5012 27.3493 9.8088C27.3493 6.98117 25.0493 4.6947 22.2352 4.6947Z" fill="#08060B"/>
<path d="M22.5993 16.4653C22.1393 16.3706 21.6793 16.6547 21.5846 17.1282C21.4898 17.5882 21.774 18.0482 22.2475 18.1429C22.7075 18.2376 23.1675 17.9535 23.2622 17.48C23.3569 17.0065 23.0728 16.56 22.5993 16.4653Z" fill="#E6007A"/>
</g>
<defs>
<clipPath id="clip0_600_1295">
<rect width="15.3333" height="15.3333" fill="white" transform="translate(0 3.83337)"/>
</clipPath>
<clipPath id="clip1_600_1295">
<rect width="23" height="23" fill="white" transform="translate(10.7344)"/>
</clipPath>
</defs>
</svg>
