<svg width="34" height="23" viewBox="0 0 34 23" fill="none" xmlns="http://www.w3.org/2000/svg">
<g clip-path="url(#clip0_603_1943)">
<path d="M7.66667 20.3167C11.9009 20.3167 15.3333 16.8842 15.3333 12.6501C15.3333 8.41588 11.9009 4.9834 7.66667 4.9834C3.43248 4.9834 0 8.41588 0 12.6501C0 16.8842 3.43248 20.3167 7.66667 20.3167Z" fill="#F5F3F3"/>
<path d="M7.66797 15.3613V18.0315L10.9544 13.4167L7.66797 15.3613Z" fill="#2F3030"/>
<path d="M7.66797 11.2407V14.6778L10.9544 12.7333L7.66797 11.2407Z" fill="#08060B"/>
<path d="M7.66797 7.28345V11.2409L10.9544 12.7335L7.66797 7.28345Z" fill="#2F3030"/>
<path d="M7.66538 15.3613V18.0315L4.37891 13.4167L7.66538 15.3613Z" fill="#828384"/>
<path d="M7.66538 11.2407V14.6778L4.37891 12.7333L7.66538 11.2407Z" fill="#343535"/>
<path d="M7.66538 7.28345V11.2409L4.37891 12.7335L7.66538 7.28345Z" fill="#828384"/>
</g>
<g clip-path="url(#clip1_603_1943)">
<path d="M22.2344 23C28.5856 23 33.7344 17.8513 33.7344 11.5C33.7344 5.14873 28.5856 0 22.2344 0C15.8831 0 10.7344 5.14873 10.7344 11.5C10.7344 17.8513 15.8831 23 22.2344 23Z" fill="#F0B90B"/>
<path fill-rule="evenodd" clip-rule="evenodd" d="M17.3398 8.57896L22.2388 3.67993L24.1922 5.6333L19.2932 10.5323L17.3398 8.57896ZM17.3434 14.4331L25.1725 6.60402L27.1258 8.55739L19.2967 16.3865L17.3434 14.4331ZM28.1005 9.53762L20.2714 17.3667L22.2248 19.3201L30.0539 11.491L28.1005 9.53762ZM14.4141 11.5041L16.3674 9.55068L18.3208 11.5041L16.3674 13.4574L14.4141 11.5041Z" fill="#FFFDFA"/>
</g>
<defs>
<clipPath id="clip0_603_1943">
<rect width="15.3333" height="15.3333" fill="white" transform="translate(0 4.9834)"/>
</clipPath>
<clipPath id="clip1_603_1943">
<rect width="23" height="23" fill="white" transform="translate(10.7344)"/>
</clipPath>
</defs>
</svg>
