<svg width="26" height="26" viewBox="0 0 26 26" fill="none" xmlns="http://www.w3.org/2000/svg">
<g clip-path="url(#clip0_545_642)">
<path d="M23.6736 9.08306L25.2023 8.52193C25.0022 7.97821 24.7661 7.44849 24.4954 6.93628L23.0547 7.69694C23.2915 8.14476 23.4982 8.6078 23.6736 9.08306Z" fill="#BB7A36"/>
<path d="M23.5844 5.4597C23.2478 4.98867 22.8805 4.54028 22.4849 4.11755L21.2959 5.23004C21.6423 5.60039 21.9639 5.99329 22.2585 6.40604L23.5844 5.4597Z" fill="#BB7A36"/>
<path d="M25.6919 10.1841V10.1882L24.1013 10.5408C25.4701 16.69 21.5948 22.7846 15.4456 24.1533C9.29636 25.522 3.20183 21.6467 1.83312 15.4974C0.464351 9.34824 4.33972 3.25377 10.4889 1.885C13.9039 1.12485 17.4788 1.97393 20.1873 4.18841L21.2192 2.9277C15.6564 -1.61105 7.46745 -0.780965 2.9287 4.7818C-1.61005 10.3446 -0.780015 18.5335 4.7827 23.0723C10.3454 27.6111 18.5344 26.781 23.0732 21.2182C25.589 18.1349 26.5539 14.0691 25.6919 10.1841Z" fill="#BB7A36"/>
<path d="M7.28809 13.5745L12.9686 21.7797L18.6491 13.5745L12.9686 4.1062L7.28809 13.5745ZM12.9686 18.9179L10.5783 15.4623L12.9686 16.5284L15.3589 15.4623L12.9686 18.9179ZM12.9686 14.7456L9.42835 13.1722L12.9686 7.27262L16.5088 13.1722L12.9686 14.7456Z" fill="#BB7A36"/>
</g>
<defs>
<clipPath id="clip0_545_642">
<rect width="26" height="26" fill="white"/>
</clipPath>
</defs>
</svg>
