<svg width="26" height="26" viewBox="0 0 26 26" fill="none" xmlns="http://www.w3.org/2000/svg">
<g clip-path="url(#clip0_545_757)">
<path d="M23.6756 9.08306L25.2042 8.52193C25.0042 7.97821 24.7681 7.44849 24.4973 6.93628L23.0566 7.69694C23.2934 8.14476 23.5002 8.6078 23.6756 9.08306Z" fill="#FFF018"/>
<path d="M23.5854 5.4597C23.2488 4.98867 22.8815 4.54028 22.4859 4.11755L21.2969 5.23004C21.6433 5.60039 21.9649 5.99329 22.2595 6.40604L23.5854 5.4597Z" fill="#FFF018"/>
<path d="M25.6929 10.1841V10.1882L24.1023 10.5408C25.471 16.69 21.5957 22.7846 15.4465 24.1533C9.29734 25.522 3.20281 21.6467 1.83409 15.4974C0.465327 9.34824 4.34069 3.25377 10.4899 1.885C13.9049 1.12485 17.4798 1.97393 20.1883 4.18841L21.2201 2.9277C15.6574 -1.61105 7.46843 -0.780965 2.92968 4.7818C-1.60907 10.3446 -0.779039 18.5335 4.78368 23.0723C10.3464 27.6111 18.5354 26.781 23.0741 21.2182C25.5899 18.1349 26.5549 14.0691 25.6929 10.1841Z" fill="#FFF018"/>
<path d="M7.28906 13.5745L12.9696 21.7797L18.6501 13.5745L12.9696 4.1062L7.28906 13.5745ZM12.9696 18.9179L10.5793 15.4623L12.9696 16.5284L15.3599 15.4623L12.9696 18.9179ZM12.9696 14.7456L9.42933 13.1722L12.9696 7.27262L16.5098 13.1722L12.9696 14.7456Z" fill="#FFF018"/>
</g>
<defs>
<clipPath id="clip0_545_757">
<rect width="26" height="26" fill="white"/>
</clipPath>
</defs>
</svg>
