<svg width="33" height="33" viewBox="0 0 33 33" fill="none" xmlns="http://www.w3.org/2000/svg">
<mask id="path-1-outside-1_529_1567" maskUnits="userSpaceOnUse" x="0" y="0" width="33" height="33" fill="black">
<rect fill="white" width="33" height="33"/>
<path fill-rule="evenodd" clip-rule="evenodd" d="M1 16.5C1 7.93958 7.93958 1 16.5 1C25.0604 1 32 7.93958 32 16.5C32 25.0604 25.0604 32 16.5 32C7.93958 32 1 25.0604 1 16.5ZM2.9375 16.5C2.9375 23.9904 9.00963 30.0625 16.5 30.0625C23.9904 30.0625 30.0625 23.9904 30.0625 16.5C30.0625 9.00963 23.9904 2.9375 16.5 2.9375C9.00963 2.9375 2.9375 9.00963 2.9375 16.5ZM13.5938 11.6562C13.5938 12.7263 12.7263 13.5938 11.6562 13.5938C10.5862 13.5938 9.71875 12.7263 9.71875 11.6562C9.71875 10.5862 10.5862 9.71875 11.6562 9.71875C12.7263 9.71875 13.5938 10.5862 13.5938 11.6562ZM21.3438 13.5938C22.4138 13.5938 23.2812 12.7263 23.2812 11.6562C23.2812 10.5862 22.4138 9.71875 21.3438 9.71875C20.2737 9.71875 19.4062 10.5862 19.4062 11.6562C19.4062 12.7263 20.2737 13.5938 21.3438 13.5938ZM16.5 23.2812C20.2452 23.2812 23.2812 20.2452 23.2812 16.5H25.2188C25.2188 21.3152 21.3152 25.2188 16.5 25.2188C11.6848 25.2188 7.78125 21.3152 7.78125 16.5H9.71875C9.71875 20.2452 12.7548 23.2812 16.5 23.2812Z"/>
</mask>
<path fill-rule="evenodd" clip-rule="evenodd" d="M1 16.5C1 7.93958 7.93958 1 16.5 1C25.0604 1 32 7.93958 32 16.5C32 25.0604 25.0604 32 16.5 32C7.93958 32 1 25.0604 1 16.5ZM2.9375 16.5C2.9375 23.9904 9.00963 30.0625 16.5 30.0625C23.9904 30.0625 30.0625 23.9904 30.0625 16.5C30.0625 9.00963 23.9904 2.9375 16.5 2.9375C9.00963 2.9375 2.9375 9.00963 2.9375 16.5ZM13.5938 11.6562C13.5938 12.7263 12.7263 13.5938 11.6562 13.5938C10.5862 13.5938 9.71875 12.7263 9.71875 11.6562C9.71875 10.5862 10.5862 9.71875 11.6562 9.71875C12.7263 9.71875 13.5938 10.5862 13.5938 11.6562ZM21.3438 13.5938C22.4138 13.5938 23.2812 12.7263 23.2812 11.6562C23.2812 10.5862 22.4138 9.71875 21.3438 9.71875C20.2737 9.71875 19.4062 10.5862 19.4062 11.6562C19.4062 12.7263 20.2737 13.5938 21.3438 13.5938ZM16.5 23.2812C20.2452 23.2812 23.2812 20.2452 23.2812 16.5H25.2188C25.2188 21.3152 21.3152 25.2188 16.5 25.2188C11.6848 25.2188 7.78125 21.3152 7.78125 16.5H9.71875C9.71875 20.2452 12.7548 23.2812 16.5 23.2812Z" fill="#C50077"/>
<path d="M23.2812 16.5V16H22.7812V16.5H23.2812ZM25.2188 16.5H25.7188V16H25.2188V16.5ZM7.78125 16.5V16H7.28125V16.5H7.78125ZM9.71875 16.5H10.2188V16H9.71875V16.5ZM16.5 0.5C7.66344 0.5 0.5 7.66344 0.5 16.5H1.5C1.5 8.21572 8.21572 1.5 16.5 1.5V0.5ZM32.5 16.5C32.5 7.66344 25.3366 0.5 16.5 0.5V1.5C24.7843 1.5 31.5 8.21572 31.5 16.5H32.5ZM16.5 32.5C25.3366 32.5 32.5 25.3366 32.5 16.5H31.5C31.5 24.7843 24.7843 31.5 16.5 31.5V32.5ZM0.5 16.5C0.5 25.3366 7.66344 32.5 16.5 32.5V31.5C8.21572 31.5 1.5 24.7843 1.5 16.5H0.5ZM16.5 29.5625C9.28577 29.5625 3.4375 23.7142 3.4375 16.5H2.4375C2.4375 24.2665 8.73348 30.5625 16.5 30.5625V29.5625ZM29.5625 16.5C29.5625 23.7142 23.7142 29.5625 16.5 29.5625V30.5625C24.2665 30.5625 30.5625 24.2665 30.5625 16.5H29.5625ZM16.5 3.4375C23.7142 3.4375 29.5625 9.28577 29.5625 16.5H30.5625C30.5625 8.73348 24.2665 2.4375 16.5 2.4375V3.4375ZM3.4375 16.5C3.4375 9.28577 9.28577 3.4375 16.5 3.4375V2.4375C8.73348 2.4375 2.4375 8.73348 2.4375 16.5H3.4375ZM11.6562 14.0938C13.0024 14.0938 14.0938 13.0024 14.0938 11.6562H13.0938C13.0938 12.4502 12.4502 13.0938 11.6562 13.0938V14.0938ZM9.21875 11.6562C9.21875 13.0024 10.3101 14.0938 11.6562 14.0938V13.0938C10.8623 13.0938 10.2188 12.4502 10.2188 11.6562H9.21875ZM11.6562 9.21875C10.3101 9.21875 9.21875 10.3101 9.21875 11.6562H10.2188C10.2188 10.8623 10.8623 10.2188 11.6562 10.2188V9.21875ZM14.0938 11.6562C14.0938 10.3101 13.0024 9.21875 11.6562 9.21875V10.2188C12.4502 10.2188 13.0938 10.8623 13.0938 11.6562H14.0938ZM22.7812 11.6562C22.7812 12.4502 22.1377 13.0938 21.3438 13.0938V14.0938C22.6899 14.0938 23.7812 13.0024 23.7812 11.6562H22.7812ZM21.3438 10.2188C22.1377 10.2188 22.7812 10.8623 22.7812 11.6562H23.7812C23.7812 10.3101 22.6899 9.21875 21.3438 9.21875V10.2188ZM19.9062 11.6562C19.9062 10.8623 20.5498 10.2188 21.3438 10.2188V9.21875C19.9976 9.21875 18.9062 10.3101 18.9062 11.6562H19.9062ZM21.3438 13.0938C20.5498 13.0938 19.9062 12.4502 19.9062 11.6562H18.9062C18.9062 13.0024 19.9976 14.0938 21.3438 14.0938V13.0938ZM22.7812 16.5C22.7812 19.969 19.969 22.7812 16.5 22.7812V23.7812C20.5213 23.7812 23.7812 20.5213 23.7812 16.5H22.7812ZM25.2188 16H23.2812V17H25.2188V16ZM16.5 25.7188C21.5914 25.7188 25.7188 21.5914 25.7188 16.5H24.7188C24.7188 21.0391 21.0391 24.7188 16.5 24.7188V25.7188ZM7.28125 16.5C7.28125 21.5914 11.4086 25.7188 16.5 25.7188V24.7188C11.9609 24.7188 8.28125 21.0391 8.28125 16.5H7.28125ZM9.71875 16H7.78125V17H9.71875V16ZM16.5 22.7812C13.031 22.7812 10.2188 19.969 10.2188 16.5H9.21875C9.21875 20.5213 12.4787 23.7812 16.5 23.7812V22.7812Z" fill="#C50077" mask="url(#path-1-outside-1_529_1567)"/>
</svg>
