<svg width="60" height="60" viewBox="0 0 60 60" fill="none" xmlns="http://www.w3.org/2000/svg">
<rect x="1" y="1" width="58" height="58" rx="19" fill="white" stroke="#2DA8E8" stroke-width="2"/>
<path d="M15 28.5C14.1716 28.5 13.5 29.1716 13.5 30C13.5 30.8284 14.1716 31.5 15 31.5V28.5ZM46.0607 31.0607C46.6464 30.4749 46.6464 29.5251 46.0607 28.9393L36.5147 19.3934C35.9289 18.8076 34.9792 18.8076 34.3934 19.3934C33.8076 19.9792 33.8076 20.9289 34.3934 21.5147L42.8787 30L34.3934 38.4853C33.8076 39.0711 33.8076 40.0208 34.3934 40.6066C34.9792 41.1924 35.9289 41.1924 36.5147 40.6066L46.0607 31.0607ZM15 31.5H45V28.5H15V31.5Z" fill="#2DA8E8"/>
</svg>
