<svg width="36" height="36" viewBox="0 0 36 36" fill="none" xmlns="http://www.w3.org/2000/svg">
<path d="M11.1022 4.23182L11.1165 4.22471L11.1289 4.21479C11.5874 3.84798 12.1348 3.65 12.6875 3.65C13.2402 3.65 13.7876 3.84798 14.2461 4.21479L14.2585 4.22471L14.2728 4.23182L14.3213 4.25609L14.336 4.27082L17.8369 8.22444L17.8481 8.2371L17.8619 8.24694L18.8197 8.93303L18.7995 8.95316L18.9135 9.05909C19.8457 9.92559 19.8325 11.4007 18.9447 12.2885L16.6947 14.5385L16.6222 14.6109L16.6634 14.7048C17.0131 15.5016 17.9631 17.5448 19.8261 19.3233C21.6969 21.1099 23.6508 22.1199 24.4701 22.5141L24.566 22.5602L24.6412 22.485L26.8912 20.235C27.7586 19.3676 29.3015 19.3619 30.1777 20.2181L30.2018 20.2663L30.2127 20.2881L30.2299 20.3053L34.8002 24.8756C35.6732 25.7487 35.6732 27.2709 34.8002 28.1439L31.2535 31.6906C30.2377 32.5599 28.8138 32.8711 27.5007 32.432L27.4775 32.4242H27.4531H27.4463C24.804 31.3893 19.5064 29.056 14.7623 24.3119C10.0344 19.584 7.60615 14.3556 6.65116 11.634C6.65142 11.6265 6.65133 11.616 6.64961 11.6038C6.64817 11.5936 6.64539 11.5808 6.63987 11.5668C6.19186 10.3277 6.51095 8.89444 7.55096 7.93444L7.66568 7.82855L7.62464 7.78751L11.0365 4.27326L11.0537 4.25609L11.1022 4.23182ZM13.0409 5.75064L13.0355 5.74515L13.0296 5.74024C12.9355 5.66184 12.819 5.6 12.6875 5.6C12.556 5.6 12.4395 5.66184 12.3454 5.74024L12.3396 5.74508L12.3343 5.75049L8.92466 9.23039L8.8588 9.29626C8.631 9.49364 8.48851 9.7787 8.42444 10.0694C8.36011 10.3612 8.37135 10.674 8.46827 10.9337C9.32653 13.4016 11.6614 18.4712 16.1322 22.942C20.5702 27.38 25.5452 29.5645 28.1014 30.5693L28.1013 30.5695L28.1085 30.5719C28.4541 30.6879 28.7811 30.7245 29.0952 30.668C29.4099 30.6114 29.7006 30.4633 29.9764 30.2272L29.9767 30.2276L29.985 30.2193L33.4303 26.774C33.4617 26.7426 33.4806 26.7252 33.4983 26.7087C33.5107 26.6973 33.5226 26.6863 33.5378 26.6714C33.5509 26.6587 33.5687 26.6405 33.5835 26.6193C33.599 26.5969 33.6192 26.5594 33.6192 26.5098C33.6192 26.4601 33.599 26.4227 33.5835 26.4002C33.5687 26.379 33.5509 26.3609 33.5378 26.3481C33.5226 26.3332 33.5107 26.3222 33.4983 26.3108C33.4806 26.2944 33.4617 26.2769 33.4303 26.2455L28.8248 21.64C28.8117 21.6269 28.7988 21.6138 28.7862 21.601C28.7576 21.5719 28.7311 21.5449 28.7097 21.5257C28.6826 21.5014 28.6248 21.4511 28.543 21.4511C28.4611 21.4511 28.4033 21.5014 28.3763 21.5257C28.3549 21.5449 28.3283 21.5719 28.2997 21.601C28.2872 21.6138 28.2742 21.6269 28.2611 21.64L24.9945 24.9067L24.3858 24.6327L24.3858 24.6327L24.3827 24.6314L24.3827 24.6314L24.3824 24.6313L24.3809 24.6306L24.3746 24.6279L24.3491 24.6168C24.3264 24.6069 24.2926 24.592 24.2485 24.5721C24.1603 24.5322 24.0309 24.4725 23.8674 24.3933C23.5403 24.2349 23.0765 23.9987 22.5313 23.6883C21.4403 23.0671 20.0265 22.1505 18.73 20.9673L18.7301 20.9673L18.7265 20.9642L18.4835 20.7559C17.1416 19.4762 16.1492 17.9796 15.4915 16.8001C15.1627 16.2104 14.9183 15.7011 14.7562 15.3398C14.6751 15.1591 14.6147 15.0155 14.5747 14.9173C14.5547 14.8683 14.5398 14.8306 14.5299 14.8053L14.5189 14.7768L14.5163 14.7698L14.516 14.7691L14.3028 14.16L14.7586 13.7347L14.7587 13.7347L14.7623 13.7311L17.5748 10.9186C17.5948 10.8986 17.6143 10.881 17.6361 10.8612C17.6494 10.8493 17.6635 10.8365 17.679 10.822C17.7121 10.7912 17.7593 10.7459 17.7879 10.695C17.8031 10.668 17.821 10.6261 17.8186 10.5748C17.8158 10.5175 17.7889 10.47 17.7517 10.4365C17.7184 10.4064 17.6787 10.3889 17.6437 10.3775C17.6124 10.3674 17.5772 10.3598 17.5388 10.354L13.0409 5.75064Z" fill="#5A5A5A" stroke="white" stroke-width="0.3"/>
</svg>
